G75*
%MOIN*%
%OFA0B0*%
%FSLAX25Y25*%
%IPPOS*%
%LPD*%
%AMOC8*
5,1,8,0,0,1.08239X$1,22.5*
%
%ADD10R,0.02400X0.01800*%
%ADD11C,0.04331*%
%ADD12C,0.05800*%
%ADD13R,0.03937X0.04331*%
%ADD14R,0.03937X0.11811*%
%ADD15R,0.09843X0.10039*%
%ADD16R,0.01378X0.03150*%
%ADD17R,0.01800X0.02400*%
%ADD18R,0.02559X0.00787*%
%ADD19R,0.02953X0.00787*%
%ADD20R,0.00787X0.02559*%
%ADD21R,0.04331X0.07480*%
%ADD22R,0.01181X0.04724*%
%ADD23C,0.01102*%
%ADD24R,0.10630X0.10630*%
%ADD25C,0.02781*%
%ADD26R,0.10000X0.10500*%
%ADD27R,0.05000X0.03000*%
%ADD28R,0.15748X0.07874*%
%ADD29R,0.04100X0.02800*%
%ADD30R,0.02800X0.04100*%
%ADD31C,0.03962*%
%ADD32C,0.05800*%
%ADD33C,0.00800*%
%ADD34C,0.01000*%
%ADD35C,0.02381*%
%ADD36C,0.02400*%
%ADD37C,0.01200*%
%ADD38C,0.01600*%
%ADD39C,0.00600*%
%ADD40C,0.00700*%
%ADD41C,0.02000*%
D10*
X0086663Y0069100D03*
X0086663Y0072900D03*
X0053163Y0081600D03*
X0049663Y0081600D03*
X0049663Y0085400D03*
X0053163Y0085400D03*
X0052363Y0123900D03*
X0052363Y0127700D03*
X0068263Y0140600D03*
X0071763Y0140600D03*
X0075263Y0140600D03*
X0075263Y0144400D03*
X0071763Y0144400D03*
X0068263Y0144400D03*
X0062163Y0153100D03*
X0055663Y0153100D03*
X0052163Y0153100D03*
X0052163Y0156900D03*
X0055663Y0156900D03*
X0062163Y0156900D03*
X0065163Y0161100D03*
X0068663Y0161100D03*
X0072163Y0161100D03*
X0075663Y0161100D03*
X0079163Y0161100D03*
X0082663Y0161100D03*
X0086163Y0161100D03*
X0089663Y0161100D03*
X0089663Y0164900D03*
X0086163Y0164900D03*
X0082663Y0164900D03*
X0079163Y0164900D03*
X0075663Y0164900D03*
X0072163Y0164900D03*
X0068663Y0164900D03*
X0065163Y0164900D03*
X0088163Y0151400D03*
X0088163Y0147600D03*
X0088163Y0144400D03*
X0088163Y0140600D03*
X0102663Y0140600D03*
X0102663Y0144400D03*
X0102663Y0147600D03*
X0102663Y0151400D03*
X0102163Y0136400D03*
X0105663Y0136400D03*
X0105663Y0132600D03*
X0102163Y0132600D03*
X0102163Y0128400D03*
X0105663Y0128400D03*
X0105663Y0124600D03*
X0102163Y0124600D03*
X0068163Y0193600D03*
X0068163Y0197400D03*
D11*
X0083238Y0196335D02*
X0083238Y0200665D01*
X0105089Y0200665D02*
X0105089Y0196335D01*
D12*
X0112663Y0189500D02*
X0118463Y0189500D01*
X0118463Y0179500D02*
X0112663Y0179500D01*
X0112663Y0169500D02*
X0118463Y0169500D01*
X0118463Y0159500D02*
X0112663Y0159500D01*
X0112663Y0149500D02*
X0118463Y0149500D01*
X0118463Y0139500D02*
X0112663Y0139500D01*
X0112663Y0129500D02*
X0118463Y0129500D01*
X0118463Y0119500D02*
X0112663Y0119500D01*
X0112663Y0109500D02*
X0118463Y0109500D01*
X0118463Y0099500D02*
X0112663Y0099500D01*
X0112663Y0089500D02*
X0118463Y0089500D01*
X0118463Y0079500D02*
X0112663Y0079500D01*
X0112663Y0069500D02*
X0118463Y0069500D01*
X0118463Y0059500D02*
X0112663Y0059500D01*
X0112663Y0049500D02*
X0118463Y0049500D01*
X0118463Y0039500D02*
X0112663Y0039500D01*
X0112663Y0029500D02*
X0118463Y0029500D01*
X0118463Y0019500D02*
X0112663Y0019500D01*
X0042663Y0019500D02*
X0036863Y0019500D01*
X0036863Y0029500D02*
X0042663Y0029500D01*
X0042663Y0039500D02*
X0036863Y0039500D01*
X0036863Y0049500D02*
X0042663Y0049500D01*
X0042663Y0059500D02*
X0036863Y0059500D01*
X0036863Y0069500D02*
X0042663Y0069500D01*
X0042663Y0079500D02*
X0036863Y0079500D01*
X0036863Y0089500D02*
X0042663Y0089500D01*
X0042663Y0099500D02*
X0036863Y0099500D01*
X0036863Y0109500D02*
X0042663Y0109500D01*
X0042663Y0119500D02*
X0036863Y0119500D01*
X0036863Y0129500D02*
X0042663Y0129500D01*
X0042663Y0139500D02*
X0036863Y0139500D01*
X0036863Y0149500D02*
X0042663Y0149500D01*
X0042663Y0159500D02*
X0036863Y0159500D01*
X0036863Y0169500D02*
X0042663Y0169500D01*
X0042663Y0179500D02*
X0036863Y0179500D01*
X0036863Y0189500D02*
X0042663Y0189500D01*
D13*
X0074663Y0054035D03*
X0084663Y0054035D03*
X0094663Y0054035D03*
X0094663Y0008365D03*
X0084663Y0008365D03*
X0074663Y0008365D03*
D14*
X0063797Y0031200D03*
X0105530Y0031200D03*
D15*
X0054163Y0031841D03*
X0054163Y0011959D03*
D16*
X0053163Y0141760D03*
X0050604Y0141760D03*
X0055723Y0141760D03*
X0059604Y0141760D03*
X0062163Y0141760D03*
X0064723Y0141760D03*
X0064723Y0149240D03*
X0059604Y0149240D03*
X0055723Y0149240D03*
X0050604Y0149240D03*
D17*
X0092263Y0170000D03*
X0092263Y0173500D03*
X0096063Y0173500D03*
X0096063Y0170000D03*
X0096063Y0177000D03*
X0092263Y0177000D03*
X0078563Y0071500D03*
X0074763Y0071500D03*
X0070563Y0071500D03*
X0066763Y0071500D03*
X0061563Y0071500D03*
X0057763Y0071500D03*
X0053563Y0071500D03*
X0049763Y0071500D03*
X0090763Y0060500D03*
X0094563Y0060500D03*
D18*
X0092593Y0143138D03*
X0092593Y0144713D03*
X0092593Y0146287D03*
X0092593Y0147862D03*
X0098734Y0146287D03*
X0098734Y0144713D03*
X0098734Y0143138D03*
X0084734Y0143138D03*
X0084734Y0144713D03*
X0084734Y0146287D03*
X0078593Y0146287D03*
X0078593Y0144713D03*
X0078593Y0143138D03*
X0078593Y0147862D03*
D19*
X0084537Y0147862D03*
X0098537Y0147862D03*
D20*
X0098026Y0150146D03*
X0096451Y0150146D03*
X0094876Y0150146D03*
X0093301Y0150146D03*
X0084026Y0150146D03*
X0082451Y0150146D03*
X0080876Y0150146D03*
X0079301Y0150146D03*
X0079301Y0140854D03*
X0080876Y0140854D03*
X0082451Y0140854D03*
X0084026Y0140854D03*
X0093301Y0140854D03*
X0094876Y0140854D03*
X0096451Y0140854D03*
X0098026Y0140854D03*
D21*
X0077585Y0063500D03*
X0067742Y0063500D03*
X0060191Y0063783D03*
X0051136Y0063783D03*
X0051136Y0049217D03*
X0060191Y0049217D03*
D22*
G36*
X0070844Y0075966D02*
X0070009Y0076801D01*
X0073348Y0080140D01*
X0074183Y0079305D01*
X0070844Y0075966D01*
G37*
G36*
X0069452Y0077358D02*
X0068617Y0078193D01*
X0071956Y0081532D01*
X0072791Y0080697D01*
X0069452Y0077358D01*
G37*
G36*
X0068060Y0078750D02*
X0067225Y0079585D01*
X0070564Y0082924D01*
X0071399Y0082089D01*
X0068060Y0078750D01*
G37*
G36*
X0066668Y0080142D02*
X0065833Y0080977D01*
X0069172Y0084316D01*
X0070007Y0083481D01*
X0066668Y0080142D01*
G37*
G36*
X0065276Y0081534D02*
X0064441Y0082369D01*
X0067780Y0085708D01*
X0068615Y0084873D01*
X0065276Y0081534D01*
G37*
G36*
X0063884Y0082926D02*
X0063049Y0083761D01*
X0066388Y0087100D01*
X0067223Y0086265D01*
X0063884Y0082926D01*
G37*
G36*
X0062492Y0084318D02*
X0061657Y0085153D01*
X0064996Y0088492D01*
X0065831Y0087657D01*
X0062492Y0084318D01*
G37*
G36*
X0061100Y0085710D02*
X0060265Y0086545D01*
X0063604Y0089884D01*
X0064439Y0089049D01*
X0061100Y0085710D01*
G37*
G36*
X0059708Y0087102D02*
X0058873Y0087937D01*
X0062212Y0091276D01*
X0063047Y0090441D01*
X0059708Y0087102D01*
G37*
G36*
X0058316Y0088494D02*
X0057481Y0089329D01*
X0060820Y0092668D01*
X0061655Y0091833D01*
X0058316Y0088494D01*
G37*
G36*
X0056924Y0089886D02*
X0056089Y0090721D01*
X0059428Y0094060D01*
X0060263Y0093225D01*
X0056924Y0089886D01*
G37*
G36*
X0055532Y0091277D02*
X0054697Y0092112D01*
X0058036Y0095451D01*
X0058871Y0094616D01*
X0055532Y0091277D01*
G37*
G36*
X0054140Y0092669D02*
X0053305Y0093504D01*
X0056644Y0096843D01*
X0057479Y0096008D01*
X0054140Y0092669D01*
G37*
G36*
X0052748Y0094061D02*
X0051913Y0094896D01*
X0055252Y0098235D01*
X0056087Y0097400D01*
X0052748Y0094061D01*
G37*
G36*
X0051357Y0095453D02*
X0050522Y0096288D01*
X0053861Y0099627D01*
X0054696Y0098792D01*
X0051357Y0095453D01*
G37*
G36*
X0049965Y0096845D02*
X0049130Y0097680D01*
X0052469Y0101019D01*
X0053304Y0100184D01*
X0049965Y0096845D01*
G37*
G36*
X0049130Y0111320D02*
X0049965Y0112155D01*
X0053304Y0108816D01*
X0052469Y0107981D01*
X0049130Y0111320D01*
G37*
G36*
X0054696Y0110208D02*
X0053861Y0109373D01*
X0050522Y0112712D01*
X0051357Y0113547D01*
X0054696Y0110208D01*
G37*
G36*
X0056087Y0111600D02*
X0055252Y0110765D01*
X0051913Y0114104D01*
X0052748Y0114939D01*
X0056087Y0111600D01*
G37*
G36*
X0057479Y0112992D02*
X0056644Y0112157D01*
X0053305Y0115496D01*
X0054140Y0116331D01*
X0057479Y0112992D01*
G37*
G36*
X0058871Y0114384D02*
X0058036Y0113549D01*
X0054697Y0116888D01*
X0055532Y0117723D01*
X0058871Y0114384D01*
G37*
G36*
X0060263Y0115775D02*
X0059428Y0114940D01*
X0056089Y0118279D01*
X0056924Y0119114D01*
X0060263Y0115775D01*
G37*
G36*
X0061655Y0117167D02*
X0060820Y0116332D01*
X0057481Y0119671D01*
X0058316Y0120506D01*
X0061655Y0117167D01*
G37*
G36*
X0063047Y0118559D02*
X0062212Y0117724D01*
X0058873Y0121063D01*
X0059708Y0121898D01*
X0063047Y0118559D01*
G37*
G36*
X0064439Y0119951D02*
X0063604Y0119116D01*
X0060265Y0122455D01*
X0061100Y0123290D01*
X0064439Y0119951D01*
G37*
G36*
X0065831Y0121343D02*
X0064996Y0120508D01*
X0061657Y0123847D01*
X0062492Y0124682D01*
X0065831Y0121343D01*
G37*
G36*
X0067223Y0122735D02*
X0066388Y0121900D01*
X0063049Y0125239D01*
X0063884Y0126074D01*
X0067223Y0122735D01*
G37*
G36*
X0068615Y0124127D02*
X0067780Y0123292D01*
X0064441Y0126631D01*
X0065276Y0127466D01*
X0068615Y0124127D01*
G37*
G36*
X0070007Y0125519D02*
X0069172Y0124684D01*
X0065833Y0128023D01*
X0066668Y0128858D01*
X0070007Y0125519D01*
G37*
G36*
X0071399Y0126911D02*
X0070564Y0126076D01*
X0067225Y0129415D01*
X0068060Y0130250D01*
X0071399Y0126911D01*
G37*
G36*
X0072791Y0128303D02*
X0071956Y0127468D01*
X0068617Y0130807D01*
X0069452Y0131642D01*
X0072791Y0128303D01*
G37*
G36*
X0074183Y0129695D02*
X0073348Y0128860D01*
X0070009Y0132199D01*
X0070844Y0133034D01*
X0074183Y0129695D01*
G37*
G36*
X0084483Y0133034D02*
X0085318Y0132199D01*
X0081979Y0128860D01*
X0081144Y0129695D01*
X0084483Y0133034D01*
G37*
G36*
X0085875Y0131642D02*
X0086710Y0130807D01*
X0083371Y0127468D01*
X0082536Y0128303D01*
X0085875Y0131642D01*
G37*
G36*
X0087267Y0130250D02*
X0088102Y0129415D01*
X0084763Y0126076D01*
X0083928Y0126911D01*
X0087267Y0130250D01*
G37*
G36*
X0088659Y0128858D02*
X0089494Y0128023D01*
X0086155Y0124684D01*
X0085320Y0125519D01*
X0088659Y0128858D01*
G37*
G36*
X0090051Y0127466D02*
X0090886Y0126631D01*
X0087547Y0123292D01*
X0086712Y0124127D01*
X0090051Y0127466D01*
G37*
G36*
X0091443Y0126074D02*
X0092278Y0125239D01*
X0088939Y0121900D01*
X0088104Y0122735D01*
X0091443Y0126074D01*
G37*
G36*
X0092835Y0124682D02*
X0093670Y0123847D01*
X0090331Y0120508D01*
X0089496Y0121343D01*
X0092835Y0124682D01*
G37*
G36*
X0094227Y0123290D02*
X0095062Y0122455D01*
X0091723Y0119116D01*
X0090888Y0119951D01*
X0094227Y0123290D01*
G37*
G36*
X0095619Y0121898D02*
X0096454Y0121063D01*
X0093115Y0117724D01*
X0092280Y0118559D01*
X0095619Y0121898D01*
G37*
G36*
X0097011Y0120506D02*
X0097846Y0119671D01*
X0094507Y0116332D01*
X0093672Y0117167D01*
X0097011Y0120506D01*
G37*
G36*
X0098403Y0119114D02*
X0099238Y0118279D01*
X0095899Y0114940D01*
X0095064Y0115775D01*
X0098403Y0119114D01*
G37*
G36*
X0099795Y0117723D02*
X0100630Y0116888D01*
X0097291Y0113549D01*
X0096456Y0114384D01*
X0099795Y0117723D01*
G37*
G36*
X0101187Y0116331D02*
X0102022Y0115496D01*
X0098683Y0112157D01*
X0097848Y0112992D01*
X0101187Y0116331D01*
G37*
G36*
X0102579Y0114939D02*
X0103414Y0114104D01*
X0100075Y0110765D01*
X0099240Y0111600D01*
X0102579Y0114939D01*
G37*
G36*
X0103970Y0113547D02*
X0104805Y0112712D01*
X0101466Y0109373D01*
X0100631Y0110208D01*
X0103970Y0113547D01*
G37*
G36*
X0105362Y0112155D02*
X0106197Y0111320D01*
X0102858Y0107981D01*
X0102023Y0108816D01*
X0105362Y0112155D01*
G37*
G36*
X0106197Y0097680D02*
X0105362Y0096845D01*
X0102023Y0100184D01*
X0102858Y0101019D01*
X0106197Y0097680D01*
G37*
G36*
X0104805Y0096288D02*
X0103970Y0095453D01*
X0100631Y0098792D01*
X0101466Y0099627D01*
X0104805Y0096288D01*
G37*
G36*
X0103414Y0094896D02*
X0102579Y0094061D01*
X0099240Y0097400D01*
X0100075Y0098235D01*
X0103414Y0094896D01*
G37*
G36*
X0102022Y0093504D02*
X0101187Y0092669D01*
X0097848Y0096008D01*
X0098683Y0096843D01*
X0102022Y0093504D01*
G37*
G36*
X0100630Y0092112D02*
X0099795Y0091277D01*
X0096456Y0094616D01*
X0097291Y0095451D01*
X0100630Y0092112D01*
G37*
G36*
X0099238Y0090721D02*
X0098403Y0089886D01*
X0095064Y0093225D01*
X0095899Y0094060D01*
X0099238Y0090721D01*
G37*
G36*
X0097846Y0089329D02*
X0097011Y0088494D01*
X0093672Y0091833D01*
X0094507Y0092668D01*
X0097846Y0089329D01*
G37*
G36*
X0096454Y0087937D02*
X0095619Y0087102D01*
X0092280Y0090441D01*
X0093115Y0091276D01*
X0096454Y0087937D01*
G37*
G36*
X0095062Y0086545D02*
X0094227Y0085710D01*
X0090888Y0089049D01*
X0091723Y0089884D01*
X0095062Y0086545D01*
G37*
G36*
X0093670Y0085153D02*
X0092835Y0084318D01*
X0089496Y0087657D01*
X0090331Y0088492D01*
X0093670Y0085153D01*
G37*
G36*
X0092278Y0083761D02*
X0091443Y0082926D01*
X0088104Y0086265D01*
X0088939Y0087100D01*
X0092278Y0083761D01*
G37*
G36*
X0090886Y0082369D02*
X0090051Y0081534D01*
X0086712Y0084873D01*
X0087547Y0085708D01*
X0090886Y0082369D01*
G37*
G36*
X0089494Y0080977D02*
X0088659Y0080142D01*
X0085320Y0083481D01*
X0086155Y0084316D01*
X0089494Y0080977D01*
G37*
G36*
X0088102Y0079585D02*
X0087267Y0078750D01*
X0083928Y0082089D01*
X0084763Y0082924D01*
X0088102Y0079585D01*
G37*
G36*
X0086710Y0078193D02*
X0085875Y0077358D01*
X0082536Y0080697D01*
X0083371Y0081532D01*
X0086710Y0078193D01*
G37*
G36*
X0085318Y0076801D02*
X0084483Y0075966D01*
X0081144Y0079305D01*
X0081979Y0080140D01*
X0085318Y0076801D01*
G37*
D23*
X0082585Y0168602D02*
X0082585Y0170846D01*
X0080616Y0170846D02*
X0080616Y0168602D01*
X0078648Y0168602D02*
X0078648Y0170846D01*
X0076679Y0170846D02*
X0076679Y0168602D01*
X0074711Y0168602D02*
X0074711Y0170846D01*
X0072742Y0170846D02*
X0072742Y0168602D01*
X0071010Y0172579D02*
X0068766Y0172579D01*
X0068766Y0174547D02*
X0071010Y0174547D01*
X0071010Y0176516D02*
X0068766Y0176516D01*
X0068766Y0178484D02*
X0071010Y0178484D01*
X0071010Y0180453D02*
X0068766Y0180453D01*
X0068766Y0182421D02*
X0071010Y0182421D01*
X0072742Y0184154D02*
X0072742Y0186398D01*
X0074711Y0186398D02*
X0074711Y0184154D01*
X0076679Y0184154D02*
X0076679Y0186398D01*
X0078648Y0186398D02*
X0078648Y0184154D01*
X0080616Y0184154D02*
X0080616Y0186398D01*
X0082585Y0186398D02*
X0082585Y0184154D01*
X0084317Y0182421D02*
X0086561Y0182421D01*
X0086561Y0180453D02*
X0084317Y0180453D01*
X0084317Y0178484D02*
X0086561Y0178484D01*
X0086561Y0176516D02*
X0084317Y0176516D01*
X0084317Y0174547D02*
X0086561Y0174547D01*
X0086561Y0172579D02*
X0084317Y0172579D01*
D24*
X0077663Y0177500D03*
D25*
X0077663Y0177500D03*
X0074120Y0177500D03*
X0074120Y0173957D03*
X0077663Y0173957D03*
X0081207Y0173957D03*
X0081207Y0177500D03*
X0081207Y0181043D03*
X0077663Y0181043D03*
X0074120Y0181043D03*
D26*
X0096663Y0197100D03*
D27*
X0096663Y0187850D03*
D28*
X0057663Y0185898D03*
X0057663Y0198102D03*
D29*
X0072663Y0199950D03*
X0078163Y0199950D03*
X0088463Y0199950D03*
X0088463Y0194050D03*
X0078163Y0194050D03*
X0072663Y0194050D03*
D30*
X0061113Y0179000D03*
X0055213Y0179000D03*
X0055213Y0173500D03*
X0061113Y0173500D03*
X0061113Y0168000D03*
X0055213Y0168000D03*
D31*
X0092663Y0181500D03*
X0097663Y0181500D03*
D32*
X0112663Y0199500D03*
D33*
X0099163Y0185000D02*
X0096163Y0185000D01*
X0092663Y0181500D01*
X0097663Y0181500D02*
X0099663Y0181500D01*
X0105163Y0176000D01*
X0105163Y0139500D01*
X0104163Y0138500D01*
X0102663Y0138500D01*
X0102163Y0138000D01*
X0102163Y0136400D01*
X0100563Y0138500D02*
X0098663Y0138500D01*
X0094163Y0134000D01*
X0092663Y0134000D01*
X0094163Y0136500D02*
X0089663Y0136500D01*
X0088163Y0135000D01*
X0088163Y0130311D01*
X0086015Y0128163D01*
X0084623Y0129555D02*
X0086663Y0131595D01*
X0086663Y0133000D01*
X0084663Y0135000D01*
X0083663Y0135000D01*
X0082163Y0136500D01*
X0082163Y0138500D01*
X0082463Y0138800D01*
X0082463Y0140842D01*
X0082451Y0140854D01*
X0084026Y0140854D02*
X0084026Y0143138D01*
X0084734Y0143138D01*
X0084734Y0144713D02*
X0087851Y0144713D01*
X0088163Y0144400D01*
X0088163Y0147600D02*
X0088263Y0147600D01*
X0090663Y0150000D01*
X0090663Y0155200D01*
X0093163Y0157700D01*
X0092163Y0160000D02*
X0092163Y0164000D01*
X0091263Y0164900D01*
X0089663Y0164900D01*
X0089163Y0165400D01*
X0089163Y0167700D01*
X0092163Y0160000D02*
X0096663Y0160000D01*
X0098663Y0158000D01*
X0098663Y0155500D01*
X0098026Y0154862D01*
X0098026Y0150146D01*
X0098026Y0147862D01*
X0098537Y0147862D01*
X0098734Y0146287D02*
X0100951Y0146287D01*
X0102263Y0147600D01*
X0100163Y0149700D01*
X0100163Y0153500D01*
X0101163Y0154500D01*
X0096451Y0156713D02*
X0096163Y0157000D01*
X0096451Y0156713D02*
X0096451Y0150146D01*
X0094876Y0150146D02*
X0094876Y0153787D01*
X0094163Y0154500D01*
X0088663Y0156500D02*
X0085763Y0156500D01*
X0084363Y0155100D01*
X0084363Y0152900D01*
X0084026Y0152562D01*
X0084026Y0150146D01*
X0084026Y0147862D01*
X0084537Y0147862D01*
X0084734Y0144713D02*
X0082951Y0144713D01*
X0081663Y0146000D01*
X0081663Y0146300D01*
X0078593Y0146287D02*
X0078593Y0144713D01*
X0079301Y0140854D02*
X0079301Y0139638D01*
X0077663Y0138000D01*
X0077663Y0131000D01*
X0072663Y0126000D01*
X0071475Y0126000D01*
X0069312Y0128163D01*
X0070704Y0129555D02*
X0068263Y0131995D01*
X0068263Y0140600D01*
X0070978Y0137615D02*
X0070963Y0137600D01*
X0070978Y0137615D02*
X0073563Y0137615D01*
X0073563Y0132415D01*
X0072096Y0130947D01*
X0073163Y0124500D02*
X0079863Y0131200D01*
X0079863Y0131600D01*
X0080563Y0134100D02*
X0080563Y0138800D01*
X0080876Y0139113D01*
X0080876Y0140854D01*
X0084463Y0137500D02*
X0084963Y0138000D01*
X0093663Y0138000D01*
X0094876Y0139213D01*
X0094876Y0140854D01*
X0096451Y0140854D02*
X0096451Y0138787D01*
X0094163Y0136500D01*
X0097663Y0133500D02*
X0097663Y0132000D01*
X0096663Y0131000D01*
X0096663Y0122108D01*
X0094367Y0119811D01*
X0095759Y0118419D02*
X0092839Y0115500D01*
X0086663Y0115500D01*
X0078163Y0107000D01*
X0068663Y0107000D01*
X0062163Y0113500D01*
X0061163Y0113500D01*
X0061163Y0110500D02*
X0063163Y0110500D01*
X0068163Y0105500D01*
X0078663Y0105500D01*
X0087163Y0114000D01*
X0094123Y0114000D01*
X0097151Y0117027D01*
X0098543Y0115636D02*
X0100663Y0117756D01*
X0100663Y0118500D01*
X0098163Y0121000D01*
X0098163Y0130500D01*
X0100263Y0132600D01*
X0102163Y0132600D01*
X0100663Y0130500D02*
X0104663Y0130500D01*
X0105663Y0131500D01*
X0105663Y0132600D01*
X0108163Y0131000D02*
X0108163Y0155000D01*
X0102663Y0147600D02*
X0102263Y0147600D01*
X0102351Y0144713D02*
X0098734Y0144713D01*
X0096451Y0144713D01*
X0095663Y0145500D01*
X0098734Y0144713D02*
X0098734Y0143138D01*
X0098026Y0143138D01*
X0098026Y0140854D01*
X0100563Y0138500D02*
X0102663Y0140600D01*
X0105663Y0137500D02*
X0106663Y0138500D01*
X0106663Y0177500D01*
X0099163Y0185000D01*
X0068663Y0164900D02*
X0068663Y0164800D01*
X0065163Y0161300D01*
X0065163Y0161100D01*
X0062163Y0156900D02*
X0065063Y0154000D01*
X0071663Y0154000D01*
X0069563Y0152600D02*
X0062163Y0152600D01*
X0062163Y0153100D01*
X0062163Y0150000D01*
X0061404Y0149240D01*
X0059604Y0149240D01*
X0057663Y0151100D02*
X0057663Y0146000D01*
X0056663Y0146000D01*
X0055663Y0147000D01*
X0055663Y0149181D01*
X0055723Y0149240D01*
X0054423Y0149240D01*
X0052163Y0151500D01*
X0052163Y0153100D01*
X0055663Y0153100D02*
X0057663Y0151100D01*
X0050604Y0149240D02*
X0050604Y0146559D01*
X0052663Y0144500D01*
X0063163Y0144500D01*
X0063663Y0144500D01*
X0064663Y0144500D01*
X0067163Y0147000D01*
X0069763Y0147000D01*
X0071863Y0149100D01*
X0070463Y0151700D02*
X0069563Y0152600D01*
X0070463Y0151700D02*
X0073863Y0151700D01*
X0077363Y0153500D02*
X0079301Y0151562D01*
X0079301Y0150146D01*
X0080876Y0150146D02*
X0080876Y0152787D01*
X0079663Y0154000D01*
X0079663Y0155500D01*
X0079163Y0156000D01*
X0082163Y0155300D02*
X0082451Y0155013D01*
X0082451Y0150146D01*
X0088663Y0156500D02*
X0092163Y0160000D01*
X0064723Y0149240D02*
X0064723Y0147059D01*
X0063663Y0146000D01*
X0057663Y0146000D01*
X0053163Y0141760D02*
X0053163Y0136500D01*
X0059163Y0130500D01*
X0059163Y0121608D01*
X0060960Y0119811D01*
X0059568Y0118419D02*
X0057663Y0120324D01*
X0057663Y0130000D01*
X0054663Y0133000D01*
X0049663Y0133000D01*
X0046163Y0129500D01*
X0042663Y0129500D01*
X0047163Y0128500D02*
X0047163Y0127500D01*
X0042663Y0123000D01*
X0042663Y0119500D01*
X0047163Y0117500D02*
X0047163Y0125500D01*
X0048663Y0127000D01*
X0048663Y0128000D01*
X0050663Y0130000D01*
X0053663Y0130000D01*
X0054663Y0129000D01*
X0054663Y0117756D01*
X0056784Y0115636D01*
X0058176Y0117027D02*
X0056163Y0119040D01*
X0056163Y0129500D01*
X0054163Y0131500D01*
X0050163Y0131500D01*
X0047163Y0128500D01*
X0052063Y0123900D02*
X0052363Y0123900D01*
X0052063Y0123900D02*
X0049663Y0121500D01*
X0049663Y0117189D01*
X0054000Y0112852D01*
X0055392Y0114244D02*
X0052163Y0117473D01*
X0052163Y0119500D01*
X0047163Y0117500D02*
X0042663Y0113000D01*
X0042663Y0109500D01*
X0051217Y0110068D02*
X0053784Y0107500D01*
X0061163Y0107500D01*
X0062163Y0103500D02*
X0055784Y0103500D01*
X0051217Y0098932D01*
X0052609Y0097540D02*
X0056068Y0101000D01*
X0061163Y0101000D01*
X0061863Y0098800D02*
X0056652Y0098800D01*
X0054000Y0096148D01*
X0055392Y0094756D02*
X0053163Y0092527D01*
X0053163Y0085400D01*
X0049663Y0085400D01*
X0047163Y0081500D02*
X0047163Y0080500D01*
X0048163Y0079500D01*
X0054663Y0079500D01*
X0055663Y0080500D01*
X0055663Y0089460D01*
X0058176Y0091973D01*
X0059568Y0090581D02*
X0061488Y0092500D01*
X0067663Y0092500D01*
X0070663Y0095500D01*
X0084163Y0095500D01*
X0085663Y0097000D01*
X0085663Y0099000D01*
X0084163Y0100500D01*
X0071163Y0100500D01*
X0066663Y0105000D01*
X0054663Y0105000D01*
X0049163Y0099500D01*
X0042663Y0099500D01*
X0055392Y0094756D02*
X0058036Y0097400D01*
X0060163Y0097400D01*
X0061763Y0095800D01*
X0063963Y0095800D01*
X0066163Y0098000D01*
X0062663Y0098000D02*
X0061863Y0098800D01*
X0064163Y0101000D02*
X0064163Y0101500D01*
X0062163Y0103500D01*
X0068463Y0109200D02*
X0069763Y0109200D01*
X0068463Y0109200D02*
X0065163Y0112500D01*
X0065163Y0118392D01*
X0062352Y0121203D01*
X0063744Y0122595D02*
X0066663Y0119676D01*
X0066663Y0113000D01*
X0068163Y0111500D01*
X0070663Y0111500D01*
X0079663Y0120500D01*
X0079663Y0127200D01*
X0073163Y0124500D02*
X0070191Y0124500D01*
X0067920Y0126771D01*
X0066528Y0125379D02*
X0064663Y0127244D01*
X0064663Y0132500D01*
X0062163Y0135000D01*
X0062163Y0141760D01*
X0073563Y0140600D02*
X0073563Y0137615D01*
X0080563Y0134100D02*
X0083231Y0131432D01*
X0083231Y0130947D01*
X0087407Y0126771D02*
X0090863Y0130227D01*
X0090863Y0131300D01*
X0094363Y0131300D02*
X0095163Y0130500D01*
X0095163Y0123392D01*
X0092975Y0121203D01*
X0091583Y0122595D02*
X0078488Y0109500D01*
X0077463Y0109500D01*
X0077663Y0113000D02*
X0079663Y0113000D01*
X0086163Y0119500D01*
X0086163Y0122744D01*
X0088799Y0125379D01*
X0090191Y0123987D02*
X0092663Y0126460D01*
X0092663Y0128500D01*
X0099663Y0129500D02*
X0100663Y0130500D01*
X0099663Y0129500D02*
X0099663Y0122000D01*
X0102663Y0119000D01*
X0102663Y0116973D01*
X0099935Y0114244D01*
X0101327Y0112852D02*
X0098975Y0110500D01*
X0095163Y0110500D01*
X0094163Y0111500D01*
X0092663Y0109000D02*
X0089663Y0106000D01*
X0085963Y0106000D01*
X0088663Y0103000D02*
X0093163Y0107500D01*
X0095163Y0107500D01*
X0096163Y0106500D01*
X0103163Y0106500D01*
X0108163Y0111500D01*
X0108163Y0116000D01*
X0111663Y0119500D01*
X0112663Y0119500D01*
X0106663Y0120000D02*
X0106663Y0112621D01*
X0104110Y0110068D01*
X0102043Y0108000D01*
X0096663Y0108000D01*
X0095663Y0109000D01*
X0092663Y0109000D01*
X0094163Y0105000D02*
X0098043Y0105000D01*
X0104110Y0098932D01*
X0102718Y0097540D02*
X0100259Y0100000D01*
X0094163Y0100000D01*
X0093163Y0097500D02*
X0091163Y0099500D01*
X0091163Y0100000D01*
X0093163Y0097500D02*
X0097191Y0097500D01*
X0099935Y0094756D01*
X0101327Y0096148D02*
X0103663Y0093811D01*
X0103663Y0092000D01*
X0100163Y0088500D01*
X0101163Y0085500D02*
X0106163Y0090500D01*
X0106163Y0095000D01*
X0107663Y0096500D01*
X0107663Y0105500D01*
X0111663Y0109500D01*
X0112663Y0109500D01*
X0104663Y0113405D02*
X0104663Y0119500D01*
X0102163Y0122000D01*
X0102163Y0124600D01*
X0105663Y0124600D02*
X0105663Y0121000D01*
X0106663Y0120000D01*
X0104663Y0113405D02*
X0102718Y0111460D01*
X0088663Y0103000D02*
X0088663Y0096500D01*
X0086663Y0094500D01*
X0086663Y0092500D01*
X0088163Y0091000D01*
X0091163Y0091000D01*
X0092663Y0092500D01*
X0093839Y0092500D01*
X0095759Y0090581D01*
X0097151Y0091973D02*
X0095123Y0094000D01*
X0092163Y0094000D01*
X0091663Y0093500D01*
X0089163Y0093500D01*
X0091163Y0096000D02*
X0095907Y0096000D01*
X0098543Y0093364D01*
X0094367Y0089189D02*
X0098055Y0085500D01*
X0101163Y0085500D01*
X0101663Y0083500D02*
X0097272Y0083500D01*
X0092975Y0087797D01*
X0091583Y0086405D02*
X0096488Y0081500D01*
X0102163Y0081500D01*
X0110163Y0089500D01*
X0112663Y0089500D01*
X0107663Y0089500D02*
X0107663Y0094500D01*
X0112663Y0099500D01*
X0107663Y0089500D02*
X0101663Y0083500D01*
X0095704Y0079500D02*
X0112663Y0079500D01*
X0110163Y0069500D02*
X0102163Y0077500D01*
X0092136Y0077500D01*
X0087407Y0082229D01*
X0088799Y0083621D02*
X0086920Y0085500D01*
X0085663Y0085500D01*
X0082663Y0082500D01*
X0082663Y0081500D01*
X0084623Y0079540D01*
X0084623Y0079445D01*
X0083231Y0078053D02*
X0083231Y0077932D01*
X0085663Y0075500D01*
X0085663Y0073900D01*
X0086663Y0072900D01*
X0084163Y0074500D02*
X0084163Y0068000D01*
X0085163Y0067000D01*
X0097663Y0067000D01*
X0099663Y0065000D01*
X0095163Y0064500D02*
X0094163Y0065500D01*
X0084663Y0065500D01*
X0082663Y0067500D01*
X0082663Y0074000D01*
X0079663Y0077000D01*
X0078163Y0077000D01*
X0073663Y0081500D01*
X0072759Y0081500D01*
X0070704Y0079445D01*
X0072096Y0078053D02*
X0074649Y0075500D01*
X0079163Y0075500D01*
X0081163Y0073500D01*
X0081163Y0067000D01*
X0085163Y0063000D01*
X0088163Y0063000D01*
X0077585Y0063500D02*
X0077585Y0068421D01*
X0078563Y0069400D01*
X0078563Y0071500D01*
X0078563Y0073100D01*
X0077663Y0074000D01*
X0069663Y0074000D01*
X0067563Y0076100D01*
X0067563Y0079089D01*
X0069312Y0080837D01*
X0067920Y0082229D02*
X0066163Y0080473D01*
X0066163Y0075500D01*
X0067163Y0074500D01*
X0067163Y0071900D01*
X0066763Y0071500D01*
X0066763Y0069400D01*
X0067742Y0068421D01*
X0067742Y0063500D01*
X0060191Y0063783D02*
X0060163Y0063811D01*
X0060163Y0068000D01*
X0061563Y0069400D01*
X0061563Y0071500D01*
X0061963Y0071900D01*
X0061963Y0075800D01*
X0064663Y0078500D01*
X0064663Y0081756D01*
X0066528Y0083621D01*
X0065136Y0085013D02*
X0063163Y0083040D01*
X0063163Y0079000D01*
X0061663Y0077500D01*
X0058663Y0077500D01*
X0056163Y0075000D01*
X0051663Y0075000D01*
X0049763Y0073100D01*
X0049763Y0071500D01*
X0049763Y0069900D01*
X0050663Y0069000D01*
X0053663Y0069000D01*
X0054663Y0068000D01*
X0054663Y0059000D01*
X0051163Y0055500D01*
X0051163Y0049244D01*
X0051136Y0049217D01*
X0042663Y0059500D02*
X0047163Y0064000D01*
X0047163Y0073000D01*
X0050663Y0076500D01*
X0055663Y0076500D01*
X0058663Y0079500D01*
X0058663Y0084108D01*
X0062352Y0087797D01*
X0060960Y0089189D02*
X0057163Y0085392D01*
X0057163Y0080000D01*
X0055163Y0078000D01*
X0049163Y0078000D01*
X0042663Y0071500D01*
X0042663Y0069500D01*
X0053563Y0071500D02*
X0057763Y0071500D01*
X0070563Y0071500D02*
X0074763Y0071500D01*
X0080163Y0078500D02*
X0084163Y0074500D01*
X0083231Y0078053D02*
X0080163Y0081121D01*
X0080163Y0081500D01*
X0078663Y0078500D02*
X0074163Y0083000D01*
X0072163Y0083000D01*
X0066663Y0088500D01*
X0065839Y0088500D01*
X0063744Y0086405D01*
X0078663Y0078500D02*
X0080163Y0078500D01*
X0086015Y0080837D02*
X0094352Y0072500D01*
X0097163Y0072500D01*
X0110163Y0059500D01*
X0112663Y0059500D01*
X0112663Y0069500D02*
X0110163Y0069500D01*
X0095704Y0079500D02*
X0090191Y0085013D01*
X0047163Y0081500D02*
X0042663Y0086000D01*
X0042663Y0089500D01*
X0069363Y0113900D02*
X0069363Y0119760D01*
X0065136Y0123987D01*
X0102163Y0128400D02*
X0105663Y0128400D01*
X0105663Y0128500D01*
X0108163Y0131000D01*
X0105663Y0136400D02*
X0105663Y0137500D01*
X0102663Y0144400D02*
X0102351Y0144713D01*
D34*
X0074363Y0158300D02*
X0071163Y0158300D01*
X0068663Y0160800D01*
X0068663Y0161100D01*
X0068663Y0164900D02*
X0072163Y0164900D01*
X0072163Y0165500D01*
X0074711Y0168047D01*
X0074711Y0169724D01*
X0076663Y0169709D02*
X0076679Y0169724D01*
X0076663Y0169709D02*
X0076663Y0167000D01*
X0075663Y0166000D01*
X0075663Y0164900D01*
X0078648Y0165416D02*
X0079163Y0164900D01*
X0078648Y0165416D02*
X0078648Y0169724D01*
X0080616Y0169724D02*
X0080616Y0167547D01*
X0082663Y0165500D01*
X0082663Y0164900D01*
X0086163Y0164900D02*
X0086163Y0167500D01*
X0083939Y0169724D01*
X0082585Y0169724D01*
X0085439Y0171224D02*
X0086163Y0170500D01*
X0087863Y0170500D01*
X0091763Y0170500D01*
X0092263Y0170000D01*
X0092263Y0173500D02*
X0088963Y0173500D01*
X0088663Y0173500D01*
X0087616Y0174547D01*
X0085439Y0174547D01*
X0085455Y0176500D02*
X0085439Y0176516D01*
X0088948Y0176516D01*
X0088963Y0176500D01*
X0087448Y0178484D02*
X0085439Y0178484D01*
X0085439Y0180453D02*
X0087116Y0180453D01*
X0088163Y0181500D01*
X0092663Y0181500D01*
X0090263Y0178900D02*
X0087863Y0178900D01*
X0087448Y0178484D01*
X0090263Y0178900D02*
X0092163Y0177000D01*
X0092263Y0177000D01*
X0096063Y0177000D02*
X0097663Y0178600D01*
X0097663Y0181500D01*
X0085439Y0172579D02*
X0085439Y0171224D01*
X0072742Y0169724D02*
X0072742Y0168579D01*
X0071163Y0167000D01*
X0066663Y0167000D01*
X0065163Y0165500D01*
X0065163Y0164900D01*
X0076679Y0185276D02*
X0076679Y0186984D01*
X0075463Y0188200D01*
X0070463Y0188200D01*
X0069160Y0189504D01*
X0069160Y0192604D01*
X0068163Y0193600D01*
X0071663Y0190500D02*
X0076163Y0190500D01*
X0078648Y0188016D01*
X0078648Y0185276D01*
X0080616Y0185276D02*
X0080616Y0189047D01*
X0078163Y0191500D01*
X0078163Y0194050D01*
D35*
X0071663Y0190500D03*
X0084963Y0186000D03*
X0086463Y0184800D03*
X0102163Y0185500D03*
X0104663Y0185500D03*
X0101663Y0176000D03*
X0102463Y0173000D03*
X0108863Y0175600D03*
X0088963Y0176500D03*
X0088963Y0173500D03*
X0087863Y0170500D03*
X0089163Y0167700D03*
X0069163Y0169300D03*
X0066063Y0169600D03*
X0064963Y0171100D03*
X0063863Y0169600D03*
X0058763Y0163000D03*
X0050863Y0162600D03*
X0050863Y0160000D03*
X0047663Y0165000D03*
X0047663Y0167500D03*
X0051163Y0169000D03*
X0058763Y0157100D03*
X0065963Y0156700D03*
X0068963Y0156700D03*
X0074363Y0158300D03*
X0077363Y0158400D03*
X0079163Y0156000D03*
X0081263Y0158200D03*
X0084263Y0158200D03*
X0082163Y0155300D03*
X0086563Y0154100D03*
X0094163Y0154500D03*
X0096163Y0157000D03*
X0093163Y0157700D03*
X0101163Y0154500D03*
X0102163Y0158000D03*
X0081663Y0146300D03*
X0076763Y0150400D03*
X0077363Y0153500D03*
X0074663Y0155000D03*
X0071663Y0154000D03*
X0073863Y0151700D03*
X0071863Y0149100D03*
X0068863Y0150000D03*
X0070963Y0137600D03*
X0058663Y0138000D03*
X0058663Y0135000D03*
X0060663Y0132500D03*
X0062163Y0129500D03*
X0049363Y0124500D03*
X0049663Y0121500D03*
X0052163Y0119500D03*
X0061163Y0113500D03*
X0061163Y0110500D03*
X0061163Y0107500D03*
X0069763Y0109200D03*
X0077463Y0109500D03*
X0077663Y0113000D03*
X0069363Y0113900D03*
X0076163Y0124300D03*
X0079663Y0127200D03*
X0079863Y0131600D03*
X0084463Y0137500D03*
X0092663Y0134000D03*
X0094363Y0131300D03*
X0090863Y0131300D03*
X0097663Y0133500D03*
X0092663Y0128500D03*
X0083163Y0124300D03*
X0094163Y0111500D03*
X0085863Y0109300D03*
X0085963Y0106000D03*
X0094163Y0105000D03*
X0094163Y0100000D03*
X0091163Y0100000D03*
X0091163Y0096000D03*
X0089163Y0093500D03*
X0084163Y0093000D03*
X0080163Y0090000D03*
X0082163Y0087500D03*
X0085163Y0088000D03*
X0075663Y0086500D03*
X0072663Y0086000D03*
X0077163Y0083500D03*
X0080163Y0081500D03*
X0087863Y0075700D03*
X0095163Y0075000D03*
X0095163Y0070000D03*
X0090163Y0070000D03*
X0095163Y0064500D03*
X0099663Y0065000D03*
X0110663Y0064500D03*
X0099163Y0056500D03*
X0099163Y0051500D03*
X0087163Y0059500D03*
X0082663Y0061500D03*
X0088163Y0063000D03*
X0073463Y0068400D03*
X0059163Y0074500D03*
X0060963Y0082400D03*
X0066663Y0095000D03*
X0066163Y0098000D03*
X0062663Y0098000D03*
X0061163Y0101000D03*
X0064163Y0101000D03*
X0067163Y0101000D03*
X0083163Y0098000D03*
X0100163Y0088500D03*
X0110663Y0084500D03*
X0066163Y0057000D03*
X0059163Y0056000D03*
X0079663Y0048000D03*
X0077163Y0044000D03*
X0072163Y0044000D03*
X0067163Y0044000D03*
X0061163Y0043000D03*
X0061163Y0039500D03*
X0045163Y0044500D03*
X0077663Y0030500D03*
X0085963Y0032000D03*
X0094163Y0032000D03*
X0094163Y0039000D03*
X0093663Y0020000D03*
X0098663Y0020000D03*
X0104163Y0020000D03*
X0109663Y0014500D03*
X0109663Y0011000D03*
X0109663Y0007500D03*
X0099163Y0008500D03*
X0089163Y0008500D03*
X0079163Y0008500D03*
X0073863Y0013000D03*
X0073863Y0016000D03*
X0068663Y0017000D03*
X0068663Y0020000D03*
X0076163Y0020000D03*
X0082663Y0020000D03*
X0087163Y0020000D03*
X0060663Y0020000D03*
X0056163Y0020000D03*
X0051163Y0023000D03*
X0050163Y0021500D03*
X0049163Y0023000D03*
X0050163Y0024500D03*
X0055363Y0016000D03*
X0055363Y0013000D03*
X0060663Y0017000D03*
X0055363Y0010000D03*
X0055363Y0007000D03*
X0045663Y0007500D03*
X0045663Y0011000D03*
X0045663Y0014500D03*
X0044663Y0094500D03*
X0044663Y0104500D03*
X0110663Y0114500D03*
X0095663Y0145500D03*
X0054763Y0184200D03*
X0053163Y0185300D03*
X0051563Y0184200D03*
X0053163Y0183100D03*
D36*
X0066163Y0098000D02*
X0083163Y0098000D01*
D37*
X0091163Y0054000D02*
X0094629Y0054000D01*
X0094663Y0054035D01*
X0091163Y0054000D02*
X0089663Y0052500D01*
X0089663Y0045000D01*
X0087663Y0043000D01*
X0081663Y0043000D01*
X0079663Y0045000D01*
X0079663Y0048000D01*
X0077163Y0044000D02*
X0077163Y0035000D01*
X0090163Y0022000D01*
X0090163Y0011500D01*
X0092163Y0009500D01*
X0093529Y0009500D01*
X0094663Y0008365D01*
X0094529Y0008500D01*
X0084663Y0008365D02*
X0083529Y0009500D01*
X0082163Y0009500D01*
X0079663Y0012000D01*
X0079663Y0022500D01*
X0072163Y0030000D01*
X0072163Y0044000D01*
X0084529Y0008500D02*
X0084663Y0008365D01*
X0064723Y0149240D02*
X0064723Y0150000D01*
X0068863Y0150000D01*
D38*
X0071763Y0140600D02*
X0073563Y0140600D01*
X0075263Y0140600D01*
X0084263Y0158200D02*
X0084263Y0161100D01*
X0082663Y0161100D01*
X0084163Y0161100D01*
X0082663Y0161100D02*
X0086163Y0161100D01*
X0089663Y0161100D01*
X0096063Y0170000D02*
X0096063Y0173500D01*
X0096563Y0173000D01*
X0102463Y0173000D01*
X0071663Y0190500D02*
X0071663Y0193050D01*
X0072663Y0194050D01*
X0094563Y0060500D02*
X0094563Y0054135D01*
X0094663Y0054035D01*
X0084663Y0054035D02*
X0084663Y0057000D01*
X0083663Y0058000D01*
X0071663Y0058000D01*
X0070163Y0056500D01*
X0070163Y0047000D01*
X0067163Y0044000D01*
X0067163Y0025500D01*
X0071263Y0021400D01*
X0071263Y0011400D01*
X0074163Y0008500D01*
X0074529Y0008500D01*
X0074663Y0008365D01*
X0079029Y0008365D01*
X0079163Y0008500D01*
X0084663Y0008365D02*
X0089029Y0008365D01*
X0089163Y0008500D01*
X0094663Y0008365D02*
X0099029Y0008365D01*
X0099163Y0008500D01*
D39*
X0038963Y0014807D02*
X0038963Y0015700D01*
X0043419Y0015700D01*
X0044816Y0016279D01*
X0045885Y0017347D01*
X0046463Y0018744D01*
X0046463Y0020256D01*
X0045885Y0021653D01*
X0044816Y0022721D01*
X0043419Y0023300D01*
X0038963Y0023300D01*
X0038963Y0025700D01*
X0043419Y0025700D01*
X0044816Y0026279D01*
X0045885Y0027347D01*
X0046463Y0028744D01*
X0046463Y0030256D01*
X0045885Y0031653D01*
X0044816Y0032721D01*
X0043419Y0033300D01*
X0038963Y0033300D01*
X0038963Y0035700D01*
X0043419Y0035700D01*
X0044816Y0036279D01*
X0045885Y0037347D01*
X0046463Y0038744D01*
X0046463Y0040256D01*
X0045885Y0041653D01*
X0044816Y0042721D01*
X0043419Y0043300D01*
X0038963Y0043300D01*
X0038963Y0045700D01*
X0043419Y0045700D01*
X0044816Y0046279D01*
X0045885Y0047347D01*
X0046463Y0048744D01*
X0046463Y0050256D01*
X0045885Y0051653D01*
X0044816Y0052721D01*
X0043419Y0053300D01*
X0038963Y0053300D01*
X0038963Y0055700D01*
X0043419Y0055700D01*
X0044816Y0056279D01*
X0045885Y0057347D01*
X0046463Y0058744D01*
X0046463Y0060256D01*
X0046110Y0061108D01*
X0048071Y0063069D01*
X0048071Y0059671D01*
X0048598Y0059143D01*
X0052968Y0059143D01*
X0050625Y0056800D01*
X0049863Y0056038D01*
X0049863Y0053857D01*
X0048598Y0053857D01*
X0048071Y0053329D01*
X0048071Y0045104D01*
X0048598Y0044576D01*
X0053674Y0044576D01*
X0054201Y0045104D01*
X0054201Y0053329D01*
X0053674Y0053857D01*
X0052463Y0053857D01*
X0052463Y0054962D01*
X0055963Y0058462D01*
X0055963Y0068538D01*
X0055202Y0069300D01*
X0054202Y0070300D01*
X0051563Y0070300D01*
X0051563Y0073062D01*
X0052202Y0073700D01*
X0056702Y0073700D01*
X0057463Y0074462D01*
X0059202Y0076200D01*
X0060663Y0076200D01*
X0060663Y0073600D01*
X0060291Y0073600D01*
X0059763Y0073073D01*
X0059763Y0069927D01*
X0060008Y0069683D01*
X0059625Y0069300D01*
X0058863Y0068538D01*
X0058863Y0068424D01*
X0057653Y0068424D01*
X0057126Y0067896D01*
X0057126Y0059671D01*
X0057653Y0059143D01*
X0062729Y0059143D01*
X0063256Y0059671D01*
X0063256Y0067896D01*
X0062729Y0068424D01*
X0062426Y0068424D01*
X0062863Y0068862D01*
X0062863Y0069427D01*
X0063363Y0069927D01*
X0063363Y0073073D01*
X0063263Y0073173D01*
X0063263Y0075262D01*
X0064863Y0076862D01*
X0064863Y0074962D01*
X0065863Y0073962D01*
X0065863Y0073600D01*
X0065491Y0073600D01*
X0064963Y0073073D01*
X0064963Y0069927D01*
X0065463Y0069427D01*
X0065463Y0068862D01*
X0066185Y0068140D01*
X0065204Y0068140D01*
X0064677Y0067613D01*
X0064677Y0059387D01*
X0065204Y0058860D01*
X0070119Y0058860D01*
X0069459Y0058200D01*
X0068463Y0057204D01*
X0068463Y0048653D01*
X0067300Y0049817D01*
X0065413Y0049817D01*
X0064078Y0048482D01*
X0064078Y0046595D01*
X0065413Y0045261D01*
X0065468Y0045261D01*
X0065073Y0044866D01*
X0065073Y0043134D01*
X0065463Y0042744D01*
X0065463Y0038005D01*
X0061456Y0038005D01*
X0060929Y0037478D01*
X0060929Y0024922D01*
X0061456Y0024394D01*
X0065865Y0024394D01*
X0069563Y0020696D01*
X0069563Y0010696D01*
X0070559Y0009700D01*
X0071795Y0008464D01*
X0071795Y0005827D01*
X0071822Y0005800D01*
X0043467Y0005800D01*
X0038963Y0014807D01*
X0039030Y0014675D02*
X0069563Y0014675D01*
X0069563Y0015273D02*
X0038963Y0015273D01*
X0039329Y0014076D02*
X0069563Y0014076D01*
X0069563Y0013478D02*
X0039628Y0013478D01*
X0039927Y0012879D02*
X0069563Y0012879D01*
X0069563Y0012281D02*
X0040227Y0012281D01*
X0040526Y0011682D02*
X0069563Y0011682D01*
X0069563Y0011084D02*
X0040825Y0011084D01*
X0041124Y0010485D02*
X0069774Y0010485D01*
X0070373Y0009887D02*
X0041424Y0009887D01*
X0041723Y0009288D02*
X0070971Y0009288D01*
X0071570Y0008690D02*
X0042022Y0008690D01*
X0042321Y0008091D02*
X0071795Y0008091D01*
X0071795Y0007493D02*
X0042621Y0007493D01*
X0042920Y0006894D02*
X0071795Y0006894D01*
X0071795Y0006296D02*
X0043219Y0006296D01*
X0043834Y0015872D02*
X0069563Y0015872D01*
X0069563Y0016470D02*
X0045008Y0016470D01*
X0045606Y0017069D02*
X0069563Y0017069D01*
X0069563Y0017667D02*
X0046017Y0017667D01*
X0046265Y0018266D02*
X0069563Y0018266D01*
X0069563Y0018864D02*
X0053725Y0018864D01*
X0053661Y0018800D02*
X0054363Y0019503D01*
X0060863Y0026003D01*
X0060863Y0026997D01*
X0060863Y0037997D01*
X0060161Y0038700D01*
X0048166Y0038700D01*
X0047463Y0037997D01*
X0047463Y0024256D01*
X0047073Y0023866D01*
X0047073Y0022134D01*
X0047463Y0021744D01*
X0047463Y0019503D01*
X0048166Y0018800D01*
X0053661Y0018800D01*
X0054323Y0019463D02*
X0069563Y0019463D01*
X0069563Y0020061D02*
X0054922Y0020061D01*
X0055520Y0020660D02*
X0069563Y0020660D01*
X0069001Y0021258D02*
X0056119Y0021258D01*
X0056717Y0021857D02*
X0068402Y0021857D01*
X0067804Y0022455D02*
X0057316Y0022455D01*
X0057914Y0023054D02*
X0067205Y0023054D01*
X0066607Y0023652D02*
X0058513Y0023652D01*
X0059111Y0024251D02*
X0066008Y0024251D01*
X0068863Y0026204D02*
X0068863Y0042744D01*
X0069254Y0043134D01*
X0069254Y0043686D01*
X0070073Y0044505D01*
X0070073Y0043134D01*
X0070663Y0042544D01*
X0070663Y0029379D01*
X0078163Y0021879D01*
X0078163Y0011379D01*
X0078952Y0010591D01*
X0078298Y0010591D01*
X0077772Y0010065D01*
X0077532Y0010065D01*
X0077532Y0010903D01*
X0077005Y0011431D01*
X0073637Y0011431D01*
X0072963Y0012104D01*
X0072963Y0022104D01*
X0068863Y0026204D01*
X0069021Y0026046D02*
X0073996Y0026046D01*
X0074594Y0025448D02*
X0069620Y0025448D01*
X0070218Y0024849D02*
X0075193Y0024849D01*
X0075791Y0024251D02*
X0070817Y0024251D01*
X0071415Y0023652D02*
X0076390Y0023652D01*
X0076988Y0023054D02*
X0072014Y0023054D01*
X0072612Y0022455D02*
X0077587Y0022455D01*
X0078163Y0021857D02*
X0072963Y0021857D01*
X0072963Y0021258D02*
X0078163Y0021258D01*
X0078163Y0020660D02*
X0072963Y0020660D01*
X0072963Y0020061D02*
X0078163Y0020061D01*
X0078163Y0019463D02*
X0072963Y0019463D01*
X0072963Y0018864D02*
X0078163Y0018864D01*
X0078163Y0018266D02*
X0072963Y0018266D01*
X0072963Y0017667D02*
X0078163Y0017667D01*
X0078163Y0017069D02*
X0072963Y0017069D01*
X0072963Y0016470D02*
X0078163Y0016470D01*
X0078163Y0015872D02*
X0072963Y0015872D01*
X0072963Y0015273D02*
X0078163Y0015273D01*
X0078163Y0014675D02*
X0072963Y0014675D01*
X0072963Y0014076D02*
X0078163Y0014076D01*
X0078163Y0013478D02*
X0072963Y0013478D01*
X0072963Y0012879D02*
X0078163Y0012879D01*
X0078163Y0012281D02*
X0072963Y0012281D01*
X0073385Y0011682D02*
X0078163Y0011682D01*
X0078459Y0011084D02*
X0077352Y0011084D01*
X0077532Y0010485D02*
X0078192Y0010485D01*
X0081163Y0012621D02*
X0081163Y0023121D01*
X0080285Y0024000D01*
X0073663Y0030621D01*
X0073663Y0042544D01*
X0074254Y0043134D01*
X0074254Y0044866D01*
X0073029Y0046091D01*
X0071658Y0046091D01*
X0071863Y0046296D01*
X0071863Y0055796D01*
X0072368Y0056300D01*
X0081795Y0056300D01*
X0081795Y0051496D01*
X0082322Y0050969D01*
X0087005Y0050969D01*
X0087532Y0051496D01*
X0087532Y0056573D01*
X0087005Y0057100D01*
X0086363Y0057100D01*
X0086363Y0057704D01*
X0085363Y0058704D01*
X0084368Y0059700D01*
X0080650Y0059700D01*
X0080650Y0065675D01*
X0083863Y0062462D01*
X0084625Y0061700D01*
X0086507Y0061700D01*
X0087298Y0060909D01*
X0089029Y0060909D01*
X0090254Y0062134D01*
X0090254Y0063866D01*
X0089920Y0064200D01*
X0093073Y0064200D01*
X0093073Y0063634D01*
X0094107Y0062600D01*
X0093291Y0062600D01*
X0092763Y0062073D01*
X0092763Y0058927D01*
X0092863Y0058827D01*
X0092863Y0057100D01*
X0092322Y0057100D01*
X0091795Y0056573D01*
X0091795Y0055500D01*
X0090542Y0055500D01*
X0089663Y0054621D01*
X0088163Y0053121D01*
X0088163Y0045621D01*
X0087042Y0044500D01*
X0082285Y0044500D01*
X0081163Y0045621D01*
X0081163Y0046544D01*
X0081754Y0047134D01*
X0081754Y0048866D01*
X0080529Y0050091D01*
X0078798Y0050091D01*
X0077573Y0048866D01*
X0077573Y0047134D01*
X0078163Y0046544D01*
X0078163Y0045956D01*
X0078029Y0046091D01*
X0076298Y0046091D01*
X0075073Y0044866D01*
X0075073Y0043134D01*
X0075663Y0042544D01*
X0075663Y0034379D01*
X0088663Y0021379D01*
X0088663Y0010879D01*
X0088952Y0010591D01*
X0088298Y0010591D01*
X0087772Y0010065D01*
X0087532Y0010065D01*
X0087532Y0010903D01*
X0087005Y0011431D01*
X0082354Y0011431D01*
X0081163Y0012621D01*
X0081163Y0012879D02*
X0088663Y0012879D01*
X0088663Y0012281D02*
X0081504Y0012281D01*
X0082103Y0011682D02*
X0088663Y0011682D01*
X0088663Y0011084D02*
X0087352Y0011084D01*
X0087532Y0010485D02*
X0088192Y0010485D01*
X0091663Y0012121D02*
X0091663Y0022621D01*
X0078663Y0035621D01*
X0078663Y0042544D01*
X0079254Y0043134D01*
X0079254Y0043288D01*
X0080163Y0042379D01*
X0081042Y0041500D01*
X0088285Y0041500D01*
X0090285Y0043500D01*
X0091163Y0044379D01*
X0091163Y0051879D01*
X0091785Y0052500D01*
X0091795Y0052500D01*
X0091795Y0051496D01*
X0092322Y0050969D01*
X0097005Y0050969D01*
X0097532Y0051496D01*
X0097532Y0056573D01*
X0097005Y0057100D01*
X0096263Y0057100D01*
X0096263Y0058827D01*
X0096363Y0058927D01*
X0096363Y0062073D01*
X0096027Y0062409D01*
X0096029Y0062409D01*
X0097254Y0063634D01*
X0097254Y0065366D01*
X0096920Y0065700D01*
X0097125Y0065700D01*
X0097573Y0065252D01*
X0097573Y0064134D01*
X0098798Y0062909D01*
X0100529Y0062909D01*
X0101754Y0064134D01*
X0101754Y0065866D01*
X0100529Y0067091D01*
X0099411Y0067091D01*
X0098202Y0068300D01*
X0096420Y0068300D01*
X0097254Y0069134D01*
X0097254Y0070571D01*
X0108863Y0058962D01*
X0108863Y0058744D01*
X0109442Y0057347D01*
X0110511Y0056279D01*
X0111908Y0055700D01*
X0116363Y0055700D01*
X0116363Y0053300D01*
X0111908Y0053300D01*
X0110511Y0052721D01*
X0109442Y0051653D01*
X0108863Y0050256D01*
X0108863Y0048744D01*
X0109442Y0047347D01*
X0110511Y0046279D01*
X0111908Y0045700D01*
X0116363Y0045700D01*
X0116363Y0043300D01*
X0111908Y0043300D01*
X0110511Y0042721D01*
X0109442Y0041653D01*
X0108863Y0040256D01*
X0108863Y0038744D01*
X0109442Y0037347D01*
X0110511Y0036279D01*
X0111908Y0035700D01*
X0116363Y0035700D01*
X0116363Y0033300D01*
X0111908Y0033300D01*
X0110511Y0032721D01*
X0109442Y0031653D01*
X0108863Y0030256D01*
X0108863Y0028744D01*
X0109442Y0027347D01*
X0110511Y0026279D01*
X0111908Y0025700D01*
X0116363Y0025700D01*
X0116363Y0023300D01*
X0111908Y0023300D01*
X0110511Y0022721D01*
X0109442Y0021653D01*
X0108863Y0020256D01*
X0108863Y0018744D01*
X0109442Y0017347D01*
X0110511Y0016279D01*
X0111908Y0015700D01*
X0116363Y0015700D01*
X0116363Y0014807D01*
X0111860Y0005800D01*
X0097505Y0005800D01*
X0097532Y0005827D01*
X0097532Y0006665D01*
X0098042Y0006665D01*
X0098298Y0006409D01*
X0100029Y0006409D01*
X0101254Y0007634D01*
X0101254Y0009366D01*
X0100029Y0010591D01*
X0098298Y0010591D01*
X0097772Y0010065D01*
X0097532Y0010065D01*
X0097532Y0010903D01*
X0097005Y0011431D01*
X0092354Y0011431D01*
X0091663Y0012121D01*
X0091663Y0012281D02*
X0101039Y0012281D01*
X0101258Y0012190D02*
X0102321Y0012190D01*
X0103303Y0012596D01*
X0104054Y0013348D01*
X0104461Y0014330D01*
X0104461Y0015393D01*
X0104054Y0016375D01*
X0103303Y0017126D01*
X0102321Y0017533D01*
X0101258Y0017533D01*
X0100276Y0017126D01*
X0099525Y0016375D01*
X0099118Y0015393D01*
X0099118Y0014330D01*
X0099525Y0013348D01*
X0100276Y0012596D01*
X0101258Y0012190D01*
X0102540Y0012281D02*
X0115100Y0012281D01*
X0115400Y0012879D02*
X0103585Y0012879D01*
X0104108Y0013478D02*
X0115699Y0013478D01*
X0115998Y0014076D02*
X0104356Y0014076D01*
X0104461Y0014675D02*
X0116297Y0014675D01*
X0116363Y0015273D02*
X0104461Y0015273D01*
X0104263Y0015872D02*
X0111493Y0015872D01*
X0110319Y0016470D02*
X0103959Y0016470D01*
X0103360Y0017069D02*
X0109721Y0017069D01*
X0109310Y0017667D02*
X0091663Y0017667D01*
X0091663Y0017069D02*
X0100218Y0017069D01*
X0099620Y0016470D02*
X0091663Y0016470D01*
X0091663Y0015872D02*
X0099316Y0015872D01*
X0099118Y0015273D02*
X0091663Y0015273D01*
X0091663Y0014675D02*
X0099118Y0014675D01*
X0099223Y0014076D02*
X0091663Y0014076D01*
X0091663Y0013478D02*
X0099471Y0013478D01*
X0099993Y0012879D02*
X0091663Y0012879D01*
X0092103Y0011682D02*
X0114801Y0011682D01*
X0114502Y0011084D02*
X0097352Y0011084D01*
X0097532Y0010485D02*
X0098192Y0010485D01*
X0100135Y0010485D02*
X0114203Y0010485D01*
X0113903Y0009887D02*
X0100733Y0009887D01*
X0101254Y0009288D02*
X0113604Y0009288D01*
X0113305Y0008690D02*
X0101254Y0008690D01*
X0101254Y0008091D02*
X0113006Y0008091D01*
X0112706Y0007493D02*
X0101113Y0007493D01*
X0100514Y0006894D02*
X0112407Y0006894D01*
X0112108Y0006296D02*
X0097532Y0006296D01*
X0088663Y0013478D02*
X0081163Y0013478D01*
X0081163Y0014076D02*
X0088663Y0014076D01*
X0088663Y0014675D02*
X0081163Y0014675D01*
X0081163Y0015273D02*
X0088663Y0015273D01*
X0088663Y0015872D02*
X0081163Y0015872D01*
X0081163Y0016470D02*
X0088663Y0016470D01*
X0088663Y0017069D02*
X0081163Y0017069D01*
X0081163Y0017667D02*
X0088663Y0017667D01*
X0088663Y0018266D02*
X0081163Y0018266D01*
X0081163Y0018864D02*
X0088663Y0018864D01*
X0088663Y0019463D02*
X0081163Y0019463D01*
X0081163Y0020061D02*
X0088663Y0020061D01*
X0088663Y0020660D02*
X0081163Y0020660D01*
X0081163Y0021258D02*
X0088663Y0021258D01*
X0088185Y0021857D02*
X0081163Y0021857D01*
X0081163Y0022455D02*
X0087587Y0022455D01*
X0086988Y0023054D02*
X0081163Y0023054D01*
X0080632Y0023652D02*
X0086390Y0023652D01*
X0085791Y0024251D02*
X0080034Y0024251D01*
X0079435Y0024849D02*
X0085193Y0024849D01*
X0084594Y0025448D02*
X0078837Y0025448D01*
X0078238Y0026046D02*
X0083996Y0026046D01*
X0083397Y0026645D02*
X0077640Y0026645D01*
X0077041Y0027243D02*
X0082799Y0027243D01*
X0082200Y0027842D02*
X0076443Y0027842D01*
X0075844Y0028440D02*
X0081602Y0028440D01*
X0081003Y0029039D02*
X0075246Y0029039D01*
X0074647Y0029637D02*
X0080405Y0029637D01*
X0079806Y0030236D02*
X0074049Y0030236D01*
X0073663Y0030834D02*
X0079208Y0030834D01*
X0078609Y0031433D02*
X0073663Y0031433D01*
X0073663Y0032032D02*
X0078011Y0032032D01*
X0077412Y0032630D02*
X0073663Y0032630D01*
X0073663Y0033229D02*
X0076814Y0033229D01*
X0076215Y0033827D02*
X0073663Y0033827D01*
X0073663Y0034426D02*
X0075663Y0034426D01*
X0075663Y0035024D02*
X0073663Y0035024D01*
X0073663Y0035623D02*
X0075663Y0035623D01*
X0075663Y0036221D02*
X0073663Y0036221D01*
X0073663Y0036820D02*
X0075663Y0036820D01*
X0075663Y0037418D02*
X0073663Y0037418D01*
X0073663Y0038017D02*
X0075663Y0038017D01*
X0075663Y0038615D02*
X0073663Y0038615D01*
X0073663Y0039214D02*
X0075663Y0039214D01*
X0075663Y0039812D02*
X0073663Y0039812D01*
X0073663Y0040411D02*
X0075663Y0040411D01*
X0075663Y0041009D02*
X0073663Y0041009D01*
X0073663Y0041608D02*
X0075663Y0041608D01*
X0075663Y0042206D02*
X0073663Y0042206D01*
X0073925Y0042805D02*
X0075402Y0042805D01*
X0075073Y0043403D02*
X0074254Y0043403D01*
X0074254Y0044002D02*
X0075073Y0044002D01*
X0075073Y0044600D02*
X0074254Y0044600D01*
X0073921Y0045199D02*
X0075406Y0045199D01*
X0076004Y0045797D02*
X0073323Y0045797D01*
X0071863Y0046396D02*
X0078163Y0046396D01*
X0077713Y0046994D02*
X0071863Y0046994D01*
X0071863Y0047593D02*
X0077573Y0047593D01*
X0077573Y0048191D02*
X0071863Y0048191D01*
X0071863Y0048790D02*
X0077573Y0048790D01*
X0078095Y0049388D02*
X0071863Y0049388D01*
X0071863Y0049987D02*
X0078694Y0049987D01*
X0080633Y0049987D02*
X0088163Y0049987D01*
X0088163Y0050585D02*
X0071863Y0050585D01*
X0071863Y0051184D02*
X0082108Y0051184D01*
X0081795Y0051782D02*
X0071863Y0051782D01*
X0071863Y0052381D02*
X0081795Y0052381D01*
X0081795Y0052979D02*
X0071863Y0052979D01*
X0071863Y0053578D02*
X0081795Y0053578D01*
X0081795Y0054176D02*
X0071863Y0054176D01*
X0071863Y0054775D02*
X0081795Y0054775D01*
X0081795Y0055373D02*
X0071863Y0055373D01*
X0072040Y0055972D02*
X0081795Y0055972D01*
X0085103Y0058965D02*
X0092763Y0058965D01*
X0092763Y0059563D02*
X0084505Y0059563D01*
X0085702Y0058366D02*
X0092863Y0058366D01*
X0092863Y0057768D02*
X0086300Y0057768D01*
X0086363Y0057169D02*
X0092863Y0057169D01*
X0091795Y0056570D02*
X0087532Y0056570D01*
X0087532Y0055972D02*
X0091795Y0055972D01*
X0090416Y0055373D02*
X0087532Y0055373D01*
X0087532Y0054775D02*
X0089817Y0054775D01*
X0089219Y0054176D02*
X0087532Y0054176D01*
X0087532Y0053578D02*
X0088620Y0053578D01*
X0088163Y0052979D02*
X0087532Y0052979D01*
X0087532Y0052381D02*
X0088163Y0052381D01*
X0088163Y0051782D02*
X0087532Y0051782D01*
X0087219Y0051184D02*
X0088163Y0051184D01*
X0088163Y0049388D02*
X0081232Y0049388D01*
X0081754Y0048790D02*
X0088163Y0048790D01*
X0088163Y0048191D02*
X0081754Y0048191D01*
X0081754Y0047593D02*
X0088163Y0047593D01*
X0088163Y0046994D02*
X0081614Y0046994D01*
X0081163Y0046396D02*
X0088163Y0046396D01*
X0088163Y0045797D02*
X0081163Y0045797D01*
X0081586Y0045199D02*
X0087741Y0045199D01*
X0087142Y0044600D02*
X0082185Y0044600D01*
X0080336Y0042206D02*
X0078663Y0042206D01*
X0078663Y0041608D02*
X0080934Y0041608D01*
X0079737Y0042805D02*
X0078925Y0042805D01*
X0078663Y0041009D02*
X0109176Y0041009D01*
X0109423Y0041608D02*
X0088392Y0041608D01*
X0088991Y0042206D02*
X0109996Y0042206D01*
X0110712Y0042805D02*
X0089590Y0042805D01*
X0090188Y0043403D02*
X0116363Y0043403D01*
X0116363Y0044002D02*
X0090787Y0044002D01*
X0091163Y0044600D02*
X0116363Y0044600D01*
X0116363Y0045199D02*
X0091163Y0045199D01*
X0091163Y0045797D02*
X0111673Y0045797D01*
X0110394Y0046396D02*
X0091163Y0046396D01*
X0091163Y0046994D02*
X0109795Y0046994D01*
X0109340Y0047593D02*
X0091163Y0047593D01*
X0091163Y0048191D02*
X0109092Y0048191D01*
X0108863Y0048790D02*
X0091163Y0048790D01*
X0091163Y0049388D02*
X0108863Y0049388D01*
X0108863Y0049987D02*
X0091163Y0049987D01*
X0091163Y0050585D02*
X0109000Y0050585D01*
X0109248Y0051184D02*
X0097219Y0051184D01*
X0097532Y0051782D02*
X0109572Y0051782D01*
X0110170Y0052381D02*
X0097532Y0052381D01*
X0097532Y0052979D02*
X0111134Y0052979D01*
X0116363Y0053578D02*
X0097532Y0053578D01*
X0097532Y0054176D02*
X0116363Y0054176D01*
X0116363Y0054775D02*
X0097532Y0054775D01*
X0097532Y0055373D02*
X0116363Y0055373D01*
X0111251Y0055972D02*
X0097532Y0055972D01*
X0097532Y0056570D02*
X0110219Y0056570D01*
X0109620Y0057169D02*
X0096263Y0057169D01*
X0096263Y0057768D02*
X0109268Y0057768D01*
X0109020Y0058366D02*
X0096263Y0058366D01*
X0096363Y0058965D02*
X0108860Y0058965D01*
X0108262Y0059563D02*
X0096363Y0059563D01*
X0096363Y0060162D02*
X0107663Y0060162D01*
X0107065Y0060760D02*
X0096363Y0060760D01*
X0096363Y0061359D02*
X0106466Y0061359D01*
X0105868Y0061957D02*
X0096363Y0061957D01*
X0096176Y0062556D02*
X0105269Y0062556D01*
X0104671Y0063154D02*
X0100774Y0063154D01*
X0101373Y0063753D02*
X0104072Y0063753D01*
X0103474Y0064351D02*
X0101754Y0064351D01*
X0101754Y0064950D02*
X0102875Y0064950D01*
X0102277Y0065548D02*
X0101754Y0065548D01*
X0101678Y0066147D02*
X0101473Y0066147D01*
X0101080Y0066745D02*
X0100875Y0066745D01*
X0100481Y0067344D02*
X0099158Y0067344D01*
X0098560Y0067942D02*
X0099883Y0067942D01*
X0099284Y0068541D02*
X0096661Y0068541D01*
X0097254Y0069139D02*
X0098686Y0069139D01*
X0098087Y0069738D02*
X0097254Y0069738D01*
X0097254Y0070336D02*
X0097489Y0070336D01*
X0099370Y0072132D02*
X0105693Y0072132D01*
X0105095Y0072730D02*
X0098772Y0072730D01*
X0098173Y0073329D02*
X0104496Y0073329D01*
X0103898Y0073927D02*
X0097047Y0073927D01*
X0096920Y0073800D02*
X0097254Y0074134D01*
X0097254Y0075866D01*
X0096920Y0076200D01*
X0101625Y0076200D01*
X0108863Y0068962D01*
X0108863Y0068744D01*
X0109442Y0067347D01*
X0110511Y0066279D01*
X0111908Y0065700D01*
X0116363Y0065700D01*
X0116363Y0063300D01*
X0111908Y0063300D01*
X0110511Y0062721D01*
X0109646Y0061856D01*
X0097702Y0073800D01*
X0096920Y0073800D01*
X0097254Y0074526D02*
X0103299Y0074526D01*
X0102701Y0075124D02*
X0097254Y0075124D01*
X0097254Y0075723D02*
X0102102Y0075723D01*
X0094565Y0078800D02*
X0092674Y0078800D01*
X0090395Y0081079D01*
X0090395Y0081349D01*
X0086527Y0085217D01*
X0085782Y0085217D01*
X0084419Y0083854D01*
X0084419Y0083825D01*
X0084390Y0083825D01*
X0083027Y0082463D01*
X0083027Y0081717D01*
X0086895Y0077849D01*
X0087165Y0077849D01*
X0093052Y0071962D01*
X0093610Y0071403D01*
X0093073Y0070866D01*
X0093073Y0069134D01*
X0093907Y0068300D01*
X0091420Y0068300D01*
X0092254Y0069134D01*
X0092254Y0070866D01*
X0091029Y0072091D01*
X0089298Y0072091D01*
X0088073Y0070866D01*
X0088073Y0069134D01*
X0088907Y0068300D01*
X0085702Y0068300D01*
X0085463Y0068538D01*
X0085463Y0071100D01*
X0088236Y0071100D01*
X0088763Y0071627D01*
X0088763Y0074173D01*
X0088236Y0074700D01*
X0086963Y0074700D01*
X0086963Y0076038D01*
X0086219Y0076783D01*
X0086219Y0077173D01*
X0082351Y0081041D01*
X0082254Y0081041D01*
X0082254Y0082366D01*
X0081029Y0083591D01*
X0079298Y0083591D01*
X0079254Y0083547D01*
X0079254Y0084366D01*
X0078029Y0085591D01*
X0077710Y0085591D01*
X0077754Y0085634D01*
X0077754Y0087366D01*
X0076529Y0088591D01*
X0074798Y0088591D01*
X0073913Y0087706D01*
X0073529Y0088091D01*
X0071798Y0088091D01*
X0070573Y0086866D01*
X0070573Y0086429D01*
X0067202Y0089800D01*
X0065301Y0089800D01*
X0065132Y0089631D01*
X0063978Y0090785D01*
X0063948Y0090785D01*
X0063948Y0090814D01*
X0063562Y0091200D01*
X0068202Y0091200D01*
X0068963Y0091962D01*
X0071202Y0094200D01*
X0084702Y0094200D01*
X0085363Y0094862D01*
X0085363Y0091962D01*
X0086125Y0091200D01*
X0087625Y0089700D01*
X0090265Y0089700D01*
X0089987Y0089422D01*
X0089987Y0089393D01*
X0089957Y0089393D01*
X0088595Y0088030D01*
X0088595Y0088001D01*
X0088565Y0088001D01*
X0087203Y0086638D01*
X0087203Y0085893D01*
X0091071Y0082025D01*
X0091340Y0082025D01*
X0094404Y0078962D01*
X0094565Y0078800D01*
X0094051Y0079314D02*
X0092161Y0079314D01*
X0091562Y0079912D02*
X0093453Y0079912D01*
X0092854Y0080511D02*
X0090964Y0080511D01*
X0090395Y0081109D02*
X0092256Y0081109D01*
X0091657Y0081708D02*
X0090036Y0081708D01*
X0089437Y0082306D02*
X0090789Y0082306D01*
X0090191Y0082905D02*
X0088839Y0082905D01*
X0088240Y0083503D02*
X0089592Y0083503D01*
X0088994Y0084102D02*
X0087642Y0084102D01*
X0087043Y0084701D02*
X0088395Y0084701D01*
X0087797Y0085299D02*
X0078321Y0085299D01*
X0077754Y0085898D02*
X0080809Y0085898D01*
X0081298Y0085409D02*
X0080073Y0086634D01*
X0080073Y0087909D01*
X0079298Y0087909D01*
X0078073Y0089134D01*
X0078073Y0090866D01*
X0079298Y0092091D01*
X0081029Y0092091D01*
X0082254Y0090866D01*
X0082254Y0089591D01*
X0083029Y0089591D01*
X0083413Y0089206D01*
X0084298Y0090091D01*
X0086029Y0090091D01*
X0087254Y0088866D01*
X0087254Y0087134D01*
X0086029Y0085909D01*
X0084298Y0085909D01*
X0083913Y0086294D01*
X0083029Y0085409D01*
X0081298Y0085409D01*
X0080211Y0086496D02*
X0077754Y0086496D01*
X0077754Y0087095D02*
X0080073Y0087095D01*
X0080073Y0087693D02*
X0077427Y0087693D01*
X0076828Y0088292D02*
X0078915Y0088292D01*
X0078317Y0088890D02*
X0068112Y0088890D01*
X0068710Y0088292D02*
X0074499Y0088292D01*
X0071400Y0087693D02*
X0069309Y0087693D01*
X0069907Y0087095D02*
X0070802Y0087095D01*
X0070573Y0086496D02*
X0070506Y0086496D01*
X0067513Y0089489D02*
X0078073Y0089489D01*
X0078073Y0090087D02*
X0064675Y0090087D01*
X0064077Y0090686D02*
X0078073Y0090686D01*
X0078491Y0091284D02*
X0068286Y0091284D01*
X0068885Y0091883D02*
X0079090Y0091883D01*
X0081237Y0091883D02*
X0085442Y0091883D01*
X0085363Y0092481D02*
X0069483Y0092481D01*
X0068963Y0091962D02*
X0068963Y0091962D01*
X0070082Y0093080D02*
X0085363Y0093080D01*
X0085363Y0093678D02*
X0070680Y0093678D01*
X0068799Y0095474D02*
X0065476Y0095474D01*
X0065902Y0095900D02*
X0069225Y0095900D01*
X0067125Y0093800D01*
X0060962Y0093800D01*
X0059802Y0094960D01*
X0059056Y0094960D01*
X0055188Y0091093D01*
X0055188Y0090823D01*
X0055125Y0090760D01*
X0054463Y0090098D01*
X0054463Y0091768D01*
X0054512Y0091768D01*
X0058380Y0095636D01*
X0058380Y0095906D01*
X0058574Y0096100D01*
X0059625Y0096100D01*
X0061225Y0094500D01*
X0064502Y0094500D01*
X0065902Y0095900D01*
X0064877Y0094875D02*
X0068200Y0094875D01*
X0067602Y0094277D02*
X0060486Y0094277D01*
X0060850Y0094875D02*
X0059887Y0094875D01*
X0060251Y0095474D02*
X0058218Y0095474D01*
X0058547Y0096072D02*
X0059653Y0096072D01*
X0058971Y0094875D02*
X0057619Y0094875D01*
X0057021Y0094277D02*
X0058373Y0094277D01*
X0057774Y0093678D02*
X0056422Y0093678D01*
X0055824Y0093080D02*
X0057175Y0093080D01*
X0056577Y0092481D02*
X0055225Y0092481D01*
X0054627Y0091883D02*
X0055978Y0091883D01*
X0055380Y0091284D02*
X0054463Y0091284D01*
X0054463Y0090686D02*
X0055051Y0090686D01*
X0051863Y0090686D02*
X0046285Y0090686D01*
X0046463Y0090256D02*
X0045885Y0091653D01*
X0044816Y0092721D01*
X0043419Y0093300D01*
X0038963Y0093300D01*
X0038963Y0095700D01*
X0043419Y0095700D01*
X0044816Y0096279D01*
X0045885Y0097347D01*
X0046238Y0098200D01*
X0048376Y0098200D01*
X0048229Y0098052D01*
X0048229Y0097307D01*
X0049591Y0095944D01*
X0049621Y0095944D01*
X0049621Y0095915D01*
X0050983Y0094552D01*
X0051013Y0094552D01*
X0051013Y0094523D01*
X0052166Y0093369D01*
X0051863Y0093066D01*
X0051863Y0087200D01*
X0051591Y0087200D01*
X0051413Y0087023D01*
X0051236Y0087200D01*
X0048091Y0087200D01*
X0047563Y0086673D01*
X0047563Y0084127D01*
X0048091Y0083600D01*
X0051236Y0083600D01*
X0051413Y0083777D01*
X0051591Y0083600D01*
X0054363Y0083600D01*
X0054363Y0081038D01*
X0054125Y0080800D01*
X0048702Y0080800D01*
X0048463Y0081038D01*
X0048463Y0082038D01*
X0047702Y0082800D01*
X0044397Y0086105D01*
X0044816Y0086279D01*
X0045885Y0087347D01*
X0046463Y0088744D01*
X0046463Y0090256D01*
X0046463Y0090087D02*
X0051863Y0090087D01*
X0051863Y0089489D02*
X0046463Y0089489D01*
X0046463Y0088890D02*
X0051863Y0088890D01*
X0051863Y0088292D02*
X0046276Y0088292D01*
X0046028Y0087693D02*
X0051863Y0087693D01*
X0051485Y0087095D02*
X0051342Y0087095D01*
X0047985Y0087095D02*
X0045632Y0087095D01*
X0045034Y0086496D02*
X0047563Y0086496D01*
X0047563Y0085898D02*
X0044604Y0085898D01*
X0045203Y0085299D02*
X0047563Y0085299D01*
X0047563Y0084701D02*
X0045801Y0084701D01*
X0046400Y0084102D02*
X0047589Y0084102D01*
X0046998Y0083503D02*
X0054363Y0083503D01*
X0054363Y0082905D02*
X0047597Y0082905D01*
X0048195Y0082306D02*
X0054363Y0082306D01*
X0054363Y0081708D02*
X0048463Y0081708D01*
X0048463Y0081109D02*
X0054363Y0081109D01*
X0059963Y0081109D02*
X0061863Y0081109D01*
X0061863Y0080511D02*
X0059963Y0080511D01*
X0059963Y0079912D02*
X0061863Y0079912D01*
X0061863Y0079538D02*
X0061125Y0078800D01*
X0059802Y0078800D01*
X0059963Y0078962D01*
X0059963Y0083570D01*
X0060965Y0084571D01*
X0061910Y0083625D01*
X0061863Y0083579D01*
X0061863Y0079538D01*
X0061639Y0079314D02*
X0059963Y0079314D01*
X0060663Y0075723D02*
X0058725Y0075723D01*
X0058126Y0075124D02*
X0060663Y0075124D01*
X0060663Y0074526D02*
X0057528Y0074526D01*
X0057463Y0074462D02*
X0057463Y0074462D01*
X0056929Y0073927D02*
X0060663Y0073927D01*
X0060019Y0073329D02*
X0051831Y0073329D01*
X0051563Y0072730D02*
X0059763Y0072730D01*
X0059763Y0072132D02*
X0051563Y0072132D01*
X0051563Y0071533D02*
X0059763Y0071533D01*
X0059763Y0070935D02*
X0051563Y0070935D01*
X0051563Y0070336D02*
X0059763Y0070336D01*
X0059953Y0069738D02*
X0054764Y0069738D01*
X0055363Y0069139D02*
X0059464Y0069139D01*
X0058866Y0068541D02*
X0055961Y0068541D01*
X0055963Y0067942D02*
X0057171Y0067942D01*
X0057126Y0067344D02*
X0055963Y0067344D01*
X0055963Y0066745D02*
X0057126Y0066745D01*
X0057126Y0066147D02*
X0055963Y0066147D01*
X0055963Y0065548D02*
X0057126Y0065548D01*
X0057126Y0064950D02*
X0055963Y0064950D01*
X0055963Y0064351D02*
X0057126Y0064351D01*
X0057126Y0063753D02*
X0055963Y0063753D01*
X0055963Y0063154D02*
X0057126Y0063154D01*
X0057126Y0062556D02*
X0055963Y0062556D01*
X0055963Y0061957D02*
X0057126Y0061957D01*
X0057126Y0061359D02*
X0055963Y0061359D01*
X0055963Y0060760D02*
X0057126Y0060760D01*
X0057126Y0060162D02*
X0055963Y0060162D01*
X0055963Y0059563D02*
X0057233Y0059563D01*
X0055963Y0058965D02*
X0065099Y0058965D01*
X0064677Y0059563D02*
X0063149Y0059563D01*
X0063256Y0060162D02*
X0064677Y0060162D01*
X0064677Y0060760D02*
X0063256Y0060760D01*
X0063256Y0061359D02*
X0064677Y0061359D01*
X0064677Y0061957D02*
X0063256Y0061957D01*
X0063256Y0062556D02*
X0064677Y0062556D01*
X0064677Y0063154D02*
X0063256Y0063154D01*
X0063256Y0063753D02*
X0064677Y0063753D01*
X0064677Y0064351D02*
X0063256Y0064351D01*
X0063256Y0064950D02*
X0064677Y0064950D01*
X0064677Y0065548D02*
X0063256Y0065548D01*
X0063256Y0066147D02*
X0064677Y0066147D01*
X0064677Y0066745D02*
X0063256Y0066745D01*
X0063256Y0067344D02*
X0064677Y0067344D01*
X0065006Y0067942D02*
X0063211Y0067942D01*
X0062543Y0068541D02*
X0065784Y0068541D01*
X0065463Y0069139D02*
X0062863Y0069139D01*
X0063174Y0069738D02*
X0065153Y0069738D01*
X0064963Y0070336D02*
X0063363Y0070336D01*
X0063363Y0070935D02*
X0064963Y0070935D01*
X0064963Y0071533D02*
X0063363Y0071533D01*
X0063363Y0072132D02*
X0064963Y0072132D01*
X0064963Y0072730D02*
X0063363Y0072730D01*
X0063263Y0073329D02*
X0065219Y0073329D01*
X0065863Y0073927D02*
X0063263Y0073927D01*
X0063263Y0074526D02*
X0065299Y0074526D01*
X0064863Y0075124D02*
X0063263Y0075124D01*
X0063725Y0075723D02*
X0064863Y0075723D01*
X0064863Y0076321D02*
X0064323Y0076321D01*
X0068463Y0073362D02*
X0069125Y0072700D01*
X0076763Y0072700D01*
X0076763Y0069927D01*
X0077008Y0069683D01*
X0076285Y0068960D01*
X0076285Y0068140D01*
X0075047Y0068140D01*
X0074519Y0067613D01*
X0074519Y0059700D01*
X0070959Y0059700D01*
X0070808Y0059548D01*
X0070808Y0067613D01*
X0070280Y0068140D01*
X0069042Y0068140D01*
X0069042Y0068960D01*
X0068319Y0069683D01*
X0068563Y0069927D01*
X0068563Y0073073D01*
X0068463Y0073173D01*
X0068463Y0073362D01*
X0068463Y0073329D02*
X0068496Y0073329D01*
X0068563Y0072730D02*
X0069095Y0072730D01*
X0068563Y0072132D02*
X0076763Y0072132D01*
X0076763Y0071533D02*
X0068563Y0071533D01*
X0068563Y0070935D02*
X0076763Y0070935D01*
X0076763Y0070336D02*
X0068563Y0070336D01*
X0068374Y0069738D02*
X0076953Y0069738D01*
X0076464Y0069139D02*
X0068863Y0069139D01*
X0069042Y0068541D02*
X0076285Y0068541D01*
X0074849Y0067942D02*
X0070478Y0067942D01*
X0070808Y0067344D02*
X0074519Y0067344D01*
X0074519Y0066745D02*
X0070808Y0066745D01*
X0070808Y0066147D02*
X0074519Y0066147D01*
X0074519Y0065548D02*
X0070808Y0065548D01*
X0070808Y0064950D02*
X0074519Y0064950D01*
X0074519Y0064351D02*
X0070808Y0064351D01*
X0070808Y0063753D02*
X0074519Y0063753D01*
X0074519Y0063154D02*
X0070808Y0063154D01*
X0070808Y0062556D02*
X0074519Y0062556D01*
X0074519Y0061957D02*
X0070808Y0061957D01*
X0070808Y0061359D02*
X0074519Y0061359D01*
X0074519Y0060760D02*
X0070808Y0060760D01*
X0070808Y0060162D02*
X0074519Y0060162D01*
X0070822Y0059563D02*
X0070808Y0059563D01*
X0069625Y0058366D02*
X0055868Y0058366D01*
X0055269Y0057768D02*
X0069027Y0057768D01*
X0068463Y0057169D02*
X0054671Y0057169D01*
X0054072Y0056570D02*
X0068463Y0056570D01*
X0068463Y0055972D02*
X0053474Y0055972D01*
X0052875Y0055373D02*
X0068463Y0055373D01*
X0068463Y0054775D02*
X0052463Y0054775D01*
X0052463Y0054176D02*
X0068463Y0054176D01*
X0068463Y0053578D02*
X0063008Y0053578D01*
X0063256Y0053329D02*
X0062729Y0053857D01*
X0057653Y0053857D01*
X0057126Y0053329D01*
X0057126Y0045104D01*
X0057653Y0044576D01*
X0062729Y0044576D01*
X0063256Y0045104D01*
X0063256Y0053329D01*
X0063256Y0052979D02*
X0068463Y0052979D01*
X0068463Y0052381D02*
X0063256Y0052381D01*
X0063256Y0051782D02*
X0068463Y0051782D01*
X0068463Y0051184D02*
X0063256Y0051184D01*
X0063256Y0050585D02*
X0068463Y0050585D01*
X0068463Y0049987D02*
X0063256Y0049987D01*
X0063256Y0049388D02*
X0064985Y0049388D01*
X0064386Y0048790D02*
X0063256Y0048790D01*
X0063256Y0048191D02*
X0064078Y0048191D01*
X0064078Y0047593D02*
X0063256Y0047593D01*
X0063256Y0046994D02*
X0064078Y0046994D01*
X0064278Y0046396D02*
X0063256Y0046396D01*
X0063256Y0045797D02*
X0064876Y0045797D01*
X0065406Y0045199D02*
X0063256Y0045199D01*
X0062753Y0044600D02*
X0065073Y0044600D01*
X0065073Y0044002D02*
X0038963Y0044002D01*
X0038963Y0044600D02*
X0048574Y0044600D01*
X0048071Y0045199D02*
X0038963Y0045199D01*
X0038963Y0043403D02*
X0065073Y0043403D01*
X0065402Y0042805D02*
X0044615Y0042805D01*
X0045331Y0042206D02*
X0065463Y0042206D01*
X0065463Y0041608D02*
X0045904Y0041608D01*
X0046151Y0041009D02*
X0065463Y0041009D01*
X0065463Y0040411D02*
X0046399Y0040411D01*
X0046463Y0039812D02*
X0065463Y0039812D01*
X0065463Y0039214D02*
X0046463Y0039214D01*
X0046410Y0038615D02*
X0048082Y0038615D01*
X0047483Y0038017D02*
X0046162Y0038017D01*
X0045914Y0037418D02*
X0047463Y0037418D01*
X0047463Y0036820D02*
X0045357Y0036820D01*
X0044677Y0036221D02*
X0047463Y0036221D01*
X0047463Y0035623D02*
X0038963Y0035623D01*
X0038963Y0035024D02*
X0047463Y0035024D01*
X0047463Y0034426D02*
X0038963Y0034426D01*
X0038963Y0033827D02*
X0047463Y0033827D01*
X0047463Y0033229D02*
X0043592Y0033229D01*
X0044907Y0032630D02*
X0047463Y0032630D01*
X0047463Y0032032D02*
X0045506Y0032032D01*
X0045976Y0031433D02*
X0047463Y0031433D01*
X0047463Y0030834D02*
X0046224Y0030834D01*
X0046463Y0030236D02*
X0047463Y0030236D01*
X0047463Y0029637D02*
X0046463Y0029637D01*
X0046463Y0029039D02*
X0047463Y0029039D01*
X0047463Y0028440D02*
X0046338Y0028440D01*
X0046090Y0027842D02*
X0047463Y0027842D01*
X0047463Y0027243D02*
X0045781Y0027243D01*
X0045182Y0026645D02*
X0047463Y0026645D01*
X0047463Y0026046D02*
X0044256Y0026046D01*
X0047463Y0025448D02*
X0038963Y0025448D01*
X0038963Y0024849D02*
X0047463Y0024849D01*
X0047458Y0024251D02*
X0038963Y0024251D01*
X0038963Y0023652D02*
X0047073Y0023652D01*
X0047073Y0023054D02*
X0044014Y0023054D01*
X0045082Y0022455D02*
X0047073Y0022455D01*
X0047350Y0021857D02*
X0045681Y0021857D01*
X0046048Y0021258D02*
X0047463Y0021258D01*
X0047463Y0020660D02*
X0046296Y0020660D01*
X0046463Y0020061D02*
X0047463Y0020061D01*
X0047504Y0019463D02*
X0046463Y0019463D01*
X0046463Y0018864D02*
X0048102Y0018864D01*
X0048663Y0020000D02*
X0048663Y0037500D01*
X0059663Y0037500D01*
X0059663Y0026500D01*
X0053163Y0020000D01*
X0048663Y0020000D01*
X0048663Y0020061D02*
X0053225Y0020061D01*
X0053823Y0020660D02*
X0048663Y0020660D01*
X0048663Y0021258D02*
X0054422Y0021258D01*
X0055020Y0021857D02*
X0048663Y0021857D01*
X0048663Y0022455D02*
X0055619Y0022455D01*
X0056217Y0023054D02*
X0048663Y0023054D01*
X0048663Y0023652D02*
X0056816Y0023652D01*
X0057414Y0024251D02*
X0048663Y0024251D01*
X0048663Y0024849D02*
X0058013Y0024849D01*
X0058611Y0025448D02*
X0048663Y0025448D01*
X0048663Y0026046D02*
X0059210Y0026046D01*
X0059663Y0026645D02*
X0048663Y0026645D01*
X0048663Y0027243D02*
X0059663Y0027243D01*
X0059663Y0027842D02*
X0048663Y0027842D01*
X0048663Y0028440D02*
X0059663Y0028440D01*
X0059663Y0029039D02*
X0048663Y0029039D01*
X0048663Y0029637D02*
X0059663Y0029637D01*
X0059663Y0030236D02*
X0048663Y0030236D01*
X0048663Y0030834D02*
X0059663Y0030834D01*
X0059663Y0031433D02*
X0048663Y0031433D01*
X0048663Y0032032D02*
X0059663Y0032032D01*
X0059663Y0032630D02*
X0048663Y0032630D01*
X0048663Y0033229D02*
X0059663Y0033229D01*
X0059663Y0033827D02*
X0048663Y0033827D01*
X0048663Y0034426D02*
X0059663Y0034426D01*
X0059663Y0035024D02*
X0048663Y0035024D01*
X0048663Y0035623D02*
X0059663Y0035623D01*
X0059663Y0036221D02*
X0048663Y0036221D01*
X0048663Y0036820D02*
X0059663Y0036820D01*
X0059663Y0037418D02*
X0048663Y0037418D01*
X0053698Y0044600D02*
X0057629Y0044600D01*
X0057126Y0045199D02*
X0054201Y0045199D01*
X0054201Y0045797D02*
X0057126Y0045797D01*
X0057126Y0046396D02*
X0054201Y0046396D01*
X0054201Y0046994D02*
X0057126Y0046994D01*
X0057126Y0047593D02*
X0054201Y0047593D01*
X0054201Y0048191D02*
X0057126Y0048191D01*
X0057126Y0048790D02*
X0054201Y0048790D01*
X0054201Y0049388D02*
X0057126Y0049388D01*
X0057126Y0049987D02*
X0054201Y0049987D01*
X0054201Y0050585D02*
X0057126Y0050585D01*
X0057126Y0051184D02*
X0054201Y0051184D01*
X0054201Y0051782D02*
X0057126Y0051782D01*
X0057126Y0052381D02*
X0054201Y0052381D01*
X0054201Y0052979D02*
X0057126Y0052979D01*
X0057374Y0053578D02*
X0053953Y0053578D01*
X0049863Y0054176D02*
X0038963Y0054176D01*
X0038963Y0053578D02*
X0048319Y0053578D01*
X0048071Y0052979D02*
X0044193Y0052979D01*
X0045157Y0052381D02*
X0048071Y0052381D01*
X0048071Y0051782D02*
X0045755Y0051782D01*
X0046079Y0051184D02*
X0048071Y0051184D01*
X0048071Y0050585D02*
X0046327Y0050585D01*
X0046463Y0049987D02*
X0048071Y0049987D01*
X0048071Y0049388D02*
X0046463Y0049388D01*
X0046463Y0048790D02*
X0048071Y0048790D01*
X0048071Y0048191D02*
X0046234Y0048191D01*
X0045987Y0047593D02*
X0048071Y0047593D01*
X0048071Y0046994D02*
X0045532Y0046994D01*
X0044933Y0046396D02*
X0048071Y0046396D01*
X0048071Y0045797D02*
X0043654Y0045797D01*
X0038963Y0054775D02*
X0049863Y0054775D01*
X0049863Y0055373D02*
X0038963Y0055373D01*
X0044076Y0055972D02*
X0049863Y0055972D01*
X0050395Y0056570D02*
X0045108Y0056570D01*
X0045706Y0057169D02*
X0050994Y0057169D01*
X0051593Y0057768D02*
X0046059Y0057768D01*
X0046307Y0058366D02*
X0052191Y0058366D01*
X0052790Y0058965D02*
X0046463Y0058965D01*
X0046463Y0059563D02*
X0048178Y0059563D01*
X0048071Y0060162D02*
X0046463Y0060162D01*
X0046255Y0060760D02*
X0048071Y0060760D01*
X0048071Y0061359D02*
X0046361Y0061359D01*
X0046959Y0061957D02*
X0048071Y0061957D01*
X0048071Y0062556D02*
X0047558Y0062556D01*
X0067728Y0049388D02*
X0068463Y0049388D01*
X0068463Y0048790D02*
X0068327Y0048790D01*
X0069569Y0044002D02*
X0070073Y0044002D01*
X0070073Y0043403D02*
X0069254Y0043403D01*
X0068925Y0042805D02*
X0070402Y0042805D01*
X0070663Y0042206D02*
X0068863Y0042206D01*
X0068863Y0041608D02*
X0070663Y0041608D01*
X0070663Y0041009D02*
X0068863Y0041009D01*
X0068863Y0040411D02*
X0070663Y0040411D01*
X0070663Y0039812D02*
X0068863Y0039812D01*
X0068863Y0039214D02*
X0070663Y0039214D01*
X0070663Y0038615D02*
X0068863Y0038615D01*
X0068863Y0038017D02*
X0070663Y0038017D01*
X0070663Y0037418D02*
X0068863Y0037418D01*
X0068863Y0036820D02*
X0070663Y0036820D01*
X0070663Y0036221D02*
X0068863Y0036221D01*
X0068863Y0035623D02*
X0070663Y0035623D01*
X0070663Y0035024D02*
X0068863Y0035024D01*
X0068863Y0034426D02*
X0070663Y0034426D01*
X0070663Y0033827D02*
X0068863Y0033827D01*
X0068863Y0033229D02*
X0070663Y0033229D01*
X0070663Y0032630D02*
X0068863Y0032630D01*
X0068863Y0032032D02*
X0070663Y0032032D01*
X0070663Y0031433D02*
X0068863Y0031433D01*
X0068863Y0030834D02*
X0070663Y0030834D01*
X0070663Y0030236D02*
X0068863Y0030236D01*
X0068863Y0029637D02*
X0070663Y0029637D01*
X0071003Y0029039D02*
X0068863Y0029039D01*
X0068863Y0028440D02*
X0071602Y0028440D01*
X0072200Y0027842D02*
X0068863Y0027842D01*
X0068863Y0027243D02*
X0072799Y0027243D01*
X0073397Y0026645D02*
X0068863Y0026645D01*
X0060929Y0026645D02*
X0060863Y0026645D01*
X0060863Y0027243D02*
X0060929Y0027243D01*
X0060929Y0027842D02*
X0060863Y0027842D01*
X0060863Y0028440D02*
X0060929Y0028440D01*
X0060929Y0029039D02*
X0060863Y0029039D01*
X0060863Y0029637D02*
X0060929Y0029637D01*
X0060929Y0030236D02*
X0060863Y0030236D01*
X0060863Y0030834D02*
X0060929Y0030834D01*
X0060929Y0031433D02*
X0060863Y0031433D01*
X0060863Y0032032D02*
X0060929Y0032032D01*
X0060929Y0032630D02*
X0060863Y0032630D01*
X0060863Y0033229D02*
X0060929Y0033229D01*
X0060929Y0033827D02*
X0060863Y0033827D01*
X0060863Y0034426D02*
X0060929Y0034426D01*
X0060929Y0035024D02*
X0060863Y0035024D01*
X0060863Y0035623D02*
X0060929Y0035623D01*
X0060929Y0036221D02*
X0060863Y0036221D01*
X0060863Y0036820D02*
X0060929Y0036820D01*
X0060929Y0037418D02*
X0060863Y0037418D01*
X0060844Y0038017D02*
X0065463Y0038017D01*
X0065463Y0038615D02*
X0060245Y0038615D01*
X0078663Y0038615D02*
X0108917Y0038615D01*
X0108863Y0039214D02*
X0078663Y0039214D01*
X0078663Y0039812D02*
X0108863Y0039812D01*
X0108928Y0040411D02*
X0078663Y0040411D01*
X0078663Y0038017D02*
X0109165Y0038017D01*
X0109413Y0037418D02*
X0108398Y0037418D01*
X0108398Y0037478D02*
X0107871Y0038005D01*
X0103188Y0038005D01*
X0102661Y0037478D01*
X0102661Y0024922D01*
X0103188Y0024394D01*
X0107871Y0024394D01*
X0108398Y0024922D01*
X0108398Y0037478D01*
X0108398Y0036820D02*
X0109970Y0036820D01*
X0110650Y0036221D02*
X0108398Y0036221D01*
X0108398Y0035623D02*
X0116363Y0035623D01*
X0116363Y0035024D02*
X0108398Y0035024D01*
X0108398Y0034426D02*
X0116363Y0034426D01*
X0116363Y0033827D02*
X0108398Y0033827D01*
X0108398Y0033229D02*
X0111735Y0033229D01*
X0110420Y0032630D02*
X0108398Y0032630D01*
X0108398Y0032032D02*
X0109821Y0032032D01*
X0109351Y0031433D02*
X0108398Y0031433D01*
X0108398Y0030834D02*
X0109103Y0030834D01*
X0108863Y0030236D02*
X0108398Y0030236D01*
X0108398Y0029637D02*
X0108863Y0029637D01*
X0108863Y0029039D02*
X0108398Y0029039D01*
X0108398Y0028440D02*
X0108989Y0028440D01*
X0109237Y0027842D02*
X0108398Y0027842D01*
X0108398Y0027243D02*
X0109546Y0027243D01*
X0110145Y0026645D02*
X0108398Y0026645D01*
X0108398Y0026046D02*
X0111071Y0026046D01*
X0108398Y0025448D02*
X0116363Y0025448D01*
X0116363Y0024849D02*
X0108326Y0024849D01*
X0110245Y0022455D02*
X0091663Y0022455D01*
X0091663Y0021857D02*
X0109646Y0021857D01*
X0109279Y0021258D02*
X0091663Y0021258D01*
X0091663Y0020660D02*
X0109031Y0020660D01*
X0108863Y0020061D02*
X0091663Y0020061D01*
X0091663Y0019463D02*
X0108863Y0019463D01*
X0108863Y0018864D02*
X0091663Y0018864D01*
X0091663Y0018266D02*
X0109062Y0018266D01*
X0111313Y0023054D02*
X0091231Y0023054D01*
X0090632Y0023652D02*
X0116363Y0023652D01*
X0116363Y0024251D02*
X0090034Y0024251D01*
X0089435Y0024849D02*
X0102733Y0024849D01*
X0102661Y0025448D02*
X0088837Y0025448D01*
X0088238Y0026046D02*
X0102661Y0026046D01*
X0102661Y0026645D02*
X0087640Y0026645D01*
X0087041Y0027243D02*
X0102661Y0027243D01*
X0102661Y0027842D02*
X0086443Y0027842D01*
X0085844Y0028440D02*
X0102661Y0028440D01*
X0102661Y0029039D02*
X0085246Y0029039D01*
X0084647Y0029637D02*
X0102661Y0029637D01*
X0102661Y0030236D02*
X0084049Y0030236D01*
X0083450Y0030834D02*
X0102661Y0030834D01*
X0102661Y0031433D02*
X0082852Y0031433D01*
X0082253Y0032032D02*
X0102661Y0032032D01*
X0102661Y0032630D02*
X0081655Y0032630D01*
X0081056Y0033229D02*
X0102661Y0033229D01*
X0102661Y0033827D02*
X0080458Y0033827D01*
X0079859Y0034426D02*
X0102661Y0034426D01*
X0102661Y0035024D02*
X0079261Y0035024D01*
X0078663Y0035623D02*
X0102661Y0035623D01*
X0102661Y0036221D02*
X0078663Y0036221D01*
X0078663Y0036820D02*
X0102661Y0036820D01*
X0102661Y0037418D02*
X0078663Y0037418D01*
X0060929Y0026046D02*
X0060863Y0026046D01*
X0060929Y0025448D02*
X0060308Y0025448D01*
X0059710Y0024849D02*
X0061001Y0024849D01*
X0091163Y0051184D02*
X0092108Y0051184D01*
X0091795Y0051782D02*
X0091163Y0051782D01*
X0091666Y0052381D02*
X0091795Y0052381D01*
X0092763Y0060162D02*
X0080650Y0060162D01*
X0080650Y0060760D02*
X0092763Y0060760D01*
X0092763Y0061359D02*
X0089479Y0061359D01*
X0090077Y0061957D02*
X0092763Y0061957D01*
X0093246Y0062556D02*
X0090254Y0062556D01*
X0090254Y0063154D02*
X0093553Y0063154D01*
X0093073Y0063753D02*
X0090254Y0063753D01*
X0086848Y0061359D02*
X0080650Y0061359D01*
X0080650Y0061957D02*
X0084368Y0061957D01*
X0083769Y0062556D02*
X0080650Y0062556D01*
X0080650Y0063154D02*
X0083171Y0063154D01*
X0082572Y0063753D02*
X0080650Y0063753D01*
X0080650Y0064351D02*
X0081974Y0064351D01*
X0081375Y0064950D02*
X0080650Y0064950D01*
X0080650Y0065548D02*
X0080777Y0065548D01*
X0085463Y0068541D02*
X0088666Y0068541D01*
X0088073Y0069139D02*
X0085463Y0069139D01*
X0085463Y0069738D02*
X0088073Y0069738D01*
X0088073Y0070336D02*
X0085463Y0070336D01*
X0085463Y0070935D02*
X0088142Y0070935D01*
X0088670Y0071533D02*
X0088740Y0071533D01*
X0088763Y0072132D02*
X0092882Y0072132D01*
X0092283Y0072730D02*
X0088763Y0072730D01*
X0088763Y0073329D02*
X0091685Y0073329D01*
X0091086Y0073927D02*
X0088763Y0073927D01*
X0088410Y0074526D02*
X0090488Y0074526D01*
X0089889Y0075124D02*
X0086963Y0075124D01*
X0086963Y0075723D02*
X0089291Y0075723D01*
X0088692Y0076321D02*
X0086681Y0076321D01*
X0086219Y0076920D02*
X0088094Y0076920D01*
X0087495Y0077518D02*
X0085874Y0077518D01*
X0085275Y0078117D02*
X0086627Y0078117D01*
X0086029Y0078715D02*
X0084677Y0078715D01*
X0084078Y0079314D02*
X0085430Y0079314D01*
X0084832Y0079912D02*
X0083480Y0079912D01*
X0082881Y0080511D02*
X0084233Y0080511D01*
X0083635Y0081109D02*
X0082254Y0081109D01*
X0082254Y0081708D02*
X0083036Y0081708D01*
X0083027Y0082306D02*
X0082254Y0082306D01*
X0081715Y0082905D02*
X0083470Y0082905D01*
X0084068Y0083503D02*
X0081116Y0083503D01*
X0079254Y0084102D02*
X0084667Y0084102D01*
X0085265Y0084701D02*
X0078919Y0084701D01*
X0083517Y0085898D02*
X0087203Y0085898D01*
X0087203Y0086496D02*
X0086616Y0086496D01*
X0087215Y0087095D02*
X0087659Y0087095D01*
X0087254Y0087693D02*
X0088258Y0087693D01*
X0088856Y0088292D02*
X0087254Y0088292D01*
X0087230Y0088890D02*
X0089455Y0088890D01*
X0090053Y0089489D02*
X0086631Y0089489D01*
X0086033Y0090087D02*
X0087238Y0090087D01*
X0086639Y0090686D02*
X0082254Y0090686D01*
X0082254Y0090087D02*
X0084294Y0090087D01*
X0083696Y0089489D02*
X0083131Y0089489D01*
X0081836Y0091284D02*
X0086041Y0091284D01*
X0086125Y0091200D02*
X0086125Y0091200D01*
X0085363Y0094277D02*
X0084779Y0094277D01*
X0086963Y0096638D02*
X0086963Y0099538D01*
X0086202Y0100300D01*
X0084702Y0101800D01*
X0071702Y0101800D01*
X0069302Y0104200D01*
X0079202Y0104200D01*
X0087702Y0112700D01*
X0092407Y0112700D01*
X0092073Y0112366D01*
X0092073Y0110634D01*
X0092407Y0110300D01*
X0092125Y0110300D01*
X0089125Y0107300D01*
X0087620Y0107300D01*
X0086829Y0108091D01*
X0085098Y0108091D01*
X0083873Y0106866D01*
X0083873Y0105134D01*
X0085098Y0103909D01*
X0086829Y0103909D01*
X0087620Y0104700D01*
X0088525Y0104700D01*
X0087363Y0103538D01*
X0087363Y0097038D01*
X0086963Y0096638D01*
X0086963Y0096671D02*
X0086996Y0096671D01*
X0086963Y0097269D02*
X0087363Y0097269D01*
X0087363Y0097868D02*
X0086963Y0097868D01*
X0086963Y0098466D02*
X0087363Y0098466D01*
X0087363Y0099065D02*
X0086963Y0099065D01*
X0086839Y0099663D02*
X0087363Y0099663D01*
X0087363Y0100262D02*
X0086240Y0100262D01*
X0085642Y0100860D02*
X0087363Y0100860D01*
X0087363Y0101459D02*
X0085043Y0101459D01*
X0087363Y0102057D02*
X0071445Y0102057D01*
X0070846Y0102656D02*
X0087363Y0102656D01*
X0087363Y0103254D02*
X0070248Y0103254D01*
X0069649Y0103853D02*
X0087678Y0103853D01*
X0087371Y0104451D02*
X0088276Y0104451D01*
X0084556Y0104451D02*
X0079453Y0104451D01*
X0080052Y0105050D02*
X0083957Y0105050D01*
X0083873Y0105648D02*
X0080650Y0105648D01*
X0081249Y0106247D02*
X0083873Y0106247D01*
X0083873Y0106845D02*
X0081847Y0106845D01*
X0082446Y0107444D02*
X0084451Y0107444D01*
X0085049Y0108042D02*
X0083044Y0108042D01*
X0083643Y0108641D02*
X0090466Y0108641D01*
X0091064Y0109239D02*
X0084241Y0109239D01*
X0084840Y0109838D02*
X0091663Y0109838D01*
X0092270Y0110437D02*
X0085438Y0110437D01*
X0086037Y0111035D02*
X0092073Y0111035D01*
X0092073Y0111634D02*
X0086635Y0111634D01*
X0087234Y0112232D02*
X0092073Y0112232D01*
X0089867Y0108042D02*
X0086877Y0108042D01*
X0087476Y0107444D02*
X0089269Y0107444D01*
X0080050Y0115225D02*
X0076227Y0115225D01*
X0076798Y0115091D02*
X0075573Y0113866D01*
X0075573Y0112134D01*
X0076357Y0111350D01*
X0075373Y0110366D01*
X0075373Y0108634D01*
X0075707Y0108300D01*
X0071820Y0108300D01*
X0071854Y0108334D01*
X0071854Y0110066D01*
X0071461Y0110459D01*
X0080202Y0119200D01*
X0080963Y0119962D01*
X0080963Y0125544D01*
X0081754Y0126334D01*
X0081754Y0127811D01*
X0082998Y0126567D01*
X0083027Y0126567D01*
X0083027Y0126537D01*
X0084390Y0125175D01*
X0084419Y0125175D01*
X0084419Y0125146D01*
X0085573Y0123992D01*
X0084863Y0123282D01*
X0084863Y0120038D01*
X0079222Y0114397D01*
X0078529Y0115091D01*
X0076798Y0115091D01*
X0076333Y0114626D02*
X0075628Y0114626D01*
X0075735Y0114028D02*
X0075030Y0114028D01*
X0075573Y0113429D02*
X0074431Y0113429D01*
X0073832Y0112831D02*
X0075573Y0112831D01*
X0075573Y0112232D02*
X0073234Y0112232D01*
X0072635Y0111634D02*
X0076073Y0111634D01*
X0076042Y0111035D02*
X0072037Y0111035D01*
X0071483Y0110437D02*
X0075444Y0110437D01*
X0075373Y0109838D02*
X0071854Y0109838D01*
X0071854Y0109239D02*
X0075373Y0109239D01*
X0075373Y0108641D02*
X0071854Y0108641D01*
X0066571Y0103254D02*
X0064248Y0103254D01*
X0064411Y0103091D02*
X0063802Y0103700D01*
X0066125Y0103700D01*
X0069725Y0100100D01*
X0066220Y0100100D01*
X0066254Y0100134D01*
X0066254Y0101866D01*
X0065029Y0103091D01*
X0064411Y0103091D01*
X0065464Y0102656D02*
X0067169Y0102656D01*
X0067768Y0102057D02*
X0066063Y0102057D01*
X0066254Y0101459D02*
X0068366Y0101459D01*
X0068965Y0100860D02*
X0066254Y0100860D01*
X0066254Y0100262D02*
X0069563Y0100262D01*
X0054025Y0106200D02*
X0053363Y0105538D01*
X0048625Y0100800D01*
X0046238Y0100800D01*
X0045885Y0101653D01*
X0044816Y0102721D01*
X0043419Y0103300D01*
X0038963Y0103300D01*
X0038963Y0105700D01*
X0043419Y0105700D01*
X0044816Y0106279D01*
X0045885Y0107347D01*
X0046463Y0108744D01*
X0046463Y0110256D01*
X0045885Y0111653D01*
X0044816Y0112721D01*
X0044397Y0112895D01*
X0048363Y0116862D01*
X0048363Y0116650D01*
X0049125Y0115889D01*
X0051013Y0114001D01*
X0051013Y0113732D01*
X0054880Y0109864D01*
X0055626Y0109864D01*
X0056988Y0111226D01*
X0056988Y0111256D01*
X0057018Y0111256D01*
X0058380Y0112618D01*
X0058380Y0112648D01*
X0058410Y0112648D01*
X0059073Y0113311D01*
X0059073Y0112634D01*
X0059707Y0112000D01*
X0059073Y0111366D01*
X0059073Y0109634D01*
X0059707Y0109000D01*
X0059507Y0108800D01*
X0054323Y0108800D01*
X0054204Y0108918D01*
X0054204Y0109188D01*
X0050337Y0113056D01*
X0049591Y0113056D01*
X0048229Y0111693D01*
X0048229Y0110948D01*
X0052097Y0107080D01*
X0052366Y0107080D01*
X0052484Y0106962D01*
X0053246Y0106200D01*
X0054025Y0106200D01*
X0053473Y0105648D02*
X0038963Y0105648D01*
X0038963Y0105050D02*
X0052875Y0105050D01*
X0052276Y0104451D02*
X0038963Y0104451D01*
X0038963Y0103853D02*
X0051678Y0103853D01*
X0051079Y0103254D02*
X0043529Y0103254D01*
X0044882Y0102656D02*
X0050481Y0102656D01*
X0049882Y0102057D02*
X0045480Y0102057D01*
X0045965Y0101459D02*
X0049284Y0101459D01*
X0048685Y0100860D02*
X0046213Y0100860D01*
X0046100Y0097868D02*
X0048229Y0097868D01*
X0048266Y0097269D02*
X0045807Y0097269D01*
X0045208Y0096671D02*
X0048865Y0096671D01*
X0049463Y0096072D02*
X0044318Y0096072D01*
X0043951Y0093080D02*
X0051877Y0093080D01*
X0051857Y0093678D02*
X0038963Y0093678D01*
X0038963Y0094277D02*
X0051259Y0094277D01*
X0050660Y0094875D02*
X0038963Y0094875D01*
X0038963Y0095474D02*
X0050062Y0095474D01*
X0051863Y0092481D02*
X0045056Y0092481D01*
X0045655Y0091883D02*
X0051863Y0091883D01*
X0051863Y0091284D02*
X0046038Y0091284D01*
X0060496Y0084102D02*
X0061433Y0084102D01*
X0061863Y0083503D02*
X0059963Y0083503D01*
X0059963Y0082905D02*
X0061863Y0082905D01*
X0061863Y0082306D02*
X0059963Y0082306D01*
X0059963Y0081708D02*
X0061863Y0081708D01*
X0091587Y0071533D02*
X0093480Y0071533D01*
X0093142Y0070935D02*
X0092185Y0070935D01*
X0092254Y0070336D02*
X0093073Y0070336D01*
X0093073Y0069738D02*
X0092254Y0069738D01*
X0092254Y0069139D02*
X0093073Y0069139D01*
X0093666Y0068541D02*
X0091661Y0068541D01*
X0097072Y0065548D02*
X0097277Y0065548D01*
X0097254Y0064950D02*
X0097573Y0064950D01*
X0097573Y0064351D02*
X0097254Y0064351D01*
X0097254Y0063753D02*
X0097954Y0063753D01*
X0098553Y0063154D02*
X0096774Y0063154D01*
X0102961Y0068541D02*
X0108948Y0068541D01*
X0109196Y0067942D02*
X0103560Y0067942D01*
X0104158Y0067344D02*
X0109446Y0067344D01*
X0110044Y0066745D02*
X0104757Y0066745D01*
X0105355Y0066147D02*
X0110829Y0066147D01*
X0111555Y0063154D02*
X0108348Y0063154D01*
X0108946Y0062556D02*
X0110345Y0062556D01*
X0109747Y0061957D02*
X0109545Y0061957D01*
X0107749Y0063753D02*
X0116363Y0063753D01*
X0116363Y0064351D02*
X0107151Y0064351D01*
X0106552Y0064950D02*
X0116363Y0064950D01*
X0116363Y0065548D02*
X0105954Y0065548D01*
X0108686Y0069139D02*
X0102363Y0069139D01*
X0101764Y0069738D02*
X0108087Y0069738D01*
X0107489Y0070336D02*
X0101166Y0070336D01*
X0100567Y0070935D02*
X0106890Y0070935D01*
X0106292Y0071533D02*
X0099969Y0071533D01*
X0103302Y0080800D02*
X0109646Y0087144D01*
X0110511Y0086279D01*
X0111908Y0085700D01*
X0116363Y0085700D01*
X0116363Y0083300D01*
X0111908Y0083300D01*
X0110511Y0082721D01*
X0109442Y0081653D01*
X0109089Y0080800D01*
X0103302Y0080800D01*
X0103611Y0081109D02*
X0109217Y0081109D01*
X0109497Y0081708D02*
X0104210Y0081708D01*
X0104808Y0082306D02*
X0110096Y0082306D01*
X0110954Y0082905D02*
X0105407Y0082905D01*
X0106005Y0083503D02*
X0116363Y0083503D01*
X0116363Y0084102D02*
X0106604Y0084102D01*
X0107202Y0084701D02*
X0116363Y0084701D01*
X0116363Y0085299D02*
X0107801Y0085299D01*
X0108399Y0085898D02*
X0111431Y0085898D01*
X0110293Y0086496D02*
X0108998Y0086496D01*
X0109596Y0087095D02*
X0109695Y0087095D01*
X0059467Y0109239D02*
X0054153Y0109239D01*
X0053554Y0109838D02*
X0059073Y0109838D01*
X0059073Y0110437D02*
X0056199Y0110437D01*
X0056797Y0111035D02*
X0059073Y0111035D01*
X0059341Y0111634D02*
X0057396Y0111634D01*
X0057994Y0112232D02*
X0059475Y0112232D01*
X0059073Y0112831D02*
X0058593Y0112831D01*
X0054308Y0110437D02*
X0052956Y0110437D01*
X0052357Y0111035D02*
X0053709Y0111035D01*
X0053111Y0111634D02*
X0051759Y0111634D01*
X0051160Y0112232D02*
X0052512Y0112232D01*
X0051914Y0112831D02*
X0050562Y0112831D01*
X0051315Y0113429D02*
X0044931Y0113429D01*
X0044553Y0112831D02*
X0049366Y0112831D01*
X0048767Y0112232D02*
X0045305Y0112232D01*
X0045893Y0111634D02*
X0048229Y0111634D01*
X0048229Y0111035D02*
X0046141Y0111035D01*
X0046389Y0110437D02*
X0048740Y0110437D01*
X0049338Y0109838D02*
X0046463Y0109838D01*
X0046463Y0109239D02*
X0049937Y0109239D01*
X0050535Y0108641D02*
X0046421Y0108641D01*
X0046173Y0108042D02*
X0051134Y0108042D01*
X0051732Y0107444D02*
X0045925Y0107444D01*
X0045383Y0106845D02*
X0052600Y0106845D01*
X0053199Y0106247D02*
X0044740Y0106247D01*
X0045530Y0114028D02*
X0050986Y0114028D01*
X0050388Y0114626D02*
X0046128Y0114626D01*
X0046727Y0115225D02*
X0049789Y0115225D01*
X0049191Y0115823D02*
X0047325Y0115823D01*
X0047924Y0116422D02*
X0048592Y0116422D01*
X0048463Y0123256D02*
X0048463Y0124962D01*
X0049202Y0125700D01*
X0049202Y0125700D01*
X0049963Y0126462D01*
X0049963Y0127462D01*
X0051202Y0128700D01*
X0053125Y0128700D01*
X0053363Y0128462D01*
X0053363Y0125700D01*
X0050791Y0125700D01*
X0050263Y0125173D01*
X0050263Y0123938D01*
X0049916Y0123591D01*
X0048798Y0123591D01*
X0048463Y0123256D01*
X0048463Y0123604D02*
X0049929Y0123604D01*
X0050263Y0124202D02*
X0048463Y0124202D01*
X0048463Y0124801D02*
X0050263Y0124801D01*
X0050490Y0125399D02*
X0048901Y0125399D01*
X0049500Y0125998D02*
X0053363Y0125998D01*
X0053363Y0126596D02*
X0049963Y0126596D01*
X0049963Y0127195D02*
X0053363Y0127195D01*
X0053363Y0127793D02*
X0050295Y0127793D01*
X0050894Y0128392D02*
X0053363Y0128392D01*
X0049125Y0134300D02*
X0046059Y0131233D01*
X0045885Y0131653D01*
X0044816Y0132721D01*
X0043419Y0133300D01*
X0038963Y0133300D01*
X0038963Y0135700D01*
X0043419Y0135700D01*
X0044816Y0136279D01*
X0045885Y0137347D01*
X0046463Y0138744D01*
X0046463Y0140256D01*
X0045885Y0141653D01*
X0044816Y0142721D01*
X0043419Y0143300D01*
X0038963Y0143300D01*
X0038963Y0145700D01*
X0043419Y0145700D01*
X0044816Y0146279D01*
X0045885Y0147347D01*
X0046463Y0148744D01*
X0046463Y0150256D01*
X0045885Y0151653D01*
X0044816Y0152721D01*
X0043419Y0153300D01*
X0038963Y0153300D01*
X0038963Y0155700D01*
X0043419Y0155700D01*
X0044816Y0156279D01*
X0045885Y0157347D01*
X0046463Y0158744D01*
X0046463Y0160256D01*
X0045885Y0161653D01*
X0044816Y0162721D01*
X0043419Y0163300D01*
X0038963Y0163300D01*
X0038963Y0165700D01*
X0043419Y0165700D01*
X0044816Y0166279D01*
X0045885Y0167347D01*
X0046463Y0168744D01*
X0046463Y0170256D01*
X0045885Y0171653D01*
X0044816Y0172721D01*
X0043419Y0173300D01*
X0038963Y0173300D01*
X0038963Y0185700D01*
X0043419Y0185700D01*
X0044816Y0186279D01*
X0045885Y0187347D01*
X0046463Y0188744D01*
X0046463Y0190256D01*
X0045885Y0191653D01*
X0044816Y0192721D01*
X0043419Y0193300D01*
X0038963Y0193300D01*
X0038963Y0203200D01*
X0091241Y0203200D01*
X0090763Y0202723D01*
X0090763Y0196350D01*
X0086041Y0196350D01*
X0085513Y0195823D01*
X0085513Y0193700D01*
X0084166Y0193700D01*
X0083463Y0192997D01*
X0083463Y0190334D01*
X0083460Y0190330D01*
X0083463Y0190293D01*
X0083463Y0190183D01*
X0083459Y0190138D01*
X0083463Y0190133D01*
X0083463Y0189497D01*
X0082463Y0188497D01*
X0082016Y0188050D01*
X0082016Y0189627D01*
X0079893Y0191750D01*
X0080586Y0191750D01*
X0081113Y0192277D01*
X0081113Y0195823D01*
X0080586Y0196350D01*
X0075741Y0196350D01*
X0075413Y0196023D01*
X0075086Y0196350D01*
X0070363Y0196350D01*
X0070363Y0199097D01*
X0069661Y0199800D01*
X0066461Y0203000D01*
X0049466Y0203000D01*
X0048763Y0202297D01*
X0047963Y0201497D01*
X0047963Y0194703D01*
X0048666Y0194000D01*
X0049466Y0193200D01*
X0061766Y0193200D01*
X0064166Y0190800D01*
X0049466Y0190800D01*
X0048763Y0190097D01*
X0047963Y0189297D01*
X0047963Y0182403D01*
X0048666Y0181700D01*
X0049366Y0181000D01*
X0057366Y0181000D01*
X0057863Y0180503D01*
X0057863Y0171103D01*
X0058125Y0170841D01*
X0057663Y0170380D01*
X0057663Y0165420D01*
X0057993Y0165091D01*
X0057898Y0165091D01*
X0056673Y0163866D01*
X0056673Y0162134D01*
X0056863Y0161944D01*
X0056863Y0158156D01*
X0056673Y0157966D01*
X0056673Y0156234D01*
X0057898Y0155009D01*
X0059629Y0155009D01*
X0060155Y0155535D01*
X0060591Y0155100D01*
X0062125Y0155100D01*
X0062325Y0154900D01*
X0060591Y0154900D01*
X0060063Y0154373D01*
X0060063Y0151827D01*
X0060176Y0151715D01*
X0058887Y0151715D01*
X0058202Y0152400D01*
X0057763Y0152838D01*
X0057763Y0154373D01*
X0057236Y0154900D01*
X0054091Y0154900D01*
X0053913Y0154723D01*
X0053736Y0154900D01*
X0050591Y0154900D01*
X0050063Y0154373D01*
X0050063Y0151827D01*
X0050176Y0151715D01*
X0049543Y0151715D01*
X0049015Y0151188D01*
X0049015Y0147293D01*
X0049304Y0147004D01*
X0049304Y0146021D01*
X0050066Y0145259D01*
X0051596Y0143729D01*
X0051574Y0143707D01*
X0051574Y0139812D01*
X0051863Y0139523D01*
X0051863Y0135962D01*
X0052625Y0135200D01*
X0053525Y0134300D01*
X0049125Y0134300D01*
X0048603Y0133778D02*
X0038963Y0133778D01*
X0038963Y0134377D02*
X0053448Y0134377D01*
X0052850Y0134975D02*
X0038963Y0134975D01*
X0038963Y0135574D02*
X0052251Y0135574D01*
X0051863Y0136172D02*
X0044560Y0136172D01*
X0045308Y0136771D02*
X0051863Y0136771D01*
X0051863Y0137370D02*
X0045894Y0137370D01*
X0046142Y0137968D02*
X0051863Y0137968D01*
X0051863Y0138567D02*
X0046390Y0138567D01*
X0046463Y0139165D02*
X0051863Y0139165D01*
X0051623Y0139764D02*
X0046463Y0139764D01*
X0046419Y0140362D02*
X0051574Y0140362D01*
X0051574Y0140961D02*
X0046172Y0140961D01*
X0045924Y0141559D02*
X0051574Y0141559D01*
X0051574Y0142158D02*
X0045380Y0142158D01*
X0044732Y0142756D02*
X0051574Y0142756D01*
X0051574Y0143355D02*
X0038963Y0143355D01*
X0038963Y0143953D02*
X0051372Y0143953D01*
X0050773Y0144552D02*
X0038963Y0144552D01*
X0038963Y0145150D02*
X0050175Y0145150D01*
X0049576Y0145749D02*
X0043537Y0145749D01*
X0044885Y0146347D02*
X0049304Y0146347D01*
X0049304Y0146946D02*
X0045483Y0146946D01*
X0045966Y0147544D02*
X0049015Y0147544D01*
X0049015Y0148143D02*
X0046214Y0148143D01*
X0046462Y0148741D02*
X0049015Y0148741D01*
X0049015Y0149340D02*
X0046463Y0149340D01*
X0046463Y0149938D02*
X0049015Y0149938D01*
X0049015Y0150537D02*
X0046347Y0150537D01*
X0046099Y0151135D02*
X0049015Y0151135D01*
X0050157Y0151734D02*
X0045804Y0151734D01*
X0045205Y0152332D02*
X0050063Y0152332D01*
X0050063Y0152931D02*
X0044311Y0152931D01*
X0043959Y0155923D02*
X0056984Y0155923D01*
X0056673Y0156522D02*
X0045059Y0156522D01*
X0045658Y0157120D02*
X0056673Y0157120D01*
X0056673Y0157719D02*
X0046039Y0157719D01*
X0046287Y0158317D02*
X0049590Y0158317D01*
X0049998Y0157909D02*
X0051729Y0157909D01*
X0052954Y0159134D01*
X0052954Y0160866D01*
X0052520Y0161300D01*
X0052954Y0161734D01*
X0052954Y0163466D01*
X0051729Y0164691D01*
X0049998Y0164691D01*
X0048773Y0163466D01*
X0048773Y0161734D01*
X0049207Y0161300D01*
X0048773Y0160866D01*
X0048773Y0159134D01*
X0049998Y0157909D01*
X0048991Y0158916D02*
X0046463Y0158916D01*
X0046463Y0159514D02*
X0048773Y0159514D01*
X0048773Y0160113D02*
X0046463Y0160113D01*
X0046275Y0160711D02*
X0048773Y0160711D01*
X0049197Y0161310D02*
X0046027Y0161310D01*
X0045629Y0161908D02*
X0048773Y0161908D01*
X0048773Y0162507D02*
X0045030Y0162507D01*
X0043889Y0163105D02*
X0048773Y0163105D01*
X0049011Y0163704D02*
X0038963Y0163704D01*
X0038963Y0164303D02*
X0049610Y0164303D01*
X0052117Y0164303D02*
X0057110Y0164303D01*
X0056673Y0163704D02*
X0052716Y0163704D01*
X0052954Y0163105D02*
X0056673Y0163105D01*
X0056673Y0162507D02*
X0052954Y0162507D01*
X0052954Y0161908D02*
X0056863Y0161908D01*
X0056863Y0161310D02*
X0052530Y0161310D01*
X0052954Y0160711D02*
X0056863Y0160711D01*
X0056863Y0160113D02*
X0052954Y0160113D01*
X0052954Y0159514D02*
X0056863Y0159514D01*
X0056863Y0158916D02*
X0052736Y0158916D01*
X0052137Y0158317D02*
X0056863Y0158317D01*
X0057582Y0155325D02*
X0038963Y0155325D01*
X0038963Y0154726D02*
X0050417Y0154726D01*
X0050063Y0154128D02*
X0038963Y0154128D01*
X0038963Y0153529D02*
X0050063Y0153529D01*
X0053910Y0154726D02*
X0053917Y0154726D01*
X0057410Y0154726D02*
X0060417Y0154726D01*
X0060366Y0155325D02*
X0059945Y0155325D01*
X0060063Y0154128D02*
X0057763Y0154128D01*
X0057763Y0153529D02*
X0060063Y0153529D01*
X0060063Y0152931D02*
X0057763Y0152931D01*
X0058270Y0152332D02*
X0060063Y0152332D01*
X0060157Y0151734D02*
X0058868Y0151734D01*
X0070302Y0145700D02*
X0071611Y0147009D01*
X0072729Y0147009D01*
X0073954Y0148234D01*
X0073954Y0149609D01*
X0074729Y0149609D01*
X0075954Y0150834D01*
X0075954Y0151953D01*
X0076498Y0151409D01*
X0077616Y0151409D01*
X0078001Y0151024D01*
X0078001Y0149607D01*
X0078008Y0149601D01*
X0078008Y0149156D01*
X0076940Y0149156D01*
X0076413Y0148629D01*
X0076413Y0147096D01*
X0076940Y0146569D01*
X0079573Y0146569D01*
X0079573Y0145434D01*
X0080798Y0144209D01*
X0081616Y0144209D01*
X0081651Y0144174D01*
X0082412Y0143413D01*
X0086063Y0143413D01*
X0086063Y0143127D01*
X0086591Y0142600D01*
X0089736Y0142600D01*
X0090263Y0143127D01*
X0090263Y0145673D01*
X0089936Y0146000D01*
X0090263Y0146327D01*
X0090263Y0147762D01*
X0090413Y0147911D01*
X0090413Y0147096D01*
X0090940Y0146569D01*
X0093776Y0146569D01*
X0093573Y0146366D01*
X0093573Y0144634D01*
X0093776Y0144431D01*
X0090940Y0144431D01*
X0090413Y0143904D01*
X0090413Y0142371D01*
X0090940Y0141844D01*
X0092008Y0141844D01*
X0092008Y0139300D01*
X0085620Y0139300D01*
X0085329Y0139591D01*
X0083763Y0139591D01*
X0083763Y0141380D01*
X0083745Y0141399D01*
X0083745Y0142507D01*
X0083217Y0143034D01*
X0081684Y0143034D01*
X0081663Y0143013D01*
X0081643Y0143034D01*
X0080772Y0143034D01*
X0080772Y0143904D01*
X0080245Y0144431D01*
X0076940Y0144431D01*
X0076413Y0143904D01*
X0076413Y0142400D01*
X0073691Y0142400D01*
X0073591Y0142300D01*
X0073436Y0142300D01*
X0073336Y0142400D01*
X0070191Y0142400D01*
X0070013Y0142223D01*
X0069836Y0142400D01*
X0066691Y0142400D01*
X0066311Y0142021D01*
X0066311Y0143707D01*
X0066010Y0144008D01*
X0067702Y0145700D01*
X0070302Y0145700D01*
X0070351Y0145749D02*
X0079573Y0145749D01*
X0079573Y0146347D02*
X0070949Y0146347D01*
X0071548Y0146946D02*
X0076563Y0146946D01*
X0076413Y0147544D02*
X0073264Y0147544D01*
X0073863Y0148143D02*
X0076413Y0148143D01*
X0076526Y0148741D02*
X0073954Y0148741D01*
X0073954Y0149340D02*
X0078008Y0149340D01*
X0078001Y0149938D02*
X0075058Y0149938D01*
X0075657Y0150537D02*
X0078001Y0150537D01*
X0077890Y0151135D02*
X0075954Y0151135D01*
X0075954Y0151734D02*
X0076173Y0151734D01*
X0085326Y0151734D02*
X0089363Y0151734D01*
X0089363Y0152332D02*
X0085634Y0152332D01*
X0085663Y0152362D02*
X0085663Y0154562D01*
X0086302Y0155200D01*
X0089202Y0155200D01*
X0089363Y0155362D01*
X0089363Y0154662D01*
X0089363Y0150538D01*
X0088225Y0149400D01*
X0086591Y0149400D01*
X0086347Y0149156D01*
X0085326Y0149156D01*
X0085326Y0152024D01*
X0085663Y0152362D01*
X0085663Y0152931D02*
X0089363Y0152931D01*
X0089363Y0153529D02*
X0085663Y0153529D01*
X0085663Y0154128D02*
X0089363Y0154128D01*
X0089363Y0154726D02*
X0085828Y0154726D01*
X0089327Y0155325D02*
X0089363Y0155325D01*
X0082173Y0157391D02*
X0081298Y0157391D01*
X0081013Y0157106D01*
X0080029Y0158091D01*
X0079454Y0158091D01*
X0079454Y0159266D01*
X0078229Y0160491D01*
X0076498Y0160491D01*
X0075813Y0159806D01*
X0075229Y0160391D01*
X0073498Y0160391D01*
X0072807Y0159700D01*
X0071743Y0159700D01*
X0070763Y0160680D01*
X0070763Y0162373D01*
X0070236Y0162900D01*
X0068602Y0162900D01*
X0068802Y0163100D01*
X0070236Y0163100D01*
X0070413Y0163277D01*
X0070591Y0163100D01*
X0073736Y0163100D01*
X0073913Y0163277D01*
X0074091Y0163100D01*
X0077236Y0163100D01*
X0077413Y0163277D01*
X0077591Y0163100D01*
X0080736Y0163100D01*
X0080913Y0163277D01*
X0081091Y0163100D01*
X0084236Y0163100D01*
X0084413Y0163277D01*
X0084591Y0163100D01*
X0087736Y0163100D01*
X0087913Y0163277D01*
X0088091Y0163100D01*
X0090863Y0163100D01*
X0090863Y0162900D01*
X0088091Y0162900D01*
X0087991Y0162800D01*
X0087836Y0162800D01*
X0087736Y0162900D01*
X0084591Y0162900D01*
X0084491Y0162800D01*
X0084336Y0162800D01*
X0084236Y0162900D01*
X0081091Y0162900D01*
X0080563Y0162373D01*
X0080563Y0159827D01*
X0081091Y0159300D01*
X0082407Y0159300D01*
X0082173Y0159066D01*
X0082173Y0157391D01*
X0082173Y0157719D02*
X0080401Y0157719D01*
X0081000Y0157120D02*
X0081027Y0157120D01*
X0082173Y0158317D02*
X0079454Y0158317D01*
X0079454Y0158916D02*
X0082173Y0158916D01*
X0080876Y0159514D02*
X0079206Y0159514D01*
X0078607Y0160113D02*
X0080563Y0160113D01*
X0080563Y0160711D02*
X0070763Y0160711D01*
X0070763Y0161310D02*
X0080563Y0161310D01*
X0080563Y0161908D02*
X0070763Y0161908D01*
X0070629Y0162507D02*
X0080698Y0162507D01*
X0080742Y0163105D02*
X0081085Y0163105D01*
X0084242Y0163105D02*
X0084585Y0163105D01*
X0087742Y0163105D02*
X0088085Y0163105D01*
X0091120Y0166700D02*
X0091254Y0166834D01*
X0091254Y0167900D01*
X0093536Y0167900D01*
X0094063Y0168427D01*
X0094063Y0171573D01*
X0093886Y0171750D01*
X0094063Y0171927D01*
X0094063Y0175073D01*
X0093886Y0175250D01*
X0094063Y0175427D01*
X0094063Y0178573D01*
X0093789Y0178848D01*
X0094295Y0179058D01*
X0095106Y0179868D01*
X0095163Y0180007D01*
X0095221Y0179868D01*
X0095989Y0179100D01*
X0094791Y0179100D01*
X0094263Y0178573D01*
X0094263Y0175427D01*
X0094441Y0175250D01*
X0094263Y0175073D01*
X0094263Y0171927D01*
X0094363Y0171827D01*
X0094363Y0171673D01*
X0094263Y0171573D01*
X0094263Y0168427D01*
X0094791Y0167900D01*
X0097336Y0167900D01*
X0097863Y0168427D01*
X0097863Y0171300D01*
X0101207Y0171300D01*
X0101598Y0170909D01*
X0103329Y0170909D01*
X0103863Y0171444D01*
X0103863Y0149400D01*
X0102302Y0149400D01*
X0101463Y0150238D01*
X0101463Y0152409D01*
X0102029Y0152409D01*
X0103254Y0153634D01*
X0103254Y0155366D01*
X0102029Y0156591D01*
X0100298Y0156591D01*
X0099963Y0156256D01*
X0099963Y0158538D01*
X0099202Y0159300D01*
X0097202Y0161300D01*
X0093463Y0161300D01*
X0093463Y0164538D01*
X0092702Y0165300D01*
X0091802Y0166200D01*
X0091736Y0166200D01*
X0091236Y0166700D01*
X0091120Y0166700D01*
X0091240Y0166697D02*
X0103863Y0166697D01*
X0103863Y0167295D02*
X0091254Y0167295D01*
X0091254Y0167894D02*
X0103863Y0167894D01*
X0103863Y0168492D02*
X0097863Y0168492D01*
X0097863Y0169091D02*
X0103863Y0169091D01*
X0103863Y0169689D02*
X0097863Y0169689D01*
X0097863Y0170288D02*
X0103863Y0170288D01*
X0103863Y0170886D02*
X0097863Y0170886D01*
X0094263Y0170886D02*
X0094063Y0170886D01*
X0094063Y0170288D02*
X0094263Y0170288D01*
X0094263Y0169689D02*
X0094063Y0169689D01*
X0094063Y0169091D02*
X0094263Y0169091D01*
X0094263Y0168492D02*
X0094063Y0168492D01*
X0094063Y0171485D02*
X0094263Y0171485D01*
X0094263Y0172083D02*
X0094063Y0172083D01*
X0094063Y0172682D02*
X0094263Y0172682D01*
X0094263Y0173280D02*
X0094063Y0173280D01*
X0094063Y0173879D02*
X0094263Y0173879D01*
X0094263Y0174477D02*
X0094063Y0174477D01*
X0094061Y0175076D02*
X0094266Y0175076D01*
X0094263Y0175674D02*
X0094063Y0175674D01*
X0094063Y0176273D02*
X0094263Y0176273D01*
X0094263Y0176871D02*
X0094063Y0176871D01*
X0094063Y0177470D02*
X0094263Y0177470D01*
X0094263Y0178068D02*
X0094063Y0178068D01*
X0093969Y0178667D02*
X0094357Y0178667D01*
X0094503Y0179265D02*
X0095824Y0179265D01*
X0095225Y0179864D02*
X0095102Y0179864D01*
X0090717Y0184053D02*
X0082163Y0184053D01*
X0082163Y0183715D02*
X0082163Y0186500D01*
X0084075Y0188411D01*
X0084264Y0188180D01*
X0084268Y0188146D01*
X0084341Y0188087D01*
X0084400Y0188014D01*
X0084434Y0188010D01*
X0084708Y0187786D01*
X0084718Y0187754D01*
X0084801Y0187710D01*
X0084874Y0187650D01*
X0084908Y0187654D01*
X0085221Y0187489D01*
X0085237Y0187459D01*
X0085327Y0187433D01*
X0085411Y0187389D01*
X0085443Y0187399D01*
X0085782Y0187299D01*
X0085804Y0187273D01*
X0085898Y0187265D01*
X0085988Y0187239D01*
X0086018Y0187255D01*
X0086370Y0187225D01*
X0086396Y0187204D01*
X0086490Y0187214D01*
X0086585Y0187206D01*
X0086610Y0187228D01*
X0086956Y0187266D01*
X0086985Y0187251D01*
X0087076Y0187280D01*
X0087170Y0187290D01*
X0087191Y0187316D01*
X0087522Y0187419D01*
X0087553Y0187410D01*
X0087637Y0187455D01*
X0087728Y0187484D01*
X0087743Y0187513D01*
X0088048Y0187678D01*
X0088081Y0187675D01*
X0088155Y0187736D01*
X0088238Y0187781D01*
X0088248Y0187812D01*
X0088516Y0188033D01*
X0088548Y0188036D01*
X0088609Y0188110D01*
X0088682Y0188170D01*
X0088685Y0188203D01*
X0088906Y0188471D01*
X0088937Y0188480D01*
X0088983Y0188564D01*
X0089043Y0188638D01*
X0089040Y0188670D01*
X0089206Y0188975D01*
X0089235Y0188991D01*
X0089263Y0189082D01*
X0089308Y0189165D01*
X0089299Y0189197D01*
X0089403Y0189528D01*
X0089428Y0189548D01*
X0089439Y0189643D01*
X0089468Y0189734D01*
X0089452Y0189763D01*
X0089491Y0190108D01*
X0089512Y0190134D01*
X0089504Y0190228D01*
X0089515Y0190323D01*
X0089494Y0190348D01*
X0089465Y0190695D01*
X0089481Y0190724D01*
X0089455Y0190815D01*
X0089447Y0190909D01*
X0089421Y0190931D01*
X0089324Y0191265D01*
X0089334Y0191297D01*
X0089290Y0191381D01*
X0089264Y0191472D01*
X0089234Y0191488D01*
X0089073Y0191797D01*
X0089077Y0191830D01*
X0089018Y0191904D01*
X0088974Y0191987D01*
X0088942Y0191997D01*
X0088723Y0192269D01*
X0088720Y0192302D01*
X0088647Y0192362D01*
X0088588Y0192436D01*
X0088555Y0192439D01*
X0088287Y0192662D01*
X0088277Y0192694D01*
X0088194Y0192739D01*
X0088122Y0192800D01*
X0088088Y0192796D01*
X0087782Y0192962D01*
X0087766Y0192992D01*
X0087676Y0193019D01*
X0087593Y0193064D01*
X0087560Y0193055D01*
X0087227Y0193157D01*
X0087206Y0193183D01*
X0087163Y0193187D01*
X0087163Y0195000D01*
X0101163Y0195000D01*
X0101163Y0193184D01*
X0101158Y0193183D01*
X0101137Y0193157D01*
X0100801Y0193056D01*
X0100769Y0193065D01*
X0100686Y0193021D01*
X0100595Y0192993D01*
X0100579Y0192964D01*
X0100270Y0192798D01*
X0100237Y0192802D01*
X0100164Y0192742D01*
X0100080Y0192697D01*
X0100071Y0192665D01*
X0099800Y0192443D01*
X0099767Y0192440D01*
X0099707Y0192366D01*
X0099633Y0192306D01*
X0099630Y0192273D01*
X0099408Y0192002D01*
X0099376Y0191993D01*
X0099331Y0191909D01*
X0099271Y0191836D01*
X0099274Y0191803D01*
X0099109Y0191494D01*
X0099080Y0191478D01*
X0099052Y0191387D01*
X0099008Y0191304D01*
X0099017Y0191272D01*
X0098916Y0190936D01*
X0098890Y0190915D01*
X0098881Y0190821D01*
X0098853Y0190730D01*
X0098869Y0190701D01*
X0098835Y0190354D01*
X0098815Y0190330D01*
X0098821Y0190250D01*
X0093791Y0190250D01*
X0093263Y0189723D01*
X0093263Y0186500D01*
X0093163Y0186500D01*
X0089563Y0182900D01*
X0087584Y0182900D01*
X0086684Y0182000D01*
X0083878Y0182000D01*
X0083878Y0183188D01*
X0083663Y0183403D01*
X0083663Y0183500D01*
X0083566Y0183500D01*
X0083351Y0183715D01*
X0082163Y0183715D01*
X0082163Y0184652D02*
X0091315Y0184652D01*
X0091914Y0185250D02*
X0082163Y0185250D01*
X0082163Y0185849D02*
X0092512Y0185849D01*
X0093111Y0186447D02*
X0082163Y0186447D01*
X0082709Y0187046D02*
X0093263Y0187046D01*
X0093263Y0187644D02*
X0087986Y0187644D01*
X0088718Y0188243D02*
X0093263Y0188243D01*
X0093263Y0188841D02*
X0089133Y0188841D01*
X0089375Y0189440D02*
X0093263Y0189440D01*
X0093579Y0190039D02*
X0089483Y0190039D01*
X0089470Y0190637D02*
X0098863Y0190637D01*
X0099006Y0191236D02*
X0089332Y0191236D01*
X0089074Y0191834D02*
X0099271Y0191834D01*
X0099761Y0192433D02*
X0088591Y0192433D01*
X0087654Y0193031D02*
X0100705Y0193031D01*
X0101163Y0193630D02*
X0087163Y0193630D01*
X0087163Y0194228D02*
X0101163Y0194228D01*
X0101163Y0194827D02*
X0087163Y0194827D01*
X0085513Y0194827D02*
X0081113Y0194827D01*
X0081113Y0195425D02*
X0085513Y0195425D01*
X0085714Y0196024D02*
X0080913Y0196024D01*
X0081113Y0194228D02*
X0085513Y0194228D01*
X0084096Y0193630D02*
X0081113Y0193630D01*
X0081113Y0193031D02*
X0083497Y0193031D01*
X0083463Y0192433D02*
X0081113Y0192433D01*
X0080670Y0191834D02*
X0083463Y0191834D01*
X0083463Y0191236D02*
X0080408Y0191236D01*
X0081006Y0190637D02*
X0083463Y0190637D01*
X0083463Y0190039D02*
X0081605Y0190039D01*
X0082016Y0189440D02*
X0083406Y0189440D01*
X0082808Y0188841D02*
X0082016Y0188841D01*
X0082016Y0188243D02*
X0082209Y0188243D01*
X0083308Y0187644D02*
X0084925Y0187644D01*
X0084213Y0188243D02*
X0083906Y0188243D01*
X0083663Y0183455D02*
X0090118Y0183455D01*
X0087540Y0182856D02*
X0083878Y0182856D01*
X0083878Y0182258D02*
X0086941Y0182258D01*
X0082889Y0181077D02*
X0082866Y0181054D01*
X0082866Y0179852D01*
X0083249Y0179469D01*
X0082866Y0179085D01*
X0082866Y0177883D01*
X0083249Y0177500D01*
X0082866Y0177117D01*
X0082866Y0175915D01*
X0083249Y0175531D01*
X0082866Y0175148D01*
X0082866Y0173946D01*
X0083249Y0173563D01*
X0082866Y0173180D01*
X0082866Y0172298D01*
X0081984Y0172298D01*
X0081600Y0171914D01*
X0081217Y0172298D01*
X0080015Y0172298D01*
X0079632Y0171914D01*
X0079249Y0172298D01*
X0078047Y0172298D01*
X0077663Y0171914D01*
X0077280Y0172298D01*
X0076078Y0172298D01*
X0075695Y0171914D01*
X0075312Y0172298D01*
X0074110Y0172298D01*
X0073726Y0171914D01*
X0073343Y0172298D01*
X0072663Y0172298D01*
X0072663Y0175180D01*
X0072661Y0175182D01*
X0072661Y0175231D01*
X0072219Y0175673D01*
X0072461Y0175915D01*
X0072461Y0176001D01*
X0072463Y0176003D01*
X0072463Y0179097D01*
X0071761Y0179800D01*
X0071746Y0179800D01*
X0071611Y0179935D01*
X0068165Y0179935D01*
X0068029Y0179800D01*
X0067661Y0179800D01*
X0066863Y0180597D01*
X0066863Y0182803D01*
X0066966Y0182700D01*
X0075261Y0182700D01*
X0075263Y0182702D01*
X0075312Y0182702D01*
X0075695Y0183086D01*
X0076078Y0182702D01*
X0077280Y0182702D01*
X0077663Y0183086D01*
X0078047Y0182702D01*
X0079249Y0182702D01*
X0079632Y0183086D01*
X0080015Y0182702D01*
X0081217Y0182702D01*
X0081241Y0182726D01*
X0081666Y0182300D01*
X0082463Y0182300D01*
X0082463Y0181503D01*
X0082889Y0181077D01*
X0082873Y0181061D02*
X0066863Y0181061D01*
X0066863Y0181659D02*
X0082463Y0181659D01*
X0082463Y0182258D02*
X0066863Y0182258D01*
X0065663Y0182258D02*
X0049806Y0182258D01*
X0049863Y0182200D02*
X0049163Y0182900D01*
X0049163Y0188800D01*
X0049963Y0189600D01*
X0065363Y0189600D01*
X0065663Y0189300D01*
X0065663Y0180100D01*
X0067163Y0178600D01*
X0071263Y0178600D01*
X0071263Y0176500D01*
X0067163Y0176500D01*
X0064054Y0173391D01*
X0064015Y0173391D01*
X0062673Y0172049D01*
X0062673Y0172009D01*
X0062263Y0171600D01*
X0059063Y0171600D01*
X0059063Y0181000D01*
X0057863Y0182200D01*
X0049863Y0182200D01*
X0049207Y0182856D02*
X0065663Y0182856D01*
X0065663Y0183455D02*
X0049163Y0183455D01*
X0049163Y0184053D02*
X0065663Y0184053D01*
X0065663Y0184652D02*
X0049163Y0184652D01*
X0049163Y0185250D02*
X0065663Y0185250D01*
X0065663Y0185849D02*
X0049163Y0185849D01*
X0049163Y0186447D02*
X0065663Y0186447D01*
X0065663Y0187046D02*
X0049163Y0187046D01*
X0049163Y0187644D02*
X0065663Y0187644D01*
X0065663Y0188243D02*
X0049163Y0188243D01*
X0049205Y0188841D02*
X0065663Y0188841D01*
X0065523Y0189440D02*
X0049803Y0189440D01*
X0048705Y0190039D02*
X0046463Y0190039D01*
X0046463Y0189440D02*
X0048106Y0189440D01*
X0047963Y0188841D02*
X0046463Y0188841D01*
X0046256Y0188243D02*
X0047963Y0188243D01*
X0047963Y0187644D02*
X0046008Y0187644D01*
X0045583Y0187046D02*
X0047963Y0187046D01*
X0047963Y0186447D02*
X0044985Y0186447D01*
X0043779Y0185849D02*
X0047963Y0185849D01*
X0047963Y0185250D02*
X0038963Y0185250D01*
X0038963Y0184652D02*
X0047963Y0184652D01*
X0047963Y0184053D02*
X0038963Y0184053D01*
X0038963Y0183455D02*
X0047963Y0183455D01*
X0047963Y0182856D02*
X0038963Y0182856D01*
X0038963Y0182258D02*
X0048109Y0182258D01*
X0048707Y0181659D02*
X0038963Y0181659D01*
X0038963Y0181061D02*
X0049306Y0181061D01*
X0057863Y0180462D02*
X0038963Y0180462D01*
X0038963Y0179864D02*
X0057863Y0179864D01*
X0057863Y0179265D02*
X0038963Y0179265D01*
X0038963Y0178667D02*
X0057863Y0178667D01*
X0057863Y0178068D02*
X0038963Y0178068D01*
X0038963Y0177470D02*
X0057863Y0177470D01*
X0057863Y0176871D02*
X0038963Y0176871D01*
X0038963Y0176273D02*
X0057863Y0176273D01*
X0057863Y0175674D02*
X0038963Y0175674D01*
X0038963Y0175076D02*
X0057863Y0175076D01*
X0057863Y0174477D02*
X0038963Y0174477D01*
X0038963Y0173879D02*
X0057863Y0173879D01*
X0057863Y0173280D02*
X0043467Y0173280D01*
X0044856Y0172682D02*
X0057863Y0172682D01*
X0057863Y0172083D02*
X0045454Y0172083D01*
X0045954Y0171485D02*
X0057863Y0171485D01*
X0058080Y0170886D02*
X0052234Y0170886D01*
X0052029Y0171091D02*
X0050298Y0171091D01*
X0049073Y0169866D01*
X0049073Y0168134D01*
X0050298Y0166909D01*
X0052029Y0166909D01*
X0053254Y0168134D01*
X0053254Y0169866D01*
X0052029Y0171091D01*
X0052832Y0170288D02*
X0057663Y0170288D01*
X0057663Y0169689D02*
X0053254Y0169689D01*
X0053254Y0169091D02*
X0057663Y0169091D01*
X0057663Y0168492D02*
X0053254Y0168492D01*
X0053014Y0167894D02*
X0057663Y0167894D01*
X0057663Y0167295D02*
X0052415Y0167295D01*
X0049912Y0167295D02*
X0045833Y0167295D01*
X0046111Y0167894D02*
X0049313Y0167894D01*
X0049073Y0168492D02*
X0046359Y0168492D01*
X0046463Y0169091D02*
X0049073Y0169091D01*
X0049073Y0169689D02*
X0046463Y0169689D01*
X0046450Y0170288D02*
X0049495Y0170288D01*
X0050093Y0170886D02*
X0046202Y0170886D01*
X0045234Y0166697D02*
X0057663Y0166697D01*
X0057663Y0166098D02*
X0044380Y0166098D01*
X0038963Y0165500D02*
X0057663Y0165500D01*
X0057708Y0164901D02*
X0038963Y0164901D01*
X0059063Y0166000D02*
X0059063Y0169800D01*
X0062663Y0169800D01*
X0067463Y0174600D01*
X0071249Y0174600D01*
X0071249Y0172600D01*
X0068063Y0172600D01*
X0066863Y0171400D01*
X0066863Y0169000D01*
X0066463Y0168600D01*
X0065363Y0168600D01*
X0063663Y0166900D01*
X0063508Y0166900D01*
X0062863Y0166256D01*
X0062863Y0166100D01*
X0062763Y0166000D01*
X0059063Y0166000D01*
X0059063Y0166098D02*
X0062862Y0166098D01*
X0063304Y0166697D02*
X0059063Y0166697D01*
X0059063Y0167295D02*
X0064059Y0167295D01*
X0064657Y0167894D02*
X0059063Y0167894D01*
X0059063Y0168492D02*
X0065256Y0168492D01*
X0066863Y0169091D02*
X0059063Y0169091D01*
X0059063Y0169689D02*
X0066863Y0169689D01*
X0066863Y0170288D02*
X0063151Y0170288D01*
X0063750Y0170886D02*
X0066863Y0170886D01*
X0066948Y0171485D02*
X0064348Y0171485D01*
X0064947Y0172083D02*
X0067547Y0172083D01*
X0068371Y0170928D02*
X0071291Y0170928D01*
X0071291Y0169107D01*
X0070584Y0168400D01*
X0068243Y0168400D01*
X0068263Y0168420D01*
X0068263Y0168561D01*
X0068354Y0168651D01*
X0068354Y0170549D01*
X0068263Y0170639D01*
X0068263Y0170820D01*
X0068371Y0170928D01*
X0068330Y0170886D02*
X0071291Y0170886D01*
X0071291Y0170288D02*
X0068354Y0170288D01*
X0068354Y0169689D02*
X0071291Y0169689D01*
X0071274Y0169091D02*
X0068354Y0169091D01*
X0068263Y0168492D02*
X0070676Y0168492D01*
X0071249Y0172682D02*
X0065545Y0172682D01*
X0066144Y0173280D02*
X0071249Y0173280D01*
X0071249Y0173879D02*
X0066742Y0173879D01*
X0067341Y0174477D02*
X0071249Y0174477D01*
X0072663Y0174477D02*
X0082866Y0174477D01*
X0082866Y0175076D02*
X0072663Y0175076D01*
X0072221Y0175674D02*
X0083106Y0175674D01*
X0082866Y0176273D02*
X0072463Y0176273D01*
X0072463Y0176871D02*
X0082866Y0176871D01*
X0083219Y0177470D02*
X0072463Y0177470D01*
X0072463Y0178068D02*
X0082866Y0178068D01*
X0082866Y0178667D02*
X0072463Y0178667D01*
X0072295Y0179265D02*
X0083046Y0179265D01*
X0082866Y0179864D02*
X0071683Y0179864D01*
X0071263Y0178068D02*
X0059063Y0178068D01*
X0059063Y0177470D02*
X0071263Y0177470D01*
X0071263Y0176871D02*
X0059063Y0176871D01*
X0059063Y0176273D02*
X0066936Y0176273D01*
X0066338Y0175674D02*
X0059063Y0175674D01*
X0059063Y0175076D02*
X0065739Y0175076D01*
X0065141Y0174477D02*
X0059063Y0174477D01*
X0059063Y0173879D02*
X0064542Y0173879D01*
X0063904Y0173280D02*
X0059063Y0173280D01*
X0059063Y0172682D02*
X0063306Y0172682D01*
X0062707Y0172083D02*
X0059063Y0172083D01*
X0059063Y0178667D02*
X0067097Y0178667D01*
X0066498Y0179265D02*
X0059063Y0179265D01*
X0059063Y0179864D02*
X0065900Y0179864D01*
X0065663Y0180462D02*
X0059063Y0180462D01*
X0059003Y0181061D02*
X0065663Y0181061D01*
X0065663Y0181659D02*
X0058404Y0181659D01*
X0066998Y0180462D02*
X0082866Y0180462D01*
X0079861Y0182856D02*
X0079403Y0182856D01*
X0077893Y0182856D02*
X0077434Y0182856D01*
X0075924Y0182856D02*
X0075466Y0182856D01*
X0074763Y0183900D02*
X0067463Y0183900D01*
X0066963Y0184400D01*
X0066963Y0189700D01*
X0062263Y0194400D01*
X0049963Y0194400D01*
X0049163Y0195200D01*
X0049163Y0201000D01*
X0049963Y0201800D01*
X0065963Y0201800D01*
X0069163Y0198600D01*
X0069163Y0195400D01*
X0066591Y0195400D01*
X0066063Y0194873D01*
X0066063Y0192327D01*
X0066591Y0191800D01*
X0067760Y0191800D01*
X0067760Y0188924D01*
X0069884Y0186800D01*
X0070663Y0186800D01*
X0070763Y0186700D01*
X0074763Y0186700D01*
X0074763Y0183900D01*
X0074763Y0184053D02*
X0067310Y0184053D01*
X0066963Y0184652D02*
X0074763Y0184652D01*
X0074763Y0185250D02*
X0066963Y0185250D01*
X0066963Y0185849D02*
X0074763Y0185849D01*
X0074763Y0186447D02*
X0066963Y0186447D01*
X0066963Y0187046D02*
X0069638Y0187046D01*
X0069039Y0187644D02*
X0066963Y0187644D01*
X0066963Y0188243D02*
X0068441Y0188243D01*
X0067842Y0188841D02*
X0066963Y0188841D01*
X0066963Y0189440D02*
X0067760Y0189440D01*
X0067760Y0190039D02*
X0066625Y0190039D01*
X0066026Y0190637D02*
X0067760Y0190637D01*
X0067760Y0191236D02*
X0065428Y0191236D01*
X0064829Y0191834D02*
X0066557Y0191834D01*
X0066063Y0192433D02*
X0064231Y0192433D01*
X0063632Y0193031D02*
X0066063Y0193031D01*
X0066063Y0193630D02*
X0063034Y0193630D01*
X0062435Y0194228D02*
X0066063Y0194228D01*
X0066063Y0194827D02*
X0049537Y0194827D01*
X0049163Y0195425D02*
X0069163Y0195425D01*
X0069163Y0196024D02*
X0049163Y0196024D01*
X0049163Y0196622D02*
X0069163Y0196622D01*
X0069163Y0197221D02*
X0049163Y0197221D01*
X0049163Y0197819D02*
X0069163Y0197819D01*
X0069163Y0198418D02*
X0049163Y0198418D01*
X0049163Y0199016D02*
X0068747Y0199016D01*
X0068149Y0199615D02*
X0049163Y0199615D01*
X0049163Y0200213D02*
X0067550Y0200213D01*
X0066952Y0200812D02*
X0049163Y0200812D01*
X0049574Y0201410D02*
X0066353Y0201410D01*
X0067452Y0202009D02*
X0090763Y0202009D01*
X0090763Y0202607D02*
X0066853Y0202607D01*
X0068050Y0201410D02*
X0090763Y0201410D01*
X0090763Y0200812D02*
X0068649Y0200812D01*
X0069247Y0200213D02*
X0090763Y0200213D01*
X0090763Y0199615D02*
X0069846Y0199615D01*
X0070363Y0199016D02*
X0090763Y0199016D01*
X0090763Y0198418D02*
X0070363Y0198418D01*
X0070363Y0197819D02*
X0090763Y0197819D01*
X0090763Y0197221D02*
X0070363Y0197221D01*
X0070363Y0196622D02*
X0090763Y0196622D01*
X0102563Y0196622D02*
X0110167Y0196622D01*
X0110511Y0196279D02*
X0111908Y0195700D01*
X0113419Y0195700D01*
X0114816Y0196279D01*
X0115885Y0197347D01*
X0116363Y0198503D01*
X0116363Y0193300D01*
X0111908Y0193300D01*
X0110511Y0192721D01*
X0109442Y0191653D01*
X0108863Y0190256D01*
X0108863Y0188744D01*
X0109442Y0187347D01*
X0110511Y0186279D01*
X0111908Y0185700D01*
X0116363Y0185700D01*
X0116363Y0183300D01*
X0111908Y0183300D01*
X0110511Y0182721D01*
X0109442Y0181653D01*
X0108863Y0180256D01*
X0108863Y0178744D01*
X0109442Y0177347D01*
X0110511Y0176279D01*
X0111908Y0175700D01*
X0116363Y0175700D01*
X0116363Y0173300D01*
X0111908Y0173300D01*
X0110511Y0172721D01*
X0109442Y0171653D01*
X0108863Y0170256D01*
X0108863Y0168744D01*
X0109442Y0167347D01*
X0110511Y0166279D01*
X0111908Y0165700D01*
X0116363Y0165700D01*
X0116363Y0153300D01*
X0111908Y0153300D01*
X0110511Y0152721D01*
X0109442Y0151653D01*
X0108863Y0150256D01*
X0108863Y0148744D01*
X0109442Y0147347D01*
X0110511Y0146279D01*
X0111908Y0145700D01*
X0116363Y0145700D01*
X0116363Y0143300D01*
X0111908Y0143300D01*
X0110511Y0142721D01*
X0109442Y0141653D01*
X0108863Y0140256D01*
X0108863Y0138744D01*
X0109442Y0137347D01*
X0110511Y0136279D01*
X0111908Y0135700D01*
X0116363Y0135700D01*
X0116363Y0133300D01*
X0111908Y0133300D01*
X0110511Y0132721D01*
X0109442Y0131653D01*
X0108863Y0130256D01*
X0108863Y0128744D01*
X0109442Y0127347D01*
X0110511Y0126279D01*
X0111908Y0125700D01*
X0116363Y0125700D01*
X0116363Y0123300D01*
X0111908Y0123300D01*
X0110511Y0122721D01*
X0109442Y0121653D01*
X0108863Y0120256D01*
X0108863Y0118744D01*
X0108924Y0118599D01*
X0107963Y0117638D01*
X0107963Y0120538D01*
X0106963Y0121538D01*
X0106963Y0122800D01*
X0107236Y0122800D01*
X0107763Y0123327D01*
X0107763Y0125873D01*
X0107236Y0126400D01*
X0104091Y0126400D01*
X0103913Y0126223D01*
X0103736Y0126400D01*
X0100963Y0126400D01*
X0100963Y0128962D01*
X0101202Y0129200D01*
X0105202Y0129200D01*
X0106802Y0130800D01*
X0107236Y0130800D01*
X0107763Y0131327D01*
X0107763Y0133873D01*
X0107236Y0134400D01*
X0104091Y0134400D01*
X0103913Y0134223D01*
X0103736Y0134400D01*
X0100591Y0134400D01*
X0100091Y0133900D01*
X0099754Y0133900D01*
X0099754Y0134366D01*
X0098529Y0135591D01*
X0096798Y0135591D01*
X0095573Y0134366D01*
X0095573Y0133047D01*
X0095229Y0133391D01*
X0093498Y0133391D01*
X0092613Y0132506D01*
X0091729Y0133391D01*
X0089998Y0133391D01*
X0089463Y0132856D01*
X0089463Y0134462D01*
X0090202Y0135200D01*
X0094702Y0135200D01*
X0095463Y0135962D01*
X0097751Y0138249D01*
X0097751Y0138675D01*
X0098792Y0138675D01*
X0099319Y0139202D01*
X0099319Y0140310D01*
X0099326Y0140316D01*
X0099326Y0141844D01*
X0100387Y0141844D01*
X0100914Y0142371D01*
X0100914Y0142777D01*
X0101091Y0142600D01*
X0103863Y0142600D01*
X0103863Y0140038D01*
X0103625Y0139800D01*
X0102125Y0139800D01*
X0101363Y0139038D01*
X0100863Y0138538D01*
X0100863Y0138200D01*
X0100591Y0138200D01*
X0100063Y0137673D01*
X0100063Y0135127D01*
X0100591Y0134600D01*
X0103736Y0134600D01*
X0103913Y0134777D01*
X0104091Y0134600D01*
X0107236Y0134600D01*
X0107763Y0135127D01*
X0107763Y0137673D01*
X0107719Y0137717D01*
X0107963Y0137962D01*
X0107963Y0178038D01*
X0103202Y0182800D01*
X0106161Y0182800D01*
X0106863Y0183503D01*
X0107863Y0184503D01*
X0107863Y0188497D01*
X0107161Y0189200D01*
X0106161Y0190200D01*
X0104861Y0190200D01*
X0104859Y0190228D01*
X0104869Y0190323D01*
X0104848Y0190348D01*
X0104819Y0190695D01*
X0104835Y0190724D01*
X0104809Y0190815D01*
X0104801Y0190909D01*
X0104775Y0190931D01*
X0104678Y0191265D01*
X0104688Y0191297D01*
X0104644Y0191381D01*
X0104618Y0191472D01*
X0104589Y0191488D01*
X0104428Y0191797D01*
X0104431Y0191830D01*
X0104372Y0191904D01*
X0104328Y0191987D01*
X0104296Y0191997D01*
X0104077Y0192269D01*
X0104074Y0192302D01*
X0104002Y0192362D01*
X0103942Y0192436D01*
X0103909Y0192439D01*
X0103641Y0192662D01*
X0103632Y0192694D01*
X0103549Y0192739D01*
X0103476Y0192800D01*
X0103443Y0192796D01*
X0103136Y0192962D01*
X0103120Y0192992D01*
X0103030Y0193019D01*
X0102947Y0193064D01*
X0102915Y0193055D01*
X0102582Y0193157D01*
X0102563Y0193179D01*
X0102563Y0202723D01*
X0102086Y0203200D01*
X0111666Y0203200D01*
X0110511Y0202721D01*
X0109442Y0201653D01*
X0108863Y0200256D01*
X0108863Y0198744D01*
X0109442Y0197347D01*
X0110511Y0196279D01*
X0111126Y0196024D02*
X0102563Y0196024D01*
X0102563Y0195425D02*
X0116363Y0195425D01*
X0116363Y0194827D02*
X0102563Y0194827D01*
X0102563Y0194228D02*
X0116363Y0194228D01*
X0116363Y0193630D02*
X0102563Y0193630D01*
X0103008Y0193031D02*
X0111258Y0193031D01*
X0110222Y0192433D02*
X0103945Y0192433D01*
X0104428Y0191834D02*
X0109624Y0191834D01*
X0109269Y0191236D02*
X0104687Y0191236D01*
X0104824Y0190637D02*
X0109021Y0190637D01*
X0108863Y0190039D02*
X0106322Y0190039D01*
X0106921Y0189440D02*
X0108863Y0189440D01*
X0108863Y0188841D02*
X0107519Y0188841D01*
X0107863Y0188243D02*
X0109071Y0188243D01*
X0109319Y0187644D02*
X0107863Y0187644D01*
X0107863Y0187046D02*
X0109744Y0187046D01*
X0110342Y0186447D02*
X0107863Y0186447D01*
X0107863Y0185849D02*
X0111548Y0185849D01*
X0110837Y0182856D02*
X0106217Y0182856D01*
X0106815Y0183455D02*
X0116363Y0183455D01*
X0116363Y0184053D02*
X0107414Y0184053D01*
X0107863Y0184652D02*
X0116363Y0184652D01*
X0116363Y0185250D02*
X0107863Y0185250D01*
X0106663Y0185250D02*
X0100913Y0185250D01*
X0101512Y0184652D02*
X0106315Y0184652D01*
X0106663Y0185000D02*
X0105663Y0184000D01*
X0102163Y0184000D01*
X0099663Y0186500D01*
X0094663Y0186500D01*
X0094663Y0189000D01*
X0099062Y0189000D01*
X0099067Y0188983D01*
X0099097Y0188967D01*
X0099262Y0188654D01*
X0099259Y0188620D01*
X0099318Y0188547D01*
X0099362Y0188464D01*
X0099395Y0188454D01*
X0099619Y0188180D01*
X0099622Y0188146D01*
X0099695Y0188087D01*
X0099755Y0188014D01*
X0099788Y0188010D01*
X0100062Y0187786D01*
X0100072Y0187754D01*
X0100155Y0187710D01*
X0100228Y0187650D01*
X0100262Y0187654D01*
X0100575Y0187489D01*
X0100591Y0187459D01*
X0100682Y0187433D01*
X0100765Y0187389D01*
X0100797Y0187399D01*
X0101137Y0187299D01*
X0101159Y0187273D01*
X0101252Y0187265D01*
X0101343Y0187239D01*
X0101372Y0187255D01*
X0101724Y0187225D01*
X0101750Y0187204D01*
X0101844Y0187214D01*
X0101939Y0187206D01*
X0101964Y0187228D01*
X0102310Y0187266D01*
X0102339Y0187251D01*
X0102430Y0187280D01*
X0102525Y0187290D01*
X0102545Y0187316D01*
X0102876Y0187419D01*
X0102908Y0187410D01*
X0102991Y0187455D01*
X0103082Y0187484D01*
X0103097Y0187513D01*
X0103403Y0187678D01*
X0103435Y0187675D01*
X0103509Y0187736D01*
X0103593Y0187781D01*
X0103602Y0187812D01*
X0103870Y0188033D01*
X0103902Y0188036D01*
X0103963Y0188110D01*
X0104037Y0188170D01*
X0104040Y0188203D01*
X0104261Y0188471D01*
X0104292Y0188480D01*
X0104337Y0188564D01*
X0104398Y0188638D01*
X0104395Y0188670D01*
X0104560Y0188975D01*
X0104589Y0188991D01*
X0104592Y0189000D01*
X0105663Y0189000D01*
X0106663Y0188000D01*
X0106663Y0185000D01*
X0106663Y0185849D02*
X0100315Y0185849D01*
X0099716Y0186447D02*
X0106663Y0186447D01*
X0106663Y0187046D02*
X0094663Y0187046D01*
X0094663Y0187644D02*
X0100280Y0187644D01*
X0099567Y0188243D02*
X0094663Y0188243D01*
X0094663Y0188841D02*
X0099163Y0188841D01*
X0103340Y0187644D02*
X0106663Y0187644D01*
X0106420Y0188243D02*
X0104073Y0188243D01*
X0104487Y0188841D02*
X0105822Y0188841D01*
X0105717Y0184053D02*
X0102110Y0184053D01*
X0103744Y0182258D02*
X0110047Y0182258D01*
X0109449Y0181659D02*
X0104343Y0181659D01*
X0104941Y0181061D02*
X0109197Y0181061D01*
X0108949Y0180462D02*
X0105540Y0180462D01*
X0106138Y0179864D02*
X0108863Y0179864D01*
X0108863Y0179265D02*
X0106737Y0179265D01*
X0107335Y0178667D02*
X0108895Y0178667D01*
X0109143Y0178068D02*
X0107934Y0178068D01*
X0107963Y0177470D02*
X0109391Y0177470D01*
X0109918Y0176871D02*
X0107963Y0176871D01*
X0107963Y0176273D02*
X0110525Y0176273D01*
X0107963Y0175674D02*
X0116363Y0175674D01*
X0116363Y0175076D02*
X0107963Y0175076D01*
X0107963Y0174477D02*
X0116363Y0174477D01*
X0116363Y0173879D02*
X0107963Y0173879D01*
X0107963Y0173280D02*
X0111860Y0173280D01*
X0110471Y0172682D02*
X0107963Y0172682D01*
X0107963Y0172083D02*
X0109873Y0172083D01*
X0109372Y0171485D02*
X0107963Y0171485D01*
X0107963Y0170886D02*
X0109125Y0170886D01*
X0108877Y0170288D02*
X0107963Y0170288D01*
X0107963Y0169689D02*
X0108863Y0169689D01*
X0108863Y0169091D02*
X0107963Y0169091D01*
X0107963Y0168492D02*
X0108968Y0168492D01*
X0109216Y0167894D02*
X0107963Y0167894D01*
X0107963Y0167295D02*
X0109494Y0167295D01*
X0110093Y0166697D02*
X0107963Y0166697D01*
X0107963Y0166098D02*
X0110947Y0166098D01*
X0107963Y0165500D02*
X0116363Y0165500D01*
X0116363Y0164901D02*
X0107963Y0164901D01*
X0107963Y0164303D02*
X0116363Y0164303D01*
X0116363Y0163704D02*
X0107963Y0163704D01*
X0107963Y0163105D02*
X0116363Y0163105D01*
X0116363Y0162507D02*
X0107963Y0162507D01*
X0107963Y0161908D02*
X0116363Y0161908D01*
X0116363Y0161310D02*
X0107963Y0161310D01*
X0107963Y0160711D02*
X0116363Y0160711D01*
X0116363Y0160113D02*
X0107963Y0160113D01*
X0107963Y0159514D02*
X0116363Y0159514D01*
X0116363Y0158916D02*
X0107963Y0158916D01*
X0107963Y0158317D02*
X0116363Y0158317D01*
X0116363Y0157719D02*
X0107963Y0157719D01*
X0107963Y0157120D02*
X0116363Y0157120D01*
X0116363Y0156522D02*
X0107963Y0156522D01*
X0107963Y0155923D02*
X0116363Y0155923D01*
X0116363Y0155325D02*
X0107963Y0155325D01*
X0107963Y0154726D02*
X0116363Y0154726D01*
X0116363Y0154128D02*
X0107963Y0154128D01*
X0107963Y0153529D02*
X0116363Y0153529D01*
X0111016Y0152931D02*
X0107963Y0152931D01*
X0107963Y0152332D02*
X0110122Y0152332D01*
X0109523Y0151734D02*
X0107963Y0151734D01*
X0107963Y0151135D02*
X0109228Y0151135D01*
X0108980Y0150537D02*
X0107963Y0150537D01*
X0107963Y0149938D02*
X0108863Y0149938D01*
X0108863Y0149340D02*
X0107963Y0149340D01*
X0107963Y0148741D02*
X0108865Y0148741D01*
X0109113Y0148143D02*
X0107963Y0148143D01*
X0107963Y0147544D02*
X0109360Y0147544D01*
X0109844Y0146946D02*
X0107963Y0146946D01*
X0107963Y0146347D02*
X0110442Y0146347D01*
X0111790Y0145749D02*
X0107963Y0145749D01*
X0107963Y0145150D02*
X0116363Y0145150D01*
X0116363Y0144552D02*
X0107963Y0144552D01*
X0107963Y0143953D02*
X0116363Y0143953D01*
X0116363Y0143355D02*
X0107963Y0143355D01*
X0107963Y0142756D02*
X0110595Y0142756D01*
X0109947Y0142158D02*
X0107963Y0142158D01*
X0107963Y0141559D02*
X0109403Y0141559D01*
X0109155Y0140961D02*
X0107963Y0140961D01*
X0107963Y0140362D02*
X0108907Y0140362D01*
X0108863Y0139764D02*
X0107963Y0139764D01*
X0107963Y0139165D02*
X0108863Y0139165D01*
X0108937Y0138567D02*
X0107963Y0138567D01*
X0107963Y0137968D02*
X0109185Y0137968D01*
X0109433Y0137370D02*
X0107763Y0137370D01*
X0107763Y0136771D02*
X0110018Y0136771D01*
X0110767Y0136172D02*
X0107763Y0136172D01*
X0107763Y0135574D02*
X0116363Y0135574D01*
X0116363Y0134975D02*
X0107612Y0134975D01*
X0107259Y0134377D02*
X0116363Y0134377D01*
X0116363Y0133778D02*
X0107763Y0133778D01*
X0107763Y0133180D02*
X0111618Y0133180D01*
X0110371Y0132581D02*
X0107763Y0132581D01*
X0107763Y0131983D02*
X0109772Y0131983D01*
X0109331Y0131384D02*
X0107763Y0131384D01*
X0106788Y0130786D02*
X0109083Y0130786D01*
X0108863Y0130187D02*
X0106189Y0130187D01*
X0105591Y0129589D02*
X0108863Y0129589D01*
X0108863Y0128990D02*
X0100992Y0128990D01*
X0100963Y0128392D02*
X0109009Y0128392D01*
X0109257Y0127793D02*
X0100963Y0127793D01*
X0100963Y0127195D02*
X0109595Y0127195D01*
X0110193Y0126596D02*
X0100963Y0126596D01*
X0107638Y0125998D02*
X0111189Y0125998D01*
X0111196Y0123005D02*
X0107441Y0123005D01*
X0107763Y0123604D02*
X0116363Y0123604D01*
X0116363Y0124202D02*
X0107763Y0124202D01*
X0107763Y0124801D02*
X0116363Y0124801D01*
X0116363Y0125399D02*
X0107763Y0125399D01*
X0106963Y0122407D02*
X0110196Y0122407D01*
X0109598Y0121808D02*
X0106963Y0121808D01*
X0107292Y0121210D02*
X0109259Y0121210D01*
X0109011Y0120611D02*
X0107891Y0120611D01*
X0107963Y0120013D02*
X0108863Y0120013D01*
X0108863Y0119414D02*
X0107963Y0119414D01*
X0107963Y0118816D02*
X0108863Y0118816D01*
X0108542Y0118217D02*
X0107963Y0118217D01*
X0109825Y0115823D02*
X0111610Y0115823D01*
X0111908Y0115700D02*
X0110511Y0116279D01*
X0110396Y0116394D01*
X0109463Y0115462D01*
X0109463Y0111674D01*
X0110511Y0112721D01*
X0111908Y0113300D01*
X0116363Y0113300D01*
X0116363Y0115700D01*
X0111908Y0115700D01*
X0109463Y0115225D02*
X0116363Y0115225D01*
X0116363Y0114626D02*
X0109463Y0114626D01*
X0109463Y0114028D02*
X0116363Y0114028D01*
X0116363Y0113429D02*
X0109463Y0113429D01*
X0109463Y0112831D02*
X0110774Y0112831D01*
X0110022Y0112232D02*
X0109463Y0112232D01*
X0084838Y0120013D02*
X0080963Y0120013D01*
X0080963Y0120611D02*
X0084863Y0120611D01*
X0084863Y0121210D02*
X0080963Y0121210D01*
X0080963Y0121808D02*
X0084863Y0121808D01*
X0084863Y0122407D02*
X0080963Y0122407D01*
X0080963Y0123005D02*
X0084863Y0123005D01*
X0085185Y0123604D02*
X0080963Y0123604D01*
X0080963Y0124202D02*
X0085362Y0124202D01*
X0084764Y0124801D02*
X0080963Y0124801D01*
X0080963Y0125399D02*
X0084165Y0125399D01*
X0083567Y0125998D02*
X0081418Y0125998D01*
X0081754Y0126596D02*
X0082968Y0126596D01*
X0082370Y0127195D02*
X0081754Y0127195D01*
X0081754Y0127793D02*
X0081771Y0127793D01*
X0078363Y0125544D02*
X0078363Y0121038D01*
X0071454Y0114129D01*
X0071454Y0114766D01*
X0070663Y0115556D01*
X0070663Y0120298D01*
X0069902Y0121060D01*
X0068362Y0122600D01*
X0069307Y0123545D01*
X0069652Y0123200D01*
X0073702Y0123200D01*
X0077573Y0127071D01*
X0077573Y0126334D01*
X0078363Y0125544D01*
X0078363Y0125399D02*
X0075901Y0125399D01*
X0075303Y0124801D02*
X0078363Y0124801D01*
X0078363Y0124202D02*
X0074704Y0124202D01*
X0074106Y0123604D02*
X0078363Y0123604D01*
X0078363Y0123005D02*
X0068767Y0123005D01*
X0068555Y0122407D02*
X0078363Y0122407D01*
X0078363Y0121808D02*
X0069153Y0121808D01*
X0069752Y0121210D02*
X0078363Y0121210D01*
X0077936Y0120611D02*
X0070350Y0120611D01*
X0070663Y0120013D02*
X0077338Y0120013D01*
X0076739Y0119414D02*
X0070663Y0119414D01*
X0070663Y0118816D02*
X0076141Y0118816D01*
X0075542Y0118217D02*
X0070663Y0118217D01*
X0070663Y0117619D02*
X0074944Y0117619D01*
X0074345Y0117020D02*
X0070663Y0117020D01*
X0070663Y0116422D02*
X0073747Y0116422D01*
X0073148Y0115823D02*
X0070663Y0115823D01*
X0070995Y0115225D02*
X0072550Y0115225D01*
X0071951Y0114626D02*
X0071454Y0114626D01*
X0076825Y0115823D02*
X0080648Y0115823D01*
X0081247Y0116422D02*
X0077424Y0116422D01*
X0078022Y0117020D02*
X0081845Y0117020D01*
X0082444Y0117619D02*
X0078621Y0117619D01*
X0079219Y0118217D02*
X0083042Y0118217D01*
X0083641Y0118816D02*
X0079818Y0118816D01*
X0080416Y0119414D02*
X0084239Y0119414D01*
X0079451Y0114626D02*
X0078994Y0114626D01*
X0077909Y0125998D02*
X0076500Y0125998D01*
X0077098Y0126596D02*
X0077573Y0126596D01*
X0089463Y0133180D02*
X0089787Y0133180D01*
X0089463Y0133778D02*
X0095573Y0133778D01*
X0095573Y0133180D02*
X0095440Y0133180D01*
X0095584Y0134377D02*
X0089463Y0134377D01*
X0089977Y0134975D02*
X0096182Y0134975D01*
X0096781Y0135574D02*
X0095076Y0135574D01*
X0095674Y0136172D02*
X0100063Y0136172D01*
X0100063Y0135574D02*
X0098546Y0135574D01*
X0099144Y0134975D02*
X0100215Y0134975D01*
X0100568Y0134377D02*
X0099743Y0134377D01*
X0100063Y0136771D02*
X0096273Y0136771D01*
X0096871Y0137370D02*
X0100063Y0137370D01*
X0100359Y0137968D02*
X0097470Y0137968D01*
X0097751Y0138567D02*
X0100892Y0138567D01*
X0101490Y0139165D02*
X0099282Y0139165D01*
X0099319Y0139764D02*
X0102089Y0139764D01*
X0103863Y0140362D02*
X0099326Y0140362D01*
X0099326Y0140961D02*
X0103863Y0140961D01*
X0103863Y0141559D02*
X0099326Y0141559D01*
X0100700Y0142158D02*
X0103863Y0142158D01*
X0100935Y0142756D02*
X0100914Y0142756D01*
X0093655Y0144552D02*
X0090263Y0144552D01*
X0090263Y0145150D02*
X0093573Y0145150D01*
X0093573Y0145749D02*
X0090188Y0145749D01*
X0090263Y0146347D02*
X0093573Y0146347D01*
X0090563Y0146946D02*
X0090263Y0146946D01*
X0090263Y0147544D02*
X0090413Y0147544D01*
X0088763Y0149938D02*
X0085326Y0149938D01*
X0085326Y0149340D02*
X0086530Y0149340D01*
X0085326Y0150537D02*
X0089362Y0150537D01*
X0089363Y0151135D02*
X0085326Y0151135D01*
X0081872Y0143953D02*
X0080723Y0143953D01*
X0080772Y0143355D02*
X0086063Y0143355D01*
X0086435Y0142756D02*
X0083495Y0142756D01*
X0083745Y0142158D02*
X0090627Y0142158D01*
X0090413Y0142756D02*
X0089892Y0142756D01*
X0090263Y0143355D02*
X0090413Y0143355D01*
X0090462Y0143953D02*
X0090263Y0143953D01*
X0092008Y0141559D02*
X0083745Y0141559D01*
X0083763Y0140961D02*
X0092008Y0140961D01*
X0092008Y0140362D02*
X0083763Y0140362D01*
X0083763Y0139764D02*
X0092008Y0139764D01*
X0091940Y0133180D02*
X0093287Y0133180D01*
X0092688Y0132581D02*
X0092539Y0132581D01*
X0103759Y0134377D02*
X0104068Y0134377D01*
X0080455Y0144552D02*
X0066554Y0144552D01*
X0066066Y0143953D02*
X0076462Y0143953D01*
X0076413Y0143355D02*
X0066311Y0143355D01*
X0066311Y0142756D02*
X0076413Y0142756D01*
X0079857Y0145150D02*
X0067152Y0145150D01*
X0066448Y0142158D02*
X0066311Y0142158D01*
X0060574Y0142158D02*
X0057311Y0142158D01*
X0057311Y0142756D02*
X0060574Y0142756D01*
X0060574Y0143200D02*
X0060574Y0139812D01*
X0060863Y0139523D01*
X0060863Y0134591D01*
X0060754Y0134591D01*
X0060754Y0135866D01*
X0059529Y0137091D01*
X0057798Y0137091D01*
X0056573Y0135866D01*
X0056573Y0134929D01*
X0054463Y0137038D01*
X0054463Y0139482D01*
X0054661Y0139285D01*
X0056784Y0139285D01*
X0057311Y0139812D01*
X0057311Y0143200D01*
X0060574Y0143200D01*
X0060574Y0141559D02*
X0057311Y0141559D01*
X0057311Y0140961D02*
X0060574Y0140961D01*
X0060574Y0140362D02*
X0057311Y0140362D01*
X0057263Y0139764D02*
X0060623Y0139764D01*
X0060863Y0139165D02*
X0054463Y0139165D01*
X0054463Y0138567D02*
X0060863Y0138567D01*
X0060863Y0137968D02*
X0054463Y0137968D01*
X0054463Y0137370D02*
X0060863Y0137370D01*
X0060863Y0136771D02*
X0059849Y0136771D01*
X0060447Y0136172D02*
X0060863Y0136172D01*
X0060863Y0135574D02*
X0060754Y0135574D01*
X0060754Y0134975D02*
X0060863Y0134975D01*
X0057478Y0136771D02*
X0054731Y0136771D01*
X0055329Y0136172D02*
X0056879Y0136172D01*
X0056573Y0135574D02*
X0055928Y0135574D01*
X0056526Y0134975D02*
X0056573Y0134975D01*
X0048005Y0133180D02*
X0043709Y0133180D01*
X0044956Y0132581D02*
X0047406Y0132581D01*
X0046808Y0131983D02*
X0045555Y0131983D01*
X0045996Y0131384D02*
X0046209Y0131384D01*
X0101463Y0150537D02*
X0103863Y0150537D01*
X0103863Y0151135D02*
X0101463Y0151135D01*
X0101463Y0151734D02*
X0103863Y0151734D01*
X0103863Y0152332D02*
X0101463Y0152332D01*
X0102551Y0152931D02*
X0103863Y0152931D01*
X0103863Y0153529D02*
X0103149Y0153529D01*
X0103254Y0154128D02*
X0103863Y0154128D01*
X0103863Y0154726D02*
X0103254Y0154726D01*
X0103254Y0155325D02*
X0103863Y0155325D01*
X0103863Y0155923D02*
X0102697Y0155923D01*
X0102098Y0156522D02*
X0103863Y0156522D01*
X0103863Y0157120D02*
X0099963Y0157120D01*
X0099963Y0156522D02*
X0100229Y0156522D01*
X0099963Y0157719D02*
X0103863Y0157719D01*
X0103863Y0158317D02*
X0099963Y0158317D01*
X0099586Y0158916D02*
X0103863Y0158916D01*
X0103863Y0159514D02*
X0098987Y0159514D01*
X0098389Y0160113D02*
X0103863Y0160113D01*
X0103863Y0160711D02*
X0097790Y0160711D01*
X0093463Y0161310D02*
X0103863Y0161310D01*
X0103863Y0161908D02*
X0093463Y0161908D01*
X0093463Y0162507D02*
X0103863Y0162507D01*
X0103863Y0163105D02*
X0093463Y0163105D01*
X0093463Y0163704D02*
X0103863Y0163704D01*
X0103863Y0164303D02*
X0093463Y0164303D01*
X0093101Y0164901D02*
X0103863Y0164901D01*
X0103863Y0165500D02*
X0092502Y0165500D01*
X0091904Y0166098D02*
X0103863Y0166098D01*
X0082866Y0172682D02*
X0072663Y0172682D01*
X0072663Y0173280D02*
X0082966Y0173280D01*
X0082933Y0173879D02*
X0072663Y0173879D01*
X0073558Y0172083D02*
X0073895Y0172083D01*
X0075526Y0172083D02*
X0075864Y0172083D01*
X0077495Y0172083D02*
X0077832Y0172083D01*
X0079463Y0172083D02*
X0079801Y0172083D01*
X0081432Y0172083D02*
X0081769Y0172083D01*
X0068093Y0179864D02*
X0067597Y0179864D01*
X0049303Y0190637D02*
X0046306Y0190637D01*
X0046058Y0191236D02*
X0063731Y0191236D01*
X0063132Y0191834D02*
X0045703Y0191834D01*
X0045105Y0192433D02*
X0062534Y0192433D01*
X0061935Y0193031D02*
X0044069Y0193031D01*
X0047963Y0194827D02*
X0038963Y0194827D01*
X0038963Y0195425D02*
X0047963Y0195425D01*
X0047963Y0196024D02*
X0038963Y0196024D01*
X0038963Y0196622D02*
X0047963Y0196622D01*
X0047963Y0197221D02*
X0038963Y0197221D01*
X0038963Y0197819D02*
X0047963Y0197819D01*
X0047963Y0198418D02*
X0038963Y0198418D01*
X0038963Y0199016D02*
X0047963Y0199016D01*
X0047963Y0199615D02*
X0038963Y0199615D01*
X0038963Y0200213D02*
X0047963Y0200213D01*
X0047963Y0200812D02*
X0038963Y0200812D01*
X0038963Y0201410D02*
X0047963Y0201410D01*
X0048475Y0202009D02*
X0038963Y0202009D01*
X0038963Y0202607D02*
X0049074Y0202607D01*
X0048438Y0194228D02*
X0038963Y0194228D01*
X0038963Y0193630D02*
X0049037Y0193630D01*
X0075413Y0196024D02*
X0075414Y0196024D01*
X0102563Y0197221D02*
X0109569Y0197221D01*
X0109247Y0197819D02*
X0102563Y0197819D01*
X0102563Y0198418D02*
X0108999Y0198418D01*
X0108863Y0199016D02*
X0102563Y0199016D01*
X0102563Y0199615D02*
X0108863Y0199615D01*
X0108863Y0200213D02*
X0102563Y0200213D01*
X0102563Y0200812D02*
X0109094Y0200812D01*
X0109342Y0201410D02*
X0102563Y0201410D01*
X0102563Y0202009D02*
X0109798Y0202009D01*
X0110397Y0202607D02*
X0102563Y0202607D01*
X0114201Y0196024D02*
X0116363Y0196024D01*
X0116363Y0196622D02*
X0115160Y0196622D01*
X0115758Y0197221D02*
X0116363Y0197221D01*
X0116363Y0197819D02*
X0116080Y0197819D01*
X0116328Y0198418D02*
X0116363Y0198418D01*
X0077585Y0163105D02*
X0077242Y0163105D01*
X0074085Y0163105D02*
X0073742Y0163105D01*
X0070585Y0163105D02*
X0070242Y0163105D01*
X0071330Y0160113D02*
X0073220Y0160113D01*
X0075507Y0160113D02*
X0076120Y0160113D01*
X0101764Y0149938D02*
X0103863Y0149938D01*
D40*
X0092593Y0144713D02*
X0090776Y0144713D01*
X0090363Y0144300D01*
X0090363Y0142800D01*
X0088163Y0140600D01*
X0084026Y0143138D02*
X0081726Y0143138D01*
X0080151Y0144713D01*
X0078593Y0144713D01*
X0084734Y0146287D02*
X0086651Y0146287D01*
X0087963Y0147600D01*
X0088163Y0147600D01*
D41*
X0058763Y0157100D02*
X0058763Y0163000D01*
M02*
