G75*
%MOIN*%
%OFA0B0*%
%FSLAX25Y25*%
%IPPOS*%
%LPD*%
%AMOC8*
5,1,8,0,0,1.08239X$1,22.5*
%
%ADD10R,0.02375X0.06115*%
%ADD11R,0.06706X0.08280*%
%ADD12C,0.03162*%
%ADD13C,0.05131*%
%ADD14R,0.05721X0.03359*%
%ADD15R,0.03950X0.03950*%
%ADD16R,0.03200X0.02600*%
%ADD17C,0.06600*%
%ADD18R,0.04934X0.09461*%
%ADD19R,0.04737X0.04934*%
%ADD20R,0.02600X0.03200*%
%ADD21C,0.00100*%
%ADD22R,0.03543X0.06299*%
%ADD23R,0.06299X0.03543*%
%ADD24C,0.02769*%
%ADD25R,0.04724X0.04724*%
%ADD26C,0.03556*%
%ADD27C,0.04343*%
%ADD28R,0.04737X0.03950*%
%ADD29R,0.07099X0.12611*%
%ADD30R,0.04737X0.22454*%
%ADD31R,0.04343X0.08674*%
%ADD32R,0.04900X0.03600*%
%ADD33R,0.01181X0.03150*%
%ADD34R,0.07402X0.06811*%
%ADD35R,0.04737X0.05131*%
%ADD36C,0.01378*%
%ADD37C,0.04762*%
%ADD38C,0.06600*%
D10*
X0089045Y0187969D03*
X0091604Y0187969D03*
X0094163Y0187969D03*
X0096723Y0187969D03*
X0099282Y0187969D03*
D11*
X0098100Y0198500D03*
X0090226Y0198461D03*
D12*
X0086486Y0190232D03*
X0101841Y0190232D03*
D13*
X0105089Y0196335D02*
X0105089Y0200665D01*
X0083238Y0200665D02*
X0083238Y0196335D01*
D14*
X0087782Y0140551D03*
X0087782Y0134449D03*
X0102545Y0134449D03*
X0102545Y0140551D03*
X0067545Y0140551D03*
X0067545Y0134449D03*
X0052782Y0134449D03*
X0052782Y0140551D03*
D15*
X0072663Y0162047D03*
X0072663Y0167953D03*
X0097711Y0149000D03*
X0103616Y0149000D03*
D16*
X0092663Y0149900D03*
X0089163Y0149900D03*
X0085663Y0149900D03*
X0085663Y0146100D03*
X0089163Y0146100D03*
X0092663Y0146100D03*
X0099163Y0157100D03*
X0099163Y0160900D03*
X0088663Y0161100D03*
X0088663Y0164900D03*
X0076663Y0164900D03*
X0076663Y0161100D03*
X0077663Y0016400D03*
X0081663Y0016400D03*
X0089663Y0016400D03*
X0089663Y0012600D03*
X0081663Y0012600D03*
X0077663Y0012600D03*
X0097663Y0012600D03*
X0097663Y0016400D03*
D17*
X0042663Y0019500D02*
X0036863Y0019500D01*
X0036863Y0029500D02*
X0042663Y0029500D01*
X0042663Y0039500D02*
X0036863Y0039500D01*
X0036863Y0049500D02*
X0042663Y0049500D01*
X0042663Y0059500D02*
X0036863Y0059500D01*
X0036863Y0069500D02*
X0042663Y0069500D01*
X0042663Y0079500D02*
X0036863Y0079500D01*
X0036863Y0089500D02*
X0042663Y0089500D01*
X0042663Y0099500D02*
X0036863Y0099500D01*
X0036863Y0109500D02*
X0042663Y0109500D01*
X0042663Y0119500D02*
X0036863Y0119500D01*
X0036863Y0129500D02*
X0042663Y0129500D01*
X0042663Y0139500D02*
X0036863Y0139500D01*
X0036863Y0149500D02*
X0042663Y0149500D01*
X0042663Y0159500D02*
X0036863Y0159500D01*
X0036863Y0169500D02*
X0042663Y0169500D01*
X0042663Y0179500D02*
X0036863Y0179500D01*
X0036863Y0189500D02*
X0042663Y0189500D01*
X0112663Y0189500D02*
X0118463Y0189500D01*
X0118463Y0179500D02*
X0112663Y0179500D01*
X0112663Y0169500D02*
X0118463Y0169500D01*
X0118463Y0159500D02*
X0112663Y0159500D01*
X0112663Y0149500D02*
X0118463Y0149500D01*
X0118463Y0139500D02*
X0112663Y0139500D01*
X0112663Y0129500D02*
X0118463Y0129500D01*
X0118463Y0119500D02*
X0112663Y0119500D01*
X0112663Y0109500D02*
X0118463Y0109500D01*
X0118463Y0099500D02*
X0112663Y0099500D01*
X0112663Y0089500D02*
X0118463Y0089500D01*
X0118463Y0079500D02*
X0112663Y0079500D01*
X0112663Y0069500D02*
X0118463Y0069500D01*
X0118463Y0059500D02*
X0112663Y0059500D01*
X0112663Y0049500D02*
X0118463Y0049500D01*
X0118463Y0039500D02*
X0112663Y0039500D01*
X0112663Y0029500D02*
X0118463Y0029500D01*
X0118463Y0019500D02*
X0112663Y0019500D01*
D18*
X0070471Y0010500D03*
X0058856Y0010500D03*
D19*
X0064663Y0016514D03*
D20*
X0052563Y0018000D03*
X0048763Y0018000D03*
X0048763Y0014500D03*
X0048763Y0011000D03*
X0052563Y0011000D03*
X0052563Y0014500D03*
X0052563Y0007500D03*
X0048763Y0007500D03*
X0066263Y0129000D03*
X0070063Y0129000D03*
X0073263Y0129000D03*
X0077063Y0129000D03*
X0077063Y0146000D03*
X0073263Y0146000D03*
X0101263Y0179000D03*
X0105063Y0179000D03*
D21*
X0104463Y0014000D02*
X0104963Y0011600D01*
X0104463Y0011300D01*
X0103963Y0011600D01*
X0104463Y0014000D01*
X0104455Y0013957D02*
X0104472Y0013957D01*
X0104493Y0013859D02*
X0104434Y0013859D01*
X0104413Y0013760D02*
X0104513Y0013760D01*
X0104534Y0013662D02*
X0104393Y0013662D01*
X0104372Y0013563D02*
X0104555Y0013563D01*
X0104575Y0013465D02*
X0104352Y0013465D01*
X0104331Y0013366D02*
X0104596Y0013366D01*
X0104616Y0013268D02*
X0104311Y0013268D01*
X0104290Y0013169D02*
X0104637Y0013169D01*
X0104657Y0013070D02*
X0104270Y0013070D01*
X0104249Y0012972D02*
X0104678Y0012972D01*
X0104698Y0012873D02*
X0104229Y0012873D01*
X0104208Y0012775D02*
X0104719Y0012775D01*
X0104739Y0012676D02*
X0104188Y0012676D01*
X0104167Y0012578D02*
X0104760Y0012578D01*
X0104780Y0012479D02*
X0104147Y0012479D01*
X0104126Y0012381D02*
X0104801Y0012381D01*
X0104821Y0012282D02*
X0104106Y0012282D01*
X0104085Y0012184D02*
X0104842Y0012184D01*
X0104862Y0012085D02*
X0104065Y0012085D01*
X0104044Y0011987D02*
X0104883Y0011987D01*
X0104903Y0011888D02*
X0104024Y0011888D01*
X0104003Y0011790D02*
X0104924Y0011790D01*
X0104944Y0011691D02*
X0103983Y0011691D01*
X0103975Y0011593D02*
X0104951Y0011593D01*
X0104787Y0011494D02*
X0104140Y0011494D01*
X0104304Y0011396D02*
X0104623Y0011396D01*
X0104956Y0011002D02*
X0106498Y0011002D01*
X0106564Y0011100D02*
X0105117Y0011100D01*
X0105277Y0011199D02*
X0106629Y0011199D01*
X0106695Y0011297D02*
X0105438Y0011297D01*
X0105599Y0011396D02*
X0106761Y0011396D01*
X0106826Y0011494D02*
X0105759Y0011494D01*
X0105920Y0011593D02*
X0106892Y0011593D01*
X0106958Y0011691D02*
X0106081Y0011691D01*
X0106242Y0011790D02*
X0107023Y0011790D01*
X0107089Y0011888D02*
X0106402Y0011888D01*
X0106563Y0011987D02*
X0107155Y0011987D01*
X0107220Y0012085D02*
X0106724Y0012085D01*
X0106885Y0012184D02*
X0107286Y0012184D01*
X0107352Y0012282D02*
X0107045Y0012282D01*
X0107206Y0012381D02*
X0107417Y0012381D01*
X0107367Y0012479D02*
X0107483Y0012479D01*
X0107527Y0012578D02*
X0107549Y0012578D01*
X0107563Y0012600D02*
X0104463Y0010700D01*
X0101463Y0012600D01*
X0103363Y0009600D01*
X0101363Y0006400D01*
X0104463Y0008400D01*
X0107563Y0006500D01*
X0105563Y0009600D01*
X0107563Y0012600D01*
X0106432Y0010903D02*
X0104795Y0010903D01*
X0104634Y0010805D02*
X0106367Y0010805D01*
X0106301Y0010706D02*
X0104474Y0010706D01*
X0104454Y0010706D02*
X0102663Y0010706D01*
X0102725Y0010608D02*
X0106235Y0010608D01*
X0106170Y0010509D02*
X0102788Y0010509D01*
X0102850Y0010411D02*
X0106104Y0010411D01*
X0106038Y0010312D02*
X0102912Y0010312D01*
X0102975Y0010214D02*
X0105973Y0010214D01*
X0105907Y0010115D02*
X0103037Y0010115D01*
X0103100Y0010017D02*
X0105841Y0010017D01*
X0105776Y0009918D02*
X0103162Y0009918D01*
X0103224Y0009820D02*
X0105710Y0009820D01*
X0105644Y0009721D02*
X0103287Y0009721D01*
X0103349Y0009623D02*
X0105579Y0009623D01*
X0105612Y0009524D02*
X0103316Y0009524D01*
X0103254Y0009426D02*
X0105676Y0009426D01*
X0105740Y0009327D02*
X0103193Y0009327D01*
X0103131Y0009229D02*
X0105803Y0009229D01*
X0105867Y0009130D02*
X0103070Y0009130D01*
X0103008Y0009032D02*
X0105930Y0009032D01*
X0105994Y0008933D02*
X0102947Y0008933D01*
X0102885Y0008834D02*
X0106057Y0008834D01*
X0106121Y0008736D02*
X0102823Y0008736D01*
X0102762Y0008637D02*
X0106184Y0008637D01*
X0106248Y0008539D02*
X0102700Y0008539D01*
X0102639Y0008440D02*
X0106312Y0008440D01*
X0106375Y0008342D02*
X0104558Y0008342D01*
X0104373Y0008342D02*
X0102577Y0008342D01*
X0102516Y0008243D02*
X0104221Y0008243D01*
X0104068Y0008145D02*
X0102454Y0008145D01*
X0102392Y0008046D02*
X0103915Y0008046D01*
X0103763Y0007948D02*
X0102331Y0007948D01*
X0102269Y0007849D02*
X0103610Y0007849D01*
X0103457Y0007751D02*
X0102208Y0007751D01*
X0102146Y0007652D02*
X0103305Y0007652D01*
X0103152Y0007554D02*
X0102085Y0007554D01*
X0102023Y0007455D02*
X0102999Y0007455D01*
X0102847Y0007357D02*
X0101961Y0007357D01*
X0101900Y0007258D02*
X0102694Y0007258D01*
X0102541Y0007160D02*
X0101838Y0007160D01*
X0101777Y0007061D02*
X0102388Y0007061D01*
X0102236Y0006963D02*
X0101715Y0006963D01*
X0101654Y0006864D02*
X0102083Y0006864D01*
X0101930Y0006766D02*
X0101592Y0006766D01*
X0101531Y0006667D02*
X0101778Y0006667D01*
X0101625Y0006569D02*
X0101469Y0006569D01*
X0101472Y0006470D02*
X0101407Y0006470D01*
X0104055Y0007061D02*
X0104872Y0007061D01*
X0104852Y0006963D02*
X0104075Y0006963D01*
X0104096Y0006864D02*
X0104831Y0006864D01*
X0104810Y0006766D02*
X0104116Y0006766D01*
X0104137Y0006667D02*
X0104790Y0006667D01*
X0104769Y0006569D02*
X0104157Y0006569D01*
X0104178Y0006470D02*
X0104749Y0006470D01*
X0104728Y0006372D02*
X0104199Y0006372D01*
X0104219Y0006273D02*
X0104708Y0006273D01*
X0104687Y0006175D02*
X0104240Y0006175D01*
X0104260Y0006076D02*
X0104667Y0006076D01*
X0104646Y0005978D02*
X0104281Y0005978D01*
X0104301Y0005879D02*
X0104626Y0005879D01*
X0104605Y0005781D02*
X0104322Y0005781D01*
X0104342Y0005682D02*
X0104585Y0005682D01*
X0104564Y0005584D02*
X0104363Y0005584D01*
X0104383Y0005485D02*
X0104544Y0005485D01*
X0104523Y0005387D02*
X0104404Y0005387D01*
X0104424Y0005288D02*
X0104503Y0005288D01*
X0104482Y0005190D02*
X0104445Y0005190D01*
X0104463Y0005100D02*
X0104963Y0007500D01*
X0104463Y0007800D01*
X0103963Y0007500D01*
X0104463Y0005100D01*
X0104034Y0007160D02*
X0104893Y0007160D01*
X0104913Y0007258D02*
X0104014Y0007258D01*
X0103993Y0007357D02*
X0104934Y0007357D01*
X0104954Y0007455D02*
X0103973Y0007455D01*
X0104053Y0007554D02*
X0104874Y0007554D01*
X0104710Y0007652D02*
X0104217Y0007652D01*
X0104382Y0007751D02*
X0104545Y0007751D01*
X0104880Y0008145D02*
X0106502Y0008145D01*
X0106439Y0008243D02*
X0104719Y0008243D01*
X0105040Y0008046D02*
X0106566Y0008046D01*
X0106629Y0007948D02*
X0105201Y0007948D01*
X0105362Y0007849D02*
X0106693Y0007849D01*
X0106756Y0007751D02*
X0105523Y0007751D01*
X0105683Y0007652D02*
X0106820Y0007652D01*
X0106884Y0007554D02*
X0105844Y0007554D01*
X0106005Y0007455D02*
X0106947Y0007455D01*
X0107011Y0007357D02*
X0106165Y0007357D01*
X0106326Y0007258D02*
X0107074Y0007258D01*
X0107138Y0007160D02*
X0106487Y0007160D01*
X0106648Y0007061D02*
X0107201Y0007061D01*
X0107265Y0006963D02*
X0106808Y0006963D01*
X0106969Y0006864D02*
X0107328Y0006864D01*
X0107392Y0006766D02*
X0107130Y0006766D01*
X0107291Y0006667D02*
X0107456Y0006667D01*
X0107451Y0006569D02*
X0107519Y0006569D01*
X0107155Y0009229D02*
X0106486Y0009229D01*
X0106427Y0009327D02*
X0107608Y0009327D01*
X0108061Y0009426D02*
X0106368Y0009426D01*
X0106309Y0009524D02*
X0108514Y0009524D01*
X0108760Y0009623D02*
X0106277Y0009623D01*
X0106263Y0009600D02*
X0106563Y0009100D01*
X0108863Y0009600D01*
X0106563Y0010100D01*
X0106263Y0009600D01*
X0106336Y0009721D02*
X0108306Y0009721D01*
X0107853Y0009820D02*
X0106395Y0009820D01*
X0106454Y0009918D02*
X0107400Y0009918D01*
X0106947Y0010017D02*
X0106513Y0010017D01*
X0106545Y0009130D02*
X0106702Y0009130D01*
X0104298Y0010805D02*
X0102600Y0010805D01*
X0102538Y0010903D02*
X0104143Y0010903D01*
X0103987Y0011002D02*
X0102476Y0011002D01*
X0102413Y0011100D02*
X0103831Y0011100D01*
X0103676Y0011199D02*
X0102351Y0011199D01*
X0102289Y0011297D02*
X0103520Y0011297D01*
X0103365Y0011396D02*
X0102226Y0011396D01*
X0102164Y0011494D02*
X0103209Y0011494D01*
X0103054Y0011593D02*
X0102101Y0011593D01*
X0102039Y0011691D02*
X0102898Y0011691D01*
X0102743Y0011790D02*
X0101977Y0011790D01*
X0101914Y0011888D02*
X0102587Y0011888D01*
X0102432Y0011987D02*
X0101852Y0011987D01*
X0101789Y0012085D02*
X0102276Y0012085D01*
X0102121Y0012184D02*
X0101727Y0012184D01*
X0101665Y0012282D02*
X0101965Y0012282D01*
X0101809Y0012381D02*
X0101602Y0012381D01*
X0101654Y0012479D02*
X0101540Y0012479D01*
X0101498Y0012578D02*
X0101477Y0012578D01*
X0101980Y0010017D02*
X0102430Y0010017D01*
X0102363Y0010100D02*
X0102763Y0009600D01*
X0102363Y0009100D01*
X0100063Y0009600D01*
X0102363Y0010100D01*
X0102509Y0009918D02*
X0101527Y0009918D01*
X0101074Y0009820D02*
X0102588Y0009820D01*
X0102667Y0009721D02*
X0100621Y0009721D01*
X0100413Y0009524D02*
X0102703Y0009524D01*
X0102745Y0009623D02*
X0100167Y0009623D01*
X0100866Y0009426D02*
X0102624Y0009426D01*
X0102545Y0009327D02*
X0101319Y0009327D01*
X0101772Y0009229D02*
X0102466Y0009229D01*
X0102387Y0009130D02*
X0102225Y0009130D01*
D22*
X0099317Y0025453D03*
X0094986Y0025453D03*
X0090656Y0025453D03*
X0086325Y0025453D03*
X0081994Y0025453D03*
X0077663Y0025453D03*
X0073333Y0025453D03*
X0069002Y0025453D03*
X0064671Y0025453D03*
X0060341Y0025453D03*
X0056010Y0025453D03*
X0056010Y0119547D03*
X0060341Y0119547D03*
X0064671Y0119547D03*
X0069002Y0119547D03*
X0073333Y0119547D03*
X0077663Y0119547D03*
X0081994Y0119547D03*
X0086325Y0119547D03*
X0090656Y0119547D03*
X0094986Y0119547D03*
X0099317Y0119547D03*
D23*
X0105026Y0115807D03*
X0105026Y0111476D03*
X0105026Y0107146D03*
X0105026Y0102815D03*
X0105026Y0098484D03*
X0105026Y0094154D03*
X0105026Y0089823D03*
X0105026Y0085492D03*
X0105026Y0081161D03*
X0105026Y0076831D03*
X0105026Y0072500D03*
X0105026Y0068169D03*
X0105026Y0063839D03*
X0105026Y0059508D03*
X0105026Y0055177D03*
X0105026Y0050846D03*
X0105026Y0046516D03*
X0105026Y0042185D03*
X0105026Y0037854D03*
X0105026Y0033524D03*
X0105026Y0029193D03*
X0050301Y0029193D03*
X0050301Y0033524D03*
X0050301Y0037854D03*
X0050301Y0042185D03*
X0050301Y0046516D03*
X0050301Y0050846D03*
X0050301Y0055177D03*
X0050301Y0059508D03*
X0050301Y0063839D03*
X0050301Y0068169D03*
X0050301Y0072500D03*
X0050301Y0076831D03*
X0050301Y0081161D03*
X0050301Y0085492D03*
X0050301Y0089823D03*
X0050301Y0094154D03*
X0050301Y0098484D03*
X0050301Y0102815D03*
X0050301Y0107146D03*
X0050301Y0111476D03*
X0050301Y0115807D03*
D24*
X0105223Y0025256D03*
D25*
X0098333Y0032146D03*
X0090065Y0032146D03*
X0081797Y0032146D03*
X0073530Y0032146D03*
X0065262Y0032146D03*
X0056994Y0032146D03*
X0056994Y0039232D03*
X0065262Y0039232D03*
X0073530Y0039232D03*
X0081797Y0039232D03*
X0090065Y0039232D03*
X0098333Y0039232D03*
X0098333Y0046319D03*
X0098333Y0060492D03*
X0056994Y0060492D03*
X0056994Y0046319D03*
X0056994Y0084508D03*
X0056994Y0098681D03*
X0056994Y0105768D03*
X0065262Y0105768D03*
X0073530Y0105768D03*
X0081797Y0105768D03*
X0090065Y0105768D03*
X0098333Y0105768D03*
X0098333Y0112854D03*
X0090065Y0112854D03*
X0081797Y0112854D03*
X0073530Y0112854D03*
X0065262Y0112854D03*
X0056994Y0112854D03*
X0098333Y0098681D03*
X0098333Y0084508D03*
D26*
X0066356Y0047539D03*
D27*
X0101789Y0014861D03*
D28*
X0080616Y0135335D03*
X0074711Y0135335D03*
X0074711Y0139665D03*
X0080616Y0139665D03*
D29*
X0077049Y0193063D03*
X0050278Y0193063D03*
D30*
X0059726Y0184126D03*
X0067600Y0184126D03*
D31*
X0064313Y0150500D03*
X0058014Y0150500D03*
D32*
X0055163Y0160050D03*
X0055163Y0165950D03*
X0067663Y0165950D03*
X0067663Y0160050D03*
D33*
X0093211Y0164488D03*
X0093211Y0164488D03*
X0095179Y0164488D03*
X0097148Y0164488D03*
X0099116Y0164488D03*
X0099116Y0175512D03*
X0097148Y0175512D03*
X0095179Y0175512D03*
X0093211Y0175512D03*
D34*
X0096163Y0170000D03*
D35*
X0103163Y0168846D03*
X0103163Y0162154D03*
X0081163Y0162154D03*
X0081163Y0168846D03*
D36*
X0063148Y0164969D03*
X0061179Y0164969D03*
X0061179Y0163000D03*
X0061179Y0161031D03*
X0063148Y0161031D03*
X0063148Y0163000D03*
D37*
X0092663Y0181500D03*
X0097663Y0181500D03*
D38*
X0112663Y0199500D03*
M02*
