G75*
%MOIN*%
%OFA0B0*%
%FSLAX25Y25*%
%IPPOS*%
%LPD*%
%AMOC8*
5,1,8,0,0,1.08239X$1,22.5*
%
%ADD10R,0.03200X0.02600*%
%ADD11C,0.03162*%
%ADD12C,0.05131*%
%ADD13C,0.07700*%
%ADD14R,0.04737X0.05131*%
%ADD15R,0.04737X0.12611*%
%ADD16C,0.03556*%
%ADD17C,0.04343*%
%ADD18R,0.10643X0.10839*%
%ADD19R,0.01772X0.03543*%
%ADD20R,0.02600X0.03200*%
%ADD21R,0.02953X0.01181*%
%ADD22R,0.01181X0.02953*%
%ADD23R,0.03346X0.01181*%
%ADD24R,0.05131X0.08280*%
%ADD25R,0.01575X0.05118*%
%ADD26C,0.01457*%
%ADD27R,0.10236X0.10236*%
%ADD28R,0.10800X0.11300*%
%ADD29R,0.05800X0.03800*%
%ADD30R,0.09855X0.07296*%
%ADD31R,0.04900X0.03600*%
%ADD32R,0.03600X0.04900*%
%ADD33C,0.04762*%
D10*
X0086663Y0069100D03*
X0086663Y0072900D03*
X0053163Y0081600D03*
X0049663Y0081600D03*
X0049663Y0085400D03*
X0053163Y0085400D03*
X0052363Y0123900D03*
X0052363Y0127700D03*
X0068263Y0140600D03*
X0071763Y0140600D03*
X0075263Y0140600D03*
X0075263Y0144400D03*
X0071763Y0144400D03*
X0068263Y0144400D03*
X0062163Y0153100D03*
X0055663Y0153100D03*
X0052163Y0153100D03*
X0052163Y0156900D03*
X0055663Y0156900D03*
X0062163Y0156900D03*
X0065163Y0161100D03*
X0068663Y0161100D03*
X0072163Y0161100D03*
X0075663Y0161100D03*
X0079163Y0161100D03*
X0082663Y0161100D03*
X0086163Y0161100D03*
X0089663Y0161100D03*
X0089663Y0164900D03*
X0086163Y0164900D03*
X0082663Y0164900D03*
X0079163Y0164900D03*
X0075663Y0164900D03*
X0072163Y0164900D03*
X0068663Y0164900D03*
X0065163Y0164900D03*
X0088163Y0151400D03*
X0088163Y0147600D03*
X0088163Y0144400D03*
X0088163Y0140600D03*
X0102663Y0140600D03*
X0102663Y0144400D03*
X0102663Y0147600D03*
X0102663Y0151400D03*
X0102163Y0136400D03*
X0105663Y0136400D03*
X0105663Y0132600D03*
X0102163Y0132600D03*
X0102163Y0128400D03*
X0105663Y0128400D03*
X0105663Y0124600D03*
X0102163Y0124600D03*
X0068163Y0193600D03*
X0068163Y0197400D03*
D11*
X0086486Y0190232D03*
X0101841Y0190232D03*
D12*
X0105089Y0196335D02*
X0105089Y0200665D01*
X0083238Y0200665D02*
X0083238Y0196335D01*
D13*
X0042663Y0019500D03*
X0042663Y0029500D03*
X0042663Y0039500D03*
X0042663Y0049500D03*
X0042663Y0059500D03*
X0042663Y0069500D03*
X0042663Y0079500D03*
X0042663Y0089500D03*
X0042663Y0099500D03*
X0042663Y0109500D03*
X0042663Y0119500D03*
X0042663Y0129500D03*
X0042663Y0139500D03*
X0042663Y0149500D03*
X0042663Y0159500D03*
X0042663Y0169500D03*
X0042663Y0179500D03*
X0042663Y0189500D03*
X0112663Y0189500D03*
X0112663Y0179500D03*
X0112663Y0169500D03*
X0112663Y0159500D03*
X0112663Y0149500D03*
X0112663Y0139500D03*
X0112663Y0129500D03*
X0112663Y0119500D03*
X0112663Y0109500D03*
X0112663Y0099500D03*
X0112663Y0089500D03*
X0112663Y0079500D03*
X0112663Y0069500D03*
X0112663Y0059500D03*
X0112663Y0049500D03*
X0112663Y0039500D03*
X0112663Y0029500D03*
X0112663Y0019500D03*
D14*
X0094663Y0008365D03*
X0084663Y0008365D03*
X0074663Y0008365D03*
X0074663Y0054035D03*
X0084663Y0054035D03*
X0094663Y0054035D03*
D15*
X0105530Y0031200D03*
X0063797Y0031200D03*
D16*
X0066356Y0047539D03*
D17*
X0101789Y0014861D03*
D18*
X0054163Y0011959D03*
X0054163Y0031841D03*
D19*
X0053163Y0141760D03*
X0050604Y0141760D03*
X0055723Y0141760D03*
X0059604Y0141760D03*
X0062163Y0141760D03*
X0064723Y0141760D03*
X0064723Y0149240D03*
X0059604Y0149240D03*
X0055723Y0149240D03*
X0050604Y0149240D03*
D20*
X0092263Y0170000D03*
X0092263Y0173500D03*
X0096063Y0173500D03*
X0096063Y0170000D03*
X0096063Y0177000D03*
X0092263Y0177000D03*
X0078563Y0071500D03*
X0074763Y0071500D03*
X0070563Y0071500D03*
X0066763Y0071500D03*
X0061563Y0071500D03*
X0057763Y0071500D03*
X0053563Y0071500D03*
X0049763Y0071500D03*
X0090763Y0060500D03*
X0094563Y0060500D03*
D21*
X0092593Y0143138D03*
X0092593Y0144713D03*
X0092593Y0146287D03*
X0092593Y0147862D03*
X0098734Y0146287D03*
X0098734Y0144713D03*
X0098734Y0143138D03*
X0084734Y0143138D03*
X0084734Y0144713D03*
X0084734Y0146287D03*
X0078593Y0146287D03*
X0078593Y0144713D03*
X0078593Y0143138D03*
X0078593Y0147862D03*
D22*
X0079301Y0150146D03*
X0080876Y0150146D03*
X0082451Y0150146D03*
X0084026Y0150146D03*
X0093301Y0150146D03*
X0094876Y0150146D03*
X0096451Y0150146D03*
X0098026Y0150146D03*
X0098026Y0140854D03*
X0096451Y0140854D03*
X0094876Y0140854D03*
X0093301Y0140854D03*
X0084026Y0140854D03*
X0082451Y0140854D03*
X0080876Y0140854D03*
X0079301Y0140854D03*
D23*
X0084537Y0147862D03*
X0098537Y0147862D03*
D24*
X0077585Y0063500D03*
X0067742Y0063500D03*
X0060191Y0063783D03*
X0051136Y0063783D03*
X0051136Y0049217D03*
X0060191Y0049217D03*
D25*
G36*
X0070844Y0075688D02*
X0069731Y0076801D01*
X0073348Y0080418D01*
X0074461Y0079305D01*
X0070844Y0075688D01*
G37*
G36*
X0069452Y0077080D02*
X0068339Y0078193D01*
X0071956Y0081810D01*
X0073069Y0080697D01*
X0069452Y0077080D01*
G37*
G36*
X0068060Y0078472D02*
X0066947Y0079585D01*
X0070564Y0083202D01*
X0071677Y0082089D01*
X0068060Y0078472D01*
G37*
G36*
X0066668Y0079864D02*
X0065555Y0080977D01*
X0069172Y0084594D01*
X0070285Y0083481D01*
X0066668Y0079864D01*
G37*
G36*
X0065276Y0081256D02*
X0064163Y0082369D01*
X0067780Y0085986D01*
X0068893Y0084873D01*
X0065276Y0081256D01*
G37*
G36*
X0063884Y0082648D02*
X0062771Y0083761D01*
X0066388Y0087378D01*
X0067501Y0086265D01*
X0063884Y0082648D01*
G37*
G36*
X0062492Y0084040D02*
X0061379Y0085153D01*
X0064996Y0088770D01*
X0066109Y0087657D01*
X0062492Y0084040D01*
G37*
G36*
X0061100Y0085432D02*
X0059987Y0086545D01*
X0063604Y0090162D01*
X0064717Y0089049D01*
X0061100Y0085432D01*
G37*
G36*
X0059708Y0086824D02*
X0058595Y0087937D01*
X0062212Y0091554D01*
X0063325Y0090441D01*
X0059708Y0086824D01*
G37*
G36*
X0058316Y0088216D02*
X0057203Y0089329D01*
X0060820Y0092946D01*
X0061933Y0091833D01*
X0058316Y0088216D01*
G37*
G36*
X0056924Y0089608D02*
X0055811Y0090721D01*
X0059428Y0094338D01*
X0060541Y0093225D01*
X0056924Y0089608D01*
G37*
G36*
X0055532Y0090999D02*
X0054419Y0092112D01*
X0058036Y0095729D01*
X0059149Y0094616D01*
X0055532Y0090999D01*
G37*
G36*
X0054140Y0092391D02*
X0053027Y0093504D01*
X0056644Y0097121D01*
X0057757Y0096008D01*
X0054140Y0092391D01*
G37*
G36*
X0052748Y0093783D02*
X0051635Y0094896D01*
X0055252Y0098513D01*
X0056365Y0097400D01*
X0052748Y0093783D01*
G37*
G36*
X0051357Y0095175D02*
X0050244Y0096288D01*
X0053861Y0099905D01*
X0054974Y0098792D01*
X0051357Y0095175D01*
G37*
G36*
X0049965Y0096567D02*
X0048852Y0097680D01*
X0052469Y0101297D01*
X0053582Y0100184D01*
X0049965Y0096567D01*
G37*
G36*
X0053582Y0108816D02*
X0052469Y0107703D01*
X0048852Y0111320D01*
X0049965Y0112433D01*
X0053582Y0108816D01*
G37*
G36*
X0054974Y0110208D02*
X0053861Y0109095D01*
X0050244Y0112712D01*
X0051357Y0113825D01*
X0054974Y0110208D01*
G37*
G36*
X0056365Y0111600D02*
X0055252Y0110487D01*
X0051635Y0114104D01*
X0052748Y0115217D01*
X0056365Y0111600D01*
G37*
G36*
X0057757Y0112992D02*
X0056644Y0111879D01*
X0053027Y0115496D01*
X0054140Y0116609D01*
X0057757Y0112992D01*
G37*
G36*
X0059149Y0114384D02*
X0058036Y0113271D01*
X0054419Y0116888D01*
X0055532Y0118001D01*
X0059149Y0114384D01*
G37*
G36*
X0060541Y0115775D02*
X0059428Y0114662D01*
X0055811Y0118279D01*
X0056924Y0119392D01*
X0060541Y0115775D01*
G37*
G36*
X0061933Y0117167D02*
X0060820Y0116054D01*
X0057203Y0119671D01*
X0058316Y0120784D01*
X0061933Y0117167D01*
G37*
G36*
X0063325Y0118559D02*
X0062212Y0117446D01*
X0058595Y0121063D01*
X0059708Y0122176D01*
X0063325Y0118559D01*
G37*
G36*
X0064717Y0119951D02*
X0063604Y0118838D01*
X0059987Y0122455D01*
X0061100Y0123568D01*
X0064717Y0119951D01*
G37*
G36*
X0066109Y0121343D02*
X0064996Y0120230D01*
X0061379Y0123847D01*
X0062492Y0124960D01*
X0066109Y0121343D01*
G37*
G36*
X0067501Y0122735D02*
X0066388Y0121622D01*
X0062771Y0125239D01*
X0063884Y0126352D01*
X0067501Y0122735D01*
G37*
G36*
X0068893Y0124127D02*
X0067780Y0123014D01*
X0064163Y0126631D01*
X0065276Y0127744D01*
X0068893Y0124127D01*
G37*
G36*
X0070285Y0125519D02*
X0069172Y0124406D01*
X0065555Y0128023D01*
X0066668Y0129136D01*
X0070285Y0125519D01*
G37*
G36*
X0071677Y0126911D02*
X0070564Y0125798D01*
X0066947Y0129415D01*
X0068060Y0130528D01*
X0071677Y0126911D01*
G37*
G36*
X0073069Y0128303D02*
X0071956Y0127190D01*
X0068339Y0130807D01*
X0069452Y0131920D01*
X0073069Y0128303D01*
G37*
G36*
X0074461Y0129695D02*
X0073348Y0128582D01*
X0069731Y0132199D01*
X0070844Y0133312D01*
X0074461Y0129695D01*
G37*
G36*
X0081979Y0128582D02*
X0080866Y0129695D01*
X0084483Y0133312D01*
X0085596Y0132199D01*
X0081979Y0128582D01*
G37*
G36*
X0083371Y0127190D02*
X0082258Y0128303D01*
X0085875Y0131920D01*
X0086988Y0130807D01*
X0083371Y0127190D01*
G37*
G36*
X0084763Y0125798D02*
X0083650Y0126911D01*
X0087267Y0130528D01*
X0088380Y0129415D01*
X0084763Y0125798D01*
G37*
G36*
X0086155Y0124406D02*
X0085042Y0125519D01*
X0088659Y0129136D01*
X0089772Y0128023D01*
X0086155Y0124406D01*
G37*
G36*
X0087547Y0123014D02*
X0086434Y0124127D01*
X0090051Y0127744D01*
X0091164Y0126631D01*
X0087547Y0123014D01*
G37*
G36*
X0088939Y0121622D02*
X0087826Y0122735D01*
X0091443Y0126352D01*
X0092556Y0125239D01*
X0088939Y0121622D01*
G37*
G36*
X0090331Y0120230D02*
X0089218Y0121343D01*
X0092835Y0124960D01*
X0093948Y0123847D01*
X0090331Y0120230D01*
G37*
G36*
X0091723Y0118838D02*
X0090610Y0119951D01*
X0094227Y0123568D01*
X0095340Y0122455D01*
X0091723Y0118838D01*
G37*
G36*
X0093115Y0117446D02*
X0092002Y0118559D01*
X0095619Y0122176D01*
X0096732Y0121063D01*
X0093115Y0117446D01*
G37*
G36*
X0094507Y0116054D02*
X0093394Y0117167D01*
X0097011Y0120784D01*
X0098124Y0119671D01*
X0094507Y0116054D01*
G37*
G36*
X0095899Y0114662D02*
X0094786Y0115775D01*
X0098403Y0119392D01*
X0099516Y0118279D01*
X0095899Y0114662D01*
G37*
G36*
X0097291Y0113271D02*
X0096178Y0114384D01*
X0099795Y0118001D01*
X0100908Y0116888D01*
X0097291Y0113271D01*
G37*
G36*
X0098683Y0111879D02*
X0097570Y0112992D01*
X0101187Y0116609D01*
X0102300Y0115496D01*
X0098683Y0111879D01*
G37*
G36*
X0100075Y0110487D02*
X0098962Y0111600D01*
X0102579Y0115217D01*
X0103692Y0114104D01*
X0100075Y0110487D01*
G37*
G36*
X0101466Y0109095D02*
X0100353Y0110208D01*
X0103970Y0113825D01*
X0105083Y0112712D01*
X0101466Y0109095D01*
G37*
G36*
X0102858Y0107703D02*
X0101745Y0108816D01*
X0105362Y0112433D01*
X0106475Y0111320D01*
X0102858Y0107703D01*
G37*
G36*
X0106475Y0097680D02*
X0105362Y0096567D01*
X0101745Y0100184D01*
X0102858Y0101297D01*
X0106475Y0097680D01*
G37*
G36*
X0105083Y0096288D02*
X0103970Y0095175D01*
X0100353Y0098792D01*
X0101466Y0099905D01*
X0105083Y0096288D01*
G37*
G36*
X0103692Y0094896D02*
X0102579Y0093783D01*
X0098962Y0097400D01*
X0100075Y0098513D01*
X0103692Y0094896D01*
G37*
G36*
X0102300Y0093504D02*
X0101187Y0092391D01*
X0097570Y0096008D01*
X0098683Y0097121D01*
X0102300Y0093504D01*
G37*
G36*
X0100908Y0092112D02*
X0099795Y0090999D01*
X0096178Y0094616D01*
X0097291Y0095729D01*
X0100908Y0092112D01*
G37*
G36*
X0099516Y0090721D02*
X0098403Y0089608D01*
X0094786Y0093225D01*
X0095899Y0094338D01*
X0099516Y0090721D01*
G37*
G36*
X0098124Y0089329D02*
X0097011Y0088216D01*
X0093394Y0091833D01*
X0094507Y0092946D01*
X0098124Y0089329D01*
G37*
G36*
X0096732Y0087937D02*
X0095619Y0086824D01*
X0092002Y0090441D01*
X0093115Y0091554D01*
X0096732Y0087937D01*
G37*
G36*
X0095340Y0086545D02*
X0094227Y0085432D01*
X0090610Y0089049D01*
X0091723Y0090162D01*
X0095340Y0086545D01*
G37*
G36*
X0093948Y0085153D02*
X0092835Y0084040D01*
X0089218Y0087657D01*
X0090331Y0088770D01*
X0093948Y0085153D01*
G37*
G36*
X0092556Y0083761D02*
X0091443Y0082648D01*
X0087826Y0086265D01*
X0088939Y0087378D01*
X0092556Y0083761D01*
G37*
G36*
X0091164Y0082369D02*
X0090051Y0081256D01*
X0086434Y0084873D01*
X0087547Y0085986D01*
X0091164Y0082369D01*
G37*
G36*
X0089772Y0080977D02*
X0088659Y0079864D01*
X0085042Y0083481D01*
X0086155Y0084594D01*
X0089772Y0080977D01*
G37*
G36*
X0088380Y0079585D02*
X0087267Y0078472D01*
X0083650Y0082089D01*
X0084763Y0083202D01*
X0088380Y0079585D01*
G37*
G36*
X0086988Y0078193D02*
X0085875Y0077080D01*
X0082258Y0080697D01*
X0083371Y0081810D01*
X0086988Y0078193D01*
G37*
G36*
X0085596Y0076801D02*
X0084483Y0075688D01*
X0080866Y0079305D01*
X0081979Y0080418D01*
X0085596Y0076801D01*
G37*
D26*
X0082585Y0168642D02*
X0082585Y0170807D01*
X0080616Y0170807D02*
X0080616Y0168642D01*
X0078648Y0168642D02*
X0078648Y0170807D01*
X0076679Y0170807D02*
X0076679Y0168642D01*
X0074711Y0168642D02*
X0074711Y0170807D01*
X0072742Y0170807D02*
X0072742Y0168642D01*
X0070971Y0172579D02*
X0068805Y0172579D01*
X0068805Y0174547D02*
X0070971Y0174547D01*
X0070971Y0176516D02*
X0068805Y0176516D01*
X0068805Y0178484D02*
X0070971Y0178484D01*
X0070971Y0180453D02*
X0068805Y0180453D01*
X0068805Y0182421D02*
X0070971Y0182421D01*
X0072742Y0184193D02*
X0072742Y0186358D01*
X0074711Y0186358D02*
X0074711Y0184193D01*
X0076679Y0184193D02*
X0076679Y0186358D01*
X0078648Y0186358D02*
X0078648Y0184193D01*
X0080616Y0184193D02*
X0080616Y0186358D01*
X0082585Y0186358D02*
X0082585Y0184193D01*
X0084356Y0182421D02*
X0086522Y0182421D01*
X0086522Y0180453D02*
X0084356Y0180453D01*
X0084356Y0178484D02*
X0086522Y0178484D01*
X0086522Y0176516D02*
X0084356Y0176516D01*
X0084356Y0174547D02*
X0086522Y0174547D01*
X0086522Y0172579D02*
X0084356Y0172579D01*
D27*
X0077663Y0177500D03*
D28*
X0096663Y0197100D03*
D29*
X0096663Y0187850D03*
D30*
X0057663Y0185504D03*
X0057663Y0198496D03*
D31*
X0072663Y0199950D03*
X0078163Y0199950D03*
X0088463Y0199950D03*
X0088463Y0194050D03*
X0078163Y0194050D03*
X0072663Y0194050D03*
D32*
X0061113Y0179000D03*
X0055213Y0179000D03*
X0055213Y0173500D03*
X0061113Y0173500D03*
X0061113Y0168000D03*
X0055213Y0168000D03*
D33*
X0092663Y0181500D03*
X0097663Y0181500D03*
M02*
