G75*
%MOIN*%
%OFA0B0*%
%FSLAX25Y25*%
%IPPOS*%
%LPD*%
%AMOC8*
5,1,8,0,0,1.08239X$1,22.5*
%
%ADD10R,0.01575X0.05315*%
%ADD11R,0.05906X0.07480*%
%ADD12C,0.04331*%
%ADD13R,0.04921X0.02559*%
%ADD14R,0.03150X0.03150*%
%ADD15R,0.02400X0.01800*%
%ADD16C,0.06900*%
%ADD17R,0.04134X0.08661*%
%ADD18R,0.03937X0.04134*%
%ADD19R,0.01800X0.02400*%
%ADD20R,0.03150X0.05906*%
%ADD21R,0.05906X0.03150*%
%ADD22C,0.01969*%
%ADD23R,0.04331X0.04331*%
%ADD24R,0.03937X0.03150*%
%ADD25C,0.02781*%
%ADD26R,0.06299X0.11811*%
%ADD27R,0.03937X0.21654*%
%ADD28R,0.03150X0.04724*%
%ADD29R,0.04100X0.02800*%
%ADD30R,0.07402X0.06811*%
%ADD31R,0.01181X0.03150*%
%ADD32R,0.03937X0.04331*%
%ADD33C,0.01181*%
%ADD34C,0.03962*%
%ADD35C,0.01600*%
%ADD36C,0.02381*%
%ADD37C,0.01200*%
%ADD38C,0.00800*%
%ADD39C,0.00600*%
%ADD40C,0.01000*%
%ADD41C,0.02400*%
%ADD42C,0.01300*%
%ADD43C,0.02000*%
D10*
X0089045Y0187969D03*
X0091604Y0187969D03*
X0094163Y0187969D03*
X0096723Y0187969D03*
X0099282Y0187969D03*
D11*
X0098100Y0198500D03*
X0090226Y0198461D03*
D12*
X0083238Y0196335D02*
X0083238Y0200665D01*
X0105089Y0200665D02*
X0105089Y0196335D01*
D13*
X0102545Y0140551D03*
X0102545Y0134449D03*
X0087782Y0134449D03*
X0087782Y0140551D03*
X0067545Y0140551D03*
X0067545Y0134449D03*
X0052782Y0134449D03*
X0052782Y0140551D03*
D14*
X0072663Y0162047D03*
X0072663Y0167953D03*
X0097711Y0149000D03*
X0103616Y0149000D03*
D15*
X0092663Y0149900D03*
X0089163Y0149900D03*
X0085663Y0149900D03*
X0085663Y0146100D03*
X0089163Y0146100D03*
X0092663Y0146100D03*
X0099163Y0157100D03*
X0099163Y0160900D03*
X0088663Y0161100D03*
X0088663Y0164900D03*
X0076663Y0164900D03*
X0076663Y0161100D03*
X0077663Y0016400D03*
X0081663Y0016400D03*
X0089663Y0016400D03*
X0089663Y0012600D03*
X0081663Y0012600D03*
X0077663Y0012600D03*
X0097663Y0012600D03*
X0097663Y0016400D03*
D16*
X0112663Y0019500D03*
X0112663Y0029500D03*
X0112663Y0039500D03*
X0112663Y0049500D03*
X0112663Y0059500D03*
X0112663Y0069500D03*
X0112663Y0079500D03*
X0112663Y0089500D03*
X0112663Y0099500D03*
X0112663Y0109500D03*
X0112663Y0119500D03*
X0112663Y0129500D03*
X0112663Y0139500D03*
X0112663Y0149500D03*
X0112663Y0159500D03*
X0112663Y0169500D03*
X0112663Y0179500D03*
X0112663Y0189500D03*
X0042663Y0189500D03*
X0042663Y0179500D03*
X0042663Y0169500D03*
X0042663Y0159500D03*
X0042663Y0149500D03*
X0042663Y0139500D03*
X0042663Y0129500D03*
X0042663Y0119500D03*
X0042663Y0109500D03*
X0042663Y0099500D03*
X0042663Y0089500D03*
X0042663Y0079500D03*
X0042663Y0069500D03*
X0042663Y0059500D03*
X0042663Y0049500D03*
X0042663Y0039500D03*
X0042663Y0029500D03*
X0042663Y0019500D03*
D17*
X0058856Y0010500D03*
X0070471Y0010500D03*
D18*
X0064663Y0016514D03*
D19*
X0052563Y0018000D03*
X0048763Y0018000D03*
X0048763Y0014500D03*
X0048763Y0011000D03*
X0052563Y0011000D03*
X0052563Y0014500D03*
X0052563Y0007500D03*
X0048763Y0007500D03*
X0066263Y0129000D03*
X0070063Y0129000D03*
X0073263Y0129000D03*
X0077063Y0129000D03*
X0077063Y0146000D03*
X0073263Y0146000D03*
X0101263Y0179000D03*
X0105063Y0179000D03*
D20*
X0099317Y0119547D03*
X0094986Y0119547D03*
X0090656Y0119547D03*
X0086325Y0119547D03*
X0081994Y0119547D03*
X0077663Y0119547D03*
X0073333Y0119547D03*
X0069002Y0119547D03*
X0064671Y0119547D03*
X0060341Y0119547D03*
X0056010Y0119547D03*
X0056010Y0025453D03*
X0060341Y0025453D03*
X0064671Y0025453D03*
X0069002Y0025453D03*
X0073333Y0025453D03*
X0077663Y0025453D03*
X0081994Y0025453D03*
X0086325Y0025453D03*
X0090656Y0025453D03*
X0094986Y0025453D03*
X0099317Y0025453D03*
D21*
X0105026Y0029193D03*
X0105026Y0033524D03*
X0105026Y0037854D03*
X0105026Y0042185D03*
X0105026Y0046516D03*
X0105026Y0050846D03*
X0105026Y0055177D03*
X0105026Y0059508D03*
X0105026Y0063839D03*
X0105026Y0068169D03*
X0105026Y0072500D03*
X0105026Y0076831D03*
X0105026Y0081161D03*
X0105026Y0085492D03*
X0105026Y0089823D03*
X0105026Y0094154D03*
X0105026Y0098484D03*
X0105026Y0102815D03*
X0105026Y0107146D03*
X0105026Y0111476D03*
X0105026Y0115807D03*
X0050301Y0115807D03*
X0050301Y0111476D03*
X0050301Y0107146D03*
X0050301Y0102815D03*
X0050301Y0098484D03*
X0050301Y0094154D03*
X0050301Y0089823D03*
X0050301Y0085492D03*
X0050301Y0081161D03*
X0050301Y0076831D03*
X0050301Y0072500D03*
X0050301Y0068169D03*
X0050301Y0063839D03*
X0050301Y0059508D03*
X0050301Y0055177D03*
X0050301Y0050846D03*
X0050301Y0046516D03*
X0050301Y0042185D03*
X0050301Y0037854D03*
X0050301Y0033524D03*
X0050301Y0029193D03*
D22*
X0105223Y0025256D03*
D23*
X0098333Y0032146D03*
X0090065Y0032146D03*
X0081797Y0032146D03*
X0073530Y0032146D03*
X0065262Y0032146D03*
X0056994Y0032146D03*
X0056994Y0039232D03*
X0065262Y0039232D03*
X0073530Y0039232D03*
X0081797Y0039232D03*
X0090065Y0039232D03*
X0098333Y0039232D03*
X0098333Y0046319D03*
X0098333Y0060492D03*
X0056994Y0060492D03*
X0056994Y0046319D03*
X0056994Y0084508D03*
X0056994Y0098681D03*
X0056994Y0105768D03*
X0065262Y0105768D03*
X0073530Y0105768D03*
X0081797Y0105768D03*
X0090065Y0105768D03*
X0098333Y0105768D03*
X0098333Y0112854D03*
X0090065Y0112854D03*
X0081797Y0112854D03*
X0073530Y0112854D03*
X0065262Y0112854D03*
X0056994Y0112854D03*
X0098333Y0098681D03*
X0098333Y0084508D03*
D24*
X0080616Y0135335D03*
X0074711Y0135335D03*
X0074711Y0139665D03*
X0080616Y0139665D03*
D25*
X0081207Y0173957D03*
X0081207Y0177500D03*
X0077663Y0177500D03*
X0074120Y0177500D03*
X0074120Y0173957D03*
X0077663Y0173957D03*
X0077663Y0181043D03*
X0074120Y0181043D03*
X0081207Y0181043D03*
D26*
X0077049Y0193063D03*
X0050278Y0193063D03*
D27*
X0059726Y0184126D03*
X0067600Y0184126D03*
D28*
X0064707Y0152000D03*
X0057620Y0152000D03*
D29*
X0055163Y0160050D03*
X0055163Y0165950D03*
X0067663Y0165950D03*
X0067663Y0160050D03*
D30*
X0096163Y0170000D03*
D31*
X0095179Y0175512D03*
X0093211Y0175512D03*
X0097148Y0175512D03*
X0099116Y0175512D03*
X0099116Y0164488D03*
X0097148Y0164488D03*
X0095179Y0164488D03*
X0093211Y0164488D03*
D32*
X0103163Y0162154D03*
X0103163Y0168846D03*
X0081163Y0168846D03*
X0081163Y0162154D03*
D33*
X0063148Y0163000D03*
X0063148Y0161031D03*
X0061179Y0161031D03*
X0061179Y0163000D03*
X0061179Y0164969D03*
X0063148Y0164969D03*
D34*
X0092663Y0181500D03*
X0097663Y0181500D03*
D35*
X0096723Y0182441D01*
X0096723Y0187969D01*
X0094163Y0187969D02*
X0094163Y0183000D01*
X0092663Y0181500D01*
X0099317Y0085492D02*
X0098333Y0084508D01*
X0099317Y0085492D02*
X0105026Y0085492D01*
X0062663Y0077000D02*
X0059163Y0080500D01*
X0050963Y0080500D01*
X0050301Y0081161D01*
X0062663Y0077000D02*
X0062663Y0046000D01*
X0064663Y0044000D01*
X0067663Y0044000D01*
X0098333Y0039232D02*
X0099711Y0037854D01*
X0105026Y0037854D01*
X0105026Y0029193D02*
X0104833Y0029000D01*
X0102663Y0029000D01*
X0099317Y0025654D01*
X0099317Y0025453D01*
X0097663Y0012600D02*
X0097663Y0010000D01*
X0099163Y0008500D01*
X0089663Y0009000D02*
X0089163Y0008500D01*
X0089663Y0009000D02*
X0089663Y0012600D01*
X0081663Y0012600D02*
X0079663Y0012600D01*
X0079663Y0009000D01*
X0079163Y0008500D01*
X0079663Y0012600D02*
X0077663Y0012600D01*
X0052563Y0011000D02*
X0052563Y0007500D01*
X0052563Y0011000D02*
X0052563Y0014500D01*
X0052563Y0018000D01*
D36*
X0056163Y0020000D03*
X0060163Y0020000D03*
X0050163Y0021500D03*
X0050163Y0024500D03*
X0071163Y0020000D03*
X0076163Y0020000D03*
X0082663Y0020000D03*
X0087163Y0020000D03*
X0093663Y0020000D03*
X0098663Y0020000D03*
X0104163Y0020000D03*
X0109663Y0014500D03*
X0109663Y0011000D03*
X0109663Y0007500D03*
X0099163Y0008500D03*
X0089163Y0008500D03*
X0079163Y0008500D03*
X0045663Y0007500D03*
X0045663Y0011000D03*
X0045663Y0014500D03*
X0077663Y0030500D03*
X0085963Y0032000D03*
X0094163Y0032000D03*
X0094163Y0039000D03*
X0077163Y0044000D03*
X0072163Y0044000D03*
X0067663Y0044000D03*
X0061163Y0043000D03*
X0061163Y0039500D03*
X0045163Y0044500D03*
X0059163Y0056000D03*
X0066163Y0057000D03*
X0079663Y0048000D03*
X0087163Y0059500D03*
X0082663Y0061500D03*
X0088163Y0063000D03*
X0095163Y0064500D03*
X0099663Y0065000D03*
X0095163Y0070000D03*
X0090163Y0070000D03*
X0087863Y0075700D03*
X0095163Y0075000D03*
X0080163Y0081500D03*
X0077163Y0083500D03*
X0075663Y0086500D03*
X0072663Y0086000D03*
X0080163Y0090000D03*
X0084163Y0093000D03*
X0089163Y0093500D03*
X0091163Y0096000D03*
X0091163Y0100000D03*
X0094163Y0100000D03*
X0083163Y0098000D03*
X0085963Y0106000D03*
X0094163Y0105000D03*
X0085863Y0109300D03*
X0094163Y0111500D03*
X0077663Y0113000D03*
X0077463Y0109500D03*
X0069763Y0109200D03*
X0061163Y0110500D03*
X0061163Y0107500D03*
X0061163Y0113500D03*
X0069363Y0113900D03*
X0052163Y0119500D03*
X0049663Y0121500D03*
X0049363Y0124500D03*
X0062163Y0129500D03*
X0060663Y0132500D03*
X0058663Y0135000D03*
X0058663Y0138000D03*
X0070963Y0137600D03*
X0079863Y0131600D03*
X0079663Y0127200D03*
X0076163Y0124300D03*
X0083163Y0124300D03*
X0092663Y0128500D03*
X0094363Y0131300D03*
X0092663Y0134000D03*
X0090863Y0131300D03*
X0097663Y0133500D03*
X0084463Y0137500D03*
X0095663Y0145500D03*
X0081663Y0146300D03*
X0076763Y0150400D03*
X0077363Y0153500D03*
X0079163Y0156000D03*
X0077363Y0158400D03*
X0074363Y0158300D03*
X0074663Y0155000D03*
X0071663Y0154000D03*
X0073863Y0151700D03*
X0071863Y0149100D03*
X0068863Y0150000D03*
X0068963Y0156700D03*
X0065963Y0156700D03*
X0058763Y0157100D03*
X0050863Y0160000D03*
X0050863Y0162600D03*
X0047663Y0166000D03*
X0051163Y0169000D03*
X0058763Y0163000D03*
X0064363Y0169400D03*
X0065263Y0171100D03*
X0068163Y0169300D03*
X0087863Y0170500D03*
X0089163Y0167700D03*
X0088963Y0173500D03*
X0088963Y0176500D03*
X0101663Y0176000D03*
X0102463Y0173000D03*
X0102163Y0185500D03*
X0104663Y0185500D03*
X0086463Y0184800D03*
X0084963Y0186000D03*
X0071663Y0190500D03*
X0051163Y0185000D03*
X0051163Y0182000D03*
X0081263Y0158200D03*
X0084263Y0158200D03*
X0082163Y0155300D03*
X0086563Y0154100D03*
X0094163Y0154500D03*
X0096163Y0157000D03*
X0093163Y0157700D03*
X0101163Y0154500D03*
X0102163Y0158000D03*
X0110663Y0114500D03*
X0067163Y0101000D03*
X0064163Y0101000D03*
X0061163Y0101000D03*
X0062663Y0098000D03*
X0066163Y0098000D03*
X0066663Y0095000D03*
X0082163Y0087500D03*
X0085163Y0088000D03*
X0100163Y0088500D03*
X0110663Y0084500D03*
X0073463Y0068400D03*
X0059163Y0076500D03*
X0060963Y0082500D03*
X0044663Y0094500D03*
X0044663Y0104500D03*
X0110663Y0064500D03*
X0099163Y0056500D03*
X0099163Y0051500D03*
D37*
X0070963Y0137600D02*
X0070963Y0138300D01*
X0071663Y0139000D01*
X0074045Y0139000D01*
X0074711Y0139665D01*
X0092663Y0149900D02*
X0096811Y0149900D01*
X0097711Y0149000D01*
X0077363Y0158400D02*
X0076663Y0159100D01*
X0076663Y0161100D01*
X0076663Y0164900D02*
X0076663Y0167500D01*
X0075663Y0168500D01*
X0073211Y0168500D01*
X0072663Y0167953D01*
X0072663Y0162047D02*
X0071663Y0161047D01*
X0071663Y0157500D01*
X0074163Y0155000D01*
X0074663Y0155000D01*
X0081163Y0162154D02*
X0082217Y0161100D01*
X0088663Y0161100D01*
X0094263Y0161100D01*
X0095179Y0162016D01*
X0095179Y0164488D01*
X0097148Y0164488D02*
X0097148Y0162016D01*
X0098163Y0161000D01*
X0099063Y0161000D01*
X0099163Y0160900D01*
X0101910Y0160900D01*
X0103163Y0162154D01*
X0103163Y0168846D02*
X0102463Y0169546D01*
X0102463Y0173000D01*
X0105063Y0175600D01*
X0105063Y0179000D01*
X0101263Y0179000D02*
X0101263Y0176400D01*
X0101663Y0176000D01*
X0099116Y0176000D01*
X0099116Y0175512D01*
D38*
X0095179Y0175512D02*
X0095163Y0175528D01*
X0095163Y0177500D01*
X0094463Y0178200D01*
X0091863Y0178200D01*
X0091163Y0177500D01*
X0091163Y0175600D01*
X0089063Y0173500D01*
X0088963Y0173500D01*
X0091263Y0173700D02*
X0091263Y0172500D01*
X0089263Y0170500D01*
X0087863Y0170500D01*
X0081163Y0168846D02*
X0079010Y0171000D01*
X0071163Y0171000D01*
X0070263Y0171900D01*
X0066063Y0171900D01*
X0065263Y0171100D01*
X0084363Y0155100D02*
X0085763Y0156500D01*
X0087663Y0156500D01*
X0089163Y0155000D01*
X0089163Y0153500D01*
X0090663Y0152000D01*
X0102663Y0152000D01*
X0106163Y0155500D01*
X0106163Y0173000D01*
X0112663Y0179500D01*
X0093211Y0175512D02*
X0093075Y0175512D01*
X0091263Y0173700D01*
X0084363Y0155100D02*
X0084363Y0152800D01*
X0085663Y0151500D01*
X0085663Y0149900D01*
X0085663Y0149600D01*
X0085863Y0149600D01*
X0089163Y0146300D01*
X0089163Y0146100D01*
X0089163Y0144800D01*
X0089863Y0144100D01*
X0091163Y0144100D01*
X0094712Y0140551D01*
X0102545Y0140551D01*
X0099163Y0145500D02*
X0096663Y0143000D01*
X0094663Y0143000D01*
X0092663Y0145000D01*
X0092663Y0146100D01*
X0085663Y0146100D02*
X0085463Y0146300D01*
X0081663Y0146300D01*
X0077063Y0146000D02*
X0077063Y0143218D01*
X0080616Y0139665D01*
X0080616Y0135335D02*
X0079998Y0135335D01*
X0077063Y0132400D01*
X0077063Y0129000D01*
X0077163Y0126500D02*
X0075163Y0126500D01*
X0073663Y0125000D01*
X0058163Y0125000D01*
X0052782Y0130382D01*
X0052782Y0134449D01*
X0058163Y0134500D02*
X0058663Y0135000D01*
X0058163Y0134500D02*
X0058163Y0130000D01*
X0061663Y0126500D01*
X0071163Y0126500D01*
X0073263Y0128600D01*
X0073263Y0129000D01*
X0070063Y0129000D02*
X0070063Y0131400D01*
X0073998Y0135335D01*
X0074711Y0135335D01*
X0063163Y0135000D02*
X0060663Y0132500D01*
X0062163Y0129500D02*
X0062663Y0129000D01*
X0066263Y0129000D01*
X0063163Y0135000D02*
X0063163Y0142000D01*
X0064163Y0143000D01*
X0070263Y0143000D01*
X0073263Y0146000D01*
X0099163Y0145500D02*
X0108663Y0145500D01*
X0112663Y0149500D01*
X0092663Y0128500D02*
X0089163Y0125000D01*
X0085663Y0125000D01*
X0084163Y0126500D01*
X0082163Y0126500D01*
X0080663Y0125000D01*
X0078663Y0125000D01*
X0077163Y0126500D01*
X0084163Y0102500D02*
X0080163Y0098500D01*
X0080163Y0095500D01*
X0072663Y0088000D01*
X0072663Y0086000D01*
X0075663Y0086500D02*
X0075663Y0089000D01*
X0079163Y0092500D01*
X0081163Y0092500D01*
X0083163Y0090500D01*
X0086163Y0090500D01*
X0087163Y0089500D01*
X0097663Y0089500D01*
X0099163Y0091000D01*
X0103849Y0091000D01*
X0105026Y0089823D01*
X0105026Y0081161D02*
X0104364Y0080500D01*
X0094163Y0080500D01*
X0086663Y0088000D01*
X0085163Y0088000D01*
X0084163Y0085500D02*
X0082163Y0087500D01*
X0079663Y0086500D02*
X0079663Y0089500D01*
X0080163Y0090000D01*
X0079663Y0086500D02*
X0083163Y0083000D01*
X0087663Y0083000D01*
X0091163Y0079500D01*
X0091163Y0073500D01*
X0092663Y0072000D01*
X0092663Y0059000D01*
X0097663Y0054000D01*
X0103849Y0054000D01*
X0105026Y0055177D01*
X0095663Y0042500D02*
X0091163Y0047000D01*
X0091163Y0069000D01*
X0090163Y0070000D01*
X0094163Y0072500D02*
X0092663Y0074000D01*
X0092663Y0080000D01*
X0087163Y0085500D01*
X0084163Y0085500D01*
X0077163Y0083500D02*
X0077163Y0056000D01*
X0085663Y0047500D01*
X0085663Y0037000D01*
X0087163Y0035500D01*
X0101163Y0035500D01*
X0103140Y0033524D01*
X0105026Y0033524D01*
X0105026Y0042185D02*
X0104711Y0042500D01*
X0095663Y0042500D01*
X0082663Y0046000D02*
X0082663Y0048500D01*
X0068163Y0063000D01*
X0068163Y0084000D01*
X0058010Y0094154D01*
X0050301Y0094154D01*
X0050301Y0089823D02*
X0060341Y0089823D01*
X0066663Y0083500D01*
X0066663Y0062500D01*
X0079663Y0049500D01*
X0079663Y0048000D01*
X0082663Y0046000D02*
X0080663Y0044000D01*
X0077163Y0044000D01*
X0072163Y0044000D02*
X0072163Y0055000D01*
X0065163Y0062000D01*
X0065163Y0083000D01*
X0060163Y0088000D01*
X0054663Y0088000D01*
X0052156Y0085492D01*
X0050301Y0085492D01*
X0084163Y0102500D02*
X0104711Y0102500D01*
X0105026Y0102815D01*
X0105026Y0076831D02*
X0096994Y0076831D01*
X0095163Y0075000D01*
X0094163Y0072500D02*
X0105026Y0072500D01*
X0104695Y0068500D02*
X0096663Y0068500D01*
X0095163Y0070000D01*
X0104695Y0068500D02*
X0105026Y0068169D01*
D39*
X0038963Y0017066D02*
X0038963Y0014807D01*
X0043467Y0005800D01*
X0046963Y0005800D01*
X0046963Y0018514D01*
X0046351Y0017036D01*
X0045128Y0015812D01*
X0043529Y0015150D01*
X0041798Y0015150D01*
X0040199Y0015812D01*
X0038976Y0017036D01*
X0038963Y0017066D01*
X0038963Y0016470D02*
X0039541Y0016470D01*
X0038963Y0015872D02*
X0040140Y0015872D01*
X0038963Y0015273D02*
X0041501Y0015273D01*
X0043826Y0015273D02*
X0046963Y0015273D01*
X0046963Y0014675D02*
X0039030Y0014675D01*
X0039329Y0014076D02*
X0046963Y0014076D01*
X0046963Y0013478D02*
X0039628Y0013478D01*
X0039927Y0012879D02*
X0046963Y0012879D01*
X0046963Y0012281D02*
X0040227Y0012281D01*
X0040526Y0011682D02*
X0046963Y0011682D01*
X0046963Y0011084D02*
X0040825Y0011084D01*
X0041124Y0010485D02*
X0046963Y0010485D01*
X0046963Y0009887D02*
X0041424Y0009887D01*
X0041723Y0009288D02*
X0046963Y0009288D01*
X0046963Y0008690D02*
X0042022Y0008690D01*
X0042321Y0008091D02*
X0046963Y0008091D01*
X0046963Y0007493D02*
X0042621Y0007493D01*
X0042920Y0006894D02*
X0046963Y0006894D01*
X0046963Y0006296D02*
X0043219Y0006296D01*
X0048163Y0006296D02*
X0050663Y0006296D01*
X0050663Y0005800D02*
X0048163Y0005800D01*
X0048163Y0021000D01*
X0047163Y0022000D01*
X0047163Y0039500D01*
X0053163Y0039500D01*
X0053163Y0022000D01*
X0050663Y0019500D01*
X0050663Y0005800D01*
X0050663Y0006894D02*
X0048163Y0006894D01*
X0048163Y0007493D02*
X0050663Y0007493D01*
X0050663Y0008091D02*
X0048163Y0008091D01*
X0048163Y0008690D02*
X0050663Y0008690D01*
X0050663Y0009288D02*
X0048163Y0009288D01*
X0048163Y0009887D02*
X0050663Y0009887D01*
X0050663Y0010485D02*
X0048163Y0010485D01*
X0048163Y0011084D02*
X0050663Y0011084D01*
X0050663Y0011682D02*
X0048163Y0011682D01*
X0048163Y0012281D02*
X0050663Y0012281D01*
X0050663Y0012879D02*
X0048163Y0012879D01*
X0048163Y0013478D02*
X0050663Y0013478D01*
X0050663Y0014076D02*
X0048163Y0014076D01*
X0048163Y0014675D02*
X0050663Y0014675D01*
X0050663Y0015273D02*
X0048163Y0015273D01*
X0048163Y0015872D02*
X0050663Y0015872D01*
X0050663Y0016470D02*
X0048163Y0016470D01*
X0048163Y0017069D02*
X0050663Y0017069D01*
X0050663Y0017667D02*
X0048163Y0017667D01*
X0048163Y0018266D02*
X0050663Y0018266D01*
X0050663Y0018864D02*
X0048163Y0018864D01*
X0048163Y0019463D02*
X0050663Y0019463D01*
X0051225Y0020061D02*
X0048163Y0020061D01*
X0048163Y0020660D02*
X0051823Y0020660D01*
X0052422Y0021258D02*
X0047905Y0021258D01*
X0047307Y0021857D02*
X0053020Y0021857D01*
X0053163Y0022455D02*
X0047163Y0022455D01*
X0047163Y0023054D02*
X0053163Y0023054D01*
X0053163Y0023652D02*
X0047163Y0023652D01*
X0047163Y0024251D02*
X0053163Y0024251D01*
X0053163Y0024849D02*
X0047163Y0024849D01*
X0047163Y0025448D02*
X0053163Y0025448D01*
X0053163Y0026046D02*
X0047163Y0026046D01*
X0047163Y0026645D02*
X0053163Y0026645D01*
X0053163Y0027243D02*
X0047163Y0027243D01*
X0047163Y0027842D02*
X0053163Y0027842D01*
X0053163Y0028440D02*
X0047163Y0028440D01*
X0047163Y0029039D02*
X0053163Y0029039D01*
X0053163Y0029637D02*
X0047163Y0029637D01*
X0047163Y0030236D02*
X0053163Y0030236D01*
X0053163Y0030834D02*
X0047163Y0030834D01*
X0047163Y0031433D02*
X0053163Y0031433D01*
X0053163Y0032032D02*
X0047163Y0032032D01*
X0047163Y0032630D02*
X0053163Y0032630D01*
X0053163Y0033229D02*
X0047163Y0033229D01*
X0047163Y0033827D02*
X0053163Y0033827D01*
X0053163Y0034426D02*
X0047163Y0034426D01*
X0047163Y0035024D02*
X0053163Y0035024D01*
X0053163Y0035623D02*
X0047163Y0035623D01*
X0047163Y0036221D02*
X0053163Y0036221D01*
X0053163Y0036820D02*
X0047163Y0036820D01*
X0047163Y0037418D02*
X0053163Y0037418D01*
X0053163Y0038017D02*
X0047163Y0038017D01*
X0047163Y0038615D02*
X0053163Y0038615D01*
X0053163Y0039214D02*
X0047163Y0039214D01*
X0046875Y0040700D02*
X0046351Y0041964D01*
X0045128Y0043188D01*
X0043529Y0043850D01*
X0041798Y0043850D01*
X0040199Y0043188D01*
X0038976Y0041964D01*
X0038963Y0041934D01*
X0038963Y0047066D01*
X0038976Y0047036D01*
X0040199Y0045812D01*
X0041798Y0045150D01*
X0043529Y0045150D01*
X0045128Y0045812D01*
X0046351Y0047036D01*
X0046449Y0047271D01*
X0046449Y0044568D01*
X0046976Y0044041D01*
X0053627Y0044041D01*
X0054154Y0044568D01*
X0054154Y0048463D01*
X0053936Y0048681D01*
X0054154Y0048899D01*
X0054154Y0052794D01*
X0053936Y0053012D01*
X0054154Y0053230D01*
X0054154Y0057125D01*
X0053936Y0057343D01*
X0054154Y0057560D01*
X0054154Y0061455D01*
X0053936Y0061673D01*
X0054154Y0061891D01*
X0054154Y0065786D01*
X0053936Y0066004D01*
X0054154Y0066222D01*
X0054154Y0070117D01*
X0053627Y0070644D01*
X0046976Y0070644D01*
X0046921Y0070589D01*
X0046351Y0071964D01*
X0045128Y0073188D01*
X0043529Y0073850D01*
X0041798Y0073850D01*
X0040199Y0073188D01*
X0038976Y0071964D01*
X0038963Y0071934D01*
X0038963Y0077066D01*
X0038976Y0077036D01*
X0040199Y0075812D01*
X0041798Y0075150D01*
X0043529Y0075150D01*
X0045128Y0075812D01*
X0046351Y0077036D01*
X0046449Y0077271D01*
X0046449Y0074883D01*
X0046976Y0074356D01*
X0053627Y0074356D01*
X0054154Y0074883D01*
X0054154Y0078778D01*
X0054132Y0078800D01*
X0058459Y0078800D01*
X0060963Y0076296D01*
X0060963Y0045296D01*
X0062963Y0043296D01*
X0063959Y0042300D01*
X0066407Y0042300D01*
X0066798Y0041909D01*
X0068529Y0041909D01*
X0069754Y0043134D01*
X0069754Y0044866D01*
X0068529Y0046091D01*
X0068130Y0046091D01*
X0068634Y0046595D01*
X0068634Y0048482D01*
X0067300Y0049817D01*
X0065413Y0049817D01*
X0064363Y0048767D01*
X0064363Y0060962D01*
X0070863Y0054462D01*
X0070863Y0045656D01*
X0070073Y0044866D01*
X0070073Y0043134D01*
X0071298Y0041909D01*
X0073029Y0041909D01*
X0074254Y0043134D01*
X0074254Y0044866D01*
X0073463Y0045656D01*
X0073463Y0053862D01*
X0078016Y0049309D01*
X0077573Y0048866D01*
X0077573Y0047134D01*
X0078798Y0045909D01*
X0080529Y0045909D01*
X0081363Y0046744D01*
X0081363Y0046538D01*
X0080125Y0045300D01*
X0078820Y0045300D01*
X0078029Y0046091D01*
X0076298Y0046091D01*
X0075073Y0044866D01*
X0075073Y0043134D01*
X0076298Y0041909D01*
X0078029Y0041909D01*
X0078820Y0042700D01*
X0081202Y0042700D01*
X0081963Y0043462D01*
X0083963Y0045462D01*
X0083963Y0047362D01*
X0084363Y0046962D01*
X0084363Y0036462D01*
X0085125Y0035700D01*
X0086625Y0034200D01*
X0100625Y0034200D01*
X0101173Y0033652D01*
X0101173Y0031576D01*
X0101700Y0031049D01*
X0108351Y0031049D01*
X0108770Y0031468D01*
X0108313Y0030365D01*
X0108313Y0028635D01*
X0108976Y0027036D01*
X0110199Y0025812D01*
X0111798Y0025150D01*
X0113529Y0025150D01*
X0115128Y0025812D01*
X0116351Y0027036D01*
X0116363Y0027066D01*
X0116363Y0021934D01*
X0116351Y0021964D01*
X0115128Y0023188D01*
X0113529Y0023850D01*
X0111798Y0023850D01*
X0110199Y0023188D01*
X0108976Y0021964D01*
X0108313Y0020365D01*
X0108313Y0018635D01*
X0108976Y0017036D01*
X0110199Y0015812D01*
X0111798Y0015150D01*
X0113529Y0015150D01*
X0115128Y0015812D01*
X0116351Y0017036D01*
X0116363Y0017066D01*
X0116363Y0014807D01*
X0111860Y0005800D01*
X0051863Y0005800D01*
X0051863Y0019003D01*
X0054363Y0021503D01*
X0054363Y0039997D01*
X0053661Y0040700D01*
X0046875Y0040700D01*
X0046747Y0041009D02*
X0084363Y0041009D01*
X0084363Y0040411D02*
X0053950Y0040411D01*
X0054363Y0039812D02*
X0084363Y0039812D01*
X0084363Y0039214D02*
X0054363Y0039214D01*
X0054363Y0038615D02*
X0084363Y0038615D01*
X0084363Y0038017D02*
X0054363Y0038017D01*
X0054363Y0037418D02*
X0084363Y0037418D01*
X0084363Y0036820D02*
X0054363Y0036820D01*
X0054363Y0036221D02*
X0084604Y0036221D01*
X0085202Y0035623D02*
X0054363Y0035623D01*
X0054363Y0035024D02*
X0085801Y0035024D01*
X0086399Y0034426D02*
X0054363Y0034426D01*
X0054363Y0033827D02*
X0100998Y0033827D01*
X0101173Y0033229D02*
X0054363Y0033229D01*
X0054363Y0032630D02*
X0101173Y0032630D01*
X0101173Y0032032D02*
X0054363Y0032032D01*
X0054363Y0031433D02*
X0101316Y0031433D01*
X0102504Y0035998D02*
X0102463Y0036038D01*
X0101702Y0036800D01*
X0087702Y0036800D01*
X0086963Y0037538D01*
X0086963Y0048038D01*
X0078463Y0056538D01*
X0078463Y0080244D01*
X0079298Y0079409D01*
X0081029Y0079409D01*
X0082254Y0080634D01*
X0082254Y0082071D01*
X0082625Y0081700D01*
X0087125Y0081700D01*
X0089863Y0078962D01*
X0089863Y0072962D01*
X0090625Y0072200D01*
X0090734Y0072091D01*
X0089298Y0072091D01*
X0088073Y0070866D01*
X0088073Y0069134D01*
X0089298Y0067909D01*
X0089863Y0067909D01*
X0089863Y0064256D01*
X0089029Y0065091D01*
X0087298Y0065091D01*
X0086073Y0063866D01*
X0086073Y0062134D01*
X0087298Y0060909D01*
X0089029Y0060909D01*
X0089863Y0061744D01*
X0089863Y0046462D01*
X0090625Y0045700D01*
X0095125Y0041200D01*
X0101173Y0041200D01*
X0101173Y0040237D01*
X0101700Y0039710D01*
X0108313Y0039710D01*
X0108313Y0038635D01*
X0108976Y0037036D01*
X0110199Y0035812D01*
X0111798Y0035150D01*
X0113529Y0035150D01*
X0115128Y0035812D01*
X0116351Y0037036D01*
X0116363Y0037066D01*
X0116363Y0031934D01*
X0116351Y0031964D01*
X0115128Y0033188D01*
X0113529Y0033850D01*
X0111798Y0033850D01*
X0110199Y0033188D01*
X0108976Y0031964D01*
X0108878Y0031729D01*
X0108878Y0035471D01*
X0108351Y0035998D01*
X0102504Y0035998D01*
X0102281Y0036221D02*
X0109791Y0036221D01*
X0109192Y0036820D02*
X0087682Y0036820D01*
X0087084Y0037418D02*
X0108817Y0037418D01*
X0108569Y0038017D02*
X0086963Y0038017D01*
X0086963Y0038615D02*
X0108322Y0038615D01*
X0108313Y0039214D02*
X0086963Y0039214D01*
X0086963Y0039812D02*
X0101598Y0039812D01*
X0101173Y0040411D02*
X0086963Y0040411D01*
X0086963Y0041009D02*
X0101173Y0041009D01*
X0101173Y0043800D02*
X0096202Y0043800D01*
X0092463Y0047538D01*
X0092463Y0057362D01*
X0096363Y0053462D01*
X0097125Y0052700D01*
X0101173Y0052700D01*
X0101173Y0048899D01*
X0101700Y0048372D01*
X0108351Y0048372D01*
X0108402Y0048422D01*
X0108976Y0047036D01*
X0110199Y0045812D01*
X0111798Y0045150D01*
X0113529Y0045150D01*
X0115128Y0045812D01*
X0116351Y0047036D01*
X0116363Y0047066D01*
X0116363Y0041934D01*
X0116351Y0041964D01*
X0115128Y0043188D01*
X0113529Y0043850D01*
X0111798Y0043850D01*
X0110199Y0043188D01*
X0108976Y0041964D01*
X0108878Y0041729D01*
X0108878Y0044133D01*
X0108351Y0044660D01*
X0101700Y0044660D01*
X0101173Y0044133D01*
X0101173Y0043800D01*
X0101173Y0044002D02*
X0096000Y0044002D01*
X0095402Y0044600D02*
X0101641Y0044600D01*
X0094803Y0045199D02*
X0111680Y0045199D01*
X0110235Y0045797D02*
X0094205Y0045797D01*
X0093606Y0046396D02*
X0109616Y0046396D01*
X0109017Y0046994D02*
X0093008Y0046994D01*
X0092463Y0047593D02*
X0108745Y0047593D01*
X0108497Y0048191D02*
X0092463Y0048191D01*
X0092463Y0048790D02*
X0101282Y0048790D01*
X0101173Y0049388D02*
X0092463Y0049388D01*
X0092463Y0049987D02*
X0101173Y0049987D01*
X0101173Y0050585D02*
X0092463Y0050585D01*
X0092463Y0051184D02*
X0101173Y0051184D01*
X0101173Y0051782D02*
X0092463Y0051782D01*
X0092463Y0052381D02*
X0101173Y0052381D01*
X0101173Y0055300D02*
X0098202Y0055300D01*
X0093963Y0059538D01*
X0093963Y0062744D01*
X0094298Y0062409D01*
X0096029Y0062409D01*
X0097254Y0063634D01*
X0097254Y0065366D01*
X0096029Y0066591D01*
X0094298Y0066591D01*
X0093963Y0066256D01*
X0093963Y0068244D01*
X0094298Y0067909D01*
X0095416Y0067909D01*
X0096125Y0067200D01*
X0101173Y0067200D01*
X0101173Y0066447D01*
X0100529Y0067091D01*
X0098798Y0067091D01*
X0097573Y0065866D01*
X0097573Y0064134D01*
X0098798Y0062909D01*
X0100529Y0062909D01*
X0101754Y0064134D01*
X0101754Y0065694D01*
X0108351Y0065694D01*
X0108878Y0066222D01*
X0108878Y0067271D01*
X0108976Y0067036D01*
X0110199Y0065812D01*
X0111798Y0065150D01*
X0113529Y0065150D01*
X0115128Y0065812D01*
X0116351Y0067036D01*
X0116363Y0067066D01*
X0116363Y0061934D01*
X0116351Y0061964D01*
X0115128Y0063188D01*
X0113529Y0063850D01*
X0111798Y0063850D01*
X0110199Y0063188D01*
X0108976Y0061964D01*
X0108798Y0061536D01*
X0108351Y0061983D01*
X0101700Y0061983D01*
X0101173Y0061455D01*
X0101173Y0057560D01*
X0101391Y0057343D01*
X0101173Y0057125D01*
X0101173Y0055300D01*
X0101173Y0055373D02*
X0098128Y0055373D01*
X0097530Y0055972D02*
X0101173Y0055972D01*
X0101173Y0056570D02*
X0096931Y0056570D01*
X0096333Y0057169D02*
X0101217Y0057169D01*
X0101173Y0057768D02*
X0095734Y0057768D01*
X0095136Y0058366D02*
X0101173Y0058366D01*
X0101173Y0058965D02*
X0094537Y0058965D01*
X0093963Y0059563D02*
X0101173Y0059563D01*
X0101173Y0060162D02*
X0093963Y0060162D01*
X0093963Y0060760D02*
X0101173Y0060760D01*
X0101173Y0061359D02*
X0093963Y0061359D01*
X0093963Y0061957D02*
X0101675Y0061957D01*
X0100774Y0063154D02*
X0110166Y0063154D01*
X0109567Y0062556D02*
X0096176Y0062556D01*
X0096774Y0063154D02*
X0098553Y0063154D01*
X0097954Y0063753D02*
X0097254Y0063753D01*
X0097254Y0064351D02*
X0097573Y0064351D01*
X0097573Y0064950D02*
X0097254Y0064950D01*
X0097072Y0065548D02*
X0097573Y0065548D01*
X0097854Y0066147D02*
X0096473Y0066147D01*
X0095981Y0067344D02*
X0093963Y0067344D01*
X0093963Y0067942D02*
X0094265Y0067942D01*
X0093963Y0066745D02*
X0098452Y0066745D01*
X0100875Y0066745D02*
X0101173Y0066745D01*
X0101754Y0065548D02*
X0110837Y0065548D01*
X0109865Y0066147D02*
X0108803Y0066147D01*
X0108878Y0066745D02*
X0109266Y0066745D01*
X0114490Y0065548D02*
X0116363Y0065548D01*
X0116363Y0064950D02*
X0101754Y0064950D01*
X0101754Y0064351D02*
X0116363Y0064351D01*
X0116363Y0063753D02*
X0113764Y0063753D01*
X0115161Y0063154D02*
X0116363Y0063154D01*
X0116363Y0062556D02*
X0115760Y0062556D01*
X0116354Y0061957D02*
X0116363Y0061957D01*
X0111563Y0063753D02*
X0101373Y0063753D01*
X0108377Y0061957D02*
X0108973Y0061957D01*
X0115462Y0066147D02*
X0116363Y0066147D01*
X0116363Y0066745D02*
X0116060Y0066745D01*
X0094151Y0062556D02*
X0093963Y0062556D01*
X0089863Y0061359D02*
X0089479Y0061359D01*
X0089863Y0060760D02*
X0078463Y0060760D01*
X0078463Y0060162D02*
X0089863Y0060162D01*
X0089863Y0059563D02*
X0078463Y0059563D01*
X0078463Y0058965D02*
X0089863Y0058965D01*
X0089863Y0058366D02*
X0078463Y0058366D01*
X0078463Y0057768D02*
X0089863Y0057768D01*
X0089863Y0057169D02*
X0078463Y0057169D01*
X0078463Y0056570D02*
X0089863Y0056570D01*
X0089863Y0055972D02*
X0079030Y0055972D01*
X0079628Y0055373D02*
X0089863Y0055373D01*
X0089863Y0054775D02*
X0080227Y0054775D01*
X0080825Y0054176D02*
X0089863Y0054176D01*
X0089863Y0053578D02*
X0081424Y0053578D01*
X0082023Y0052979D02*
X0089863Y0052979D01*
X0089863Y0052381D02*
X0082621Y0052381D01*
X0083220Y0051782D02*
X0089863Y0051782D01*
X0089863Y0051184D02*
X0083818Y0051184D01*
X0084417Y0050585D02*
X0089863Y0050585D01*
X0089863Y0049987D02*
X0085015Y0049987D01*
X0085614Y0049388D02*
X0089863Y0049388D01*
X0089863Y0048790D02*
X0086212Y0048790D01*
X0086811Y0048191D02*
X0089863Y0048191D01*
X0089863Y0047593D02*
X0086963Y0047593D01*
X0086963Y0046994D02*
X0089863Y0046994D01*
X0089929Y0046396D02*
X0086963Y0046396D01*
X0086963Y0045797D02*
X0090528Y0045797D01*
X0091126Y0045199D02*
X0086963Y0045199D01*
X0086963Y0044600D02*
X0091725Y0044600D01*
X0092323Y0044002D02*
X0086963Y0044002D01*
X0086963Y0043403D02*
X0092922Y0043403D01*
X0093520Y0042805D02*
X0086963Y0042805D01*
X0086963Y0042206D02*
X0094119Y0042206D01*
X0094717Y0041608D02*
X0086963Y0041608D01*
X0084363Y0041608D02*
X0046499Y0041608D01*
X0046109Y0042206D02*
X0066501Y0042206D01*
X0068826Y0042206D02*
X0071001Y0042206D01*
X0070402Y0042805D02*
X0069425Y0042805D01*
X0069754Y0043403D02*
X0070073Y0043403D01*
X0070073Y0044002D02*
X0069754Y0044002D01*
X0069754Y0044600D02*
X0070073Y0044600D01*
X0070406Y0045199D02*
X0069421Y0045199D01*
X0068823Y0045797D02*
X0070863Y0045797D01*
X0070863Y0046396D02*
X0068435Y0046396D01*
X0068634Y0046994D02*
X0070863Y0046994D01*
X0070863Y0047593D02*
X0068634Y0047593D01*
X0068634Y0048191D02*
X0070863Y0048191D01*
X0070863Y0048790D02*
X0068327Y0048790D01*
X0067728Y0049388D02*
X0070863Y0049388D01*
X0070863Y0049987D02*
X0064363Y0049987D01*
X0064363Y0050585D02*
X0070863Y0050585D01*
X0070863Y0051184D02*
X0064363Y0051184D01*
X0064363Y0051782D02*
X0070863Y0051782D01*
X0070863Y0052381D02*
X0064363Y0052381D01*
X0064363Y0052979D02*
X0070863Y0052979D01*
X0070863Y0053578D02*
X0064363Y0053578D01*
X0064363Y0054176D02*
X0070863Y0054176D01*
X0070550Y0054775D02*
X0064363Y0054775D01*
X0064363Y0055373D02*
X0069952Y0055373D01*
X0069353Y0055972D02*
X0064363Y0055972D01*
X0064363Y0056570D02*
X0068755Y0056570D01*
X0068156Y0057169D02*
X0064363Y0057169D01*
X0064363Y0057768D02*
X0067557Y0057768D01*
X0066959Y0058366D02*
X0064363Y0058366D01*
X0064363Y0058965D02*
X0066360Y0058965D01*
X0065762Y0059563D02*
X0064363Y0059563D01*
X0064363Y0060162D02*
X0065163Y0060162D01*
X0064565Y0060760D02*
X0064363Y0060760D01*
X0060963Y0060760D02*
X0054154Y0060760D01*
X0054154Y0060162D02*
X0060963Y0060162D01*
X0060963Y0059563D02*
X0054154Y0059563D01*
X0054154Y0058965D02*
X0060963Y0058965D01*
X0060963Y0058366D02*
X0054154Y0058366D01*
X0054154Y0057768D02*
X0060963Y0057768D01*
X0060963Y0057169D02*
X0054110Y0057169D01*
X0054154Y0056570D02*
X0060963Y0056570D01*
X0060963Y0055972D02*
X0054154Y0055972D01*
X0054154Y0055373D02*
X0060963Y0055373D01*
X0060963Y0054775D02*
X0054154Y0054775D01*
X0054154Y0054176D02*
X0060963Y0054176D01*
X0060963Y0053578D02*
X0054154Y0053578D01*
X0053969Y0052979D02*
X0060963Y0052979D01*
X0060963Y0052381D02*
X0054154Y0052381D01*
X0054154Y0051782D02*
X0060963Y0051782D01*
X0060963Y0051184D02*
X0054154Y0051184D01*
X0054154Y0050585D02*
X0060963Y0050585D01*
X0060963Y0049987D02*
X0054154Y0049987D01*
X0054154Y0049388D02*
X0060963Y0049388D01*
X0060963Y0048790D02*
X0054045Y0048790D01*
X0054154Y0048191D02*
X0060963Y0048191D01*
X0060963Y0047593D02*
X0054154Y0047593D01*
X0054154Y0046994D02*
X0060963Y0046994D01*
X0060963Y0046396D02*
X0054154Y0046396D01*
X0054154Y0045797D02*
X0060963Y0045797D01*
X0061061Y0045199D02*
X0054154Y0045199D01*
X0054154Y0044600D02*
X0061659Y0044600D01*
X0062258Y0044002D02*
X0038963Y0044002D01*
X0038963Y0044600D02*
X0046449Y0044600D01*
X0046449Y0045199D02*
X0043646Y0045199D01*
X0045091Y0045797D02*
X0046449Y0045797D01*
X0046449Y0046396D02*
X0045711Y0046396D01*
X0046310Y0046994D02*
X0046449Y0046994D01*
X0044607Y0043403D02*
X0062856Y0043403D01*
X0063455Y0042805D02*
X0045511Y0042805D01*
X0040720Y0043403D02*
X0038963Y0043403D01*
X0038963Y0042805D02*
X0039816Y0042805D01*
X0039218Y0042206D02*
X0038963Y0042206D01*
X0038963Y0045199D02*
X0041680Y0045199D01*
X0040235Y0045797D02*
X0038963Y0045797D01*
X0038963Y0046396D02*
X0039616Y0046396D01*
X0039017Y0046994D02*
X0038963Y0046994D01*
X0064363Y0048790D02*
X0064386Y0048790D01*
X0064363Y0049388D02*
X0064985Y0049388D01*
X0073463Y0049388D02*
X0077937Y0049388D01*
X0077573Y0048790D02*
X0073463Y0048790D01*
X0073463Y0048191D02*
X0077573Y0048191D01*
X0077573Y0047593D02*
X0073463Y0047593D01*
X0073463Y0046994D02*
X0077713Y0046994D01*
X0078311Y0046396D02*
X0073463Y0046396D01*
X0073463Y0045797D02*
X0076004Y0045797D01*
X0075406Y0045199D02*
X0073921Y0045199D01*
X0074254Y0044600D02*
X0075073Y0044600D01*
X0075073Y0044002D02*
X0074254Y0044002D01*
X0074254Y0043403D02*
X0075073Y0043403D01*
X0075402Y0042805D02*
X0073925Y0042805D01*
X0073326Y0042206D02*
X0076001Y0042206D01*
X0078326Y0042206D02*
X0084363Y0042206D01*
X0084363Y0042805D02*
X0081307Y0042805D01*
X0081905Y0043403D02*
X0084363Y0043403D01*
X0084363Y0044002D02*
X0082504Y0044002D01*
X0083102Y0044600D02*
X0084363Y0044600D01*
X0084363Y0045199D02*
X0083701Y0045199D01*
X0083963Y0045797D02*
X0084363Y0045797D01*
X0084363Y0046396D02*
X0083963Y0046396D01*
X0083963Y0046994D02*
X0084331Y0046994D01*
X0081221Y0046396D02*
X0081016Y0046396D01*
X0080622Y0045797D02*
X0078323Y0045797D01*
X0077338Y0049987D02*
X0073463Y0049987D01*
X0073463Y0050585D02*
X0076740Y0050585D01*
X0076141Y0051184D02*
X0073463Y0051184D01*
X0073463Y0051782D02*
X0075543Y0051782D01*
X0074944Y0052381D02*
X0073463Y0052381D01*
X0073463Y0052979D02*
X0074346Y0052979D01*
X0073747Y0053578D02*
X0073463Y0053578D01*
X0075863Y0057138D02*
X0069463Y0063538D01*
X0069463Y0084538D01*
X0068702Y0085300D01*
X0059310Y0094692D01*
X0058548Y0095454D01*
X0054154Y0095454D01*
X0054154Y0096101D01*
X0053936Y0096319D01*
X0054154Y0096537D01*
X0054154Y0100432D01*
X0053936Y0100650D01*
X0054154Y0100867D01*
X0054154Y0104763D01*
X0053936Y0104980D01*
X0054154Y0105198D01*
X0054154Y0109093D01*
X0053936Y0109311D01*
X0054154Y0109529D01*
X0054154Y0113424D01*
X0053627Y0113951D01*
X0046976Y0113951D01*
X0046449Y0113424D01*
X0046449Y0111729D01*
X0046351Y0111964D01*
X0045128Y0113188D01*
X0043529Y0113850D01*
X0041798Y0113850D01*
X0040199Y0113188D01*
X0038976Y0111964D01*
X0038963Y0111934D01*
X0038963Y0117066D01*
X0038976Y0117036D01*
X0040199Y0115812D01*
X0041798Y0115150D01*
X0043529Y0115150D01*
X0045128Y0115812D01*
X0046351Y0117036D01*
X0047013Y0118635D01*
X0047013Y0120365D01*
X0046351Y0121964D01*
X0045128Y0123188D01*
X0043529Y0123850D01*
X0041798Y0123850D01*
X0040199Y0123188D01*
X0038976Y0121964D01*
X0038963Y0121934D01*
X0038963Y0127066D01*
X0038976Y0127036D01*
X0040199Y0125812D01*
X0041798Y0125150D01*
X0043529Y0125150D01*
X0045128Y0125812D01*
X0046351Y0127036D01*
X0047013Y0128635D01*
X0047013Y0130365D01*
X0046351Y0131964D01*
X0045128Y0133188D01*
X0043529Y0133850D01*
X0041798Y0133850D01*
X0040199Y0133188D01*
X0038976Y0131964D01*
X0038963Y0131934D01*
X0038963Y0137066D01*
X0038976Y0137036D01*
X0040199Y0135812D01*
X0041798Y0135150D01*
X0043529Y0135150D01*
X0045128Y0135812D01*
X0046351Y0137036D01*
X0047013Y0138635D01*
X0047013Y0140365D01*
X0046351Y0141964D01*
X0045128Y0143188D01*
X0043529Y0143850D01*
X0041798Y0143850D01*
X0040199Y0143188D01*
X0038976Y0141964D01*
X0038963Y0141934D01*
X0038963Y0147066D01*
X0038976Y0147036D01*
X0040199Y0145812D01*
X0041798Y0145150D01*
X0043529Y0145150D01*
X0070575Y0145150D01*
X0069977Y0144552D02*
X0038963Y0144552D01*
X0038963Y0145150D02*
X0041798Y0145150D01*
X0040353Y0145749D02*
X0038963Y0145749D01*
X0038963Y0146347D02*
X0039664Y0146347D01*
X0039066Y0146946D02*
X0038963Y0146946D01*
X0038963Y0143953D02*
X0063278Y0143953D01*
X0063625Y0144300D02*
X0062625Y0143300D01*
X0061863Y0142538D01*
X0061863Y0135538D01*
X0060916Y0134591D01*
X0060754Y0134591D01*
X0060754Y0135866D01*
X0059529Y0137091D01*
X0057798Y0137091D01*
X0056573Y0135866D01*
X0056573Y0134134D01*
X0056863Y0133844D01*
X0056863Y0129462D01*
X0060025Y0126300D01*
X0058702Y0126300D01*
X0054082Y0130920D01*
X0054082Y0132269D01*
X0055615Y0132269D01*
X0056142Y0132796D01*
X0056142Y0136101D01*
X0055615Y0136628D01*
X0049948Y0136628D01*
X0049421Y0136101D01*
X0049421Y0132796D01*
X0049948Y0132269D01*
X0051482Y0132269D01*
X0051482Y0129843D01*
X0056863Y0124462D01*
X0057625Y0123700D01*
X0074202Y0123700D01*
X0074963Y0124462D01*
X0075702Y0125200D01*
X0076625Y0125200D01*
X0077363Y0124462D01*
X0078125Y0123700D01*
X0081202Y0123700D01*
X0082702Y0125200D01*
X0083625Y0125200D01*
X0084363Y0124462D01*
X0085125Y0123700D01*
X0089702Y0123700D01*
X0090463Y0124462D01*
X0092411Y0126409D01*
X0093529Y0126409D01*
X0094754Y0127634D01*
X0094754Y0129209D01*
X0095229Y0129209D01*
X0096454Y0130434D01*
X0096454Y0131753D01*
X0096798Y0131409D01*
X0098529Y0131409D01*
X0099754Y0132634D01*
X0099754Y0134366D01*
X0098529Y0135591D01*
X0096798Y0135591D01*
X0095573Y0134366D01*
X0095573Y0133047D01*
X0095229Y0133391D01*
X0093498Y0133391D01*
X0092613Y0132506D01*
X0091729Y0133391D01*
X0089998Y0133391D01*
X0088773Y0132166D01*
X0088773Y0130434D01*
X0089998Y0129209D01*
X0090573Y0129209D01*
X0090573Y0128248D01*
X0088625Y0126300D01*
X0086202Y0126300D01*
X0084702Y0127800D01*
X0081754Y0127800D01*
X0081754Y0128066D01*
X0080529Y0129291D01*
X0078863Y0129291D01*
X0078863Y0129644D01*
X0078998Y0129509D01*
X0080729Y0129509D01*
X0081954Y0130734D01*
X0081954Y0132466D01*
X0081560Y0132860D01*
X0082958Y0132860D01*
X0083485Y0133387D01*
X0083485Y0135522D01*
X0083598Y0135409D01*
X0085329Y0135409D01*
X0086554Y0136634D01*
X0086554Y0138366D01*
X0086548Y0138372D01*
X0090615Y0138372D01*
X0091142Y0138899D01*
X0091142Y0142203D01*
X0090615Y0142731D01*
X0084948Y0142731D01*
X0084421Y0142203D01*
X0084421Y0139591D01*
X0083598Y0139591D01*
X0083485Y0139478D01*
X0083485Y0141613D01*
X0082958Y0142140D01*
X0079980Y0142140D01*
X0078363Y0143757D01*
X0078363Y0143927D01*
X0078863Y0144427D01*
X0078863Y0147573D01*
X0078336Y0148100D01*
X0075791Y0148100D01*
X0075263Y0147573D01*
X0075263Y0144427D01*
X0075763Y0143927D01*
X0075763Y0142680D01*
X0076303Y0142140D01*
X0072369Y0142140D01*
X0071842Y0141613D01*
X0071842Y0140500D01*
X0071042Y0140500D01*
X0070233Y0139691D01*
X0070098Y0139691D01*
X0068873Y0138466D01*
X0068873Y0136734D01*
X0068979Y0136628D01*
X0064712Y0136628D01*
X0064463Y0136380D01*
X0064463Y0141462D01*
X0064702Y0141700D01*
X0070802Y0141700D01*
X0071563Y0142462D01*
X0073002Y0143900D01*
X0074536Y0143900D01*
X0075063Y0144427D01*
X0075063Y0147573D01*
X0074536Y0148100D01*
X0073820Y0148100D01*
X0073954Y0148234D01*
X0073954Y0149609D01*
X0074729Y0149609D01*
X0075954Y0150834D01*
X0075954Y0151953D01*
X0076498Y0151409D01*
X0078229Y0151409D01*
X0079454Y0152634D01*
X0079454Y0153909D01*
X0080029Y0153909D01*
X0080313Y0154194D01*
X0081298Y0153209D01*
X0083029Y0153209D01*
X0083063Y0153244D01*
X0083063Y0152262D01*
X0083858Y0151467D01*
X0083563Y0151173D01*
X0083563Y0148627D01*
X0084091Y0148100D01*
X0085525Y0148100D01*
X0085725Y0147900D01*
X0084091Y0147900D01*
X0083791Y0147600D01*
X0083320Y0147600D01*
X0082529Y0148391D01*
X0080798Y0148391D01*
X0079573Y0147166D01*
X0079573Y0145434D01*
X0080798Y0144209D01*
X0082529Y0144209D01*
X0083320Y0145000D01*
X0083563Y0145000D01*
X0083563Y0144827D01*
X0084091Y0144300D01*
X0087236Y0144300D01*
X0087413Y0144477D01*
X0087591Y0144300D01*
X0087863Y0144300D01*
X0087863Y0144262D01*
X0088625Y0143500D01*
X0089325Y0142800D01*
X0090625Y0142800D01*
X0094174Y0139251D01*
X0099185Y0139251D01*
X0099185Y0138899D01*
X0099712Y0138372D01*
X0105379Y0138372D01*
X0105906Y0138899D01*
X0105906Y0142203D01*
X0105379Y0142731D01*
X0099712Y0142731D01*
X0099185Y0142203D01*
X0099185Y0141851D01*
X0097353Y0141851D01*
X0099702Y0144200D01*
X0109202Y0144200D01*
X0110634Y0145632D01*
X0111798Y0145150D01*
X0113529Y0145150D01*
X0116363Y0145150D01*
X0116363Y0144552D02*
X0109554Y0144552D01*
X0110152Y0145150D02*
X0111798Y0145150D01*
X0111798Y0143850D02*
X0110199Y0143188D01*
X0108976Y0141964D01*
X0108313Y0140365D01*
X0108313Y0138635D01*
X0108976Y0137036D01*
X0110199Y0135812D01*
X0111798Y0135150D01*
X0113529Y0135150D01*
X0115128Y0135812D01*
X0116351Y0137036D01*
X0116363Y0137066D01*
X0116363Y0131934D01*
X0116351Y0131964D01*
X0115128Y0133188D01*
X0113529Y0133850D01*
X0111798Y0133850D01*
X0110199Y0133188D01*
X0108976Y0131964D01*
X0108313Y0130365D01*
X0108313Y0128635D01*
X0108976Y0127036D01*
X0110199Y0125812D01*
X0111798Y0125150D01*
X0113529Y0125150D01*
X0115128Y0125812D01*
X0116351Y0127036D01*
X0116363Y0127066D01*
X0116363Y0121934D01*
X0116351Y0121964D01*
X0115128Y0123188D01*
X0113529Y0123850D01*
X0111798Y0123850D01*
X0110199Y0123188D01*
X0108976Y0121964D01*
X0108313Y0120365D01*
X0108313Y0118635D01*
X0108976Y0117036D01*
X0110199Y0115812D01*
X0111798Y0115150D01*
X0113529Y0115150D01*
X0115128Y0115812D01*
X0116351Y0117036D01*
X0116363Y0117066D01*
X0116363Y0111934D01*
X0116351Y0111964D01*
X0115128Y0113188D01*
X0113529Y0113850D01*
X0111798Y0113850D01*
X0110199Y0113188D01*
X0108976Y0111964D01*
X0108313Y0110365D01*
X0108313Y0109620D01*
X0101700Y0109620D01*
X0101173Y0109093D01*
X0101173Y0105198D01*
X0101391Y0104980D01*
X0101173Y0104763D01*
X0101173Y0103800D01*
X0095920Y0103800D01*
X0096254Y0104134D01*
X0096254Y0105866D01*
X0095029Y0107091D01*
X0093298Y0107091D01*
X0092073Y0105866D01*
X0092073Y0104134D01*
X0092407Y0103800D01*
X0083625Y0103800D01*
X0079625Y0099800D01*
X0078863Y0099038D01*
X0078863Y0096038D01*
X0072125Y0089300D01*
X0071363Y0088538D01*
X0071363Y0087656D01*
X0070573Y0086866D01*
X0070573Y0085134D01*
X0071798Y0083909D01*
X0073529Y0083909D01*
X0074413Y0084794D01*
X0074798Y0084409D01*
X0075116Y0084409D01*
X0075073Y0084366D01*
X0075073Y0082634D01*
X0075863Y0081844D01*
X0075863Y0057138D01*
X0075863Y0057169D02*
X0075833Y0057169D01*
X0075863Y0057768D02*
X0075234Y0057768D01*
X0074636Y0058366D02*
X0075863Y0058366D01*
X0075863Y0058965D02*
X0074037Y0058965D01*
X0073439Y0059563D02*
X0075863Y0059563D01*
X0075863Y0060162D02*
X0072840Y0060162D01*
X0072242Y0060760D02*
X0075863Y0060760D01*
X0075863Y0061359D02*
X0071643Y0061359D01*
X0071045Y0061957D02*
X0075863Y0061957D01*
X0075863Y0062556D02*
X0070446Y0062556D01*
X0069848Y0063154D02*
X0075863Y0063154D01*
X0075863Y0063753D02*
X0069463Y0063753D01*
X0069463Y0064351D02*
X0075863Y0064351D01*
X0075863Y0064950D02*
X0069463Y0064950D01*
X0069463Y0065548D02*
X0075863Y0065548D01*
X0075863Y0066147D02*
X0069463Y0066147D01*
X0069463Y0066745D02*
X0075863Y0066745D01*
X0075863Y0067344D02*
X0069463Y0067344D01*
X0069463Y0067942D02*
X0075863Y0067942D01*
X0075863Y0068541D02*
X0069463Y0068541D01*
X0069463Y0069139D02*
X0075863Y0069139D01*
X0075863Y0069738D02*
X0069463Y0069738D01*
X0069463Y0070336D02*
X0075863Y0070336D01*
X0075863Y0070935D02*
X0069463Y0070935D01*
X0069463Y0071533D02*
X0075863Y0071533D01*
X0075863Y0072132D02*
X0069463Y0072132D01*
X0069463Y0072730D02*
X0075863Y0072730D01*
X0075863Y0073329D02*
X0069463Y0073329D01*
X0069463Y0073927D02*
X0075863Y0073927D01*
X0075863Y0074526D02*
X0069463Y0074526D01*
X0069463Y0075124D02*
X0075863Y0075124D01*
X0075863Y0075723D02*
X0069463Y0075723D01*
X0069463Y0076321D02*
X0075863Y0076321D01*
X0075863Y0076920D02*
X0069463Y0076920D01*
X0069463Y0077518D02*
X0075863Y0077518D01*
X0075863Y0078117D02*
X0069463Y0078117D01*
X0069463Y0078715D02*
X0075863Y0078715D01*
X0075863Y0079314D02*
X0069463Y0079314D01*
X0069463Y0079912D02*
X0075863Y0079912D01*
X0075863Y0080511D02*
X0069463Y0080511D01*
X0069463Y0081109D02*
X0075863Y0081109D01*
X0075863Y0081708D02*
X0069463Y0081708D01*
X0069463Y0082306D02*
X0075401Y0082306D01*
X0075073Y0082905D02*
X0069463Y0082905D01*
X0069463Y0083503D02*
X0075073Y0083503D01*
X0075073Y0084102D02*
X0073722Y0084102D01*
X0074320Y0084701D02*
X0074506Y0084701D01*
X0071605Y0084102D02*
X0069463Y0084102D01*
X0069301Y0084701D02*
X0071006Y0084701D01*
X0070573Y0085299D02*
X0068703Y0085299D01*
X0068104Y0085898D02*
X0070573Y0085898D01*
X0070573Y0086496D02*
X0067506Y0086496D01*
X0066907Y0087095D02*
X0070802Y0087095D01*
X0071363Y0087693D02*
X0066309Y0087693D01*
X0065710Y0088292D02*
X0071363Y0088292D01*
X0071715Y0088890D02*
X0065112Y0088890D01*
X0064513Y0089489D02*
X0072314Y0089489D01*
X0072912Y0090087D02*
X0063915Y0090087D01*
X0063316Y0090686D02*
X0073511Y0090686D01*
X0074109Y0091284D02*
X0062718Y0091284D01*
X0062119Y0091883D02*
X0074708Y0091883D01*
X0075306Y0092481D02*
X0061521Y0092481D01*
X0060922Y0093080D02*
X0075905Y0093080D01*
X0076503Y0093678D02*
X0060324Y0093678D01*
X0059725Y0094277D02*
X0077102Y0094277D01*
X0077700Y0094875D02*
X0059127Y0094875D01*
X0059310Y0094692D02*
X0059310Y0094692D01*
X0061036Y0096671D02*
X0054154Y0096671D01*
X0054154Y0097269D02*
X0060573Y0097269D01*
X0060573Y0097134D02*
X0061798Y0095909D01*
X0063529Y0095909D01*
X0064413Y0096794D01*
X0065298Y0095909D01*
X0067029Y0095909D01*
X0068254Y0097134D01*
X0068254Y0098866D01*
X0067029Y0100091D01*
X0066210Y0100091D01*
X0066254Y0100134D01*
X0066254Y0101866D01*
X0065029Y0103091D01*
X0063298Y0103091D01*
X0062663Y0102456D01*
X0062029Y0103091D01*
X0060298Y0103091D01*
X0059073Y0101866D01*
X0059073Y0100134D01*
X0060298Y0098909D01*
X0060616Y0098909D01*
X0060573Y0098866D01*
X0060573Y0097134D01*
X0060573Y0097868D02*
X0054154Y0097868D01*
X0054154Y0098466D02*
X0060573Y0098466D01*
X0060142Y0099065D02*
X0054154Y0099065D01*
X0054154Y0099663D02*
X0059544Y0099663D01*
X0059073Y0100262D02*
X0054154Y0100262D01*
X0054147Y0100860D02*
X0059073Y0100860D01*
X0059073Y0101459D02*
X0054154Y0101459D01*
X0054154Y0102057D02*
X0059264Y0102057D01*
X0059863Y0102656D02*
X0054154Y0102656D01*
X0054154Y0103254D02*
X0083079Y0103254D01*
X0082481Y0102656D02*
X0065464Y0102656D01*
X0066063Y0102057D02*
X0081882Y0102057D01*
X0081284Y0101459D02*
X0066254Y0101459D01*
X0066254Y0100860D02*
X0080685Y0100860D01*
X0080087Y0100262D02*
X0066254Y0100262D01*
X0067457Y0099663D02*
X0079488Y0099663D01*
X0078890Y0099065D02*
X0068055Y0099065D01*
X0068254Y0098466D02*
X0078863Y0098466D01*
X0078863Y0097868D02*
X0068254Y0097868D01*
X0068254Y0097269D02*
X0078863Y0097269D01*
X0078863Y0096671D02*
X0067791Y0096671D01*
X0067192Y0096072D02*
X0078863Y0096072D01*
X0078299Y0095474D02*
X0054154Y0095474D01*
X0054154Y0096072D02*
X0061635Y0096072D01*
X0063692Y0096072D02*
X0065135Y0096072D01*
X0064536Y0096671D02*
X0064291Y0096671D01*
X0062863Y0102656D02*
X0062464Y0102656D01*
X0054154Y0103853D02*
X0092354Y0103853D01*
X0092073Y0104451D02*
X0087371Y0104451D01*
X0086829Y0103909D02*
X0088054Y0105134D01*
X0088054Y0106866D01*
X0086829Y0108091D01*
X0085098Y0108091D01*
X0083873Y0106866D01*
X0083873Y0105134D01*
X0085098Y0103909D01*
X0086829Y0103909D01*
X0087970Y0105050D02*
X0092073Y0105050D01*
X0092073Y0105648D02*
X0088054Y0105648D01*
X0088054Y0106247D02*
X0092454Y0106247D01*
X0093052Y0106845D02*
X0088054Y0106845D01*
X0087476Y0107444D02*
X0101173Y0107444D01*
X0101173Y0108042D02*
X0086877Y0108042D01*
X0085049Y0108042D02*
X0078962Y0108042D01*
X0079554Y0108634D02*
X0079554Y0110366D01*
X0078770Y0111150D01*
X0079754Y0112134D01*
X0079754Y0113866D01*
X0078529Y0115091D01*
X0076798Y0115091D01*
X0075573Y0113866D01*
X0075573Y0112134D01*
X0076357Y0111350D01*
X0075373Y0110366D01*
X0075373Y0108634D01*
X0076598Y0107409D01*
X0078329Y0107409D01*
X0079554Y0108634D01*
X0079554Y0108641D02*
X0101173Y0108641D01*
X0101319Y0109239D02*
X0079554Y0109239D01*
X0079554Y0109838D02*
X0092869Y0109838D01*
X0093298Y0109409D02*
X0095029Y0109409D01*
X0096254Y0110634D01*
X0096254Y0112366D01*
X0095029Y0113591D01*
X0093298Y0113591D01*
X0092073Y0112366D01*
X0092073Y0110634D01*
X0093298Y0109409D01*
X0092270Y0110437D02*
X0079483Y0110437D01*
X0078885Y0111035D02*
X0092073Y0111035D01*
X0092073Y0111634D02*
X0079253Y0111634D01*
X0079754Y0112232D02*
X0092073Y0112232D01*
X0092538Y0112831D02*
X0079754Y0112831D01*
X0079754Y0113429D02*
X0093136Y0113429D01*
X0095191Y0113429D02*
X0110782Y0113429D01*
X0109842Y0112831D02*
X0095789Y0112831D01*
X0096254Y0112232D02*
X0109244Y0112232D01*
X0108839Y0111634D02*
X0096254Y0111634D01*
X0096254Y0111035D02*
X0108591Y0111035D01*
X0108343Y0110437D02*
X0096056Y0110437D01*
X0095458Y0109838D02*
X0108313Y0109838D01*
X0114545Y0113429D02*
X0116363Y0113429D01*
X0116363Y0112831D02*
X0115485Y0112831D01*
X0116083Y0112232D02*
X0116363Y0112232D01*
X0116363Y0114028D02*
X0079592Y0114028D01*
X0078994Y0114626D02*
X0116363Y0114626D01*
X0116363Y0115225D02*
X0113709Y0115225D01*
X0115138Y0115823D02*
X0116363Y0115823D01*
X0116363Y0116422D02*
X0115737Y0116422D01*
X0116335Y0117020D02*
X0116363Y0117020D01*
X0111618Y0115225D02*
X0070995Y0115225D01*
X0070950Y0115694D02*
X0071167Y0115912D01*
X0071385Y0115694D01*
X0075280Y0115694D01*
X0075498Y0115912D01*
X0075716Y0115694D01*
X0079611Y0115694D01*
X0079829Y0115912D01*
X0080047Y0115694D01*
X0083942Y0115694D01*
X0084160Y0115912D01*
X0084377Y0115694D01*
X0088272Y0115694D01*
X0088490Y0115912D01*
X0088708Y0115694D01*
X0092603Y0115694D01*
X0092821Y0115912D01*
X0093039Y0115694D01*
X0096934Y0115694D01*
X0097461Y0116222D01*
X0097461Y0122873D01*
X0096934Y0123400D01*
X0093039Y0123400D01*
X0092821Y0123182D01*
X0092603Y0123400D01*
X0088708Y0123400D01*
X0088490Y0123182D01*
X0088272Y0123400D01*
X0084377Y0123400D01*
X0084160Y0123182D01*
X0083942Y0123400D01*
X0080047Y0123400D01*
X0079829Y0123182D01*
X0079611Y0123400D01*
X0075716Y0123400D01*
X0075498Y0123182D01*
X0075280Y0123400D01*
X0071385Y0123400D01*
X0071167Y0123182D01*
X0070950Y0123400D01*
X0067054Y0123400D01*
X0066527Y0122873D01*
X0066527Y0116222D01*
X0067054Y0115694D01*
X0068201Y0115694D01*
X0067273Y0114766D01*
X0067273Y0113034D01*
X0068498Y0111809D01*
X0070229Y0111809D01*
X0071454Y0113034D01*
X0071454Y0114766D01*
X0070525Y0115694D01*
X0070950Y0115694D01*
X0071078Y0115823D02*
X0071257Y0115823D01*
X0071454Y0114626D02*
X0076333Y0114626D01*
X0075735Y0114028D02*
X0071454Y0114028D01*
X0071454Y0113429D02*
X0075573Y0113429D01*
X0075573Y0112831D02*
X0071251Y0112831D01*
X0070652Y0112232D02*
X0075573Y0112232D01*
X0076073Y0111634D02*
X0062986Y0111634D01*
X0063254Y0111366D02*
X0062620Y0112000D01*
X0063254Y0112634D01*
X0063254Y0114366D01*
X0062029Y0115591D01*
X0060298Y0115591D01*
X0059073Y0114366D01*
X0059073Y0112634D01*
X0059707Y0112000D01*
X0059073Y0111366D01*
X0059073Y0109634D01*
X0059707Y0109000D01*
X0059073Y0108366D01*
X0059073Y0106634D01*
X0060298Y0105409D01*
X0062029Y0105409D01*
X0063254Y0106634D01*
X0063254Y0108366D01*
X0062620Y0109000D01*
X0063254Y0109634D01*
X0063254Y0111366D01*
X0063254Y0111035D02*
X0068642Y0111035D01*
X0068898Y0111291D02*
X0067673Y0110066D01*
X0067673Y0108334D01*
X0068898Y0107109D01*
X0070629Y0107109D01*
X0071854Y0108334D01*
X0071854Y0110066D01*
X0070629Y0111291D01*
X0068898Y0111291D01*
X0068043Y0110437D02*
X0063254Y0110437D01*
X0063254Y0109838D02*
X0067673Y0109838D01*
X0067673Y0109239D02*
X0062859Y0109239D01*
X0062979Y0108641D02*
X0067673Y0108641D01*
X0067965Y0108042D02*
X0063254Y0108042D01*
X0063254Y0107444D02*
X0068563Y0107444D01*
X0070964Y0107444D02*
X0076563Y0107444D01*
X0075965Y0108042D02*
X0071562Y0108042D01*
X0071854Y0108641D02*
X0075373Y0108641D01*
X0075373Y0109239D02*
X0071854Y0109239D01*
X0071854Y0109838D02*
X0075373Y0109838D01*
X0075443Y0110437D02*
X0071483Y0110437D01*
X0070885Y0111035D02*
X0076042Y0111035D01*
X0078364Y0107444D02*
X0084451Y0107444D01*
X0083873Y0106845D02*
X0063254Y0106845D01*
X0062867Y0106247D02*
X0083873Y0106247D01*
X0083873Y0105648D02*
X0062268Y0105648D01*
X0060059Y0105648D02*
X0054154Y0105648D01*
X0054154Y0106247D02*
X0059460Y0106247D01*
X0059073Y0106845D02*
X0054154Y0106845D01*
X0054154Y0107444D02*
X0059073Y0107444D01*
X0059073Y0108042D02*
X0054154Y0108042D01*
X0054154Y0108641D02*
X0059348Y0108641D01*
X0059467Y0109239D02*
X0054008Y0109239D01*
X0054154Y0109838D02*
X0059073Y0109838D01*
X0059073Y0110437D02*
X0054154Y0110437D01*
X0054154Y0111035D02*
X0059073Y0111035D01*
X0059341Y0111634D02*
X0054154Y0111634D01*
X0054154Y0112232D02*
X0059475Y0112232D01*
X0059073Y0112831D02*
X0054154Y0112831D01*
X0054149Y0113429D02*
X0059073Y0113429D01*
X0059073Y0114028D02*
X0038963Y0114028D01*
X0038963Y0114626D02*
X0059333Y0114626D01*
X0059932Y0115225D02*
X0043709Y0115225D01*
X0045138Y0115823D02*
X0058264Y0115823D01*
X0058393Y0115694D02*
X0062288Y0115694D01*
X0062815Y0116222D01*
X0062815Y0122873D01*
X0062288Y0123400D01*
X0058393Y0123400D01*
X0057866Y0122873D01*
X0057866Y0116222D01*
X0058393Y0115694D01*
X0057866Y0116422D02*
X0045737Y0116422D01*
X0046335Y0117020D02*
X0057866Y0117020D01*
X0057866Y0117619D02*
X0053239Y0117619D01*
X0053029Y0117409D02*
X0054254Y0118634D01*
X0054254Y0120366D01*
X0053029Y0121591D01*
X0051754Y0121591D01*
X0051754Y0122366D01*
X0050529Y0123591D01*
X0048798Y0123591D01*
X0047573Y0122366D01*
X0047573Y0120634D01*
X0048798Y0119409D01*
X0050073Y0119409D01*
X0050073Y0118634D01*
X0051298Y0117409D01*
X0053029Y0117409D01*
X0053837Y0118217D02*
X0057866Y0118217D01*
X0057866Y0118816D02*
X0054254Y0118816D01*
X0054254Y0119414D02*
X0057866Y0119414D01*
X0057866Y0120013D02*
X0054254Y0120013D01*
X0054009Y0120611D02*
X0057866Y0120611D01*
X0057866Y0121210D02*
X0053410Y0121210D01*
X0051754Y0121808D02*
X0057866Y0121808D01*
X0057866Y0122407D02*
X0051713Y0122407D01*
X0051115Y0123005D02*
X0057998Y0123005D01*
X0057123Y0124202D02*
X0038963Y0124202D01*
X0038963Y0123604D02*
X0041204Y0123604D01*
X0040017Y0123005D02*
X0038963Y0123005D01*
X0038963Y0122407D02*
X0039418Y0122407D01*
X0038963Y0124801D02*
X0056524Y0124801D01*
X0055926Y0125399D02*
X0044131Y0125399D01*
X0045313Y0125998D02*
X0055327Y0125998D01*
X0054729Y0126596D02*
X0045912Y0126596D01*
X0046417Y0127195D02*
X0054130Y0127195D01*
X0053532Y0127793D02*
X0046665Y0127793D01*
X0046913Y0128392D02*
X0052933Y0128392D01*
X0052335Y0128990D02*
X0047013Y0128990D01*
X0047013Y0129589D02*
X0051736Y0129589D01*
X0051482Y0130187D02*
X0047013Y0130187D01*
X0046839Y0130786D02*
X0051482Y0130786D01*
X0051482Y0131384D02*
X0046591Y0131384D01*
X0046332Y0131983D02*
X0051482Y0131983D01*
X0049636Y0132581D02*
X0045734Y0132581D01*
X0045135Y0133180D02*
X0049421Y0133180D01*
X0049421Y0133778D02*
X0043701Y0133778D01*
X0044552Y0135574D02*
X0049421Y0135574D01*
X0049421Y0134975D02*
X0038963Y0134975D01*
X0038963Y0134377D02*
X0049421Y0134377D01*
X0049492Y0136172D02*
X0045488Y0136172D01*
X0046086Y0136771D02*
X0057478Y0136771D01*
X0056879Y0136172D02*
X0056071Y0136172D01*
X0056142Y0135574D02*
X0056573Y0135574D01*
X0056573Y0134975D02*
X0056142Y0134975D01*
X0056142Y0134377D02*
X0056573Y0134377D01*
X0056863Y0133778D02*
X0056142Y0133778D01*
X0056142Y0133180D02*
X0056863Y0133180D01*
X0056863Y0132581D02*
X0055927Y0132581D01*
X0056863Y0131983D02*
X0054082Y0131983D01*
X0054082Y0131384D02*
X0056863Y0131384D01*
X0056863Y0130786D02*
X0054216Y0130786D01*
X0054815Y0130187D02*
X0056863Y0130187D01*
X0056863Y0129589D02*
X0055413Y0129589D01*
X0056012Y0128990D02*
X0057335Y0128990D01*
X0057933Y0128392D02*
X0056610Y0128392D01*
X0057209Y0127793D02*
X0058532Y0127793D01*
X0059130Y0127195D02*
X0057807Y0127195D01*
X0058406Y0126596D02*
X0059729Y0126596D01*
X0062683Y0123005D02*
X0066660Y0123005D01*
X0066527Y0122407D02*
X0062815Y0122407D01*
X0062815Y0121808D02*
X0066527Y0121808D01*
X0066527Y0121210D02*
X0062815Y0121210D01*
X0062815Y0120611D02*
X0066527Y0120611D01*
X0066527Y0120013D02*
X0062815Y0120013D01*
X0062815Y0119414D02*
X0066527Y0119414D01*
X0066527Y0118816D02*
X0062815Y0118816D01*
X0062815Y0118217D02*
X0066527Y0118217D01*
X0066527Y0117619D02*
X0062815Y0117619D01*
X0062815Y0117020D02*
X0066527Y0117020D01*
X0066527Y0116422D02*
X0062815Y0116422D01*
X0062417Y0115823D02*
X0066926Y0115823D01*
X0067732Y0115225D02*
X0062395Y0115225D01*
X0062994Y0114626D02*
X0067273Y0114626D01*
X0067273Y0114028D02*
X0063254Y0114028D01*
X0063254Y0113429D02*
X0067273Y0113429D01*
X0067476Y0112831D02*
X0063254Y0112831D01*
X0062852Y0112232D02*
X0068075Y0112232D01*
X0075409Y0115823D02*
X0075587Y0115823D01*
X0079740Y0115823D02*
X0079918Y0115823D01*
X0084070Y0115823D02*
X0084249Y0115823D01*
X0088401Y0115823D02*
X0088579Y0115823D01*
X0092732Y0115823D02*
X0092910Y0115823D01*
X0097063Y0115823D02*
X0110189Y0115823D01*
X0109590Y0116422D02*
X0097461Y0116422D01*
X0097461Y0117020D02*
X0108991Y0117020D01*
X0108734Y0117619D02*
X0097461Y0117619D01*
X0097461Y0118217D02*
X0108486Y0118217D01*
X0108313Y0118816D02*
X0097461Y0118816D01*
X0097461Y0119414D02*
X0108313Y0119414D01*
X0108313Y0120013D02*
X0097461Y0120013D01*
X0097461Y0120611D02*
X0108415Y0120611D01*
X0108663Y0121210D02*
X0097461Y0121210D01*
X0097461Y0121808D02*
X0108911Y0121808D01*
X0109418Y0122407D02*
X0097461Y0122407D01*
X0097329Y0123005D02*
X0110017Y0123005D01*
X0111204Y0123604D02*
X0044123Y0123604D01*
X0045310Y0123005D02*
X0048212Y0123005D01*
X0047614Y0122407D02*
X0045909Y0122407D01*
X0046416Y0121808D02*
X0047573Y0121808D01*
X0047573Y0121210D02*
X0046664Y0121210D01*
X0046912Y0120611D02*
X0047596Y0120611D01*
X0047013Y0120013D02*
X0048194Y0120013D01*
X0048793Y0119414D02*
X0047013Y0119414D01*
X0047013Y0118816D02*
X0050073Y0118816D01*
X0050490Y0118217D02*
X0046840Y0118217D01*
X0046593Y0117619D02*
X0051088Y0117619D01*
X0046454Y0113429D02*
X0044545Y0113429D01*
X0045485Y0112831D02*
X0046449Y0112831D01*
X0046449Y0112232D02*
X0046083Y0112232D01*
X0041618Y0115225D02*
X0038963Y0115225D01*
X0038963Y0115823D02*
X0040189Y0115823D01*
X0039590Y0116422D02*
X0038963Y0116422D01*
X0038963Y0117020D02*
X0038991Y0117020D01*
X0038963Y0113429D02*
X0040782Y0113429D01*
X0039842Y0112831D02*
X0038963Y0112831D01*
X0038963Y0112232D02*
X0039244Y0112232D01*
X0046449Y0107271D02*
X0046449Y0105198D01*
X0046666Y0104980D01*
X0046449Y0104763D01*
X0046449Y0101729D01*
X0046351Y0101964D01*
X0045128Y0103188D01*
X0043529Y0103850D01*
X0041798Y0103850D01*
X0040199Y0103188D01*
X0038976Y0101964D01*
X0038963Y0101934D01*
X0038963Y0107066D01*
X0038976Y0107036D01*
X0040199Y0105812D01*
X0041798Y0105150D01*
X0043529Y0105150D01*
X0045128Y0105812D01*
X0046351Y0107036D01*
X0046449Y0107271D01*
X0046449Y0106845D02*
X0046161Y0106845D01*
X0046449Y0106247D02*
X0045562Y0106247D01*
X0044732Y0105648D02*
X0046449Y0105648D01*
X0046597Y0105050D02*
X0038963Y0105050D01*
X0038963Y0105648D02*
X0040595Y0105648D01*
X0039765Y0106247D02*
X0038963Y0106247D01*
X0038963Y0106845D02*
X0039166Y0106845D01*
X0038963Y0104451D02*
X0046449Y0104451D01*
X0046449Y0103853D02*
X0038963Y0103853D01*
X0038963Y0103254D02*
X0040360Y0103254D01*
X0039667Y0102656D02*
X0038963Y0102656D01*
X0038963Y0102057D02*
X0039069Y0102057D01*
X0044967Y0103254D02*
X0046449Y0103254D01*
X0046449Y0102656D02*
X0045659Y0102656D01*
X0046258Y0102057D02*
X0046449Y0102057D01*
X0046449Y0097271D02*
X0046449Y0096537D01*
X0046666Y0096319D01*
X0046449Y0096101D01*
X0046449Y0092206D01*
X0046666Y0091988D01*
X0046449Y0091770D01*
X0046449Y0091729D01*
X0046351Y0091964D01*
X0045128Y0093188D01*
X0043529Y0093850D01*
X0041798Y0093850D01*
X0040199Y0093188D01*
X0038976Y0091964D01*
X0038963Y0091934D01*
X0038963Y0097066D01*
X0038976Y0097036D01*
X0040199Y0095812D01*
X0041798Y0095150D01*
X0043529Y0095150D01*
X0045128Y0095812D01*
X0046351Y0097036D01*
X0046449Y0097271D01*
X0046448Y0097269D02*
X0046449Y0097269D01*
X0046449Y0096671D02*
X0045986Y0096671D01*
X0046449Y0096072D02*
X0045388Y0096072D01*
X0046449Y0095474D02*
X0044310Y0095474D01*
X0043944Y0093678D02*
X0046449Y0093678D01*
X0046449Y0093080D02*
X0045236Y0093080D01*
X0045834Y0092481D02*
X0046449Y0092481D01*
X0046385Y0091883D02*
X0046561Y0091883D01*
X0041383Y0093678D02*
X0038963Y0093678D01*
X0038963Y0093080D02*
X0040091Y0093080D01*
X0039493Y0092481D02*
X0038963Y0092481D01*
X0038963Y0094277D02*
X0046449Y0094277D01*
X0046449Y0094875D02*
X0038963Y0094875D01*
X0038963Y0095474D02*
X0041017Y0095474D01*
X0039939Y0096072D02*
X0038963Y0096072D01*
X0038963Y0096671D02*
X0039341Y0096671D01*
X0054154Y0104451D02*
X0084556Y0104451D01*
X0083957Y0105050D02*
X0054006Y0105050D01*
X0080302Y0093800D02*
X0081463Y0094962D01*
X0081463Y0096744D01*
X0082298Y0095909D01*
X0084029Y0095909D01*
X0085254Y0097134D01*
X0085254Y0098866D01*
X0084029Y0100091D01*
X0083592Y0100091D01*
X0084702Y0101200D01*
X0089407Y0101200D01*
X0089073Y0100866D01*
X0089073Y0099134D01*
X0090207Y0098000D01*
X0089073Y0096866D01*
X0089073Y0095591D01*
X0088298Y0095591D01*
X0087073Y0094366D01*
X0087073Y0092634D01*
X0088298Y0091409D01*
X0090029Y0091409D01*
X0091254Y0092634D01*
X0091254Y0093909D01*
X0092029Y0093909D01*
X0093254Y0095134D01*
X0093254Y0096866D01*
X0092120Y0098000D01*
X0092663Y0098544D01*
X0093298Y0097909D01*
X0095029Y0097909D01*
X0096254Y0099134D01*
X0096254Y0100866D01*
X0095920Y0101200D01*
X0101173Y0101200D01*
X0101173Y0100867D01*
X0101391Y0100650D01*
X0101173Y0100432D01*
X0101173Y0096537D01*
X0101391Y0096319D01*
X0101173Y0096101D01*
X0101173Y0092300D01*
X0098625Y0092300D01*
X0097125Y0090800D01*
X0087702Y0090800D01*
X0087463Y0091038D01*
X0086702Y0091800D01*
X0083702Y0091800D01*
X0082463Y0093038D01*
X0081702Y0093800D01*
X0080302Y0093800D01*
X0080779Y0094277D02*
X0087073Y0094277D01*
X0087073Y0093678D02*
X0081824Y0093678D01*
X0082422Y0093080D02*
X0087073Y0093080D01*
X0087226Y0092481D02*
X0083021Y0092481D01*
X0083619Y0091883D02*
X0087824Y0091883D01*
X0087218Y0091284D02*
X0097609Y0091284D01*
X0098208Y0091883D02*
X0090503Y0091883D01*
X0091101Y0092481D02*
X0101173Y0092481D01*
X0101173Y0093080D02*
X0091254Y0093080D01*
X0091254Y0093678D02*
X0101173Y0093678D01*
X0101173Y0094277D02*
X0092397Y0094277D01*
X0092995Y0094875D02*
X0101173Y0094875D01*
X0101173Y0095474D02*
X0093254Y0095474D01*
X0093254Y0096072D02*
X0101173Y0096072D01*
X0101173Y0096671D02*
X0093254Y0096671D01*
X0092851Y0097269D02*
X0101173Y0097269D01*
X0101173Y0097868D02*
X0092252Y0097868D01*
X0092586Y0098466D02*
X0092741Y0098466D01*
X0090075Y0097868D02*
X0085254Y0097868D01*
X0085254Y0098466D02*
X0089741Y0098466D01*
X0089142Y0099065D02*
X0085055Y0099065D01*
X0084457Y0099663D02*
X0089073Y0099663D01*
X0089073Y0100262D02*
X0083764Y0100262D01*
X0084362Y0100860D02*
X0089073Y0100860D01*
X0089476Y0097269D02*
X0085254Y0097269D01*
X0084791Y0096671D02*
X0089073Y0096671D01*
X0089073Y0096072D02*
X0084192Y0096072D01*
X0082135Y0096072D02*
X0081463Y0096072D01*
X0081463Y0095474D02*
X0088181Y0095474D01*
X0087582Y0094875D02*
X0081377Y0094875D01*
X0081463Y0096671D02*
X0081536Y0096671D01*
X0095586Y0098466D02*
X0101173Y0098466D01*
X0101173Y0099065D02*
X0096185Y0099065D01*
X0096254Y0099663D02*
X0101173Y0099663D01*
X0101173Y0100262D02*
X0096254Y0100262D01*
X0096254Y0100860D02*
X0101180Y0100860D01*
X0101173Y0103853D02*
X0095973Y0103853D01*
X0096254Y0104451D02*
X0101173Y0104451D01*
X0101321Y0105050D02*
X0096254Y0105050D01*
X0096254Y0105648D02*
X0101173Y0105648D01*
X0101173Y0106247D02*
X0095873Y0106247D01*
X0095275Y0106845D02*
X0101173Y0106845D01*
X0098073Y0088200D02*
X0088302Y0088200D01*
X0094702Y0081800D01*
X0101173Y0081800D01*
X0101173Y0083109D01*
X0101700Y0083636D01*
X0108351Y0083636D01*
X0108878Y0083109D01*
X0108878Y0081729D01*
X0108976Y0081964D01*
X0110199Y0083188D01*
X0111798Y0083850D01*
X0113529Y0083850D01*
X0115128Y0083188D01*
X0116351Y0081964D01*
X0116363Y0081934D01*
X0116363Y0087066D01*
X0116351Y0087036D01*
X0115128Y0085812D01*
X0113529Y0085150D01*
X0111798Y0085150D01*
X0110199Y0085812D01*
X0108976Y0087036D01*
X0108701Y0087698D01*
X0108351Y0087348D01*
X0101968Y0087348D01*
X0101029Y0086409D01*
X0099298Y0086409D01*
X0098073Y0087634D01*
X0098073Y0088200D01*
X0098073Y0087693D02*
X0088809Y0087693D01*
X0089407Y0087095D02*
X0098612Y0087095D01*
X0099211Y0086496D02*
X0090006Y0086496D01*
X0090604Y0085898D02*
X0110114Y0085898D01*
X0109516Y0086496D02*
X0101116Y0086496D01*
X0101715Y0087095D02*
X0108951Y0087095D01*
X0108704Y0087693D02*
X0108696Y0087693D01*
X0111438Y0085299D02*
X0091203Y0085299D01*
X0091801Y0084701D02*
X0116363Y0084701D01*
X0116363Y0085299D02*
X0113889Y0085299D01*
X0115213Y0085898D02*
X0116363Y0085898D01*
X0116363Y0086496D02*
X0115811Y0086496D01*
X0116363Y0084102D02*
X0092400Y0084102D01*
X0092998Y0083503D02*
X0101567Y0083503D01*
X0101173Y0082905D02*
X0093597Y0082905D01*
X0094195Y0082306D02*
X0101173Y0082306D01*
X0108484Y0083503D02*
X0110962Y0083503D01*
X0109917Y0082905D02*
X0108878Y0082905D01*
X0108878Y0082306D02*
X0109318Y0082306D01*
X0114365Y0083503D02*
X0116363Y0083503D01*
X0116363Y0082905D02*
X0115410Y0082905D01*
X0116009Y0082306D02*
X0116363Y0082306D01*
X0090693Y0072132D02*
X0078463Y0072132D01*
X0078463Y0072730D02*
X0090095Y0072730D01*
X0089863Y0073329D02*
X0078463Y0073329D01*
X0078463Y0073927D02*
X0089863Y0073927D01*
X0089863Y0074526D02*
X0078463Y0074526D01*
X0078463Y0075124D02*
X0089863Y0075124D01*
X0089863Y0075723D02*
X0078463Y0075723D01*
X0078463Y0076321D02*
X0089863Y0076321D01*
X0089863Y0076920D02*
X0078463Y0076920D01*
X0078463Y0077518D02*
X0089863Y0077518D01*
X0089863Y0078117D02*
X0078463Y0078117D01*
X0078463Y0078715D02*
X0089863Y0078715D01*
X0089511Y0079314D02*
X0078463Y0079314D01*
X0078463Y0079912D02*
X0078795Y0079912D01*
X0081532Y0079912D02*
X0088913Y0079912D01*
X0088314Y0080511D02*
X0082131Y0080511D01*
X0082254Y0081109D02*
X0087716Y0081109D01*
X0082617Y0081708D02*
X0082254Y0081708D01*
X0063863Y0081708D02*
X0060360Y0081708D01*
X0059868Y0082200D02*
X0063863Y0078204D01*
X0063863Y0082462D01*
X0059625Y0086700D01*
X0055202Y0086700D01*
X0054154Y0085652D01*
X0054154Y0083545D01*
X0053936Y0083327D01*
X0054154Y0083109D01*
X0054154Y0082200D01*
X0059868Y0082200D01*
X0060958Y0081109D02*
X0063863Y0081109D01*
X0063863Y0080511D02*
X0061557Y0080511D01*
X0062155Y0079912D02*
X0063863Y0079912D01*
X0063863Y0079314D02*
X0062754Y0079314D01*
X0063352Y0078715D02*
X0063863Y0078715D01*
X0060938Y0076321D02*
X0054154Y0076321D01*
X0054154Y0075723D02*
X0060963Y0075723D01*
X0060963Y0075124D02*
X0054154Y0075124D01*
X0053797Y0074526D02*
X0060963Y0074526D01*
X0060963Y0073927D02*
X0038963Y0073927D01*
X0038963Y0073329D02*
X0040540Y0073329D01*
X0039742Y0072730D02*
X0038963Y0072730D01*
X0038963Y0072132D02*
X0039143Y0072132D01*
X0038963Y0074526D02*
X0046806Y0074526D01*
X0046449Y0075124D02*
X0038963Y0075124D01*
X0038963Y0075723D02*
X0040415Y0075723D01*
X0039690Y0076321D02*
X0038963Y0076321D01*
X0038963Y0076920D02*
X0039092Y0076920D01*
X0044912Y0075723D02*
X0046449Y0075723D01*
X0046449Y0076321D02*
X0045637Y0076321D01*
X0046235Y0076920D02*
X0046449Y0076920D01*
X0044787Y0073329D02*
X0060963Y0073329D01*
X0060963Y0072730D02*
X0045585Y0072730D01*
X0046184Y0072132D02*
X0060963Y0072132D01*
X0060963Y0071533D02*
X0046530Y0071533D01*
X0046778Y0070935D02*
X0060963Y0070935D01*
X0060963Y0070336D02*
X0053935Y0070336D01*
X0054154Y0069738D02*
X0060963Y0069738D01*
X0060963Y0069139D02*
X0054154Y0069139D01*
X0054154Y0068541D02*
X0060963Y0068541D01*
X0060963Y0067942D02*
X0054154Y0067942D01*
X0054154Y0067344D02*
X0060963Y0067344D01*
X0060963Y0066745D02*
X0054154Y0066745D01*
X0054079Y0066147D02*
X0060963Y0066147D01*
X0060963Y0065548D02*
X0054154Y0065548D01*
X0054154Y0064950D02*
X0060963Y0064950D01*
X0060963Y0064351D02*
X0054154Y0064351D01*
X0054154Y0063753D02*
X0060963Y0063753D01*
X0060963Y0063154D02*
X0054154Y0063154D01*
X0054154Y0062556D02*
X0060963Y0062556D01*
X0060963Y0061957D02*
X0054154Y0061957D01*
X0054154Y0061359D02*
X0060963Y0061359D01*
X0078463Y0061359D02*
X0086848Y0061359D01*
X0086250Y0061957D02*
X0078463Y0061957D01*
X0078463Y0062556D02*
X0086073Y0062556D01*
X0086073Y0063154D02*
X0078463Y0063154D01*
X0078463Y0063753D02*
X0086073Y0063753D01*
X0086558Y0064351D02*
X0078463Y0064351D01*
X0078463Y0064950D02*
X0087157Y0064950D01*
X0089170Y0064950D02*
X0089863Y0064950D01*
X0089863Y0065548D02*
X0078463Y0065548D01*
X0078463Y0066147D02*
X0089863Y0066147D01*
X0089863Y0066745D02*
X0078463Y0066745D01*
X0078463Y0067344D02*
X0089863Y0067344D01*
X0089265Y0067942D02*
X0078463Y0067942D01*
X0078463Y0068541D02*
X0088666Y0068541D01*
X0088073Y0069139D02*
X0078463Y0069139D01*
X0078463Y0069738D02*
X0088073Y0069738D01*
X0088073Y0070336D02*
X0078463Y0070336D01*
X0078463Y0070935D02*
X0088142Y0070935D01*
X0088740Y0071533D02*
X0078463Y0071533D01*
X0089769Y0064351D02*
X0089863Y0064351D01*
X0092463Y0057169D02*
X0092656Y0057169D01*
X0092463Y0056570D02*
X0093255Y0056570D01*
X0093853Y0055972D02*
X0092463Y0055972D01*
X0092463Y0055373D02*
X0094452Y0055373D01*
X0095050Y0054775D02*
X0092463Y0054775D01*
X0092463Y0054176D02*
X0095649Y0054176D01*
X0096247Y0053578D02*
X0092463Y0053578D01*
X0092463Y0052979D02*
X0096846Y0052979D01*
X0108411Y0044600D02*
X0116363Y0044600D01*
X0116363Y0044002D02*
X0108878Y0044002D01*
X0108878Y0043403D02*
X0110720Y0043403D01*
X0109816Y0042805D02*
X0108878Y0042805D01*
X0108878Y0042206D02*
X0109218Y0042206D01*
X0114607Y0043403D02*
X0116363Y0043403D01*
X0116363Y0042805D02*
X0115511Y0042805D01*
X0116109Y0042206D02*
X0116363Y0042206D01*
X0116363Y0045199D02*
X0113646Y0045199D01*
X0115091Y0045797D02*
X0116363Y0045797D01*
X0116363Y0046396D02*
X0115711Y0046396D01*
X0116310Y0046994D02*
X0116363Y0046994D01*
X0116363Y0036820D02*
X0116135Y0036820D01*
X0116363Y0036221D02*
X0115536Y0036221D01*
X0116363Y0035623D02*
X0114670Y0035623D01*
X0116363Y0035024D02*
X0108878Y0035024D01*
X0108878Y0034426D02*
X0116363Y0034426D01*
X0116363Y0033827D02*
X0113584Y0033827D01*
X0115029Y0033229D02*
X0116363Y0033229D01*
X0116363Y0032630D02*
X0115685Y0032630D01*
X0116284Y0032032D02*
X0116363Y0032032D01*
X0111743Y0033827D02*
X0108878Y0033827D01*
X0108878Y0033229D02*
X0110298Y0033229D01*
X0109642Y0032630D02*
X0108878Y0032630D01*
X0108878Y0032032D02*
X0109043Y0032032D01*
X0108756Y0031433D02*
X0108735Y0031433D01*
X0108508Y0030834D02*
X0054363Y0030834D01*
X0054363Y0030236D02*
X0108313Y0030236D01*
X0108313Y0029637D02*
X0054363Y0029637D01*
X0054363Y0029039D02*
X0062316Y0029039D01*
X0062097Y0028820D02*
X0062097Y0022086D01*
X0062471Y0021711D01*
X0062471Y0019581D01*
X0062281Y0019581D01*
X0061695Y0018995D01*
X0061695Y0014033D01*
X0062281Y0013447D01*
X0067046Y0013447D01*
X0067632Y0014033D01*
X0067632Y0018995D01*
X0067046Y0019581D01*
X0066871Y0019581D01*
X0066871Y0021711D01*
X0067246Y0022086D01*
X0067246Y0028820D01*
X0066660Y0029405D01*
X0062682Y0029405D01*
X0062097Y0028820D01*
X0062097Y0028440D02*
X0054363Y0028440D01*
X0054363Y0027842D02*
X0062097Y0027842D01*
X0062097Y0027243D02*
X0054363Y0027243D01*
X0054363Y0026645D02*
X0062097Y0026645D01*
X0062097Y0026046D02*
X0054363Y0026046D01*
X0054363Y0025448D02*
X0062097Y0025448D01*
X0062097Y0024849D02*
X0054363Y0024849D01*
X0054363Y0024251D02*
X0062097Y0024251D01*
X0062097Y0023652D02*
X0054363Y0023652D01*
X0054363Y0023054D02*
X0062097Y0023054D01*
X0062097Y0022455D02*
X0054363Y0022455D01*
X0054363Y0021857D02*
X0062325Y0021857D01*
X0062471Y0021258D02*
X0054119Y0021258D01*
X0053520Y0020660D02*
X0062471Y0020660D01*
X0062471Y0020061D02*
X0052922Y0020061D01*
X0052323Y0019463D02*
X0062163Y0019463D01*
X0061695Y0018864D02*
X0051863Y0018864D01*
X0051863Y0018266D02*
X0061695Y0018266D01*
X0061695Y0017667D02*
X0051863Y0017667D01*
X0051863Y0017069D02*
X0061695Y0017069D01*
X0061695Y0016470D02*
X0051863Y0016470D01*
X0051863Y0015872D02*
X0061695Y0015872D01*
X0061695Y0015273D02*
X0051863Y0015273D01*
X0051863Y0014675D02*
X0061695Y0014675D01*
X0061695Y0014076D02*
X0051863Y0014076D01*
X0051863Y0013478D02*
X0062250Y0013478D01*
X0067077Y0013478D02*
X0075563Y0013478D01*
X0075563Y0013873D02*
X0075563Y0011327D01*
X0076091Y0010800D01*
X0077963Y0010800D01*
X0077963Y0010256D01*
X0077073Y0009366D01*
X0077073Y0007634D01*
X0078298Y0006409D01*
X0080029Y0006409D01*
X0081254Y0007634D01*
X0081254Y0008186D01*
X0081363Y0008296D01*
X0081363Y0010800D01*
X0083236Y0010800D01*
X0083763Y0011327D01*
X0083763Y0013873D01*
X0083236Y0014400D01*
X0080091Y0014400D01*
X0079991Y0014300D01*
X0079336Y0014300D01*
X0079236Y0014400D01*
X0076091Y0014400D01*
X0075563Y0013873D01*
X0075767Y0014076D02*
X0067632Y0014076D01*
X0067632Y0014675D02*
X0099118Y0014675D01*
X0099118Y0014400D02*
X0096091Y0014400D01*
X0095563Y0013873D01*
X0095563Y0011327D01*
X0095963Y0010927D01*
X0095963Y0009296D01*
X0096959Y0008300D01*
X0096959Y0008300D01*
X0097073Y0008186D01*
X0097073Y0007634D01*
X0098298Y0006409D01*
X0100029Y0006409D01*
X0101254Y0007634D01*
X0101254Y0009366D01*
X0100029Y0010591D01*
X0099477Y0010591D01*
X0099363Y0010704D01*
X0099363Y0010927D01*
X0099763Y0011327D01*
X0099763Y0013109D01*
X0100276Y0012596D01*
X0101258Y0012190D01*
X0102321Y0012190D01*
X0103303Y0012596D01*
X0104054Y0013348D01*
X0104461Y0014330D01*
X0104461Y0015393D01*
X0104054Y0016375D01*
X0103303Y0017126D01*
X0102321Y0017533D01*
X0101258Y0017533D01*
X0100276Y0017126D01*
X0099525Y0016375D01*
X0099118Y0015393D01*
X0099118Y0014400D01*
X0099118Y0015273D02*
X0067632Y0015273D01*
X0067632Y0015872D02*
X0099316Y0015872D01*
X0099620Y0016470D02*
X0067632Y0016470D01*
X0067632Y0017069D02*
X0100218Y0017069D01*
X0103360Y0017069D02*
X0108962Y0017069D01*
X0108714Y0017667D02*
X0067632Y0017667D01*
X0067632Y0018266D02*
X0108466Y0018266D01*
X0108313Y0018864D02*
X0067632Y0018864D01*
X0067164Y0019463D02*
X0108313Y0019463D01*
X0108313Y0020061D02*
X0066871Y0020061D01*
X0066871Y0020660D02*
X0108435Y0020660D01*
X0108683Y0021258D02*
X0066871Y0021258D01*
X0067017Y0021857D02*
X0088451Y0021857D01*
X0088708Y0021600D02*
X0092603Y0021600D01*
X0093130Y0022127D01*
X0093130Y0028778D01*
X0092603Y0029305D01*
X0088708Y0029305D01*
X0088181Y0028778D01*
X0088181Y0022127D01*
X0088708Y0021600D01*
X0088181Y0022455D02*
X0067246Y0022455D01*
X0067246Y0023054D02*
X0088181Y0023054D01*
X0088181Y0023652D02*
X0067246Y0023652D01*
X0067246Y0024251D02*
X0088181Y0024251D01*
X0088181Y0024849D02*
X0067246Y0024849D01*
X0067246Y0025448D02*
X0088181Y0025448D01*
X0088181Y0026046D02*
X0067246Y0026046D01*
X0067246Y0026645D02*
X0088181Y0026645D01*
X0088181Y0027243D02*
X0067246Y0027243D01*
X0067246Y0027842D02*
X0088181Y0027842D01*
X0088181Y0028440D02*
X0067246Y0028440D01*
X0067027Y0029039D02*
X0088441Y0029039D01*
X0092870Y0029039D02*
X0108313Y0029039D01*
X0108394Y0028440D02*
X0093130Y0028440D01*
X0093130Y0027842D02*
X0108642Y0027842D01*
X0108890Y0027243D02*
X0093130Y0027243D01*
X0093130Y0026645D02*
X0103947Y0026645D01*
X0104442Y0027140D02*
X0103338Y0026036D01*
X0103338Y0024475D01*
X0104442Y0023372D01*
X0106003Y0023372D01*
X0107107Y0024475D01*
X0107107Y0026036D01*
X0106003Y0027140D01*
X0104442Y0027140D01*
X0103348Y0026046D02*
X0093130Y0026046D01*
X0093130Y0025448D02*
X0103338Y0025448D01*
X0103338Y0024849D02*
X0093130Y0024849D01*
X0093130Y0024251D02*
X0103563Y0024251D01*
X0104161Y0023652D02*
X0093130Y0023652D01*
X0093130Y0023054D02*
X0110065Y0023054D01*
X0109467Y0022455D02*
X0093130Y0022455D01*
X0092860Y0021857D02*
X0108931Y0021857D01*
X0111321Y0023652D02*
X0106284Y0023652D01*
X0106882Y0024251D02*
X0116363Y0024251D01*
X0116363Y0024849D02*
X0107107Y0024849D01*
X0107107Y0025448D02*
X0111079Y0025448D01*
X0109965Y0026046D02*
X0107097Y0026046D01*
X0106498Y0026645D02*
X0109367Y0026645D01*
X0114248Y0025448D02*
X0116363Y0025448D01*
X0116363Y0026046D02*
X0115362Y0026046D01*
X0115960Y0026645D02*
X0116363Y0026645D01*
X0116363Y0023652D02*
X0114006Y0023652D01*
X0115261Y0023054D02*
X0116363Y0023054D01*
X0116363Y0022455D02*
X0115860Y0022455D01*
X0115786Y0016470D02*
X0116363Y0016470D01*
X0116363Y0015872D02*
X0115187Y0015872D01*
X0116363Y0015273D02*
X0113826Y0015273D01*
X0111501Y0015273D02*
X0104461Y0015273D01*
X0104461Y0014675D02*
X0116297Y0014675D01*
X0115998Y0014076D02*
X0104356Y0014076D01*
X0104108Y0013478D02*
X0115699Y0013478D01*
X0115400Y0012879D02*
X0103585Y0012879D01*
X0102540Y0012281D02*
X0115100Y0012281D01*
X0114801Y0011682D02*
X0099763Y0011682D01*
X0099763Y0012281D02*
X0101039Y0012281D01*
X0099993Y0012879D02*
X0099763Y0012879D01*
X0099520Y0011084D02*
X0114502Y0011084D01*
X0114203Y0010485D02*
X0100135Y0010485D01*
X0100733Y0009887D02*
X0113903Y0009887D01*
X0113604Y0009288D02*
X0101254Y0009288D01*
X0101254Y0008690D02*
X0113305Y0008690D01*
X0113006Y0008091D02*
X0101254Y0008091D01*
X0101113Y0007493D02*
X0112706Y0007493D01*
X0112407Y0006894D02*
X0100514Y0006894D01*
X0097813Y0006894D02*
X0090514Y0006894D01*
X0090029Y0006409D02*
X0091254Y0007634D01*
X0091254Y0008186D01*
X0091363Y0008296D01*
X0091363Y0010927D01*
X0091763Y0011327D01*
X0091763Y0013873D01*
X0091236Y0014400D01*
X0088091Y0014400D01*
X0087563Y0013873D01*
X0087563Y0011327D01*
X0087963Y0010927D01*
X0087963Y0010256D01*
X0087073Y0009366D01*
X0087073Y0007634D01*
X0088298Y0006409D01*
X0090029Y0006409D01*
X0091113Y0007493D02*
X0097214Y0007493D01*
X0097073Y0008091D02*
X0091254Y0008091D01*
X0091363Y0008690D02*
X0096570Y0008690D01*
X0095971Y0009288D02*
X0091363Y0009288D01*
X0091363Y0009887D02*
X0095963Y0009887D01*
X0095963Y0010485D02*
X0091363Y0010485D01*
X0091520Y0011084D02*
X0095807Y0011084D01*
X0095563Y0011682D02*
X0091763Y0011682D01*
X0091763Y0012281D02*
X0095563Y0012281D01*
X0095563Y0012879D02*
X0091763Y0012879D01*
X0091763Y0013478D02*
X0095563Y0013478D01*
X0095767Y0014076D02*
X0091560Y0014076D01*
X0087767Y0014076D02*
X0083560Y0014076D01*
X0083763Y0013478D02*
X0087563Y0013478D01*
X0087563Y0012879D02*
X0083763Y0012879D01*
X0083763Y0012281D02*
X0087563Y0012281D01*
X0087563Y0011682D02*
X0083763Y0011682D01*
X0083520Y0011084D02*
X0087807Y0011084D01*
X0087963Y0010485D02*
X0081363Y0010485D01*
X0081363Y0009887D02*
X0087594Y0009887D01*
X0087073Y0009288D02*
X0081363Y0009288D01*
X0081363Y0008690D02*
X0087073Y0008690D01*
X0087073Y0008091D02*
X0081254Y0008091D01*
X0081113Y0007493D02*
X0087214Y0007493D01*
X0087813Y0006894D02*
X0080514Y0006894D01*
X0077813Y0006894D02*
X0051863Y0006894D01*
X0051863Y0006296D02*
X0112108Y0006296D01*
X0110140Y0015872D02*
X0104263Y0015872D01*
X0103959Y0016470D02*
X0109541Y0016470D01*
X0077963Y0010485D02*
X0051863Y0010485D01*
X0051863Y0009887D02*
X0077594Y0009887D01*
X0077073Y0009288D02*
X0051863Y0009288D01*
X0051863Y0008690D02*
X0077073Y0008690D01*
X0077073Y0008091D02*
X0051863Y0008091D01*
X0051863Y0007493D02*
X0077214Y0007493D01*
X0075807Y0011084D02*
X0051863Y0011084D01*
X0051863Y0011682D02*
X0075563Y0011682D01*
X0075563Y0012281D02*
X0051863Y0012281D01*
X0051863Y0012879D02*
X0075563Y0012879D01*
X0046963Y0015872D02*
X0045187Y0015872D01*
X0045786Y0016470D02*
X0046963Y0016470D01*
X0046963Y0017069D02*
X0046365Y0017069D01*
X0046613Y0017667D02*
X0046963Y0017667D01*
X0046963Y0018266D02*
X0046861Y0018266D01*
X0108727Y0035623D02*
X0110657Y0035623D01*
X0060339Y0076920D02*
X0054154Y0076920D01*
X0054154Y0077518D02*
X0059741Y0077518D01*
X0059142Y0078117D02*
X0054154Y0078117D01*
X0054154Y0078715D02*
X0058544Y0078715D01*
X0054154Y0082306D02*
X0063863Y0082306D01*
X0063420Y0082905D02*
X0054154Y0082905D01*
X0054113Y0083503D02*
X0062821Y0083503D01*
X0062223Y0084102D02*
X0054154Y0084102D01*
X0054154Y0084701D02*
X0061624Y0084701D01*
X0061026Y0085299D02*
X0054154Y0085299D01*
X0054399Y0085898D02*
X0060427Y0085898D01*
X0059829Y0086496D02*
X0054998Y0086496D01*
X0074704Y0124202D02*
X0077623Y0124202D01*
X0077024Y0124801D02*
X0075303Y0124801D01*
X0078863Y0129589D02*
X0078918Y0129589D01*
X0080809Y0129589D02*
X0089618Y0129589D01*
X0089020Y0130187D02*
X0081407Y0130187D01*
X0081954Y0130786D02*
X0088773Y0130786D01*
X0088773Y0131384D02*
X0081954Y0131384D01*
X0081954Y0131983D02*
X0088773Y0131983D01*
X0089188Y0132581D02*
X0081839Y0132581D01*
X0083278Y0133180D02*
X0089787Y0133180D01*
X0091940Y0133180D02*
X0093287Y0133180D01*
X0092688Y0132581D02*
X0092539Y0132581D01*
X0095440Y0133180D02*
X0095573Y0133180D01*
X0095573Y0133778D02*
X0083485Y0133778D01*
X0083485Y0134377D02*
X0095584Y0134377D01*
X0096182Y0134975D02*
X0083485Y0134975D01*
X0085494Y0135574D02*
X0096781Y0135574D01*
X0098546Y0135574D02*
X0110775Y0135574D01*
X0109839Y0136172D02*
X0086092Y0136172D01*
X0086554Y0136771D02*
X0109241Y0136771D01*
X0108838Y0137370D02*
X0086554Y0137370D01*
X0086554Y0137968D02*
X0108590Y0137968D01*
X0108342Y0138567D02*
X0105574Y0138567D01*
X0105906Y0139165D02*
X0108313Y0139165D01*
X0108313Y0139764D02*
X0105906Y0139764D01*
X0105906Y0140362D02*
X0108313Y0140362D01*
X0108560Y0140961D02*
X0105906Y0140961D01*
X0105906Y0141559D02*
X0108808Y0141559D01*
X0109169Y0142158D02*
X0105906Y0142158D01*
X0109768Y0142756D02*
X0098258Y0142756D01*
X0097660Y0142158D02*
X0099185Y0142158D01*
X0098857Y0143355D02*
X0110602Y0143355D01*
X0111798Y0143850D02*
X0113529Y0143850D01*
X0115128Y0143188D01*
X0116351Y0141964D01*
X0116363Y0141934D01*
X0116363Y0147066D01*
X0116351Y0147036D01*
X0115128Y0145812D01*
X0113529Y0145150D01*
X0114974Y0145749D02*
X0116363Y0145749D01*
X0116363Y0146347D02*
X0115662Y0146347D01*
X0116261Y0146946D02*
X0116363Y0146946D01*
X0116363Y0143953D02*
X0099455Y0143953D01*
X0099933Y0146800D02*
X0108125Y0146800D01*
X0108796Y0147471D01*
X0108313Y0148635D01*
X0108313Y0150365D01*
X0108976Y0151964D01*
X0110199Y0153188D01*
X0111798Y0153850D01*
X0113529Y0153850D01*
X0115128Y0153188D01*
X0116351Y0151964D01*
X0116363Y0151934D01*
X0116363Y0167066D01*
X0116351Y0167036D01*
X0115128Y0165812D01*
X0113529Y0165150D01*
X0111798Y0165150D01*
X0110199Y0165812D01*
X0108976Y0167036D01*
X0108313Y0168635D01*
X0108313Y0170365D01*
X0108976Y0171964D01*
X0110199Y0173188D01*
X0111798Y0173850D01*
X0113529Y0173850D01*
X0115128Y0173188D01*
X0116351Y0171964D01*
X0116363Y0171934D01*
X0116363Y0177066D01*
X0116351Y0177036D01*
X0115128Y0175812D01*
X0113529Y0175150D01*
X0111798Y0175150D01*
X0110634Y0175632D01*
X0107463Y0172462D01*
X0107463Y0154962D01*
X0103963Y0151462D01*
X0103202Y0150700D01*
X0100186Y0150700D01*
X0100186Y0147052D01*
X0099933Y0146800D01*
X0100079Y0146946D02*
X0108271Y0146946D01*
X0108765Y0147544D02*
X0100186Y0147544D01*
X0100186Y0148143D02*
X0108517Y0148143D01*
X0108313Y0148741D02*
X0100186Y0148741D01*
X0100186Y0149340D02*
X0108313Y0149340D01*
X0108313Y0149938D02*
X0100186Y0149938D01*
X0100186Y0150537D02*
X0108385Y0150537D01*
X0108632Y0151135D02*
X0103637Y0151135D01*
X0104236Y0151734D02*
X0108880Y0151734D01*
X0109344Y0152332D02*
X0104834Y0152332D01*
X0105433Y0152931D02*
X0109942Y0152931D01*
X0111024Y0153529D02*
X0106031Y0153529D01*
X0106630Y0154128D02*
X0116363Y0154128D01*
X0116363Y0154726D02*
X0107228Y0154726D01*
X0107463Y0155325D02*
X0116363Y0155325D01*
X0116363Y0155923D02*
X0107463Y0155923D01*
X0107463Y0156522D02*
X0116363Y0156522D01*
X0116363Y0157120D02*
X0107463Y0157120D01*
X0107463Y0157719D02*
X0116363Y0157719D01*
X0116363Y0158317D02*
X0107463Y0158317D01*
X0107463Y0158916D02*
X0116363Y0158916D01*
X0116363Y0159514D02*
X0107463Y0159514D01*
X0107463Y0160113D02*
X0116363Y0160113D01*
X0116363Y0160711D02*
X0107463Y0160711D01*
X0107463Y0161310D02*
X0116363Y0161310D01*
X0116363Y0161908D02*
X0107463Y0161908D01*
X0107463Y0162507D02*
X0116363Y0162507D01*
X0116363Y0163105D02*
X0107463Y0163105D01*
X0107463Y0163704D02*
X0116363Y0163704D01*
X0116363Y0164303D02*
X0107463Y0164303D01*
X0107463Y0164901D02*
X0116363Y0164901D01*
X0116363Y0165500D02*
X0114373Y0165500D01*
X0115413Y0166098D02*
X0116363Y0166098D01*
X0116363Y0166697D02*
X0116012Y0166697D01*
X0110954Y0165500D02*
X0107463Y0165500D01*
X0107463Y0166098D02*
X0109914Y0166098D01*
X0109315Y0166697D02*
X0107463Y0166697D01*
X0107463Y0167295D02*
X0108868Y0167295D01*
X0108620Y0167894D02*
X0107463Y0167894D01*
X0107463Y0168492D02*
X0108373Y0168492D01*
X0108313Y0169091D02*
X0107463Y0169091D01*
X0107463Y0169689D02*
X0108313Y0169689D01*
X0108313Y0170288D02*
X0107463Y0170288D01*
X0107463Y0170886D02*
X0108529Y0170886D01*
X0108777Y0171485D02*
X0107463Y0171485D01*
X0107463Y0172083D02*
X0109095Y0172083D01*
X0109693Y0172682D02*
X0107684Y0172682D01*
X0108282Y0173280D02*
X0110423Y0173280D01*
X0109479Y0174477D02*
X0116363Y0174477D01*
X0116363Y0173879D02*
X0108881Y0173879D01*
X0110078Y0175076D02*
X0116363Y0175076D01*
X0116363Y0175674D02*
X0114794Y0175674D01*
X0115588Y0176273D02*
X0116363Y0176273D01*
X0116363Y0176871D02*
X0116187Y0176871D01*
X0108796Y0177471D02*
X0108313Y0178635D01*
X0108313Y0180365D01*
X0108976Y0181964D01*
X0110199Y0183188D01*
X0111798Y0183850D01*
X0113529Y0183850D01*
X0115128Y0183188D01*
X0116351Y0181964D01*
X0116363Y0181934D01*
X0116363Y0187066D01*
X0116351Y0187036D01*
X0115128Y0185812D01*
X0113529Y0185150D01*
X0111798Y0185150D01*
X0110199Y0185812D01*
X0108976Y0187036D01*
X0108313Y0188635D01*
X0108313Y0190365D01*
X0108976Y0191964D01*
X0110199Y0193188D01*
X0111798Y0193850D01*
X0113529Y0193850D01*
X0115128Y0193188D01*
X0116351Y0191964D01*
X0116363Y0191934D01*
X0116363Y0203200D01*
X0038963Y0203200D01*
X0038963Y0191934D01*
X0038976Y0191964D01*
X0040199Y0193188D01*
X0041798Y0193850D01*
X0043529Y0193850D01*
X0045128Y0193188D01*
X0046228Y0192087D01*
X0046228Y0199341D01*
X0046755Y0199868D01*
X0053800Y0199868D01*
X0054327Y0199341D01*
X0054327Y0186785D01*
X0053800Y0186257D01*
X0052862Y0186257D01*
X0053254Y0185866D01*
X0053254Y0184134D01*
X0052620Y0183500D01*
X0053254Y0182866D01*
X0053254Y0181134D01*
X0052029Y0179909D01*
X0050298Y0179909D01*
X0049073Y0181134D01*
X0049073Y0182866D01*
X0049707Y0183500D01*
X0049073Y0184134D01*
X0049073Y0185866D01*
X0049464Y0186257D01*
X0046755Y0186257D01*
X0046228Y0186785D01*
X0046228Y0186913D01*
X0045128Y0185812D01*
X0043529Y0185150D01*
X0041798Y0185150D01*
X0040199Y0185812D01*
X0038976Y0187036D01*
X0038963Y0187066D01*
X0038963Y0171934D01*
X0038976Y0171964D01*
X0040199Y0173188D01*
X0041798Y0173850D01*
X0043529Y0173850D01*
X0045128Y0173188D01*
X0046351Y0171964D01*
X0047013Y0170365D01*
X0047013Y0168635D01*
X0046351Y0167036D01*
X0045128Y0165812D01*
X0043529Y0165150D01*
X0041798Y0165150D01*
X0040199Y0165812D01*
X0038976Y0167036D01*
X0038963Y0167066D01*
X0038963Y0161934D01*
X0038976Y0161964D01*
X0040199Y0163188D01*
X0041798Y0163850D01*
X0043529Y0163850D01*
X0045128Y0163188D01*
X0046351Y0161964D01*
X0047013Y0160365D01*
X0047013Y0158635D01*
X0046351Y0157036D01*
X0045128Y0155812D01*
X0043529Y0155150D01*
X0041798Y0155150D01*
X0040199Y0155812D01*
X0038976Y0157036D01*
X0038963Y0157066D01*
X0038963Y0151934D01*
X0038976Y0151964D01*
X0040199Y0153188D01*
X0041798Y0153850D01*
X0043529Y0153850D01*
X0045128Y0153188D01*
X0046351Y0151964D01*
X0047013Y0150365D01*
X0047013Y0148635D01*
X0046351Y0147036D01*
X0045128Y0145812D01*
X0043529Y0145150D01*
X0044974Y0145749D02*
X0071174Y0145749D01*
X0071463Y0146038D02*
X0069725Y0144300D01*
X0063625Y0144300D01*
X0062680Y0143355D02*
X0044725Y0143355D01*
X0045559Y0142756D02*
X0062081Y0142756D01*
X0061863Y0142158D02*
X0046158Y0142158D01*
X0046519Y0141559D02*
X0061863Y0141559D01*
X0061863Y0140961D02*
X0046767Y0140961D01*
X0047013Y0140362D02*
X0061863Y0140362D01*
X0061863Y0139764D02*
X0047013Y0139764D01*
X0047013Y0139165D02*
X0061863Y0139165D01*
X0061863Y0138567D02*
X0046985Y0138567D01*
X0046737Y0137968D02*
X0061863Y0137968D01*
X0061863Y0137370D02*
X0046489Y0137370D01*
X0040775Y0135574D02*
X0038963Y0135574D01*
X0038963Y0136172D02*
X0039839Y0136172D01*
X0039241Y0136771D02*
X0038963Y0136771D01*
X0038963Y0133778D02*
X0041625Y0133778D01*
X0040192Y0133180D02*
X0038963Y0133180D01*
X0038963Y0132581D02*
X0039593Y0132581D01*
X0038995Y0131983D02*
X0038963Y0131983D01*
X0038963Y0126596D02*
X0039415Y0126596D01*
X0038963Y0125998D02*
X0040014Y0125998D01*
X0038963Y0125399D02*
X0041196Y0125399D01*
X0060754Y0134975D02*
X0061300Y0134975D01*
X0060754Y0135574D02*
X0061863Y0135574D01*
X0061863Y0136172D02*
X0060447Y0136172D01*
X0059849Y0136771D02*
X0061863Y0136771D01*
X0064463Y0136771D02*
X0068873Y0136771D01*
X0068873Y0137370D02*
X0064463Y0137370D01*
X0064463Y0137968D02*
X0068873Y0137968D01*
X0068974Y0138567D02*
X0064463Y0138567D01*
X0064463Y0139165D02*
X0069572Y0139165D01*
X0070306Y0139764D02*
X0064463Y0139764D01*
X0064463Y0140362D02*
X0070904Y0140362D01*
X0071842Y0140961D02*
X0064463Y0140961D01*
X0064561Y0141559D02*
X0071842Y0141559D01*
X0071260Y0142158D02*
X0076285Y0142158D01*
X0075763Y0142756D02*
X0071858Y0142756D01*
X0072457Y0143355D02*
X0075763Y0143355D01*
X0075738Y0143953D02*
X0074589Y0143953D01*
X0075063Y0144552D02*
X0075263Y0144552D01*
X0075263Y0145150D02*
X0075063Y0145150D01*
X0075063Y0145749D02*
X0075263Y0145749D01*
X0075263Y0146347D02*
X0075063Y0146347D01*
X0075063Y0146946D02*
X0075263Y0146946D01*
X0075263Y0147544D02*
X0075063Y0147544D01*
X0073863Y0148143D02*
X0080550Y0148143D01*
X0079951Y0147544D02*
X0078863Y0147544D01*
X0078863Y0146946D02*
X0079573Y0146946D01*
X0079573Y0146347D02*
X0078863Y0146347D01*
X0078863Y0145749D02*
X0079573Y0145749D01*
X0079857Y0145150D02*
X0078863Y0145150D01*
X0078863Y0144552D02*
X0080455Y0144552D01*
X0078765Y0143355D02*
X0088770Y0143355D01*
X0088172Y0143953D02*
X0078389Y0143953D01*
X0079364Y0142756D02*
X0090669Y0142756D01*
X0091142Y0142158D02*
X0091267Y0142158D01*
X0091142Y0141559D02*
X0091866Y0141559D01*
X0092464Y0140961D02*
X0091142Y0140961D01*
X0091142Y0140362D02*
X0093063Y0140362D01*
X0093661Y0139764D02*
X0091142Y0139764D01*
X0091142Y0139165D02*
X0099185Y0139165D01*
X0099517Y0138567D02*
X0090810Y0138567D01*
X0084421Y0139764D02*
X0083485Y0139764D01*
X0083485Y0140362D02*
X0084421Y0140362D01*
X0084421Y0140961D02*
X0083485Y0140961D01*
X0083485Y0141559D02*
X0084421Y0141559D01*
X0084421Y0142158D02*
X0079962Y0142158D01*
X0082872Y0144552D02*
X0083839Y0144552D01*
X0084048Y0148143D02*
X0082777Y0148143D01*
X0083563Y0148741D02*
X0073954Y0148741D01*
X0073954Y0149340D02*
X0083563Y0149340D01*
X0083563Y0149938D02*
X0075058Y0149938D01*
X0075657Y0150537D02*
X0083563Y0150537D01*
X0083563Y0151135D02*
X0075954Y0151135D01*
X0075954Y0151734D02*
X0076173Y0151734D01*
X0078554Y0151734D02*
X0083591Y0151734D01*
X0083063Y0152332D02*
X0079152Y0152332D01*
X0079454Y0152931D02*
X0083063Y0152931D01*
X0080978Y0153529D02*
X0079454Y0153529D01*
X0080248Y0154128D02*
X0080379Y0154128D01*
X0081013Y0157106D02*
X0080029Y0158091D01*
X0079454Y0158091D01*
X0079454Y0159088D01*
X0082195Y0159088D01*
X0082173Y0159066D01*
X0082173Y0157391D01*
X0081298Y0157391D01*
X0081013Y0157106D01*
X0081000Y0157120D02*
X0081027Y0157120D01*
X0080401Y0157719D02*
X0082173Y0157719D01*
X0082173Y0158317D02*
X0079454Y0158317D01*
X0079454Y0158916D02*
X0082173Y0158916D01*
X0084032Y0162600D02*
X0084032Y0164692D01*
X0083505Y0165219D01*
X0078822Y0165219D01*
X0078763Y0165160D01*
X0078763Y0165381D01*
X0083670Y0165381D01*
X0084432Y0166143D01*
X0084432Y0171550D01*
X0083670Y0172312D01*
X0080102Y0172312D01*
X0079714Y0172700D01*
X0071868Y0172700D01*
X0070968Y0173600D01*
X0065826Y0173600D01*
X0064263Y0175163D01*
X0064263Y0195663D01*
X0063326Y0196600D01*
X0057001Y0196600D01*
X0056063Y0195663D01*
X0056063Y0171837D01*
X0057001Y0170900D01*
X0057351Y0170550D01*
X0052570Y0170550D01*
X0052029Y0171091D01*
X0050298Y0171091D01*
X0049073Y0169866D01*
X0049073Y0168134D01*
X0050298Y0166909D01*
X0052029Y0166909D01*
X0052570Y0167450D01*
X0060021Y0167450D01*
X0061598Y0165874D01*
X0061598Y0164700D01*
X0060020Y0164700D01*
X0059629Y0165091D01*
X0057898Y0165091D01*
X0057507Y0164700D01*
X0049666Y0164700D01*
X0048963Y0163997D01*
X0048463Y0163497D01*
X0048463Y0156503D01*
X0049166Y0155800D01*
X0049666Y0155300D01*
X0055661Y0155300D01*
X0055720Y0155360D01*
X0055720Y0155262D01*
X0055673Y0155262D01*
X0055145Y0154735D01*
X0055145Y0149265D01*
X0055673Y0148738D01*
X0059568Y0148738D01*
X0060095Y0149265D01*
X0060095Y0154735D01*
X0059725Y0155105D01*
X0060854Y0156234D01*
X0060854Y0157800D01*
X0061463Y0157800D01*
X0061463Y0148503D01*
X0062166Y0147800D01*
X0062666Y0147300D01*
X0069661Y0147300D01*
X0070161Y0147800D01*
X0070184Y0147823D01*
X0070998Y0147009D01*
X0071463Y0147009D01*
X0071463Y0146038D01*
X0071463Y0146347D02*
X0045662Y0146347D01*
X0046261Y0146946D02*
X0071463Y0146946D01*
X0070463Y0147544D02*
X0069905Y0147544D01*
X0070161Y0147800D02*
X0070161Y0147800D01*
X0069405Y0148741D02*
X0062922Y0148741D01*
X0063163Y0148500D02*
X0062663Y0149000D01*
X0062663Y0158803D01*
X0062863Y0159003D01*
X0062863Y0161450D01*
X0063790Y0161450D01*
X0063840Y0161500D01*
X0069163Y0161500D01*
X0069663Y0161000D01*
X0069663Y0154956D01*
X0069573Y0154866D01*
X0069573Y0153134D01*
X0069663Y0153044D01*
X0069663Y0149000D01*
X0069163Y0148500D01*
X0063163Y0148500D01*
X0062663Y0149340D02*
X0069663Y0149340D01*
X0069663Y0149938D02*
X0062663Y0149938D01*
X0062663Y0150537D02*
X0069663Y0150537D01*
X0069663Y0151135D02*
X0062663Y0151135D01*
X0062663Y0151734D02*
X0069663Y0151734D01*
X0069663Y0152332D02*
X0062663Y0152332D01*
X0062663Y0152931D02*
X0069663Y0152931D01*
X0069573Y0153529D02*
X0062663Y0153529D01*
X0062663Y0154128D02*
X0069573Y0154128D01*
X0069573Y0154726D02*
X0062663Y0154726D01*
X0062663Y0155325D02*
X0069663Y0155325D01*
X0069663Y0155923D02*
X0062663Y0155923D01*
X0062663Y0156522D02*
X0069663Y0156522D01*
X0069663Y0157120D02*
X0062663Y0157120D01*
X0062663Y0157719D02*
X0069663Y0157719D01*
X0069663Y0158317D02*
X0062663Y0158317D01*
X0062776Y0158916D02*
X0069663Y0158916D01*
X0069663Y0159514D02*
X0062863Y0159514D01*
X0062863Y0160113D02*
X0069663Y0160113D01*
X0069663Y0160711D02*
X0062863Y0160711D01*
X0062863Y0161310D02*
X0069354Y0161310D01*
X0070011Y0162350D02*
X0069661Y0162700D01*
X0064698Y0162700D01*
X0064698Y0166909D01*
X0064859Y0166909D01*
X0065774Y0167289D01*
X0066475Y0167989D01*
X0066517Y0168091D01*
X0066763Y0168337D01*
X0066763Y0168337D01*
X0067263Y0168837D01*
X0067263Y0169578D01*
X0067375Y0169689D01*
X0067586Y0170200D01*
X0069559Y0170200D01*
X0070189Y0169571D01*
X0070189Y0166005D01*
X0070716Y0165478D01*
X0074563Y0165478D01*
X0074563Y0164522D01*
X0070716Y0164522D01*
X0070189Y0163995D01*
X0070189Y0162248D01*
X0070086Y0162350D01*
X0070011Y0162350D01*
X0069854Y0162507D02*
X0070189Y0162507D01*
X0070189Y0163105D02*
X0064698Y0163105D01*
X0064698Y0163704D02*
X0070189Y0163704D01*
X0070496Y0164303D02*
X0064698Y0164303D01*
X0064698Y0164901D02*
X0074563Y0164901D01*
X0070694Y0165500D02*
X0064698Y0165500D01*
X0064698Y0166098D02*
X0070189Y0166098D01*
X0070189Y0166697D02*
X0064698Y0166697D01*
X0065781Y0167295D02*
X0070189Y0167295D01*
X0070189Y0167894D02*
X0066379Y0167894D01*
X0066918Y0168492D02*
X0070189Y0168492D01*
X0070189Y0169091D02*
X0067263Y0169091D01*
X0067375Y0169689D02*
X0070070Y0169689D01*
X0071287Y0173280D02*
X0086873Y0173280D01*
X0086873Y0172682D02*
X0079732Y0172682D01*
X0083899Y0172083D02*
X0086490Y0172083D01*
X0086957Y0172550D02*
X0085773Y0171366D01*
X0085773Y0169634D01*
X0086998Y0168409D01*
X0087073Y0168409D01*
X0087073Y0166834D01*
X0088298Y0165609D01*
X0090029Y0165609D01*
X0091254Y0166834D01*
X0091254Y0168566D01*
X0090211Y0169609D01*
X0090563Y0169962D01*
X0092563Y0171962D01*
X0092563Y0173037D01*
X0094174Y0173037D01*
X0094195Y0173058D01*
X0094216Y0173037D01*
X0096143Y0173037D01*
X0096670Y0173564D01*
X0096670Y0177459D01*
X0096463Y0177666D01*
X0096463Y0178038D01*
X0095702Y0178800D01*
X0095002Y0179500D01*
X0094738Y0179500D01*
X0095106Y0179868D01*
X0095163Y0180007D01*
X0095221Y0179868D01*
X0096031Y0179058D01*
X0097090Y0178619D01*
X0098237Y0178619D01*
X0099295Y0179058D01*
X0099463Y0179226D01*
X0099463Y0177987D01*
X0098153Y0177987D01*
X0097626Y0177459D01*
X0097626Y0176631D01*
X0097616Y0176621D01*
X0097616Y0174890D01*
X0097626Y0174881D01*
X0097626Y0173564D01*
X0098153Y0173037D01*
X0100080Y0173037D01*
X0100373Y0173330D01*
X0100373Y0172134D01*
X0100709Y0171798D01*
X0100295Y0171385D01*
X0100295Y0166308D01*
X0100822Y0165781D01*
X0104863Y0165781D01*
X0104863Y0165219D01*
X0100822Y0165219D01*
X0100295Y0164692D01*
X0100295Y0162700D01*
X0098648Y0162700D01*
X0098648Y0165110D01*
X0098638Y0165119D01*
X0098638Y0166436D01*
X0098111Y0166963D01*
X0096184Y0166963D01*
X0096163Y0166942D01*
X0096143Y0166963D01*
X0094216Y0166963D01*
X0093689Y0166436D01*
X0093689Y0165119D01*
X0093679Y0165110D01*
X0093679Y0162637D01*
X0093642Y0162600D01*
X0090536Y0162600D01*
X0090236Y0162900D01*
X0087091Y0162900D01*
X0086791Y0162600D01*
X0084032Y0162600D01*
X0084032Y0163105D02*
X0093679Y0163105D01*
X0093679Y0163704D02*
X0084032Y0163704D01*
X0084032Y0164303D02*
X0093679Y0164303D01*
X0093679Y0164901D02*
X0083823Y0164901D01*
X0083789Y0165500D02*
X0093689Y0165500D01*
X0093689Y0166098D02*
X0090518Y0166098D01*
X0091117Y0166697D02*
X0093949Y0166697D01*
X0091254Y0167295D02*
X0100295Y0167295D01*
X0100295Y0166697D02*
X0098377Y0166697D01*
X0098638Y0166098D02*
X0100505Y0166098D01*
X0100504Y0164901D02*
X0098648Y0164901D01*
X0098648Y0164303D02*
X0100295Y0164303D01*
X0100295Y0163704D02*
X0098648Y0163704D01*
X0098648Y0163105D02*
X0100295Y0163105D01*
X0098638Y0165500D02*
X0104863Y0165500D01*
X0100295Y0167894D02*
X0091254Y0167894D01*
X0091254Y0168492D02*
X0100295Y0168492D01*
X0100295Y0169091D02*
X0090729Y0169091D01*
X0090291Y0169689D02*
X0100295Y0169689D01*
X0100295Y0170288D02*
X0090890Y0170288D01*
X0091488Y0170886D02*
X0100295Y0170886D01*
X0100395Y0171485D02*
X0092087Y0171485D01*
X0092563Y0172083D02*
X0100424Y0172083D01*
X0100373Y0172682D02*
X0092563Y0172682D01*
X0096386Y0173280D02*
X0097910Y0173280D01*
X0097626Y0173879D02*
X0096670Y0173879D01*
X0096670Y0174477D02*
X0097626Y0174477D01*
X0097616Y0175076D02*
X0096670Y0175076D01*
X0096670Y0175674D02*
X0097616Y0175674D01*
X0097616Y0176273D02*
X0096670Y0176273D01*
X0096670Y0176871D02*
X0097626Y0176871D01*
X0097636Y0177470D02*
X0096659Y0177470D01*
X0096434Y0178068D02*
X0099463Y0178068D01*
X0099463Y0178667D02*
X0098352Y0178667D01*
X0096975Y0178667D02*
X0095835Y0178667D01*
X0095824Y0179265D02*
X0095237Y0179265D01*
X0095225Y0179864D02*
X0095102Y0179864D01*
X0090957Y0179132D02*
X0090625Y0178800D01*
X0090122Y0178297D01*
X0089829Y0178591D01*
X0088098Y0178591D01*
X0086873Y0177366D01*
X0086873Y0175634D01*
X0087507Y0175000D01*
X0086873Y0174366D01*
X0086873Y0172634D01*
X0086957Y0172550D01*
X0086873Y0173879D02*
X0065547Y0173879D01*
X0064949Y0174477D02*
X0086984Y0174477D01*
X0087431Y0175076D02*
X0064350Y0175076D01*
X0064263Y0175674D02*
X0086873Y0175674D01*
X0086873Y0176273D02*
X0064263Y0176273D01*
X0064263Y0176871D02*
X0086873Y0176871D01*
X0086977Y0177470D02*
X0064263Y0177470D01*
X0064263Y0178068D02*
X0087575Y0178068D01*
X0090492Y0178667D02*
X0064263Y0178667D01*
X0064263Y0179265D02*
X0090824Y0179265D01*
X0090957Y0179132D02*
X0090221Y0179868D01*
X0089782Y0180927D01*
X0089782Y0182073D01*
X0090221Y0183132D01*
X0091031Y0183942D01*
X0092090Y0184381D01*
X0092463Y0184381D01*
X0092463Y0184411D01*
X0090444Y0184411D01*
X0089917Y0184938D01*
X0089917Y0190999D01*
X0090444Y0191526D01*
X0092765Y0191526D01*
X0092884Y0191407D01*
X0093003Y0191526D01*
X0095324Y0191526D01*
X0095443Y0191407D01*
X0095562Y0191526D01*
X0097883Y0191526D01*
X0098002Y0191407D01*
X0098121Y0191526D01*
X0100191Y0191526D01*
X0100979Y0192313D01*
X0102703Y0192313D01*
X0103816Y0191200D01*
X0105161Y0191200D01*
X0106661Y0189700D01*
X0107363Y0188997D01*
X0107363Y0185003D01*
X0105863Y0183503D01*
X0105161Y0182800D01*
X0100243Y0182800D01*
X0100545Y0182073D01*
X0100545Y0181100D01*
X0102536Y0181100D01*
X0103063Y0180573D01*
X0103063Y0177556D01*
X0103563Y0177056D01*
X0103563Y0177127D01*
X0103263Y0177427D01*
X0103263Y0180573D01*
X0103791Y0181100D01*
X0106336Y0181100D01*
X0106863Y0180573D01*
X0106863Y0177427D01*
X0106563Y0177127D01*
X0106563Y0175238D01*
X0108796Y0177471D01*
X0108795Y0177470D02*
X0106863Y0177470D01*
X0106863Y0178068D02*
X0108548Y0178068D01*
X0108313Y0178667D02*
X0106863Y0178667D01*
X0106863Y0179265D02*
X0108313Y0179265D01*
X0108313Y0179864D02*
X0106863Y0179864D01*
X0106863Y0180462D02*
X0108354Y0180462D01*
X0108602Y0181061D02*
X0106375Y0181061D01*
X0105217Y0182856D02*
X0109868Y0182856D01*
X0109270Y0182258D02*
X0100468Y0182258D01*
X0100545Y0181659D02*
X0108849Y0181659D01*
X0110844Y0183455D02*
X0105815Y0183455D01*
X0106414Y0184053D02*
X0116363Y0184053D01*
X0116363Y0183455D02*
X0114483Y0183455D01*
X0115459Y0182856D02*
X0116363Y0182856D01*
X0116363Y0182258D02*
X0116057Y0182258D01*
X0116363Y0184652D02*
X0107012Y0184652D01*
X0107363Y0185250D02*
X0111556Y0185250D01*
X0110163Y0185849D02*
X0107363Y0185849D01*
X0107363Y0186447D02*
X0109564Y0186447D01*
X0108972Y0187046D02*
X0107363Y0187046D01*
X0107363Y0187644D02*
X0108724Y0187644D01*
X0108476Y0188243D02*
X0107363Y0188243D01*
X0107363Y0188841D02*
X0108313Y0188841D01*
X0108313Y0189440D02*
X0106921Y0189440D01*
X0106322Y0190039D02*
X0108313Y0190039D01*
X0108426Y0190637D02*
X0105723Y0190637D01*
X0104663Y0190000D02*
X0103922Y0190000D01*
X0103922Y0189370D01*
X0102703Y0188151D01*
X0100979Y0188151D01*
X0099760Y0189370D01*
X0099760Y0190000D01*
X0099163Y0190000D01*
X0099163Y0185000D01*
X0100163Y0184000D01*
X0104663Y0184000D01*
X0106163Y0185500D01*
X0106163Y0188500D01*
X0104663Y0190000D01*
X0105223Y0189440D02*
X0103922Y0189440D01*
X0103393Y0188841D02*
X0105822Y0188841D01*
X0106163Y0188243D02*
X0102794Y0188243D01*
X0100887Y0188243D02*
X0099163Y0188243D01*
X0099163Y0188841D02*
X0100288Y0188841D01*
X0099760Y0189440D02*
X0099163Y0189440D01*
X0099163Y0187644D02*
X0106163Y0187644D01*
X0106163Y0187046D02*
X0099163Y0187046D01*
X0099163Y0186447D02*
X0106163Y0186447D01*
X0106163Y0185849D02*
X0099163Y0185849D01*
X0099163Y0185250D02*
X0105914Y0185250D01*
X0105315Y0184652D02*
X0099512Y0184652D01*
X0100110Y0184053D02*
X0104717Y0184053D01*
X0103752Y0181061D02*
X0102575Y0181061D01*
X0103063Y0180462D02*
X0103263Y0180462D01*
X0103263Y0179864D02*
X0103063Y0179864D01*
X0103063Y0179265D02*
X0103263Y0179265D01*
X0103263Y0178667D02*
X0103063Y0178667D01*
X0103063Y0178068D02*
X0103263Y0178068D01*
X0103263Y0177470D02*
X0103150Y0177470D01*
X0106563Y0176871D02*
X0108196Y0176871D01*
X0107598Y0176273D02*
X0106563Y0176273D01*
X0106563Y0175674D02*
X0106999Y0175674D01*
X0100373Y0173280D02*
X0100323Y0173280D01*
X0090225Y0179864D02*
X0064263Y0179864D01*
X0064263Y0180462D02*
X0089975Y0180462D01*
X0089782Y0181061D02*
X0064263Y0181061D01*
X0064263Y0181659D02*
X0089782Y0181659D01*
X0089859Y0182258D02*
X0064263Y0182258D01*
X0064263Y0182856D02*
X0085451Y0182856D01*
X0085598Y0182709D02*
X0084398Y0183909D01*
X0084098Y0183909D01*
X0082873Y0185134D01*
X0082873Y0186866D01*
X0084098Y0188091D01*
X0085829Y0188091D01*
X0087029Y0186891D01*
X0087329Y0186891D01*
X0088554Y0185666D01*
X0088554Y0183934D01*
X0087329Y0182709D01*
X0085598Y0182709D01*
X0084852Y0183455D02*
X0064263Y0183455D01*
X0064263Y0184053D02*
X0083954Y0184053D01*
X0083355Y0184652D02*
X0064263Y0184652D01*
X0064263Y0185250D02*
X0082873Y0185250D01*
X0082873Y0185849D02*
X0064263Y0185849D01*
X0064263Y0186447D02*
X0073337Y0186447D01*
X0073527Y0186257D02*
X0073000Y0186785D01*
X0073000Y0188880D01*
X0072529Y0188409D01*
X0070798Y0188409D01*
X0069573Y0189634D01*
X0069573Y0191366D01*
X0070798Y0192591D01*
X0072529Y0192591D01*
X0073000Y0192120D01*
X0073000Y0199341D01*
X0073527Y0199868D01*
X0080572Y0199868D01*
X0081099Y0199341D01*
X0081099Y0186785D01*
X0080572Y0186257D01*
X0073527Y0186257D01*
X0073000Y0187046D02*
X0064263Y0187046D01*
X0064263Y0187644D02*
X0073000Y0187644D01*
X0073000Y0188243D02*
X0064263Y0188243D01*
X0064263Y0188841D02*
X0070365Y0188841D01*
X0069767Y0189440D02*
X0064263Y0189440D01*
X0064263Y0190039D02*
X0069573Y0190039D01*
X0069573Y0190637D02*
X0064263Y0190637D01*
X0064263Y0191236D02*
X0069573Y0191236D01*
X0070041Y0191834D02*
X0064263Y0191834D01*
X0064263Y0192433D02*
X0070640Y0192433D01*
X0072687Y0192433D02*
X0073000Y0192433D01*
X0073000Y0193031D02*
X0064263Y0193031D01*
X0064263Y0193630D02*
X0073000Y0193630D01*
X0073000Y0194228D02*
X0064263Y0194228D01*
X0064263Y0194827D02*
X0073000Y0194827D01*
X0073000Y0195425D02*
X0064263Y0195425D01*
X0063903Y0196024D02*
X0073000Y0196024D01*
X0073000Y0196622D02*
X0054327Y0196622D01*
X0054327Y0196024D02*
X0056424Y0196024D01*
X0056063Y0195425D02*
X0054327Y0195425D01*
X0054327Y0194827D02*
X0056063Y0194827D01*
X0056063Y0194228D02*
X0054327Y0194228D01*
X0054327Y0193630D02*
X0056063Y0193630D01*
X0056063Y0193031D02*
X0054327Y0193031D01*
X0054327Y0192433D02*
X0056063Y0192433D01*
X0056063Y0191834D02*
X0054327Y0191834D01*
X0054327Y0191236D02*
X0056063Y0191236D01*
X0056063Y0190637D02*
X0054327Y0190637D01*
X0054327Y0190039D02*
X0056063Y0190039D01*
X0056063Y0189440D02*
X0054327Y0189440D01*
X0054327Y0188841D02*
X0056063Y0188841D01*
X0056063Y0188243D02*
X0054327Y0188243D01*
X0054327Y0187644D02*
X0056063Y0187644D01*
X0056063Y0187046D02*
X0054327Y0187046D01*
X0053990Y0186447D02*
X0056063Y0186447D01*
X0056063Y0185849D02*
X0053254Y0185849D01*
X0053254Y0185250D02*
X0056063Y0185250D01*
X0056063Y0184652D02*
X0053254Y0184652D01*
X0053173Y0184053D02*
X0056063Y0184053D01*
X0056063Y0183455D02*
X0052665Y0183455D01*
X0053254Y0182856D02*
X0056063Y0182856D01*
X0056063Y0182258D02*
X0053254Y0182258D01*
X0053254Y0181659D02*
X0056063Y0181659D01*
X0056063Y0181061D02*
X0053181Y0181061D01*
X0052582Y0180462D02*
X0056063Y0180462D01*
X0056063Y0179864D02*
X0038963Y0179864D01*
X0038963Y0180462D02*
X0049745Y0180462D01*
X0049146Y0181061D02*
X0038963Y0181061D01*
X0038963Y0181659D02*
X0049073Y0181659D01*
X0049073Y0182258D02*
X0038963Y0182258D01*
X0038963Y0182856D02*
X0049073Y0182856D01*
X0049662Y0183455D02*
X0038963Y0183455D01*
X0038963Y0184053D02*
X0049154Y0184053D01*
X0049073Y0184652D02*
X0038963Y0184652D01*
X0038963Y0185250D02*
X0041556Y0185250D01*
X0040163Y0185849D02*
X0038963Y0185849D01*
X0038963Y0186447D02*
X0039564Y0186447D01*
X0038972Y0187046D02*
X0038963Y0187046D01*
X0043771Y0185250D02*
X0049073Y0185250D01*
X0049073Y0185849D02*
X0045164Y0185849D01*
X0045763Y0186447D02*
X0046565Y0186447D01*
X0046228Y0192433D02*
X0045883Y0192433D01*
X0046228Y0193031D02*
X0045284Y0193031D01*
X0046228Y0193630D02*
X0044061Y0193630D01*
X0046228Y0194228D02*
X0038963Y0194228D01*
X0038963Y0193630D02*
X0041266Y0193630D01*
X0040043Y0193031D02*
X0038963Y0193031D01*
X0038963Y0192433D02*
X0039444Y0192433D01*
X0038963Y0194827D02*
X0046228Y0194827D01*
X0046228Y0195425D02*
X0038963Y0195425D01*
X0038963Y0196024D02*
X0046228Y0196024D01*
X0046228Y0196622D02*
X0038963Y0196622D01*
X0038963Y0197221D02*
X0046228Y0197221D01*
X0046228Y0197819D02*
X0038963Y0197819D01*
X0038963Y0198418D02*
X0046228Y0198418D01*
X0046228Y0199016D02*
X0038963Y0199016D01*
X0038963Y0199615D02*
X0046501Y0199615D01*
X0054054Y0199615D02*
X0073273Y0199615D01*
X0073000Y0199016D02*
X0054327Y0199016D01*
X0054327Y0198418D02*
X0073000Y0198418D01*
X0073000Y0197819D02*
X0054327Y0197819D01*
X0054327Y0197221D02*
X0073000Y0197221D01*
X0080825Y0199615D02*
X0086374Y0199615D01*
X0086374Y0200213D02*
X0038963Y0200213D01*
X0038963Y0200812D02*
X0086374Y0200812D01*
X0086374Y0201410D02*
X0038963Y0201410D01*
X0038963Y0202009D02*
X0086374Y0202009D01*
X0086374Y0202574D02*
X0086901Y0203101D01*
X0093552Y0203101D01*
X0094079Y0202574D01*
X0094079Y0194348D01*
X0093552Y0193820D01*
X0086901Y0193820D01*
X0086374Y0194348D01*
X0086374Y0202574D01*
X0086407Y0202607D02*
X0038963Y0202607D01*
X0057663Y0195000D02*
X0062663Y0195000D01*
X0062663Y0174500D01*
X0064332Y0172831D01*
X0064332Y0172761D01*
X0065093Y0171999D01*
X0065164Y0171999D01*
X0065663Y0171500D01*
X0065663Y0169500D01*
X0065163Y0169000D01*
X0063663Y0169000D01*
X0061663Y0171000D01*
X0059163Y0171000D01*
X0057663Y0172500D01*
X0057663Y0195000D01*
X0057663Y0194827D02*
X0062663Y0194827D01*
X0062663Y0194228D02*
X0057663Y0194228D01*
X0057663Y0193630D02*
X0062663Y0193630D01*
X0062663Y0193031D02*
X0057663Y0193031D01*
X0057663Y0192433D02*
X0062663Y0192433D01*
X0062663Y0191834D02*
X0057663Y0191834D01*
X0057663Y0191236D02*
X0062663Y0191236D01*
X0062663Y0190637D02*
X0057663Y0190637D01*
X0057663Y0190039D02*
X0062663Y0190039D01*
X0062663Y0189440D02*
X0057663Y0189440D01*
X0057663Y0188841D02*
X0062663Y0188841D01*
X0062663Y0188243D02*
X0057663Y0188243D01*
X0057663Y0187644D02*
X0062663Y0187644D01*
X0062663Y0187046D02*
X0057663Y0187046D01*
X0057663Y0186447D02*
X0062663Y0186447D01*
X0062663Y0185849D02*
X0057663Y0185849D01*
X0057663Y0185250D02*
X0062663Y0185250D01*
X0062663Y0184652D02*
X0057663Y0184652D01*
X0057663Y0184053D02*
X0062663Y0184053D01*
X0062663Y0183455D02*
X0057663Y0183455D01*
X0057663Y0182856D02*
X0062663Y0182856D01*
X0062663Y0182258D02*
X0057663Y0182258D01*
X0057663Y0181659D02*
X0062663Y0181659D01*
X0062663Y0181061D02*
X0057663Y0181061D01*
X0057663Y0180462D02*
X0062663Y0180462D01*
X0062663Y0179864D02*
X0057663Y0179864D01*
X0057663Y0179265D02*
X0062663Y0179265D01*
X0062663Y0178667D02*
X0057663Y0178667D01*
X0057663Y0178068D02*
X0062663Y0178068D01*
X0062663Y0177470D02*
X0057663Y0177470D01*
X0057663Y0176871D02*
X0062663Y0176871D01*
X0062663Y0176273D02*
X0057663Y0176273D01*
X0057663Y0175674D02*
X0062663Y0175674D01*
X0062663Y0175076D02*
X0057663Y0175076D01*
X0057663Y0174477D02*
X0062686Y0174477D01*
X0063285Y0173879D02*
X0057663Y0173879D01*
X0057663Y0173280D02*
X0063883Y0173280D01*
X0064411Y0172682D02*
X0057663Y0172682D01*
X0058080Y0172083D02*
X0065010Y0172083D01*
X0065663Y0171485D02*
X0058679Y0171485D01*
X0057015Y0170886D02*
X0052234Y0170886D01*
X0050093Y0170886D02*
X0046798Y0170886D01*
X0047013Y0170288D02*
X0049495Y0170288D01*
X0049073Y0169689D02*
X0047013Y0169689D01*
X0047013Y0169091D02*
X0049073Y0169091D01*
X0049073Y0168492D02*
X0046954Y0168492D01*
X0046706Y0167894D02*
X0049313Y0167894D01*
X0049912Y0167295D02*
X0046459Y0167295D01*
X0046012Y0166697D02*
X0060775Y0166697D01*
X0060176Y0167295D02*
X0052415Y0167295D01*
X0045413Y0166098D02*
X0061373Y0166098D01*
X0061598Y0165500D02*
X0044373Y0165500D01*
X0043881Y0163704D02*
X0048670Y0163704D01*
X0048463Y0163105D02*
X0045210Y0163105D01*
X0045808Y0162507D02*
X0048463Y0162507D01*
X0048463Y0161908D02*
X0046374Y0161908D01*
X0046622Y0161310D02*
X0048463Y0161310D01*
X0048463Y0160711D02*
X0046870Y0160711D01*
X0047013Y0160113D02*
X0048463Y0160113D01*
X0048463Y0159514D02*
X0047013Y0159514D01*
X0047013Y0158916D02*
X0048463Y0158916D01*
X0048463Y0158317D02*
X0046882Y0158317D01*
X0046634Y0157719D02*
X0048463Y0157719D01*
X0048463Y0157120D02*
X0046386Y0157120D01*
X0045837Y0156522D02*
X0048463Y0156522D01*
X0049043Y0155923D02*
X0045239Y0155923D01*
X0043951Y0155325D02*
X0049642Y0155325D01*
X0050163Y0156500D02*
X0049663Y0157000D01*
X0049663Y0163000D01*
X0050163Y0163500D01*
X0056673Y0163500D01*
X0056673Y0162134D01*
X0057898Y0160909D01*
X0059629Y0160909D01*
X0060170Y0161450D01*
X0061657Y0161450D01*
X0061657Y0160414D01*
X0061663Y0160408D01*
X0061663Y0159500D01*
X0061163Y0159000D01*
X0059820Y0159000D01*
X0059629Y0159191D01*
X0057898Y0159191D01*
X0057707Y0159000D01*
X0057663Y0159000D01*
X0055163Y0156500D01*
X0050163Y0156500D01*
X0050142Y0156522D02*
X0055185Y0156522D01*
X0055784Y0157120D02*
X0049663Y0157120D01*
X0049663Y0157719D02*
X0056382Y0157719D01*
X0056981Y0158317D02*
X0049663Y0158317D01*
X0049663Y0158916D02*
X0057579Y0158916D01*
X0057497Y0161310D02*
X0049663Y0161310D01*
X0049663Y0161908D02*
X0056898Y0161908D01*
X0056673Y0162507D02*
X0049663Y0162507D01*
X0049769Y0163105D02*
X0056673Y0163105D01*
X0057708Y0164901D02*
X0038963Y0164901D01*
X0038963Y0164303D02*
X0049269Y0164303D01*
X0049663Y0160711D02*
X0061657Y0160711D01*
X0061663Y0160113D02*
X0049663Y0160113D01*
X0049663Y0159514D02*
X0061663Y0159514D01*
X0061657Y0161310D02*
X0060030Y0161310D01*
X0059819Y0164901D02*
X0061598Y0164901D01*
X0063573Y0169091D02*
X0065254Y0169091D01*
X0065663Y0169689D02*
X0062974Y0169689D01*
X0062376Y0170288D02*
X0065663Y0170288D01*
X0065663Y0170886D02*
X0061777Y0170886D01*
X0056416Y0171485D02*
X0046550Y0171485D01*
X0046232Y0172083D02*
X0056063Y0172083D01*
X0056063Y0172682D02*
X0045634Y0172682D01*
X0044904Y0173280D02*
X0056063Y0173280D01*
X0056063Y0173879D02*
X0038963Y0173879D01*
X0038963Y0174477D02*
X0056063Y0174477D01*
X0056063Y0175076D02*
X0038963Y0175076D01*
X0038963Y0175674D02*
X0056063Y0175674D01*
X0056063Y0176273D02*
X0038963Y0176273D01*
X0038963Y0176871D02*
X0056063Y0176871D01*
X0056063Y0177470D02*
X0038963Y0177470D01*
X0038963Y0178068D02*
X0056063Y0178068D01*
X0056063Y0178667D02*
X0038963Y0178667D01*
X0038963Y0179265D02*
X0056063Y0179265D01*
X0040423Y0173280D02*
X0038963Y0173280D01*
X0038963Y0172682D02*
X0039693Y0172682D01*
X0039095Y0172083D02*
X0038963Y0172083D01*
X0038963Y0166697D02*
X0039315Y0166697D01*
X0038963Y0166098D02*
X0039914Y0166098D01*
X0038963Y0165500D02*
X0040954Y0165500D01*
X0041446Y0163704D02*
X0038963Y0163704D01*
X0038963Y0163105D02*
X0040117Y0163105D01*
X0039519Y0162507D02*
X0038963Y0162507D01*
X0038963Y0156522D02*
X0039490Y0156522D01*
X0038963Y0155923D02*
X0040088Y0155923D01*
X0038963Y0155325D02*
X0041376Y0155325D01*
X0041024Y0153529D02*
X0038963Y0153529D01*
X0038963Y0152931D02*
X0039942Y0152931D01*
X0039344Y0152332D02*
X0038963Y0152332D01*
X0038963Y0154128D02*
X0055145Y0154128D01*
X0055145Y0154726D02*
X0038963Y0154726D01*
X0044303Y0153529D02*
X0055145Y0153529D01*
X0055145Y0152931D02*
X0045384Y0152931D01*
X0045983Y0152332D02*
X0055145Y0152332D01*
X0055145Y0151734D02*
X0046447Y0151734D01*
X0046695Y0151135D02*
X0055145Y0151135D01*
X0055145Y0150537D02*
X0046942Y0150537D01*
X0047013Y0149938D02*
X0055145Y0149938D01*
X0055145Y0149340D02*
X0047013Y0149340D01*
X0047013Y0148741D02*
X0055669Y0148741D01*
X0059571Y0148741D02*
X0061463Y0148741D01*
X0061463Y0149340D02*
X0060095Y0149340D01*
X0060095Y0149938D02*
X0061463Y0149938D01*
X0061463Y0150537D02*
X0060095Y0150537D01*
X0060095Y0151135D02*
X0061463Y0151135D01*
X0061463Y0151734D02*
X0060095Y0151734D01*
X0060095Y0152332D02*
X0061463Y0152332D01*
X0061463Y0152931D02*
X0060095Y0152931D01*
X0060095Y0153529D02*
X0061463Y0153529D01*
X0061463Y0154128D02*
X0060095Y0154128D01*
X0060095Y0154726D02*
X0061463Y0154726D01*
X0061463Y0155325D02*
X0059945Y0155325D01*
X0060543Y0155923D02*
X0061463Y0155923D01*
X0061463Y0156522D02*
X0060854Y0156522D01*
X0060854Y0157120D02*
X0061463Y0157120D01*
X0061463Y0157719D02*
X0060854Y0157719D01*
X0055720Y0155325D02*
X0055685Y0155325D01*
X0061824Y0148143D02*
X0046810Y0148143D01*
X0046562Y0147544D02*
X0062422Y0147544D01*
X0040602Y0143355D02*
X0038963Y0143355D01*
X0038963Y0142756D02*
X0039768Y0142756D01*
X0039169Y0142158D02*
X0038963Y0142158D01*
X0080830Y0128990D02*
X0090573Y0128990D01*
X0090573Y0128392D02*
X0081428Y0128392D01*
X0084709Y0127793D02*
X0090118Y0127793D01*
X0089520Y0127195D02*
X0085307Y0127195D01*
X0085906Y0126596D02*
X0088921Y0126596D01*
X0090803Y0124801D02*
X0116363Y0124801D01*
X0116363Y0125399D02*
X0114131Y0125399D01*
X0115313Y0125998D02*
X0116363Y0125998D01*
X0116363Y0126596D02*
X0115912Y0126596D01*
X0111196Y0125399D02*
X0091401Y0125399D01*
X0092000Y0125998D02*
X0110014Y0125998D01*
X0109415Y0126596D02*
X0093716Y0126596D01*
X0094315Y0127195D02*
X0108910Y0127195D01*
X0108662Y0127793D02*
X0094754Y0127793D01*
X0094754Y0128392D02*
X0108414Y0128392D01*
X0108313Y0128990D02*
X0094754Y0128990D01*
X0095609Y0129589D02*
X0108313Y0129589D01*
X0108313Y0130187D02*
X0096207Y0130187D01*
X0096454Y0130786D02*
X0108488Y0130786D01*
X0108736Y0131384D02*
X0096454Y0131384D01*
X0099103Y0131983D02*
X0108995Y0131983D01*
X0109593Y0132581D02*
X0099701Y0132581D01*
X0099754Y0133180D02*
X0110192Y0133180D01*
X0111625Y0133778D02*
X0099754Y0133778D01*
X0099743Y0134377D02*
X0116363Y0134377D01*
X0116363Y0134975D02*
X0099144Y0134975D01*
X0113701Y0133778D02*
X0116363Y0133778D01*
X0116363Y0133180D02*
X0115135Y0133180D01*
X0115734Y0132581D02*
X0116363Y0132581D01*
X0116332Y0131983D02*
X0116363Y0131983D01*
X0116363Y0135574D02*
X0114552Y0135574D01*
X0115488Y0136172D02*
X0116363Y0136172D01*
X0116363Y0136771D02*
X0116086Y0136771D01*
X0116158Y0142158D02*
X0116363Y0142158D01*
X0116363Y0142756D02*
X0115559Y0142756D01*
X0116363Y0143355D02*
X0114725Y0143355D01*
X0095236Y0147591D02*
X0094798Y0147591D01*
X0094672Y0147465D01*
X0094236Y0147900D01*
X0091091Y0147900D01*
X0090913Y0147723D01*
X0090736Y0147900D01*
X0089402Y0147900D01*
X0087763Y0149538D01*
X0087763Y0151173D01*
X0087236Y0151700D01*
X0086963Y0151700D01*
X0086963Y0152038D01*
X0086202Y0152800D01*
X0085663Y0153338D01*
X0085663Y0154562D01*
X0086302Y0155200D01*
X0087125Y0155200D01*
X0087863Y0154462D01*
X0087863Y0152962D01*
X0090125Y0150700D01*
X0090563Y0150700D01*
X0090563Y0148627D01*
X0091091Y0148100D01*
X0094236Y0148100D01*
X0094536Y0148400D01*
X0095236Y0148400D01*
X0095236Y0147591D01*
X0094751Y0147544D02*
X0094592Y0147544D01*
X0094279Y0148143D02*
X0095236Y0148143D01*
X0091048Y0148143D02*
X0089159Y0148143D01*
X0088561Y0148741D02*
X0090563Y0148741D01*
X0090563Y0149340D02*
X0087962Y0149340D01*
X0087763Y0149938D02*
X0090563Y0149938D01*
X0090563Y0150537D02*
X0087763Y0150537D01*
X0087763Y0151135D02*
X0089690Y0151135D01*
X0089091Y0151734D02*
X0086963Y0151734D01*
X0086670Y0152332D02*
X0088493Y0152332D01*
X0087894Y0152931D02*
X0086071Y0152931D01*
X0085663Y0153529D02*
X0087863Y0153529D01*
X0087863Y0154128D02*
X0085663Y0154128D01*
X0085828Y0154726D02*
X0087599Y0154726D01*
X0094220Y0159600D02*
X0094885Y0159600D01*
X0095801Y0160516D01*
X0096163Y0160879D01*
X0096526Y0160516D01*
X0097063Y0159979D01*
X0097063Y0159627D01*
X0097591Y0159100D01*
X0100736Y0159100D01*
X0100773Y0159137D01*
X0100822Y0159088D01*
X0104863Y0159088D01*
X0104863Y0156038D01*
X0103254Y0154429D01*
X0103254Y0155366D01*
X0102029Y0156591D01*
X0100298Y0156591D01*
X0099073Y0155366D01*
X0099073Y0153634D01*
X0099407Y0153300D01*
X0095920Y0153300D01*
X0096254Y0153634D01*
X0096254Y0154909D01*
X0097029Y0154909D01*
X0098254Y0156134D01*
X0098254Y0157866D01*
X0097029Y0159091D01*
X0095298Y0159091D01*
X0095013Y0158806D01*
X0094220Y0159600D01*
X0094305Y0159514D02*
X0097176Y0159514D01*
X0097204Y0158916D02*
X0104863Y0158916D01*
X0104863Y0158317D02*
X0097803Y0158317D01*
X0098254Y0157719D02*
X0104863Y0157719D01*
X0104863Y0157120D02*
X0098254Y0157120D01*
X0098254Y0156522D02*
X0100229Y0156522D01*
X0099630Y0155923D02*
X0098043Y0155923D01*
X0097445Y0155325D02*
X0099073Y0155325D01*
X0099073Y0154726D02*
X0096254Y0154726D01*
X0096254Y0154128D02*
X0099073Y0154128D01*
X0099178Y0153529D02*
X0096149Y0153529D01*
X0102697Y0155923D02*
X0104748Y0155923D01*
X0104863Y0156522D02*
X0102098Y0156522D01*
X0103254Y0155325D02*
X0104150Y0155325D01*
X0103551Y0154726D02*
X0103254Y0154726D01*
X0096929Y0160113D02*
X0095398Y0160113D01*
X0095996Y0160711D02*
X0096331Y0160711D01*
X0095123Y0158916D02*
X0094904Y0158916D01*
X0087809Y0166098D02*
X0084387Y0166098D01*
X0084432Y0166697D02*
X0087210Y0166697D01*
X0087073Y0167295D02*
X0084432Y0167295D01*
X0084432Y0167894D02*
X0087073Y0167894D01*
X0086915Y0168492D02*
X0084432Y0168492D01*
X0084432Y0169091D02*
X0086316Y0169091D01*
X0085773Y0169689D02*
X0084432Y0169689D01*
X0084432Y0170288D02*
X0085773Y0170288D01*
X0085773Y0170886D02*
X0084432Y0170886D01*
X0084432Y0171485D02*
X0085892Y0171485D01*
X0087476Y0182856D02*
X0090107Y0182856D01*
X0090544Y0183455D02*
X0088075Y0183455D01*
X0088554Y0184053D02*
X0091299Y0184053D01*
X0090203Y0184652D02*
X0088554Y0184652D01*
X0088554Y0185250D02*
X0089917Y0185250D01*
X0089917Y0185849D02*
X0088371Y0185849D01*
X0087773Y0186447D02*
X0089917Y0186447D01*
X0089917Y0187046D02*
X0086874Y0187046D01*
X0086275Y0187644D02*
X0089917Y0187644D01*
X0089917Y0188243D02*
X0087440Y0188243D01*
X0087348Y0188151D02*
X0088567Y0189370D01*
X0088567Y0191094D01*
X0087348Y0192313D01*
X0085624Y0192313D01*
X0084405Y0191094D01*
X0084405Y0189370D01*
X0085624Y0188151D01*
X0087348Y0188151D01*
X0088039Y0188841D02*
X0089917Y0188841D01*
X0089917Y0189440D02*
X0088567Y0189440D01*
X0088567Y0190039D02*
X0089917Y0190039D01*
X0089917Y0190637D02*
X0088567Y0190637D01*
X0088426Y0191236D02*
X0090154Y0191236D01*
X0087828Y0191834D02*
X0100499Y0191834D01*
X0101426Y0193860D02*
X0094775Y0193860D01*
X0094248Y0194387D01*
X0094248Y0202613D01*
X0094775Y0203140D01*
X0101426Y0203140D01*
X0101953Y0202613D01*
X0101953Y0194387D01*
X0101426Y0193860D01*
X0101794Y0194228D02*
X0116363Y0194228D01*
X0116363Y0193630D02*
X0114061Y0193630D01*
X0115284Y0193031D02*
X0116363Y0193031D01*
X0116363Y0192433D02*
X0115883Y0192433D01*
X0116363Y0194827D02*
X0101953Y0194827D01*
X0101953Y0195425D02*
X0116363Y0195425D01*
X0116363Y0196024D02*
X0101953Y0196024D01*
X0101953Y0196622D02*
X0116363Y0196622D01*
X0116363Y0197221D02*
X0101953Y0197221D01*
X0101953Y0197819D02*
X0116363Y0197819D01*
X0116363Y0198418D02*
X0101953Y0198418D01*
X0101953Y0199016D02*
X0116363Y0199016D01*
X0116363Y0199615D02*
X0101953Y0199615D01*
X0101953Y0200213D02*
X0116363Y0200213D01*
X0116363Y0200812D02*
X0101953Y0200812D01*
X0101953Y0201410D02*
X0116363Y0201410D01*
X0116363Y0202009D02*
X0101953Y0202009D01*
X0101953Y0202607D02*
X0116363Y0202607D01*
X0111266Y0193630D02*
X0081099Y0193630D01*
X0081099Y0194228D02*
X0086493Y0194228D01*
X0086374Y0194827D02*
X0081099Y0194827D01*
X0081099Y0195425D02*
X0086374Y0195425D01*
X0086374Y0196024D02*
X0081099Y0196024D01*
X0081099Y0196622D02*
X0086374Y0196622D01*
X0086374Y0197221D02*
X0081099Y0197221D01*
X0081099Y0197819D02*
X0086374Y0197819D01*
X0086374Y0198418D02*
X0081099Y0198418D01*
X0081099Y0199016D02*
X0086374Y0199016D01*
X0094079Y0199016D02*
X0094248Y0199016D01*
X0094248Y0198418D02*
X0094079Y0198418D01*
X0094079Y0197819D02*
X0094248Y0197819D01*
X0094248Y0197221D02*
X0094079Y0197221D01*
X0094079Y0196622D02*
X0094248Y0196622D01*
X0094248Y0196024D02*
X0094079Y0196024D01*
X0094079Y0195425D02*
X0094248Y0195425D01*
X0094248Y0194827D02*
X0094079Y0194827D01*
X0093960Y0194228D02*
X0094407Y0194228D01*
X0103182Y0191834D02*
X0108922Y0191834D01*
X0108674Y0191236D02*
X0103780Y0191236D01*
X0109444Y0192433D02*
X0081099Y0192433D01*
X0081099Y0193031D02*
X0110043Y0193031D01*
X0116355Y0187046D02*
X0116363Y0187046D01*
X0116363Y0186447D02*
X0115763Y0186447D01*
X0115164Y0185849D02*
X0116363Y0185849D01*
X0116363Y0185250D02*
X0113771Y0185250D01*
X0114904Y0173280D02*
X0116363Y0173280D01*
X0116363Y0172682D02*
X0115634Y0172682D01*
X0116232Y0172083D02*
X0116363Y0172083D01*
X0085532Y0188243D02*
X0081099Y0188243D01*
X0081099Y0188841D02*
X0084934Y0188841D01*
X0084405Y0189440D02*
X0081099Y0189440D01*
X0081099Y0190039D02*
X0084405Y0190039D01*
X0084405Y0190637D02*
X0081099Y0190637D01*
X0081099Y0191236D02*
X0084546Y0191236D01*
X0085145Y0191834D02*
X0081099Y0191834D01*
X0081099Y0187644D02*
X0083651Y0187644D01*
X0083053Y0187046D02*
X0081099Y0187046D01*
X0080762Y0186447D02*
X0082873Y0186447D01*
X0073000Y0188841D02*
X0072961Y0188841D01*
X0094079Y0199615D02*
X0094248Y0199615D01*
X0094248Y0200213D02*
X0094079Y0200213D01*
X0094079Y0200812D02*
X0094248Y0200812D01*
X0094248Y0201410D02*
X0094079Y0201410D01*
X0094079Y0202009D02*
X0094248Y0202009D01*
X0094248Y0202607D02*
X0094046Y0202607D01*
X0114303Y0153529D02*
X0116363Y0153529D01*
X0116363Y0152931D02*
X0115384Y0152931D01*
X0115983Y0152332D02*
X0116363Y0152332D01*
X0090463Y0124462D02*
X0090463Y0124462D01*
X0090204Y0124202D02*
X0116363Y0124202D01*
X0116363Y0123604D02*
X0114123Y0123604D01*
X0115310Y0123005D02*
X0116363Y0123005D01*
X0116363Y0122407D02*
X0115909Y0122407D01*
X0084623Y0124202D02*
X0081704Y0124202D01*
X0082303Y0124801D02*
X0084024Y0124801D01*
D40*
X0096663Y0100000D02*
X0097982Y0098681D01*
X0098333Y0098681D01*
D41*
X0064671Y0025453D02*
X0064671Y0016522D01*
X0064663Y0016514D01*
D42*
X0063148Y0163000D02*
X0063148Y0164969D01*
X0063148Y0166516D01*
X0060663Y0169000D01*
X0051163Y0169000D01*
X0058763Y0163000D02*
X0061179Y0163000D01*
D43*
X0058763Y0157100D02*
X0057620Y0155957D01*
X0057620Y0152000D01*
M02*
