G75*
%MOIN*%
%OFA0B0*%
%FSLAX25Y25*%
%IPPOS*%
%LPD*%
%AMOC8*
5,1,8,0,0,1.08239X$1,22.5*
%
%ADD10R,0.02375X0.06115*%
%ADD11R,0.06706X0.08280*%
%ADD12C,0.03162*%
%ADD13C,0.05131*%
%ADD14R,0.05721X0.03359*%
%ADD15R,0.03950X0.03950*%
%ADD16R,0.03200X0.02600*%
%ADD17C,0.07700*%
%ADD18R,0.04934X0.09461*%
%ADD19R,0.04737X0.04934*%
%ADD20R,0.02600X0.03200*%
%ADD21C,0.00100*%
%ADD22R,0.03543X0.06299*%
%ADD23R,0.06299X0.03543*%
%ADD24C,0.02769*%
%ADD25R,0.04724X0.04724*%
%ADD26C,0.03556*%
%ADD27C,0.04343*%
%ADD28R,0.04737X0.03950*%
%ADD29R,0.07099X0.12611*%
%ADD30R,0.04737X0.22454*%
%ADD31R,0.03950X0.05524*%
%ADD32R,0.04900X0.03600*%
%ADD33R,0.01181X0.03150*%
%ADD34R,0.07402X0.06811*%
%ADD35R,0.04737X0.05131*%
%ADD36C,0.01378*%
%ADD37C,0.04762*%
D10*
X0089045Y0187969D03*
X0091604Y0187969D03*
X0094163Y0187969D03*
X0096723Y0187969D03*
X0099282Y0187969D03*
D11*
X0098100Y0198500D03*
X0090226Y0198461D03*
D12*
X0086486Y0190232D03*
X0101841Y0190232D03*
D13*
X0105089Y0196335D02*
X0105089Y0200665D01*
X0083238Y0200665D02*
X0083238Y0196335D01*
D14*
X0087782Y0140551D03*
X0087782Y0134449D03*
X0102545Y0134449D03*
X0102545Y0140551D03*
X0067545Y0140551D03*
X0067545Y0134449D03*
X0052782Y0134449D03*
X0052782Y0140551D03*
D15*
X0072663Y0162047D03*
X0072663Y0167953D03*
X0097711Y0149000D03*
X0103616Y0149000D03*
D16*
X0092663Y0149900D03*
X0089163Y0149900D03*
X0085663Y0149900D03*
X0085663Y0146100D03*
X0089163Y0146100D03*
X0092663Y0146100D03*
X0099163Y0157100D03*
X0099163Y0160900D03*
X0088663Y0161100D03*
X0088663Y0164900D03*
X0076663Y0164900D03*
X0076663Y0161100D03*
X0077663Y0016400D03*
X0081663Y0016400D03*
X0089663Y0016400D03*
X0089663Y0012600D03*
X0081663Y0012600D03*
X0077663Y0012600D03*
X0097663Y0012600D03*
X0097663Y0016400D03*
D17*
X0042663Y0019500D03*
X0042663Y0029500D03*
X0042663Y0039500D03*
X0042663Y0049500D03*
X0042663Y0059500D03*
X0042663Y0069500D03*
X0042663Y0079500D03*
X0042663Y0089500D03*
X0042663Y0099500D03*
X0042663Y0109500D03*
X0042663Y0119500D03*
X0042663Y0129500D03*
X0042663Y0139500D03*
X0042663Y0149500D03*
X0042663Y0159500D03*
X0042663Y0169500D03*
X0042663Y0179500D03*
X0042663Y0189500D03*
X0112663Y0189500D03*
X0112663Y0179500D03*
X0112663Y0169500D03*
X0112663Y0159500D03*
X0112663Y0149500D03*
X0112663Y0139500D03*
X0112663Y0129500D03*
X0112663Y0119500D03*
X0112663Y0109500D03*
X0112663Y0099500D03*
X0112663Y0089500D03*
X0112663Y0079500D03*
X0112663Y0069500D03*
X0112663Y0059500D03*
X0112663Y0049500D03*
X0112663Y0039500D03*
X0112663Y0029500D03*
X0112663Y0019500D03*
D18*
X0070471Y0010500D03*
X0058856Y0010500D03*
D19*
X0064663Y0016514D03*
D20*
X0052563Y0018000D03*
X0048763Y0018000D03*
X0048763Y0014500D03*
X0048763Y0011000D03*
X0052563Y0011000D03*
X0052563Y0014500D03*
X0052563Y0007500D03*
X0048763Y0007500D03*
X0066263Y0129000D03*
X0070063Y0129000D03*
X0073263Y0129000D03*
X0077063Y0129000D03*
X0077063Y0146000D03*
X0073263Y0146000D03*
X0101263Y0179000D03*
X0105063Y0179000D03*
D21*
X0112463Y0194600D02*
X0112963Y0197000D01*
X0112463Y0197300D01*
X0111963Y0197000D01*
X0112463Y0194600D01*
X0112458Y0194627D02*
X0112469Y0194627D01*
X0112490Y0194725D02*
X0112437Y0194725D01*
X0112417Y0194824D02*
X0112510Y0194824D01*
X0112531Y0194922D02*
X0112396Y0194922D01*
X0112376Y0195021D02*
X0112551Y0195021D01*
X0112572Y0195119D02*
X0112355Y0195119D01*
X0112335Y0195218D02*
X0112592Y0195218D01*
X0112613Y0195316D02*
X0112314Y0195316D01*
X0112294Y0195415D02*
X0112633Y0195415D01*
X0112654Y0195513D02*
X0112273Y0195513D01*
X0112253Y0195612D02*
X0112674Y0195612D01*
X0112695Y0195710D02*
X0112232Y0195710D01*
X0112212Y0195809D02*
X0112715Y0195809D01*
X0112736Y0195907D02*
X0112191Y0195907D01*
X0112171Y0196006D02*
X0112756Y0196006D01*
X0112777Y0196105D02*
X0112150Y0196105D01*
X0112130Y0196203D02*
X0112797Y0196203D01*
X0112818Y0196302D02*
X0112109Y0196302D01*
X0112088Y0196400D02*
X0112838Y0196400D01*
X0112859Y0196499D02*
X0112068Y0196499D01*
X0112047Y0196597D02*
X0112880Y0196597D01*
X0112900Y0196696D02*
X0112027Y0196696D01*
X0112006Y0196794D02*
X0112921Y0196794D01*
X0112941Y0196893D02*
X0111986Y0196893D01*
X0111965Y0196991D02*
X0112962Y0196991D01*
X0112814Y0197090D02*
X0112113Y0197090D01*
X0112277Y0197188D02*
X0112650Y0197188D01*
X0112486Y0197287D02*
X0112441Y0197287D01*
X0112124Y0197681D02*
X0110476Y0197681D01*
X0110538Y0197779D02*
X0112276Y0197779D01*
X0112429Y0197878D02*
X0110600Y0197878D01*
X0110661Y0197976D02*
X0114288Y0197976D01*
X0114225Y0198075D02*
X0110723Y0198075D01*
X0110784Y0198173D02*
X0114161Y0198173D01*
X0114098Y0198272D02*
X0110846Y0198272D01*
X0110907Y0198370D02*
X0114034Y0198370D01*
X0113971Y0198469D02*
X0110969Y0198469D01*
X0111031Y0198567D02*
X0113907Y0198567D01*
X0113844Y0198666D02*
X0111092Y0198666D01*
X0111154Y0198764D02*
X0113780Y0198764D01*
X0113716Y0198863D02*
X0111215Y0198863D01*
X0111277Y0198961D02*
X0113653Y0198961D01*
X0113589Y0199060D02*
X0111338Y0199060D01*
X0111363Y0199100D02*
X0109363Y0195900D01*
X0112463Y0197900D01*
X0115563Y0196000D01*
X0113563Y0199100D01*
X0115563Y0202100D01*
X0112463Y0200200D01*
X0109463Y0202100D01*
X0111363Y0199100D01*
X0111327Y0199158D02*
X0113602Y0199158D01*
X0113668Y0199257D02*
X0111264Y0199257D01*
X0111202Y0199355D02*
X0113734Y0199355D01*
X0113799Y0199454D02*
X0111139Y0199454D01*
X0111077Y0199552D02*
X0113865Y0199552D01*
X0113931Y0199651D02*
X0111015Y0199651D01*
X0110952Y0199749D02*
X0113996Y0199749D01*
X0114062Y0199848D02*
X0110890Y0199848D01*
X0110827Y0199946D02*
X0114128Y0199946D01*
X0114193Y0200045D02*
X0110765Y0200045D01*
X0110703Y0200143D02*
X0114259Y0200143D01*
X0114325Y0200242D02*
X0112532Y0200242D01*
X0112397Y0200242D02*
X0110640Y0200242D01*
X0110578Y0200341D02*
X0112242Y0200341D01*
X0112086Y0200439D02*
X0110515Y0200439D01*
X0110453Y0200538D02*
X0111931Y0200538D01*
X0111775Y0200636D02*
X0110391Y0200636D01*
X0110328Y0200735D02*
X0111619Y0200735D01*
X0111464Y0200833D02*
X0110266Y0200833D01*
X0110203Y0200932D02*
X0111308Y0200932D01*
X0111153Y0201030D02*
X0110141Y0201030D01*
X0110079Y0201129D02*
X0110997Y0201129D01*
X0110842Y0201227D02*
X0110016Y0201227D01*
X0109954Y0201326D02*
X0110686Y0201326D01*
X0110531Y0201424D02*
X0109892Y0201424D01*
X0109829Y0201523D02*
X0110375Y0201523D01*
X0110220Y0201621D02*
X0109767Y0201621D01*
X0109704Y0201720D02*
X0110064Y0201720D01*
X0109908Y0201818D02*
X0109642Y0201818D01*
X0109580Y0201917D02*
X0109753Y0201917D01*
X0109597Y0202015D02*
X0109517Y0202015D01*
X0110145Y0199552D02*
X0110402Y0199552D01*
X0110363Y0199600D02*
X0110763Y0199100D01*
X0110363Y0198600D01*
X0108063Y0199100D01*
X0110363Y0199600D01*
X0110480Y0199454D02*
X0109691Y0199454D01*
X0109238Y0199355D02*
X0110559Y0199355D01*
X0110638Y0199257D02*
X0108785Y0199257D01*
X0108701Y0198961D02*
X0110653Y0198961D01*
X0110731Y0199060D02*
X0108248Y0199060D01*
X0108332Y0199158D02*
X0110717Y0199158D01*
X0110574Y0198863D02*
X0109154Y0198863D01*
X0109608Y0198764D02*
X0110495Y0198764D01*
X0110416Y0198666D02*
X0110061Y0198666D01*
X0110415Y0197582D02*
X0111971Y0197582D01*
X0111818Y0197484D02*
X0110353Y0197484D01*
X0110292Y0197385D02*
X0111665Y0197385D01*
X0111513Y0197287D02*
X0110230Y0197287D01*
X0110169Y0197188D02*
X0111360Y0197188D01*
X0111207Y0197090D02*
X0110107Y0197090D01*
X0110045Y0196991D02*
X0111055Y0196991D01*
X0110902Y0196893D02*
X0109984Y0196893D01*
X0109922Y0196794D02*
X0110749Y0196794D01*
X0110597Y0196696D02*
X0109861Y0196696D01*
X0109799Y0196597D02*
X0110444Y0196597D01*
X0110291Y0196499D02*
X0109738Y0196499D01*
X0109676Y0196400D02*
X0110139Y0196400D01*
X0109986Y0196302D02*
X0109614Y0196302D01*
X0109553Y0196203D02*
X0109833Y0196203D01*
X0109680Y0196105D02*
X0109491Y0196105D01*
X0109528Y0196006D02*
X0109430Y0196006D01*
X0109375Y0195907D02*
X0109368Y0195907D01*
X0112500Y0197878D02*
X0114352Y0197878D01*
X0114416Y0197779D02*
X0112661Y0197779D01*
X0112821Y0197681D02*
X0114479Y0197681D01*
X0114543Y0197582D02*
X0112982Y0197582D01*
X0113143Y0197484D02*
X0114606Y0197484D01*
X0114670Y0197385D02*
X0113303Y0197385D01*
X0113464Y0197287D02*
X0114733Y0197287D01*
X0114797Y0197188D02*
X0113625Y0197188D01*
X0113786Y0197090D02*
X0114860Y0197090D01*
X0114924Y0196991D02*
X0113946Y0196991D01*
X0114107Y0196893D02*
X0114988Y0196893D01*
X0115051Y0196794D02*
X0114268Y0196794D01*
X0114429Y0196696D02*
X0115115Y0196696D01*
X0115178Y0196597D02*
X0114589Y0196597D01*
X0114750Y0196499D02*
X0115242Y0196499D01*
X0115305Y0196400D02*
X0114911Y0196400D01*
X0115071Y0196302D02*
X0115369Y0196302D01*
X0115432Y0196203D02*
X0115232Y0196203D01*
X0115393Y0196105D02*
X0115496Y0196105D01*
X0115554Y0196006D02*
X0115560Y0196006D01*
X0114866Y0198666D02*
X0114524Y0198666D01*
X0114563Y0198600D02*
X0116863Y0199100D01*
X0114563Y0199600D01*
X0114263Y0199100D01*
X0114563Y0198600D01*
X0114465Y0198764D02*
X0115319Y0198764D01*
X0115772Y0198863D02*
X0114406Y0198863D01*
X0114347Y0198961D02*
X0116226Y0198961D01*
X0116142Y0199257D02*
X0114358Y0199257D01*
X0114417Y0199355D02*
X0115689Y0199355D01*
X0115236Y0199454D02*
X0114476Y0199454D01*
X0114535Y0199552D02*
X0114782Y0199552D01*
X0114298Y0199158D02*
X0116595Y0199158D01*
X0116679Y0199060D02*
X0114288Y0199060D01*
X0114390Y0200341D02*
X0112693Y0200341D01*
X0112853Y0200439D02*
X0114456Y0200439D01*
X0114522Y0200538D02*
X0113014Y0200538D01*
X0113175Y0200636D02*
X0114587Y0200636D01*
X0114653Y0200735D02*
X0113336Y0200735D01*
X0113496Y0200833D02*
X0114719Y0200833D01*
X0114785Y0200932D02*
X0113657Y0200932D01*
X0113818Y0201030D02*
X0114850Y0201030D01*
X0114916Y0201129D02*
X0113979Y0201129D01*
X0114139Y0201227D02*
X0114982Y0201227D01*
X0115047Y0201326D02*
X0114300Y0201326D01*
X0114461Y0201424D02*
X0115113Y0201424D01*
X0115179Y0201523D02*
X0114621Y0201523D01*
X0114782Y0201621D02*
X0115244Y0201621D01*
X0115310Y0201720D02*
X0114943Y0201720D01*
X0115104Y0201818D02*
X0115376Y0201818D01*
X0115441Y0201917D02*
X0115264Y0201917D01*
X0115425Y0202015D02*
X0115507Y0202015D01*
X0112896Y0201424D02*
X0112031Y0201424D01*
X0112010Y0201326D02*
X0112916Y0201326D01*
X0112937Y0201227D02*
X0111990Y0201227D01*
X0111969Y0201129D02*
X0112958Y0201129D01*
X0112963Y0201100D02*
X0112463Y0203500D01*
X0111963Y0201100D01*
X0112463Y0200800D01*
X0112963Y0201100D01*
X0112847Y0201030D02*
X0112080Y0201030D01*
X0112244Y0200932D02*
X0112683Y0200932D01*
X0112519Y0200833D02*
X0112408Y0200833D01*
X0112052Y0201523D02*
X0112875Y0201523D01*
X0112855Y0201621D02*
X0112072Y0201621D01*
X0112093Y0201720D02*
X0112834Y0201720D01*
X0112814Y0201818D02*
X0112113Y0201818D01*
X0112134Y0201917D02*
X0112793Y0201917D01*
X0112773Y0202015D02*
X0112154Y0202015D01*
X0112175Y0202114D02*
X0112752Y0202114D01*
X0112732Y0202212D02*
X0112195Y0202212D01*
X0112216Y0202311D02*
X0112711Y0202311D01*
X0112691Y0202409D02*
X0112236Y0202409D01*
X0112257Y0202508D02*
X0112670Y0202508D01*
X0112650Y0202606D02*
X0112277Y0202606D01*
X0112298Y0202705D02*
X0112629Y0202705D01*
X0112609Y0202803D02*
X0112318Y0202803D01*
X0112339Y0202902D02*
X0112588Y0202902D01*
X0112568Y0203000D02*
X0112359Y0203000D01*
X0112380Y0203099D02*
X0112547Y0203099D01*
X0112527Y0203197D02*
X0112400Y0203197D01*
X0112421Y0203296D02*
X0112506Y0203296D01*
X0112485Y0203394D02*
X0112441Y0203394D01*
X0112462Y0203493D02*
X0112465Y0203493D01*
D22*
X0099317Y0119547D03*
X0094986Y0119547D03*
X0090656Y0119547D03*
X0086325Y0119547D03*
X0081994Y0119547D03*
X0077663Y0119547D03*
X0073333Y0119547D03*
X0069002Y0119547D03*
X0064671Y0119547D03*
X0060341Y0119547D03*
X0056010Y0119547D03*
X0056010Y0025453D03*
X0060341Y0025453D03*
X0064671Y0025453D03*
X0069002Y0025453D03*
X0073333Y0025453D03*
X0077663Y0025453D03*
X0081994Y0025453D03*
X0086325Y0025453D03*
X0090656Y0025453D03*
X0094986Y0025453D03*
X0099317Y0025453D03*
D23*
X0105026Y0029193D03*
X0105026Y0033524D03*
X0105026Y0037854D03*
X0105026Y0042185D03*
X0105026Y0046516D03*
X0105026Y0050846D03*
X0105026Y0055177D03*
X0105026Y0059508D03*
X0105026Y0063839D03*
X0105026Y0068169D03*
X0105026Y0072500D03*
X0105026Y0076831D03*
X0105026Y0081161D03*
X0105026Y0085492D03*
X0105026Y0089823D03*
X0105026Y0094154D03*
X0105026Y0098484D03*
X0105026Y0102815D03*
X0105026Y0107146D03*
X0105026Y0111476D03*
X0105026Y0115807D03*
X0050301Y0115807D03*
X0050301Y0111476D03*
X0050301Y0107146D03*
X0050301Y0102815D03*
X0050301Y0098484D03*
X0050301Y0094154D03*
X0050301Y0089823D03*
X0050301Y0085492D03*
X0050301Y0081161D03*
X0050301Y0076831D03*
X0050301Y0072500D03*
X0050301Y0068169D03*
X0050301Y0063839D03*
X0050301Y0059508D03*
X0050301Y0055177D03*
X0050301Y0050846D03*
X0050301Y0046516D03*
X0050301Y0042185D03*
X0050301Y0037854D03*
X0050301Y0033524D03*
X0050301Y0029193D03*
D24*
X0105223Y0025256D03*
D25*
X0098333Y0032146D03*
X0090065Y0032146D03*
X0081797Y0032146D03*
X0073530Y0032146D03*
X0065262Y0032146D03*
X0056994Y0032146D03*
X0056994Y0039232D03*
X0065262Y0039232D03*
X0073530Y0039232D03*
X0081797Y0039232D03*
X0090065Y0039232D03*
X0098333Y0039232D03*
X0098333Y0046319D03*
X0098333Y0060492D03*
X0056994Y0060492D03*
X0056994Y0046319D03*
X0056994Y0084508D03*
X0056994Y0098681D03*
X0056994Y0105768D03*
X0065262Y0105768D03*
X0073530Y0105768D03*
X0081797Y0105768D03*
X0090065Y0105768D03*
X0098333Y0105768D03*
X0098333Y0112854D03*
X0090065Y0112854D03*
X0081797Y0112854D03*
X0073530Y0112854D03*
X0065262Y0112854D03*
X0056994Y0112854D03*
X0098333Y0098681D03*
X0098333Y0084508D03*
D26*
X0066356Y0047539D03*
D27*
X0101789Y0014861D03*
D28*
X0080616Y0135335D03*
X0074711Y0135335D03*
X0074711Y0139665D03*
X0080616Y0139665D03*
D29*
X0077049Y0193063D03*
X0050278Y0193063D03*
D30*
X0059726Y0184126D03*
X0067600Y0184126D03*
D31*
X0064707Y0152000D03*
X0057620Y0152000D03*
D32*
X0055163Y0160050D03*
X0055163Y0165950D03*
X0067663Y0165950D03*
X0067663Y0160050D03*
D33*
X0093211Y0164488D03*
X0093211Y0164488D03*
X0095179Y0164488D03*
X0097148Y0164488D03*
X0099116Y0164488D03*
X0099116Y0175512D03*
X0097148Y0175512D03*
X0095179Y0175512D03*
X0093211Y0175512D03*
D34*
X0096163Y0170000D03*
D35*
X0103163Y0168846D03*
X0103163Y0162154D03*
X0081163Y0162154D03*
X0081163Y0168846D03*
D36*
X0063148Y0164969D03*
X0061179Y0164969D03*
X0061179Y0163000D03*
X0061179Y0161031D03*
X0063148Y0161031D03*
X0063148Y0163000D03*
D37*
X0092663Y0181500D03*
X0097663Y0181500D03*
M02*
