G75*
%MOIN*%
%OFA0B0*%
%FSLAX25Y25*%
%IPPOS*%
%LPD*%
%AMOC8*
5,1,8,0,0,1.08239X$1,22.5*
%
%ADD10C,0.03569*%
%ADD11C,0.05250*%
%ADD12C,0.02781*%
%ADD13C,0.03962*%
%ADD14C,0.02381*%
%ADD15C,0.00600*%
%ADD16C,0.04000*%
%ADD17C,0.00800*%
%ADD18C,0.01200*%
%ADD19C,0.01000*%
D10*
X0083238Y0198500D03*
X0105089Y0198500D03*
D11*
X0112663Y0189500D03*
X0112663Y0179500D03*
X0112663Y0169500D03*
X0112663Y0159500D03*
X0112663Y0149500D03*
X0112663Y0139500D03*
X0112663Y0129500D03*
X0112663Y0119500D03*
X0112663Y0109500D03*
X0112663Y0099500D03*
X0112663Y0089500D03*
X0112663Y0079500D03*
X0112663Y0069500D03*
X0112663Y0059500D03*
X0112663Y0049500D03*
X0112663Y0039500D03*
X0112663Y0029500D03*
X0112663Y0019500D03*
X0042663Y0019500D03*
X0042663Y0029500D03*
X0042663Y0039500D03*
X0042663Y0049500D03*
X0042663Y0059500D03*
X0042663Y0069500D03*
X0042663Y0079500D03*
X0042663Y0089500D03*
X0042663Y0099500D03*
X0042663Y0109500D03*
X0042663Y0119500D03*
X0042663Y0129500D03*
X0042663Y0139500D03*
X0042663Y0149500D03*
X0042663Y0159500D03*
X0042663Y0169500D03*
X0042663Y0179500D03*
X0042663Y0189500D03*
D12*
X0074120Y0181043D03*
X0077663Y0181043D03*
X0081207Y0181043D03*
X0081207Y0177500D03*
X0081207Y0173957D03*
X0077663Y0173957D03*
X0074120Y0173957D03*
X0074120Y0177500D03*
X0077663Y0177500D03*
D13*
X0092663Y0181500D03*
X0097663Y0181500D03*
D14*
X0102163Y0185500D03*
X0104663Y0185500D03*
X0101663Y0176000D03*
X0102463Y0173000D03*
X0088963Y0173500D03*
X0087863Y0170500D03*
X0089163Y0167700D03*
X0088963Y0176500D03*
X0086463Y0184800D03*
X0084963Y0186000D03*
X0071663Y0190500D03*
X0051163Y0185000D03*
X0051163Y0182000D03*
X0065263Y0171100D03*
X0064363Y0169400D03*
X0068163Y0169300D03*
X0058763Y0163000D03*
X0050863Y0162600D03*
X0050863Y0160000D03*
X0058763Y0157100D03*
X0065963Y0156700D03*
X0068963Y0156700D03*
X0074363Y0158300D03*
X0077363Y0158400D03*
X0079163Y0156000D03*
X0081263Y0158200D03*
X0084263Y0158200D03*
X0082163Y0155300D03*
X0086563Y0154100D03*
X0094163Y0154500D03*
X0096163Y0157000D03*
X0093163Y0157700D03*
X0101163Y0154500D03*
X0102163Y0158000D03*
X0081663Y0146300D03*
X0076763Y0150400D03*
X0077363Y0153500D03*
X0074663Y0155000D03*
X0071663Y0154000D03*
X0073863Y0151700D03*
X0071863Y0149100D03*
X0068863Y0150000D03*
X0070963Y0137600D03*
X0058663Y0138000D03*
X0058663Y0135000D03*
X0060663Y0132500D03*
X0062163Y0129500D03*
X0049363Y0124500D03*
X0049663Y0121500D03*
X0052163Y0119500D03*
X0061163Y0113500D03*
X0061163Y0110500D03*
X0061163Y0107500D03*
X0069763Y0109200D03*
X0077463Y0109500D03*
X0077663Y0113000D03*
X0069363Y0113900D03*
X0085863Y0109300D03*
X0094163Y0111500D03*
X0094163Y0105000D03*
X0085963Y0106000D03*
X0091163Y0100000D03*
X0094163Y0100000D03*
X0091163Y0096000D03*
X0089163Y0093500D03*
X0084163Y0093000D03*
X0080163Y0090000D03*
X0085163Y0088000D03*
X0082163Y0087500D03*
X0080163Y0081500D03*
X0077163Y0083500D03*
X0075663Y0086500D03*
X0072663Y0086000D03*
X0060963Y0082500D03*
X0059163Y0076500D03*
X0073463Y0068400D03*
X0082663Y0061500D03*
X0087163Y0059500D03*
X0088163Y0063000D03*
X0095163Y0064500D03*
X0099663Y0065000D03*
X0095163Y0070000D03*
X0090163Y0070000D03*
X0087863Y0075700D03*
X0095163Y0075000D03*
X0110663Y0084500D03*
X0100163Y0088500D03*
X0083163Y0098000D03*
X0067163Y0101000D03*
X0064163Y0101000D03*
X0061163Y0101000D03*
X0062663Y0098000D03*
X0066163Y0098000D03*
X0066663Y0095000D03*
X0044663Y0094500D03*
X0044663Y0104500D03*
X0076163Y0124300D03*
X0079663Y0127200D03*
X0083163Y0124300D03*
X0092663Y0128500D03*
X0094363Y0131300D03*
X0092663Y0134000D03*
X0090863Y0131300D03*
X0097663Y0133500D03*
X0084463Y0137500D03*
X0079863Y0131600D03*
X0095663Y0145500D03*
X0051163Y0169000D03*
X0047663Y0166000D03*
X0110663Y0114500D03*
X0110663Y0064500D03*
X0099163Y0056500D03*
X0099163Y0051500D03*
X0079663Y0048000D03*
X0077163Y0044000D03*
X0072163Y0044000D03*
X0067663Y0044000D03*
X0061163Y0043000D03*
X0061163Y0039500D03*
X0045163Y0044500D03*
X0059163Y0056000D03*
X0066163Y0057000D03*
X0094163Y0039000D03*
X0094163Y0032000D03*
X0085963Y0032000D03*
X0077663Y0030500D03*
X0076163Y0020000D03*
X0071163Y0020000D03*
X0060163Y0020000D03*
X0056163Y0020000D03*
X0050163Y0021500D03*
X0050163Y0024500D03*
X0045663Y0014500D03*
X0045663Y0011000D03*
X0045663Y0007500D03*
X0079163Y0008500D03*
X0089163Y0008500D03*
X0099163Y0008500D03*
X0109663Y0007500D03*
X0109663Y0011000D03*
X0109663Y0014500D03*
X0104163Y0020000D03*
X0098663Y0020000D03*
X0093663Y0020000D03*
X0087163Y0020000D03*
X0082663Y0020000D03*
D15*
X0038963Y0014807D02*
X0038963Y0203200D01*
X0082864Y0203200D01*
X0082849Y0203196D01*
X0082758Y0203196D01*
X0082732Y0203169D01*
X0082385Y0203088D01*
X0082349Y0203100D01*
X0082268Y0203060D01*
X0082180Y0203039D01*
X0082160Y0203007D01*
X0081840Y0202851D01*
X0081802Y0202855D01*
X0081731Y0202798D01*
X0081650Y0202758D01*
X0081638Y0202722D01*
X0081361Y0202498D01*
X0081323Y0202494D01*
X0081267Y0202423D01*
X0081197Y0202366D01*
X0081193Y0202328D01*
X0080972Y0202048D01*
X0080937Y0202036D01*
X0080898Y0201954D01*
X0080842Y0201883D01*
X0080847Y0201845D01*
X0080694Y0201523D01*
X0080662Y0201503D01*
X0080642Y0201415D01*
X0080604Y0201333D01*
X0080616Y0201297D01*
X0080540Y0200950D01*
X0080513Y0200924D01*
X0080513Y0200833D01*
X0080494Y0200744D01*
X0080513Y0200713D01*
X0080513Y0196337D01*
X0080494Y0196306D01*
X0080513Y0196217D01*
X0080513Y0196126D01*
X0080540Y0196099D01*
X0080606Y0195801D01*
X0080594Y0195770D01*
X0080633Y0195683D01*
X0080653Y0195591D01*
X0080682Y0195573D01*
X0080804Y0195297D01*
X0080798Y0195264D01*
X0080852Y0195187D01*
X0080891Y0195100D01*
X0080922Y0195088D01*
X0081095Y0194841D01*
X0081096Y0194808D01*
X0081165Y0194743D01*
X0081219Y0194665D01*
X0081252Y0194660D01*
X0081470Y0194451D01*
X0081478Y0194419D01*
X0081558Y0194368D01*
X0081626Y0194303D01*
X0081659Y0194303D01*
X0081914Y0194142D01*
X0081928Y0194111D01*
X0082016Y0194077D01*
X0082096Y0194026D01*
X0082128Y0194034D01*
X0082410Y0193925D01*
X0082429Y0193898D01*
X0082522Y0193881D01*
X0082611Y0193847D01*
X0082641Y0193861D01*
X0082939Y0193809D01*
X0082963Y0193786D01*
X0083057Y0193788D01*
X0083151Y0193772D01*
X0083178Y0193791D01*
X0083467Y0193798D01*
X0083483Y0193785D01*
X0083589Y0193801D01*
X0083695Y0193803D01*
X0083709Y0193818D01*
X0083944Y0193852D01*
X0083974Y0193838D01*
X0084063Y0193869D01*
X0084157Y0193883D01*
X0084177Y0193909D01*
X0084412Y0193993D01*
X0084444Y0193984D01*
X0084526Y0194033D01*
X0084615Y0194064D01*
X0084629Y0194094D01*
X0084844Y0194222D01*
X0084877Y0194220D01*
X0084948Y0194284D01*
X0085029Y0194332D01*
X0085037Y0194364D01*
X0085223Y0194531D01*
X0085256Y0194536D01*
X0085312Y0194612D01*
X0085383Y0194675D01*
X0085385Y0194708D01*
X0085534Y0194908D01*
X0085565Y0194919D01*
X0085606Y0195005D01*
X0085663Y0195081D01*
X0085658Y0195114D01*
X0085766Y0195339D01*
X0085794Y0195356D01*
X0085818Y0195448D01*
X0085859Y0195533D01*
X0085847Y0195565D01*
X0085909Y0195807D01*
X0085934Y0195829D01*
X0085939Y0195924D01*
X0085962Y0196015D01*
X0085945Y0196044D01*
X0085957Y0196269D01*
X0085963Y0196276D01*
X0085963Y0196392D01*
X0085970Y0196508D01*
X0085963Y0196515D01*
X0085963Y0200593D01*
X0085974Y0200606D01*
X0085963Y0200715D01*
X0085963Y0200824D01*
X0085952Y0200836D01*
X0085929Y0201068D01*
X0085944Y0201097D01*
X0085917Y0201188D01*
X0085908Y0201282D01*
X0085882Y0201303D01*
X0085809Y0201542D01*
X0085819Y0201574D01*
X0085774Y0201657D01*
X0085747Y0201748D01*
X0085718Y0201764D01*
X0085600Y0201983D01*
X0085603Y0202017D01*
X0085543Y0202090D01*
X0085499Y0202173D01*
X0085467Y0202183D01*
X0085309Y0202376D01*
X0085305Y0202409D01*
X0085232Y0202469D01*
X0085172Y0202542D01*
X0085139Y0202545D01*
X0084946Y0202703D01*
X0084937Y0202735D01*
X0084853Y0202780D01*
X0084780Y0202840D01*
X0084747Y0202837D01*
X0084527Y0202954D01*
X0084511Y0202984D01*
X0084421Y0203011D01*
X0084337Y0203056D01*
X0084305Y0203046D01*
X0084067Y0203118D01*
X0084046Y0203144D01*
X0083951Y0203153D01*
X0083861Y0203181D01*
X0083832Y0203165D01*
X0083600Y0203188D01*
X0083588Y0203200D01*
X0083537Y0203200D01*
X0083537Y0203200D01*
X0104796Y0203200D01*
X0104796Y0203200D01*
X0104739Y0203200D01*
X0104727Y0203188D01*
X0104495Y0203165D01*
X0104466Y0203181D01*
X0104375Y0203153D01*
X0104281Y0203144D01*
X0104260Y0203118D01*
X0104022Y0203046D01*
X0103990Y0203056D01*
X0103906Y0203011D01*
X0103816Y0202984D01*
X0103800Y0202954D01*
X0103580Y0202837D01*
X0103547Y0202840D01*
X0103474Y0202780D01*
X0103390Y0202735D01*
X0103381Y0202703D01*
X0103188Y0202545D01*
X0103155Y0202542D01*
X0103095Y0202469D01*
X0103021Y0202409D01*
X0103018Y0202376D01*
X0102860Y0202183D01*
X0102828Y0202173D01*
X0102784Y0202090D01*
X0102723Y0202017D01*
X0102727Y0201983D01*
X0102609Y0201764D01*
X0102580Y0201748D01*
X0102552Y0201657D01*
X0102508Y0201574D01*
X0102517Y0201542D01*
X0102445Y0201303D01*
X0102419Y0201282D01*
X0102410Y0201188D01*
X0102383Y0201097D01*
X0102398Y0201068D01*
X0102375Y0200836D01*
X0102363Y0200824D01*
X0102363Y0200715D01*
X0102353Y0200606D01*
X0102363Y0200593D01*
X0102363Y0196363D01*
X0102356Y0196355D01*
X0102363Y0196241D01*
X0102363Y0196126D01*
X0102371Y0196118D01*
X0102388Y0195859D01*
X0102370Y0195825D01*
X0102395Y0195739D01*
X0102401Y0195648D01*
X0102429Y0195623D01*
X0102511Y0195348D01*
X0102501Y0195312D01*
X0102545Y0195233D01*
X0102571Y0195146D01*
X0102604Y0195128D01*
X0102745Y0194878D01*
X0102743Y0194841D01*
X0102803Y0194774D01*
X0102848Y0194695D01*
X0102884Y0194684D01*
X0103077Y0194472D01*
X0103083Y0194435D01*
X0103158Y0194383D01*
X0103218Y0194316D01*
X0103256Y0194314D01*
X0103491Y0194150D01*
X0103506Y0194115D01*
X0103590Y0194081D01*
X0103664Y0194029D01*
X0103701Y0194036D01*
X0103967Y0193928D01*
X0103989Y0193897D01*
X0104078Y0193883D01*
X0104162Y0193849D01*
X0104197Y0193864D01*
X0104467Y0193820D01*
X0104484Y0193802D01*
X0104587Y0193800D01*
X0104688Y0193784D01*
X0104708Y0193798D01*
X0105030Y0193793D01*
X0105058Y0193774D01*
X0105151Y0193791D01*
X0105246Y0193789D01*
X0105270Y0193813D01*
X0105595Y0193872D01*
X0105626Y0193858D01*
X0105714Y0193893D01*
X0105807Y0193910D01*
X0105826Y0193937D01*
X0106134Y0194059D01*
X0106167Y0194052D01*
X0106246Y0194103D01*
X0106334Y0194138D01*
X0106347Y0194169D01*
X0106626Y0194348D01*
X0106659Y0194347D01*
X0106727Y0194413D01*
X0106807Y0194464D01*
X0106814Y0194497D01*
X0107052Y0194727D01*
X0107084Y0194733D01*
X0107138Y0194811D01*
X0107206Y0194877D01*
X0107207Y0194910D01*
X0107396Y0195182D01*
X0107426Y0195194D01*
X0107464Y0195281D01*
X0107518Y0195359D01*
X0107512Y0195392D01*
X0107644Y0195696D01*
X0107672Y0195714D01*
X0107692Y0195806D01*
X0107730Y0195893D01*
X0107717Y0195924D01*
X0107788Y0196250D01*
X0107813Y0196276D01*
X0107813Y0196368D01*
X0107833Y0196458D01*
X0107813Y0196488D01*
X0107813Y0200503D01*
X0107829Y0200525D01*
X0107813Y0200624D01*
X0107813Y0200724D01*
X0107794Y0200743D01*
X0107748Y0201033D01*
X0107762Y0201063D01*
X0107729Y0201152D01*
X0107714Y0201245D01*
X0107687Y0201265D01*
X0107582Y0201545D01*
X0107590Y0201578D01*
X0107540Y0201658D01*
X0107508Y0201747D01*
X0107477Y0201761D01*
X0107320Y0202016D01*
X0107322Y0202049D01*
X0107257Y0202118D01*
X0107208Y0202199D01*
X0107175Y0202207D01*
X0106972Y0202426D01*
X0106966Y0202459D01*
X0106890Y0202514D01*
X0106825Y0202584D01*
X0106792Y0202585D01*
X0106549Y0202760D01*
X0106538Y0202791D01*
X0106452Y0202831D01*
X0106375Y0202886D01*
X0106342Y0202881D01*
X0106070Y0203006D01*
X0106053Y0203034D01*
X0105961Y0203056D01*
X0105874Y0203095D01*
X0105843Y0203084D01*
X0105552Y0203153D01*
X0105530Y0203177D01*
X0105435Y0203181D01*
X0105354Y0203200D01*
X0116363Y0203200D01*
X0116363Y0014807D01*
X0111860Y0005800D01*
X0043467Y0005800D01*
X0038963Y0014807D01*
X0039030Y0014675D02*
X0099118Y0014675D01*
X0099118Y0014330D02*
X0099525Y0013348D01*
X0100276Y0012596D01*
X0101258Y0012190D01*
X0102321Y0012190D01*
X0103303Y0012596D01*
X0104054Y0013348D01*
X0104461Y0014330D01*
X0104461Y0015393D01*
X0104054Y0016375D01*
X0103303Y0017126D01*
X0102321Y0017533D01*
X0101258Y0017533D01*
X0100276Y0017126D01*
X0099525Y0016375D01*
X0099118Y0015393D01*
X0099118Y0014330D01*
X0099223Y0014076D02*
X0039329Y0014076D01*
X0039628Y0013478D02*
X0099471Y0013478D01*
X0099993Y0012879D02*
X0039927Y0012879D01*
X0040227Y0012281D02*
X0101039Y0012281D01*
X0102540Y0012281D02*
X0115100Y0012281D01*
X0115400Y0012879D02*
X0103585Y0012879D01*
X0104108Y0013478D02*
X0115699Y0013478D01*
X0115998Y0014076D02*
X0104356Y0014076D01*
X0104461Y0014675D02*
X0116297Y0014675D01*
X0116363Y0015273D02*
X0104461Y0015273D01*
X0104263Y0015872D02*
X0116363Y0015872D01*
X0116363Y0016470D02*
X0114560Y0016470D01*
X0114660Y0016512D02*
X0115652Y0017503D01*
X0116188Y0018799D01*
X0116188Y0020201D01*
X0115652Y0021497D01*
X0114660Y0022488D01*
X0113365Y0023025D01*
X0111962Y0023025D01*
X0111266Y0022736D01*
X0104463Y0029538D01*
X0104463Y0035862D01*
X0109427Y0030898D01*
X0109138Y0030201D01*
X0109138Y0028799D01*
X0109675Y0027503D01*
X0110667Y0026512D01*
X0111962Y0025975D01*
X0113365Y0025975D01*
X0114660Y0026512D01*
X0115652Y0027503D01*
X0116188Y0028799D01*
X0116188Y0030201D01*
X0115652Y0031497D01*
X0114660Y0032488D01*
X0113365Y0033025D01*
X0111962Y0033025D01*
X0111266Y0032736D01*
X0105963Y0038038D01*
X0105963Y0044362D01*
X0109427Y0040898D01*
X0109138Y0040201D01*
X0109138Y0038799D01*
X0109675Y0037503D01*
X0110667Y0036512D01*
X0111962Y0035975D01*
X0113365Y0035975D01*
X0114660Y0036512D01*
X0115652Y0037503D01*
X0116188Y0038799D01*
X0116188Y0040201D01*
X0115652Y0041497D01*
X0114660Y0042488D01*
X0113365Y0043025D01*
X0111962Y0043025D01*
X0111266Y0042736D01*
X0107463Y0046538D01*
X0107463Y0052862D01*
X0109427Y0050898D01*
X0109138Y0050201D01*
X0109138Y0048799D01*
X0109675Y0047503D01*
X0110667Y0046512D01*
X0111962Y0045975D01*
X0113365Y0045975D01*
X0114660Y0046512D01*
X0115652Y0047503D01*
X0116188Y0048799D01*
X0116188Y0050201D01*
X0115652Y0051497D01*
X0114660Y0052488D01*
X0113365Y0053025D01*
X0111962Y0053025D01*
X0111266Y0052736D01*
X0108963Y0055038D01*
X0108963Y0080038D01*
X0101811Y0087191D01*
X0102254Y0087634D01*
X0102254Y0089366D01*
X0101029Y0090591D01*
X0099298Y0090591D01*
X0098963Y0090256D01*
X0098963Y0093538D01*
X0096363Y0096138D01*
X0096363Y0100362D01*
X0098202Y0102200D01*
X0104202Y0102200D01*
X0104963Y0102962D01*
X0108963Y0106962D01*
X0108963Y0124962D01*
X0110590Y0126588D01*
X0110667Y0126512D01*
X0111962Y0125975D01*
X0113365Y0125975D01*
X0114660Y0126512D01*
X0115652Y0127503D01*
X0116188Y0128799D01*
X0116188Y0130201D01*
X0115652Y0131497D01*
X0114660Y0132488D01*
X0113365Y0133025D01*
X0111962Y0133025D01*
X0110667Y0132488D01*
X0109675Y0131497D01*
X0109138Y0130201D01*
X0109138Y0128813D01*
X0108963Y0128638D01*
X0108963Y0134962D01*
X0110590Y0136588D01*
X0110667Y0136512D01*
X0111962Y0135975D01*
X0113365Y0135975D01*
X0114660Y0136512D01*
X0115652Y0137503D01*
X0116188Y0138799D01*
X0116188Y0140201D01*
X0115652Y0141497D01*
X0114660Y0142488D01*
X0113365Y0143025D01*
X0111962Y0143025D01*
X0110667Y0142488D01*
X0109675Y0141497D01*
X0109138Y0140201D01*
X0109138Y0138813D01*
X0107463Y0137138D01*
X0107463Y0143462D01*
X0110590Y0146588D01*
X0110667Y0146512D01*
X0111962Y0145975D01*
X0113365Y0145975D01*
X0114660Y0146512D01*
X0115652Y0147503D01*
X0116188Y0148799D01*
X0116188Y0150201D01*
X0115652Y0151497D01*
X0114660Y0152488D01*
X0113365Y0153025D01*
X0111962Y0153025D01*
X0110667Y0152488D01*
X0109675Y0151497D01*
X0109138Y0150201D01*
X0109138Y0148813D01*
X0107363Y0147038D01*
X0107363Y0177503D01*
X0109138Y0179278D01*
X0109138Y0178799D01*
X0109675Y0177503D01*
X0110667Y0176512D01*
X0111962Y0175975D01*
X0113365Y0175975D01*
X0114660Y0176512D01*
X0115652Y0177503D01*
X0116188Y0178799D01*
X0116188Y0180201D01*
X0115652Y0181497D01*
X0114660Y0182488D01*
X0113365Y0183025D01*
X0112885Y0183025D01*
X0116363Y0186503D01*
X0116363Y0192497D01*
X0115661Y0193200D01*
X0114161Y0194700D01*
X0110166Y0194700D01*
X0109463Y0193997D01*
X0107463Y0191997D01*
X0107463Y0186997D01*
X0106754Y0186288D01*
X0106754Y0186366D01*
X0105529Y0187591D01*
X0103798Y0187591D01*
X0103413Y0187206D01*
X0103104Y0187516D01*
X0103403Y0187678D01*
X0103435Y0187675D01*
X0103509Y0187736D01*
X0103593Y0187781D01*
X0103602Y0187812D01*
X0103870Y0188033D01*
X0103902Y0188036D01*
X0103963Y0188110D01*
X0104037Y0188170D01*
X0104040Y0188203D01*
X0104261Y0188471D01*
X0104292Y0188480D01*
X0104337Y0188564D01*
X0104398Y0188638D01*
X0104395Y0188670D01*
X0104560Y0188975D01*
X0104589Y0188991D01*
X0104617Y0189082D01*
X0104663Y0189165D01*
X0104653Y0189197D01*
X0104757Y0189528D01*
X0104783Y0189548D01*
X0104793Y0189643D01*
X0104822Y0189734D01*
X0104807Y0189763D01*
X0104845Y0190108D01*
X0104867Y0190134D01*
X0104859Y0190228D01*
X0104869Y0190323D01*
X0104848Y0190348D01*
X0104819Y0190695D01*
X0104835Y0190724D01*
X0104809Y0190815D01*
X0104801Y0190909D01*
X0104775Y0190931D01*
X0104678Y0191265D01*
X0104688Y0191297D01*
X0104644Y0191381D01*
X0104618Y0191472D01*
X0104589Y0191488D01*
X0104428Y0191797D01*
X0104431Y0191830D01*
X0104372Y0191904D01*
X0104328Y0191987D01*
X0104296Y0191997D01*
X0104077Y0192269D01*
X0104074Y0192302D01*
X0104002Y0192362D01*
X0103942Y0192436D01*
X0103909Y0192439D01*
X0103641Y0192662D01*
X0103632Y0192694D01*
X0103549Y0192739D01*
X0103476Y0192800D01*
X0103443Y0192796D01*
X0103136Y0192962D01*
X0103120Y0192992D01*
X0103030Y0193019D01*
X0102947Y0193064D01*
X0102915Y0193055D01*
X0102582Y0193157D01*
X0102560Y0193183D01*
X0102467Y0193192D01*
X0102376Y0193220D01*
X0102347Y0193204D01*
X0102016Y0193237D01*
X0102004Y0193249D01*
X0101948Y0193249D01*
X0101935Y0193260D01*
X0101860Y0193252D01*
X0101786Y0193260D01*
X0101773Y0193249D01*
X0101716Y0193249D01*
X0101704Y0193237D01*
X0101372Y0193204D01*
X0101342Y0193220D01*
X0101252Y0193192D01*
X0101158Y0193183D01*
X0101137Y0193157D01*
X0100801Y0193056D01*
X0100769Y0193065D01*
X0100686Y0193021D01*
X0100595Y0192993D01*
X0100579Y0192964D01*
X0100270Y0192798D01*
X0100237Y0192802D01*
X0100164Y0192742D01*
X0100080Y0192697D01*
X0100071Y0192665D01*
X0099800Y0192443D01*
X0099767Y0192440D01*
X0099707Y0192366D01*
X0099633Y0192306D01*
X0099630Y0192273D01*
X0099408Y0192002D01*
X0099376Y0191993D01*
X0099331Y0191909D01*
X0099271Y0191836D01*
X0099274Y0191803D01*
X0099109Y0191494D01*
X0099080Y0191478D01*
X0099052Y0191387D01*
X0099008Y0191304D01*
X0099017Y0191272D01*
X0098916Y0190936D01*
X0098890Y0190915D01*
X0098881Y0190821D01*
X0098853Y0190730D01*
X0098869Y0190701D01*
X0098835Y0190354D01*
X0098815Y0190330D01*
X0098823Y0190234D01*
X0098813Y0190138D01*
X0098833Y0190114D01*
X0098863Y0189764D01*
X0098847Y0189734D01*
X0098873Y0189644D01*
X0098881Y0189550D01*
X0098907Y0189528D01*
X0099007Y0189189D01*
X0098997Y0189156D01*
X0099041Y0189073D01*
X0099067Y0188983D01*
X0099097Y0188967D01*
X0099262Y0188654D01*
X0099259Y0188620D01*
X0099318Y0188547D01*
X0099362Y0188464D01*
X0099395Y0188454D01*
X0099619Y0188180D01*
X0099622Y0188146D01*
X0099695Y0188087D01*
X0099755Y0188014D01*
X0099788Y0188010D01*
X0100062Y0187786D01*
X0100072Y0187754D01*
X0100155Y0187710D01*
X0100228Y0187650D01*
X0100262Y0187654D01*
X0100575Y0187489D01*
X0100591Y0187459D01*
X0100682Y0187433D01*
X0100765Y0187389D01*
X0100797Y0187399D01*
X0101036Y0187329D01*
X0100073Y0186366D01*
X0100073Y0184634D01*
X0101298Y0183409D01*
X0103029Y0183409D01*
X0103413Y0183794D01*
X0103798Y0183409D01*
X0103876Y0183409D01*
X0097463Y0176997D01*
X0097463Y0168497D01*
X0095666Y0166700D01*
X0094463Y0166700D01*
X0094463Y0169838D01*
X0093702Y0170600D01*
X0091054Y0173248D01*
X0091054Y0174366D01*
X0090420Y0175000D01*
X0091054Y0175634D01*
X0091054Y0177366D01*
X0089829Y0178591D01*
X0088098Y0178591D01*
X0086873Y0177366D01*
X0086873Y0176689D01*
X0084584Y0174400D01*
X0083763Y0173580D01*
X0083763Y0166780D01*
X0077684Y0160700D01*
X0075763Y0160700D01*
X0075763Y0168880D01*
X0071563Y0173080D01*
X0071563Y0188409D01*
X0072529Y0188409D01*
X0073754Y0189634D01*
X0073754Y0191366D01*
X0072529Y0192591D01*
X0070798Y0192591D01*
X0069573Y0191366D01*
X0069573Y0190389D01*
X0068763Y0189580D01*
X0068763Y0171920D01*
X0069584Y0171100D01*
X0072963Y0167720D01*
X0072963Y0160700D01*
X0072085Y0160700D01*
X0071285Y0161500D01*
X0060220Y0161500D01*
X0060854Y0162134D01*
X0060854Y0163866D01*
X0059629Y0165091D01*
X0057898Y0165091D01*
X0056673Y0163866D01*
X0056673Y0162134D01*
X0057307Y0161500D01*
X0052720Y0161500D01*
X0052954Y0161734D01*
X0052954Y0163466D01*
X0051729Y0164691D01*
X0049998Y0164691D01*
X0048773Y0163466D01*
X0048773Y0162729D01*
X0044825Y0166677D01*
X0045652Y0167503D01*
X0046188Y0168799D01*
X0046188Y0170201D01*
X0045652Y0171497D01*
X0044660Y0172488D01*
X0043365Y0173025D01*
X0041962Y0173025D01*
X0040667Y0172488D01*
X0039675Y0171497D01*
X0039138Y0170201D01*
X0039138Y0168799D01*
X0039675Y0167503D01*
X0040667Y0166512D01*
X0041771Y0166054D01*
X0042125Y0165700D01*
X0046363Y0161462D01*
X0046363Y0157638D01*
X0045900Y0158102D01*
X0046188Y0158799D01*
X0046188Y0160201D01*
X0045652Y0161497D01*
X0044660Y0162488D01*
X0043365Y0163025D01*
X0041962Y0163025D01*
X0040667Y0162488D01*
X0039675Y0161497D01*
X0039138Y0160201D01*
X0039138Y0158799D01*
X0039675Y0157503D01*
X0040667Y0156512D01*
X0041962Y0155975D01*
X0043365Y0155975D01*
X0044061Y0156264D01*
X0046363Y0153962D01*
X0046363Y0147638D01*
X0045900Y0148102D01*
X0046188Y0148799D01*
X0046188Y0150201D01*
X0045652Y0151497D01*
X0044660Y0152488D01*
X0043365Y0153025D01*
X0041962Y0153025D01*
X0040667Y0152488D01*
X0039675Y0151497D01*
X0039138Y0150201D01*
X0039138Y0148799D01*
X0039675Y0147503D01*
X0040667Y0146512D01*
X0041962Y0145975D01*
X0043365Y0145975D01*
X0044061Y0146264D01*
X0046363Y0143962D01*
X0046363Y0137638D01*
X0045900Y0138102D01*
X0046188Y0138799D01*
X0046188Y0140201D01*
X0045652Y0141497D01*
X0044660Y0142488D01*
X0043365Y0143025D01*
X0041962Y0143025D01*
X0040667Y0142488D01*
X0039675Y0141497D01*
X0039138Y0140201D01*
X0039138Y0138799D01*
X0039675Y0137503D01*
X0040667Y0136512D01*
X0041962Y0135975D01*
X0043365Y0135975D01*
X0044061Y0136264D01*
X0047863Y0132462D01*
X0047863Y0127462D01*
X0047963Y0127362D01*
X0047963Y0126497D01*
X0046463Y0124997D01*
X0046463Y0104503D01*
X0047166Y0103800D01*
X0057896Y0093071D01*
X0045848Y0081023D01*
X0045652Y0081497D01*
X0044660Y0082488D01*
X0043365Y0083025D01*
X0041962Y0083025D01*
X0040667Y0082488D01*
X0039675Y0081497D01*
X0039138Y0080201D01*
X0039138Y0078799D01*
X0039675Y0077503D01*
X0040667Y0076512D01*
X0041962Y0075975D01*
X0043365Y0075975D01*
X0044660Y0076512D01*
X0045652Y0077503D01*
X0045940Y0078200D01*
X0046363Y0078200D01*
X0046363Y0055038D01*
X0044061Y0052736D01*
X0043365Y0053025D01*
X0041962Y0053025D01*
X0040667Y0052488D01*
X0039675Y0051497D01*
X0039138Y0050201D01*
X0039138Y0048799D01*
X0039675Y0047503D01*
X0040667Y0046512D01*
X0041962Y0045975D01*
X0043365Y0045975D01*
X0044660Y0046512D01*
X0045652Y0047503D01*
X0046188Y0048799D01*
X0046188Y0050201D01*
X0045900Y0050898D01*
X0047863Y0052862D01*
X0047863Y0045038D01*
X0044987Y0042162D01*
X0044660Y0042488D01*
X0043365Y0043025D01*
X0041962Y0043025D01*
X0040667Y0042488D01*
X0039675Y0041497D01*
X0039138Y0040201D01*
X0039138Y0038799D01*
X0039675Y0037503D01*
X0040667Y0036512D01*
X0041962Y0035975D01*
X0043365Y0035975D01*
X0044660Y0036512D01*
X0045652Y0037503D01*
X0046188Y0038799D01*
X0046188Y0039687D01*
X0049363Y0042862D01*
X0049363Y0038038D01*
X0044061Y0032736D01*
X0043365Y0033025D01*
X0041962Y0033025D01*
X0040667Y0032488D01*
X0039675Y0031497D01*
X0039138Y0030201D01*
X0039138Y0028799D01*
X0039675Y0027503D01*
X0040667Y0026512D01*
X0041962Y0025975D01*
X0043365Y0025975D01*
X0044660Y0026512D01*
X0045652Y0027503D01*
X0046188Y0028799D01*
X0046188Y0030201D01*
X0045900Y0030898D01*
X0050863Y0035862D01*
X0050863Y0031038D01*
X0042850Y0023025D01*
X0041962Y0023025D01*
X0040667Y0022488D01*
X0039675Y0021497D01*
X0039138Y0020201D01*
X0039138Y0018799D01*
X0039675Y0017503D01*
X0040667Y0016512D01*
X0041962Y0015975D01*
X0043365Y0015975D01*
X0044660Y0016512D01*
X0045652Y0017503D01*
X0046188Y0018799D01*
X0046188Y0020201D01*
X0045652Y0021497D01*
X0045325Y0021823D01*
X0048073Y0024571D01*
X0048073Y0023634D01*
X0048707Y0023000D01*
X0048073Y0022366D01*
X0048073Y0020634D01*
X0049298Y0019409D01*
X0051029Y0019409D01*
X0052254Y0020634D01*
X0052254Y0022366D01*
X0051620Y0023000D01*
X0052254Y0023634D01*
X0052254Y0025366D01*
X0051029Y0026591D01*
X0050092Y0026591D01*
X0053463Y0029962D01*
X0053463Y0076962D01*
X0061702Y0085200D01*
X0070202Y0085200D01*
X0070573Y0085571D01*
X0070573Y0085134D01*
X0071798Y0083909D01*
X0073529Y0083909D01*
X0073793Y0084173D01*
X0075073Y0082894D01*
X0075073Y0082634D01*
X0076298Y0081409D01*
X0076557Y0081409D01*
X0080166Y0077800D01*
X0086661Y0077800D01*
X0087363Y0078503D01*
X0094093Y0085232D01*
X0094125Y0085200D01*
X0101863Y0077462D01*
X0101863Y0028462D01*
X0102625Y0027700D01*
X0109427Y0020898D01*
X0109138Y0020201D01*
X0109138Y0018799D01*
X0109675Y0017503D01*
X0110667Y0016512D01*
X0111962Y0015975D01*
X0113365Y0015975D01*
X0114660Y0016512D01*
X0115217Y0017069D02*
X0116363Y0017069D01*
X0116363Y0017667D02*
X0115720Y0017667D01*
X0115968Y0018266D02*
X0116363Y0018266D01*
X0116363Y0018864D02*
X0116188Y0018864D01*
X0116188Y0019463D02*
X0116363Y0019463D01*
X0116363Y0020061D02*
X0116188Y0020061D01*
X0116363Y0020660D02*
X0115998Y0020660D01*
X0115751Y0021258D02*
X0116363Y0021258D01*
X0116363Y0021857D02*
X0115292Y0021857D01*
X0114693Y0022455D02*
X0116363Y0022455D01*
X0116363Y0023054D02*
X0110948Y0023054D01*
X0110350Y0023652D02*
X0116363Y0023652D01*
X0116363Y0024251D02*
X0109751Y0024251D01*
X0109153Y0024849D02*
X0116363Y0024849D01*
X0116363Y0025448D02*
X0108554Y0025448D01*
X0107956Y0026046D02*
X0111790Y0026046D01*
X0110533Y0026645D02*
X0107357Y0026645D01*
X0106759Y0027243D02*
X0109935Y0027243D01*
X0109535Y0027842D02*
X0106160Y0027842D01*
X0105561Y0028440D02*
X0109287Y0028440D01*
X0109138Y0029039D02*
X0104963Y0029039D01*
X0104463Y0029637D02*
X0109138Y0029637D01*
X0109153Y0030236D02*
X0104463Y0030236D01*
X0104463Y0030834D02*
X0109401Y0030834D01*
X0108892Y0031433D02*
X0104463Y0031433D01*
X0104463Y0032032D02*
X0108293Y0032032D01*
X0107695Y0032630D02*
X0104463Y0032630D01*
X0104463Y0033229D02*
X0107096Y0033229D01*
X0106498Y0033827D02*
X0104463Y0033827D01*
X0104463Y0034426D02*
X0105899Y0034426D01*
X0105301Y0035024D02*
X0104463Y0035024D01*
X0104463Y0035623D02*
X0104702Y0035623D01*
X0106584Y0037418D02*
X0109760Y0037418D01*
X0109462Y0038017D02*
X0105985Y0038017D01*
X0105963Y0038615D02*
X0109215Y0038615D01*
X0109138Y0039214D02*
X0105963Y0039214D01*
X0105963Y0039812D02*
X0109138Y0039812D01*
X0109225Y0040411D02*
X0105963Y0040411D01*
X0105963Y0041009D02*
X0109316Y0041009D01*
X0108717Y0041608D02*
X0105963Y0041608D01*
X0105963Y0042206D02*
X0108119Y0042206D01*
X0107520Y0042805D02*
X0105963Y0042805D01*
X0105963Y0043403D02*
X0106922Y0043403D01*
X0106323Y0044002D02*
X0105963Y0044002D01*
X0108205Y0045797D02*
X0116363Y0045797D01*
X0116363Y0045199D02*
X0108803Y0045199D01*
X0109402Y0044600D02*
X0116363Y0044600D01*
X0116363Y0044002D02*
X0110000Y0044002D01*
X0110599Y0043403D02*
X0116363Y0043403D01*
X0116363Y0042805D02*
X0113896Y0042805D01*
X0114942Y0042206D02*
X0116363Y0042206D01*
X0116363Y0041608D02*
X0115541Y0041608D01*
X0115854Y0041009D02*
X0116363Y0041009D01*
X0116363Y0040411D02*
X0116102Y0040411D01*
X0116188Y0039812D02*
X0116363Y0039812D01*
X0116363Y0039214D02*
X0116188Y0039214D01*
X0116112Y0038615D02*
X0116363Y0038615D01*
X0116363Y0038017D02*
X0115864Y0038017D01*
X0115567Y0037418D02*
X0116363Y0037418D01*
X0116363Y0036820D02*
X0114968Y0036820D01*
X0113959Y0036221D02*
X0116363Y0036221D01*
X0116363Y0035623D02*
X0108379Y0035623D01*
X0107781Y0036221D02*
X0111368Y0036221D01*
X0110359Y0036820D02*
X0107182Y0036820D01*
X0108978Y0035024D02*
X0116363Y0035024D01*
X0116363Y0034426D02*
X0109576Y0034426D01*
X0110175Y0033827D02*
X0116363Y0033827D01*
X0116363Y0033229D02*
X0110773Y0033229D01*
X0114318Y0032630D02*
X0116363Y0032630D01*
X0116363Y0032032D02*
X0115117Y0032032D01*
X0115678Y0031433D02*
X0116363Y0031433D01*
X0116363Y0030834D02*
X0115926Y0030834D01*
X0116174Y0030236D02*
X0116363Y0030236D01*
X0116363Y0029637D02*
X0116188Y0029637D01*
X0116188Y0029039D02*
X0116363Y0029039D01*
X0116363Y0028440D02*
X0116040Y0028440D01*
X0115792Y0027842D02*
X0116363Y0027842D01*
X0116363Y0027243D02*
X0115392Y0027243D01*
X0114793Y0026645D02*
X0116363Y0026645D01*
X0116363Y0026046D02*
X0113537Y0026046D01*
X0108468Y0021857D02*
X0052254Y0021857D01*
X0052254Y0021258D02*
X0109067Y0021258D01*
X0109328Y0020660D02*
X0052254Y0020660D01*
X0051681Y0020061D02*
X0109138Y0020061D01*
X0109138Y0019463D02*
X0051083Y0019463D01*
X0049244Y0019463D02*
X0046188Y0019463D01*
X0046188Y0020061D02*
X0048646Y0020061D01*
X0048073Y0020660D02*
X0045998Y0020660D01*
X0045751Y0021258D02*
X0048073Y0021258D01*
X0048073Y0021857D02*
X0045359Y0021857D01*
X0045957Y0022455D02*
X0048162Y0022455D01*
X0048653Y0023054D02*
X0046556Y0023054D01*
X0047154Y0023652D02*
X0048073Y0023652D01*
X0048073Y0024251D02*
X0047753Y0024251D01*
X0045871Y0026046D02*
X0043537Y0026046D01*
X0044793Y0026645D02*
X0046470Y0026645D01*
X0047068Y0027243D02*
X0045392Y0027243D01*
X0045792Y0027842D02*
X0047667Y0027842D01*
X0048265Y0028440D02*
X0046040Y0028440D01*
X0046188Y0029039D02*
X0048864Y0029039D01*
X0049462Y0029637D02*
X0046188Y0029637D01*
X0046174Y0030236D02*
X0050061Y0030236D01*
X0050659Y0030834D02*
X0045926Y0030834D01*
X0046435Y0031433D02*
X0050863Y0031433D01*
X0050863Y0032032D02*
X0047033Y0032032D01*
X0047632Y0032630D02*
X0050863Y0032630D01*
X0050863Y0033229D02*
X0048230Y0033229D01*
X0048829Y0033827D02*
X0050863Y0033827D01*
X0050863Y0034426D02*
X0049427Y0034426D01*
X0050026Y0035024D02*
X0050863Y0035024D01*
X0050863Y0035623D02*
X0050625Y0035623D01*
X0048743Y0037418D02*
X0045567Y0037418D01*
X0045864Y0038017D02*
X0049342Y0038017D01*
X0049363Y0038615D02*
X0046112Y0038615D01*
X0046188Y0039214D02*
X0049363Y0039214D01*
X0049363Y0039812D02*
X0046314Y0039812D01*
X0046913Y0040411D02*
X0049363Y0040411D01*
X0049363Y0041009D02*
X0047511Y0041009D01*
X0048110Y0041608D02*
X0049363Y0041608D01*
X0049363Y0042206D02*
X0048708Y0042206D01*
X0049307Y0042805D02*
X0049363Y0042805D01*
X0047425Y0044600D02*
X0038963Y0044600D01*
X0038963Y0044002D02*
X0046827Y0044002D01*
X0046228Y0043403D02*
X0038963Y0043403D01*
X0038963Y0042805D02*
X0041431Y0042805D01*
X0040385Y0042206D02*
X0038963Y0042206D01*
X0038963Y0041608D02*
X0039786Y0041608D01*
X0039473Y0041009D02*
X0038963Y0041009D01*
X0038963Y0040411D02*
X0039225Y0040411D01*
X0039138Y0039812D02*
X0038963Y0039812D01*
X0038963Y0039214D02*
X0039138Y0039214D01*
X0039215Y0038615D02*
X0038963Y0038615D01*
X0038963Y0038017D02*
X0039462Y0038017D01*
X0039760Y0037418D02*
X0038963Y0037418D01*
X0038963Y0036820D02*
X0040359Y0036820D01*
X0041368Y0036221D02*
X0038963Y0036221D01*
X0038963Y0035623D02*
X0046948Y0035623D01*
X0047546Y0036221D02*
X0043959Y0036221D01*
X0044968Y0036820D02*
X0048145Y0036820D01*
X0046349Y0035024D02*
X0038963Y0035024D01*
X0038963Y0034426D02*
X0045751Y0034426D01*
X0045152Y0033827D02*
X0038963Y0033827D01*
X0038963Y0033229D02*
X0044554Y0033229D01*
X0041009Y0032630D02*
X0038963Y0032630D01*
X0038963Y0032032D02*
X0040210Y0032032D01*
X0039649Y0031433D02*
X0038963Y0031433D01*
X0038963Y0030834D02*
X0039401Y0030834D01*
X0039153Y0030236D02*
X0038963Y0030236D01*
X0038963Y0029637D02*
X0039138Y0029637D01*
X0039138Y0029039D02*
X0038963Y0029039D01*
X0038963Y0028440D02*
X0039287Y0028440D01*
X0039535Y0027842D02*
X0038963Y0027842D01*
X0038963Y0027243D02*
X0039935Y0027243D01*
X0040533Y0026645D02*
X0038963Y0026645D01*
X0038963Y0026046D02*
X0041790Y0026046D01*
X0038963Y0025448D02*
X0045273Y0025448D01*
X0044674Y0024849D02*
X0038963Y0024849D01*
X0038963Y0024251D02*
X0044076Y0024251D01*
X0043477Y0023652D02*
X0038963Y0023652D01*
X0038963Y0023054D02*
X0042879Y0023054D01*
X0040634Y0022455D02*
X0038963Y0022455D01*
X0038963Y0021857D02*
X0040035Y0021857D01*
X0039576Y0021258D02*
X0038963Y0021258D01*
X0038963Y0020660D02*
X0039328Y0020660D01*
X0039138Y0020061D02*
X0038963Y0020061D01*
X0038963Y0019463D02*
X0039138Y0019463D01*
X0039138Y0018864D02*
X0038963Y0018864D01*
X0038963Y0018266D02*
X0039359Y0018266D01*
X0039607Y0017667D02*
X0038963Y0017667D01*
X0038963Y0017069D02*
X0040110Y0017069D01*
X0040767Y0016470D02*
X0038963Y0016470D01*
X0038963Y0015872D02*
X0099316Y0015872D01*
X0099118Y0015273D02*
X0038963Y0015273D01*
X0044560Y0016470D02*
X0099620Y0016470D01*
X0100218Y0017069D02*
X0045217Y0017069D01*
X0045720Y0017667D02*
X0109607Y0017667D01*
X0109359Y0018266D02*
X0045968Y0018266D01*
X0046188Y0018864D02*
X0109138Y0018864D01*
X0110110Y0017069D02*
X0103360Y0017069D01*
X0103959Y0016470D02*
X0110767Y0016470D01*
X0114801Y0011682D02*
X0040526Y0011682D01*
X0040825Y0011084D02*
X0114502Y0011084D01*
X0114203Y0010485D02*
X0100135Y0010485D01*
X0100029Y0010591D02*
X0098298Y0010591D01*
X0097073Y0009366D01*
X0097073Y0007634D01*
X0098298Y0006409D01*
X0100029Y0006409D01*
X0101254Y0007634D01*
X0101254Y0009366D01*
X0100029Y0010591D01*
X0100733Y0009887D02*
X0113903Y0009887D01*
X0113604Y0009288D02*
X0101254Y0009288D01*
X0101254Y0008690D02*
X0113305Y0008690D01*
X0113006Y0008091D02*
X0101254Y0008091D01*
X0101113Y0007493D02*
X0112706Y0007493D01*
X0112407Y0006894D02*
X0100514Y0006894D01*
X0097813Y0006894D02*
X0090514Y0006894D01*
X0090029Y0006409D02*
X0091254Y0007634D01*
X0091254Y0009366D01*
X0090029Y0010591D01*
X0088298Y0010591D01*
X0087073Y0009366D01*
X0087073Y0007634D01*
X0088298Y0006409D01*
X0090029Y0006409D01*
X0091113Y0007493D02*
X0097214Y0007493D01*
X0097073Y0008091D02*
X0091254Y0008091D01*
X0091254Y0008690D02*
X0097073Y0008690D01*
X0097073Y0009288D02*
X0091254Y0009288D01*
X0090733Y0009887D02*
X0097594Y0009887D01*
X0098192Y0010485D02*
X0090135Y0010485D01*
X0088192Y0010485D02*
X0080135Y0010485D01*
X0080029Y0010591D02*
X0078298Y0010591D01*
X0077073Y0009366D01*
X0077073Y0007634D01*
X0078298Y0006409D01*
X0080029Y0006409D01*
X0081254Y0007634D01*
X0081254Y0009366D01*
X0080029Y0010591D01*
X0080733Y0009887D02*
X0087594Y0009887D01*
X0087073Y0009288D02*
X0081254Y0009288D01*
X0081254Y0008690D02*
X0087073Y0008690D01*
X0087073Y0008091D02*
X0081254Y0008091D01*
X0081113Y0007493D02*
X0087214Y0007493D01*
X0087813Y0006894D02*
X0080514Y0006894D01*
X0077813Y0006894D02*
X0042920Y0006894D01*
X0043219Y0006296D02*
X0112108Y0006296D01*
X0078192Y0010485D02*
X0041124Y0010485D01*
X0041424Y0009887D02*
X0077594Y0009887D01*
X0077073Y0009288D02*
X0041723Y0009288D01*
X0042022Y0008690D02*
X0077073Y0008690D01*
X0077073Y0008091D02*
X0042321Y0008091D01*
X0042621Y0007493D02*
X0077214Y0007493D01*
X0052165Y0022455D02*
X0107870Y0022455D01*
X0107271Y0023054D02*
X0051674Y0023054D01*
X0052254Y0023652D02*
X0106673Y0023652D01*
X0106074Y0024251D02*
X0052254Y0024251D01*
X0052254Y0024849D02*
X0105476Y0024849D01*
X0104877Y0025448D02*
X0052172Y0025448D01*
X0051574Y0026046D02*
X0104279Y0026046D01*
X0103680Y0026645D02*
X0050147Y0026645D01*
X0050745Y0027243D02*
X0103082Y0027243D01*
X0102483Y0027842D02*
X0051344Y0027842D01*
X0051942Y0028440D02*
X0101885Y0028440D01*
X0101863Y0029039D02*
X0052541Y0029039D01*
X0053139Y0029637D02*
X0101863Y0029637D01*
X0101863Y0030236D02*
X0053463Y0030236D01*
X0053463Y0030834D02*
X0101863Y0030834D01*
X0101863Y0031433D02*
X0053463Y0031433D01*
X0053463Y0032032D02*
X0101863Y0032032D01*
X0101863Y0032630D02*
X0053463Y0032630D01*
X0053463Y0033229D02*
X0101863Y0033229D01*
X0101863Y0033827D02*
X0053463Y0033827D01*
X0053463Y0034426D02*
X0101863Y0034426D01*
X0101863Y0035024D02*
X0053463Y0035024D01*
X0053463Y0035623D02*
X0101863Y0035623D01*
X0101863Y0036221D02*
X0053463Y0036221D01*
X0053463Y0036820D02*
X0101863Y0036820D01*
X0101863Y0037418D02*
X0053463Y0037418D01*
X0053463Y0038017D02*
X0101863Y0038017D01*
X0101863Y0038615D02*
X0053463Y0038615D01*
X0053463Y0039214D02*
X0101863Y0039214D01*
X0101863Y0039812D02*
X0053463Y0039812D01*
X0053463Y0040411D02*
X0101863Y0040411D01*
X0101863Y0041009D02*
X0053463Y0041009D01*
X0053463Y0041608D02*
X0101863Y0041608D01*
X0101863Y0042206D02*
X0078326Y0042206D01*
X0078029Y0041909D02*
X0079254Y0043134D01*
X0079254Y0044866D01*
X0078029Y0046091D01*
X0076298Y0046091D01*
X0075073Y0044866D01*
X0075073Y0043134D01*
X0076298Y0041909D01*
X0078029Y0041909D01*
X0078925Y0042805D02*
X0101863Y0042805D01*
X0101863Y0043403D02*
X0079254Y0043403D01*
X0079254Y0044002D02*
X0101863Y0044002D01*
X0101863Y0044600D02*
X0079254Y0044600D01*
X0078921Y0045199D02*
X0101863Y0045199D01*
X0101863Y0045797D02*
X0078323Y0045797D01*
X0078798Y0045909D02*
X0080529Y0045909D01*
X0081754Y0047134D01*
X0081754Y0048866D01*
X0080529Y0050091D01*
X0078798Y0050091D01*
X0077573Y0048866D01*
X0077573Y0047134D01*
X0078798Y0045909D01*
X0078311Y0046396D02*
X0068435Y0046396D01*
X0068634Y0046595D02*
X0068130Y0046091D01*
X0068529Y0046091D01*
X0069754Y0044866D01*
X0069754Y0043134D01*
X0068529Y0041909D01*
X0066798Y0041909D01*
X0065573Y0043134D01*
X0065573Y0044866D01*
X0065968Y0045261D01*
X0065413Y0045261D01*
X0064078Y0046595D01*
X0064078Y0048482D01*
X0065413Y0049817D01*
X0067300Y0049817D01*
X0068634Y0048482D01*
X0068634Y0046595D01*
X0068634Y0046994D02*
X0077713Y0046994D01*
X0077573Y0047593D02*
X0068634Y0047593D01*
X0068634Y0048191D02*
X0077573Y0048191D01*
X0077573Y0048790D02*
X0068327Y0048790D01*
X0067728Y0049388D02*
X0078095Y0049388D01*
X0078694Y0049987D02*
X0053463Y0049987D01*
X0053463Y0050585D02*
X0101863Y0050585D01*
X0101863Y0049987D02*
X0080633Y0049987D01*
X0081232Y0049388D02*
X0101863Y0049388D01*
X0101863Y0048790D02*
X0081754Y0048790D01*
X0081754Y0048191D02*
X0101863Y0048191D01*
X0101863Y0047593D02*
X0081754Y0047593D01*
X0081614Y0046994D02*
X0101863Y0046994D01*
X0101863Y0046396D02*
X0081016Y0046396D01*
X0076004Y0045797D02*
X0073323Y0045797D01*
X0073029Y0046091D02*
X0071298Y0046091D01*
X0070073Y0044866D01*
X0070073Y0043134D01*
X0071298Y0041909D01*
X0073029Y0041909D01*
X0074254Y0043134D01*
X0074254Y0044866D01*
X0073029Y0046091D01*
X0073921Y0045199D02*
X0075406Y0045199D01*
X0075073Y0044600D02*
X0074254Y0044600D01*
X0074254Y0044002D02*
X0075073Y0044002D01*
X0075073Y0043403D02*
X0074254Y0043403D01*
X0073925Y0042805D02*
X0075402Y0042805D01*
X0076001Y0042206D02*
X0073326Y0042206D01*
X0071001Y0042206D02*
X0068826Y0042206D01*
X0069425Y0042805D02*
X0070402Y0042805D01*
X0070073Y0043403D02*
X0069754Y0043403D01*
X0069754Y0044002D02*
X0070073Y0044002D01*
X0070073Y0044600D02*
X0069754Y0044600D01*
X0069421Y0045199D02*
X0070406Y0045199D01*
X0071004Y0045797D02*
X0068823Y0045797D01*
X0065906Y0045199D02*
X0053463Y0045199D01*
X0053463Y0045797D02*
X0064876Y0045797D01*
X0064278Y0046396D02*
X0053463Y0046396D01*
X0053463Y0046994D02*
X0064078Y0046994D01*
X0064078Y0047593D02*
X0053463Y0047593D01*
X0053463Y0048191D02*
X0064078Y0048191D01*
X0064386Y0048790D02*
X0053463Y0048790D01*
X0053463Y0049388D02*
X0064985Y0049388D01*
X0065573Y0044600D02*
X0053463Y0044600D01*
X0053463Y0044002D02*
X0065573Y0044002D01*
X0065573Y0043403D02*
X0053463Y0043403D01*
X0053463Y0042805D02*
X0065902Y0042805D01*
X0066501Y0042206D02*
X0053463Y0042206D01*
X0045630Y0042805D02*
X0043896Y0042805D01*
X0044942Y0042206D02*
X0045031Y0042206D01*
X0047863Y0045199D02*
X0038963Y0045199D01*
X0038963Y0045797D02*
X0047863Y0045797D01*
X0047863Y0046396D02*
X0044380Y0046396D01*
X0045143Y0046994D02*
X0047863Y0046994D01*
X0047863Y0047593D02*
X0045689Y0047593D01*
X0045937Y0048191D02*
X0047863Y0048191D01*
X0047863Y0048790D02*
X0046185Y0048790D01*
X0046188Y0049388D02*
X0047863Y0049388D01*
X0047863Y0049987D02*
X0046188Y0049987D01*
X0046029Y0050585D02*
X0047863Y0050585D01*
X0047863Y0051184D02*
X0046186Y0051184D01*
X0046784Y0051782D02*
X0047863Y0051782D01*
X0047863Y0052381D02*
X0047383Y0052381D01*
X0045501Y0054176D02*
X0038963Y0054176D01*
X0038963Y0053578D02*
X0044903Y0053578D01*
X0044304Y0052979D02*
X0043475Y0052979D01*
X0041852Y0052979D02*
X0038963Y0052979D01*
X0038963Y0052381D02*
X0040559Y0052381D01*
X0039961Y0051782D02*
X0038963Y0051782D01*
X0038963Y0051184D02*
X0039546Y0051184D01*
X0039298Y0050585D02*
X0038963Y0050585D01*
X0038963Y0049987D02*
X0039138Y0049987D01*
X0039138Y0049388D02*
X0038963Y0049388D01*
X0038963Y0048790D02*
X0039142Y0048790D01*
X0038963Y0048191D02*
X0039390Y0048191D01*
X0039638Y0047593D02*
X0038963Y0047593D01*
X0038963Y0046994D02*
X0040184Y0046994D01*
X0040946Y0046396D02*
X0038963Y0046396D01*
X0053463Y0051184D02*
X0101863Y0051184D01*
X0101863Y0051782D02*
X0053463Y0051782D01*
X0053463Y0052381D02*
X0101863Y0052381D01*
X0101863Y0052979D02*
X0053463Y0052979D01*
X0053463Y0053578D02*
X0101863Y0053578D01*
X0101863Y0054176D02*
X0053463Y0054176D01*
X0053463Y0054775D02*
X0101863Y0054775D01*
X0101863Y0055373D02*
X0053463Y0055373D01*
X0053463Y0055972D02*
X0101863Y0055972D01*
X0101863Y0056570D02*
X0053463Y0056570D01*
X0053463Y0057169D02*
X0101863Y0057169D01*
X0101863Y0057768D02*
X0053463Y0057768D01*
X0053463Y0058366D02*
X0101863Y0058366D01*
X0101863Y0058965D02*
X0053463Y0058965D01*
X0053463Y0059563D02*
X0101863Y0059563D01*
X0101863Y0060162D02*
X0053463Y0060162D01*
X0053463Y0060760D02*
X0101863Y0060760D01*
X0101863Y0061359D02*
X0089479Y0061359D01*
X0089029Y0060909D02*
X0090254Y0062134D01*
X0090254Y0063866D01*
X0089029Y0065091D01*
X0087298Y0065091D01*
X0086073Y0063866D01*
X0086073Y0062134D01*
X0087298Y0060909D01*
X0089029Y0060909D01*
X0090077Y0061957D02*
X0101863Y0061957D01*
X0101863Y0062556D02*
X0096176Y0062556D01*
X0096029Y0062409D02*
X0097254Y0063634D01*
X0097254Y0065366D01*
X0096029Y0066591D01*
X0094298Y0066591D01*
X0093073Y0065366D01*
X0093073Y0063634D01*
X0094298Y0062409D01*
X0096029Y0062409D01*
X0096774Y0063154D02*
X0098553Y0063154D01*
X0098798Y0062909D02*
X0100529Y0062909D01*
X0101754Y0064134D01*
X0101754Y0065866D01*
X0100529Y0067091D01*
X0098798Y0067091D01*
X0097573Y0065866D01*
X0097573Y0064134D01*
X0098798Y0062909D01*
X0097954Y0063753D02*
X0097254Y0063753D01*
X0097254Y0064351D02*
X0097573Y0064351D01*
X0097573Y0064950D02*
X0097254Y0064950D01*
X0097072Y0065548D02*
X0097573Y0065548D01*
X0097854Y0066147D02*
X0096473Y0066147D01*
X0096029Y0067909D02*
X0094298Y0067909D01*
X0093073Y0069134D01*
X0093073Y0070866D01*
X0094298Y0072091D01*
X0096029Y0072091D01*
X0097254Y0070866D01*
X0097254Y0069134D01*
X0096029Y0067909D01*
X0096062Y0067942D02*
X0101863Y0067942D01*
X0101863Y0067344D02*
X0053463Y0067344D01*
X0053463Y0067942D02*
X0089265Y0067942D01*
X0089298Y0067909D02*
X0091029Y0067909D01*
X0092254Y0069134D01*
X0092254Y0070866D01*
X0091029Y0072091D01*
X0089298Y0072091D01*
X0088073Y0070866D01*
X0088073Y0069134D01*
X0089298Y0067909D01*
X0088666Y0068541D02*
X0053463Y0068541D01*
X0053463Y0069139D02*
X0088073Y0069139D01*
X0088073Y0069738D02*
X0053463Y0069738D01*
X0053463Y0070336D02*
X0088073Y0070336D01*
X0088142Y0070935D02*
X0053463Y0070935D01*
X0053463Y0071533D02*
X0088740Y0071533D01*
X0091587Y0071533D02*
X0093740Y0071533D01*
X0093142Y0070935D02*
X0092185Y0070935D01*
X0092254Y0070336D02*
X0093073Y0070336D01*
X0093073Y0069738D02*
X0092254Y0069738D01*
X0092254Y0069139D02*
X0093073Y0069139D01*
X0093666Y0068541D02*
X0091661Y0068541D01*
X0091062Y0067942D02*
X0094265Y0067942D01*
X0093854Y0066147D02*
X0053463Y0066147D01*
X0053463Y0066745D02*
X0098452Y0066745D01*
X0100875Y0066745D02*
X0101863Y0066745D01*
X0101863Y0066147D02*
X0101473Y0066147D01*
X0101754Y0065548D02*
X0101863Y0065548D01*
X0101863Y0064950D02*
X0101754Y0064950D01*
X0101754Y0064351D02*
X0101863Y0064351D01*
X0101863Y0063753D02*
X0101373Y0063753D01*
X0101863Y0063154D02*
X0100774Y0063154D01*
X0101863Y0068541D02*
X0096661Y0068541D01*
X0097254Y0069139D02*
X0101863Y0069139D01*
X0101863Y0069738D02*
X0097254Y0069738D01*
X0097254Y0070336D02*
X0101863Y0070336D01*
X0101863Y0070935D02*
X0097185Y0070935D01*
X0096587Y0071533D02*
X0101863Y0071533D01*
X0101863Y0072132D02*
X0053463Y0072132D01*
X0053463Y0072730D02*
X0101863Y0072730D01*
X0101863Y0073329D02*
X0096449Y0073329D01*
X0096029Y0072909D02*
X0097254Y0074134D01*
X0097254Y0075866D01*
X0096029Y0077091D01*
X0094298Y0077091D01*
X0093073Y0075866D01*
X0093073Y0074134D01*
X0094298Y0072909D01*
X0096029Y0072909D01*
X0097047Y0073927D02*
X0101863Y0073927D01*
X0101863Y0074526D02*
X0097254Y0074526D01*
X0097254Y0075124D02*
X0101863Y0075124D01*
X0101863Y0075723D02*
X0097254Y0075723D01*
X0096799Y0076321D02*
X0101863Y0076321D01*
X0101863Y0076920D02*
X0096200Y0076920D01*
X0094127Y0076920D02*
X0053463Y0076920D01*
X0053463Y0076321D02*
X0093528Y0076321D01*
X0093073Y0075723D02*
X0053463Y0075723D01*
X0053463Y0075124D02*
X0093073Y0075124D01*
X0093073Y0074526D02*
X0053463Y0074526D01*
X0053463Y0073927D02*
X0093280Y0073927D01*
X0093878Y0073329D02*
X0053463Y0073329D01*
X0046363Y0073329D02*
X0038963Y0073329D01*
X0038963Y0073927D02*
X0046363Y0073927D01*
X0046363Y0074526D02*
X0038963Y0074526D01*
X0038963Y0075124D02*
X0046363Y0075124D01*
X0046363Y0075723D02*
X0038963Y0075723D01*
X0038963Y0076321D02*
X0041126Y0076321D01*
X0040259Y0076920D02*
X0038963Y0076920D01*
X0038963Y0077518D02*
X0039669Y0077518D01*
X0039421Y0078117D02*
X0038963Y0078117D01*
X0038963Y0078715D02*
X0039173Y0078715D01*
X0039138Y0079314D02*
X0038963Y0079314D01*
X0038963Y0079912D02*
X0039138Y0079912D01*
X0039267Y0080511D02*
X0038963Y0080511D01*
X0038963Y0081109D02*
X0039515Y0081109D01*
X0039886Y0081708D02*
X0038963Y0081708D01*
X0038963Y0082306D02*
X0040485Y0082306D01*
X0041673Y0082905D02*
X0038963Y0082905D01*
X0038963Y0083503D02*
X0048329Y0083503D01*
X0047730Y0082905D02*
X0043654Y0082905D01*
X0044842Y0082306D02*
X0047131Y0082306D01*
X0046533Y0081708D02*
X0045441Y0081708D01*
X0045812Y0081109D02*
X0045934Y0081109D01*
X0045906Y0078117D02*
X0046363Y0078117D01*
X0046363Y0077518D02*
X0045658Y0077518D01*
X0045068Y0076920D02*
X0046363Y0076920D01*
X0046363Y0076321D02*
X0044201Y0076321D01*
X0043365Y0073025D02*
X0041962Y0073025D01*
X0040667Y0072488D01*
X0039675Y0071497D01*
X0039138Y0070201D01*
X0039138Y0068799D01*
X0039675Y0067503D01*
X0040667Y0066512D01*
X0041962Y0065975D01*
X0043365Y0065975D01*
X0044660Y0066512D01*
X0045652Y0067503D01*
X0046188Y0068799D01*
X0046188Y0070201D01*
X0045652Y0071497D01*
X0044660Y0072488D01*
X0043365Y0073025D01*
X0044076Y0072730D02*
X0046363Y0072730D01*
X0046363Y0072132D02*
X0045017Y0072132D01*
X0045615Y0071533D02*
X0046363Y0071533D01*
X0046363Y0070935D02*
X0045885Y0070935D01*
X0046133Y0070336D02*
X0046363Y0070336D01*
X0046363Y0069738D02*
X0046188Y0069738D01*
X0046188Y0069139D02*
X0046363Y0069139D01*
X0046363Y0068541D02*
X0046082Y0068541D01*
X0045834Y0067942D02*
X0046363Y0067942D01*
X0046363Y0067344D02*
X0045492Y0067344D01*
X0044894Y0066745D02*
X0046363Y0066745D01*
X0046363Y0066147D02*
X0043779Y0066147D01*
X0041548Y0066147D02*
X0038963Y0066147D01*
X0038963Y0066745D02*
X0040433Y0066745D01*
X0039835Y0067344D02*
X0038963Y0067344D01*
X0038963Y0067942D02*
X0039493Y0067942D01*
X0039245Y0068541D02*
X0038963Y0068541D01*
X0038963Y0069139D02*
X0039138Y0069139D01*
X0039138Y0069738D02*
X0038963Y0069738D01*
X0038963Y0070336D02*
X0039194Y0070336D01*
X0038963Y0070935D02*
X0039442Y0070935D01*
X0039712Y0071533D02*
X0038963Y0071533D01*
X0038963Y0072132D02*
X0040310Y0072132D01*
X0041251Y0072730D02*
X0038963Y0072730D01*
X0038963Y0065548D02*
X0046363Y0065548D01*
X0046363Y0064950D02*
X0038963Y0064950D01*
X0038963Y0064351D02*
X0046363Y0064351D01*
X0046363Y0063753D02*
X0038963Y0063753D01*
X0038963Y0063154D02*
X0046363Y0063154D01*
X0046363Y0062556D02*
X0044498Y0062556D01*
X0044660Y0062488D02*
X0043365Y0063025D01*
X0041962Y0063025D01*
X0040667Y0062488D01*
X0039675Y0061497D01*
X0039138Y0060201D01*
X0039138Y0058799D01*
X0039675Y0057503D01*
X0040667Y0056512D01*
X0041962Y0055975D01*
X0043365Y0055975D01*
X0044660Y0056512D01*
X0045652Y0057503D01*
X0046188Y0058799D01*
X0046188Y0060201D01*
X0045652Y0061497D01*
X0044660Y0062488D01*
X0045191Y0061957D02*
X0046363Y0061957D01*
X0046363Y0061359D02*
X0045709Y0061359D01*
X0045957Y0060760D02*
X0046363Y0060760D01*
X0046363Y0060162D02*
X0046188Y0060162D01*
X0046188Y0059563D02*
X0046363Y0059563D01*
X0046363Y0058965D02*
X0046188Y0058965D01*
X0046363Y0058366D02*
X0046009Y0058366D01*
X0045761Y0057768D02*
X0046363Y0057768D01*
X0046363Y0057169D02*
X0045318Y0057169D01*
X0044719Y0056570D02*
X0046363Y0056570D01*
X0046363Y0055972D02*
X0038963Y0055972D01*
X0038963Y0056570D02*
X0040608Y0056570D01*
X0040009Y0057169D02*
X0038963Y0057169D01*
X0038963Y0057768D02*
X0039566Y0057768D01*
X0039318Y0058366D02*
X0038963Y0058366D01*
X0038963Y0058965D02*
X0039138Y0058965D01*
X0039138Y0059563D02*
X0038963Y0059563D01*
X0038963Y0060162D02*
X0039138Y0060162D01*
X0038963Y0060760D02*
X0039370Y0060760D01*
X0039618Y0061359D02*
X0038963Y0061359D01*
X0038963Y0061957D02*
X0040135Y0061957D01*
X0040829Y0062556D02*
X0038963Y0062556D01*
X0053463Y0062556D02*
X0086073Y0062556D01*
X0086073Y0063154D02*
X0053463Y0063154D01*
X0053463Y0063753D02*
X0086073Y0063753D01*
X0086558Y0064351D02*
X0053463Y0064351D01*
X0053463Y0064950D02*
X0087157Y0064950D01*
X0089170Y0064950D02*
X0093073Y0064950D01*
X0093073Y0064351D02*
X0089769Y0064351D01*
X0090254Y0063753D02*
X0093073Y0063753D01*
X0093553Y0063154D02*
X0090254Y0063154D01*
X0090254Y0062556D02*
X0094151Y0062556D01*
X0093255Y0065548D02*
X0053463Y0065548D01*
X0053463Y0061957D02*
X0086250Y0061957D01*
X0086848Y0061359D02*
X0053463Y0061359D01*
X0046363Y0055373D02*
X0038963Y0055373D01*
X0038963Y0054775D02*
X0046100Y0054775D01*
X0054020Y0077518D02*
X0101807Y0077518D01*
X0101208Y0078117D02*
X0086977Y0078117D01*
X0087576Y0078715D02*
X0100610Y0078715D01*
X0100011Y0079314D02*
X0088174Y0079314D01*
X0088773Y0079912D02*
X0099413Y0079912D01*
X0098814Y0080511D02*
X0089371Y0080511D01*
X0089970Y0081109D02*
X0098216Y0081109D01*
X0097617Y0081708D02*
X0090568Y0081708D01*
X0091167Y0082306D02*
X0097019Y0082306D01*
X0096420Y0082905D02*
X0091765Y0082905D01*
X0092364Y0083503D02*
X0095821Y0083503D01*
X0095223Y0084102D02*
X0092963Y0084102D01*
X0093561Y0084701D02*
X0094624Y0084701D01*
X0093363Y0086200D02*
X0086163Y0079000D01*
X0080663Y0079000D01*
X0078142Y0081522D01*
X0079254Y0082634D01*
X0079254Y0084366D01*
X0078029Y0085591D01*
X0077710Y0085591D01*
X0077754Y0085634D01*
X0077754Y0087366D01*
X0076529Y0088591D01*
X0074798Y0088591D01*
X0073913Y0087706D01*
X0073529Y0088091D01*
X0073092Y0088091D01*
X0077963Y0092962D01*
X0077963Y0107409D01*
X0078329Y0107409D01*
X0079554Y0108634D01*
X0079554Y0110366D01*
X0078770Y0111150D01*
X0079754Y0112134D01*
X0079754Y0113866D01*
X0078529Y0115091D01*
X0076798Y0115091D01*
X0075573Y0113866D01*
X0075573Y0112748D01*
X0074963Y0112138D01*
X0074963Y0122544D01*
X0075298Y0122209D01*
X0077029Y0122209D01*
X0078254Y0123434D01*
X0078254Y0125166D01*
X0077520Y0125900D01*
X0078007Y0125900D01*
X0078798Y0125109D01*
X0080529Y0125109D01*
X0081754Y0126334D01*
X0081754Y0128066D01*
X0080529Y0129291D01*
X0078798Y0129291D01*
X0078007Y0128500D01*
X0074825Y0128500D01*
X0072363Y0126038D01*
X0072363Y0112738D01*
X0071454Y0113648D01*
X0071454Y0114766D01*
X0070229Y0115991D01*
X0068498Y0115991D01*
X0067963Y0115456D01*
X0067963Y0130538D01*
X0062963Y0135538D01*
X0062202Y0136300D01*
X0060320Y0136300D01*
X0060120Y0136500D01*
X0060754Y0137134D01*
X0060754Y0138866D01*
X0059529Y0140091D01*
X0057798Y0140091D01*
X0056573Y0138866D01*
X0056573Y0137134D01*
X0057207Y0136500D01*
X0056573Y0135866D01*
X0056573Y0134134D01*
X0057798Y0132909D01*
X0058573Y0132909D01*
X0058573Y0132248D01*
X0058363Y0132038D01*
X0058363Y0127962D01*
X0059125Y0127200D01*
X0062363Y0123962D01*
X0062363Y0115256D01*
X0062029Y0115591D01*
X0060298Y0115591D01*
X0060104Y0115397D01*
X0058963Y0116538D01*
X0058963Y0126038D01*
X0054963Y0130038D01*
X0054963Y0135038D01*
X0054202Y0135800D01*
X0051963Y0138038D01*
X0051963Y0146038D01*
X0051202Y0146800D01*
X0050463Y0147538D01*
X0050463Y0155538D01*
X0049702Y0156300D01*
X0049163Y0156838D01*
X0049163Y0158000D01*
X0049535Y0158372D01*
X0049998Y0157909D01*
X0051729Y0157909D01*
X0052320Y0158500D01*
X0057207Y0158500D01*
X0056673Y0157966D01*
X0056673Y0156234D01*
X0057898Y0155009D01*
X0059629Y0155009D01*
X0060854Y0156234D01*
X0060854Y0157966D01*
X0060320Y0158500D01*
X0070042Y0158500D01*
X0070163Y0158379D01*
X0070163Y0156879D01*
X0070952Y0156091D01*
X0070798Y0156091D01*
X0069573Y0154866D01*
X0069573Y0153134D01*
X0070798Y0151909D01*
X0071773Y0151909D01*
X0071773Y0151191D01*
X0070998Y0151191D01*
X0069773Y0149966D01*
X0069773Y0148234D01*
X0070998Y0147009D01*
X0072729Y0147009D01*
X0073954Y0148234D01*
X0073954Y0149609D01*
X0074673Y0149609D01*
X0074673Y0149534D01*
X0075898Y0148309D01*
X0077629Y0148309D01*
X0078854Y0149534D01*
X0078854Y0151266D01*
X0078470Y0151650D01*
X0079454Y0152634D01*
X0079454Y0153909D01*
X0080029Y0153909D01*
X0080313Y0154194D01*
X0081298Y0153209D01*
X0083029Y0153209D01*
X0084254Y0154434D01*
X0084254Y0156166D01*
X0083220Y0157200D01*
X0083354Y0157334D01*
X0083354Y0159066D01*
X0082129Y0160291D01*
X0081234Y0160291D01*
X0085743Y0164800D01*
X0085863Y0164920D01*
X0085863Y0156191D01*
X0085698Y0156191D01*
X0084473Y0154966D01*
X0084473Y0153234D01*
X0085698Y0152009D01*
X0087429Y0152009D01*
X0087563Y0152144D01*
X0087563Y0144262D01*
X0088325Y0143500D01*
X0092363Y0139462D01*
X0092363Y0139038D01*
X0088863Y0135538D01*
X0088863Y0132256D01*
X0088773Y0132166D01*
X0088773Y0130434D01*
X0089998Y0129209D01*
X0090573Y0129209D01*
X0090573Y0127634D01*
X0091798Y0126409D01*
X0093529Y0126409D01*
X0094754Y0127634D01*
X0094754Y0129209D01*
X0095229Y0129209D01*
X0096454Y0130434D01*
X0096454Y0131552D01*
X0096463Y0131562D01*
X0096463Y0131744D01*
X0096798Y0131409D01*
X0098529Y0131409D01*
X0099754Y0132634D01*
X0099754Y0134366D01*
X0098963Y0135156D01*
X0098963Y0140538D01*
X0098202Y0141300D01*
X0093163Y0146338D01*
X0093163Y0152544D01*
X0093298Y0152409D01*
X0095029Y0152409D01*
X0096254Y0153634D01*
X0096254Y0154909D01*
X0097029Y0154909D01*
X0098254Y0156134D01*
X0098254Y0157866D01*
X0097029Y0159091D01*
X0095298Y0159091D01*
X0095013Y0158806D01*
X0094029Y0159791D01*
X0092298Y0159791D01*
X0091463Y0158956D01*
X0091463Y0162462D01*
X0094463Y0165462D01*
X0094463Y0165500D01*
X0096163Y0165500D01*
X0098663Y0168000D01*
X0098663Y0176500D01*
X0108663Y0186500D01*
X0108663Y0191500D01*
X0110663Y0193500D01*
X0113663Y0193500D01*
X0115163Y0192000D01*
X0115163Y0187000D01*
X0106163Y0178000D01*
X0106163Y0145838D01*
X0105625Y0145300D01*
X0104863Y0144538D01*
X0104863Y0128538D01*
X0104125Y0127800D01*
X0103363Y0127038D01*
X0103363Y0109200D01*
X0101963Y0107800D01*
X0096702Y0107800D01*
X0095463Y0109038D01*
X0095463Y0109844D01*
X0096254Y0110634D01*
X0096254Y0112366D01*
X0095029Y0113591D01*
X0093298Y0113591D01*
X0092073Y0112366D01*
X0092073Y0110634D01*
X0092863Y0109844D01*
X0092863Y0107962D01*
X0093625Y0107200D01*
X0093734Y0107091D01*
X0093298Y0107091D01*
X0092073Y0105866D01*
X0092073Y0104134D01*
X0093298Y0102909D01*
X0095029Y0102909D01*
X0095820Y0103700D01*
X0096025Y0103700D01*
X0094416Y0102091D01*
X0093298Y0102091D01*
X0092663Y0101456D01*
X0092029Y0102091D01*
X0090298Y0102091D01*
X0089073Y0100866D01*
X0089073Y0099134D01*
X0090207Y0098000D01*
X0089073Y0096866D01*
X0089073Y0095591D01*
X0088298Y0095591D01*
X0087073Y0094366D01*
X0087073Y0092634D01*
X0088298Y0091409D01*
X0090029Y0091409D01*
X0090820Y0092200D01*
X0092625Y0092200D01*
X0093363Y0091462D01*
X0093363Y0086200D01*
X0093363Y0086496D02*
X0086616Y0086496D01*
X0086029Y0085909D02*
X0087254Y0087134D01*
X0087254Y0088866D01*
X0086029Y0090091D01*
X0084298Y0090091D01*
X0083413Y0089206D01*
X0083029Y0089591D01*
X0082254Y0089591D01*
X0082254Y0090866D01*
X0081029Y0092091D01*
X0079298Y0092091D01*
X0078073Y0090866D01*
X0078073Y0089134D01*
X0079298Y0087909D01*
X0080073Y0087909D01*
X0080073Y0086634D01*
X0081298Y0085409D01*
X0083029Y0085409D01*
X0083913Y0086294D01*
X0084298Y0085909D01*
X0086029Y0085909D01*
X0087215Y0087095D02*
X0093363Y0087095D01*
X0093363Y0087693D02*
X0087254Y0087693D01*
X0087254Y0088292D02*
X0093363Y0088292D01*
X0093363Y0088890D02*
X0087230Y0088890D01*
X0086631Y0089489D02*
X0093363Y0089489D01*
X0093363Y0090087D02*
X0086033Y0090087D01*
X0085029Y0090909D02*
X0086254Y0092134D01*
X0086254Y0093866D01*
X0085029Y0095091D01*
X0083298Y0095091D01*
X0082073Y0093866D01*
X0082073Y0092134D01*
X0083298Y0090909D01*
X0085029Y0090909D01*
X0085404Y0091284D02*
X0093363Y0091284D01*
X0093363Y0090686D02*
X0082254Y0090686D01*
X0082254Y0090087D02*
X0084294Y0090087D01*
X0083696Y0089489D02*
X0083131Y0089489D01*
X0082923Y0091284D02*
X0081836Y0091284D01*
X0082324Y0091883D02*
X0081237Y0091883D01*
X0082073Y0092481D02*
X0077483Y0092481D01*
X0077963Y0093080D02*
X0082073Y0093080D01*
X0082073Y0093678D02*
X0077963Y0093678D01*
X0077963Y0094277D02*
X0082484Y0094277D01*
X0083082Y0094875D02*
X0077963Y0094875D01*
X0077963Y0095474D02*
X0088181Y0095474D01*
X0087582Y0094875D02*
X0085245Y0094875D01*
X0085843Y0094277D02*
X0087073Y0094277D01*
X0087073Y0093678D02*
X0086254Y0093678D01*
X0086254Y0093080D02*
X0087073Y0093080D01*
X0087226Y0092481D02*
X0086254Y0092481D01*
X0086003Y0091883D02*
X0087824Y0091883D01*
X0090503Y0091883D02*
X0092942Y0091883D01*
X0098963Y0091883D02*
X0110061Y0091883D01*
X0109675Y0091497D02*
X0109138Y0090201D01*
X0109138Y0088799D01*
X0109675Y0087503D01*
X0110667Y0086512D01*
X0111962Y0085975D01*
X0113365Y0085975D01*
X0114660Y0086512D01*
X0115652Y0087503D01*
X0116188Y0088799D01*
X0116188Y0090201D01*
X0115652Y0091497D01*
X0114660Y0092488D01*
X0113365Y0093025D01*
X0111962Y0093025D01*
X0110667Y0092488D01*
X0109675Y0091497D01*
X0109587Y0091284D02*
X0098963Y0091284D01*
X0098963Y0090686D02*
X0109339Y0090686D01*
X0109138Y0090087D02*
X0101533Y0090087D01*
X0102131Y0089489D02*
X0109138Y0089489D01*
X0109138Y0088890D02*
X0102254Y0088890D01*
X0102254Y0088292D02*
X0109349Y0088292D01*
X0109596Y0087693D02*
X0102254Y0087693D01*
X0101907Y0087095D02*
X0110084Y0087095D01*
X0110704Y0086496D02*
X0102506Y0086496D01*
X0103104Y0085898D02*
X0116363Y0085898D01*
X0116363Y0086496D02*
X0114623Y0086496D01*
X0115243Y0087095D02*
X0116363Y0087095D01*
X0116363Y0087693D02*
X0115730Y0087693D01*
X0115978Y0088292D02*
X0116363Y0088292D01*
X0116363Y0088890D02*
X0116188Y0088890D01*
X0116188Y0089489D02*
X0116363Y0089489D01*
X0116363Y0090087D02*
X0116188Y0090087D01*
X0116363Y0090686D02*
X0115988Y0090686D01*
X0115740Y0091284D02*
X0116363Y0091284D01*
X0116363Y0091883D02*
X0115266Y0091883D01*
X0114667Y0092481D02*
X0116363Y0092481D01*
X0116363Y0093080D02*
X0098963Y0093080D01*
X0098963Y0092481D02*
X0110660Y0092481D01*
X0111962Y0095975D02*
X0113365Y0095975D01*
X0114660Y0096512D01*
X0115652Y0097503D01*
X0116188Y0098799D01*
X0116188Y0100201D01*
X0115652Y0101497D01*
X0114660Y0102488D01*
X0113365Y0103025D01*
X0111962Y0103025D01*
X0110667Y0102488D01*
X0109675Y0101497D01*
X0109138Y0100201D01*
X0109138Y0098799D01*
X0109675Y0097503D01*
X0110667Y0096512D01*
X0111962Y0095975D01*
X0111728Y0096072D02*
X0096430Y0096072D01*
X0096363Y0096671D02*
X0110508Y0096671D01*
X0109909Y0097269D02*
X0096363Y0097269D01*
X0096363Y0097868D02*
X0109524Y0097868D01*
X0109276Y0098466D02*
X0096363Y0098466D01*
X0096363Y0099065D02*
X0109138Y0099065D01*
X0109138Y0099663D02*
X0096363Y0099663D01*
X0096363Y0100262D02*
X0109164Y0100262D01*
X0109412Y0100860D02*
X0096862Y0100860D01*
X0097461Y0101459D02*
X0109659Y0101459D01*
X0110236Y0102057D02*
X0098059Y0102057D01*
X0095579Y0103254D02*
X0095374Y0103254D01*
X0094981Y0102656D02*
X0077963Y0102656D01*
X0077963Y0103254D02*
X0092953Y0103254D01*
X0092354Y0103853D02*
X0077963Y0103853D01*
X0077963Y0104451D02*
X0092073Y0104451D01*
X0092073Y0105050D02*
X0077963Y0105050D01*
X0077963Y0105648D02*
X0092073Y0105648D01*
X0092454Y0106247D02*
X0077963Y0106247D01*
X0077963Y0106845D02*
X0093052Y0106845D01*
X0093381Y0107444D02*
X0086964Y0107444D01*
X0086729Y0107209D02*
X0087954Y0108434D01*
X0087954Y0110166D01*
X0086729Y0111391D01*
X0084998Y0111391D01*
X0083773Y0110166D01*
X0083773Y0108434D01*
X0084998Y0107209D01*
X0086729Y0107209D01*
X0087562Y0108042D02*
X0092863Y0108042D01*
X0092863Y0108641D02*
X0087954Y0108641D01*
X0087954Y0109239D02*
X0092863Y0109239D01*
X0092863Y0109838D02*
X0087954Y0109838D01*
X0087683Y0110437D02*
X0092270Y0110437D01*
X0092073Y0111035D02*
X0087085Y0111035D01*
X0084642Y0111035D02*
X0078885Y0111035D01*
X0079253Y0111634D02*
X0092073Y0111634D01*
X0092073Y0112232D02*
X0079754Y0112232D01*
X0079754Y0112831D02*
X0092538Y0112831D01*
X0093136Y0113429D02*
X0079754Y0113429D01*
X0079592Y0114028D02*
X0103363Y0114028D01*
X0103363Y0114626D02*
X0078994Y0114626D01*
X0076333Y0114626D02*
X0074963Y0114626D01*
X0074963Y0114028D02*
X0075735Y0114028D01*
X0075573Y0113429D02*
X0074963Y0113429D01*
X0074963Y0112831D02*
X0075573Y0112831D01*
X0075057Y0112232D02*
X0074963Y0112232D01*
X0072363Y0112831D02*
X0072271Y0112831D01*
X0072363Y0113429D02*
X0071673Y0113429D01*
X0071454Y0114028D02*
X0072363Y0114028D01*
X0072363Y0114626D02*
X0071454Y0114626D01*
X0070995Y0115225D02*
X0072363Y0115225D01*
X0072363Y0115823D02*
X0070397Y0115823D01*
X0072363Y0116422D02*
X0067963Y0116422D01*
X0067963Y0117020D02*
X0072363Y0117020D01*
X0072363Y0117619D02*
X0067963Y0117619D01*
X0067963Y0118217D02*
X0072363Y0118217D01*
X0072363Y0118816D02*
X0067963Y0118816D01*
X0067963Y0119414D02*
X0072363Y0119414D01*
X0072363Y0120013D02*
X0067963Y0120013D01*
X0067963Y0120611D02*
X0072363Y0120611D01*
X0072363Y0121210D02*
X0067963Y0121210D01*
X0067963Y0121808D02*
X0072363Y0121808D01*
X0072363Y0122407D02*
X0067963Y0122407D01*
X0067963Y0123005D02*
X0072363Y0123005D01*
X0072363Y0123604D02*
X0067963Y0123604D01*
X0067963Y0124202D02*
X0072363Y0124202D01*
X0072363Y0124801D02*
X0067963Y0124801D01*
X0067963Y0125399D02*
X0072363Y0125399D01*
X0072363Y0125998D02*
X0067963Y0125998D01*
X0067963Y0126596D02*
X0072921Y0126596D01*
X0073520Y0127195D02*
X0067963Y0127195D01*
X0067963Y0127793D02*
X0074118Y0127793D01*
X0074717Y0128392D02*
X0067963Y0128392D01*
X0067963Y0128990D02*
X0078497Y0128990D01*
X0078998Y0129509D02*
X0080729Y0129509D01*
X0081954Y0130734D01*
X0081954Y0132466D01*
X0081611Y0132809D01*
X0084211Y0135409D01*
X0085329Y0135409D01*
X0086554Y0136634D01*
X0086554Y0138366D01*
X0085329Y0139591D01*
X0083598Y0139591D01*
X0082373Y0138366D01*
X0082373Y0137248D01*
X0079325Y0134200D01*
X0078563Y0133438D01*
X0078563Y0133256D01*
X0077773Y0132466D01*
X0077773Y0130734D01*
X0078998Y0129509D01*
X0078918Y0129589D02*
X0067963Y0129589D01*
X0067963Y0130187D02*
X0078320Y0130187D01*
X0077773Y0130786D02*
X0067716Y0130786D01*
X0067118Y0131384D02*
X0077773Y0131384D01*
X0077773Y0131983D02*
X0066519Y0131983D01*
X0065921Y0132581D02*
X0077888Y0132581D01*
X0078487Y0133180D02*
X0065322Y0133180D01*
X0064723Y0133778D02*
X0078903Y0133778D01*
X0079325Y0134200D02*
X0079325Y0134200D01*
X0079502Y0134377D02*
X0064125Y0134377D01*
X0063526Y0134975D02*
X0080100Y0134975D01*
X0080699Y0135574D02*
X0062928Y0135574D01*
X0062329Y0136172D02*
X0081298Y0136172D01*
X0081896Y0136771D02*
X0060391Y0136771D01*
X0060754Y0137370D02*
X0082373Y0137370D01*
X0082373Y0137968D02*
X0060754Y0137968D01*
X0060754Y0138567D02*
X0082574Y0138567D01*
X0083172Y0139165D02*
X0060455Y0139165D01*
X0059856Y0139764D02*
X0092061Y0139764D01*
X0092363Y0139165D02*
X0085755Y0139165D01*
X0086353Y0138567D02*
X0091892Y0138567D01*
X0091293Y0137968D02*
X0086554Y0137968D01*
X0086554Y0137370D02*
X0090695Y0137370D01*
X0090096Y0136771D02*
X0086554Y0136771D01*
X0086092Y0136172D02*
X0089497Y0136172D01*
X0088899Y0135574D02*
X0085494Y0135574D01*
X0083777Y0134975D02*
X0088863Y0134975D01*
X0088863Y0134377D02*
X0083179Y0134377D01*
X0082580Y0133778D02*
X0088863Y0133778D01*
X0088863Y0133180D02*
X0081982Y0133180D01*
X0081839Y0132581D02*
X0088863Y0132581D01*
X0088773Y0131983D02*
X0081954Y0131983D01*
X0081954Y0131384D02*
X0088773Y0131384D01*
X0088773Y0130786D02*
X0081954Y0130786D01*
X0081407Y0130187D02*
X0089020Y0130187D01*
X0089618Y0129589D02*
X0080809Y0129589D01*
X0080830Y0128990D02*
X0090573Y0128990D01*
X0090573Y0128392D02*
X0081428Y0128392D01*
X0081754Y0127793D02*
X0090573Y0127793D01*
X0091012Y0127195D02*
X0081754Y0127195D01*
X0081754Y0126596D02*
X0091611Y0126596D01*
X0093716Y0126596D02*
X0103363Y0126596D01*
X0103363Y0125998D02*
X0084422Y0125998D01*
X0084029Y0126391D02*
X0085254Y0125166D01*
X0085254Y0123434D01*
X0084029Y0122209D01*
X0082298Y0122209D01*
X0081073Y0123434D01*
X0081073Y0125166D01*
X0082298Y0126391D01*
X0084029Y0126391D01*
X0085021Y0125399D02*
X0103363Y0125399D01*
X0103363Y0124801D02*
X0085254Y0124801D01*
X0085254Y0124202D02*
X0103363Y0124202D01*
X0103363Y0123604D02*
X0085254Y0123604D01*
X0084825Y0123005D02*
X0103363Y0123005D01*
X0103363Y0122407D02*
X0084227Y0122407D01*
X0082100Y0122407D02*
X0077227Y0122407D01*
X0077825Y0123005D02*
X0081502Y0123005D01*
X0081073Y0123604D02*
X0078254Y0123604D01*
X0078254Y0124202D02*
X0081073Y0124202D01*
X0081073Y0124801D02*
X0078254Y0124801D01*
X0078021Y0125399D02*
X0078508Y0125399D01*
X0080819Y0125399D02*
X0081306Y0125399D01*
X0081418Y0125998D02*
X0081905Y0125998D01*
X0075100Y0122407D02*
X0074963Y0122407D01*
X0074963Y0121808D02*
X0103363Y0121808D01*
X0103363Y0121210D02*
X0074963Y0121210D01*
X0074963Y0120611D02*
X0103363Y0120611D01*
X0103363Y0120013D02*
X0074963Y0120013D01*
X0074963Y0119414D02*
X0103363Y0119414D01*
X0103363Y0118816D02*
X0074963Y0118816D01*
X0074963Y0118217D02*
X0103363Y0118217D01*
X0103363Y0117619D02*
X0074963Y0117619D01*
X0074963Y0117020D02*
X0103363Y0117020D01*
X0103363Y0116422D02*
X0074963Y0116422D01*
X0074963Y0115823D02*
X0103363Y0115823D01*
X0103363Y0115225D02*
X0074963Y0115225D01*
X0068330Y0115823D02*
X0067963Y0115823D01*
X0062363Y0115823D02*
X0059679Y0115823D01*
X0059080Y0116422D02*
X0062363Y0116422D01*
X0062363Y0117020D02*
X0058963Y0117020D01*
X0058963Y0117619D02*
X0062363Y0117619D01*
X0062363Y0118217D02*
X0058963Y0118217D01*
X0058963Y0118816D02*
X0062363Y0118816D01*
X0062363Y0119414D02*
X0058963Y0119414D01*
X0058963Y0120013D02*
X0062363Y0120013D01*
X0062363Y0120611D02*
X0058963Y0120611D01*
X0058963Y0121210D02*
X0062363Y0121210D01*
X0062363Y0121808D02*
X0058963Y0121808D01*
X0058963Y0122407D02*
X0062363Y0122407D01*
X0062363Y0123005D02*
X0058963Y0123005D01*
X0058963Y0123604D02*
X0062363Y0123604D01*
X0062123Y0124202D02*
X0058963Y0124202D01*
X0058963Y0124801D02*
X0061524Y0124801D01*
X0060926Y0125399D02*
X0058963Y0125399D01*
X0058963Y0125998D02*
X0060327Y0125998D01*
X0059729Y0126596D02*
X0058406Y0126596D01*
X0057807Y0127195D02*
X0059130Y0127195D01*
X0058532Y0127793D02*
X0057209Y0127793D01*
X0056610Y0128392D02*
X0058363Y0128392D01*
X0058363Y0128990D02*
X0056012Y0128990D01*
X0055413Y0129589D02*
X0058363Y0129589D01*
X0058363Y0130187D02*
X0054963Y0130187D01*
X0054963Y0130786D02*
X0058363Y0130786D01*
X0058363Y0131384D02*
X0054963Y0131384D01*
X0054963Y0131983D02*
X0058363Y0131983D01*
X0058573Y0132581D02*
X0054963Y0132581D01*
X0054963Y0133180D02*
X0057527Y0133180D01*
X0056929Y0133778D02*
X0054963Y0133778D01*
X0054963Y0134377D02*
X0056573Y0134377D01*
X0056573Y0134975D02*
X0054963Y0134975D01*
X0054428Y0135574D02*
X0056573Y0135574D01*
X0056879Y0136172D02*
X0053829Y0136172D01*
X0053231Y0136771D02*
X0056936Y0136771D01*
X0056573Y0137370D02*
X0052632Y0137370D01*
X0052034Y0137968D02*
X0056573Y0137968D01*
X0056573Y0138567D02*
X0051963Y0138567D01*
X0051963Y0139165D02*
X0056872Y0139165D01*
X0057471Y0139764D02*
X0051963Y0139764D01*
X0051963Y0140362D02*
X0091463Y0140362D01*
X0090864Y0140961D02*
X0051963Y0140961D01*
X0051963Y0141559D02*
X0090266Y0141559D01*
X0089667Y0142158D02*
X0051963Y0142158D01*
X0051963Y0142756D02*
X0089069Y0142756D01*
X0088470Y0143355D02*
X0051963Y0143355D01*
X0051963Y0143953D02*
X0087872Y0143953D01*
X0087563Y0144552D02*
X0051963Y0144552D01*
X0051963Y0145150D02*
X0087563Y0145150D01*
X0087563Y0145749D02*
X0051963Y0145749D01*
X0051655Y0146347D02*
X0087563Y0146347D01*
X0087563Y0146946D02*
X0051056Y0146946D01*
X0050463Y0147544D02*
X0070463Y0147544D01*
X0069864Y0148143D02*
X0050463Y0148143D01*
X0050463Y0148741D02*
X0069773Y0148741D01*
X0069773Y0149340D02*
X0050463Y0149340D01*
X0050463Y0149938D02*
X0069773Y0149938D01*
X0070344Y0150537D02*
X0050463Y0150537D01*
X0050463Y0151135D02*
X0070942Y0151135D01*
X0071773Y0151734D02*
X0050463Y0151734D01*
X0050463Y0152332D02*
X0070375Y0152332D01*
X0069776Y0152931D02*
X0050463Y0152931D01*
X0050463Y0153529D02*
X0069573Y0153529D01*
X0069573Y0154128D02*
X0050463Y0154128D01*
X0050463Y0154726D02*
X0069573Y0154726D01*
X0070032Y0155325D02*
X0059945Y0155325D01*
X0060543Y0155923D02*
X0070630Y0155923D01*
X0070520Y0156522D02*
X0060854Y0156522D01*
X0060854Y0157120D02*
X0070163Y0157120D01*
X0070163Y0157719D02*
X0060854Y0157719D01*
X0060503Y0158317D02*
X0070163Y0158317D01*
X0072073Y0160711D02*
X0072963Y0160711D01*
X0072963Y0161310D02*
X0071475Y0161310D01*
X0072963Y0161908D02*
X0060628Y0161908D01*
X0060854Y0162507D02*
X0072963Y0162507D01*
X0072963Y0163105D02*
X0060854Y0163105D01*
X0060854Y0163704D02*
X0072963Y0163704D01*
X0072963Y0164303D02*
X0060417Y0164303D01*
X0059819Y0164901D02*
X0072963Y0164901D01*
X0072963Y0165500D02*
X0046002Y0165500D01*
X0045404Y0166098D02*
X0072963Y0166098D01*
X0072963Y0166697D02*
X0044845Y0166697D01*
X0045444Y0167295D02*
X0049912Y0167295D01*
X0050298Y0166909D02*
X0052029Y0166909D01*
X0053254Y0168134D01*
X0053254Y0169866D01*
X0052029Y0171091D01*
X0050298Y0171091D01*
X0049073Y0169866D01*
X0049073Y0168134D01*
X0050298Y0166909D01*
X0049313Y0167894D02*
X0045813Y0167894D01*
X0046061Y0168492D02*
X0049073Y0168492D01*
X0049073Y0169091D02*
X0046188Y0169091D01*
X0046188Y0169689D02*
X0049073Y0169689D01*
X0049495Y0170288D02*
X0046153Y0170288D01*
X0045905Y0170886D02*
X0050093Y0170886D01*
X0052234Y0170886D02*
X0062327Y0170886D01*
X0062252Y0170811D02*
X0061873Y0169895D01*
X0061873Y0168905D01*
X0062252Y0167989D01*
X0062953Y0167289D01*
X0063868Y0166909D01*
X0064859Y0166909D01*
X0065774Y0167289D01*
X0066475Y0167989D01*
X0066854Y0168905D01*
X0066854Y0169168D01*
X0067375Y0169689D01*
X0067754Y0170605D01*
X0067754Y0171595D01*
X0067375Y0172511D01*
X0066674Y0173211D01*
X0065759Y0173591D01*
X0064768Y0173591D01*
X0063853Y0173211D01*
X0063152Y0172511D01*
X0062773Y0171595D01*
X0062773Y0171332D01*
X0062252Y0170811D01*
X0062035Y0170288D02*
X0052832Y0170288D01*
X0053254Y0169689D02*
X0061873Y0169689D01*
X0061873Y0169091D02*
X0053254Y0169091D01*
X0053254Y0168492D02*
X0062044Y0168492D01*
X0062348Y0167894D02*
X0053014Y0167894D01*
X0052415Y0167295D02*
X0062946Y0167295D01*
X0065781Y0167295D02*
X0072963Y0167295D01*
X0072790Y0167894D02*
X0066379Y0167894D01*
X0066683Y0168492D02*
X0072191Y0168492D01*
X0071593Y0169091D02*
X0066854Y0169091D01*
X0067375Y0169689D02*
X0070994Y0169689D01*
X0070396Y0170288D02*
X0067623Y0170288D01*
X0067754Y0170886D02*
X0069797Y0170886D01*
X0069199Y0171485D02*
X0067754Y0171485D01*
X0067552Y0172083D02*
X0068763Y0172083D01*
X0068763Y0172682D02*
X0067204Y0172682D01*
X0066508Y0173280D02*
X0068763Y0173280D01*
X0068763Y0173879D02*
X0038963Y0173879D01*
X0038963Y0174477D02*
X0068763Y0174477D01*
X0068763Y0175076D02*
X0038963Y0175076D01*
X0038963Y0175674D02*
X0068763Y0175674D01*
X0068763Y0176273D02*
X0038963Y0176273D01*
X0038963Y0176871D02*
X0068763Y0176871D01*
X0068763Y0177470D02*
X0038963Y0177470D01*
X0038963Y0178068D02*
X0068763Y0178068D01*
X0068763Y0178667D02*
X0038963Y0178667D01*
X0038963Y0179265D02*
X0068763Y0179265D01*
X0068763Y0179864D02*
X0038963Y0179864D01*
X0038963Y0180462D02*
X0049745Y0180462D01*
X0050298Y0179909D02*
X0052029Y0179909D01*
X0053254Y0181134D01*
X0053254Y0182866D01*
X0052620Y0183500D01*
X0053254Y0184134D01*
X0053254Y0185866D01*
X0052029Y0187091D01*
X0050298Y0187091D01*
X0049073Y0185866D01*
X0049073Y0184134D01*
X0049707Y0183500D01*
X0049073Y0182866D01*
X0049073Y0181134D01*
X0050298Y0179909D01*
X0049146Y0181061D02*
X0038963Y0181061D01*
X0038963Y0181659D02*
X0049073Y0181659D01*
X0049073Y0182258D02*
X0038963Y0182258D01*
X0038963Y0182856D02*
X0049073Y0182856D01*
X0049662Y0183455D02*
X0038963Y0183455D01*
X0038963Y0184053D02*
X0049154Y0184053D01*
X0049073Y0184652D02*
X0038963Y0184652D01*
X0038963Y0185250D02*
X0049073Y0185250D01*
X0049073Y0185849D02*
X0038963Y0185849D01*
X0038963Y0186447D02*
X0040822Y0186447D01*
X0040667Y0186512D02*
X0041962Y0185975D01*
X0043365Y0185975D01*
X0044660Y0186512D01*
X0045652Y0187503D01*
X0046188Y0188799D01*
X0046188Y0188924D01*
X0050865Y0193600D01*
X0073562Y0193600D01*
X0084821Y0182341D01*
X0085887Y0181900D01*
X0087040Y0181900D01*
X0088106Y0182341D01*
X0088922Y0183157D01*
X0089363Y0184223D01*
X0089363Y0185377D01*
X0088922Y0186443D01*
X0087814Y0187551D01*
X0088048Y0187678D01*
X0088081Y0187675D01*
X0088155Y0187736D01*
X0088238Y0187781D01*
X0088248Y0187812D01*
X0088516Y0188033D01*
X0088548Y0188036D01*
X0088609Y0188110D01*
X0088682Y0188170D01*
X0088685Y0188203D01*
X0088906Y0188471D01*
X0088937Y0188480D01*
X0088983Y0188564D01*
X0089043Y0188638D01*
X0089040Y0188670D01*
X0089206Y0188975D01*
X0089235Y0188991D01*
X0089263Y0189082D01*
X0089308Y0189165D01*
X0089299Y0189197D01*
X0089403Y0189528D01*
X0089428Y0189548D01*
X0089439Y0189643D01*
X0089468Y0189734D01*
X0089452Y0189763D01*
X0089491Y0190108D01*
X0089512Y0190134D01*
X0089504Y0190228D01*
X0089515Y0190323D01*
X0089494Y0190348D01*
X0089465Y0190695D01*
X0089481Y0190724D01*
X0089455Y0190815D01*
X0089447Y0190909D01*
X0089421Y0190931D01*
X0089324Y0191265D01*
X0089334Y0191297D01*
X0089290Y0191381D01*
X0089264Y0191472D01*
X0089234Y0191488D01*
X0089073Y0191797D01*
X0089077Y0191830D01*
X0089018Y0191904D01*
X0088974Y0191987D01*
X0088942Y0191997D01*
X0088723Y0192269D01*
X0088720Y0192302D01*
X0088647Y0192362D01*
X0088588Y0192436D01*
X0088555Y0192439D01*
X0088287Y0192662D01*
X0088277Y0192694D01*
X0088194Y0192739D01*
X0088122Y0192800D01*
X0088088Y0192796D01*
X0087782Y0192962D01*
X0087766Y0192992D01*
X0087676Y0193019D01*
X0087593Y0193064D01*
X0087560Y0193055D01*
X0087227Y0193157D01*
X0087206Y0193183D01*
X0087112Y0193192D01*
X0087022Y0193220D01*
X0086992Y0193204D01*
X0086662Y0193237D01*
X0086650Y0193249D01*
X0086594Y0193249D01*
X0086581Y0193260D01*
X0086506Y0193252D01*
X0086432Y0193260D01*
X0086418Y0193249D01*
X0086362Y0193249D01*
X0086350Y0193237D01*
X0086017Y0193204D01*
X0085988Y0193220D01*
X0085898Y0193192D01*
X0085803Y0193183D01*
X0085782Y0193157D01*
X0085447Y0193056D01*
X0085415Y0193065D01*
X0085331Y0193021D01*
X0085241Y0192993D01*
X0085225Y0192964D01*
X0084916Y0192798D01*
X0084883Y0192802D01*
X0084810Y0192742D01*
X0084726Y0192697D01*
X0084716Y0192665D01*
X0084445Y0192443D01*
X0084412Y0192440D01*
X0084352Y0192366D01*
X0084279Y0192306D01*
X0084276Y0192273D01*
X0084053Y0192002D01*
X0084022Y0191993D01*
X0083977Y0191909D01*
X0083917Y0191836D01*
X0083920Y0191803D01*
X0083795Y0191569D01*
X0076406Y0198958D01*
X0075340Y0199400D01*
X0049087Y0199400D01*
X0048021Y0198958D01*
X0047205Y0198143D01*
X0042087Y0193025D01*
X0041962Y0193025D01*
X0040667Y0192488D01*
X0039675Y0191497D01*
X0039138Y0190201D01*
X0039138Y0188799D01*
X0039675Y0187503D01*
X0040667Y0186512D01*
X0040132Y0187046D02*
X0038963Y0187046D01*
X0038963Y0187644D02*
X0039617Y0187644D01*
X0039369Y0188243D02*
X0038963Y0188243D01*
X0038963Y0188841D02*
X0039138Y0188841D01*
X0039138Y0189440D02*
X0038963Y0189440D01*
X0038963Y0190039D02*
X0039138Y0190039D01*
X0038963Y0190637D02*
X0039319Y0190637D01*
X0039567Y0191236D02*
X0038963Y0191236D01*
X0038963Y0191834D02*
X0040012Y0191834D01*
X0040611Y0192433D02*
X0038963Y0192433D01*
X0038963Y0193031D02*
X0042093Y0193031D01*
X0042692Y0193630D02*
X0038963Y0193630D01*
X0038963Y0194228D02*
X0043290Y0194228D01*
X0043889Y0194827D02*
X0038963Y0194827D01*
X0038963Y0195425D02*
X0044487Y0195425D01*
X0045086Y0196024D02*
X0038963Y0196024D01*
X0038963Y0196622D02*
X0045684Y0196622D01*
X0046283Y0197221D02*
X0038963Y0197221D01*
X0038963Y0197819D02*
X0046881Y0197819D01*
X0047480Y0198418D02*
X0038963Y0198418D01*
X0038963Y0199016D02*
X0048160Y0199016D01*
X0050296Y0193031D02*
X0074131Y0193031D01*
X0074730Y0192433D02*
X0072687Y0192433D01*
X0073286Y0191834D02*
X0075328Y0191834D01*
X0075927Y0191236D02*
X0073754Y0191236D01*
X0073754Y0190637D02*
X0076525Y0190637D01*
X0077124Y0190039D02*
X0073754Y0190039D01*
X0073560Y0189440D02*
X0077722Y0189440D01*
X0078321Y0188841D02*
X0072961Y0188841D01*
X0071563Y0188243D02*
X0078919Y0188243D01*
X0079518Y0187644D02*
X0071563Y0187644D01*
X0071563Y0187046D02*
X0080116Y0187046D01*
X0080715Y0186447D02*
X0071563Y0186447D01*
X0071563Y0185849D02*
X0081313Y0185849D01*
X0081912Y0185250D02*
X0071563Y0185250D01*
X0071563Y0184652D02*
X0082510Y0184652D01*
X0083109Y0184053D02*
X0071563Y0184053D01*
X0071563Y0183455D02*
X0083707Y0183455D01*
X0084306Y0182856D02*
X0071563Y0182856D01*
X0071563Y0182258D02*
X0085023Y0182258D01*
X0087904Y0182258D02*
X0089859Y0182258D01*
X0089782Y0182073D02*
X0089782Y0180927D01*
X0090221Y0179868D01*
X0091031Y0179058D01*
X0092090Y0178619D01*
X0093237Y0178619D01*
X0094295Y0179058D01*
X0095106Y0179868D01*
X0095163Y0180007D01*
X0095221Y0179868D01*
X0096031Y0179058D01*
X0097090Y0178619D01*
X0098237Y0178619D01*
X0099295Y0179058D01*
X0100106Y0179868D01*
X0100545Y0180927D01*
X0100545Y0182073D01*
X0100106Y0183132D01*
X0099295Y0183942D01*
X0098237Y0184381D01*
X0097090Y0184381D01*
X0096031Y0183942D01*
X0095221Y0183132D01*
X0095163Y0182993D01*
X0095106Y0183132D01*
X0094295Y0183942D01*
X0093237Y0184381D01*
X0092090Y0184381D01*
X0091031Y0183942D01*
X0090221Y0183132D01*
X0089782Y0182073D01*
X0089782Y0181659D02*
X0071563Y0181659D01*
X0071563Y0181061D02*
X0089782Y0181061D01*
X0089975Y0180462D02*
X0071563Y0180462D01*
X0071563Y0179864D02*
X0090225Y0179864D01*
X0090824Y0179265D02*
X0071563Y0179265D01*
X0071563Y0178667D02*
X0091975Y0178667D01*
X0093352Y0178667D02*
X0096975Y0178667D01*
X0095824Y0179265D02*
X0094503Y0179265D01*
X0095102Y0179864D02*
X0095225Y0179864D01*
X0098352Y0178667D02*
X0099133Y0178667D01*
X0099503Y0179265D02*
X0099732Y0179265D01*
X0100102Y0179864D02*
X0100330Y0179864D01*
X0100352Y0180462D02*
X0100929Y0180462D01*
X0100545Y0181061D02*
X0101527Y0181061D01*
X0102126Y0181659D02*
X0100545Y0181659D01*
X0100468Y0182258D02*
X0102724Y0182258D01*
X0103323Y0182856D02*
X0100220Y0182856D01*
X0099783Y0183455D02*
X0101252Y0183455D01*
X0100654Y0184053D02*
X0099028Y0184053D01*
X0100073Y0184652D02*
X0089363Y0184652D01*
X0089363Y0185250D02*
X0100073Y0185250D01*
X0100073Y0185849D02*
X0089168Y0185849D01*
X0088917Y0186447D02*
X0100154Y0186447D01*
X0100753Y0187046D02*
X0088319Y0187046D01*
X0087986Y0187644D02*
X0100280Y0187644D01*
X0099567Y0188243D02*
X0088718Y0188243D01*
X0089133Y0188841D02*
X0099163Y0188841D01*
X0098933Y0189440D02*
X0089375Y0189440D01*
X0089483Y0190039D02*
X0098840Y0190039D01*
X0098863Y0190637D02*
X0089470Y0190637D01*
X0089332Y0191236D02*
X0099006Y0191236D01*
X0099271Y0191834D02*
X0089074Y0191834D01*
X0088591Y0192433D02*
X0099761Y0192433D01*
X0100705Y0193031D02*
X0087654Y0193031D01*
X0085351Y0193031D02*
X0082334Y0193031D01*
X0082932Y0192433D02*
X0084407Y0192433D01*
X0083917Y0191834D02*
X0083531Y0191834D01*
X0081735Y0193630D02*
X0109096Y0193630D01*
X0109695Y0194228D02*
X0106440Y0194228D01*
X0107155Y0194827D02*
X0116363Y0194827D01*
X0116363Y0195425D02*
X0107527Y0195425D01*
X0107739Y0196024D02*
X0116363Y0196024D01*
X0116363Y0196622D02*
X0107813Y0196622D01*
X0107813Y0197221D02*
X0116363Y0197221D01*
X0116363Y0197819D02*
X0107813Y0197819D01*
X0107813Y0198418D02*
X0116363Y0198418D01*
X0116363Y0199016D02*
X0107813Y0199016D01*
X0107813Y0199615D02*
X0116363Y0199615D01*
X0116363Y0200213D02*
X0107813Y0200213D01*
X0107783Y0200812D02*
X0116363Y0200812D01*
X0116363Y0201410D02*
X0107633Y0201410D01*
X0107325Y0202009D02*
X0116363Y0202009D01*
X0116363Y0202607D02*
X0106761Y0202607D01*
X0103263Y0202607D02*
X0085064Y0202607D01*
X0085603Y0202009D02*
X0102724Y0202009D01*
X0102478Y0201410D02*
X0085849Y0201410D01*
X0085963Y0200812D02*
X0102363Y0200812D01*
X0102363Y0200213D02*
X0085963Y0200213D01*
X0085963Y0199615D02*
X0102363Y0199615D01*
X0102363Y0199016D02*
X0085963Y0199016D01*
X0085963Y0198418D02*
X0102363Y0198418D01*
X0102363Y0197819D02*
X0085963Y0197819D01*
X0085963Y0197221D02*
X0102363Y0197221D01*
X0102363Y0196622D02*
X0085963Y0196622D01*
X0085957Y0196024D02*
X0102377Y0196024D01*
X0102488Y0195425D02*
X0085812Y0195425D01*
X0085473Y0194827D02*
X0102755Y0194827D01*
X0103379Y0194228D02*
X0084886Y0194228D01*
X0081778Y0194228D02*
X0081137Y0194228D01*
X0081096Y0194827D02*
X0080538Y0194827D01*
X0080747Y0195425D02*
X0079940Y0195425D01*
X0079341Y0196024D02*
X0080557Y0196024D01*
X0080513Y0196622D02*
X0078743Y0196622D01*
X0078144Y0197221D02*
X0080513Y0197221D01*
X0080513Y0197819D02*
X0077546Y0197819D01*
X0076947Y0198418D02*
X0080513Y0198418D01*
X0080513Y0199016D02*
X0076267Y0199016D01*
X0080513Y0199615D02*
X0038963Y0199615D01*
X0038963Y0200213D02*
X0080513Y0200213D01*
X0080509Y0200812D02*
X0038963Y0200812D01*
X0038963Y0201410D02*
X0080640Y0201410D01*
X0080924Y0202009D02*
X0038963Y0202009D01*
X0038963Y0202607D02*
X0081496Y0202607D01*
X0103008Y0193031D02*
X0108497Y0193031D01*
X0107899Y0192433D02*
X0103945Y0192433D01*
X0104428Y0191834D02*
X0107463Y0191834D01*
X0107463Y0191236D02*
X0104687Y0191236D01*
X0104824Y0190637D02*
X0107463Y0190637D01*
X0107463Y0190039D02*
X0104837Y0190039D01*
X0104730Y0189440D02*
X0107463Y0189440D01*
X0107463Y0188841D02*
X0104487Y0188841D01*
X0104073Y0188243D02*
X0107463Y0188243D01*
X0107463Y0187644D02*
X0103340Y0187644D01*
X0106074Y0187046D02*
X0107463Y0187046D01*
X0106914Y0186447D02*
X0106673Y0186447D01*
X0107414Y0185250D02*
X0113414Y0185250D01*
X0112815Y0184652D02*
X0106815Y0184652D01*
X0106217Y0184053D02*
X0112217Y0184053D01*
X0111618Y0183455D02*
X0105618Y0183455D01*
X0105020Y0182856D02*
X0111020Y0182856D01*
X0110421Y0182258D02*
X0104421Y0182258D01*
X0103823Y0181659D02*
X0109823Y0181659D01*
X0109224Y0181061D02*
X0103224Y0181061D01*
X0102626Y0180462D02*
X0108626Y0180462D01*
X0108027Y0179864D02*
X0102027Y0179864D01*
X0101429Y0179265D02*
X0107429Y0179265D01*
X0106830Y0178667D02*
X0100830Y0178667D01*
X0100798Y0178091D02*
X0099573Y0176866D01*
X0099573Y0175134D01*
X0100798Y0173909D01*
X0102529Y0173909D01*
X0103754Y0175134D01*
X0103754Y0176866D01*
X0102529Y0178091D01*
X0100798Y0178091D01*
X0100775Y0178068D02*
X0100232Y0178068D01*
X0100177Y0177470D02*
X0099633Y0177470D01*
X0099578Y0176871D02*
X0099035Y0176871D01*
X0098663Y0176273D02*
X0099573Y0176273D01*
X0099573Y0175674D02*
X0098663Y0175674D01*
X0098663Y0175076D02*
X0099631Y0175076D01*
X0100230Y0174477D02*
X0098663Y0174477D01*
X0098663Y0173879D02*
X0106163Y0173879D01*
X0106163Y0174477D02*
X0103097Y0174477D01*
X0103696Y0175076D02*
X0106163Y0175076D01*
X0106163Y0175674D02*
X0103754Y0175674D01*
X0103754Y0176273D02*
X0106163Y0176273D01*
X0106163Y0176871D02*
X0103749Y0176871D01*
X0103150Y0177470D02*
X0106163Y0177470D01*
X0106232Y0178068D02*
X0102552Y0178068D01*
X0098535Y0178068D02*
X0090352Y0178068D01*
X0090950Y0177470D02*
X0097936Y0177470D01*
X0097463Y0176871D02*
X0091054Y0176871D01*
X0091054Y0176273D02*
X0097463Y0176273D01*
X0097463Y0175674D02*
X0091054Y0175674D01*
X0090496Y0175076D02*
X0097463Y0175076D01*
X0097463Y0174477D02*
X0090943Y0174477D01*
X0091054Y0173879D02*
X0097463Y0173879D01*
X0097463Y0173280D02*
X0091054Y0173280D01*
X0091620Y0172682D02*
X0097463Y0172682D01*
X0097463Y0172083D02*
X0092219Y0172083D01*
X0092817Y0171485D02*
X0097463Y0171485D01*
X0097463Y0170886D02*
X0093416Y0170886D01*
X0094014Y0170288D02*
X0097463Y0170288D01*
X0097463Y0169689D02*
X0094463Y0169689D01*
X0094463Y0169091D02*
X0097463Y0169091D01*
X0097459Y0168492D02*
X0094463Y0168492D01*
X0094463Y0167894D02*
X0096860Y0167894D01*
X0096262Y0167295D02*
X0094463Y0167295D01*
X0094463Y0165500D02*
X0106163Y0165500D01*
X0106163Y0166098D02*
X0096762Y0166098D01*
X0097360Y0166697D02*
X0106163Y0166697D01*
X0106163Y0167295D02*
X0097959Y0167295D01*
X0098557Y0167894D02*
X0106163Y0167894D01*
X0106163Y0168492D02*
X0098663Y0168492D01*
X0098663Y0169091D02*
X0106163Y0169091D01*
X0106163Y0169689D02*
X0098663Y0169689D01*
X0098663Y0170288D02*
X0106163Y0170288D01*
X0106163Y0170886D02*
X0098663Y0170886D01*
X0098663Y0171485D02*
X0106163Y0171485D01*
X0106163Y0172083D02*
X0098663Y0172083D01*
X0098663Y0172682D02*
X0106163Y0172682D01*
X0106163Y0173280D02*
X0098663Y0173280D01*
X0107363Y0173280D02*
X0116363Y0173280D01*
X0116363Y0172682D02*
X0114193Y0172682D01*
X0114660Y0172488D02*
X0113365Y0173025D01*
X0111962Y0173025D01*
X0110667Y0172488D01*
X0109675Y0171497D01*
X0109138Y0170201D01*
X0109138Y0168799D01*
X0109675Y0167503D01*
X0110667Y0166512D01*
X0111962Y0165975D01*
X0113365Y0165975D01*
X0114660Y0166512D01*
X0115652Y0167503D01*
X0116188Y0168799D01*
X0116188Y0170201D01*
X0115652Y0171497D01*
X0114660Y0172488D01*
X0115065Y0172083D02*
X0116363Y0172083D01*
X0116363Y0171485D02*
X0115657Y0171485D01*
X0115905Y0170886D02*
X0116363Y0170886D01*
X0116363Y0170288D02*
X0116153Y0170288D01*
X0116188Y0169689D02*
X0116363Y0169689D01*
X0116363Y0169091D02*
X0116188Y0169091D01*
X0116061Y0168492D02*
X0116363Y0168492D01*
X0116363Y0167894D02*
X0115813Y0167894D01*
X0115444Y0167295D02*
X0116363Y0167295D01*
X0116363Y0166697D02*
X0114845Y0166697D01*
X0113662Y0166098D02*
X0116363Y0166098D01*
X0116363Y0165500D02*
X0107363Y0165500D01*
X0107363Y0166098D02*
X0111665Y0166098D01*
X0110482Y0166697D02*
X0107363Y0166697D01*
X0107363Y0167295D02*
X0109883Y0167295D01*
X0109513Y0167894D02*
X0107363Y0167894D01*
X0107363Y0168492D02*
X0109266Y0168492D01*
X0109138Y0169091D02*
X0107363Y0169091D01*
X0107363Y0169689D02*
X0109138Y0169689D01*
X0109174Y0170288D02*
X0107363Y0170288D01*
X0107363Y0170886D02*
X0109422Y0170886D01*
X0109670Y0171485D02*
X0107363Y0171485D01*
X0107363Y0172083D02*
X0110262Y0172083D01*
X0111133Y0172682D02*
X0107363Y0172682D01*
X0107363Y0173879D02*
X0116363Y0173879D01*
X0116363Y0174477D02*
X0107363Y0174477D01*
X0107363Y0175076D02*
X0116363Y0175076D01*
X0116363Y0175674D02*
X0107363Y0175674D01*
X0107363Y0176273D02*
X0111243Y0176273D01*
X0110307Y0176871D02*
X0107363Y0176871D01*
X0107363Y0177470D02*
X0109709Y0177470D01*
X0109441Y0178068D02*
X0107929Y0178068D01*
X0108527Y0178667D02*
X0109193Y0178667D01*
X0109138Y0179265D02*
X0109126Y0179265D01*
X0114083Y0176273D02*
X0116363Y0176273D01*
X0116363Y0176871D02*
X0115020Y0176871D01*
X0115618Y0177470D02*
X0116363Y0177470D01*
X0116363Y0178068D02*
X0115886Y0178068D01*
X0116134Y0178667D02*
X0116363Y0178667D01*
X0116363Y0179265D02*
X0116188Y0179265D01*
X0116188Y0179864D02*
X0116363Y0179864D01*
X0116363Y0180462D02*
X0116080Y0180462D01*
X0115832Y0181061D02*
X0116363Y0181061D01*
X0116363Y0181659D02*
X0115489Y0181659D01*
X0114891Y0182258D02*
X0116363Y0182258D01*
X0116363Y0182856D02*
X0113772Y0182856D01*
X0113315Y0183455D02*
X0116363Y0183455D01*
X0116363Y0184053D02*
X0113914Y0184053D01*
X0114512Y0184652D02*
X0116363Y0184652D01*
X0116363Y0185250D02*
X0115111Y0185250D01*
X0115709Y0185849D02*
X0116363Y0185849D01*
X0116363Y0186447D02*
X0116308Y0186447D01*
X0116363Y0187046D02*
X0116363Y0187046D01*
X0116363Y0187644D02*
X0116363Y0187644D01*
X0116363Y0188243D02*
X0116363Y0188243D01*
X0116363Y0188841D02*
X0116363Y0188841D01*
X0116363Y0189440D02*
X0116363Y0189440D01*
X0116363Y0190039D02*
X0116363Y0190039D01*
X0116363Y0190637D02*
X0116363Y0190637D01*
X0116363Y0191236D02*
X0116363Y0191236D01*
X0116363Y0191834D02*
X0116363Y0191834D01*
X0116363Y0192433D02*
X0116363Y0192433D01*
X0116363Y0193031D02*
X0115829Y0193031D01*
X0116363Y0193630D02*
X0115231Y0193630D01*
X0114632Y0194228D02*
X0116363Y0194228D01*
X0114731Y0192433D02*
X0109596Y0192433D01*
X0110195Y0193031D02*
X0114132Y0193031D01*
X0115163Y0191834D02*
X0108998Y0191834D01*
X0108663Y0191236D02*
X0115163Y0191236D01*
X0115163Y0190637D02*
X0108663Y0190637D01*
X0108663Y0190039D02*
X0115163Y0190039D01*
X0115163Y0189440D02*
X0108663Y0189440D01*
X0108663Y0188841D02*
X0115163Y0188841D01*
X0115163Y0188243D02*
X0108663Y0188243D01*
X0108663Y0187644D02*
X0115163Y0187644D01*
X0115163Y0187046D02*
X0108663Y0187046D01*
X0108611Y0186447D02*
X0114611Y0186447D01*
X0114012Y0185849D02*
X0108012Y0185849D01*
X0103752Y0183455D02*
X0103075Y0183455D01*
X0096299Y0184053D02*
X0094028Y0184053D01*
X0094783Y0183455D02*
X0095544Y0183455D01*
X0091299Y0184053D02*
X0089293Y0184053D01*
X0089045Y0183455D02*
X0090544Y0183455D01*
X0090107Y0182856D02*
X0088621Y0182856D01*
X0087575Y0178068D02*
X0071563Y0178068D01*
X0071563Y0177470D02*
X0086977Y0177470D01*
X0086873Y0176871D02*
X0071563Y0176871D01*
X0071563Y0176273D02*
X0086456Y0176273D01*
X0085858Y0175674D02*
X0071563Y0175674D01*
X0071563Y0175076D02*
X0085259Y0175076D01*
X0084661Y0174477D02*
X0071563Y0174477D01*
X0071563Y0173879D02*
X0084062Y0173879D01*
X0083763Y0173280D02*
X0071563Y0173280D01*
X0071962Y0172682D02*
X0083763Y0172682D01*
X0083763Y0172083D02*
X0072560Y0172083D01*
X0073159Y0171485D02*
X0083763Y0171485D01*
X0083763Y0170886D02*
X0073757Y0170886D01*
X0074356Y0170288D02*
X0083763Y0170288D01*
X0083763Y0169689D02*
X0074954Y0169689D01*
X0075553Y0169091D02*
X0083763Y0169091D01*
X0083763Y0168492D02*
X0075763Y0168492D01*
X0075763Y0167894D02*
X0083763Y0167894D01*
X0083763Y0167295D02*
X0075763Y0167295D01*
X0075763Y0166697D02*
X0083680Y0166697D01*
X0083082Y0166098D02*
X0075763Y0166098D01*
X0075763Y0165500D02*
X0082483Y0165500D01*
X0081885Y0164901D02*
X0075763Y0164901D01*
X0075763Y0164303D02*
X0081286Y0164303D01*
X0080688Y0163704D02*
X0075763Y0163704D01*
X0075763Y0163105D02*
X0080089Y0163105D01*
X0079491Y0162507D02*
X0075763Y0162507D01*
X0075763Y0161908D02*
X0078892Y0161908D01*
X0078294Y0161310D02*
X0075763Y0161310D01*
X0075763Y0160711D02*
X0077695Y0160711D01*
X0081655Y0160711D02*
X0085863Y0160711D01*
X0085863Y0160113D02*
X0082307Y0160113D01*
X0082906Y0159514D02*
X0085863Y0159514D01*
X0085863Y0158916D02*
X0083354Y0158916D01*
X0083354Y0158317D02*
X0085863Y0158317D01*
X0085863Y0157719D02*
X0083354Y0157719D01*
X0083300Y0157120D02*
X0085863Y0157120D01*
X0085863Y0156522D02*
X0083898Y0156522D01*
X0084254Y0155923D02*
X0085430Y0155923D01*
X0084832Y0155325D02*
X0084254Y0155325D01*
X0084254Y0154726D02*
X0084473Y0154726D01*
X0084473Y0154128D02*
X0083948Y0154128D01*
X0084473Y0153529D02*
X0083349Y0153529D01*
X0084776Y0152931D02*
X0079454Y0152931D01*
X0079454Y0153529D02*
X0080978Y0153529D01*
X0080379Y0154128D02*
X0080248Y0154128D01*
X0079152Y0152332D02*
X0085375Y0152332D01*
X0087563Y0151734D02*
X0078554Y0151734D01*
X0078854Y0151135D02*
X0087563Y0151135D01*
X0087563Y0150537D02*
X0078854Y0150537D01*
X0078854Y0149938D02*
X0087563Y0149938D01*
X0087563Y0149340D02*
X0078660Y0149340D01*
X0078061Y0148741D02*
X0087563Y0148741D01*
X0087563Y0148143D02*
X0073863Y0148143D01*
X0073954Y0148741D02*
X0075466Y0148741D01*
X0074867Y0149340D02*
X0073954Y0149340D01*
X0073264Y0147544D02*
X0087563Y0147544D01*
X0093163Y0147544D02*
X0106163Y0147544D01*
X0106163Y0146946D02*
X0093163Y0146946D01*
X0093163Y0146347D02*
X0106163Y0146347D01*
X0106074Y0145749D02*
X0093753Y0145749D01*
X0094352Y0145150D02*
X0105475Y0145150D01*
X0104877Y0144552D02*
X0094950Y0144552D01*
X0095549Y0143953D02*
X0104863Y0143953D01*
X0104863Y0143355D02*
X0096147Y0143355D01*
X0096746Y0142756D02*
X0104863Y0142756D01*
X0104863Y0142158D02*
X0097344Y0142158D01*
X0097943Y0141559D02*
X0104863Y0141559D01*
X0104863Y0140961D02*
X0098541Y0140961D01*
X0098963Y0140362D02*
X0104863Y0140362D01*
X0104863Y0139764D02*
X0098963Y0139764D01*
X0098963Y0139165D02*
X0104863Y0139165D01*
X0104863Y0138567D02*
X0098963Y0138567D01*
X0098963Y0137968D02*
X0104863Y0137968D01*
X0104863Y0137370D02*
X0098963Y0137370D01*
X0098963Y0136771D02*
X0104863Y0136771D01*
X0104863Y0136172D02*
X0098963Y0136172D01*
X0098963Y0135574D02*
X0104863Y0135574D01*
X0104863Y0134975D02*
X0099144Y0134975D01*
X0099743Y0134377D02*
X0104863Y0134377D01*
X0104863Y0133778D02*
X0099754Y0133778D01*
X0099754Y0133180D02*
X0104863Y0133180D01*
X0104863Y0132581D02*
X0099701Y0132581D01*
X0099103Y0131983D02*
X0104863Y0131983D01*
X0104863Y0131384D02*
X0096454Y0131384D01*
X0096454Y0130786D02*
X0104863Y0130786D01*
X0104863Y0130187D02*
X0096207Y0130187D01*
X0095609Y0129589D02*
X0104863Y0129589D01*
X0104863Y0128990D02*
X0094754Y0128990D01*
X0094754Y0128392D02*
X0104717Y0128392D01*
X0104118Y0127793D02*
X0094754Y0127793D01*
X0094315Y0127195D02*
X0103520Y0127195D01*
X0108963Y0128990D02*
X0109138Y0128990D01*
X0109138Y0129589D02*
X0108963Y0129589D01*
X0108963Y0130187D02*
X0109138Y0130187D01*
X0108963Y0130786D02*
X0109381Y0130786D01*
X0109629Y0131384D02*
X0108963Y0131384D01*
X0108963Y0131983D02*
X0110161Y0131983D01*
X0110891Y0132581D02*
X0108963Y0132581D01*
X0108963Y0133180D02*
X0116363Y0133180D01*
X0116363Y0133778D02*
X0108963Y0133778D01*
X0108963Y0134377D02*
X0116363Y0134377D01*
X0116363Y0134975D02*
X0108977Y0134975D01*
X0109576Y0135574D02*
X0116363Y0135574D01*
X0116363Y0136172D02*
X0113841Y0136172D01*
X0114920Y0136771D02*
X0116363Y0136771D01*
X0116363Y0137370D02*
X0115518Y0137370D01*
X0115844Y0137968D02*
X0116363Y0137968D01*
X0116363Y0138567D02*
X0116092Y0138567D01*
X0116188Y0139165D02*
X0116363Y0139165D01*
X0116363Y0139764D02*
X0116188Y0139764D01*
X0116122Y0140362D02*
X0116363Y0140362D01*
X0116363Y0140961D02*
X0115874Y0140961D01*
X0115589Y0141559D02*
X0116363Y0141559D01*
X0116363Y0142158D02*
X0114991Y0142158D01*
X0114014Y0142756D02*
X0116363Y0142756D01*
X0116363Y0143355D02*
X0107463Y0143355D01*
X0107463Y0142756D02*
X0111313Y0142756D01*
X0110336Y0142158D02*
X0107463Y0142158D01*
X0107463Y0141559D02*
X0109737Y0141559D01*
X0109453Y0140961D02*
X0107463Y0140961D01*
X0107463Y0140362D02*
X0109205Y0140362D01*
X0109138Y0139764D02*
X0107463Y0139764D01*
X0107463Y0139165D02*
X0109138Y0139165D01*
X0108892Y0138567D02*
X0107463Y0138567D01*
X0107463Y0137968D02*
X0108293Y0137968D01*
X0107695Y0137370D02*
X0107463Y0137370D01*
X0110174Y0136172D02*
X0111486Y0136172D01*
X0114435Y0132581D02*
X0116363Y0132581D01*
X0116363Y0131983D02*
X0115166Y0131983D01*
X0115698Y0131384D02*
X0116363Y0131384D01*
X0116363Y0130786D02*
X0115946Y0130786D01*
X0116188Y0130187D02*
X0116363Y0130187D01*
X0116363Y0129589D02*
X0116188Y0129589D01*
X0116188Y0128990D02*
X0116363Y0128990D01*
X0116363Y0128392D02*
X0116020Y0128392D01*
X0115772Y0127793D02*
X0116363Y0127793D01*
X0116363Y0127195D02*
X0115343Y0127195D01*
X0114745Y0126596D02*
X0116363Y0126596D01*
X0116363Y0125998D02*
X0113420Y0125998D01*
X0111907Y0125998D02*
X0110000Y0125998D01*
X0109401Y0125399D02*
X0116363Y0125399D01*
X0116363Y0124801D02*
X0108963Y0124801D01*
X0108963Y0124202D02*
X0116363Y0124202D01*
X0116363Y0123604D02*
X0108963Y0123604D01*
X0108963Y0123005D02*
X0111915Y0123005D01*
X0111962Y0123025D02*
X0110667Y0122488D01*
X0109675Y0121497D01*
X0109138Y0120201D01*
X0109138Y0118799D01*
X0109675Y0117503D01*
X0110667Y0116512D01*
X0111962Y0115975D01*
X0113365Y0115975D01*
X0114660Y0116512D01*
X0115652Y0117503D01*
X0116188Y0118799D01*
X0116188Y0120201D01*
X0115652Y0121497D01*
X0114660Y0122488D01*
X0113365Y0123025D01*
X0111962Y0123025D01*
X0113412Y0123005D02*
X0116363Y0123005D01*
X0116363Y0122407D02*
X0114742Y0122407D01*
X0115340Y0121808D02*
X0116363Y0121808D01*
X0116363Y0121210D02*
X0115771Y0121210D01*
X0116019Y0120611D02*
X0116363Y0120611D01*
X0116363Y0120013D02*
X0116188Y0120013D01*
X0116188Y0119414D02*
X0116363Y0119414D01*
X0116363Y0118816D02*
X0116188Y0118816D01*
X0116363Y0118217D02*
X0115948Y0118217D01*
X0115700Y0117619D02*
X0116363Y0117619D01*
X0116363Y0117020D02*
X0115169Y0117020D01*
X0114443Y0116422D02*
X0116363Y0116422D01*
X0116363Y0115823D02*
X0108963Y0115823D01*
X0108963Y0115225D02*
X0116363Y0115225D01*
X0116363Y0114626D02*
X0108963Y0114626D01*
X0108963Y0114028D02*
X0116363Y0114028D01*
X0116363Y0113429D02*
X0108963Y0113429D01*
X0108963Y0112831D02*
X0111493Y0112831D01*
X0111962Y0113025D02*
X0110667Y0112488D01*
X0109675Y0111497D01*
X0109138Y0110201D01*
X0109138Y0108799D01*
X0109675Y0107503D01*
X0110667Y0106512D01*
X0111962Y0105975D01*
X0113365Y0105975D01*
X0114660Y0106512D01*
X0115652Y0107503D01*
X0116188Y0108799D01*
X0116188Y0110201D01*
X0115652Y0111497D01*
X0114660Y0112488D01*
X0113365Y0113025D01*
X0111962Y0113025D01*
X0110410Y0112232D02*
X0108963Y0112232D01*
X0108963Y0111634D02*
X0109812Y0111634D01*
X0109484Y0111035D02*
X0108963Y0111035D01*
X0108963Y0110437D02*
X0109236Y0110437D01*
X0109138Y0109838D02*
X0108963Y0109838D01*
X0108963Y0109239D02*
X0109138Y0109239D01*
X0109204Y0108641D02*
X0108963Y0108641D01*
X0108963Y0108042D02*
X0109452Y0108042D01*
X0109734Y0107444D02*
X0108963Y0107444D01*
X0108847Y0106845D02*
X0110333Y0106845D01*
X0111306Y0106247D02*
X0108249Y0106247D01*
X0107650Y0105648D02*
X0116363Y0105648D01*
X0116363Y0105050D02*
X0107052Y0105050D01*
X0106453Y0104451D02*
X0116363Y0104451D01*
X0116363Y0103853D02*
X0105855Y0103853D01*
X0105256Y0103254D02*
X0116363Y0103254D01*
X0116363Y0102656D02*
X0114256Y0102656D01*
X0115091Y0102057D02*
X0116363Y0102057D01*
X0116363Y0101459D02*
X0115668Y0101459D01*
X0115915Y0100860D02*
X0116363Y0100860D01*
X0116363Y0100262D02*
X0116163Y0100262D01*
X0116188Y0099663D02*
X0116363Y0099663D01*
X0116363Y0099065D02*
X0116188Y0099065D01*
X0116051Y0098466D02*
X0116363Y0098466D01*
X0116363Y0097868D02*
X0115803Y0097868D01*
X0115418Y0097269D02*
X0116363Y0097269D01*
X0116363Y0096671D02*
X0114819Y0096671D01*
X0113599Y0096072D02*
X0116363Y0096072D01*
X0116363Y0095474D02*
X0097028Y0095474D01*
X0097627Y0094875D02*
X0116363Y0094875D01*
X0116363Y0094277D02*
X0098225Y0094277D01*
X0098824Y0093678D02*
X0116363Y0093678D01*
X0116363Y0085299D02*
X0103703Y0085299D01*
X0104301Y0084701D02*
X0116363Y0084701D01*
X0116363Y0084102D02*
X0104900Y0084102D01*
X0105498Y0083503D02*
X0116363Y0083503D01*
X0116363Y0082905D02*
X0113654Y0082905D01*
X0113365Y0083025D02*
X0111962Y0083025D01*
X0110667Y0082488D01*
X0109675Y0081497D01*
X0109138Y0080201D01*
X0109138Y0078799D01*
X0109675Y0077503D01*
X0110667Y0076512D01*
X0111962Y0075975D01*
X0113365Y0075975D01*
X0114660Y0076512D01*
X0115652Y0077503D01*
X0116188Y0078799D01*
X0116188Y0080201D01*
X0115652Y0081497D01*
X0114660Y0082488D01*
X0113365Y0083025D01*
X0114842Y0082306D02*
X0116363Y0082306D01*
X0116363Y0081708D02*
X0115441Y0081708D01*
X0115812Y0081109D02*
X0116363Y0081109D01*
X0116363Y0080511D02*
X0116060Y0080511D01*
X0116188Y0079912D02*
X0116363Y0079912D01*
X0116363Y0079314D02*
X0116188Y0079314D01*
X0116154Y0078715D02*
X0116363Y0078715D01*
X0116363Y0078117D02*
X0115906Y0078117D01*
X0115658Y0077518D02*
X0116363Y0077518D01*
X0116363Y0076920D02*
X0115068Y0076920D01*
X0114201Y0076321D02*
X0116363Y0076321D01*
X0116363Y0075723D02*
X0108963Y0075723D01*
X0108963Y0076321D02*
X0111126Y0076321D01*
X0110259Y0076920D02*
X0108963Y0076920D01*
X0108963Y0077518D02*
X0109669Y0077518D01*
X0109421Y0078117D02*
X0108963Y0078117D01*
X0108963Y0078715D02*
X0109173Y0078715D01*
X0109138Y0079314D02*
X0108963Y0079314D01*
X0108963Y0079912D02*
X0109138Y0079912D01*
X0109267Y0080511D02*
X0108491Y0080511D01*
X0107892Y0081109D02*
X0109515Y0081109D01*
X0109886Y0081708D02*
X0107294Y0081708D01*
X0106695Y0082306D02*
X0110485Y0082306D01*
X0111673Y0082905D02*
X0106097Y0082905D01*
X0108963Y0075124D02*
X0116363Y0075124D01*
X0116363Y0074526D02*
X0108963Y0074526D01*
X0108963Y0073927D02*
X0116363Y0073927D01*
X0116363Y0073329D02*
X0108963Y0073329D01*
X0108963Y0072730D02*
X0111251Y0072730D01*
X0110667Y0072488D02*
X0109675Y0071497D01*
X0109138Y0070201D01*
X0109138Y0068799D01*
X0109675Y0067503D01*
X0110667Y0066512D01*
X0111962Y0065975D01*
X0113365Y0065975D01*
X0114660Y0066512D01*
X0115652Y0067503D01*
X0116188Y0068799D01*
X0116188Y0070201D01*
X0115652Y0071497D01*
X0114660Y0072488D01*
X0113365Y0073025D01*
X0111962Y0073025D01*
X0110667Y0072488D01*
X0110310Y0072132D02*
X0108963Y0072132D01*
X0108963Y0071533D02*
X0109712Y0071533D01*
X0109442Y0070935D02*
X0108963Y0070935D01*
X0108963Y0070336D02*
X0109194Y0070336D01*
X0109138Y0069738D02*
X0108963Y0069738D01*
X0108963Y0069139D02*
X0109138Y0069139D01*
X0109245Y0068541D02*
X0108963Y0068541D01*
X0108963Y0067942D02*
X0109493Y0067942D01*
X0109835Y0067344D02*
X0108963Y0067344D01*
X0108963Y0066745D02*
X0110433Y0066745D01*
X0111548Y0066147D02*
X0108963Y0066147D01*
X0108963Y0065548D02*
X0116363Y0065548D01*
X0116363Y0064950D02*
X0108963Y0064950D01*
X0108963Y0064351D02*
X0116363Y0064351D01*
X0116363Y0063753D02*
X0108963Y0063753D01*
X0108963Y0063154D02*
X0116363Y0063154D01*
X0116363Y0062556D02*
X0114498Y0062556D01*
X0114660Y0062488D02*
X0113365Y0063025D01*
X0111962Y0063025D01*
X0110667Y0062488D01*
X0109675Y0061497D01*
X0109138Y0060201D01*
X0109138Y0058799D01*
X0109675Y0057503D01*
X0110667Y0056512D01*
X0111962Y0055975D01*
X0113365Y0055975D01*
X0114660Y0056512D01*
X0115652Y0057503D01*
X0116188Y0058799D01*
X0116188Y0060201D01*
X0115652Y0061497D01*
X0114660Y0062488D01*
X0115191Y0061957D02*
X0116363Y0061957D01*
X0116363Y0061359D02*
X0115709Y0061359D01*
X0115957Y0060760D02*
X0116363Y0060760D01*
X0116363Y0060162D02*
X0116188Y0060162D01*
X0116188Y0059563D02*
X0116363Y0059563D01*
X0116363Y0058965D02*
X0116188Y0058965D01*
X0116363Y0058366D02*
X0116009Y0058366D01*
X0115761Y0057768D02*
X0116363Y0057768D01*
X0116363Y0057169D02*
X0115318Y0057169D01*
X0114719Y0056570D02*
X0116363Y0056570D01*
X0116363Y0055972D02*
X0108963Y0055972D01*
X0108963Y0056570D02*
X0110608Y0056570D01*
X0110009Y0057169D02*
X0108963Y0057169D01*
X0108963Y0057768D02*
X0109566Y0057768D01*
X0109318Y0058366D02*
X0108963Y0058366D01*
X0108963Y0058965D02*
X0109138Y0058965D01*
X0109138Y0059563D02*
X0108963Y0059563D01*
X0108963Y0060162D02*
X0109138Y0060162D01*
X0108963Y0060760D02*
X0109370Y0060760D01*
X0109618Y0061359D02*
X0108963Y0061359D01*
X0108963Y0061957D02*
X0110135Y0061957D01*
X0110829Y0062556D02*
X0108963Y0062556D01*
X0113779Y0066147D02*
X0116363Y0066147D01*
X0116363Y0066745D02*
X0114894Y0066745D01*
X0115492Y0067344D02*
X0116363Y0067344D01*
X0116363Y0067942D02*
X0115834Y0067942D01*
X0116082Y0068541D02*
X0116363Y0068541D01*
X0116363Y0069139D02*
X0116188Y0069139D01*
X0116188Y0069738D02*
X0116363Y0069738D01*
X0116363Y0070336D02*
X0116133Y0070336D01*
X0116363Y0070935D02*
X0115885Y0070935D01*
X0115615Y0071533D02*
X0116363Y0071533D01*
X0116363Y0072132D02*
X0115017Y0072132D01*
X0114076Y0072730D02*
X0116363Y0072730D01*
X0090667Y0083503D02*
X0079254Y0083503D01*
X0079254Y0082905D02*
X0090068Y0082905D01*
X0089470Y0082306D02*
X0078926Y0082306D01*
X0078328Y0081708D02*
X0088871Y0081708D01*
X0088273Y0081109D02*
X0078554Y0081109D01*
X0079153Y0080511D02*
X0087674Y0080511D01*
X0087076Y0079912D02*
X0079751Y0079912D01*
X0080350Y0079314D02*
X0086477Y0079314D01*
X0079850Y0078117D02*
X0054619Y0078117D01*
X0055217Y0078715D02*
X0079251Y0078715D01*
X0078652Y0079314D02*
X0055816Y0079314D01*
X0056414Y0079912D02*
X0078054Y0079912D01*
X0077455Y0080511D02*
X0057013Y0080511D01*
X0057611Y0081109D02*
X0076857Y0081109D01*
X0075999Y0081708D02*
X0058210Y0081708D01*
X0058808Y0082306D02*
X0075401Y0082306D01*
X0075061Y0082905D02*
X0059407Y0082905D01*
X0060005Y0083503D02*
X0074463Y0083503D01*
X0073864Y0084102D02*
X0073722Y0084102D01*
X0071605Y0084102D02*
X0060604Y0084102D01*
X0061202Y0084701D02*
X0071006Y0084701D01*
X0070573Y0085299D02*
X0070301Y0085299D01*
X0073294Y0088292D02*
X0074499Y0088292D01*
X0073892Y0088890D02*
X0078317Y0088890D01*
X0078073Y0089489D02*
X0074491Y0089489D01*
X0075089Y0090087D02*
X0078073Y0090087D01*
X0078073Y0090686D02*
X0075688Y0090686D01*
X0076286Y0091284D02*
X0078491Y0091284D01*
X0079090Y0091883D02*
X0076885Y0091883D01*
X0076828Y0088292D02*
X0078915Y0088292D01*
X0080073Y0087693D02*
X0077427Y0087693D01*
X0077754Y0087095D02*
X0080073Y0087095D01*
X0080211Y0086496D02*
X0077754Y0086496D01*
X0077754Y0085898D02*
X0080809Y0085898D01*
X0078919Y0084701D02*
X0091864Y0084701D01*
X0092462Y0085299D02*
X0078321Y0085299D01*
X0079254Y0084102D02*
X0091265Y0084102D01*
X0093061Y0085898D02*
X0083517Y0085898D01*
X0077963Y0096072D02*
X0089073Y0096072D01*
X0089073Y0096671D02*
X0077963Y0096671D01*
X0077963Y0097269D02*
X0089476Y0097269D01*
X0090075Y0097868D02*
X0077963Y0097868D01*
X0077963Y0098466D02*
X0089741Y0098466D01*
X0089142Y0099065D02*
X0077963Y0099065D01*
X0077963Y0099663D02*
X0089073Y0099663D01*
X0089073Y0100262D02*
X0077963Y0100262D01*
X0077963Y0100860D02*
X0089073Y0100860D01*
X0089666Y0101459D02*
X0077963Y0101459D01*
X0077963Y0102057D02*
X0090264Y0102057D01*
X0092063Y0102057D02*
X0093264Y0102057D01*
X0092666Y0101459D02*
X0092661Y0101459D01*
X0096459Y0108042D02*
X0102206Y0108042D01*
X0102804Y0108641D02*
X0095861Y0108641D01*
X0095463Y0109239D02*
X0103363Y0109239D01*
X0103363Y0109838D02*
X0095463Y0109838D01*
X0096056Y0110437D02*
X0103363Y0110437D01*
X0103363Y0111035D02*
X0096254Y0111035D01*
X0096254Y0111634D02*
X0103363Y0111634D01*
X0103363Y0112232D02*
X0096254Y0112232D01*
X0095789Y0112831D02*
X0103363Y0112831D01*
X0103363Y0113429D02*
X0095191Y0113429D01*
X0084043Y0110437D02*
X0079483Y0110437D01*
X0079554Y0109838D02*
X0083773Y0109838D01*
X0083773Y0109239D02*
X0079554Y0109239D01*
X0079554Y0108641D02*
X0083773Y0108641D01*
X0084165Y0108042D02*
X0078962Y0108042D01*
X0078364Y0107444D02*
X0084763Y0107444D01*
X0069363Y0107109D02*
X0069363Y0096038D01*
X0068754Y0095429D01*
X0068754Y0095866D01*
X0067529Y0097091D01*
X0065798Y0097091D01*
X0064573Y0095866D01*
X0064573Y0094134D01*
X0064907Y0093800D01*
X0058863Y0093800D01*
X0047663Y0105000D01*
X0047663Y0123244D01*
X0048498Y0122409D01*
X0050229Y0122409D01*
X0051454Y0123634D01*
X0051454Y0123871D01*
X0051863Y0123462D01*
X0051863Y0121591D01*
X0051298Y0121591D01*
X0050073Y0120366D01*
X0050073Y0118634D01*
X0051298Y0117409D01*
X0053029Y0117409D01*
X0053363Y0117744D01*
X0053363Y0113538D01*
X0053363Y0112462D01*
X0057363Y0108462D01*
X0057363Y0099262D01*
X0059163Y0097462D01*
X0059925Y0096700D01*
X0061007Y0096700D01*
X0061798Y0095909D01*
X0063529Y0095909D01*
X0064754Y0097134D01*
X0064754Y0098866D01*
X0064710Y0098909D01*
X0065029Y0098909D01*
X0065663Y0099544D01*
X0066298Y0098909D01*
X0068029Y0098909D01*
X0069254Y0100134D01*
X0069254Y0101866D01*
X0068029Y0103091D01*
X0066298Y0103091D01*
X0065663Y0102456D01*
X0065463Y0102656D01*
X0065463Y0104462D01*
X0067963Y0106962D01*
X0067963Y0108044D01*
X0068898Y0107109D01*
X0069363Y0107109D01*
X0069363Y0106845D02*
X0067847Y0106845D01*
X0067963Y0107444D02*
X0068563Y0107444D01*
X0067965Y0108042D02*
X0067963Y0108042D01*
X0067249Y0106247D02*
X0069363Y0106247D01*
X0069363Y0105648D02*
X0066650Y0105648D01*
X0066052Y0105050D02*
X0069363Y0105050D01*
X0069363Y0104451D02*
X0065463Y0104451D01*
X0065463Y0103853D02*
X0069363Y0103853D01*
X0069363Y0103254D02*
X0065463Y0103254D01*
X0065464Y0102656D02*
X0065863Y0102656D01*
X0068464Y0102656D02*
X0069363Y0102656D01*
X0069363Y0102057D02*
X0069063Y0102057D01*
X0069254Y0101459D02*
X0069363Y0101459D01*
X0069363Y0100860D02*
X0069254Y0100860D01*
X0069254Y0100262D02*
X0069363Y0100262D01*
X0069363Y0099663D02*
X0068783Y0099663D01*
X0069363Y0099065D02*
X0068185Y0099065D01*
X0069363Y0098466D02*
X0064754Y0098466D01*
X0064754Y0097868D02*
X0069363Y0097868D01*
X0069363Y0097269D02*
X0064754Y0097269D01*
X0064291Y0096671D02*
X0065378Y0096671D01*
X0064779Y0096072D02*
X0063692Y0096072D01*
X0064573Y0095474D02*
X0057190Y0095474D01*
X0056591Y0096072D02*
X0061635Y0096072D01*
X0061036Y0096671D02*
X0055993Y0096671D01*
X0055394Y0097269D02*
X0059356Y0097269D01*
X0058757Y0097868D02*
X0054796Y0097868D01*
X0054197Y0098466D02*
X0058159Y0098466D01*
X0057560Y0099065D02*
X0053599Y0099065D01*
X0053000Y0099663D02*
X0057363Y0099663D01*
X0057363Y0100262D02*
X0052402Y0100262D01*
X0051803Y0100860D02*
X0057363Y0100860D01*
X0057363Y0101459D02*
X0051205Y0101459D01*
X0050606Y0102057D02*
X0057363Y0102057D01*
X0057363Y0102656D02*
X0050008Y0102656D01*
X0049409Y0103254D02*
X0057363Y0103254D01*
X0057363Y0103853D02*
X0048811Y0103853D01*
X0048212Y0104451D02*
X0057363Y0104451D01*
X0057363Y0105050D02*
X0047663Y0105050D01*
X0047663Y0105648D02*
X0057363Y0105648D01*
X0057363Y0106247D02*
X0047663Y0106247D01*
X0047663Y0106845D02*
X0057363Y0106845D01*
X0057363Y0107444D02*
X0047663Y0107444D01*
X0047663Y0108042D02*
X0057363Y0108042D01*
X0057184Y0108641D02*
X0047663Y0108641D01*
X0047663Y0109239D02*
X0056586Y0109239D01*
X0055987Y0109838D02*
X0047663Y0109838D01*
X0047663Y0110437D02*
X0055388Y0110437D01*
X0054790Y0111035D02*
X0047663Y0111035D01*
X0047663Y0111634D02*
X0054191Y0111634D01*
X0053593Y0112232D02*
X0047663Y0112232D01*
X0047663Y0112831D02*
X0053363Y0112831D01*
X0053363Y0113429D02*
X0047663Y0113429D01*
X0047663Y0114028D02*
X0053363Y0114028D01*
X0053363Y0114626D02*
X0047663Y0114626D01*
X0047663Y0115225D02*
X0053363Y0115225D01*
X0053363Y0115823D02*
X0047663Y0115823D01*
X0047663Y0116422D02*
X0053363Y0116422D01*
X0053363Y0117020D02*
X0047663Y0117020D01*
X0047663Y0117619D02*
X0051088Y0117619D01*
X0050490Y0118217D02*
X0047663Y0118217D01*
X0047663Y0118816D02*
X0050073Y0118816D01*
X0050073Y0119414D02*
X0047663Y0119414D01*
X0047663Y0120013D02*
X0050073Y0120013D01*
X0050318Y0120611D02*
X0047663Y0120611D01*
X0047663Y0121210D02*
X0050917Y0121210D01*
X0051863Y0121808D02*
X0047663Y0121808D01*
X0047663Y0122407D02*
X0051863Y0122407D01*
X0051863Y0123005D02*
X0050825Y0123005D01*
X0051424Y0123604D02*
X0051721Y0123604D01*
X0047902Y0123005D02*
X0047663Y0123005D01*
X0046463Y0123005D02*
X0043412Y0123005D01*
X0043365Y0123025D02*
X0041962Y0123025D01*
X0040667Y0122488D01*
X0039675Y0121497D01*
X0039138Y0120201D01*
X0039138Y0118799D01*
X0039675Y0117503D01*
X0040667Y0116512D01*
X0041962Y0115975D01*
X0043365Y0115975D01*
X0044660Y0116512D01*
X0045652Y0117503D01*
X0046188Y0118799D01*
X0046188Y0120201D01*
X0045652Y0121497D01*
X0044660Y0122488D01*
X0043365Y0123025D01*
X0041915Y0123005D02*
X0038963Y0123005D01*
X0038963Y0122407D02*
X0040585Y0122407D01*
X0039987Y0121808D02*
X0038963Y0121808D01*
X0038963Y0121210D02*
X0039556Y0121210D01*
X0039308Y0120611D02*
X0038963Y0120611D01*
X0038963Y0120013D02*
X0039138Y0120013D01*
X0039138Y0119414D02*
X0038963Y0119414D01*
X0038963Y0118816D02*
X0039138Y0118816D01*
X0038963Y0118217D02*
X0039379Y0118217D01*
X0039627Y0117619D02*
X0038963Y0117619D01*
X0038963Y0117020D02*
X0040158Y0117020D01*
X0040884Y0116422D02*
X0038963Y0116422D01*
X0038963Y0115823D02*
X0046463Y0115823D01*
X0046463Y0115225D02*
X0038963Y0115225D01*
X0038963Y0114626D02*
X0046463Y0114626D01*
X0046463Y0114028D02*
X0038963Y0114028D01*
X0038963Y0113429D02*
X0046463Y0113429D01*
X0046463Y0112831D02*
X0043834Y0112831D01*
X0043365Y0113025D02*
X0041962Y0113025D01*
X0040667Y0112488D01*
X0039675Y0111497D01*
X0039138Y0110201D01*
X0039138Y0108799D01*
X0039675Y0107503D01*
X0040667Y0106512D01*
X0041962Y0105975D01*
X0043365Y0105975D01*
X0044660Y0106512D01*
X0045652Y0107503D01*
X0046188Y0108799D01*
X0046188Y0110201D01*
X0045652Y0111497D01*
X0044660Y0112488D01*
X0043365Y0113025D01*
X0044917Y0112232D02*
X0046463Y0112232D01*
X0046463Y0111634D02*
X0045515Y0111634D01*
X0045843Y0111035D02*
X0046463Y0111035D01*
X0046463Y0110437D02*
X0046091Y0110437D01*
X0046188Y0109838D02*
X0046463Y0109838D01*
X0046463Y0109239D02*
X0046188Y0109239D01*
X0046123Y0108641D02*
X0046463Y0108641D01*
X0046463Y0108042D02*
X0045875Y0108042D01*
X0045593Y0107444D02*
X0046463Y0107444D01*
X0046463Y0106845D02*
X0044994Y0106845D01*
X0044021Y0106247D02*
X0046463Y0106247D01*
X0046463Y0105648D02*
X0038963Y0105648D01*
X0038963Y0105050D02*
X0046463Y0105050D01*
X0046515Y0104451D02*
X0038963Y0104451D01*
X0038963Y0103853D02*
X0047114Y0103853D01*
X0047712Y0103254D02*
X0038963Y0103254D01*
X0038963Y0102656D02*
X0041071Y0102656D01*
X0040667Y0102488D02*
X0039675Y0101497D01*
X0039138Y0100201D01*
X0039138Y0098799D01*
X0039675Y0097503D01*
X0040667Y0096512D01*
X0041962Y0095975D01*
X0043365Y0095975D01*
X0044660Y0096512D01*
X0045652Y0097503D01*
X0046188Y0098799D01*
X0046188Y0100201D01*
X0045652Y0101497D01*
X0044660Y0102488D01*
X0043365Y0103025D01*
X0041962Y0103025D01*
X0040667Y0102488D01*
X0040236Y0102057D02*
X0038963Y0102057D01*
X0038963Y0101459D02*
X0039659Y0101459D01*
X0039412Y0100860D02*
X0038963Y0100860D01*
X0038963Y0100262D02*
X0039164Y0100262D01*
X0039138Y0099663D02*
X0038963Y0099663D01*
X0038963Y0099065D02*
X0039138Y0099065D01*
X0039276Y0098466D02*
X0038963Y0098466D01*
X0038963Y0097868D02*
X0039524Y0097868D01*
X0039909Y0097269D02*
X0038963Y0097269D01*
X0038963Y0096671D02*
X0040508Y0096671D01*
X0041728Y0096072D02*
X0038963Y0096072D01*
X0038963Y0095474D02*
X0055493Y0095474D01*
X0056091Y0094875D02*
X0038963Y0094875D01*
X0038963Y0094277D02*
X0056690Y0094277D01*
X0057288Y0093678D02*
X0038963Y0093678D01*
X0038963Y0093080D02*
X0057887Y0093080D01*
X0057306Y0092481D02*
X0044667Y0092481D01*
X0044660Y0092488D02*
X0043365Y0093025D01*
X0041962Y0093025D01*
X0040667Y0092488D01*
X0039675Y0091497D01*
X0039138Y0090201D01*
X0039138Y0088799D01*
X0039675Y0087503D01*
X0040667Y0086512D01*
X0041962Y0085975D01*
X0043365Y0085975D01*
X0044660Y0086512D01*
X0045652Y0087503D01*
X0046188Y0088799D01*
X0046188Y0090201D01*
X0045652Y0091497D01*
X0044660Y0092488D01*
X0045266Y0091883D02*
X0056708Y0091883D01*
X0056109Y0091284D02*
X0045740Y0091284D01*
X0045988Y0090686D02*
X0055511Y0090686D01*
X0054912Y0090087D02*
X0046188Y0090087D01*
X0046188Y0089489D02*
X0054314Y0089489D01*
X0053715Y0088890D02*
X0046188Y0088890D01*
X0045978Y0088292D02*
X0053117Y0088292D01*
X0052518Y0087693D02*
X0045730Y0087693D01*
X0045243Y0087095D02*
X0051920Y0087095D01*
X0051321Y0086496D02*
X0044623Y0086496D01*
X0040704Y0086496D02*
X0038963Y0086496D01*
X0038963Y0085898D02*
X0050723Y0085898D01*
X0050124Y0085299D02*
X0038963Y0085299D01*
X0038963Y0084701D02*
X0049526Y0084701D01*
X0048927Y0084102D02*
X0038963Y0084102D01*
X0038963Y0087095D02*
X0040084Y0087095D01*
X0039596Y0087693D02*
X0038963Y0087693D01*
X0038963Y0088292D02*
X0039349Y0088292D01*
X0039138Y0088890D02*
X0038963Y0088890D01*
X0038963Y0089489D02*
X0039138Y0089489D01*
X0039138Y0090087D02*
X0038963Y0090087D01*
X0038963Y0090686D02*
X0039339Y0090686D01*
X0039587Y0091284D02*
X0038963Y0091284D01*
X0038963Y0091883D02*
X0040061Y0091883D01*
X0040660Y0092481D02*
X0038963Y0092481D01*
X0043599Y0096072D02*
X0054894Y0096072D01*
X0054296Y0096671D02*
X0044819Y0096671D01*
X0045418Y0097269D02*
X0053697Y0097269D01*
X0053099Y0097868D02*
X0045803Y0097868D01*
X0046051Y0098466D02*
X0052500Y0098466D01*
X0051902Y0099065D02*
X0046188Y0099065D01*
X0046188Y0099663D02*
X0051303Y0099663D01*
X0050705Y0100262D02*
X0046163Y0100262D01*
X0045915Y0100860D02*
X0050106Y0100860D01*
X0049508Y0101459D02*
X0045668Y0101459D01*
X0045091Y0102057D02*
X0048909Y0102057D01*
X0048311Y0102656D02*
X0044256Y0102656D01*
X0041306Y0106247D02*
X0038963Y0106247D01*
X0038963Y0106845D02*
X0040333Y0106845D01*
X0039734Y0107444D02*
X0038963Y0107444D01*
X0038963Y0108042D02*
X0039452Y0108042D01*
X0039204Y0108641D02*
X0038963Y0108641D01*
X0038963Y0109239D02*
X0039138Y0109239D01*
X0039138Y0109838D02*
X0038963Y0109838D01*
X0038963Y0110437D02*
X0039236Y0110437D01*
X0039484Y0111035D02*
X0038963Y0111035D01*
X0038963Y0111634D02*
X0039812Y0111634D01*
X0040410Y0112232D02*
X0038963Y0112232D01*
X0038963Y0112831D02*
X0041493Y0112831D01*
X0044443Y0116422D02*
X0046463Y0116422D01*
X0046463Y0117020D02*
X0045169Y0117020D01*
X0045700Y0117619D02*
X0046463Y0117619D01*
X0046463Y0118217D02*
X0045948Y0118217D01*
X0046188Y0118816D02*
X0046463Y0118816D01*
X0046463Y0119414D02*
X0046188Y0119414D01*
X0046188Y0120013D02*
X0046463Y0120013D01*
X0046463Y0120611D02*
X0046019Y0120611D01*
X0045771Y0121210D02*
X0046463Y0121210D01*
X0046463Y0121808D02*
X0045340Y0121808D01*
X0044742Y0122407D02*
X0046463Y0122407D01*
X0046463Y0123604D02*
X0038963Y0123604D01*
X0038963Y0124202D02*
X0046463Y0124202D01*
X0046463Y0124801D02*
X0038963Y0124801D01*
X0038963Y0125399D02*
X0046866Y0125399D01*
X0047464Y0125998D02*
X0043420Y0125998D01*
X0043365Y0125975D02*
X0044660Y0126512D01*
X0045652Y0127503D01*
X0046188Y0128799D01*
X0046188Y0130201D01*
X0045652Y0131497D01*
X0044660Y0132488D01*
X0043365Y0133025D01*
X0041962Y0133025D01*
X0040667Y0132488D01*
X0039675Y0131497D01*
X0039138Y0130201D01*
X0039138Y0128799D01*
X0039675Y0127503D01*
X0040667Y0126512D01*
X0041962Y0125975D01*
X0043365Y0125975D01*
X0041907Y0125998D02*
X0038963Y0125998D01*
X0038963Y0126596D02*
X0040582Y0126596D01*
X0039984Y0127195D02*
X0038963Y0127195D01*
X0038963Y0127793D02*
X0039555Y0127793D01*
X0039307Y0128392D02*
X0038963Y0128392D01*
X0038963Y0128990D02*
X0039138Y0128990D01*
X0039138Y0129589D02*
X0038963Y0129589D01*
X0038963Y0130187D02*
X0039138Y0130187D01*
X0038963Y0130786D02*
X0039381Y0130786D01*
X0039629Y0131384D02*
X0038963Y0131384D01*
X0038963Y0131983D02*
X0040161Y0131983D01*
X0040891Y0132581D02*
X0038963Y0132581D01*
X0038963Y0133180D02*
X0047145Y0133180D01*
X0046547Y0133778D02*
X0038963Y0133778D01*
X0038963Y0134377D02*
X0045948Y0134377D01*
X0045350Y0134975D02*
X0038963Y0134975D01*
X0038963Y0135574D02*
X0044751Y0135574D01*
X0044152Y0136172D02*
X0043841Y0136172D01*
X0041486Y0136172D02*
X0038963Y0136172D01*
X0038963Y0136771D02*
X0040407Y0136771D01*
X0039809Y0137370D02*
X0038963Y0137370D01*
X0038963Y0137968D02*
X0039483Y0137968D01*
X0039235Y0138567D02*
X0038963Y0138567D01*
X0038963Y0139165D02*
X0039138Y0139165D01*
X0039138Y0139764D02*
X0038963Y0139764D01*
X0038963Y0140362D02*
X0039205Y0140362D01*
X0038963Y0140961D02*
X0039453Y0140961D01*
X0039737Y0141559D02*
X0038963Y0141559D01*
X0038963Y0142158D02*
X0040336Y0142158D01*
X0041313Y0142756D02*
X0038963Y0142756D01*
X0038963Y0143355D02*
X0046363Y0143355D01*
X0046363Y0143953D02*
X0038963Y0143953D01*
X0038963Y0144552D02*
X0045773Y0144552D01*
X0045175Y0145150D02*
X0038963Y0145150D01*
X0038963Y0145749D02*
X0044576Y0145749D01*
X0045917Y0148143D02*
X0046363Y0148143D01*
X0046363Y0148741D02*
X0046165Y0148741D01*
X0046188Y0149340D02*
X0046363Y0149340D01*
X0046363Y0149938D02*
X0046188Y0149938D01*
X0046049Y0150537D02*
X0046363Y0150537D01*
X0046363Y0151135D02*
X0045802Y0151135D01*
X0045415Y0151734D02*
X0046363Y0151734D01*
X0046363Y0152332D02*
X0044816Y0152332D01*
X0043592Y0152931D02*
X0046363Y0152931D01*
X0046363Y0153529D02*
X0038963Y0153529D01*
X0038963Y0152931D02*
X0041735Y0152931D01*
X0040511Y0152332D02*
X0038963Y0152332D01*
X0038963Y0151734D02*
X0039912Y0151734D01*
X0039525Y0151135D02*
X0038963Y0151135D01*
X0038963Y0150537D02*
X0039277Y0150537D01*
X0039138Y0149938D02*
X0038963Y0149938D01*
X0038963Y0149340D02*
X0039138Y0149340D01*
X0039162Y0148741D02*
X0038963Y0148741D01*
X0038963Y0148143D02*
X0039410Y0148143D01*
X0039658Y0147544D02*
X0038963Y0147544D01*
X0038963Y0146946D02*
X0040233Y0146946D01*
X0041064Y0146347D02*
X0038963Y0146347D01*
X0044014Y0142756D02*
X0046363Y0142756D01*
X0046363Y0142158D02*
X0044991Y0142158D01*
X0045589Y0141559D02*
X0046363Y0141559D01*
X0046363Y0140961D02*
X0045874Y0140961D01*
X0046122Y0140362D02*
X0046363Y0140362D01*
X0046363Y0139764D02*
X0046188Y0139764D01*
X0046188Y0139165D02*
X0046363Y0139165D01*
X0046363Y0138567D02*
X0046092Y0138567D01*
X0046034Y0137968D02*
X0046363Y0137968D01*
X0047744Y0132581D02*
X0044435Y0132581D01*
X0045166Y0131983D02*
X0047863Y0131983D01*
X0047863Y0131384D02*
X0045698Y0131384D01*
X0045946Y0130786D02*
X0047863Y0130786D01*
X0047863Y0130187D02*
X0046188Y0130187D01*
X0046188Y0129589D02*
X0047863Y0129589D01*
X0047863Y0128990D02*
X0046188Y0128990D01*
X0046020Y0128392D02*
X0047863Y0128392D01*
X0047863Y0127793D02*
X0045772Y0127793D01*
X0045343Y0127195D02*
X0047963Y0127195D01*
X0047963Y0126596D02*
X0044745Y0126596D01*
X0053239Y0117619D02*
X0053363Y0117619D01*
X0065185Y0099065D02*
X0066142Y0099065D01*
X0067949Y0096671D02*
X0069363Y0096671D01*
X0069363Y0096072D02*
X0068548Y0096072D01*
X0068754Y0095474D02*
X0068799Y0095474D01*
X0064573Y0094875D02*
X0057788Y0094875D01*
X0058387Y0094277D02*
X0064573Y0094277D01*
X0104658Y0102656D02*
X0111071Y0102656D01*
X0114021Y0106247D02*
X0116363Y0106247D01*
X0116363Y0106845D02*
X0114994Y0106845D01*
X0115593Y0107444D02*
X0116363Y0107444D01*
X0116363Y0108042D02*
X0115875Y0108042D01*
X0116123Y0108641D02*
X0116363Y0108641D01*
X0116363Y0109239D02*
X0116188Y0109239D01*
X0116188Y0109838D02*
X0116363Y0109838D01*
X0116363Y0110437D02*
X0116091Y0110437D01*
X0115843Y0111035D02*
X0116363Y0111035D01*
X0116363Y0111634D02*
X0115515Y0111634D01*
X0114917Y0112232D02*
X0116363Y0112232D01*
X0116363Y0112831D02*
X0113834Y0112831D01*
X0110884Y0116422D02*
X0108963Y0116422D01*
X0108963Y0117020D02*
X0110158Y0117020D01*
X0109627Y0117619D02*
X0108963Y0117619D01*
X0108963Y0118217D02*
X0109379Y0118217D01*
X0109138Y0118816D02*
X0108963Y0118816D01*
X0108963Y0119414D02*
X0109138Y0119414D01*
X0109138Y0120013D02*
X0108963Y0120013D01*
X0108963Y0120611D02*
X0109308Y0120611D01*
X0109556Y0121210D02*
X0108963Y0121210D01*
X0108963Y0121808D02*
X0109987Y0121808D01*
X0110585Y0122407D02*
X0108963Y0122407D01*
X0107955Y0143953D02*
X0116363Y0143953D01*
X0116363Y0144552D02*
X0108554Y0144552D01*
X0109152Y0145150D02*
X0116363Y0145150D01*
X0116363Y0145749D02*
X0109751Y0145749D01*
X0110349Y0146347D02*
X0111064Y0146347D01*
X0109066Y0148741D02*
X0107363Y0148741D01*
X0107363Y0148143D02*
X0108468Y0148143D01*
X0107869Y0147544D02*
X0107363Y0147544D01*
X0106163Y0148143D02*
X0093163Y0148143D01*
X0093163Y0148741D02*
X0106163Y0148741D01*
X0106163Y0149340D02*
X0093163Y0149340D01*
X0093163Y0149938D02*
X0106163Y0149938D01*
X0106163Y0150537D02*
X0093163Y0150537D01*
X0093163Y0151135D02*
X0106163Y0151135D01*
X0106163Y0151734D02*
X0093163Y0151734D01*
X0093163Y0152332D02*
X0106163Y0152332D01*
X0106163Y0152931D02*
X0102551Y0152931D01*
X0102029Y0152409D02*
X0103254Y0153634D01*
X0103254Y0155366D01*
X0102710Y0155909D01*
X0103029Y0155909D01*
X0104254Y0157134D01*
X0104254Y0158866D01*
X0103029Y0160091D01*
X0101298Y0160091D01*
X0100073Y0158866D01*
X0100073Y0157134D01*
X0100616Y0156591D01*
X0100298Y0156591D01*
X0099073Y0155366D01*
X0099073Y0153634D01*
X0100298Y0152409D01*
X0102029Y0152409D01*
X0103149Y0153529D02*
X0106163Y0153529D01*
X0106163Y0154128D02*
X0103254Y0154128D01*
X0103254Y0154726D02*
X0106163Y0154726D01*
X0106163Y0155325D02*
X0103254Y0155325D01*
X0103043Y0155923D02*
X0106163Y0155923D01*
X0106163Y0156522D02*
X0103642Y0156522D01*
X0104240Y0157120D02*
X0106163Y0157120D01*
X0106163Y0157719D02*
X0104254Y0157719D01*
X0104254Y0158317D02*
X0106163Y0158317D01*
X0106163Y0158916D02*
X0104204Y0158916D01*
X0103606Y0159514D02*
X0106163Y0159514D01*
X0106163Y0160113D02*
X0091463Y0160113D01*
X0091463Y0160711D02*
X0106163Y0160711D01*
X0106163Y0161310D02*
X0091463Y0161310D01*
X0091463Y0161908D02*
X0106163Y0161908D01*
X0106163Y0162507D02*
X0091509Y0162507D01*
X0092107Y0163105D02*
X0106163Y0163105D01*
X0106163Y0163704D02*
X0092706Y0163704D01*
X0093304Y0164303D02*
X0106163Y0164303D01*
X0106163Y0164901D02*
X0093903Y0164901D01*
X0085863Y0164901D02*
X0085844Y0164901D01*
X0085863Y0164303D02*
X0085246Y0164303D01*
X0084647Y0163704D02*
X0085863Y0163704D01*
X0085863Y0163105D02*
X0084049Y0163105D01*
X0083450Y0162507D02*
X0085863Y0162507D01*
X0085863Y0161908D02*
X0082852Y0161908D01*
X0082253Y0161310D02*
X0085863Y0161310D01*
X0091463Y0159514D02*
X0092021Y0159514D01*
X0094306Y0159514D02*
X0100721Y0159514D01*
X0100123Y0158916D02*
X0097204Y0158916D01*
X0097803Y0158317D02*
X0100073Y0158317D01*
X0100073Y0157719D02*
X0098254Y0157719D01*
X0098254Y0157120D02*
X0100087Y0157120D01*
X0100229Y0156522D02*
X0098254Y0156522D01*
X0098043Y0155923D02*
X0099630Y0155923D01*
X0099073Y0155325D02*
X0097445Y0155325D01*
X0096254Y0154726D02*
X0099073Y0154726D01*
X0099073Y0154128D02*
X0096254Y0154128D01*
X0096149Y0153529D02*
X0099178Y0153529D01*
X0099776Y0152931D02*
X0095551Y0152931D01*
X0107363Y0152931D02*
X0111735Y0152931D01*
X0110511Y0152332D02*
X0107363Y0152332D01*
X0107363Y0151734D02*
X0109912Y0151734D01*
X0109525Y0151135D02*
X0107363Y0151135D01*
X0107363Y0150537D02*
X0109277Y0150537D01*
X0109138Y0149938D02*
X0107363Y0149938D01*
X0107363Y0149340D02*
X0109138Y0149340D01*
X0114263Y0146347D02*
X0116363Y0146347D01*
X0116363Y0146946D02*
X0115094Y0146946D01*
X0115669Y0147544D02*
X0116363Y0147544D01*
X0116363Y0148143D02*
X0115917Y0148143D01*
X0116165Y0148741D02*
X0116363Y0148741D01*
X0116363Y0149340D02*
X0116188Y0149340D01*
X0116188Y0149938D02*
X0116363Y0149938D01*
X0116363Y0150537D02*
X0116049Y0150537D01*
X0115802Y0151135D02*
X0116363Y0151135D01*
X0116363Y0151734D02*
X0115415Y0151734D01*
X0114816Y0152332D02*
X0116363Y0152332D01*
X0116363Y0152931D02*
X0113592Y0152931D01*
X0116363Y0153529D02*
X0107363Y0153529D01*
X0107363Y0154128D02*
X0116363Y0154128D01*
X0116363Y0154726D02*
X0107363Y0154726D01*
X0107363Y0155325D02*
X0116363Y0155325D01*
X0116363Y0155923D02*
X0107363Y0155923D01*
X0107363Y0156522D02*
X0116363Y0156522D01*
X0116363Y0157120D02*
X0107363Y0157120D01*
X0107363Y0157719D02*
X0116363Y0157719D01*
X0116363Y0158317D02*
X0107363Y0158317D01*
X0107363Y0158916D02*
X0116363Y0158916D01*
X0116363Y0159514D02*
X0107363Y0159514D01*
X0107363Y0160113D02*
X0116363Y0160113D01*
X0116363Y0160711D02*
X0107363Y0160711D01*
X0107363Y0161310D02*
X0116363Y0161310D01*
X0116363Y0161908D02*
X0107363Y0161908D01*
X0107363Y0162507D02*
X0116363Y0162507D01*
X0116363Y0163105D02*
X0107363Y0163105D01*
X0107363Y0163704D02*
X0116363Y0163704D01*
X0116363Y0164303D02*
X0107363Y0164303D01*
X0107363Y0164901D02*
X0116363Y0164901D01*
X0095123Y0158916D02*
X0094904Y0158916D01*
X0064019Y0173280D02*
X0038963Y0173280D01*
X0038963Y0172682D02*
X0041133Y0172682D01*
X0040262Y0172083D02*
X0038963Y0172083D01*
X0038963Y0171485D02*
X0039670Y0171485D01*
X0039422Y0170886D02*
X0038963Y0170886D01*
X0038963Y0170288D02*
X0039174Y0170288D01*
X0039138Y0169689D02*
X0038963Y0169689D01*
X0038963Y0169091D02*
X0039138Y0169091D01*
X0039266Y0168492D02*
X0038963Y0168492D01*
X0038963Y0167894D02*
X0039513Y0167894D01*
X0039883Y0167295D02*
X0038963Y0167295D01*
X0038963Y0166697D02*
X0040482Y0166697D01*
X0041665Y0166098D02*
X0038963Y0166098D01*
X0038963Y0165500D02*
X0042325Y0165500D01*
X0042924Y0164901D02*
X0038963Y0164901D01*
X0038963Y0164303D02*
X0043522Y0164303D01*
X0044121Y0163704D02*
X0038963Y0163704D01*
X0038963Y0163105D02*
X0044719Y0163105D01*
X0044615Y0162507D02*
X0045318Y0162507D01*
X0045240Y0161908D02*
X0045917Y0161908D01*
X0045729Y0161310D02*
X0046363Y0161310D01*
X0046363Y0160711D02*
X0045977Y0160711D01*
X0046188Y0160113D02*
X0046363Y0160113D01*
X0046363Y0159514D02*
X0046188Y0159514D01*
X0046188Y0158916D02*
X0046363Y0158916D01*
X0046363Y0158317D02*
X0045989Y0158317D01*
X0046283Y0157719D02*
X0046363Y0157719D01*
X0044402Y0155923D02*
X0038963Y0155923D01*
X0038963Y0155325D02*
X0045000Y0155325D01*
X0045599Y0154726D02*
X0038963Y0154726D01*
X0038963Y0154128D02*
X0046197Y0154128D01*
X0050079Y0155923D02*
X0056984Y0155923D01*
X0056673Y0156522D02*
X0049480Y0156522D01*
X0049163Y0157120D02*
X0056673Y0157120D01*
X0056673Y0157719D02*
X0049163Y0157719D01*
X0049481Y0158317D02*
X0049590Y0158317D01*
X0052137Y0158317D02*
X0057024Y0158317D01*
X0057582Y0155325D02*
X0050463Y0155325D01*
X0040656Y0156522D02*
X0038963Y0156522D01*
X0038963Y0157120D02*
X0040058Y0157120D01*
X0039586Y0157719D02*
X0038963Y0157719D01*
X0038963Y0158317D02*
X0039338Y0158317D01*
X0039138Y0158916D02*
X0038963Y0158916D01*
X0038963Y0159514D02*
X0039138Y0159514D01*
X0039138Y0160113D02*
X0038963Y0160113D01*
X0038963Y0160711D02*
X0039350Y0160711D01*
X0039598Y0161310D02*
X0038963Y0161310D01*
X0038963Y0161908D02*
X0040087Y0161908D01*
X0040712Y0162507D02*
X0038963Y0162507D01*
X0046601Y0164901D02*
X0057708Y0164901D01*
X0057110Y0164303D02*
X0052117Y0164303D01*
X0052716Y0163704D02*
X0056673Y0163704D01*
X0056673Y0163105D02*
X0052954Y0163105D01*
X0052954Y0162507D02*
X0056673Y0162507D01*
X0056898Y0161908D02*
X0052954Y0161908D01*
X0049610Y0164303D02*
X0047199Y0164303D01*
X0047798Y0163704D02*
X0049011Y0163704D01*
X0048773Y0163105D02*
X0048396Y0163105D01*
X0045657Y0171485D02*
X0062773Y0171485D01*
X0062975Y0172083D02*
X0045065Y0172083D01*
X0044193Y0172682D02*
X0063323Y0172682D01*
X0068763Y0180462D02*
X0052582Y0180462D01*
X0053181Y0181061D02*
X0068763Y0181061D01*
X0068763Y0181659D02*
X0053254Y0181659D01*
X0053254Y0182258D02*
X0068763Y0182258D01*
X0068763Y0182856D02*
X0053254Y0182856D01*
X0052665Y0183455D02*
X0068763Y0183455D01*
X0068763Y0184053D02*
X0053173Y0184053D01*
X0053254Y0184652D02*
X0068763Y0184652D01*
X0068763Y0185250D02*
X0053254Y0185250D01*
X0053254Y0185849D02*
X0068763Y0185849D01*
X0068763Y0186447D02*
X0052673Y0186447D01*
X0052074Y0187046D02*
X0068763Y0187046D01*
X0068763Y0187644D02*
X0045710Y0187644D01*
X0045958Y0188243D02*
X0068763Y0188243D01*
X0068763Y0188841D02*
X0046188Y0188841D01*
X0046705Y0189440D02*
X0068763Y0189440D01*
X0069222Y0190039D02*
X0047303Y0190039D01*
X0047902Y0190637D02*
X0069573Y0190637D01*
X0069573Y0191236D02*
X0048500Y0191236D01*
X0049099Y0191834D02*
X0070041Y0191834D01*
X0070640Y0192433D02*
X0049697Y0192433D01*
X0050253Y0187046D02*
X0045195Y0187046D01*
X0044505Y0186447D02*
X0049654Y0186447D01*
X0108963Y0055373D02*
X0116363Y0055373D01*
X0116363Y0054775D02*
X0109227Y0054775D01*
X0109825Y0054176D02*
X0116363Y0054176D01*
X0116363Y0053578D02*
X0110424Y0053578D01*
X0111023Y0052979D02*
X0111852Y0052979D01*
X0113475Y0052979D02*
X0116363Y0052979D01*
X0116363Y0052381D02*
X0114768Y0052381D01*
X0115366Y0051782D02*
X0116363Y0051782D01*
X0116363Y0051184D02*
X0115781Y0051184D01*
X0116029Y0050585D02*
X0116363Y0050585D01*
X0116363Y0049987D02*
X0116188Y0049987D01*
X0116188Y0049388D02*
X0116363Y0049388D01*
X0116363Y0048790D02*
X0116185Y0048790D01*
X0116363Y0048191D02*
X0115937Y0048191D01*
X0115689Y0047593D02*
X0116363Y0047593D01*
X0116363Y0046994D02*
X0115143Y0046994D01*
X0114380Y0046396D02*
X0116363Y0046396D01*
X0110946Y0046396D02*
X0107606Y0046396D01*
X0107463Y0046994D02*
X0110184Y0046994D01*
X0109638Y0047593D02*
X0107463Y0047593D01*
X0107463Y0048191D02*
X0109390Y0048191D01*
X0109142Y0048790D02*
X0107463Y0048790D01*
X0107463Y0049388D02*
X0109138Y0049388D01*
X0109138Y0049987D02*
X0107463Y0049987D01*
X0107463Y0050585D02*
X0109298Y0050585D01*
X0109141Y0051184D02*
X0107463Y0051184D01*
X0107463Y0051782D02*
X0108543Y0051782D01*
X0107944Y0052381D02*
X0107463Y0052381D01*
X0111197Y0042805D02*
X0111431Y0042805D01*
D16*
X0086463Y0184800D02*
X0074763Y0196500D01*
X0049663Y0196500D01*
X0042663Y0189500D01*
D17*
X0042663Y0169500D02*
X0042663Y0167000D01*
X0047663Y0162000D01*
X0047663Y0156500D01*
X0049163Y0155000D01*
X0049163Y0147000D01*
X0050663Y0145500D01*
X0050663Y0137500D01*
X0053663Y0134500D01*
X0053663Y0129500D01*
X0057663Y0125500D01*
X0057663Y0116000D01*
X0060163Y0113500D01*
X0061163Y0113500D01*
X0061163Y0110500D02*
X0059163Y0110500D01*
X0056163Y0113500D01*
X0056163Y0125000D01*
X0052163Y0129000D01*
X0052163Y0134000D01*
X0049163Y0137000D01*
X0049163Y0145000D01*
X0047663Y0146500D01*
X0047663Y0154500D01*
X0042663Y0159500D01*
X0042663Y0149500D02*
X0047663Y0144500D01*
X0047663Y0136500D01*
X0050663Y0133500D01*
X0050663Y0128500D01*
X0054663Y0124500D01*
X0054663Y0113000D01*
X0058663Y0109000D01*
X0058663Y0099800D01*
X0060463Y0098000D01*
X0062663Y0098000D01*
X0061163Y0101000D02*
X0061163Y0104000D01*
X0065163Y0108000D01*
X0065163Y0126500D01*
X0062163Y0129500D01*
X0059663Y0128500D02*
X0059663Y0131500D01*
X0060663Y0132500D01*
X0061663Y0135000D02*
X0066663Y0130000D01*
X0066663Y0107500D01*
X0064163Y0105000D01*
X0064163Y0101000D01*
X0061663Y0107500D02*
X0061163Y0107500D01*
X0061663Y0107500D02*
X0063663Y0109500D01*
X0063663Y0124500D01*
X0059663Y0128500D01*
X0053163Y0124000D02*
X0053163Y0120500D01*
X0052163Y0119500D01*
X0053163Y0124000D02*
X0049163Y0128000D01*
X0049163Y0133000D01*
X0042663Y0139500D01*
X0058663Y0135000D02*
X0061663Y0135000D01*
X0073663Y0125500D02*
X0075363Y0127200D01*
X0079663Y0127200D01*
X0073663Y0125500D02*
X0073663Y0094500D01*
X0068663Y0089500D01*
X0060163Y0089500D01*
X0049163Y0078500D01*
X0049163Y0044500D01*
X0044163Y0039500D01*
X0042663Y0039500D01*
X0050663Y0037500D02*
X0050663Y0078000D01*
X0060663Y0088000D01*
X0069163Y0088000D01*
X0075163Y0094000D01*
X0075163Y0110500D01*
X0077663Y0113000D01*
X0077463Y0109500D02*
X0076663Y0108700D01*
X0076663Y0093500D01*
X0069663Y0086500D01*
X0061163Y0086500D01*
X0052163Y0077500D01*
X0052163Y0030500D01*
X0042663Y0021000D01*
X0042663Y0019500D01*
X0042663Y0029500D02*
X0050663Y0037500D01*
X0042663Y0049500D02*
X0047663Y0054500D01*
X0047663Y0079000D01*
X0059663Y0091000D01*
X0068163Y0091000D01*
X0072163Y0095000D01*
X0072163Y0111100D01*
X0069363Y0113900D01*
X0069763Y0109200D02*
X0070663Y0108300D01*
X0070663Y0095500D01*
X0067663Y0092500D01*
X0059163Y0092500D01*
X0046163Y0079500D01*
X0042663Y0079500D01*
X0089163Y0093500D02*
X0093163Y0093500D01*
X0094663Y0092000D01*
X0094663Y0086500D01*
X0103163Y0078000D01*
X0103163Y0029000D01*
X0112663Y0019500D01*
X0112663Y0029500D02*
X0104663Y0037500D01*
X0104663Y0078500D01*
X0096163Y0087000D01*
X0096163Y0092500D01*
X0092663Y0096000D01*
X0091163Y0096000D01*
X0091163Y0099500D02*
X0097663Y0093000D01*
X0097663Y0087500D01*
X0106163Y0079000D01*
X0106163Y0046000D01*
X0112663Y0039500D01*
X0112663Y0049500D02*
X0107663Y0054500D01*
X0107663Y0079500D01*
X0100163Y0087000D01*
X0100163Y0088500D01*
X0094163Y0100000D02*
X0097663Y0103500D01*
X0103663Y0103500D01*
X0107663Y0107500D01*
X0107663Y0125500D01*
X0111663Y0129500D01*
X0112663Y0129500D01*
X0107663Y0127500D02*
X0106163Y0126000D01*
X0106163Y0108000D01*
X0103163Y0105000D01*
X0094163Y0105000D01*
X0096163Y0106500D02*
X0094163Y0108500D01*
X0094163Y0111500D01*
X0096163Y0106500D02*
X0102663Y0106500D01*
X0104663Y0108500D01*
X0104663Y0126500D01*
X0106163Y0128000D01*
X0106163Y0144000D01*
X0111663Y0149500D01*
X0112663Y0149500D01*
X0112663Y0139500D02*
X0111663Y0139500D01*
X0107663Y0135500D01*
X0107663Y0127500D01*
X0095163Y0132100D02*
X0095163Y0140500D01*
X0090363Y0145300D01*
X0090363Y0155400D01*
X0088663Y0157100D01*
X0088663Y0163500D01*
X0091663Y0166500D01*
X0091663Y0168500D01*
X0089663Y0170500D01*
X0087863Y0170500D01*
X0089163Y0167700D02*
X0087163Y0165700D01*
X0087163Y0156600D01*
X0088863Y0154900D01*
X0088863Y0144800D01*
X0093663Y0140000D01*
X0093663Y0138500D01*
X0090163Y0135000D01*
X0090163Y0132000D01*
X0090863Y0131300D01*
X0094363Y0131300D02*
X0095163Y0132100D01*
X0097663Y0133500D02*
X0097663Y0140000D01*
X0091863Y0145800D01*
X0091863Y0155900D01*
X0090163Y0157600D01*
X0090163Y0163000D01*
X0093163Y0166000D01*
X0093163Y0169300D01*
X0088963Y0173500D01*
X0084463Y0137500D02*
X0079863Y0132900D01*
X0079863Y0131600D01*
X0091163Y0100000D02*
X0091163Y0099500D01*
D18*
X0074663Y0155000D02*
X0074163Y0155000D01*
X0071663Y0157500D01*
X0071663Y0159000D01*
X0070663Y0160000D01*
X0050863Y0160000D01*
D19*
X0070163Y0172500D02*
X0074363Y0168300D01*
X0074363Y0158300D01*
X0077363Y0158400D02*
X0085163Y0166200D01*
X0085163Y0173000D01*
X0088663Y0176500D01*
X0088963Y0176500D01*
X0070163Y0172500D02*
X0070163Y0189000D01*
X0071663Y0190500D01*
M02*
