G75*
%MOIN*%
%OFA0B0*%
%FSLAX25Y25*%
%IPPOS*%
%LPD*%
%AMOC8*
5,1,8,0,0,1.08239X$1,22.5*
%
%ADD10R,0.02375X0.06115*%
%ADD11R,0.06706X0.08280*%
%ADD12C,0.03162*%
%ADD13C,0.05131*%
%ADD14R,0.05721X0.03359*%
%ADD15R,0.03950X0.03950*%
%ADD16R,0.03200X0.02600*%
%ADD17C,0.06600*%
%ADD18R,0.04934X0.09461*%
%ADD19R,0.04737X0.04934*%
%ADD20R,0.02600X0.03200*%
%ADD21C,0.00100*%
%ADD22R,0.03543X0.06299*%
%ADD23R,0.06299X0.03543*%
%ADD24C,0.02769*%
%ADD25R,0.04724X0.04724*%
%ADD26C,0.03556*%
%ADD27C,0.04343*%
%ADD28R,0.04737X0.03950*%
%ADD29R,0.07099X0.12611*%
%ADD30R,0.04737X0.22454*%
%ADD31R,0.03600X0.04900*%
%ADD32R,0.01181X0.03150*%
%ADD33R,0.07402X0.06811*%
%ADD34R,0.04737X0.05131*%
%ADD35C,0.04762*%
%ADD36C,0.06600*%
%ADD37R,0.07099X0.04343*%
%ADD38R,0.01981X0.03162*%
%ADD39R,0.03950X0.11430*%
D10*
X0089045Y0187969D03*
X0091604Y0187969D03*
X0094163Y0187969D03*
X0096723Y0187969D03*
X0099282Y0187969D03*
D11*
X0098100Y0198500D03*
X0090226Y0198461D03*
D12*
X0086486Y0190232D03*
X0101841Y0190232D03*
D13*
X0105089Y0196335D02*
X0105089Y0200665D01*
X0083238Y0200665D02*
X0083238Y0196335D01*
D14*
X0087782Y0140551D03*
X0087782Y0134449D03*
X0102545Y0134449D03*
X0102545Y0140551D03*
X0067545Y0140551D03*
X0067545Y0134449D03*
X0052782Y0134449D03*
X0052782Y0140551D03*
D15*
X0072663Y0162047D03*
X0072663Y0167953D03*
X0097711Y0149000D03*
X0103616Y0149000D03*
D16*
X0092663Y0149900D03*
X0089163Y0149900D03*
X0085663Y0149900D03*
X0085663Y0146100D03*
X0089163Y0146100D03*
X0092663Y0146100D03*
X0099163Y0157100D03*
X0099163Y0160900D03*
X0088663Y0161100D03*
X0088663Y0164900D03*
X0076663Y0164900D03*
X0076663Y0161100D03*
X0077663Y0016400D03*
X0081663Y0016400D03*
X0089663Y0016400D03*
X0089663Y0012600D03*
X0081663Y0012600D03*
X0077663Y0012600D03*
X0097663Y0012600D03*
X0097663Y0016400D03*
D17*
X0042663Y0019500D02*
X0036863Y0019500D01*
X0036863Y0029500D02*
X0042663Y0029500D01*
X0042663Y0039500D02*
X0036863Y0039500D01*
X0036863Y0049500D02*
X0042663Y0049500D01*
X0042663Y0059500D02*
X0036863Y0059500D01*
X0036863Y0069500D02*
X0042663Y0069500D01*
X0042663Y0079500D02*
X0036863Y0079500D01*
X0036863Y0089500D02*
X0042663Y0089500D01*
X0042663Y0099500D02*
X0036863Y0099500D01*
X0036863Y0109500D02*
X0042663Y0109500D01*
X0042663Y0119500D02*
X0036863Y0119500D01*
X0036863Y0129500D02*
X0042663Y0129500D01*
X0042663Y0139500D02*
X0036863Y0139500D01*
X0036863Y0149500D02*
X0042663Y0149500D01*
X0042663Y0159500D02*
X0036863Y0159500D01*
X0036863Y0169500D02*
X0042663Y0169500D01*
X0042663Y0179500D02*
X0036863Y0179500D01*
X0036863Y0189500D02*
X0042663Y0189500D01*
X0112663Y0189500D02*
X0118463Y0189500D01*
X0118463Y0179500D02*
X0112663Y0179500D01*
X0112663Y0169500D02*
X0118463Y0169500D01*
X0118463Y0159500D02*
X0112663Y0159500D01*
X0112663Y0149500D02*
X0118463Y0149500D01*
X0118463Y0139500D02*
X0112663Y0139500D01*
X0112663Y0129500D02*
X0118463Y0129500D01*
X0118463Y0119500D02*
X0112663Y0119500D01*
X0112663Y0109500D02*
X0118463Y0109500D01*
X0118463Y0099500D02*
X0112663Y0099500D01*
X0112663Y0089500D02*
X0118463Y0089500D01*
X0118463Y0079500D02*
X0112663Y0079500D01*
X0112663Y0069500D02*
X0118463Y0069500D01*
X0118463Y0059500D02*
X0112663Y0059500D01*
X0112663Y0049500D02*
X0118463Y0049500D01*
X0118463Y0039500D02*
X0112663Y0039500D01*
X0112663Y0029500D02*
X0118463Y0029500D01*
X0118463Y0019500D02*
X0112663Y0019500D01*
D18*
X0070471Y0010500D03*
X0058856Y0010500D03*
D19*
X0064663Y0016514D03*
D20*
X0052563Y0018000D03*
X0048763Y0018000D03*
X0048763Y0014500D03*
X0048763Y0011000D03*
X0052563Y0011000D03*
X0052563Y0014500D03*
X0052563Y0007500D03*
X0048763Y0007500D03*
X0066263Y0129000D03*
X0070063Y0129000D03*
X0073263Y0129000D03*
X0077063Y0129000D03*
X0077063Y0146000D03*
X0073263Y0146000D03*
X0101263Y0179000D03*
X0105063Y0179000D03*
D21*
X0106463Y0014500D02*
X0106963Y0012100D01*
X0106463Y0011800D01*
X0105963Y0012100D01*
X0106463Y0014500D01*
X0106453Y0014450D02*
X0106474Y0014450D01*
X0106494Y0014351D02*
X0106432Y0014351D01*
X0106412Y0014253D02*
X0106515Y0014253D01*
X0106536Y0014154D02*
X0106391Y0014154D01*
X0106371Y0014056D02*
X0106556Y0014056D01*
X0106577Y0013957D02*
X0106350Y0013957D01*
X0106330Y0013859D02*
X0106597Y0013859D01*
X0106618Y0013760D02*
X0106309Y0013760D01*
X0106289Y0013662D02*
X0106638Y0013662D01*
X0106659Y0013563D02*
X0106268Y0013563D01*
X0106248Y0013465D02*
X0106679Y0013465D01*
X0106700Y0013366D02*
X0106227Y0013366D01*
X0106207Y0013268D02*
X0106720Y0013268D01*
X0106741Y0013169D02*
X0106186Y0013169D01*
X0106166Y0013070D02*
X0106761Y0013070D01*
X0106782Y0012972D02*
X0106145Y0012972D01*
X0106125Y0012873D02*
X0106802Y0012873D01*
X0106823Y0012775D02*
X0106104Y0012775D01*
X0106084Y0012676D02*
X0106843Y0012676D01*
X0106864Y0012578D02*
X0106063Y0012578D01*
X0106043Y0012479D02*
X0106884Y0012479D01*
X0106905Y0012381D02*
X0106022Y0012381D01*
X0106001Y0012282D02*
X0106925Y0012282D01*
X0106946Y0012184D02*
X0105981Y0012184D01*
X0105988Y0012085D02*
X0106939Y0012085D01*
X0106775Y0011987D02*
X0106152Y0011987D01*
X0106316Y0011888D02*
X0106611Y0011888D01*
X0106944Y0011494D02*
X0108493Y0011494D01*
X0108427Y0011396D02*
X0106783Y0011396D01*
X0106622Y0011297D02*
X0108362Y0011297D01*
X0108296Y0011199D02*
X0104668Y0011199D01*
X0104730Y0011100D02*
X0108230Y0011100D01*
X0108165Y0011002D02*
X0104792Y0011002D01*
X0104855Y0010903D02*
X0108099Y0010903D01*
X0108033Y0010805D02*
X0104917Y0010805D01*
X0104980Y0010706D02*
X0107968Y0010706D01*
X0107902Y0010608D02*
X0105042Y0010608D01*
X0105104Y0010509D02*
X0107836Y0010509D01*
X0107771Y0010411D02*
X0105167Y0010411D01*
X0105229Y0010312D02*
X0107705Y0010312D01*
X0107639Y0010214D02*
X0105291Y0010214D01*
X0105354Y0010115D02*
X0107574Y0010115D01*
X0107563Y0010100D02*
X0109563Y0013100D01*
X0106463Y0011200D01*
X0103463Y0013100D01*
X0105363Y0010100D01*
X0103363Y0006900D01*
X0106463Y0008900D01*
X0109563Y0007000D01*
X0107563Y0010100D01*
X0107617Y0010017D02*
X0105311Y0010017D01*
X0105250Y0009918D02*
X0107681Y0009918D01*
X0107744Y0009820D02*
X0105188Y0009820D01*
X0105127Y0009721D02*
X0107808Y0009721D01*
X0107871Y0009623D02*
X0105065Y0009623D01*
X0105004Y0009524D02*
X0107935Y0009524D01*
X0107999Y0009426D02*
X0104942Y0009426D01*
X0104880Y0009327D02*
X0108062Y0009327D01*
X0108126Y0009229D02*
X0104819Y0009229D01*
X0104757Y0009130D02*
X0108189Y0009130D01*
X0108253Y0009032D02*
X0104696Y0009032D01*
X0104634Y0008933D02*
X0108316Y0008933D01*
X0108380Y0008834D02*
X0106570Y0008834D01*
X0106731Y0008736D02*
X0108443Y0008736D01*
X0108507Y0008637D02*
X0106892Y0008637D01*
X0107053Y0008539D02*
X0108571Y0008539D01*
X0108634Y0008440D02*
X0107213Y0008440D01*
X0107374Y0008342D02*
X0108698Y0008342D01*
X0108761Y0008243D02*
X0107535Y0008243D01*
X0107695Y0008145D02*
X0108825Y0008145D01*
X0108888Y0008046D02*
X0107856Y0008046D01*
X0108017Y0007948D02*
X0108952Y0007948D01*
X0109015Y0007849D02*
X0108178Y0007849D01*
X0108338Y0007751D02*
X0109079Y0007751D01*
X0109143Y0007652D02*
X0108499Y0007652D01*
X0108660Y0007554D02*
X0109206Y0007554D01*
X0109270Y0007455D02*
X0108821Y0007455D01*
X0108981Y0007357D02*
X0109333Y0007357D01*
X0109397Y0007258D02*
X0109142Y0007258D01*
X0109303Y0007160D02*
X0109460Y0007160D01*
X0109463Y0007061D02*
X0109524Y0007061D01*
X0109121Y0009721D02*
X0108491Y0009721D01*
X0108550Y0009623D02*
X0108667Y0009623D01*
X0108563Y0009600D02*
X0110863Y0010100D01*
X0108563Y0010600D01*
X0108263Y0010100D01*
X0108563Y0009600D01*
X0108432Y0009820D02*
X0109574Y0009820D01*
X0110027Y0009918D02*
X0108373Y0009918D01*
X0108313Y0010017D02*
X0110480Y0010017D01*
X0110341Y0010214D02*
X0108332Y0010214D01*
X0108391Y0010312D02*
X0109887Y0010312D01*
X0109434Y0010411D02*
X0108450Y0010411D01*
X0108509Y0010509D02*
X0108981Y0010509D01*
X0108273Y0010115D02*
X0110794Y0010115D01*
X0108559Y0011593D02*
X0107104Y0011593D01*
X0107265Y0011691D02*
X0108624Y0011691D01*
X0108690Y0011790D02*
X0107426Y0011790D01*
X0107587Y0011888D02*
X0108756Y0011888D01*
X0108821Y0011987D02*
X0107747Y0011987D01*
X0107908Y0012085D02*
X0108887Y0012085D01*
X0108953Y0012184D02*
X0108069Y0012184D01*
X0108229Y0012282D02*
X0109018Y0012282D01*
X0109084Y0012381D02*
X0108390Y0012381D01*
X0108551Y0012479D02*
X0109150Y0012479D01*
X0109215Y0012578D02*
X0108712Y0012578D01*
X0108872Y0012676D02*
X0109281Y0012676D01*
X0109347Y0012775D02*
X0109033Y0012775D01*
X0109194Y0012873D02*
X0109412Y0012873D01*
X0109355Y0012972D02*
X0109478Y0012972D01*
X0109515Y0013070D02*
X0109544Y0013070D01*
X0106310Y0011297D02*
X0104605Y0011297D01*
X0104543Y0011396D02*
X0106154Y0011396D01*
X0105999Y0011494D02*
X0104480Y0011494D01*
X0104418Y0011593D02*
X0105843Y0011593D01*
X0105688Y0011691D02*
X0104356Y0011691D01*
X0104293Y0011790D02*
X0105532Y0011790D01*
X0105377Y0011888D02*
X0104231Y0011888D01*
X0104168Y0011987D02*
X0105221Y0011987D01*
X0105066Y0012085D02*
X0104106Y0012085D01*
X0104044Y0012184D02*
X0104910Y0012184D01*
X0104754Y0012282D02*
X0103981Y0012282D01*
X0103919Y0012381D02*
X0104599Y0012381D01*
X0104443Y0012479D02*
X0103856Y0012479D01*
X0103794Y0012578D02*
X0104288Y0012578D01*
X0104132Y0012676D02*
X0103732Y0012676D01*
X0103669Y0012775D02*
X0103977Y0012775D01*
X0103821Y0012873D02*
X0103607Y0012873D01*
X0103666Y0012972D02*
X0103545Y0012972D01*
X0103510Y0013070D02*
X0103482Y0013070D01*
X0103946Y0010509D02*
X0104436Y0010509D01*
X0104363Y0010600D02*
X0104763Y0010100D01*
X0104363Y0009600D01*
X0102063Y0010100D01*
X0104363Y0010600D01*
X0104515Y0010411D02*
X0103493Y0010411D01*
X0103039Y0010312D02*
X0104594Y0010312D01*
X0104673Y0010214D02*
X0102586Y0010214D01*
X0102447Y0010017D02*
X0104697Y0010017D01*
X0104751Y0010115D02*
X0102133Y0010115D01*
X0102900Y0009918D02*
X0104618Y0009918D01*
X0104539Y0009820D02*
X0103353Y0009820D01*
X0103806Y0009721D02*
X0104460Y0009721D01*
X0104382Y0009623D02*
X0104260Y0009623D01*
X0104573Y0008834D02*
X0106362Y0008834D01*
X0106209Y0008736D02*
X0104511Y0008736D01*
X0104449Y0008637D02*
X0106057Y0008637D01*
X0105904Y0008539D02*
X0104388Y0008539D01*
X0104326Y0008440D02*
X0105751Y0008440D01*
X0105598Y0008342D02*
X0104265Y0008342D01*
X0104203Y0008243D02*
X0105446Y0008243D01*
X0105293Y0008145D02*
X0104142Y0008145D01*
X0104080Y0008046D02*
X0105140Y0008046D01*
X0104988Y0007948D02*
X0104018Y0007948D01*
X0103957Y0007849D02*
X0104835Y0007849D01*
X0104682Y0007751D02*
X0103895Y0007751D01*
X0103834Y0007652D02*
X0104530Y0007652D01*
X0104377Y0007554D02*
X0103772Y0007554D01*
X0103711Y0007455D02*
X0104224Y0007455D01*
X0104072Y0007357D02*
X0103649Y0007357D01*
X0103587Y0007258D02*
X0103919Y0007258D01*
X0103766Y0007160D02*
X0103526Y0007160D01*
X0103464Y0007061D02*
X0103613Y0007061D01*
X0103461Y0006963D02*
X0103403Y0006963D01*
X0106056Y0007554D02*
X0106871Y0007554D01*
X0106891Y0007652D02*
X0106036Y0007652D01*
X0106015Y0007751D02*
X0106912Y0007751D01*
X0106932Y0007849D02*
X0105995Y0007849D01*
X0105974Y0007948D02*
X0106953Y0007948D01*
X0106963Y0008000D02*
X0106463Y0008300D01*
X0105963Y0008000D01*
X0106463Y0005600D01*
X0106963Y0008000D01*
X0106886Y0008046D02*
X0106041Y0008046D01*
X0106205Y0008145D02*
X0106722Y0008145D01*
X0106558Y0008243D02*
X0106369Y0008243D01*
X0106077Y0007455D02*
X0106850Y0007455D01*
X0106829Y0007357D02*
X0106097Y0007357D01*
X0106118Y0007258D02*
X0106809Y0007258D01*
X0106788Y0007160D02*
X0106139Y0007160D01*
X0106159Y0007061D02*
X0106768Y0007061D01*
X0106747Y0006963D02*
X0106180Y0006963D01*
X0106200Y0006864D02*
X0106727Y0006864D01*
X0106706Y0006766D02*
X0106221Y0006766D01*
X0106241Y0006667D02*
X0106686Y0006667D01*
X0106665Y0006569D02*
X0106262Y0006569D01*
X0106282Y0006470D02*
X0106645Y0006470D01*
X0106624Y0006372D02*
X0106303Y0006372D01*
X0106323Y0006273D02*
X0106604Y0006273D01*
X0106583Y0006175D02*
X0106344Y0006175D01*
X0106364Y0006076D02*
X0106563Y0006076D01*
X0106542Y0005978D02*
X0106385Y0005978D01*
X0106405Y0005879D02*
X0106522Y0005879D01*
X0106501Y0005781D02*
X0106426Y0005781D01*
X0106446Y0005682D02*
X0106481Y0005682D01*
D22*
X0099317Y0025453D03*
X0094986Y0025453D03*
X0090656Y0025453D03*
X0086325Y0025453D03*
X0081994Y0025453D03*
X0077663Y0025453D03*
X0073333Y0025453D03*
X0069002Y0025453D03*
X0064671Y0025453D03*
X0060341Y0025453D03*
X0056010Y0025453D03*
X0056010Y0119547D03*
X0060341Y0119547D03*
X0064671Y0119547D03*
X0069002Y0119547D03*
X0073333Y0119547D03*
X0077663Y0119547D03*
X0081994Y0119547D03*
X0086325Y0119547D03*
X0090656Y0119547D03*
X0094986Y0119547D03*
X0099317Y0119547D03*
D23*
X0105026Y0115807D03*
X0105026Y0111476D03*
X0105026Y0107146D03*
X0105026Y0102815D03*
X0105026Y0098484D03*
X0105026Y0094154D03*
X0105026Y0089823D03*
X0105026Y0085492D03*
X0105026Y0081161D03*
X0105026Y0076831D03*
X0105026Y0072500D03*
X0105026Y0068169D03*
X0105026Y0063839D03*
X0105026Y0059508D03*
X0105026Y0055177D03*
X0105026Y0050846D03*
X0105026Y0046516D03*
X0105026Y0042185D03*
X0105026Y0037854D03*
X0105026Y0033524D03*
X0105026Y0029193D03*
X0050301Y0029193D03*
X0050301Y0033524D03*
X0050301Y0037854D03*
X0050301Y0042185D03*
X0050301Y0046516D03*
X0050301Y0050846D03*
X0050301Y0055177D03*
X0050301Y0059508D03*
X0050301Y0063839D03*
X0050301Y0068169D03*
X0050301Y0072500D03*
X0050301Y0076831D03*
X0050301Y0081161D03*
X0050301Y0085492D03*
X0050301Y0089823D03*
X0050301Y0094154D03*
X0050301Y0098484D03*
X0050301Y0102815D03*
X0050301Y0107146D03*
X0050301Y0111476D03*
X0050301Y0115807D03*
D24*
X0105223Y0025256D03*
D25*
X0098333Y0032146D03*
X0090065Y0032146D03*
X0081797Y0032146D03*
X0073530Y0032146D03*
X0065262Y0032146D03*
X0056994Y0032146D03*
X0056994Y0039232D03*
X0065262Y0039232D03*
X0073530Y0039232D03*
X0081797Y0039232D03*
X0090065Y0039232D03*
X0098333Y0039232D03*
X0098333Y0046319D03*
X0098333Y0060492D03*
X0056994Y0060492D03*
X0056994Y0046319D03*
X0056994Y0084508D03*
X0056994Y0098681D03*
X0056994Y0105768D03*
X0065262Y0105768D03*
X0073530Y0105768D03*
X0081797Y0105768D03*
X0090065Y0105768D03*
X0098333Y0105768D03*
X0098333Y0112854D03*
X0090065Y0112854D03*
X0081797Y0112854D03*
X0073530Y0112854D03*
X0065262Y0112854D03*
X0056994Y0112854D03*
X0098333Y0098681D03*
X0098333Y0084508D03*
D26*
X0066356Y0047539D03*
D27*
X0101789Y0014861D03*
D28*
X0080616Y0135335D03*
X0074711Y0135335D03*
X0074711Y0139665D03*
X0080616Y0139665D03*
D29*
X0077049Y0193063D03*
X0050278Y0193063D03*
D30*
X0059726Y0184126D03*
X0067600Y0184126D03*
D31*
X0054604Y0177024D03*
X0048704Y0177024D03*
X0059693Y0164019D03*
X0065593Y0164019D03*
D32*
X0093211Y0164488D03*
X0093211Y0164488D03*
X0095179Y0164488D03*
X0097148Y0164488D03*
X0099116Y0164488D03*
X0099116Y0175512D03*
X0097148Y0175512D03*
X0095179Y0175512D03*
X0093211Y0175512D03*
D33*
X0096163Y0170000D03*
D34*
X0103163Y0168846D03*
X0103163Y0162154D03*
X0081163Y0162154D03*
X0081163Y0168846D03*
D35*
X0092663Y0181500D03*
X0097663Y0181500D03*
D36*
X0112663Y0199500D03*
D37*
X0052663Y0167500D03*
D38*
X0052663Y0171437D03*
X0050104Y0171437D03*
X0055223Y0171437D03*
X0055223Y0163563D03*
X0052663Y0163563D03*
X0050104Y0163563D03*
D39*
X0053824Y0153525D03*
X0062486Y0153525D03*
M02*
