%
M48
M72
T01C0.01181
T02C0.01969
T03C0.02362
T04C0.02756
T05C0.03500
T06C0.03543
%
T01
X45663Y7500
X45663Y11000
X45663Y14500
X55363Y13000
X55363Y16000
X60663Y17000
X60663Y20000
X56163Y20000
X51163Y23000
X50163Y21500
X49163Y23000
X50163Y24500
X68663Y20000
X76163Y20000
X73863Y16000
X73863Y13000
X68663Y17000
X82663Y20000
X87163Y20000
X93663Y20000
X98663Y20000
X104163Y20000
X111163Y14500
X111163Y11500
X111163Y7500
X99163Y8500
X89163Y8500
X79163Y8500
X85663Y16500
X93663Y16500
X94163Y32000
X85963Y32000
X77663Y30500
X94163Y39000
X77163Y44000
X72163Y44000
X67163Y44000
X61163Y43000
X61163Y39500
X45163Y44500
X59163Y56000
X66163Y57000
X79663Y48000
X87163Y59500
X82663Y61500
X88163Y63000
X95163Y64500
X99663Y65000
X95163Y70000
X90163Y70000
X95163Y75000
X87863Y75700
X80163Y81500
X77163Y83500
X75663Y86500
X72663Y86000
X80163Y90000
X82163Y87500
X85163Y88000
X84163Y93000
X89163Y93500
X91163Y96000
X91163Y100000
X94163Y100000
X94163Y105000
X85963Y106000
X85863Y109300
X77463Y109500
X77663Y113000
X69363Y113900
X61163Y113500
X61163Y110500
X61163Y107500
X69763Y109200
X67163Y101000
X64163Y101000
X61163Y101000
X62663Y98000
X66163Y98000
X66663Y95000
X83163Y98000
X100163Y88500
X110663Y84500
X73463Y68400
X59163Y74500
X60963Y82400
X44663Y94500
X44663Y104500
X52163Y119500
X49663Y121500
X49363Y124500
X62163Y129500
X60663Y132500
X58663Y135000
X58663Y138000
X70963Y137600
X79863Y131600
X79663Y127200
X76163Y124300
X83163Y124300
X92663Y128500
X94363Y131300
X92663Y134000
X90863Y131300
X97663Y133500
X84463Y137500
X95663Y145500
X81663Y146300
X76763Y150400
X77363Y153500
X79163Y156000
X77363Y158400
X74363Y158300
X74663Y155000
X71663Y154000
X73863Y151700
X71863Y149100
X66663Y150000
X66663Y158000
X59163Y158500
X47663Y165500
X47663Y168500
X47663Y171500
X63863Y169600
X64963Y171100
X66063Y169600
X69163Y169300
X74120Y173957
X74120Y177500
X77663Y177500
X77663Y173957
X81207Y173957
X81207Y177500
X88963Y176500
X88963Y173500
X87863Y170500
X89163Y167700
X102463Y173000
X101663Y176000
X108863Y175600
X104663Y185500
X102163Y185500
X86463Y184800
X84963Y186000
X81207Y181043
X77663Y181043
X74120Y181043
X71663Y190500
X54763Y184200
X53163Y185300
X51563Y184200
X53163Y183100
X81263Y158200
X84263Y158200
X82163Y155300
X86563Y154100
X94163Y154500
X96163Y157000
X93163Y157700
X101163Y154500
X102163Y158000
X110663Y114500
X94163Y111500
X110663Y64500
X99163Y56500
X99163Y51500
X55363Y10000
X55363Y7000
T02
X83238Y198500
X105089Y198500
T03
X101841Y190232
X86486Y190232
X92663Y181500
X97663Y181500
T04
X66356Y47539
T05
X42663Y19500
X42663Y29500
X42663Y39500
X42663Y49500
X42663Y59500
X42663Y69500
X42663Y79500
X42663Y89500
X42663Y99500
X42663Y109500
X42663Y119500
X42663Y129500
X42663Y139500
X42663Y149500
X42663Y159500
X42663Y169500
X42663Y179500
X42663Y189500
X112663Y189500
X112663Y179500
X112663Y169500
X112663Y159500
X112663Y149500
X112663Y139500
X112663Y129500
X112663Y119500
X112663Y109500
X112663Y99500
X112663Y89500
X112663Y79500
X112663Y69500
X112663Y59500
X112663Y49500
X112663Y39500
X112663Y29500
X112663Y19500
X112663Y199500
T06
X101789Y14861
M30
