G75*
%MOIN*%
%OFA0B0*%
%FSLAX25Y25*%
%IPPOS*%
%LPD*%
%AMOC8*
5,1,8,0,0,1.08239X$1,22.5*
%
%ADD10R,0.01575X0.05315*%
%ADD11R,0.05906X0.07480*%
%ADD12C,0.04331*%
%ADD13R,0.04921X0.02559*%
%ADD14R,0.03150X0.03150*%
%ADD15R,0.02400X0.01800*%
%ADD16C,0.05800*%
%ADD17R,0.04134X0.08661*%
%ADD18R,0.03937X0.04134*%
%ADD19R,0.01800X0.02400*%
%ADD20R,0.03150X0.05906*%
%ADD21R,0.05906X0.03150*%
%ADD22C,0.01969*%
%ADD23R,0.04331X0.04331*%
%ADD24R,0.03937X0.03150*%
%ADD25C,0.02781*%
%ADD26R,0.06299X0.11811*%
%ADD27R,0.03937X0.21654*%
%ADD28R,0.02800X0.04100*%
%ADD29R,0.07402X0.06811*%
%ADD30R,0.01181X0.03150*%
%ADD31R,0.03937X0.04331*%
%ADD32C,0.03962*%
%ADD33C,0.05800*%
%ADD34R,0.06299X0.03543*%
%ADD35R,0.01181X0.02362*%
%ADD36R,0.03150X0.10630*%
%ADD37C,0.01600*%
%ADD38C,0.02381*%
%ADD39C,0.01200*%
%ADD40C,0.00800*%
%ADD41C,0.00600*%
%ADD42C,0.01000*%
%ADD43C,0.01300*%
%ADD44C,0.02400*%
D10*
X0089045Y0187969D03*
X0091604Y0187969D03*
X0094163Y0187969D03*
X0096723Y0187969D03*
X0099282Y0187969D03*
D11*
X0098100Y0198500D03*
X0090226Y0198461D03*
D12*
X0083238Y0196335D02*
X0083238Y0200665D01*
X0105089Y0200665D02*
X0105089Y0196335D01*
D13*
X0102545Y0140551D03*
X0102545Y0134449D03*
X0087782Y0134449D03*
X0087782Y0140551D03*
X0067545Y0140551D03*
X0067545Y0134449D03*
X0052782Y0134449D03*
X0052782Y0140551D03*
D14*
X0072663Y0162047D03*
X0072663Y0167953D03*
X0097711Y0149000D03*
X0103616Y0149000D03*
D15*
X0092663Y0149900D03*
X0089163Y0149900D03*
X0085663Y0149900D03*
X0085663Y0146100D03*
X0089163Y0146100D03*
X0092663Y0146100D03*
X0099163Y0157100D03*
X0099163Y0160900D03*
X0088663Y0161100D03*
X0088663Y0164900D03*
X0076663Y0164900D03*
X0076663Y0161100D03*
X0077663Y0016400D03*
X0081663Y0016400D03*
X0089663Y0016400D03*
X0089663Y0012600D03*
X0081663Y0012600D03*
X0077663Y0012600D03*
X0097663Y0012600D03*
X0097663Y0016400D03*
D16*
X0112663Y0019500D02*
X0118463Y0019500D01*
X0118463Y0029500D02*
X0112663Y0029500D01*
X0112663Y0039500D02*
X0118463Y0039500D01*
X0118463Y0049500D02*
X0112663Y0049500D01*
X0112663Y0059500D02*
X0118463Y0059500D01*
X0118463Y0069500D02*
X0112663Y0069500D01*
X0112663Y0079500D02*
X0118463Y0079500D01*
X0118463Y0089500D02*
X0112663Y0089500D01*
X0112663Y0099500D02*
X0118463Y0099500D01*
X0118463Y0109500D02*
X0112663Y0109500D01*
X0112663Y0119500D02*
X0118463Y0119500D01*
X0118463Y0129500D02*
X0112663Y0129500D01*
X0112663Y0139500D02*
X0118463Y0139500D01*
X0118463Y0149500D02*
X0112663Y0149500D01*
X0112663Y0159500D02*
X0118463Y0159500D01*
X0118463Y0169500D02*
X0112663Y0169500D01*
X0112663Y0179500D02*
X0118463Y0179500D01*
X0118463Y0189500D02*
X0112663Y0189500D01*
X0042663Y0189500D02*
X0036863Y0189500D01*
X0036863Y0179500D02*
X0042663Y0179500D01*
X0042663Y0169500D02*
X0036863Y0169500D01*
X0036863Y0159500D02*
X0042663Y0159500D01*
X0042663Y0149500D02*
X0036863Y0149500D01*
X0036863Y0139500D02*
X0042663Y0139500D01*
X0042663Y0129500D02*
X0036863Y0129500D01*
X0036863Y0119500D02*
X0042663Y0119500D01*
X0042663Y0109500D02*
X0036863Y0109500D01*
X0036863Y0099500D02*
X0042663Y0099500D01*
X0042663Y0089500D02*
X0036863Y0089500D01*
X0036863Y0079500D02*
X0042663Y0079500D01*
X0042663Y0069500D02*
X0036863Y0069500D01*
X0036863Y0059500D02*
X0042663Y0059500D01*
X0042663Y0049500D02*
X0036863Y0049500D01*
X0036863Y0039500D02*
X0042663Y0039500D01*
X0042663Y0029500D02*
X0036863Y0029500D01*
X0036863Y0019500D02*
X0042663Y0019500D01*
D17*
X0058856Y0010500D03*
X0070471Y0010500D03*
D18*
X0064663Y0016514D03*
D19*
X0052563Y0018000D03*
X0048763Y0018000D03*
X0048763Y0014500D03*
X0048763Y0011000D03*
X0052563Y0011000D03*
X0052563Y0014500D03*
X0052563Y0007500D03*
X0048763Y0007500D03*
X0066263Y0129000D03*
X0070063Y0129000D03*
X0073263Y0129000D03*
X0077063Y0129000D03*
X0077063Y0146000D03*
X0073263Y0146000D03*
X0101263Y0179000D03*
X0105063Y0179000D03*
D20*
X0099317Y0119547D03*
X0094986Y0119547D03*
X0090656Y0119547D03*
X0086325Y0119547D03*
X0081994Y0119547D03*
X0077663Y0119547D03*
X0073333Y0119547D03*
X0069002Y0119547D03*
X0064671Y0119547D03*
X0060341Y0119547D03*
X0056010Y0119547D03*
X0056010Y0025453D03*
X0060341Y0025453D03*
X0064671Y0025453D03*
X0069002Y0025453D03*
X0073333Y0025453D03*
X0077663Y0025453D03*
X0081994Y0025453D03*
X0086325Y0025453D03*
X0090656Y0025453D03*
X0094986Y0025453D03*
X0099317Y0025453D03*
D21*
X0105026Y0029193D03*
X0105026Y0033524D03*
X0105026Y0037854D03*
X0105026Y0042185D03*
X0105026Y0046516D03*
X0105026Y0050846D03*
X0105026Y0055177D03*
X0105026Y0059508D03*
X0105026Y0063839D03*
X0105026Y0068169D03*
X0105026Y0072500D03*
X0105026Y0076831D03*
X0105026Y0081161D03*
X0105026Y0085492D03*
X0105026Y0089823D03*
X0105026Y0094154D03*
X0105026Y0098484D03*
X0105026Y0102815D03*
X0105026Y0107146D03*
X0105026Y0111476D03*
X0105026Y0115807D03*
X0050301Y0115807D03*
X0050301Y0111476D03*
X0050301Y0107146D03*
X0050301Y0102815D03*
X0050301Y0098484D03*
X0050301Y0094154D03*
X0050301Y0089823D03*
X0050301Y0085492D03*
X0050301Y0081161D03*
X0050301Y0076831D03*
X0050301Y0072500D03*
X0050301Y0068169D03*
X0050301Y0063839D03*
X0050301Y0059508D03*
X0050301Y0055177D03*
X0050301Y0050846D03*
X0050301Y0046516D03*
X0050301Y0042185D03*
X0050301Y0037854D03*
X0050301Y0033524D03*
X0050301Y0029193D03*
D22*
X0105223Y0025256D03*
D23*
X0098333Y0032146D03*
X0090065Y0032146D03*
X0081797Y0032146D03*
X0073530Y0032146D03*
X0065262Y0032146D03*
X0056994Y0032146D03*
X0056994Y0039232D03*
X0065262Y0039232D03*
X0073530Y0039232D03*
X0081797Y0039232D03*
X0090065Y0039232D03*
X0098333Y0039232D03*
X0098333Y0046319D03*
X0098333Y0060492D03*
X0056994Y0060492D03*
X0056994Y0046319D03*
X0056994Y0084508D03*
X0056994Y0098681D03*
X0056994Y0105768D03*
X0065262Y0105768D03*
X0073530Y0105768D03*
X0081797Y0105768D03*
X0090065Y0105768D03*
X0098333Y0105768D03*
X0098333Y0112854D03*
X0090065Y0112854D03*
X0081797Y0112854D03*
X0073530Y0112854D03*
X0065262Y0112854D03*
X0056994Y0112854D03*
X0098333Y0098681D03*
X0098333Y0084508D03*
D24*
X0080616Y0135335D03*
X0074711Y0135335D03*
X0074711Y0139665D03*
X0080616Y0139665D03*
D25*
X0081207Y0173957D03*
X0081207Y0177500D03*
X0077663Y0177500D03*
X0074120Y0177500D03*
X0074120Y0173957D03*
X0077663Y0173957D03*
X0077663Y0181043D03*
X0074120Y0181043D03*
X0081207Y0181043D03*
D26*
X0077049Y0193063D03*
X0050278Y0193063D03*
D27*
X0059726Y0184126D03*
X0067600Y0184126D03*
D28*
X0054604Y0177024D03*
X0048704Y0177024D03*
X0059693Y0164019D03*
X0065593Y0164019D03*
D29*
X0096163Y0170000D03*
D30*
X0095179Y0175512D03*
X0093211Y0175512D03*
X0097148Y0175512D03*
X0099116Y0175512D03*
X0099116Y0164488D03*
X0097148Y0164488D03*
X0095179Y0164488D03*
X0093211Y0164488D03*
D31*
X0103163Y0162154D03*
X0103163Y0168846D03*
X0081163Y0168846D03*
X0081163Y0162154D03*
D32*
X0092663Y0181500D03*
X0097663Y0181500D03*
D33*
X0112663Y0199500D03*
D34*
X0052663Y0167500D03*
D35*
X0052663Y0171437D03*
X0050104Y0171437D03*
X0055223Y0171437D03*
X0055223Y0163563D03*
X0052663Y0163563D03*
X0050104Y0163563D03*
D36*
X0053824Y0153525D03*
X0062486Y0153525D03*
D37*
X0092663Y0181500D02*
X0094163Y0183000D01*
X0094163Y0187969D01*
X0096723Y0187969D02*
X0096723Y0182441D01*
X0097663Y0181500D01*
X0099317Y0085492D02*
X0098333Y0084508D01*
X0099317Y0085492D02*
X0105026Y0085492D01*
X0062663Y0076500D02*
X0058663Y0080500D01*
X0050963Y0080500D01*
X0050301Y0081161D01*
X0062663Y0076500D02*
X0062663Y0046000D01*
X0064663Y0044000D01*
X0067163Y0044000D01*
X0098333Y0039232D02*
X0099711Y0037854D01*
X0105026Y0037854D01*
X0105026Y0029193D02*
X0104833Y0029000D01*
X0102663Y0029000D01*
X0099317Y0025654D01*
X0099317Y0025453D01*
X0097663Y0012600D02*
X0097663Y0010000D01*
X0099163Y0008500D01*
X0089663Y0009000D02*
X0089163Y0008500D01*
X0089663Y0009000D02*
X0089663Y0012600D01*
X0081663Y0012600D02*
X0079663Y0012600D01*
X0079663Y0009000D01*
X0079163Y0008500D01*
X0079663Y0012600D02*
X0077663Y0012600D01*
X0052563Y0011000D02*
X0052563Y0007500D01*
X0052563Y0011000D02*
X0052563Y0014500D01*
X0052563Y0018000D01*
D38*
X0055363Y0016000D03*
X0055363Y0013000D03*
X0060663Y0017000D03*
X0060663Y0020000D03*
X0056163Y0020000D03*
X0051163Y0023000D03*
X0050163Y0021500D03*
X0049163Y0023000D03*
X0050163Y0024500D03*
X0068663Y0020000D03*
X0076163Y0020000D03*
X0073863Y0016000D03*
X0073863Y0013000D03*
X0068663Y0017000D03*
X0082663Y0020000D03*
X0087163Y0020000D03*
X0093663Y0020000D03*
X0098663Y0020000D03*
X0104163Y0020000D03*
X0111163Y0014500D03*
X0111163Y0011500D03*
X0111163Y0007500D03*
X0099163Y0008500D03*
X0089163Y0008500D03*
X0079163Y0008500D03*
X0085663Y0016500D03*
X0093663Y0016500D03*
X0094163Y0032000D03*
X0085963Y0032000D03*
X0077663Y0030500D03*
X0094163Y0039000D03*
X0077163Y0044000D03*
X0072163Y0044000D03*
X0067163Y0044000D03*
X0061163Y0043000D03*
X0061163Y0039500D03*
X0045163Y0044500D03*
X0059163Y0056000D03*
X0066163Y0057000D03*
X0079663Y0048000D03*
X0087163Y0059500D03*
X0082663Y0061500D03*
X0088163Y0063000D03*
X0095163Y0064500D03*
X0099663Y0065000D03*
X0095163Y0070000D03*
X0090163Y0070000D03*
X0095163Y0075000D03*
X0087863Y0075700D03*
X0080163Y0081500D03*
X0077163Y0083500D03*
X0075663Y0086500D03*
X0072663Y0086000D03*
X0080163Y0090000D03*
X0082163Y0087500D03*
X0085163Y0088000D03*
X0084163Y0093000D03*
X0089163Y0093500D03*
X0091163Y0096000D03*
X0091163Y0100000D03*
X0094163Y0100000D03*
X0094163Y0105000D03*
X0085963Y0106000D03*
X0085863Y0109300D03*
X0077463Y0109500D03*
X0077663Y0113000D03*
X0069363Y0113900D03*
X0061163Y0113500D03*
X0061163Y0110500D03*
X0061163Y0107500D03*
X0069763Y0109200D03*
X0067163Y0101000D03*
X0064163Y0101000D03*
X0061163Y0101000D03*
X0062663Y0098000D03*
X0066163Y0098000D03*
X0066663Y0095000D03*
X0083163Y0098000D03*
X0100163Y0088500D03*
X0110663Y0084500D03*
X0073463Y0068400D03*
X0059163Y0074500D03*
X0060963Y0082400D03*
X0044663Y0094500D03*
X0044663Y0104500D03*
X0052163Y0119500D03*
X0049663Y0121500D03*
X0049363Y0124500D03*
X0062163Y0129500D03*
X0060663Y0132500D03*
X0058663Y0135000D03*
X0058663Y0138000D03*
X0070963Y0137600D03*
X0079863Y0131600D03*
X0079663Y0127200D03*
X0076163Y0124300D03*
X0083163Y0124300D03*
X0092663Y0128500D03*
X0094363Y0131300D03*
X0092663Y0134000D03*
X0090863Y0131300D03*
X0097663Y0133500D03*
X0084463Y0137500D03*
X0095663Y0145500D03*
X0081663Y0146300D03*
X0076763Y0150400D03*
X0077363Y0153500D03*
X0079163Y0156000D03*
X0077363Y0158400D03*
X0074363Y0158300D03*
X0074663Y0155000D03*
X0071663Y0154000D03*
X0073863Y0151700D03*
X0071863Y0149100D03*
X0066663Y0150000D03*
X0066663Y0158000D03*
X0059163Y0158500D03*
X0047663Y0165500D03*
X0047663Y0168500D03*
X0047663Y0171500D03*
X0063863Y0169600D03*
X0064963Y0171100D03*
X0066063Y0169600D03*
X0069163Y0169300D03*
X0087863Y0170500D03*
X0089163Y0167700D03*
X0088963Y0173500D03*
X0088963Y0176500D03*
X0101663Y0176000D03*
X0102463Y0173000D03*
X0108863Y0175600D03*
X0104663Y0185500D03*
X0102163Y0185500D03*
X0086463Y0184800D03*
X0084963Y0186000D03*
X0071663Y0190500D03*
X0054763Y0184200D03*
X0053163Y0185300D03*
X0051563Y0184200D03*
X0053163Y0183100D03*
X0081263Y0158200D03*
X0084263Y0158200D03*
X0082163Y0155300D03*
X0086563Y0154100D03*
X0094163Y0154500D03*
X0096163Y0157000D03*
X0093163Y0157700D03*
X0101163Y0154500D03*
X0102163Y0158000D03*
X0110663Y0114500D03*
X0094163Y0111500D03*
X0110663Y0064500D03*
X0099163Y0056500D03*
X0099163Y0051500D03*
X0045663Y0014500D03*
X0045663Y0011000D03*
X0045663Y0007500D03*
X0055363Y0007000D03*
X0055363Y0010000D03*
D39*
X0070963Y0137600D02*
X0070963Y0138300D01*
X0071663Y0139000D01*
X0074045Y0139000D01*
X0074711Y0139665D01*
X0092663Y0149900D02*
X0096811Y0149900D01*
X0097711Y0149000D01*
X0077363Y0158400D02*
X0076663Y0159100D01*
X0076663Y0161100D01*
X0076663Y0164900D02*
X0076663Y0167500D01*
X0075663Y0168500D01*
X0073211Y0168500D01*
X0072663Y0167953D01*
X0072663Y0162047D02*
X0071663Y0161047D01*
X0071663Y0157500D01*
X0074163Y0155000D01*
X0074663Y0155000D01*
X0081163Y0162154D02*
X0082217Y0161100D01*
X0088663Y0161100D01*
X0094263Y0161100D01*
X0095179Y0162016D01*
X0095179Y0164488D01*
X0097148Y0164488D02*
X0097148Y0162016D01*
X0098163Y0161000D01*
X0099063Y0161000D01*
X0099163Y0160900D01*
X0101910Y0160900D01*
X0103163Y0162154D01*
X0103163Y0168846D02*
X0102463Y0169546D01*
X0102463Y0173000D01*
X0105063Y0175600D01*
X0105063Y0179000D01*
X0101263Y0179000D02*
X0101263Y0176400D01*
X0101663Y0176000D01*
X0099116Y0176000D01*
X0099116Y0175512D01*
D40*
X0095179Y0175512D02*
X0095163Y0175528D01*
X0095163Y0177500D01*
X0094463Y0178200D01*
X0091863Y0178200D01*
X0091163Y0177500D01*
X0091163Y0175600D01*
X0089063Y0173500D01*
X0088963Y0173500D01*
X0091263Y0173700D02*
X0091263Y0172500D01*
X0089263Y0170500D01*
X0087863Y0170500D01*
X0081163Y0168846D02*
X0079010Y0171000D01*
X0071163Y0171000D01*
X0070263Y0171900D01*
X0065763Y0171900D01*
X0064963Y0171100D01*
X0084363Y0155100D02*
X0085763Y0156500D01*
X0087163Y0156500D01*
X0087663Y0156500D01*
X0088663Y0156500D01*
X0093163Y0152000D01*
X0102663Y0152000D01*
X0106163Y0155500D01*
X0106163Y0169500D01*
X0112663Y0176000D01*
X0112663Y0179500D01*
X0093211Y0175512D02*
X0093075Y0175512D01*
X0091263Y0173700D01*
X0084363Y0155100D02*
X0084363Y0152800D01*
X0085663Y0151500D01*
X0085663Y0149900D01*
X0085663Y0149600D01*
X0085863Y0149600D01*
X0089163Y0146300D01*
X0089163Y0146100D01*
X0089163Y0144800D01*
X0089863Y0144100D01*
X0091163Y0144100D01*
X0094712Y0140551D01*
X0102545Y0140551D01*
X0099163Y0145500D02*
X0096663Y0143000D01*
X0094663Y0143000D01*
X0092663Y0145000D01*
X0092663Y0146100D01*
X0085663Y0146100D02*
X0085463Y0146300D01*
X0081663Y0146300D01*
X0077063Y0146000D02*
X0077063Y0143218D01*
X0080616Y0139665D01*
X0080616Y0135335D02*
X0079998Y0135335D01*
X0077063Y0132400D01*
X0077063Y0129000D01*
X0077163Y0126500D02*
X0075163Y0126500D01*
X0073663Y0125000D01*
X0058163Y0125000D01*
X0052782Y0130382D01*
X0052782Y0134449D01*
X0058163Y0134500D02*
X0058663Y0135000D01*
X0058163Y0134500D02*
X0058163Y0130000D01*
X0061663Y0126500D01*
X0071163Y0126500D01*
X0073263Y0128600D01*
X0073263Y0129000D01*
X0070063Y0129000D02*
X0070063Y0131400D01*
X0073998Y0135335D01*
X0074711Y0135335D01*
X0063163Y0135000D02*
X0060663Y0132500D01*
X0062163Y0129500D02*
X0062663Y0129000D01*
X0066263Y0129000D01*
X0063163Y0135000D02*
X0063163Y0142000D01*
X0064163Y0143000D01*
X0070263Y0143000D01*
X0073263Y0146000D01*
X0099163Y0145500D02*
X0108663Y0145500D01*
X0112663Y0149500D01*
X0092663Y0128500D02*
X0089163Y0125000D01*
X0085663Y0125000D01*
X0084163Y0126500D01*
X0082163Y0126500D01*
X0080663Y0125000D01*
X0078663Y0125000D01*
X0077163Y0126500D01*
X0084163Y0102500D02*
X0080163Y0098500D01*
X0080163Y0095500D01*
X0072663Y0088000D01*
X0072663Y0086000D01*
X0075663Y0086500D02*
X0075663Y0089000D01*
X0079163Y0092500D01*
X0081163Y0092500D01*
X0083163Y0090500D01*
X0086163Y0090500D01*
X0087163Y0089500D01*
X0097663Y0089500D01*
X0099163Y0091000D01*
X0103849Y0091000D01*
X0105026Y0089823D01*
X0105026Y0081161D02*
X0104364Y0080500D01*
X0094163Y0080500D01*
X0086663Y0088000D01*
X0085163Y0088000D01*
X0084163Y0085500D02*
X0082163Y0087500D01*
X0079663Y0086500D02*
X0079663Y0089500D01*
X0080163Y0090000D01*
X0079663Y0086500D02*
X0083163Y0083000D01*
X0087663Y0083000D01*
X0091163Y0079500D01*
X0091163Y0073500D01*
X0092663Y0072000D01*
X0092663Y0059000D01*
X0097663Y0054000D01*
X0103849Y0054000D01*
X0105026Y0055177D01*
X0095663Y0042500D02*
X0091163Y0047000D01*
X0091163Y0069000D01*
X0090163Y0070000D01*
X0094163Y0072500D02*
X0092663Y0074000D01*
X0092663Y0080000D01*
X0087163Y0085500D01*
X0084163Y0085500D01*
X0077163Y0083500D02*
X0077163Y0056000D01*
X0085663Y0047500D01*
X0085663Y0037000D01*
X0087163Y0035500D01*
X0101163Y0035500D01*
X0103140Y0033524D01*
X0105026Y0033524D01*
X0105026Y0042185D02*
X0104711Y0042500D01*
X0095663Y0042500D01*
X0082663Y0046000D02*
X0082663Y0048500D01*
X0068163Y0063000D01*
X0068163Y0084000D01*
X0058010Y0094154D01*
X0050301Y0094154D01*
X0050301Y0089823D02*
X0060341Y0089823D01*
X0066663Y0083500D01*
X0066663Y0062500D01*
X0079663Y0049500D01*
X0079663Y0048000D01*
X0082663Y0046000D02*
X0080663Y0044000D01*
X0077163Y0044000D01*
X0072163Y0044000D02*
X0072163Y0055000D01*
X0065163Y0062000D01*
X0065163Y0083000D01*
X0060163Y0088000D01*
X0054663Y0088000D01*
X0052156Y0085492D01*
X0050301Y0085492D01*
X0084163Y0102500D02*
X0104711Y0102500D01*
X0105026Y0102815D01*
X0105026Y0076831D02*
X0096994Y0076831D01*
X0095163Y0075000D01*
X0094163Y0072500D02*
X0105026Y0072500D01*
X0104695Y0068500D02*
X0096663Y0068500D01*
X0095163Y0070000D01*
X0104695Y0068500D02*
X0105026Y0068169D01*
D41*
X0038963Y0015700D02*
X0038963Y0014807D01*
X0043467Y0005800D01*
X0046963Y0005800D01*
X0046963Y0020503D01*
X0046666Y0020800D01*
X0045963Y0021503D01*
X0045963Y0027537D01*
X0045885Y0027347D01*
X0044816Y0026279D01*
X0043419Y0025700D01*
X0038963Y0025700D01*
X0038963Y0023300D01*
X0043419Y0023300D01*
X0044816Y0022721D01*
X0045885Y0021653D01*
X0046463Y0020256D01*
X0046463Y0018744D01*
X0045885Y0017347D01*
X0044816Y0016279D01*
X0043419Y0015700D01*
X0038963Y0015700D01*
X0038963Y0015273D02*
X0046963Y0015273D01*
X0046963Y0014675D02*
X0039030Y0014675D01*
X0039329Y0014076D02*
X0046963Y0014076D01*
X0046963Y0013478D02*
X0039628Y0013478D01*
X0039927Y0012879D02*
X0046963Y0012879D01*
X0046963Y0012281D02*
X0040227Y0012281D01*
X0040526Y0011682D02*
X0046963Y0011682D01*
X0046963Y0011084D02*
X0040825Y0011084D01*
X0041124Y0010485D02*
X0046963Y0010485D01*
X0046963Y0009887D02*
X0041424Y0009887D01*
X0041723Y0009288D02*
X0046963Y0009288D01*
X0046963Y0008690D02*
X0042022Y0008690D01*
X0042321Y0008091D02*
X0046963Y0008091D01*
X0046963Y0007493D02*
X0042621Y0007493D01*
X0042920Y0006894D02*
X0046963Y0006894D01*
X0046963Y0006296D02*
X0043219Y0006296D01*
X0048163Y0006296D02*
X0050663Y0006296D01*
X0050663Y0005800D02*
X0048163Y0005800D01*
X0048163Y0021000D01*
X0047163Y0022000D01*
X0047163Y0039500D01*
X0053163Y0039500D01*
X0053163Y0022000D01*
X0050663Y0019500D01*
X0050663Y0005800D01*
X0050663Y0006894D02*
X0048163Y0006894D01*
X0048163Y0007493D02*
X0050663Y0007493D01*
X0050663Y0008091D02*
X0048163Y0008091D01*
X0048163Y0008690D02*
X0050663Y0008690D01*
X0050663Y0009288D02*
X0048163Y0009288D01*
X0048163Y0009887D02*
X0050663Y0009887D01*
X0050663Y0010485D02*
X0048163Y0010485D01*
X0048163Y0011084D02*
X0050663Y0011084D01*
X0050663Y0011682D02*
X0048163Y0011682D01*
X0048163Y0012281D02*
X0050663Y0012281D01*
X0050663Y0012879D02*
X0048163Y0012879D01*
X0048163Y0013478D02*
X0050663Y0013478D01*
X0050663Y0014076D02*
X0048163Y0014076D01*
X0048163Y0014675D02*
X0050663Y0014675D01*
X0050663Y0015273D02*
X0048163Y0015273D01*
X0048163Y0015872D02*
X0050663Y0015872D01*
X0050663Y0016470D02*
X0048163Y0016470D01*
X0048163Y0017069D02*
X0050663Y0017069D01*
X0050663Y0017667D02*
X0048163Y0017667D01*
X0048163Y0018266D02*
X0050663Y0018266D01*
X0050663Y0018864D02*
X0048163Y0018864D01*
X0048163Y0019463D02*
X0050663Y0019463D01*
X0051225Y0020061D02*
X0048163Y0020061D01*
X0048163Y0020660D02*
X0051823Y0020660D01*
X0052422Y0021258D02*
X0047905Y0021258D01*
X0047307Y0021857D02*
X0053020Y0021857D01*
X0053163Y0022455D02*
X0047163Y0022455D01*
X0047163Y0023054D02*
X0053163Y0023054D01*
X0053163Y0023652D02*
X0047163Y0023652D01*
X0047163Y0024251D02*
X0053163Y0024251D01*
X0053163Y0024849D02*
X0047163Y0024849D01*
X0047163Y0025448D02*
X0053163Y0025448D01*
X0053163Y0026046D02*
X0047163Y0026046D01*
X0047163Y0026645D02*
X0053163Y0026645D01*
X0053163Y0027243D02*
X0047163Y0027243D01*
X0047163Y0027842D02*
X0053163Y0027842D01*
X0053163Y0028440D02*
X0047163Y0028440D01*
X0047163Y0029039D02*
X0053163Y0029039D01*
X0053163Y0029637D02*
X0047163Y0029637D01*
X0047163Y0030236D02*
X0053163Y0030236D01*
X0053163Y0030834D02*
X0047163Y0030834D01*
X0047163Y0031433D02*
X0053163Y0031433D01*
X0053163Y0032032D02*
X0047163Y0032032D01*
X0047163Y0032630D02*
X0053163Y0032630D01*
X0053163Y0033229D02*
X0047163Y0033229D01*
X0047163Y0033827D02*
X0053163Y0033827D01*
X0053163Y0034426D02*
X0047163Y0034426D01*
X0047163Y0035024D02*
X0053163Y0035024D01*
X0053163Y0035623D02*
X0047163Y0035623D01*
X0047163Y0036221D02*
X0053163Y0036221D01*
X0053163Y0036820D02*
X0047163Y0036820D01*
X0047163Y0037418D02*
X0053163Y0037418D01*
X0053163Y0038017D02*
X0047163Y0038017D01*
X0047163Y0038615D02*
X0053163Y0038615D01*
X0053163Y0039214D02*
X0047163Y0039214D01*
X0046393Y0040426D02*
X0045885Y0041653D01*
X0044816Y0042721D01*
X0043419Y0043300D01*
X0038963Y0043300D01*
X0038963Y0045700D01*
X0043419Y0045700D01*
X0044816Y0046279D01*
X0045885Y0047347D01*
X0046463Y0048744D01*
X0046463Y0048884D01*
X0046666Y0048681D01*
X0046449Y0048463D01*
X0046449Y0044568D01*
X0046976Y0044041D01*
X0053627Y0044041D01*
X0054154Y0044568D01*
X0054154Y0048463D01*
X0053936Y0048681D01*
X0054154Y0048899D01*
X0054154Y0052794D01*
X0053936Y0053012D01*
X0054154Y0053230D01*
X0054154Y0057125D01*
X0053936Y0057343D01*
X0054154Y0057560D01*
X0054154Y0061455D01*
X0053936Y0061673D01*
X0054154Y0061891D01*
X0054154Y0065786D01*
X0053936Y0066004D01*
X0054154Y0066222D01*
X0054154Y0070117D01*
X0053627Y0070644D01*
X0046976Y0070644D01*
X0046463Y0070132D01*
X0046463Y0070256D01*
X0045885Y0071653D01*
X0044816Y0072721D01*
X0043419Y0073300D01*
X0038963Y0073300D01*
X0038963Y0075700D01*
X0043419Y0075700D01*
X0044816Y0076279D01*
X0045885Y0077347D01*
X0046449Y0078708D01*
X0046449Y0074883D01*
X0046976Y0074356D01*
X0053627Y0074356D01*
X0054154Y0074883D01*
X0054154Y0078778D01*
X0054132Y0078800D01*
X0057959Y0078800D01*
X0060963Y0075796D01*
X0060963Y0045296D01*
X0062963Y0043296D01*
X0063959Y0042300D01*
X0065907Y0042300D01*
X0066298Y0041909D01*
X0068029Y0041909D01*
X0069254Y0043134D01*
X0069254Y0044866D01*
X0068080Y0046040D01*
X0068634Y0046595D01*
X0068634Y0048482D01*
X0067300Y0049817D01*
X0065413Y0049817D01*
X0064363Y0048767D01*
X0064363Y0060962D01*
X0070863Y0054462D01*
X0070863Y0045656D01*
X0070073Y0044866D01*
X0070073Y0043134D01*
X0071298Y0041909D01*
X0073029Y0041909D01*
X0074254Y0043134D01*
X0074254Y0044866D01*
X0073463Y0045656D01*
X0073463Y0053862D01*
X0078016Y0049309D01*
X0077573Y0048866D01*
X0077573Y0047134D01*
X0078798Y0045909D01*
X0080529Y0045909D01*
X0081363Y0046744D01*
X0081363Y0046538D01*
X0080125Y0045300D01*
X0078820Y0045300D01*
X0078029Y0046091D01*
X0076298Y0046091D01*
X0075073Y0044866D01*
X0075073Y0043134D01*
X0076298Y0041909D01*
X0078029Y0041909D01*
X0078820Y0042700D01*
X0081202Y0042700D01*
X0081963Y0043462D01*
X0083202Y0044700D01*
X0083963Y0045462D01*
X0083963Y0047362D01*
X0084363Y0046962D01*
X0084363Y0036462D01*
X0085125Y0035700D01*
X0086625Y0034200D01*
X0100625Y0034200D01*
X0101173Y0033652D01*
X0101173Y0031576D01*
X0101700Y0031049D01*
X0108351Y0031049D01*
X0108878Y0031576D01*
X0108878Y0035471D01*
X0108351Y0035998D01*
X0102504Y0035998D01*
X0102463Y0036038D01*
X0102463Y0036038D01*
X0101702Y0036800D01*
X0087702Y0036800D01*
X0086963Y0037538D01*
X0086963Y0048038D01*
X0078463Y0056538D01*
X0078463Y0080244D01*
X0079298Y0079409D01*
X0081029Y0079409D01*
X0082254Y0080634D01*
X0082254Y0082071D01*
X0082625Y0081700D01*
X0087125Y0081700D01*
X0089863Y0078962D01*
X0089863Y0072962D01*
X0090625Y0072200D01*
X0090734Y0072091D01*
X0089298Y0072091D01*
X0088073Y0070866D01*
X0088073Y0069134D01*
X0089298Y0067909D01*
X0089863Y0067909D01*
X0089863Y0064256D01*
X0089029Y0065091D01*
X0087298Y0065091D01*
X0086073Y0063866D01*
X0086073Y0062134D01*
X0087298Y0060909D01*
X0089029Y0060909D01*
X0089863Y0061744D01*
X0089863Y0046462D01*
X0090625Y0045700D01*
X0095125Y0041200D01*
X0101173Y0041200D01*
X0101173Y0040237D01*
X0101700Y0039710D01*
X0108351Y0039710D01*
X0108863Y0040223D01*
X0108863Y0038744D01*
X0109442Y0037347D01*
X0110511Y0036279D01*
X0111908Y0035700D01*
X0116363Y0035700D01*
X0116363Y0033300D01*
X0111908Y0033300D01*
X0110511Y0032721D01*
X0109442Y0031653D01*
X0108863Y0030256D01*
X0108863Y0028744D01*
X0109442Y0027347D01*
X0110511Y0026279D01*
X0111908Y0025700D01*
X0116363Y0025700D01*
X0116363Y0023300D01*
X0111908Y0023300D01*
X0110511Y0022721D01*
X0109442Y0021653D01*
X0108863Y0020256D01*
X0108863Y0018744D01*
X0109442Y0017347D01*
X0110511Y0016279D01*
X0111908Y0015700D01*
X0116363Y0015700D01*
X0116363Y0014807D01*
X0111860Y0005800D01*
X0051863Y0005800D01*
X0051863Y0019003D01*
X0054363Y0021503D01*
X0054363Y0039997D01*
X0053661Y0040700D01*
X0046666Y0040700D01*
X0046393Y0040426D01*
X0046151Y0041009D02*
X0084363Y0041009D01*
X0084363Y0040411D02*
X0053950Y0040411D01*
X0054363Y0039812D02*
X0084363Y0039812D01*
X0084363Y0039214D02*
X0054363Y0039214D01*
X0054363Y0038615D02*
X0084363Y0038615D01*
X0084363Y0038017D02*
X0054363Y0038017D01*
X0054363Y0037418D02*
X0084363Y0037418D01*
X0084363Y0036820D02*
X0054363Y0036820D01*
X0054363Y0036221D02*
X0084604Y0036221D01*
X0085202Y0035623D02*
X0054363Y0035623D01*
X0054363Y0035024D02*
X0085801Y0035024D01*
X0086399Y0034426D02*
X0054363Y0034426D01*
X0054363Y0033827D02*
X0100998Y0033827D01*
X0101173Y0033229D02*
X0054363Y0033229D01*
X0054363Y0032630D02*
X0101173Y0032630D01*
X0101173Y0032032D02*
X0054363Y0032032D01*
X0054363Y0031433D02*
X0101316Y0031433D01*
X0102281Y0036221D02*
X0110650Y0036221D01*
X0109970Y0036820D02*
X0087682Y0036820D01*
X0087084Y0037418D02*
X0109413Y0037418D01*
X0109165Y0038017D02*
X0086963Y0038017D01*
X0086963Y0038615D02*
X0108917Y0038615D01*
X0108863Y0039214D02*
X0086963Y0039214D01*
X0086963Y0039812D02*
X0101598Y0039812D01*
X0101173Y0040411D02*
X0086963Y0040411D01*
X0086963Y0041009D02*
X0101173Y0041009D01*
X0101173Y0043800D02*
X0096202Y0043800D01*
X0092463Y0047538D01*
X0092463Y0057362D01*
X0097125Y0052700D01*
X0101173Y0052700D01*
X0101173Y0048899D01*
X0101700Y0048372D01*
X0108351Y0048372D01*
X0108863Y0048884D01*
X0108863Y0048744D01*
X0109442Y0047347D01*
X0110511Y0046279D01*
X0111908Y0045700D01*
X0116363Y0045700D01*
X0116363Y0043300D01*
X0111908Y0043300D01*
X0110511Y0042721D01*
X0109442Y0041653D01*
X0108878Y0040292D01*
X0108878Y0044133D01*
X0108351Y0044660D01*
X0101700Y0044660D01*
X0101173Y0044133D01*
X0101173Y0043800D01*
X0101173Y0044002D02*
X0096000Y0044002D01*
X0095402Y0044600D02*
X0101641Y0044600D01*
X0094803Y0045199D02*
X0116363Y0045199D01*
X0116363Y0044600D02*
X0108411Y0044600D01*
X0108878Y0044002D02*
X0116363Y0044002D01*
X0116363Y0043403D02*
X0108878Y0043403D01*
X0108878Y0042805D02*
X0110712Y0042805D01*
X0109996Y0042206D02*
X0108878Y0042206D01*
X0108878Y0041608D02*
X0109423Y0041608D01*
X0109176Y0041009D02*
X0108878Y0041009D01*
X0108878Y0040411D02*
X0108928Y0040411D01*
X0108863Y0039812D02*
X0108453Y0039812D01*
X0108727Y0035623D02*
X0116363Y0035623D01*
X0116363Y0035024D02*
X0108878Y0035024D01*
X0108878Y0034426D02*
X0116363Y0034426D01*
X0116363Y0033827D02*
X0108878Y0033827D01*
X0108878Y0033229D02*
X0111735Y0033229D01*
X0110420Y0032630D02*
X0108878Y0032630D01*
X0108878Y0032032D02*
X0109821Y0032032D01*
X0109351Y0031433D02*
X0108735Y0031433D01*
X0109103Y0030834D02*
X0054363Y0030834D01*
X0054363Y0030236D02*
X0108863Y0030236D01*
X0108863Y0029637D02*
X0054363Y0029637D01*
X0054363Y0029039D02*
X0062245Y0029039D01*
X0062047Y0028840D02*
X0062662Y0029455D01*
X0066681Y0029455D01*
X0067296Y0028840D01*
X0067296Y0022065D01*
X0066681Y0021450D01*
X0066371Y0021450D01*
X0066371Y0019631D01*
X0067067Y0019631D01*
X0067682Y0019016D01*
X0067682Y0014300D01*
X0068288Y0014300D01*
X0068463Y0014124D01*
X0068463Y0006376D01*
X0068288Y0006200D01*
X0061039Y0006200D01*
X0060863Y0006376D01*
X0060863Y0014124D01*
X0061039Y0014300D01*
X0061645Y0014300D01*
X0061645Y0019016D01*
X0062260Y0019631D01*
X0062971Y0019631D01*
X0062971Y0021450D01*
X0062662Y0021450D01*
X0062047Y0022065D01*
X0062047Y0028840D01*
X0062047Y0028440D02*
X0054363Y0028440D01*
X0054363Y0027842D02*
X0062047Y0027842D01*
X0062047Y0027243D02*
X0054363Y0027243D01*
X0054363Y0026645D02*
X0062047Y0026645D01*
X0062047Y0026046D02*
X0054363Y0026046D01*
X0054363Y0025448D02*
X0062047Y0025448D01*
X0062047Y0024849D02*
X0054363Y0024849D01*
X0054363Y0024251D02*
X0062047Y0024251D01*
X0062047Y0023652D02*
X0054363Y0023652D01*
X0054363Y0023054D02*
X0062047Y0023054D01*
X0062047Y0022455D02*
X0054363Y0022455D01*
X0054363Y0021857D02*
X0062255Y0021857D01*
X0062971Y0021258D02*
X0054119Y0021258D01*
X0053520Y0020660D02*
X0062971Y0020660D01*
X0062971Y0020061D02*
X0052922Y0020061D01*
X0052323Y0019463D02*
X0062092Y0019463D01*
X0061645Y0018864D02*
X0051863Y0018864D01*
X0051863Y0018266D02*
X0061645Y0018266D01*
X0061645Y0017667D02*
X0051863Y0017667D01*
X0051863Y0017069D02*
X0061645Y0017069D01*
X0061645Y0016470D02*
X0051863Y0016470D01*
X0051863Y0015872D02*
X0061645Y0015872D01*
X0061645Y0015273D02*
X0051863Y0015273D01*
X0051863Y0014675D02*
X0061645Y0014675D01*
X0060863Y0014076D02*
X0051863Y0014076D01*
X0051863Y0013478D02*
X0060863Y0013478D01*
X0060863Y0012879D02*
X0051863Y0012879D01*
X0051863Y0012281D02*
X0060863Y0012281D01*
X0060863Y0011682D02*
X0051863Y0011682D01*
X0051863Y0011084D02*
X0060863Y0011084D01*
X0060863Y0010485D02*
X0051863Y0010485D01*
X0051863Y0009887D02*
X0060863Y0009887D01*
X0060863Y0009288D02*
X0051863Y0009288D01*
X0051863Y0008690D02*
X0060863Y0008690D01*
X0060863Y0008091D02*
X0051863Y0008091D01*
X0051863Y0007493D02*
X0060863Y0007493D01*
X0060863Y0006894D02*
X0051863Y0006894D01*
X0051863Y0006296D02*
X0060944Y0006296D01*
X0068383Y0006296D02*
X0112108Y0006296D01*
X0112407Y0006894D02*
X0100514Y0006894D01*
X0100029Y0006409D02*
X0101254Y0007634D01*
X0101254Y0009366D01*
X0100029Y0010591D01*
X0099477Y0010591D01*
X0099363Y0010704D01*
X0099363Y0010927D01*
X0099763Y0011327D01*
X0099763Y0013109D01*
X0100276Y0012596D01*
X0101258Y0012190D01*
X0102321Y0012190D01*
X0103303Y0012596D01*
X0104054Y0013348D01*
X0104461Y0014330D01*
X0104461Y0015393D01*
X0104054Y0016375D01*
X0103303Y0017126D01*
X0102321Y0017533D01*
X0101258Y0017533D01*
X0100276Y0017126D01*
X0099525Y0016375D01*
X0099118Y0015393D01*
X0099118Y0014400D01*
X0096091Y0014400D01*
X0095563Y0013873D01*
X0095563Y0011327D01*
X0095963Y0010927D01*
X0095963Y0009296D01*
X0096959Y0008300D01*
X0097073Y0008186D01*
X0097073Y0007634D01*
X0098298Y0006409D01*
X0100029Y0006409D01*
X0101113Y0007493D02*
X0112706Y0007493D01*
X0113006Y0008091D02*
X0101254Y0008091D01*
X0101254Y0008690D02*
X0113305Y0008690D01*
X0113604Y0009288D02*
X0101254Y0009288D01*
X0100733Y0009887D02*
X0113903Y0009887D01*
X0114203Y0010485D02*
X0100135Y0010485D01*
X0099520Y0011084D02*
X0114502Y0011084D01*
X0114801Y0011682D02*
X0099763Y0011682D01*
X0099763Y0012281D02*
X0101039Y0012281D01*
X0099993Y0012879D02*
X0099763Y0012879D01*
X0099118Y0014675D02*
X0067682Y0014675D01*
X0067682Y0015273D02*
X0099118Y0015273D01*
X0099316Y0015872D02*
X0067682Y0015872D01*
X0067682Y0016470D02*
X0099620Y0016470D01*
X0100218Y0017069D02*
X0067682Y0017069D01*
X0067682Y0017667D02*
X0109310Y0017667D01*
X0109062Y0018266D02*
X0067682Y0018266D01*
X0067682Y0018864D02*
X0108863Y0018864D01*
X0108863Y0019463D02*
X0067235Y0019463D01*
X0066371Y0020061D02*
X0108863Y0020061D01*
X0109031Y0020660D02*
X0066371Y0020660D01*
X0066371Y0021258D02*
X0109279Y0021258D01*
X0109646Y0021857D02*
X0092860Y0021857D01*
X0092603Y0021600D02*
X0093130Y0022127D01*
X0093130Y0028778D01*
X0092603Y0029305D01*
X0088708Y0029305D01*
X0088181Y0028778D01*
X0088181Y0022127D01*
X0088708Y0021600D01*
X0092603Y0021600D01*
X0093130Y0022455D02*
X0110245Y0022455D01*
X0111313Y0023054D02*
X0093130Y0023054D01*
X0093130Y0023652D02*
X0104161Y0023652D01*
X0104442Y0023372D02*
X0106003Y0023372D01*
X0107107Y0024475D01*
X0107107Y0026036D01*
X0106003Y0027140D01*
X0104442Y0027140D01*
X0103338Y0026036D01*
X0103338Y0024475D01*
X0104442Y0023372D01*
X0103563Y0024251D02*
X0093130Y0024251D01*
X0093130Y0024849D02*
X0103338Y0024849D01*
X0103338Y0025448D02*
X0093130Y0025448D01*
X0093130Y0026046D02*
X0103348Y0026046D01*
X0103947Y0026645D02*
X0093130Y0026645D01*
X0093130Y0027243D02*
X0109546Y0027243D01*
X0109237Y0027842D02*
X0093130Y0027842D01*
X0093130Y0028440D02*
X0108989Y0028440D01*
X0108863Y0029039D02*
X0092870Y0029039D01*
X0088441Y0029039D02*
X0067098Y0029039D01*
X0067296Y0028440D02*
X0088181Y0028440D01*
X0088181Y0027842D02*
X0067296Y0027842D01*
X0067296Y0027243D02*
X0088181Y0027243D01*
X0088181Y0026645D02*
X0067296Y0026645D01*
X0067296Y0026046D02*
X0088181Y0026046D01*
X0088181Y0025448D02*
X0067296Y0025448D01*
X0067296Y0024849D02*
X0088181Y0024849D01*
X0088181Y0024251D02*
X0067296Y0024251D01*
X0067296Y0023652D02*
X0088181Y0023652D01*
X0088181Y0023054D02*
X0067296Y0023054D01*
X0067296Y0022455D02*
X0088181Y0022455D01*
X0088451Y0021857D02*
X0067088Y0021857D01*
X0068463Y0014076D02*
X0075767Y0014076D01*
X0075563Y0013873D02*
X0075563Y0011327D01*
X0076091Y0010800D01*
X0077963Y0010800D01*
X0077963Y0010256D01*
X0077073Y0009366D01*
X0077073Y0007634D01*
X0078298Y0006409D01*
X0080029Y0006409D01*
X0081254Y0007634D01*
X0081254Y0008186D01*
X0081363Y0008296D01*
X0081363Y0010800D01*
X0083236Y0010800D01*
X0083763Y0011327D01*
X0083763Y0013873D01*
X0083236Y0014400D01*
X0080091Y0014400D01*
X0079991Y0014300D01*
X0079336Y0014300D01*
X0079236Y0014400D01*
X0076091Y0014400D01*
X0075563Y0013873D01*
X0075563Y0013478D02*
X0068463Y0013478D01*
X0068463Y0012879D02*
X0075563Y0012879D01*
X0075563Y0012281D02*
X0068463Y0012281D01*
X0068463Y0011682D02*
X0075563Y0011682D01*
X0075807Y0011084D02*
X0068463Y0011084D01*
X0068463Y0010485D02*
X0077963Y0010485D01*
X0077594Y0009887D02*
X0068463Y0009887D01*
X0068463Y0009288D02*
X0077073Y0009288D01*
X0077073Y0008690D02*
X0068463Y0008690D01*
X0068463Y0008091D02*
X0077073Y0008091D01*
X0077214Y0007493D02*
X0068463Y0007493D01*
X0068463Y0006894D02*
X0077813Y0006894D01*
X0080514Y0006894D02*
X0087813Y0006894D01*
X0088298Y0006409D02*
X0087073Y0007634D01*
X0087073Y0009366D01*
X0087963Y0010256D01*
X0087963Y0010927D01*
X0087563Y0011327D01*
X0087563Y0013873D01*
X0088091Y0014400D01*
X0091236Y0014400D01*
X0091763Y0013873D01*
X0091763Y0011327D01*
X0091363Y0010927D01*
X0091363Y0008296D01*
X0091254Y0008186D01*
X0091254Y0007634D01*
X0090029Y0006409D01*
X0088298Y0006409D01*
X0087214Y0007493D02*
X0081113Y0007493D01*
X0081254Y0008091D02*
X0087073Y0008091D01*
X0087073Y0008690D02*
X0081363Y0008690D01*
X0081363Y0009288D02*
X0087073Y0009288D01*
X0087594Y0009887D02*
X0081363Y0009887D01*
X0081363Y0010485D02*
X0087963Y0010485D01*
X0087807Y0011084D02*
X0083520Y0011084D01*
X0083763Y0011682D02*
X0087563Y0011682D01*
X0087563Y0012281D02*
X0083763Y0012281D01*
X0083763Y0012879D02*
X0087563Y0012879D01*
X0087563Y0013478D02*
X0083763Y0013478D01*
X0083560Y0014076D02*
X0087767Y0014076D01*
X0091560Y0014076D02*
X0095767Y0014076D01*
X0095563Y0013478D02*
X0091763Y0013478D01*
X0091763Y0012879D02*
X0095563Y0012879D01*
X0095563Y0012281D02*
X0091763Y0012281D01*
X0091763Y0011682D02*
X0095563Y0011682D01*
X0095807Y0011084D02*
X0091520Y0011084D01*
X0091363Y0010485D02*
X0095963Y0010485D01*
X0095963Y0009887D02*
X0091363Y0009887D01*
X0091363Y0009288D02*
X0095971Y0009288D01*
X0096570Y0008690D02*
X0091363Y0008690D01*
X0091254Y0008091D02*
X0097073Y0008091D01*
X0097214Y0007493D02*
X0091113Y0007493D01*
X0090514Y0006894D02*
X0097813Y0006894D01*
X0102540Y0012281D02*
X0115100Y0012281D01*
X0115400Y0012879D02*
X0103585Y0012879D01*
X0104108Y0013478D02*
X0115699Y0013478D01*
X0115998Y0014076D02*
X0104356Y0014076D01*
X0104461Y0014675D02*
X0116297Y0014675D01*
X0116363Y0015273D02*
X0104461Y0015273D01*
X0104263Y0015872D02*
X0111493Y0015872D01*
X0110319Y0016470D02*
X0103959Y0016470D01*
X0103360Y0017069D02*
X0109721Y0017069D01*
X0106284Y0023652D02*
X0116363Y0023652D01*
X0116363Y0024251D02*
X0106882Y0024251D01*
X0107107Y0024849D02*
X0116363Y0024849D01*
X0116363Y0025448D02*
X0107107Y0025448D01*
X0107097Y0026046D02*
X0111071Y0026046D01*
X0110145Y0026645D02*
X0106498Y0026645D01*
X0094717Y0041608D02*
X0086963Y0041608D01*
X0086963Y0042206D02*
X0094119Y0042206D01*
X0093520Y0042805D02*
X0086963Y0042805D01*
X0086963Y0043403D02*
X0092922Y0043403D01*
X0092323Y0044002D02*
X0086963Y0044002D01*
X0086963Y0044600D02*
X0091725Y0044600D01*
X0091126Y0045199D02*
X0086963Y0045199D01*
X0086963Y0045797D02*
X0090528Y0045797D01*
X0089929Y0046396D02*
X0086963Y0046396D01*
X0086963Y0046994D02*
X0089863Y0046994D01*
X0089863Y0047593D02*
X0086963Y0047593D01*
X0086811Y0048191D02*
X0089863Y0048191D01*
X0089863Y0048790D02*
X0086212Y0048790D01*
X0085614Y0049388D02*
X0089863Y0049388D01*
X0089863Y0049987D02*
X0085015Y0049987D01*
X0084417Y0050585D02*
X0089863Y0050585D01*
X0089863Y0051184D02*
X0083818Y0051184D01*
X0083220Y0051782D02*
X0089863Y0051782D01*
X0089863Y0052381D02*
X0082621Y0052381D01*
X0082023Y0052979D02*
X0089863Y0052979D01*
X0089863Y0053578D02*
X0081424Y0053578D01*
X0080825Y0054176D02*
X0089863Y0054176D01*
X0089863Y0054775D02*
X0080227Y0054775D01*
X0079628Y0055373D02*
X0089863Y0055373D01*
X0089863Y0055972D02*
X0079030Y0055972D01*
X0078463Y0056570D02*
X0089863Y0056570D01*
X0089863Y0057169D02*
X0078463Y0057169D01*
X0078463Y0057768D02*
X0089863Y0057768D01*
X0089863Y0058366D02*
X0078463Y0058366D01*
X0078463Y0058965D02*
X0089863Y0058965D01*
X0089863Y0059563D02*
X0078463Y0059563D01*
X0078463Y0060162D02*
X0089863Y0060162D01*
X0089863Y0060760D02*
X0078463Y0060760D01*
X0078463Y0061359D02*
X0086848Y0061359D01*
X0086250Y0061957D02*
X0078463Y0061957D01*
X0078463Y0062556D02*
X0086073Y0062556D01*
X0086073Y0063154D02*
X0078463Y0063154D01*
X0078463Y0063753D02*
X0086073Y0063753D01*
X0086558Y0064351D02*
X0078463Y0064351D01*
X0078463Y0064950D02*
X0087157Y0064950D01*
X0089170Y0064950D02*
X0089863Y0064950D01*
X0089863Y0065548D02*
X0078463Y0065548D01*
X0078463Y0066147D02*
X0089863Y0066147D01*
X0089863Y0066745D02*
X0078463Y0066745D01*
X0078463Y0067344D02*
X0089863Y0067344D01*
X0089265Y0067942D02*
X0078463Y0067942D01*
X0078463Y0068541D02*
X0088666Y0068541D01*
X0088073Y0069139D02*
X0078463Y0069139D01*
X0078463Y0069738D02*
X0088073Y0069738D01*
X0088073Y0070336D02*
X0078463Y0070336D01*
X0078463Y0070935D02*
X0088142Y0070935D01*
X0088740Y0071533D02*
X0078463Y0071533D01*
X0078463Y0072132D02*
X0090693Y0072132D01*
X0090095Y0072730D02*
X0078463Y0072730D01*
X0078463Y0073329D02*
X0089863Y0073329D01*
X0089863Y0073927D02*
X0078463Y0073927D01*
X0078463Y0074526D02*
X0089863Y0074526D01*
X0089863Y0075124D02*
X0078463Y0075124D01*
X0078463Y0075723D02*
X0089863Y0075723D01*
X0089863Y0076321D02*
X0078463Y0076321D01*
X0078463Y0076920D02*
X0089863Y0076920D01*
X0089863Y0077518D02*
X0078463Y0077518D01*
X0078463Y0078117D02*
X0089863Y0078117D01*
X0089863Y0078715D02*
X0078463Y0078715D01*
X0078463Y0079314D02*
X0089511Y0079314D01*
X0088913Y0079912D02*
X0081532Y0079912D01*
X0082131Y0080511D02*
X0088314Y0080511D01*
X0087716Y0081109D02*
X0082254Y0081109D01*
X0082254Y0081708D02*
X0082617Y0081708D01*
X0078795Y0079912D02*
X0078463Y0079912D01*
X0075863Y0079912D02*
X0069463Y0079912D01*
X0069463Y0079314D02*
X0075863Y0079314D01*
X0075863Y0078715D02*
X0069463Y0078715D01*
X0069463Y0078117D02*
X0075863Y0078117D01*
X0075863Y0077518D02*
X0069463Y0077518D01*
X0069463Y0076920D02*
X0075863Y0076920D01*
X0075863Y0076321D02*
X0069463Y0076321D01*
X0069463Y0075723D02*
X0075863Y0075723D01*
X0075863Y0075124D02*
X0069463Y0075124D01*
X0069463Y0074526D02*
X0075863Y0074526D01*
X0075863Y0073927D02*
X0069463Y0073927D01*
X0069463Y0073329D02*
X0075863Y0073329D01*
X0075863Y0072730D02*
X0069463Y0072730D01*
X0069463Y0072132D02*
X0075863Y0072132D01*
X0075863Y0071533D02*
X0069463Y0071533D01*
X0069463Y0070935D02*
X0075863Y0070935D01*
X0075863Y0070336D02*
X0069463Y0070336D01*
X0069463Y0069738D02*
X0075863Y0069738D01*
X0075863Y0069139D02*
X0069463Y0069139D01*
X0069463Y0068541D02*
X0075863Y0068541D01*
X0075863Y0067942D02*
X0069463Y0067942D01*
X0069463Y0067344D02*
X0075863Y0067344D01*
X0075863Y0066745D02*
X0069463Y0066745D01*
X0069463Y0066147D02*
X0075863Y0066147D01*
X0075863Y0065548D02*
X0069463Y0065548D01*
X0069463Y0064950D02*
X0075863Y0064950D01*
X0075863Y0064351D02*
X0069463Y0064351D01*
X0069463Y0063753D02*
X0075863Y0063753D01*
X0075863Y0063154D02*
X0069848Y0063154D01*
X0069463Y0063538D02*
X0069463Y0084538D01*
X0068702Y0085300D01*
X0058548Y0095454D01*
X0054154Y0095454D01*
X0054154Y0096101D01*
X0053936Y0096319D01*
X0054154Y0096537D01*
X0054154Y0100432D01*
X0053936Y0100650D01*
X0054154Y0100867D01*
X0054154Y0104763D01*
X0053936Y0104980D01*
X0054154Y0105198D01*
X0054154Y0109093D01*
X0053936Y0109311D01*
X0054154Y0109529D01*
X0054154Y0113424D01*
X0053627Y0113951D01*
X0046976Y0113951D01*
X0046449Y0113424D01*
X0046449Y0110292D01*
X0045885Y0111653D01*
X0044816Y0112721D01*
X0043419Y0113300D01*
X0038963Y0113300D01*
X0038963Y0115700D01*
X0043419Y0115700D01*
X0044816Y0116279D01*
X0045885Y0117347D01*
X0046463Y0118744D01*
X0046463Y0120256D01*
X0045885Y0121653D01*
X0044816Y0122721D01*
X0043419Y0123300D01*
X0038963Y0123300D01*
X0038963Y0125700D01*
X0043419Y0125700D01*
X0044816Y0126279D01*
X0045885Y0127347D01*
X0046463Y0128744D01*
X0046463Y0130256D01*
X0045885Y0131653D01*
X0044816Y0132721D01*
X0043419Y0133300D01*
X0038963Y0133300D01*
X0038963Y0135700D01*
X0043419Y0135700D01*
X0044816Y0136279D01*
X0045885Y0137347D01*
X0046463Y0138744D01*
X0046463Y0140256D01*
X0045885Y0141653D01*
X0044816Y0142721D01*
X0043419Y0143300D01*
X0038963Y0143300D01*
X0038963Y0145700D01*
X0043419Y0145700D01*
X0044816Y0146279D01*
X0045885Y0147347D01*
X0046463Y0148744D01*
X0046463Y0150256D01*
X0045885Y0151653D01*
X0044816Y0152721D01*
X0043419Y0153300D01*
X0038963Y0153300D01*
X0038963Y0155700D01*
X0043419Y0155700D01*
X0044816Y0156279D01*
X0045885Y0157347D01*
X0046463Y0158744D01*
X0046463Y0160256D01*
X0045885Y0161653D01*
X0044816Y0162721D01*
X0043419Y0163300D01*
X0038963Y0163300D01*
X0038963Y0165700D01*
X0043419Y0165700D01*
X0044816Y0166279D01*
X0045885Y0167347D01*
X0046463Y0168744D01*
X0046463Y0170256D01*
X0045885Y0171653D01*
X0044816Y0172721D01*
X0043419Y0173300D01*
X0038963Y0173300D01*
X0038963Y0185700D01*
X0043419Y0185700D01*
X0044816Y0186279D01*
X0045885Y0187347D01*
X0046228Y0188176D01*
X0046228Y0186785D01*
X0046755Y0186257D01*
X0050664Y0186257D01*
X0049473Y0185066D01*
X0049473Y0183334D01*
X0049963Y0182844D01*
X0049963Y0174003D01*
X0050666Y0173300D01*
X0050666Y0173300D01*
X0050963Y0173003D01*
X0050963Y0170003D01*
X0051666Y0169300D01*
X0056161Y0169300D01*
X0056863Y0170003D01*
X0056863Y0171320D01*
X0057084Y0171100D01*
X0058584Y0169600D01*
X0060584Y0169600D01*
X0062884Y0167300D01*
X0064043Y0167300D01*
X0067143Y0167300D01*
X0067963Y0168120D01*
X0068263Y0168420D01*
X0068263Y0168561D01*
X0068354Y0168651D01*
X0068354Y0170400D01*
X0069642Y0170400D01*
X0070189Y0169853D01*
X0070189Y0166005D01*
X0070716Y0165478D01*
X0074563Y0165478D01*
X0074563Y0164522D01*
X0070716Y0164522D01*
X0070189Y0163995D01*
X0070189Y0161694D01*
X0070163Y0161669D01*
X0070163Y0156879D01*
X0070952Y0156091D01*
X0070798Y0156091D01*
X0069573Y0154866D01*
X0069573Y0153134D01*
X0070798Y0151909D01*
X0071773Y0151909D01*
X0071773Y0151191D01*
X0070998Y0151191D01*
X0069773Y0149966D01*
X0069773Y0148234D01*
X0070998Y0147009D01*
X0071463Y0147009D01*
X0071463Y0146038D01*
X0069725Y0144300D01*
X0063625Y0144300D01*
X0062625Y0143300D01*
X0061863Y0142538D01*
X0061863Y0135538D01*
X0060916Y0134591D01*
X0060754Y0134591D01*
X0060754Y0135866D01*
X0059529Y0137091D01*
X0057798Y0137091D01*
X0056573Y0135866D01*
X0056573Y0134134D01*
X0056863Y0133844D01*
X0056863Y0129462D01*
X0060025Y0126300D01*
X0058702Y0126300D01*
X0054082Y0130920D01*
X0054082Y0132269D01*
X0055615Y0132269D01*
X0056142Y0132796D01*
X0056142Y0136101D01*
X0055615Y0136628D01*
X0049948Y0136628D01*
X0049421Y0136101D01*
X0049421Y0132796D01*
X0049948Y0132269D01*
X0051482Y0132269D01*
X0051482Y0129843D01*
X0056863Y0124462D01*
X0056863Y0124462D01*
X0057625Y0123700D01*
X0074202Y0123700D01*
X0074963Y0124462D01*
X0075702Y0125200D01*
X0076625Y0125200D01*
X0077363Y0124462D01*
X0078125Y0123700D01*
X0081202Y0123700D01*
X0082702Y0125200D01*
X0083625Y0125200D01*
X0084363Y0124462D01*
X0085125Y0123700D01*
X0089702Y0123700D01*
X0092411Y0126409D01*
X0093529Y0126409D01*
X0094754Y0127634D01*
X0094754Y0129209D01*
X0095229Y0129209D01*
X0096454Y0130434D01*
X0096454Y0131753D01*
X0096798Y0131409D01*
X0098529Y0131409D01*
X0099754Y0132634D01*
X0099754Y0134366D01*
X0098529Y0135591D01*
X0096798Y0135591D01*
X0095573Y0134366D01*
X0095573Y0133047D01*
X0095229Y0133391D01*
X0093498Y0133391D01*
X0092613Y0132506D01*
X0091729Y0133391D01*
X0089998Y0133391D01*
X0088773Y0132166D01*
X0088773Y0130434D01*
X0089998Y0129209D01*
X0090573Y0129209D01*
X0090573Y0128248D01*
X0088625Y0126300D01*
X0086202Y0126300D01*
X0084702Y0127800D01*
X0081754Y0127800D01*
X0081754Y0128066D01*
X0080529Y0129291D01*
X0078863Y0129291D01*
X0078863Y0129644D01*
X0078998Y0129509D01*
X0080729Y0129509D01*
X0081954Y0130734D01*
X0081954Y0132466D01*
X0081560Y0132860D01*
X0082958Y0132860D01*
X0083485Y0133387D01*
X0083485Y0135522D01*
X0083598Y0135409D01*
X0085329Y0135409D01*
X0086554Y0136634D01*
X0086554Y0138366D01*
X0086548Y0138372D01*
X0090615Y0138372D01*
X0091142Y0138899D01*
X0091142Y0142203D01*
X0090615Y0142731D01*
X0084948Y0142731D01*
X0084421Y0142203D01*
X0084421Y0139591D01*
X0083598Y0139591D01*
X0083485Y0139478D01*
X0083485Y0141613D01*
X0082958Y0142140D01*
X0079980Y0142140D01*
X0078363Y0143757D01*
X0078363Y0143927D01*
X0078863Y0144427D01*
X0078863Y0147573D01*
X0078336Y0148100D01*
X0075791Y0148100D01*
X0075263Y0147573D01*
X0075263Y0144427D01*
X0075763Y0143927D01*
X0075763Y0142680D01*
X0076303Y0142140D01*
X0072369Y0142140D01*
X0071842Y0141613D01*
X0071842Y0140500D01*
X0071042Y0140500D01*
X0070233Y0139691D01*
X0070098Y0139691D01*
X0068873Y0138466D01*
X0068873Y0136734D01*
X0068979Y0136628D01*
X0064712Y0136628D01*
X0064463Y0136380D01*
X0064463Y0141462D01*
X0064702Y0141700D01*
X0070802Y0141700D01*
X0071563Y0142462D01*
X0073002Y0143900D01*
X0074536Y0143900D01*
X0075063Y0144427D01*
X0075063Y0147573D01*
X0074536Y0148100D01*
X0073820Y0148100D01*
X0073954Y0148234D01*
X0073954Y0149609D01*
X0074729Y0149609D01*
X0075954Y0150834D01*
X0075954Y0151953D01*
X0076498Y0151409D01*
X0078229Y0151409D01*
X0079454Y0152634D01*
X0079454Y0153909D01*
X0080029Y0153909D01*
X0080313Y0154194D01*
X0081298Y0153209D01*
X0083029Y0153209D01*
X0083063Y0153244D01*
X0083063Y0152262D01*
X0083858Y0151467D01*
X0083563Y0151173D01*
X0083563Y0148627D01*
X0084091Y0148100D01*
X0085525Y0148100D01*
X0085725Y0147900D01*
X0084091Y0147900D01*
X0083791Y0147600D01*
X0083320Y0147600D01*
X0082529Y0148391D01*
X0080798Y0148391D01*
X0079573Y0147166D01*
X0079573Y0145434D01*
X0080798Y0144209D01*
X0082529Y0144209D01*
X0083320Y0145000D01*
X0083563Y0145000D01*
X0083563Y0144827D01*
X0084091Y0144300D01*
X0087236Y0144300D01*
X0087413Y0144477D01*
X0087591Y0144300D01*
X0087863Y0144300D01*
X0087863Y0144262D01*
X0088625Y0143500D01*
X0089325Y0142800D01*
X0090625Y0142800D01*
X0094174Y0139251D01*
X0099185Y0139251D01*
X0099185Y0138899D01*
X0099712Y0138372D01*
X0105379Y0138372D01*
X0105906Y0138899D01*
X0105906Y0142203D01*
X0105379Y0142731D01*
X0099712Y0142731D01*
X0099185Y0142203D01*
X0099185Y0141851D01*
X0097353Y0141851D01*
X0099702Y0144200D01*
X0109202Y0144200D01*
X0111055Y0146053D01*
X0111908Y0145700D01*
X0116363Y0145700D01*
X0116363Y0143300D01*
X0111908Y0143300D01*
X0110511Y0142721D01*
X0109442Y0141653D01*
X0108863Y0140256D01*
X0108863Y0138744D01*
X0109442Y0137347D01*
X0110511Y0136279D01*
X0111908Y0135700D01*
X0116363Y0135700D01*
X0116363Y0133300D01*
X0111908Y0133300D01*
X0110511Y0132721D01*
X0109442Y0131653D01*
X0108863Y0130256D01*
X0108863Y0128744D01*
X0109442Y0127347D01*
X0110511Y0126279D01*
X0111908Y0125700D01*
X0116363Y0125700D01*
X0116363Y0123300D01*
X0111908Y0123300D01*
X0110511Y0122721D01*
X0109442Y0121653D01*
X0108863Y0120256D01*
X0108863Y0118744D01*
X0109442Y0117347D01*
X0110511Y0116279D01*
X0111908Y0115700D01*
X0116363Y0115700D01*
X0116363Y0113300D01*
X0111908Y0113300D01*
X0110511Y0112721D01*
X0109442Y0111653D01*
X0108863Y0110256D01*
X0108863Y0109108D01*
X0108351Y0109620D01*
X0101700Y0109620D01*
X0101173Y0109093D01*
X0101173Y0105198D01*
X0101391Y0104980D01*
X0101173Y0104763D01*
X0101173Y0103800D01*
X0095920Y0103800D01*
X0096254Y0104134D01*
X0096254Y0105866D01*
X0095029Y0107091D01*
X0093298Y0107091D01*
X0092073Y0105866D01*
X0092073Y0104134D01*
X0092407Y0103800D01*
X0083625Y0103800D01*
X0079625Y0099800D01*
X0078863Y0099038D01*
X0078863Y0096038D01*
X0072125Y0089300D01*
X0071363Y0088538D01*
X0071363Y0087656D01*
X0070573Y0086866D01*
X0070573Y0085134D01*
X0071798Y0083909D01*
X0073529Y0083909D01*
X0074413Y0084794D01*
X0074798Y0084409D01*
X0075116Y0084409D01*
X0075073Y0084366D01*
X0075073Y0082634D01*
X0075863Y0081844D01*
X0075863Y0057138D01*
X0069463Y0063538D01*
X0070446Y0062556D02*
X0075863Y0062556D01*
X0075863Y0061957D02*
X0071045Y0061957D01*
X0071643Y0061359D02*
X0075863Y0061359D01*
X0075863Y0060760D02*
X0072242Y0060760D01*
X0072840Y0060162D02*
X0075863Y0060162D01*
X0075863Y0059563D02*
X0073439Y0059563D01*
X0074037Y0058965D02*
X0075863Y0058965D01*
X0075863Y0058366D02*
X0074636Y0058366D01*
X0075234Y0057768D02*
X0075863Y0057768D01*
X0075833Y0057169D02*
X0075863Y0057169D01*
X0070863Y0054176D02*
X0064363Y0054176D01*
X0064363Y0053578D02*
X0070863Y0053578D01*
X0070863Y0052979D02*
X0064363Y0052979D01*
X0064363Y0052381D02*
X0070863Y0052381D01*
X0070863Y0051782D02*
X0064363Y0051782D01*
X0064363Y0051184D02*
X0070863Y0051184D01*
X0070863Y0050585D02*
X0064363Y0050585D01*
X0064363Y0049987D02*
X0070863Y0049987D01*
X0070863Y0049388D02*
X0067728Y0049388D01*
X0068327Y0048790D02*
X0070863Y0048790D01*
X0070863Y0048191D02*
X0068634Y0048191D01*
X0068634Y0047593D02*
X0070863Y0047593D01*
X0070863Y0046994D02*
X0068634Y0046994D01*
X0068435Y0046396D02*
X0070863Y0046396D01*
X0070863Y0045797D02*
X0068323Y0045797D01*
X0068921Y0045199D02*
X0070406Y0045199D01*
X0070073Y0044600D02*
X0069254Y0044600D01*
X0069254Y0044002D02*
X0070073Y0044002D01*
X0070073Y0043403D02*
X0069254Y0043403D01*
X0068925Y0042805D02*
X0070402Y0042805D01*
X0071001Y0042206D02*
X0068326Y0042206D01*
X0066001Y0042206D02*
X0045331Y0042206D01*
X0045904Y0041608D02*
X0084363Y0041608D01*
X0084363Y0042206D02*
X0078326Y0042206D01*
X0076001Y0042206D02*
X0073326Y0042206D01*
X0073925Y0042805D02*
X0075402Y0042805D01*
X0075073Y0043403D02*
X0074254Y0043403D01*
X0074254Y0044002D02*
X0075073Y0044002D01*
X0075073Y0044600D02*
X0074254Y0044600D01*
X0073921Y0045199D02*
X0075406Y0045199D01*
X0076004Y0045797D02*
X0073463Y0045797D01*
X0073463Y0046396D02*
X0078311Y0046396D01*
X0078323Y0045797D02*
X0080622Y0045797D01*
X0081016Y0046396D02*
X0081221Y0046396D01*
X0083102Y0044600D02*
X0084363Y0044600D01*
X0084363Y0044002D02*
X0082504Y0044002D01*
X0081905Y0043403D02*
X0084363Y0043403D01*
X0084363Y0042805D02*
X0081307Y0042805D01*
X0083202Y0044700D02*
X0083202Y0044700D01*
X0083701Y0045199D02*
X0084363Y0045199D01*
X0084363Y0045797D02*
X0083963Y0045797D01*
X0083963Y0046396D02*
X0084363Y0046396D01*
X0084331Y0046994D02*
X0083963Y0046994D01*
X0077713Y0046994D02*
X0073463Y0046994D01*
X0073463Y0047593D02*
X0077573Y0047593D01*
X0077573Y0048191D02*
X0073463Y0048191D01*
X0073463Y0048790D02*
X0077573Y0048790D01*
X0077937Y0049388D02*
X0073463Y0049388D01*
X0073463Y0049987D02*
X0077338Y0049987D01*
X0076740Y0050585D02*
X0073463Y0050585D01*
X0073463Y0051184D02*
X0076141Y0051184D01*
X0075543Y0051782D02*
X0073463Y0051782D01*
X0073463Y0052381D02*
X0074944Y0052381D01*
X0074346Y0052979D02*
X0073463Y0052979D01*
X0073463Y0053578D02*
X0073747Y0053578D01*
X0070550Y0054775D02*
X0064363Y0054775D01*
X0064363Y0055373D02*
X0069952Y0055373D01*
X0069353Y0055972D02*
X0064363Y0055972D01*
X0064363Y0056570D02*
X0068755Y0056570D01*
X0068156Y0057169D02*
X0064363Y0057169D01*
X0064363Y0057768D02*
X0067557Y0057768D01*
X0066959Y0058366D02*
X0064363Y0058366D01*
X0064363Y0058965D02*
X0066360Y0058965D01*
X0065762Y0059563D02*
X0064363Y0059563D01*
X0064363Y0060162D02*
X0065163Y0060162D01*
X0064565Y0060760D02*
X0064363Y0060760D01*
X0060963Y0060760D02*
X0054154Y0060760D01*
X0054154Y0060162D02*
X0060963Y0060162D01*
X0060963Y0059563D02*
X0054154Y0059563D01*
X0054154Y0058965D02*
X0060963Y0058965D01*
X0060963Y0058366D02*
X0054154Y0058366D01*
X0054154Y0057768D02*
X0060963Y0057768D01*
X0060963Y0057169D02*
X0054110Y0057169D01*
X0054154Y0056570D02*
X0060963Y0056570D01*
X0060963Y0055972D02*
X0054154Y0055972D01*
X0054154Y0055373D02*
X0060963Y0055373D01*
X0060963Y0054775D02*
X0054154Y0054775D01*
X0054154Y0054176D02*
X0060963Y0054176D01*
X0060963Y0053578D02*
X0054154Y0053578D01*
X0053969Y0052979D02*
X0060963Y0052979D01*
X0060963Y0052381D02*
X0054154Y0052381D01*
X0054154Y0051782D02*
X0060963Y0051782D01*
X0060963Y0051184D02*
X0054154Y0051184D01*
X0054154Y0050585D02*
X0060963Y0050585D01*
X0060963Y0049987D02*
X0054154Y0049987D01*
X0054154Y0049388D02*
X0060963Y0049388D01*
X0060963Y0048790D02*
X0054045Y0048790D01*
X0054154Y0048191D02*
X0060963Y0048191D01*
X0060963Y0047593D02*
X0054154Y0047593D01*
X0054154Y0046994D02*
X0060963Y0046994D01*
X0060963Y0046396D02*
X0054154Y0046396D01*
X0054154Y0045797D02*
X0060963Y0045797D01*
X0061061Y0045199D02*
X0054154Y0045199D01*
X0054154Y0044600D02*
X0061659Y0044600D01*
X0062258Y0044002D02*
X0038963Y0044002D01*
X0038963Y0044600D02*
X0046449Y0044600D01*
X0046449Y0045199D02*
X0038963Y0045199D01*
X0038963Y0043403D02*
X0062856Y0043403D01*
X0063455Y0042805D02*
X0044615Y0042805D01*
X0043654Y0045797D02*
X0046449Y0045797D01*
X0046449Y0046396D02*
X0044933Y0046396D01*
X0045532Y0046994D02*
X0046449Y0046994D01*
X0046449Y0047593D02*
X0045987Y0047593D01*
X0046234Y0048191D02*
X0046449Y0048191D01*
X0046463Y0048790D02*
X0046558Y0048790D01*
X0064363Y0048790D02*
X0064386Y0048790D01*
X0064363Y0049388D02*
X0064985Y0049388D01*
X0060963Y0061359D02*
X0054154Y0061359D01*
X0054154Y0061957D02*
X0060963Y0061957D01*
X0060963Y0062556D02*
X0054154Y0062556D01*
X0054154Y0063154D02*
X0060963Y0063154D01*
X0060963Y0063753D02*
X0054154Y0063753D01*
X0054154Y0064351D02*
X0060963Y0064351D01*
X0060963Y0064950D02*
X0054154Y0064950D01*
X0054154Y0065548D02*
X0060963Y0065548D01*
X0060963Y0066147D02*
X0054079Y0066147D01*
X0054154Y0066745D02*
X0060963Y0066745D01*
X0060963Y0067344D02*
X0054154Y0067344D01*
X0054154Y0067942D02*
X0060963Y0067942D01*
X0060963Y0068541D02*
X0054154Y0068541D01*
X0054154Y0069139D02*
X0060963Y0069139D01*
X0060963Y0069738D02*
X0054154Y0069738D01*
X0053935Y0070336D02*
X0060963Y0070336D01*
X0060963Y0070935D02*
X0046182Y0070935D01*
X0045934Y0071533D02*
X0060963Y0071533D01*
X0060963Y0072132D02*
X0045406Y0072132D01*
X0044795Y0072730D02*
X0060963Y0072730D01*
X0060963Y0073329D02*
X0038963Y0073329D01*
X0038963Y0073927D02*
X0060963Y0073927D01*
X0060963Y0074526D02*
X0053797Y0074526D01*
X0054154Y0075124D02*
X0060963Y0075124D01*
X0060963Y0075723D02*
X0054154Y0075723D01*
X0054154Y0076321D02*
X0060438Y0076321D01*
X0059839Y0076920D02*
X0054154Y0076920D01*
X0054154Y0077518D02*
X0059241Y0077518D01*
X0058642Y0078117D02*
X0054154Y0078117D01*
X0054154Y0078715D02*
X0058044Y0078715D01*
X0060458Y0081109D02*
X0063863Y0081109D01*
X0063863Y0080511D02*
X0061057Y0080511D01*
X0061655Y0079912D02*
X0063863Y0079912D01*
X0063863Y0079314D02*
X0062254Y0079314D01*
X0062852Y0078715D02*
X0063863Y0078715D01*
X0063863Y0078117D02*
X0063451Y0078117D01*
X0063863Y0077704D02*
X0059368Y0082200D01*
X0054154Y0082200D01*
X0054154Y0083109D01*
X0053936Y0083327D01*
X0054154Y0083545D01*
X0054154Y0085652D01*
X0055202Y0086700D01*
X0059625Y0086700D01*
X0063863Y0082462D01*
X0063863Y0077704D01*
X0069463Y0080511D02*
X0075863Y0080511D01*
X0075863Y0081109D02*
X0069463Y0081109D01*
X0069463Y0081708D02*
X0075863Y0081708D01*
X0075401Y0082306D02*
X0069463Y0082306D01*
X0069463Y0082905D02*
X0075073Y0082905D01*
X0075073Y0083503D02*
X0069463Y0083503D01*
X0069463Y0084102D02*
X0071605Y0084102D01*
X0071006Y0084701D02*
X0069301Y0084701D01*
X0068703Y0085299D02*
X0070573Y0085299D01*
X0070573Y0085898D02*
X0068104Y0085898D01*
X0067506Y0086496D02*
X0070573Y0086496D01*
X0070802Y0087095D02*
X0066907Y0087095D01*
X0066309Y0087693D02*
X0071363Y0087693D01*
X0071363Y0088292D02*
X0065710Y0088292D01*
X0065112Y0088890D02*
X0071715Y0088890D01*
X0072314Y0089489D02*
X0064513Y0089489D01*
X0063915Y0090087D02*
X0072912Y0090087D01*
X0073511Y0090686D02*
X0063316Y0090686D01*
X0062718Y0091284D02*
X0074109Y0091284D01*
X0074708Y0091883D02*
X0062119Y0091883D01*
X0061521Y0092481D02*
X0075306Y0092481D01*
X0075905Y0093080D02*
X0060922Y0093080D01*
X0060324Y0093678D02*
X0076503Y0093678D01*
X0077102Y0094277D02*
X0059725Y0094277D01*
X0059127Y0094875D02*
X0077700Y0094875D01*
X0078299Y0095474D02*
X0054154Y0095474D01*
X0054154Y0096072D02*
X0061635Y0096072D01*
X0061798Y0095909D02*
X0063529Y0095909D01*
X0064413Y0096794D01*
X0065298Y0095909D01*
X0067029Y0095909D01*
X0068254Y0097134D01*
X0068254Y0098866D01*
X0067029Y0100091D01*
X0066210Y0100091D01*
X0066254Y0100134D01*
X0066254Y0101866D01*
X0065029Y0103091D01*
X0063298Y0103091D01*
X0062663Y0102456D01*
X0062029Y0103091D01*
X0060298Y0103091D01*
X0059073Y0101866D01*
X0059073Y0100134D01*
X0060298Y0098909D01*
X0060616Y0098909D01*
X0060573Y0098866D01*
X0060573Y0097134D01*
X0061798Y0095909D01*
X0061036Y0096671D02*
X0054154Y0096671D01*
X0054154Y0097269D02*
X0060573Y0097269D01*
X0060573Y0097868D02*
X0054154Y0097868D01*
X0054154Y0098466D02*
X0060573Y0098466D01*
X0060142Y0099065D02*
X0054154Y0099065D01*
X0054154Y0099663D02*
X0059544Y0099663D01*
X0059073Y0100262D02*
X0054154Y0100262D01*
X0054147Y0100860D02*
X0059073Y0100860D01*
X0059073Y0101459D02*
X0054154Y0101459D01*
X0054154Y0102057D02*
X0059264Y0102057D01*
X0059863Y0102656D02*
X0054154Y0102656D01*
X0054154Y0103254D02*
X0083079Y0103254D01*
X0082481Y0102656D02*
X0065464Y0102656D01*
X0066063Y0102057D02*
X0081882Y0102057D01*
X0081284Y0101459D02*
X0066254Y0101459D01*
X0066254Y0100860D02*
X0080685Y0100860D01*
X0080087Y0100262D02*
X0066254Y0100262D01*
X0067457Y0099663D02*
X0079488Y0099663D01*
X0078890Y0099065D02*
X0068055Y0099065D01*
X0068254Y0098466D02*
X0078863Y0098466D01*
X0078863Y0097868D02*
X0068254Y0097868D01*
X0068254Y0097269D02*
X0078863Y0097269D01*
X0078863Y0096671D02*
X0067791Y0096671D01*
X0067192Y0096072D02*
X0078863Y0096072D01*
X0081463Y0096072D02*
X0082135Y0096072D01*
X0082298Y0095909D02*
X0084029Y0095909D01*
X0085254Y0097134D01*
X0085254Y0098866D01*
X0084029Y0100091D01*
X0083592Y0100091D01*
X0084702Y0101200D01*
X0089407Y0101200D01*
X0089073Y0100866D01*
X0089073Y0099134D01*
X0090207Y0098000D01*
X0089073Y0096866D01*
X0089073Y0095591D01*
X0088298Y0095591D01*
X0087073Y0094366D01*
X0087073Y0092634D01*
X0088298Y0091409D01*
X0090029Y0091409D01*
X0091254Y0092634D01*
X0091254Y0093909D01*
X0092029Y0093909D01*
X0093254Y0095134D01*
X0093254Y0096866D01*
X0092120Y0098000D01*
X0092663Y0098544D01*
X0093298Y0097909D01*
X0095029Y0097909D01*
X0096254Y0099134D01*
X0096254Y0100866D01*
X0095920Y0101200D01*
X0101173Y0101200D01*
X0101173Y0100867D01*
X0101391Y0100650D01*
X0101173Y0100432D01*
X0101173Y0096537D01*
X0101391Y0096319D01*
X0101173Y0096101D01*
X0101173Y0092300D01*
X0098625Y0092300D01*
X0097125Y0090800D01*
X0087702Y0090800D01*
X0087463Y0091038D01*
X0086702Y0091800D01*
X0083702Y0091800D01*
X0082463Y0093038D01*
X0081702Y0093800D01*
X0080302Y0093800D01*
X0081463Y0094962D01*
X0081463Y0096744D01*
X0082298Y0095909D01*
X0081463Y0095474D02*
X0088181Y0095474D01*
X0087582Y0094875D02*
X0081377Y0094875D01*
X0080779Y0094277D02*
X0087073Y0094277D01*
X0087073Y0093678D02*
X0081824Y0093678D01*
X0082422Y0093080D02*
X0087073Y0093080D01*
X0087226Y0092481D02*
X0083021Y0092481D01*
X0083619Y0091883D02*
X0087824Y0091883D01*
X0087218Y0091284D02*
X0097609Y0091284D01*
X0098208Y0091883D02*
X0090503Y0091883D01*
X0091101Y0092481D02*
X0101173Y0092481D01*
X0101173Y0093080D02*
X0091254Y0093080D01*
X0091254Y0093678D02*
X0101173Y0093678D01*
X0101173Y0094277D02*
X0092397Y0094277D01*
X0092995Y0094875D02*
X0101173Y0094875D01*
X0101173Y0095474D02*
X0093254Y0095474D01*
X0093254Y0096072D02*
X0101173Y0096072D01*
X0101173Y0096671D02*
X0093254Y0096671D01*
X0092851Y0097269D02*
X0101173Y0097269D01*
X0101173Y0097868D02*
X0092252Y0097868D01*
X0092586Y0098466D02*
X0092741Y0098466D01*
X0090075Y0097868D02*
X0085254Y0097868D01*
X0085254Y0098466D02*
X0089741Y0098466D01*
X0089142Y0099065D02*
X0085055Y0099065D01*
X0084457Y0099663D02*
X0089073Y0099663D01*
X0089073Y0100262D02*
X0083764Y0100262D01*
X0084362Y0100860D02*
X0089073Y0100860D01*
X0086829Y0103909D02*
X0085098Y0103909D01*
X0083873Y0105134D01*
X0083873Y0106866D01*
X0085098Y0108091D01*
X0086829Y0108091D01*
X0088054Y0106866D01*
X0088054Y0105134D01*
X0086829Y0103909D01*
X0087371Y0104451D02*
X0092073Y0104451D01*
X0092073Y0105050D02*
X0087970Y0105050D01*
X0088054Y0105648D02*
X0092073Y0105648D01*
X0092454Y0106247D02*
X0088054Y0106247D01*
X0088054Y0106845D02*
X0093052Y0106845D01*
X0095275Y0106845D02*
X0101173Y0106845D01*
X0101173Y0106247D02*
X0095873Y0106247D01*
X0096254Y0105648D02*
X0101173Y0105648D01*
X0101321Y0105050D02*
X0096254Y0105050D01*
X0096254Y0104451D02*
X0101173Y0104451D01*
X0101173Y0103853D02*
X0095973Y0103853D01*
X0096254Y0100860D02*
X0101180Y0100860D01*
X0101173Y0100262D02*
X0096254Y0100262D01*
X0096254Y0099663D02*
X0101173Y0099663D01*
X0101173Y0099065D02*
X0096185Y0099065D01*
X0095586Y0098466D02*
X0101173Y0098466D01*
X0092354Y0103853D02*
X0054154Y0103853D01*
X0054154Y0104451D02*
X0084556Y0104451D01*
X0083957Y0105050D02*
X0054006Y0105050D01*
X0054154Y0105648D02*
X0060059Y0105648D01*
X0060298Y0105409D02*
X0062029Y0105409D01*
X0063254Y0106634D01*
X0063254Y0108366D01*
X0062620Y0109000D01*
X0063254Y0109634D01*
X0063254Y0111366D01*
X0062620Y0112000D01*
X0063254Y0112634D01*
X0063254Y0114366D01*
X0062029Y0115591D01*
X0060298Y0115591D01*
X0059073Y0114366D01*
X0059073Y0112634D01*
X0059707Y0112000D01*
X0059073Y0111366D01*
X0059073Y0109634D01*
X0059707Y0109000D01*
X0059073Y0108366D01*
X0059073Y0106634D01*
X0060298Y0105409D01*
X0059460Y0106247D02*
X0054154Y0106247D01*
X0054154Y0106845D02*
X0059073Y0106845D01*
X0059073Y0107444D02*
X0054154Y0107444D01*
X0054154Y0108042D02*
X0059073Y0108042D01*
X0059348Y0108641D02*
X0054154Y0108641D01*
X0054008Y0109239D02*
X0059467Y0109239D01*
X0059073Y0109838D02*
X0054154Y0109838D01*
X0054154Y0110437D02*
X0059073Y0110437D01*
X0059073Y0111035D02*
X0054154Y0111035D01*
X0054154Y0111634D02*
X0059341Y0111634D01*
X0059475Y0112232D02*
X0054154Y0112232D01*
X0054154Y0112831D02*
X0059073Y0112831D01*
X0059073Y0113429D02*
X0054149Y0113429D01*
X0057866Y0116222D02*
X0058393Y0115694D01*
X0062288Y0115694D01*
X0062815Y0116222D01*
X0062815Y0122873D01*
X0062288Y0123400D01*
X0058393Y0123400D01*
X0057866Y0122873D01*
X0057866Y0116222D01*
X0057866Y0116422D02*
X0044959Y0116422D01*
X0045558Y0117020D02*
X0057866Y0117020D01*
X0057866Y0117619D02*
X0053239Y0117619D01*
X0053029Y0117409D02*
X0054254Y0118634D01*
X0054254Y0120366D01*
X0053029Y0121591D01*
X0051754Y0121591D01*
X0051754Y0122366D01*
X0050529Y0123591D01*
X0048798Y0123591D01*
X0047573Y0122366D01*
X0047573Y0120634D01*
X0048798Y0119409D01*
X0050073Y0119409D01*
X0050073Y0118634D01*
X0051298Y0117409D01*
X0053029Y0117409D01*
X0053837Y0118217D02*
X0057866Y0118217D01*
X0057866Y0118816D02*
X0054254Y0118816D01*
X0054254Y0119414D02*
X0057866Y0119414D01*
X0057866Y0120013D02*
X0054254Y0120013D01*
X0054009Y0120611D02*
X0057866Y0120611D01*
X0057866Y0121210D02*
X0053410Y0121210D01*
X0051754Y0121808D02*
X0057866Y0121808D01*
X0057866Y0122407D02*
X0051713Y0122407D01*
X0051115Y0123005D02*
X0057998Y0123005D01*
X0057123Y0124202D02*
X0038963Y0124202D01*
X0038963Y0123604D02*
X0116363Y0123604D01*
X0116363Y0124202D02*
X0090204Y0124202D01*
X0090803Y0124801D02*
X0116363Y0124801D01*
X0116363Y0125399D02*
X0091401Y0125399D01*
X0092000Y0125998D02*
X0111189Y0125998D01*
X0110193Y0126596D02*
X0093716Y0126596D01*
X0094315Y0127195D02*
X0109595Y0127195D01*
X0109257Y0127793D02*
X0094754Y0127793D01*
X0094754Y0128392D02*
X0109009Y0128392D01*
X0108863Y0128990D02*
X0094754Y0128990D01*
X0095609Y0129589D02*
X0108863Y0129589D01*
X0108863Y0130187D02*
X0096207Y0130187D01*
X0096454Y0130786D02*
X0109083Y0130786D01*
X0109331Y0131384D02*
X0096454Y0131384D01*
X0095573Y0133180D02*
X0095440Y0133180D01*
X0095573Y0133778D02*
X0083485Y0133778D01*
X0083485Y0134377D02*
X0095584Y0134377D01*
X0096182Y0134975D02*
X0083485Y0134975D01*
X0083278Y0133180D02*
X0089787Y0133180D01*
X0089188Y0132581D02*
X0081839Y0132581D01*
X0081954Y0131983D02*
X0088773Y0131983D01*
X0088773Y0131384D02*
X0081954Y0131384D01*
X0081954Y0130786D02*
X0088773Y0130786D01*
X0089020Y0130187D02*
X0081407Y0130187D01*
X0080809Y0129589D02*
X0089618Y0129589D01*
X0090573Y0128990D02*
X0080830Y0128990D01*
X0081428Y0128392D02*
X0090573Y0128392D01*
X0090118Y0127793D02*
X0084709Y0127793D01*
X0085307Y0127195D02*
X0089520Y0127195D01*
X0088921Y0126596D02*
X0085906Y0126596D01*
X0084024Y0124801D02*
X0082303Y0124801D01*
X0081704Y0124202D02*
X0084623Y0124202D01*
X0084377Y0123400D02*
X0084160Y0123182D01*
X0083942Y0123400D01*
X0080047Y0123400D01*
X0079829Y0123182D01*
X0079611Y0123400D01*
X0075716Y0123400D01*
X0075498Y0123182D01*
X0075280Y0123400D01*
X0071385Y0123400D01*
X0071167Y0123182D01*
X0070950Y0123400D01*
X0067054Y0123400D01*
X0066527Y0122873D01*
X0066527Y0116222D01*
X0067054Y0115694D01*
X0068201Y0115694D01*
X0067273Y0114766D01*
X0067273Y0113034D01*
X0068498Y0111809D01*
X0070229Y0111809D01*
X0071454Y0113034D01*
X0071454Y0114766D01*
X0070525Y0115694D01*
X0070950Y0115694D01*
X0071167Y0115912D01*
X0071385Y0115694D01*
X0075280Y0115694D01*
X0075498Y0115912D01*
X0075716Y0115694D01*
X0079611Y0115694D01*
X0079829Y0115912D01*
X0080047Y0115694D01*
X0083942Y0115694D01*
X0084160Y0115912D01*
X0084377Y0115694D01*
X0088272Y0115694D01*
X0088490Y0115912D01*
X0088708Y0115694D01*
X0092603Y0115694D01*
X0092821Y0115912D01*
X0093039Y0115694D01*
X0096934Y0115694D01*
X0097461Y0116222D01*
X0097461Y0122873D01*
X0096934Y0123400D01*
X0093039Y0123400D01*
X0092821Y0123182D01*
X0092603Y0123400D01*
X0088708Y0123400D01*
X0088490Y0123182D01*
X0088272Y0123400D01*
X0084377Y0123400D01*
X0077623Y0124202D02*
X0074704Y0124202D01*
X0075303Y0124801D02*
X0077024Y0124801D01*
X0078863Y0129589D02*
X0078918Y0129589D01*
X0085494Y0135574D02*
X0096781Y0135574D01*
X0098546Y0135574D02*
X0116363Y0135574D01*
X0116363Y0134975D02*
X0099144Y0134975D01*
X0099743Y0134377D02*
X0116363Y0134377D01*
X0116363Y0133778D02*
X0099754Y0133778D01*
X0099754Y0133180D02*
X0111618Y0133180D01*
X0110371Y0132581D02*
X0099701Y0132581D01*
X0099103Y0131983D02*
X0109772Y0131983D01*
X0110767Y0136172D02*
X0086092Y0136172D01*
X0086554Y0136771D02*
X0110018Y0136771D01*
X0109433Y0137370D02*
X0086554Y0137370D01*
X0086554Y0137968D02*
X0109185Y0137968D01*
X0108937Y0138567D02*
X0105574Y0138567D01*
X0105906Y0139165D02*
X0108863Y0139165D01*
X0108863Y0139764D02*
X0105906Y0139764D01*
X0105906Y0140362D02*
X0108907Y0140362D01*
X0109155Y0140961D02*
X0105906Y0140961D01*
X0105906Y0141559D02*
X0109403Y0141559D01*
X0109947Y0142158D02*
X0105906Y0142158D01*
X0109554Y0144552D02*
X0116363Y0144552D01*
X0116363Y0145150D02*
X0110152Y0145150D01*
X0110751Y0145749D02*
X0111790Y0145749D01*
X0110595Y0142756D02*
X0098258Y0142756D01*
X0097660Y0142158D02*
X0099185Y0142158D01*
X0098857Y0143355D02*
X0116363Y0143355D01*
X0116363Y0143953D02*
X0099455Y0143953D01*
X0099933Y0146800D02*
X0108125Y0146800D01*
X0109217Y0147892D01*
X0108863Y0148744D01*
X0108863Y0150256D01*
X0109442Y0151653D01*
X0110511Y0152721D01*
X0111908Y0153300D01*
X0116363Y0153300D01*
X0116363Y0165700D01*
X0111908Y0165700D01*
X0110511Y0166279D01*
X0109442Y0167347D01*
X0108863Y0168744D01*
X0108863Y0170256D01*
X0108938Y0170436D01*
X0107463Y0168962D01*
X0107463Y0154962D01*
X0103963Y0151462D01*
X0103202Y0150700D01*
X0100186Y0150700D01*
X0100186Y0147052D01*
X0099933Y0146800D01*
X0100079Y0146946D02*
X0108271Y0146946D01*
X0108869Y0147544D02*
X0100186Y0147544D01*
X0100186Y0148143D02*
X0109113Y0148143D01*
X0108865Y0148741D02*
X0100186Y0148741D01*
X0100186Y0149340D02*
X0108863Y0149340D01*
X0108863Y0149938D02*
X0100186Y0149938D01*
X0100186Y0150537D02*
X0108980Y0150537D01*
X0109228Y0151135D02*
X0103637Y0151135D01*
X0104236Y0151734D02*
X0109523Y0151734D01*
X0110122Y0152332D02*
X0104834Y0152332D01*
X0105433Y0152931D02*
X0111016Y0152931D01*
X0107228Y0154726D02*
X0116363Y0154726D01*
X0116363Y0154128D02*
X0106630Y0154128D01*
X0106031Y0153529D02*
X0116363Y0153529D01*
X0116363Y0155325D02*
X0107463Y0155325D01*
X0107463Y0155923D02*
X0116363Y0155923D01*
X0116363Y0156522D02*
X0107463Y0156522D01*
X0107463Y0157120D02*
X0116363Y0157120D01*
X0116363Y0157719D02*
X0107463Y0157719D01*
X0107463Y0158317D02*
X0116363Y0158317D01*
X0116363Y0158916D02*
X0107463Y0158916D01*
X0107463Y0159514D02*
X0116363Y0159514D01*
X0116363Y0160113D02*
X0107463Y0160113D01*
X0107463Y0160711D02*
X0116363Y0160711D01*
X0116363Y0161310D02*
X0107463Y0161310D01*
X0107463Y0161908D02*
X0116363Y0161908D01*
X0116363Y0162507D02*
X0107463Y0162507D01*
X0107463Y0163105D02*
X0116363Y0163105D01*
X0116363Y0163704D02*
X0107463Y0163704D01*
X0107463Y0164303D02*
X0116363Y0164303D01*
X0116363Y0164901D02*
X0107463Y0164901D01*
X0107463Y0165500D02*
X0116363Y0165500D01*
X0110947Y0166098D02*
X0107463Y0166098D01*
X0107463Y0166697D02*
X0110093Y0166697D01*
X0109494Y0167295D02*
X0107463Y0167295D01*
X0107463Y0167894D02*
X0109216Y0167894D01*
X0108968Y0168492D02*
X0107463Y0168492D01*
X0107593Y0169091D02*
X0108863Y0169091D01*
X0108863Y0169689D02*
X0108191Y0169689D01*
X0108790Y0170288D02*
X0108877Y0170288D01*
X0106908Y0172083D02*
X0104503Y0172083D01*
X0104554Y0172134D02*
X0104554Y0172969D01*
X0106563Y0174979D01*
X0106563Y0177127D01*
X0106863Y0177427D01*
X0106863Y0180573D01*
X0106336Y0181100D01*
X0103791Y0181100D01*
X0103263Y0180573D01*
X0103263Y0177427D01*
X0103563Y0177127D01*
X0103563Y0177056D01*
X0103063Y0177556D01*
X0103063Y0180573D01*
X0102536Y0181100D01*
X0100545Y0181100D01*
X0100545Y0182073D01*
X0100243Y0182800D01*
X0105161Y0182800D01*
X0105863Y0183503D01*
X0107363Y0185003D01*
X0107363Y0189430D01*
X0109340Y0191407D01*
X0108863Y0190256D01*
X0108863Y0188744D01*
X0109442Y0187347D01*
X0110511Y0186279D01*
X0111908Y0185700D01*
X0116363Y0185700D01*
X0116363Y0183300D01*
X0111908Y0183300D01*
X0110511Y0182721D01*
X0109442Y0181653D01*
X0108863Y0180256D01*
X0108863Y0178744D01*
X0109442Y0177347D01*
X0110511Y0176279D01*
X0110930Y0176105D01*
X0106032Y0171207D01*
X0106032Y0171385D01*
X0105505Y0171912D01*
X0104332Y0171912D01*
X0104554Y0172134D01*
X0104554Y0172682D02*
X0107507Y0172682D01*
X0108105Y0173280D02*
X0104865Y0173280D01*
X0105463Y0173879D02*
X0108704Y0173879D01*
X0109302Y0174477D02*
X0106062Y0174477D01*
X0106563Y0175076D02*
X0109901Y0175076D01*
X0110499Y0175674D02*
X0106563Y0175674D01*
X0106563Y0176273D02*
X0110525Y0176273D01*
X0109918Y0176871D02*
X0106563Y0176871D01*
X0106863Y0177470D02*
X0109391Y0177470D01*
X0109143Y0178068D02*
X0106863Y0178068D01*
X0106863Y0178667D02*
X0108895Y0178667D01*
X0108863Y0179265D02*
X0106863Y0179265D01*
X0106863Y0179864D02*
X0108863Y0179864D01*
X0108949Y0180462D02*
X0106863Y0180462D01*
X0106375Y0181061D02*
X0109197Y0181061D01*
X0109449Y0181659D02*
X0100545Y0181659D01*
X0100468Y0182258D02*
X0110047Y0182258D01*
X0110837Y0182856D02*
X0105217Y0182856D01*
X0105815Y0183455D02*
X0116363Y0183455D01*
X0116363Y0184053D02*
X0106414Y0184053D01*
X0107012Y0184652D02*
X0116363Y0184652D01*
X0116363Y0185250D02*
X0107363Y0185250D01*
X0107363Y0185849D02*
X0111548Y0185849D01*
X0110342Y0186447D02*
X0107363Y0186447D01*
X0107363Y0187046D02*
X0109744Y0187046D01*
X0109319Y0187644D02*
X0107363Y0187644D01*
X0107363Y0188243D02*
X0109071Y0188243D01*
X0108863Y0188841D02*
X0107363Y0188841D01*
X0107373Y0189440D02*
X0108863Y0189440D01*
X0108863Y0190039D02*
X0107972Y0190039D01*
X0108570Y0190637D02*
X0109021Y0190637D01*
X0109169Y0191236D02*
X0109269Y0191236D01*
X0106163Y0188500D02*
X0104663Y0190000D01*
X0103922Y0190000D01*
X0103922Y0189370D01*
X0102703Y0188151D01*
X0100979Y0188151D01*
X0099760Y0189370D01*
X0099760Y0190000D01*
X0099163Y0190000D01*
X0099163Y0185000D01*
X0100163Y0184000D01*
X0104663Y0184000D01*
X0106163Y0185500D01*
X0106163Y0188500D01*
X0106163Y0188243D02*
X0102794Y0188243D01*
X0103393Y0188841D02*
X0105822Y0188841D01*
X0105223Y0189440D02*
X0103922Y0189440D01*
X0103505Y0191511D02*
X0102703Y0192313D01*
X0100979Y0192313D01*
X0100191Y0191526D01*
X0098121Y0191526D01*
X0098002Y0191407D01*
X0097883Y0191526D01*
X0095562Y0191526D01*
X0095443Y0191407D01*
X0095324Y0191526D01*
X0093003Y0191526D01*
X0092884Y0191407D01*
X0092765Y0191526D01*
X0090444Y0191526D01*
X0089917Y0190999D01*
X0089917Y0184938D01*
X0090444Y0184411D01*
X0092463Y0184411D01*
X0092463Y0184381D01*
X0092090Y0184381D01*
X0091031Y0183942D01*
X0090221Y0183132D01*
X0089782Y0182073D01*
X0089782Y0180927D01*
X0090221Y0179868D01*
X0090957Y0179132D01*
X0090625Y0178800D01*
X0090122Y0178297D01*
X0089829Y0178591D01*
X0088098Y0178591D01*
X0086873Y0177366D01*
X0086873Y0175634D01*
X0087507Y0175000D01*
X0086873Y0174366D01*
X0086873Y0172634D01*
X0086957Y0172550D01*
X0085773Y0171366D01*
X0085773Y0169634D01*
X0086998Y0168409D01*
X0087073Y0168409D01*
X0087073Y0166834D01*
X0088298Y0165609D01*
X0090029Y0165609D01*
X0091254Y0166834D01*
X0091254Y0168566D01*
X0090211Y0169609D01*
X0090563Y0169962D01*
X0092563Y0171962D01*
X0092563Y0173037D01*
X0094174Y0173037D01*
X0094195Y0173058D01*
X0094216Y0173037D01*
X0096143Y0173037D01*
X0096670Y0173564D01*
X0096670Y0177459D01*
X0096463Y0177666D01*
X0096463Y0178038D01*
X0095702Y0178800D01*
X0095002Y0179500D01*
X0094738Y0179500D01*
X0095106Y0179868D01*
X0095163Y0180007D01*
X0095221Y0179868D01*
X0096031Y0179058D01*
X0097090Y0178619D01*
X0098237Y0178619D01*
X0099295Y0179058D01*
X0099463Y0179226D01*
X0099463Y0177987D01*
X0098153Y0177987D01*
X0097626Y0177459D01*
X0097626Y0176631D01*
X0097616Y0176621D01*
X0097616Y0174890D01*
X0097626Y0174881D01*
X0097626Y0173564D01*
X0098153Y0173037D01*
X0100080Y0173037D01*
X0100373Y0173330D01*
X0100373Y0172134D01*
X0100709Y0171798D01*
X0100295Y0171385D01*
X0100295Y0166308D01*
X0100822Y0165781D01*
X0104863Y0165781D01*
X0104863Y0165219D01*
X0100822Y0165219D01*
X0100295Y0164692D01*
X0100295Y0162700D01*
X0098648Y0162700D01*
X0098648Y0165110D01*
X0098638Y0165119D01*
X0098638Y0166436D01*
X0098111Y0166963D01*
X0096184Y0166963D01*
X0096163Y0166942D01*
X0096143Y0166963D01*
X0094216Y0166963D01*
X0093689Y0166436D01*
X0093689Y0165119D01*
X0093679Y0165110D01*
X0093679Y0162637D01*
X0093642Y0162600D01*
X0090536Y0162600D01*
X0090236Y0162900D01*
X0087091Y0162900D01*
X0086791Y0162600D01*
X0084032Y0162600D01*
X0084032Y0164692D01*
X0083505Y0165219D01*
X0078822Y0165219D01*
X0078763Y0165160D01*
X0078763Y0165581D01*
X0083588Y0165581D01*
X0084232Y0166225D01*
X0084232Y0171467D01*
X0083588Y0172112D01*
X0080019Y0172112D01*
X0079631Y0172500D01*
X0071785Y0172500D01*
X0070885Y0173400D01*
X0065743Y0173400D01*
X0064063Y0175080D01*
X0064063Y0195580D01*
X0063243Y0196400D01*
X0057084Y0196400D01*
X0056263Y0195580D01*
X0056263Y0186097D01*
X0055161Y0187200D01*
X0054327Y0187200D01*
X0054327Y0199341D01*
X0053800Y0199868D01*
X0046755Y0199868D01*
X0046228Y0199341D01*
X0046228Y0190824D01*
X0045885Y0191653D01*
X0044816Y0192721D01*
X0043419Y0193300D01*
X0038963Y0193300D01*
X0038963Y0203200D01*
X0111666Y0203200D01*
X0110511Y0202721D01*
X0109442Y0201653D01*
X0108863Y0200256D01*
X0108863Y0198744D01*
X0109412Y0197419D01*
X0103505Y0191511D01*
X0103182Y0191834D02*
X0103828Y0191834D01*
X0104426Y0192433D02*
X0081099Y0192433D01*
X0081099Y0193031D02*
X0105025Y0193031D01*
X0105623Y0193630D02*
X0081099Y0193630D01*
X0081099Y0194228D02*
X0086493Y0194228D01*
X0086374Y0194348D02*
X0086901Y0193820D01*
X0093552Y0193820D01*
X0094079Y0194348D01*
X0094079Y0202574D01*
X0093552Y0203101D01*
X0086901Y0203101D01*
X0086374Y0202574D01*
X0086374Y0194348D01*
X0086374Y0194827D02*
X0081099Y0194827D01*
X0081099Y0195425D02*
X0086374Y0195425D01*
X0086374Y0196024D02*
X0081099Y0196024D01*
X0081099Y0196622D02*
X0086374Y0196622D01*
X0086374Y0197221D02*
X0081099Y0197221D01*
X0081099Y0197819D02*
X0086374Y0197819D01*
X0086374Y0198418D02*
X0081099Y0198418D01*
X0081099Y0199016D02*
X0086374Y0199016D01*
X0086374Y0199615D02*
X0080825Y0199615D01*
X0080572Y0199868D02*
X0081099Y0199341D01*
X0081099Y0186785D01*
X0080572Y0186257D01*
X0073527Y0186257D01*
X0073000Y0186785D01*
X0073000Y0188880D01*
X0072529Y0188409D01*
X0070798Y0188409D01*
X0069573Y0189634D01*
X0069573Y0191366D01*
X0070798Y0192591D01*
X0072529Y0192591D01*
X0073000Y0192120D01*
X0073000Y0199341D01*
X0073527Y0199868D01*
X0080572Y0199868D01*
X0073273Y0199615D02*
X0054054Y0199615D01*
X0054327Y0199016D02*
X0073000Y0199016D01*
X0073000Y0198418D02*
X0054327Y0198418D01*
X0054327Y0197819D02*
X0073000Y0197819D01*
X0073000Y0197221D02*
X0054327Y0197221D01*
X0054327Y0196622D02*
X0073000Y0196622D01*
X0073000Y0196024D02*
X0063620Y0196024D01*
X0064063Y0195425D02*
X0073000Y0195425D01*
X0073000Y0194827D02*
X0064063Y0194827D01*
X0064063Y0194228D02*
X0073000Y0194228D01*
X0073000Y0193630D02*
X0064063Y0193630D01*
X0064063Y0193031D02*
X0073000Y0193031D01*
X0073000Y0192433D02*
X0072687Y0192433D01*
X0070640Y0192433D02*
X0064063Y0192433D01*
X0064063Y0191834D02*
X0070041Y0191834D01*
X0069573Y0191236D02*
X0064063Y0191236D01*
X0064063Y0190637D02*
X0069573Y0190637D01*
X0069573Y0190039D02*
X0064063Y0190039D01*
X0064063Y0189440D02*
X0069767Y0189440D01*
X0070365Y0188841D02*
X0064063Y0188841D01*
X0064063Y0188243D02*
X0073000Y0188243D01*
X0073000Y0188841D02*
X0072961Y0188841D01*
X0073000Y0187644D02*
X0064063Y0187644D01*
X0064063Y0187046D02*
X0073000Y0187046D01*
X0073337Y0186447D02*
X0064063Y0186447D01*
X0064063Y0185849D02*
X0082873Y0185849D01*
X0082873Y0186447D02*
X0080762Y0186447D01*
X0081099Y0187046D02*
X0083053Y0187046D01*
X0082873Y0186866D02*
X0082873Y0185134D01*
X0084098Y0183909D01*
X0084398Y0183909D01*
X0085598Y0182709D01*
X0087329Y0182709D01*
X0088554Y0183934D01*
X0088554Y0185666D01*
X0087329Y0186891D01*
X0087029Y0186891D01*
X0085829Y0188091D01*
X0084098Y0188091D01*
X0082873Y0186866D01*
X0083651Y0187644D02*
X0081099Y0187644D01*
X0081099Y0188243D02*
X0085532Y0188243D01*
X0085624Y0188151D02*
X0084405Y0189370D01*
X0084405Y0191094D01*
X0085624Y0192313D01*
X0087348Y0192313D01*
X0088567Y0191094D01*
X0088567Y0189370D01*
X0087348Y0188151D01*
X0085624Y0188151D01*
X0086275Y0187644D02*
X0089917Y0187644D01*
X0089917Y0187046D02*
X0086874Y0187046D01*
X0087773Y0186447D02*
X0089917Y0186447D01*
X0089917Y0185849D02*
X0088371Y0185849D01*
X0088554Y0185250D02*
X0089917Y0185250D01*
X0090203Y0184652D02*
X0088554Y0184652D01*
X0088554Y0184053D02*
X0091299Y0184053D01*
X0090544Y0183455D02*
X0088075Y0183455D01*
X0087476Y0182856D02*
X0090107Y0182856D01*
X0089859Y0182258D02*
X0064063Y0182258D01*
X0064063Y0182856D02*
X0085451Y0182856D01*
X0084852Y0183455D02*
X0064063Y0183455D01*
X0064063Y0184053D02*
X0083954Y0184053D01*
X0083355Y0184652D02*
X0064063Y0184652D01*
X0064063Y0185250D02*
X0082873Y0185250D01*
X0087440Y0188243D02*
X0089917Y0188243D01*
X0089917Y0188841D02*
X0088039Y0188841D01*
X0088567Y0189440D02*
X0089917Y0189440D01*
X0089917Y0190039D02*
X0088567Y0190039D01*
X0088567Y0190637D02*
X0089917Y0190637D01*
X0090154Y0191236D02*
X0088426Y0191236D01*
X0087828Y0191834D02*
X0100499Y0191834D01*
X0101426Y0193860D02*
X0094775Y0193860D01*
X0094248Y0194387D01*
X0094248Y0202613D01*
X0094775Y0203140D01*
X0101426Y0203140D01*
X0101953Y0202613D01*
X0101953Y0194387D01*
X0101426Y0193860D01*
X0101794Y0194228D02*
X0106222Y0194228D01*
X0106820Y0194827D02*
X0101953Y0194827D01*
X0101953Y0195425D02*
X0107419Y0195425D01*
X0108017Y0196024D02*
X0101953Y0196024D01*
X0101953Y0196622D02*
X0108616Y0196622D01*
X0109214Y0197221D02*
X0101953Y0197221D01*
X0101953Y0197819D02*
X0109247Y0197819D01*
X0108999Y0198418D02*
X0101953Y0198418D01*
X0101953Y0199016D02*
X0108863Y0199016D01*
X0108863Y0199615D02*
X0101953Y0199615D01*
X0101953Y0200213D02*
X0108863Y0200213D01*
X0109094Y0200812D02*
X0101953Y0200812D01*
X0101953Y0201410D02*
X0109342Y0201410D01*
X0109798Y0202009D02*
X0101953Y0202009D01*
X0101953Y0202607D02*
X0110397Y0202607D01*
X0094248Y0202607D02*
X0094046Y0202607D01*
X0094079Y0202009D02*
X0094248Y0202009D01*
X0094248Y0201410D02*
X0094079Y0201410D01*
X0094079Y0200812D02*
X0094248Y0200812D01*
X0094248Y0200213D02*
X0094079Y0200213D01*
X0094079Y0199615D02*
X0094248Y0199615D01*
X0094248Y0199016D02*
X0094079Y0199016D01*
X0094079Y0198418D02*
X0094248Y0198418D01*
X0094248Y0197819D02*
X0094079Y0197819D01*
X0094079Y0197221D02*
X0094248Y0197221D01*
X0094248Y0196622D02*
X0094079Y0196622D01*
X0094079Y0196024D02*
X0094248Y0196024D01*
X0094248Y0195425D02*
X0094079Y0195425D01*
X0094079Y0194827D02*
X0094248Y0194827D01*
X0094407Y0194228D02*
X0093960Y0194228D01*
X0099163Y0189440D02*
X0099760Y0189440D01*
X0100288Y0188841D02*
X0099163Y0188841D01*
X0099163Y0188243D02*
X0100887Y0188243D01*
X0099163Y0187644D02*
X0106163Y0187644D01*
X0106163Y0187046D02*
X0099163Y0187046D01*
X0099163Y0186447D02*
X0106163Y0186447D01*
X0106163Y0185849D02*
X0099163Y0185849D01*
X0099163Y0185250D02*
X0105914Y0185250D01*
X0105315Y0184652D02*
X0099512Y0184652D01*
X0100110Y0184053D02*
X0104717Y0184053D01*
X0103752Y0181061D02*
X0102575Y0181061D01*
X0103063Y0180462D02*
X0103263Y0180462D01*
X0103263Y0179864D02*
X0103063Y0179864D01*
X0103063Y0179265D02*
X0103263Y0179265D01*
X0103263Y0178667D02*
X0103063Y0178667D01*
X0103063Y0178068D02*
X0103263Y0178068D01*
X0103263Y0177470D02*
X0103150Y0177470D01*
X0099463Y0178068D02*
X0096434Y0178068D01*
X0096659Y0177470D02*
X0097636Y0177470D01*
X0097626Y0176871D02*
X0096670Y0176871D01*
X0096670Y0176273D02*
X0097616Y0176273D01*
X0097616Y0175674D02*
X0096670Y0175674D01*
X0096670Y0175076D02*
X0097616Y0175076D01*
X0097626Y0174477D02*
X0096670Y0174477D01*
X0096670Y0173879D02*
X0097626Y0173879D01*
X0097910Y0173280D02*
X0096386Y0173280D01*
X0092563Y0172682D02*
X0100373Y0172682D01*
X0100373Y0173280D02*
X0100323Y0173280D01*
X0100424Y0172083D02*
X0092563Y0172083D01*
X0092087Y0171485D02*
X0100395Y0171485D01*
X0100295Y0170886D02*
X0091488Y0170886D01*
X0090890Y0170288D02*
X0100295Y0170288D01*
X0100295Y0169689D02*
X0090291Y0169689D01*
X0090729Y0169091D02*
X0100295Y0169091D01*
X0100295Y0168492D02*
X0091254Y0168492D01*
X0091254Y0167894D02*
X0100295Y0167894D01*
X0100295Y0167295D02*
X0091254Y0167295D01*
X0091117Y0166697D02*
X0093949Y0166697D01*
X0093689Y0166098D02*
X0090518Y0166098D01*
X0087809Y0166098D02*
X0084105Y0166098D01*
X0084232Y0166697D02*
X0087210Y0166697D01*
X0087073Y0167295D02*
X0084232Y0167295D01*
X0084232Y0167894D02*
X0087073Y0167894D01*
X0086915Y0168492D02*
X0084232Y0168492D01*
X0084232Y0169091D02*
X0086316Y0169091D01*
X0085773Y0169689D02*
X0084232Y0169689D01*
X0084232Y0170288D02*
X0085773Y0170288D01*
X0085773Y0170886D02*
X0084232Y0170886D01*
X0084215Y0171485D02*
X0085892Y0171485D01*
X0086490Y0172083D02*
X0083616Y0172083D01*
X0086873Y0172682D02*
X0071603Y0172682D01*
X0071005Y0173280D02*
X0086873Y0173280D01*
X0086873Y0173879D02*
X0065265Y0173879D01*
X0064666Y0174477D02*
X0086984Y0174477D01*
X0087431Y0175076D02*
X0064068Y0175076D01*
X0064063Y0175674D02*
X0086873Y0175674D01*
X0086873Y0176273D02*
X0064063Y0176273D01*
X0064063Y0176871D02*
X0086873Y0176871D01*
X0086977Y0177470D02*
X0064063Y0177470D01*
X0064063Y0178068D02*
X0087575Y0178068D01*
X0090492Y0178667D02*
X0064063Y0178667D01*
X0064063Y0179265D02*
X0090824Y0179265D01*
X0090225Y0179864D02*
X0064063Y0179864D01*
X0064063Y0180462D02*
X0089975Y0180462D01*
X0089782Y0181061D02*
X0064063Y0181061D01*
X0064063Y0181659D02*
X0089782Y0181659D01*
X0095102Y0179864D02*
X0095225Y0179864D01*
X0095237Y0179265D02*
X0095824Y0179265D01*
X0095835Y0178667D02*
X0096975Y0178667D01*
X0098352Y0178667D02*
X0099463Y0178667D01*
X0105932Y0171485D02*
X0106310Y0171485D01*
X0104863Y0165500D02*
X0098638Y0165500D01*
X0098638Y0166098D02*
X0100505Y0166098D01*
X0100295Y0166697D02*
X0098377Y0166697D01*
X0098648Y0164901D02*
X0100504Y0164901D01*
X0100295Y0164303D02*
X0098648Y0164303D01*
X0098648Y0163704D02*
X0100295Y0163704D01*
X0100295Y0163105D02*
X0098648Y0163105D01*
X0096163Y0160879D02*
X0096526Y0160516D01*
X0097063Y0159979D01*
X0097063Y0159627D01*
X0097591Y0159100D01*
X0100736Y0159100D01*
X0100773Y0159137D01*
X0100822Y0159088D01*
X0104863Y0159088D01*
X0104863Y0156038D01*
X0103254Y0154429D01*
X0103254Y0155366D01*
X0102029Y0156591D01*
X0100298Y0156591D01*
X0099073Y0155366D01*
X0099073Y0153634D01*
X0099407Y0153300D01*
X0095920Y0153300D01*
X0096254Y0153634D01*
X0096254Y0154909D01*
X0097029Y0154909D01*
X0098254Y0156134D01*
X0098254Y0157866D01*
X0097029Y0159091D01*
X0095298Y0159091D01*
X0095013Y0158806D01*
X0094220Y0159600D01*
X0094885Y0159600D01*
X0096163Y0160879D01*
X0095996Y0160711D02*
X0096331Y0160711D01*
X0096929Y0160113D02*
X0095398Y0160113D01*
X0095123Y0158916D02*
X0094904Y0158916D01*
X0094305Y0159514D02*
X0097176Y0159514D01*
X0097204Y0158916D02*
X0104863Y0158916D01*
X0104863Y0158317D02*
X0097803Y0158317D01*
X0098254Y0157719D02*
X0104863Y0157719D01*
X0104863Y0157120D02*
X0098254Y0157120D01*
X0098254Y0156522D02*
X0100229Y0156522D01*
X0099630Y0155923D02*
X0098043Y0155923D01*
X0097445Y0155325D02*
X0099073Y0155325D01*
X0099073Y0154726D02*
X0096254Y0154726D01*
X0096254Y0154128D02*
X0099073Y0154128D01*
X0099178Y0153529D02*
X0096149Y0153529D01*
X0091625Y0151700D02*
X0091091Y0151700D01*
X0090563Y0151173D01*
X0090563Y0148627D01*
X0091091Y0148100D01*
X0094236Y0148100D01*
X0094536Y0148400D01*
X0095236Y0148400D01*
X0095236Y0147591D01*
X0094798Y0147591D01*
X0094672Y0147465D01*
X0094236Y0147900D01*
X0091091Y0147900D01*
X0090913Y0147723D01*
X0090736Y0147900D01*
X0089402Y0147900D01*
X0087763Y0149538D01*
X0087763Y0151173D01*
X0087236Y0151700D01*
X0086963Y0151700D01*
X0086963Y0152038D01*
X0086202Y0152800D01*
X0085663Y0153338D01*
X0085663Y0154562D01*
X0086302Y0155200D01*
X0088125Y0155200D01*
X0091625Y0151700D01*
X0091591Y0151734D02*
X0086963Y0151734D01*
X0086670Y0152332D02*
X0090993Y0152332D01*
X0090394Y0152931D02*
X0086071Y0152931D01*
X0085663Y0153529D02*
X0089796Y0153529D01*
X0089197Y0154128D02*
X0085663Y0154128D01*
X0085828Y0154726D02*
X0088599Y0154726D01*
X0083063Y0152931D02*
X0079454Y0152931D01*
X0079454Y0153529D02*
X0080978Y0153529D01*
X0080379Y0154128D02*
X0080248Y0154128D01*
X0079152Y0152332D02*
X0083063Y0152332D01*
X0083591Y0151734D02*
X0078554Y0151734D01*
X0076173Y0151734D02*
X0075954Y0151734D01*
X0075954Y0151135D02*
X0083563Y0151135D01*
X0083563Y0150537D02*
X0075657Y0150537D01*
X0075058Y0149938D02*
X0083563Y0149938D01*
X0083563Y0149340D02*
X0073954Y0149340D01*
X0073954Y0148741D02*
X0083563Y0148741D01*
X0084048Y0148143D02*
X0082777Y0148143D01*
X0080550Y0148143D02*
X0073863Y0148143D01*
X0075063Y0147544D02*
X0075263Y0147544D01*
X0075263Y0146946D02*
X0075063Y0146946D01*
X0075063Y0146347D02*
X0075263Y0146347D01*
X0075263Y0145749D02*
X0075063Y0145749D01*
X0075063Y0145150D02*
X0075263Y0145150D01*
X0075263Y0144552D02*
X0075063Y0144552D01*
X0074589Y0143953D02*
X0075738Y0143953D01*
X0075763Y0143355D02*
X0072457Y0143355D01*
X0071858Y0142756D02*
X0075763Y0142756D01*
X0076285Y0142158D02*
X0071260Y0142158D01*
X0071842Y0141559D02*
X0064561Y0141559D01*
X0064463Y0140961D02*
X0071842Y0140961D01*
X0070904Y0140362D02*
X0064463Y0140362D01*
X0064463Y0139764D02*
X0070306Y0139764D01*
X0069572Y0139165D02*
X0064463Y0139165D01*
X0064463Y0138567D02*
X0068974Y0138567D01*
X0068873Y0137968D02*
X0064463Y0137968D01*
X0064463Y0137370D02*
X0068873Y0137370D01*
X0068873Y0136771D02*
X0064463Y0136771D01*
X0061863Y0136771D02*
X0059849Y0136771D01*
X0060447Y0136172D02*
X0061863Y0136172D01*
X0061863Y0135574D02*
X0060754Y0135574D01*
X0060754Y0134975D02*
X0061300Y0134975D01*
X0057478Y0136771D02*
X0045308Y0136771D01*
X0045894Y0137370D02*
X0061863Y0137370D01*
X0061863Y0137968D02*
X0046142Y0137968D01*
X0046390Y0138567D02*
X0061863Y0138567D01*
X0061863Y0139165D02*
X0046463Y0139165D01*
X0046463Y0139764D02*
X0061863Y0139764D01*
X0061863Y0140362D02*
X0046419Y0140362D01*
X0046172Y0140961D02*
X0061863Y0140961D01*
X0061863Y0141559D02*
X0045924Y0141559D01*
X0045380Y0142158D02*
X0061863Y0142158D01*
X0062081Y0142756D02*
X0044732Y0142756D01*
X0043537Y0145749D02*
X0071174Y0145749D01*
X0071463Y0146347D02*
X0044885Y0146347D01*
X0045483Y0146946D02*
X0050521Y0146946D01*
X0050666Y0146800D02*
X0055661Y0146800D01*
X0056363Y0147503D01*
X0057163Y0148303D01*
X0057666Y0147800D01*
X0058666Y0146800D01*
X0067161Y0146800D01*
X0067863Y0147503D01*
X0069363Y0149003D01*
X0069363Y0158997D01*
X0068661Y0159700D01*
X0067661Y0160700D01*
X0064661Y0160700D01*
X0062863Y0162497D01*
X0062863Y0165997D01*
X0062363Y0166497D01*
X0061661Y0167200D01*
X0057666Y0167200D01*
X0056963Y0166497D01*
X0056166Y0165700D01*
X0054166Y0165700D01*
X0053463Y0164997D01*
X0053463Y0162003D01*
X0054166Y0161300D01*
X0054766Y0160700D01*
X0053661Y0160700D01*
X0051863Y0162497D01*
X0051863Y0164997D01*
X0051161Y0165700D01*
X0049166Y0165700D01*
X0048463Y0164997D01*
X0048463Y0149003D01*
X0049166Y0148300D01*
X0050666Y0146800D01*
X0049922Y0147544D02*
X0045966Y0147544D01*
X0046214Y0148143D02*
X0049324Y0148143D01*
X0048725Y0148741D02*
X0046462Y0148741D01*
X0046463Y0149340D02*
X0048463Y0149340D01*
X0048463Y0149938D02*
X0046463Y0149938D01*
X0046347Y0150537D02*
X0048463Y0150537D01*
X0048463Y0151135D02*
X0046099Y0151135D01*
X0045804Y0151734D02*
X0048463Y0151734D01*
X0048463Y0152332D02*
X0045205Y0152332D01*
X0044311Y0152931D02*
X0048463Y0152931D01*
X0048463Y0153529D02*
X0038963Y0153529D01*
X0038963Y0154128D02*
X0048463Y0154128D01*
X0048463Y0154726D02*
X0038963Y0154726D01*
X0038963Y0155325D02*
X0048463Y0155325D01*
X0048463Y0155923D02*
X0043959Y0155923D01*
X0045059Y0156522D02*
X0048463Y0156522D01*
X0048463Y0157120D02*
X0045658Y0157120D01*
X0046039Y0157719D02*
X0048463Y0157719D01*
X0048463Y0158317D02*
X0046287Y0158317D01*
X0046463Y0158916D02*
X0048463Y0158916D01*
X0048463Y0159514D02*
X0046463Y0159514D01*
X0046463Y0160113D02*
X0048463Y0160113D01*
X0048463Y0160711D02*
X0046275Y0160711D01*
X0046027Y0161310D02*
X0048463Y0161310D01*
X0048463Y0161908D02*
X0045629Y0161908D01*
X0045030Y0162507D02*
X0048463Y0162507D01*
X0048463Y0163105D02*
X0043889Y0163105D01*
X0044380Y0166098D02*
X0056564Y0166098D01*
X0057163Y0166697D02*
X0045234Y0166697D01*
X0045833Y0167295D02*
X0070189Y0167295D01*
X0070189Y0166697D02*
X0062164Y0166697D01*
X0062363Y0166497D02*
X0062363Y0166497D01*
X0062762Y0166098D02*
X0070189Y0166098D01*
X0070694Y0165500D02*
X0062863Y0165500D01*
X0062863Y0164901D02*
X0074563Y0164901D01*
X0070496Y0164303D02*
X0062863Y0164303D01*
X0062863Y0163704D02*
X0070189Y0163704D01*
X0070189Y0163105D02*
X0062863Y0163105D01*
X0062863Y0162507D02*
X0070189Y0162507D01*
X0070189Y0161908D02*
X0063452Y0161908D01*
X0064051Y0161310D02*
X0070163Y0161310D01*
X0070163Y0160711D02*
X0064649Y0160711D01*
X0063551Y0160113D02*
X0058163Y0160113D01*
X0058163Y0160500D02*
X0057163Y0161500D01*
X0055663Y0161500D01*
X0054663Y0162500D01*
X0054663Y0164500D01*
X0056663Y0164500D01*
X0058163Y0166000D01*
X0061163Y0166000D01*
X0061663Y0165500D01*
X0061663Y0162000D01*
X0064163Y0159500D01*
X0067163Y0159500D01*
X0068163Y0158500D01*
X0068163Y0149500D01*
X0066663Y0148000D01*
X0059163Y0148000D01*
X0058163Y0149000D01*
X0058163Y0160500D01*
X0057952Y0160711D02*
X0062952Y0160711D01*
X0062354Y0161310D02*
X0057354Y0161310D01*
X0058163Y0159514D02*
X0064149Y0159514D01*
X0061755Y0161908D02*
X0055255Y0161908D01*
X0054663Y0162507D02*
X0061663Y0162507D01*
X0061663Y0163105D02*
X0054663Y0163105D01*
X0054663Y0163704D02*
X0061663Y0163704D01*
X0061663Y0164303D02*
X0054663Y0164303D01*
X0053463Y0164303D02*
X0051863Y0164303D01*
X0051863Y0164901D02*
X0053463Y0164901D01*
X0053966Y0165500D02*
X0051361Y0165500D01*
X0050663Y0164500D02*
X0049663Y0164500D01*
X0049663Y0149500D01*
X0051163Y0148000D01*
X0055163Y0148000D01*
X0056163Y0149000D01*
X0056163Y0158500D01*
X0055163Y0159500D01*
X0053163Y0159500D01*
X0050663Y0162000D01*
X0050663Y0164500D01*
X0050663Y0164303D02*
X0049663Y0164303D01*
X0049663Y0163704D02*
X0050663Y0163704D01*
X0050663Y0163105D02*
X0049663Y0163105D01*
X0049663Y0162507D02*
X0050663Y0162507D01*
X0050755Y0161908D02*
X0049663Y0161908D01*
X0049663Y0161310D02*
X0051354Y0161310D01*
X0051952Y0160711D02*
X0049663Y0160711D01*
X0049663Y0160113D02*
X0052551Y0160113D01*
X0053149Y0159514D02*
X0049663Y0159514D01*
X0049663Y0158916D02*
X0055748Y0158916D01*
X0056163Y0158317D02*
X0049663Y0158317D01*
X0049663Y0157719D02*
X0056163Y0157719D01*
X0056163Y0157120D02*
X0049663Y0157120D01*
X0049663Y0156522D02*
X0056163Y0156522D01*
X0056163Y0155923D02*
X0049663Y0155923D01*
X0049663Y0155325D02*
X0056163Y0155325D01*
X0056163Y0154726D02*
X0049663Y0154726D01*
X0049663Y0154128D02*
X0056163Y0154128D01*
X0056163Y0153529D02*
X0049663Y0153529D01*
X0049663Y0152931D02*
X0056163Y0152931D01*
X0056163Y0152332D02*
X0049663Y0152332D01*
X0049663Y0151734D02*
X0056163Y0151734D01*
X0056163Y0151135D02*
X0049663Y0151135D01*
X0049663Y0150537D02*
X0056163Y0150537D01*
X0056163Y0149938D02*
X0049663Y0149938D01*
X0049824Y0149340D02*
X0056163Y0149340D01*
X0055905Y0148741D02*
X0050422Y0148741D01*
X0051021Y0148143D02*
X0055306Y0148143D01*
X0056405Y0147544D02*
X0057922Y0147544D01*
X0058521Y0146946D02*
X0055806Y0146946D01*
X0057003Y0148143D02*
X0057324Y0148143D01*
X0058422Y0148741D02*
X0067405Y0148741D01*
X0068003Y0149340D02*
X0058163Y0149340D01*
X0058163Y0149938D02*
X0068163Y0149938D01*
X0068163Y0150537D02*
X0058163Y0150537D01*
X0058163Y0151135D02*
X0068163Y0151135D01*
X0068163Y0151734D02*
X0058163Y0151734D01*
X0058163Y0152332D02*
X0068163Y0152332D01*
X0068163Y0152931D02*
X0058163Y0152931D01*
X0058163Y0153529D02*
X0068163Y0153529D01*
X0068163Y0154128D02*
X0058163Y0154128D01*
X0058163Y0154726D02*
X0068163Y0154726D01*
X0068163Y0155325D02*
X0058163Y0155325D01*
X0058163Y0155923D02*
X0068163Y0155923D01*
X0068163Y0156522D02*
X0058163Y0156522D01*
X0058163Y0157120D02*
X0068163Y0157120D01*
X0068163Y0157719D02*
X0058163Y0157719D01*
X0058163Y0158317D02*
X0068163Y0158317D01*
X0067748Y0158916D02*
X0058163Y0158916D01*
X0054755Y0160711D02*
X0053649Y0160711D01*
X0054156Y0161310D02*
X0053051Y0161310D01*
X0053558Y0161908D02*
X0052452Y0161908D01*
X0051863Y0162507D02*
X0053463Y0162507D01*
X0053463Y0163105D02*
X0051863Y0163105D01*
X0051863Y0163704D02*
X0053463Y0163704D01*
X0057065Y0164901D02*
X0061663Y0164901D01*
X0061663Y0165500D02*
X0057663Y0165500D01*
X0061093Y0169091D02*
X0046463Y0169091D01*
X0046463Y0169689D02*
X0051277Y0169689D01*
X0050963Y0170288D02*
X0046450Y0170288D01*
X0046202Y0170886D02*
X0050963Y0170886D01*
X0050963Y0171485D02*
X0045954Y0171485D01*
X0045454Y0172083D02*
X0050963Y0172083D01*
X0050963Y0172682D02*
X0044856Y0172682D01*
X0043467Y0173280D02*
X0050686Y0173280D01*
X0050088Y0173879D02*
X0038963Y0173879D01*
X0038963Y0174477D02*
X0049963Y0174477D01*
X0049963Y0175076D02*
X0038963Y0175076D01*
X0038963Y0175674D02*
X0049963Y0175674D01*
X0049963Y0176273D02*
X0038963Y0176273D01*
X0038963Y0176871D02*
X0049963Y0176871D01*
X0049963Y0177470D02*
X0038963Y0177470D01*
X0038963Y0178068D02*
X0049963Y0178068D01*
X0049963Y0178667D02*
X0038963Y0178667D01*
X0038963Y0179265D02*
X0049963Y0179265D01*
X0049963Y0179864D02*
X0038963Y0179864D01*
X0038963Y0180462D02*
X0049963Y0180462D01*
X0049963Y0181061D02*
X0038963Y0181061D01*
X0038963Y0181659D02*
X0049963Y0181659D01*
X0049963Y0182258D02*
X0038963Y0182258D01*
X0038963Y0182856D02*
X0049951Y0182856D01*
X0049473Y0183455D02*
X0038963Y0183455D01*
X0038963Y0184053D02*
X0049473Y0184053D01*
X0049473Y0184652D02*
X0038963Y0184652D01*
X0038963Y0185250D02*
X0049657Y0185250D01*
X0050256Y0185849D02*
X0043779Y0185849D01*
X0044985Y0186447D02*
X0046565Y0186447D01*
X0046228Y0187046D02*
X0045583Y0187046D01*
X0046008Y0187644D02*
X0046228Y0187644D01*
X0051163Y0184500D02*
X0052663Y0186000D01*
X0054663Y0186000D01*
X0056163Y0184500D01*
X0056163Y0174000D01*
X0055663Y0173500D01*
X0055663Y0170500D01*
X0052163Y0170500D01*
X0052163Y0173500D01*
X0051163Y0174500D01*
X0051163Y0184500D01*
X0051315Y0184652D02*
X0056012Y0184652D01*
X0056163Y0184053D02*
X0051163Y0184053D01*
X0051163Y0183455D02*
X0056163Y0183455D01*
X0056163Y0182856D02*
X0051163Y0182856D01*
X0051163Y0182258D02*
X0056163Y0182258D01*
X0056163Y0181659D02*
X0051163Y0181659D01*
X0051163Y0181061D02*
X0056163Y0181061D01*
X0056163Y0180462D02*
X0051163Y0180462D01*
X0051163Y0179864D02*
X0056163Y0179864D01*
X0056163Y0179265D02*
X0051163Y0179265D01*
X0051163Y0178667D02*
X0056163Y0178667D01*
X0056163Y0178068D02*
X0051163Y0178068D01*
X0051163Y0177470D02*
X0056163Y0177470D01*
X0056163Y0176871D02*
X0051163Y0176871D01*
X0051163Y0176273D02*
X0056163Y0176273D01*
X0056163Y0175674D02*
X0051163Y0175674D01*
X0051163Y0175076D02*
X0056163Y0175076D01*
X0056163Y0174477D02*
X0051186Y0174477D01*
X0051785Y0173879D02*
X0056042Y0173879D01*
X0055663Y0173280D02*
X0052163Y0173280D01*
X0052163Y0172682D02*
X0055663Y0172682D01*
X0055663Y0172083D02*
X0052163Y0172083D01*
X0052163Y0171485D02*
X0055663Y0171485D01*
X0055663Y0170886D02*
X0052163Y0170886D01*
X0056550Y0169689D02*
X0058494Y0169689D01*
X0057896Y0170288D02*
X0056863Y0170288D01*
X0056863Y0170886D02*
X0057297Y0170886D01*
X0058080Y0172083D02*
X0065080Y0172083D01*
X0064482Y0172682D02*
X0057663Y0172682D01*
X0057663Y0172500D02*
X0057663Y0195000D01*
X0062663Y0195000D01*
X0062663Y0174500D01*
X0066863Y0170300D01*
X0066863Y0169000D01*
X0066563Y0168700D01*
X0063463Y0168700D01*
X0061163Y0171000D01*
X0059163Y0171000D01*
X0057663Y0172500D01*
X0057663Y0173280D02*
X0063883Y0173280D01*
X0063285Y0173879D02*
X0057663Y0173879D01*
X0057663Y0174477D02*
X0062686Y0174477D01*
X0062663Y0175076D02*
X0057663Y0175076D01*
X0057663Y0175674D02*
X0062663Y0175674D01*
X0062663Y0176273D02*
X0057663Y0176273D01*
X0057663Y0176871D02*
X0062663Y0176871D01*
X0062663Y0177470D02*
X0057663Y0177470D01*
X0057663Y0178068D02*
X0062663Y0178068D01*
X0062663Y0178667D02*
X0057663Y0178667D01*
X0057663Y0179265D02*
X0062663Y0179265D01*
X0062663Y0179864D02*
X0057663Y0179864D01*
X0057663Y0180462D02*
X0062663Y0180462D01*
X0062663Y0181061D02*
X0057663Y0181061D01*
X0057663Y0181659D02*
X0062663Y0181659D01*
X0062663Y0182258D02*
X0057663Y0182258D01*
X0057663Y0182856D02*
X0062663Y0182856D01*
X0062663Y0183455D02*
X0057663Y0183455D01*
X0057663Y0184053D02*
X0062663Y0184053D01*
X0062663Y0184652D02*
X0057663Y0184652D01*
X0057663Y0185250D02*
X0062663Y0185250D01*
X0062663Y0185849D02*
X0057663Y0185849D01*
X0057663Y0186447D02*
X0062663Y0186447D01*
X0062663Y0187046D02*
X0057663Y0187046D01*
X0057663Y0187644D02*
X0062663Y0187644D01*
X0062663Y0188243D02*
X0057663Y0188243D01*
X0057663Y0188841D02*
X0062663Y0188841D01*
X0062663Y0189440D02*
X0057663Y0189440D01*
X0057663Y0190039D02*
X0062663Y0190039D01*
X0062663Y0190637D02*
X0057663Y0190637D01*
X0057663Y0191236D02*
X0062663Y0191236D01*
X0062663Y0191834D02*
X0057663Y0191834D01*
X0057663Y0192433D02*
X0062663Y0192433D01*
X0062663Y0193031D02*
X0057663Y0193031D01*
X0057663Y0193630D02*
X0062663Y0193630D01*
X0062663Y0194228D02*
X0057663Y0194228D01*
X0057663Y0194827D02*
X0062663Y0194827D01*
X0056707Y0196024D02*
X0054327Y0196024D01*
X0054327Y0195425D02*
X0056263Y0195425D01*
X0056263Y0194827D02*
X0054327Y0194827D01*
X0054327Y0194228D02*
X0056263Y0194228D01*
X0056263Y0193630D02*
X0054327Y0193630D01*
X0054327Y0193031D02*
X0056263Y0193031D01*
X0056263Y0192433D02*
X0054327Y0192433D01*
X0054327Y0191834D02*
X0056263Y0191834D01*
X0056263Y0191236D02*
X0054327Y0191236D01*
X0054327Y0190637D02*
X0056263Y0190637D01*
X0056263Y0190039D02*
X0054327Y0190039D01*
X0054327Y0189440D02*
X0056263Y0189440D01*
X0056263Y0188841D02*
X0054327Y0188841D01*
X0054327Y0188243D02*
X0056263Y0188243D01*
X0056263Y0187644D02*
X0054327Y0187644D01*
X0055315Y0187046D02*
X0056263Y0187046D01*
X0056263Y0186447D02*
X0055913Y0186447D01*
X0054815Y0185849D02*
X0052512Y0185849D01*
X0051914Y0185250D02*
X0055413Y0185250D01*
X0046228Y0191236D02*
X0046058Y0191236D01*
X0046228Y0191834D02*
X0045703Y0191834D01*
X0046228Y0192433D02*
X0045105Y0192433D01*
X0044069Y0193031D02*
X0046228Y0193031D01*
X0046228Y0193630D02*
X0038963Y0193630D01*
X0038963Y0194228D02*
X0046228Y0194228D01*
X0046228Y0194827D02*
X0038963Y0194827D01*
X0038963Y0195425D02*
X0046228Y0195425D01*
X0046228Y0196024D02*
X0038963Y0196024D01*
X0038963Y0196622D02*
X0046228Y0196622D01*
X0046228Y0197221D02*
X0038963Y0197221D01*
X0038963Y0197819D02*
X0046228Y0197819D01*
X0046228Y0198418D02*
X0038963Y0198418D01*
X0038963Y0199016D02*
X0046228Y0199016D01*
X0046501Y0199615D02*
X0038963Y0199615D01*
X0038963Y0200213D02*
X0086374Y0200213D01*
X0086374Y0200812D02*
X0038963Y0200812D01*
X0038963Y0201410D02*
X0086374Y0201410D01*
X0086374Y0202009D02*
X0038963Y0202009D01*
X0038963Y0202607D02*
X0086407Y0202607D01*
X0085145Y0191834D02*
X0081099Y0191834D01*
X0081099Y0191236D02*
X0084546Y0191236D01*
X0084405Y0190637D02*
X0081099Y0190637D01*
X0081099Y0190039D02*
X0084405Y0190039D01*
X0084405Y0189440D02*
X0081099Y0189440D01*
X0081099Y0188841D02*
X0084934Y0188841D01*
X0069755Y0170288D02*
X0068354Y0170288D01*
X0068354Y0169689D02*
X0070189Y0169689D01*
X0070189Y0169091D02*
X0068354Y0169091D01*
X0068263Y0168492D02*
X0070189Y0168492D01*
X0070189Y0167894D02*
X0067737Y0167894D01*
X0066863Y0169091D02*
X0063073Y0169091D01*
X0062474Y0169689D02*
X0066863Y0169689D01*
X0066863Y0170288D02*
X0061876Y0170288D01*
X0061277Y0170886D02*
X0066277Y0170886D01*
X0065679Y0171485D02*
X0058679Y0171485D01*
X0061691Y0168492D02*
X0046359Y0168492D01*
X0046111Y0167894D02*
X0062290Y0167894D01*
X0048966Y0165500D02*
X0038963Y0165500D01*
X0038963Y0164901D02*
X0048463Y0164901D01*
X0048463Y0164303D02*
X0038963Y0164303D01*
X0038963Y0163704D02*
X0048463Y0163704D01*
X0068248Y0160113D02*
X0070163Y0160113D01*
X0070163Y0159514D02*
X0068846Y0159514D01*
X0069363Y0158916D02*
X0070163Y0158916D01*
X0070163Y0158317D02*
X0069363Y0158317D01*
X0069363Y0157719D02*
X0070163Y0157719D01*
X0070163Y0157120D02*
X0069363Y0157120D01*
X0069363Y0156522D02*
X0070520Y0156522D01*
X0070630Y0155923D02*
X0069363Y0155923D01*
X0069363Y0155325D02*
X0070032Y0155325D01*
X0069573Y0154726D02*
X0069363Y0154726D01*
X0069363Y0154128D02*
X0069573Y0154128D01*
X0069573Y0153529D02*
X0069363Y0153529D01*
X0069363Y0152931D02*
X0069776Y0152931D01*
X0069363Y0152332D02*
X0070375Y0152332D01*
X0069363Y0151734D02*
X0071773Y0151734D01*
X0070942Y0151135D02*
X0069363Y0151135D01*
X0069363Y0150537D02*
X0070344Y0150537D01*
X0069773Y0149938D02*
X0069363Y0149938D01*
X0069363Y0149340D02*
X0069773Y0149340D01*
X0069773Y0148741D02*
X0069102Y0148741D01*
X0068503Y0148143D02*
X0069864Y0148143D01*
X0070463Y0147544D02*
X0067905Y0147544D01*
X0067306Y0146946D02*
X0071463Y0146946D01*
X0070575Y0145150D02*
X0038963Y0145150D01*
X0038963Y0144552D02*
X0069977Y0144552D01*
X0063278Y0143953D02*
X0038963Y0143953D01*
X0038963Y0143355D02*
X0062680Y0143355D01*
X0059021Y0148143D02*
X0066806Y0148143D01*
X0078863Y0147544D02*
X0079951Y0147544D01*
X0079573Y0146946D02*
X0078863Y0146946D01*
X0078863Y0146347D02*
X0079573Y0146347D01*
X0079573Y0145749D02*
X0078863Y0145749D01*
X0078863Y0145150D02*
X0079857Y0145150D01*
X0080455Y0144552D02*
X0078863Y0144552D01*
X0078389Y0143953D02*
X0088172Y0143953D01*
X0088770Y0143355D02*
X0078765Y0143355D01*
X0079364Y0142756D02*
X0090669Y0142756D01*
X0091142Y0142158D02*
X0091267Y0142158D01*
X0091142Y0141559D02*
X0091866Y0141559D01*
X0092464Y0140961D02*
X0091142Y0140961D01*
X0091142Y0140362D02*
X0093063Y0140362D01*
X0093661Y0139764D02*
X0091142Y0139764D01*
X0091142Y0139165D02*
X0099185Y0139165D01*
X0099517Y0138567D02*
X0090810Y0138567D01*
X0091940Y0133180D02*
X0093287Y0133180D01*
X0092688Y0132581D02*
X0092539Y0132581D01*
X0097329Y0123005D02*
X0111196Y0123005D01*
X0110196Y0122407D02*
X0097461Y0122407D01*
X0097461Y0121808D02*
X0109598Y0121808D01*
X0109259Y0121210D02*
X0097461Y0121210D01*
X0097461Y0120611D02*
X0109011Y0120611D01*
X0108863Y0120013D02*
X0097461Y0120013D01*
X0097461Y0119414D02*
X0108863Y0119414D01*
X0108863Y0118816D02*
X0097461Y0118816D01*
X0097461Y0118217D02*
X0109082Y0118217D01*
X0109330Y0117619D02*
X0097461Y0117619D01*
X0097461Y0117020D02*
X0109769Y0117020D01*
X0110368Y0116422D02*
X0097461Y0116422D01*
X0097063Y0115823D02*
X0111610Y0115823D01*
X0116363Y0115225D02*
X0070995Y0115225D01*
X0071078Y0115823D02*
X0071257Y0115823D01*
X0071454Y0114626D02*
X0076333Y0114626D01*
X0076798Y0115091D02*
X0075573Y0113866D01*
X0075573Y0112134D01*
X0076357Y0111350D01*
X0075373Y0110366D01*
X0075373Y0108634D01*
X0076598Y0107409D01*
X0078329Y0107409D01*
X0079554Y0108634D01*
X0079554Y0110366D01*
X0078770Y0111150D01*
X0079754Y0112134D01*
X0079754Y0113866D01*
X0078529Y0115091D01*
X0076798Y0115091D01*
X0075587Y0115823D02*
X0075409Y0115823D01*
X0075735Y0114028D02*
X0071454Y0114028D01*
X0071454Y0113429D02*
X0075573Y0113429D01*
X0075573Y0112831D02*
X0071251Y0112831D01*
X0070652Y0112232D02*
X0075573Y0112232D01*
X0076073Y0111634D02*
X0062986Y0111634D01*
X0062852Y0112232D02*
X0068075Y0112232D01*
X0067476Y0112831D02*
X0063254Y0112831D01*
X0063254Y0113429D02*
X0067273Y0113429D01*
X0067273Y0114028D02*
X0063254Y0114028D01*
X0062994Y0114626D02*
X0067273Y0114626D01*
X0067732Y0115225D02*
X0062395Y0115225D01*
X0062417Y0115823D02*
X0066926Y0115823D01*
X0066527Y0116422D02*
X0062815Y0116422D01*
X0062815Y0117020D02*
X0066527Y0117020D01*
X0066527Y0117619D02*
X0062815Y0117619D01*
X0062815Y0118217D02*
X0066527Y0118217D01*
X0066527Y0118816D02*
X0062815Y0118816D01*
X0062815Y0119414D02*
X0066527Y0119414D01*
X0066527Y0120013D02*
X0062815Y0120013D01*
X0062815Y0120611D02*
X0066527Y0120611D01*
X0066527Y0121210D02*
X0062815Y0121210D01*
X0062815Y0121808D02*
X0066527Y0121808D01*
X0066527Y0122407D02*
X0062815Y0122407D01*
X0062683Y0123005D02*
X0066660Y0123005D01*
X0059729Y0126596D02*
X0058406Y0126596D01*
X0057807Y0127195D02*
X0059130Y0127195D01*
X0058532Y0127793D02*
X0057209Y0127793D01*
X0056610Y0128392D02*
X0057933Y0128392D01*
X0057335Y0128990D02*
X0056012Y0128990D01*
X0055413Y0129589D02*
X0056863Y0129589D01*
X0056863Y0130187D02*
X0054815Y0130187D01*
X0054216Y0130786D02*
X0056863Y0130786D01*
X0056863Y0131384D02*
X0054082Y0131384D01*
X0054082Y0131983D02*
X0056863Y0131983D01*
X0056863Y0132581D02*
X0055927Y0132581D01*
X0056142Y0133180D02*
X0056863Y0133180D01*
X0056863Y0133778D02*
X0056142Y0133778D01*
X0056142Y0134377D02*
X0056573Y0134377D01*
X0056573Y0134975D02*
X0056142Y0134975D01*
X0056142Y0135574D02*
X0056573Y0135574D01*
X0056879Y0136172D02*
X0056071Y0136172D01*
X0051482Y0131983D02*
X0045555Y0131983D01*
X0045996Y0131384D02*
X0051482Y0131384D01*
X0051482Y0130786D02*
X0046244Y0130786D01*
X0046463Y0130187D02*
X0051482Y0130187D01*
X0051736Y0129589D02*
X0046463Y0129589D01*
X0046463Y0128990D02*
X0052335Y0128990D01*
X0052933Y0128392D02*
X0046318Y0128392D01*
X0046070Y0127793D02*
X0053532Y0127793D01*
X0054130Y0127195D02*
X0045732Y0127195D01*
X0045134Y0126596D02*
X0054729Y0126596D01*
X0055327Y0125998D02*
X0044138Y0125998D01*
X0044131Y0123005D02*
X0048212Y0123005D01*
X0047614Y0122407D02*
X0045131Y0122407D01*
X0045729Y0121808D02*
X0047573Y0121808D01*
X0047573Y0121210D02*
X0046068Y0121210D01*
X0046316Y0120611D02*
X0047596Y0120611D01*
X0048194Y0120013D02*
X0046463Y0120013D01*
X0046463Y0119414D02*
X0048793Y0119414D01*
X0050073Y0118816D02*
X0046463Y0118816D01*
X0046245Y0118217D02*
X0050490Y0118217D01*
X0051088Y0117619D02*
X0045997Y0117619D01*
X0043717Y0115823D02*
X0058264Y0115823D01*
X0059333Y0114626D02*
X0038963Y0114626D01*
X0038963Y0114028D02*
X0059073Y0114028D01*
X0059932Y0115225D02*
X0038963Y0115225D01*
X0038963Y0113429D02*
X0046454Y0113429D01*
X0046449Y0112831D02*
X0044553Y0112831D01*
X0045305Y0112232D02*
X0046449Y0112232D01*
X0046449Y0111634D02*
X0045893Y0111634D01*
X0046141Y0111035D02*
X0046449Y0111035D01*
X0046449Y0110437D02*
X0046389Y0110437D01*
X0046449Y0108708D02*
X0046449Y0105198D01*
X0046666Y0104980D01*
X0046449Y0104763D01*
X0046449Y0100867D01*
X0046666Y0100650D01*
X0046449Y0100432D01*
X0046449Y0100292D01*
X0045885Y0101653D01*
X0044816Y0102721D01*
X0043419Y0103300D01*
X0038963Y0103300D01*
X0038963Y0105700D01*
X0043419Y0105700D01*
X0044816Y0106279D01*
X0045885Y0107347D01*
X0046449Y0108708D01*
X0046449Y0108641D02*
X0046421Y0108641D01*
X0046449Y0108042D02*
X0046173Y0108042D01*
X0045925Y0107444D02*
X0046449Y0107444D01*
X0046449Y0106845D02*
X0045383Y0106845D01*
X0044740Y0106247D02*
X0046449Y0106247D01*
X0046449Y0105648D02*
X0038963Y0105648D01*
X0038963Y0105050D02*
X0046597Y0105050D01*
X0046449Y0104451D02*
X0038963Y0104451D01*
X0038963Y0103853D02*
X0046449Y0103853D01*
X0046449Y0103254D02*
X0043529Y0103254D01*
X0044882Y0102656D02*
X0046449Y0102656D01*
X0046449Y0102057D02*
X0045480Y0102057D01*
X0045965Y0101459D02*
X0046449Y0101459D01*
X0046456Y0100860D02*
X0046213Y0100860D01*
X0046449Y0098708D02*
X0046449Y0096537D01*
X0046666Y0096319D01*
X0046449Y0096101D01*
X0046449Y0092206D01*
X0046666Y0091988D01*
X0046449Y0091770D01*
X0046449Y0090292D01*
X0045885Y0091653D01*
X0044816Y0092721D01*
X0043419Y0093300D01*
X0038963Y0093300D01*
X0038963Y0095700D01*
X0043419Y0095700D01*
X0044816Y0096279D01*
X0045885Y0097347D01*
X0046449Y0098708D01*
X0046449Y0098466D02*
X0046348Y0098466D01*
X0046449Y0097868D02*
X0046100Y0097868D01*
X0045807Y0097269D02*
X0046449Y0097269D01*
X0046449Y0096671D02*
X0045208Y0096671D01*
X0044318Y0096072D02*
X0046449Y0096072D01*
X0046449Y0095474D02*
X0038963Y0095474D01*
X0038963Y0094875D02*
X0046449Y0094875D01*
X0046449Y0094277D02*
X0038963Y0094277D01*
X0038963Y0093678D02*
X0046449Y0093678D01*
X0046449Y0093080D02*
X0043951Y0093080D01*
X0045056Y0092481D02*
X0046449Y0092481D01*
X0046561Y0091883D02*
X0045655Y0091883D01*
X0046038Y0091284D02*
X0046449Y0091284D01*
X0046449Y0090686D02*
X0046285Y0090686D01*
X0054399Y0085898D02*
X0060427Y0085898D01*
X0059829Y0086496D02*
X0054998Y0086496D01*
X0054154Y0085299D02*
X0061026Y0085299D01*
X0061624Y0084701D02*
X0054154Y0084701D01*
X0054154Y0084102D02*
X0062223Y0084102D01*
X0062821Y0083503D02*
X0054113Y0083503D01*
X0054154Y0082905D02*
X0063420Y0082905D01*
X0063863Y0082306D02*
X0054154Y0082306D01*
X0059860Y0081708D02*
X0063863Y0081708D01*
X0073722Y0084102D02*
X0075073Y0084102D01*
X0074506Y0084701D02*
X0074320Y0084701D01*
X0088302Y0088200D02*
X0098073Y0088200D01*
X0098073Y0087634D01*
X0099298Y0086409D01*
X0101029Y0086409D01*
X0101968Y0087348D01*
X0108351Y0087348D01*
X0108878Y0087875D01*
X0108878Y0088708D01*
X0109442Y0087347D01*
X0110511Y0086279D01*
X0111908Y0085700D01*
X0116363Y0085700D01*
X0116363Y0083300D01*
X0111908Y0083300D01*
X0110511Y0082721D01*
X0109442Y0081653D01*
X0108878Y0080292D01*
X0108878Y0083109D01*
X0108351Y0083636D01*
X0101700Y0083636D01*
X0101173Y0083109D01*
X0101173Y0081800D01*
X0094702Y0081800D01*
X0088302Y0088200D01*
X0088809Y0087693D02*
X0098073Y0087693D01*
X0098612Y0087095D02*
X0089407Y0087095D01*
X0090006Y0086496D02*
X0099211Y0086496D01*
X0101116Y0086496D02*
X0110293Y0086496D01*
X0109695Y0087095D02*
X0101715Y0087095D01*
X0101567Y0083503D02*
X0092998Y0083503D01*
X0093597Y0082905D02*
X0101173Y0082905D01*
X0101173Y0082306D02*
X0094195Y0082306D01*
X0092400Y0084102D02*
X0116363Y0084102D01*
X0116363Y0084701D02*
X0091801Y0084701D01*
X0091203Y0085299D02*
X0116363Y0085299D01*
X0116363Y0083503D02*
X0108484Y0083503D01*
X0108878Y0082905D02*
X0110954Y0082905D01*
X0110096Y0082306D02*
X0108878Y0082306D01*
X0108878Y0081708D02*
X0109497Y0081708D01*
X0109217Y0081109D02*
X0108878Y0081109D01*
X0108878Y0080511D02*
X0108969Y0080511D01*
X0111431Y0085898D02*
X0090604Y0085898D01*
X0089073Y0096072D02*
X0084192Y0096072D01*
X0084791Y0096671D02*
X0089073Y0096671D01*
X0089476Y0097269D02*
X0085254Y0097269D01*
X0081536Y0096671D02*
X0081463Y0096671D01*
X0083873Y0105648D02*
X0062268Y0105648D01*
X0062867Y0106247D02*
X0083873Y0106247D01*
X0083873Y0106845D02*
X0063254Y0106845D01*
X0063254Y0107444D02*
X0068563Y0107444D01*
X0068898Y0107109D02*
X0067673Y0108334D01*
X0067673Y0110066D01*
X0068898Y0111291D01*
X0070629Y0111291D01*
X0071854Y0110066D01*
X0071854Y0108334D01*
X0070629Y0107109D01*
X0068898Y0107109D01*
X0067965Y0108042D02*
X0063254Y0108042D01*
X0062979Y0108641D02*
X0067673Y0108641D01*
X0067673Y0109239D02*
X0062859Y0109239D01*
X0063254Y0109838D02*
X0067673Y0109838D01*
X0068043Y0110437D02*
X0063254Y0110437D01*
X0063254Y0111035D02*
X0068642Y0111035D01*
X0070885Y0111035D02*
X0076042Y0111035D01*
X0075443Y0110437D02*
X0071483Y0110437D01*
X0071854Y0109838D02*
X0075373Y0109838D01*
X0075373Y0109239D02*
X0071854Y0109239D01*
X0071854Y0108641D02*
X0075373Y0108641D01*
X0075965Y0108042D02*
X0071562Y0108042D01*
X0070964Y0107444D02*
X0076563Y0107444D01*
X0078364Y0107444D02*
X0084451Y0107444D01*
X0085049Y0108042D02*
X0078962Y0108042D01*
X0079554Y0108641D02*
X0101173Y0108641D01*
X0101173Y0108042D02*
X0086877Y0108042D01*
X0087476Y0107444D02*
X0101173Y0107444D01*
X0101319Y0109239D02*
X0079554Y0109239D01*
X0079554Y0109838D02*
X0092869Y0109838D01*
X0093298Y0109409D02*
X0095029Y0109409D01*
X0096254Y0110634D01*
X0096254Y0112366D01*
X0095029Y0113591D01*
X0093298Y0113591D01*
X0092073Y0112366D01*
X0092073Y0110634D01*
X0093298Y0109409D01*
X0092270Y0110437D02*
X0079483Y0110437D01*
X0078885Y0111035D02*
X0092073Y0111035D01*
X0092073Y0111634D02*
X0079253Y0111634D01*
X0079754Y0112232D02*
X0092073Y0112232D01*
X0092538Y0112831D02*
X0079754Y0112831D01*
X0079754Y0113429D02*
X0093136Y0113429D01*
X0095191Y0113429D02*
X0116363Y0113429D01*
X0116363Y0114028D02*
X0079592Y0114028D01*
X0078994Y0114626D02*
X0116363Y0114626D01*
X0110774Y0112831D02*
X0095789Y0112831D01*
X0096254Y0112232D02*
X0110022Y0112232D01*
X0109434Y0111634D02*
X0096254Y0111634D01*
X0096254Y0111035D02*
X0109186Y0111035D01*
X0108938Y0110437D02*
X0096056Y0110437D01*
X0095458Y0109838D02*
X0108863Y0109838D01*
X0108863Y0109239D02*
X0108732Y0109239D01*
X0092910Y0115823D02*
X0092732Y0115823D01*
X0088579Y0115823D02*
X0088401Y0115823D01*
X0084249Y0115823D02*
X0084070Y0115823D01*
X0079918Y0115823D02*
X0079740Y0115823D01*
X0056524Y0124801D02*
X0038963Y0124801D01*
X0038963Y0125399D02*
X0055926Y0125399D01*
X0049636Y0132581D02*
X0044956Y0132581D01*
X0043709Y0133180D02*
X0049421Y0133180D01*
X0049421Y0133778D02*
X0038963Y0133778D01*
X0038963Y0134377D02*
X0049421Y0134377D01*
X0049421Y0134975D02*
X0038963Y0134975D01*
X0038963Y0135574D02*
X0049421Y0135574D01*
X0049492Y0136172D02*
X0044560Y0136172D01*
X0079962Y0142158D02*
X0084421Y0142158D01*
X0084421Y0141559D02*
X0083485Y0141559D01*
X0083485Y0140961D02*
X0084421Y0140961D01*
X0084421Y0140362D02*
X0083485Y0140362D01*
X0083485Y0139764D02*
X0084421Y0139764D01*
X0083839Y0144552D02*
X0082872Y0144552D01*
X0087962Y0149340D02*
X0090563Y0149340D01*
X0090563Y0149938D02*
X0087763Y0149938D01*
X0087763Y0150537D02*
X0090563Y0150537D01*
X0090563Y0151135D02*
X0087763Y0151135D01*
X0088561Y0148741D02*
X0090563Y0148741D01*
X0091048Y0148143D02*
X0089159Y0148143D01*
X0094279Y0148143D02*
X0095236Y0148143D01*
X0094751Y0147544D02*
X0094592Y0147544D01*
X0103254Y0154726D02*
X0103551Y0154726D01*
X0103254Y0155325D02*
X0104150Y0155325D01*
X0104748Y0155923D02*
X0102697Y0155923D01*
X0102098Y0156522D02*
X0104863Y0156522D01*
X0093679Y0163105D02*
X0084032Y0163105D01*
X0084032Y0163704D02*
X0093679Y0163704D01*
X0093679Y0164303D02*
X0084032Y0164303D01*
X0083823Y0164901D02*
X0093679Y0164901D01*
X0093689Y0165500D02*
X0078763Y0165500D01*
X0079454Y0159088D02*
X0082195Y0159088D01*
X0082173Y0159066D01*
X0082173Y0157391D01*
X0081298Y0157391D01*
X0081013Y0157106D01*
X0080029Y0158091D01*
X0079454Y0158091D01*
X0079454Y0159088D01*
X0079454Y0158916D02*
X0082173Y0158916D01*
X0082173Y0158317D02*
X0079454Y0158317D01*
X0080401Y0157719D02*
X0082173Y0157719D01*
X0081027Y0157120D02*
X0081000Y0157120D01*
X0062863Y0102656D02*
X0062464Y0102656D01*
X0064291Y0096671D02*
X0064536Y0096671D01*
X0065135Y0096072D02*
X0063692Y0096072D01*
X0046449Y0078117D02*
X0046204Y0078117D01*
X0046449Y0077518D02*
X0045956Y0077518D01*
X0046449Y0076920D02*
X0045457Y0076920D01*
X0044859Y0076321D02*
X0046449Y0076321D01*
X0046449Y0075723D02*
X0043474Y0075723D01*
X0046449Y0075124D02*
X0038963Y0075124D01*
X0038963Y0074526D02*
X0046806Y0074526D01*
X0046668Y0070336D02*
X0046430Y0070336D01*
X0089769Y0064351D02*
X0089863Y0064351D01*
X0093963Y0062744D02*
X0094298Y0062409D01*
X0096029Y0062409D01*
X0097254Y0063634D01*
X0097254Y0065366D01*
X0096029Y0066591D01*
X0094298Y0066591D01*
X0093963Y0066256D01*
X0093963Y0068244D01*
X0094298Y0067909D01*
X0095416Y0067909D01*
X0096125Y0067200D01*
X0101173Y0067200D01*
X0101173Y0066447D01*
X0100529Y0067091D01*
X0098798Y0067091D01*
X0097573Y0065866D01*
X0097573Y0064134D01*
X0098798Y0062909D01*
X0100529Y0062909D01*
X0101754Y0064134D01*
X0101754Y0065694D01*
X0108351Y0065694D01*
X0108878Y0066222D01*
X0108878Y0068708D01*
X0109442Y0067347D01*
X0110511Y0066279D01*
X0111908Y0065700D01*
X0116363Y0065700D01*
X0116363Y0063300D01*
X0111908Y0063300D01*
X0110511Y0062721D01*
X0109442Y0061653D01*
X0108878Y0060292D01*
X0108878Y0061455D01*
X0108351Y0061983D01*
X0101700Y0061983D01*
X0101173Y0061455D01*
X0101173Y0057560D01*
X0101391Y0057343D01*
X0101173Y0057125D01*
X0101173Y0055300D01*
X0098202Y0055300D01*
X0093963Y0059538D01*
X0093963Y0062744D01*
X0093963Y0062556D02*
X0094151Y0062556D01*
X0093963Y0061957D02*
X0101675Y0061957D01*
X0101173Y0061359D02*
X0093963Y0061359D01*
X0093963Y0060760D02*
X0101173Y0060760D01*
X0101173Y0060162D02*
X0093963Y0060162D01*
X0093963Y0059563D02*
X0101173Y0059563D01*
X0101173Y0058965D02*
X0094537Y0058965D01*
X0095136Y0058366D02*
X0101173Y0058366D01*
X0101173Y0057768D02*
X0095734Y0057768D01*
X0096333Y0057169D02*
X0101217Y0057169D01*
X0101173Y0056570D02*
X0096931Y0056570D01*
X0097530Y0055972D02*
X0101173Y0055972D01*
X0101173Y0055373D02*
X0098128Y0055373D01*
X0096247Y0053578D02*
X0092463Y0053578D01*
X0092463Y0054176D02*
X0095649Y0054176D01*
X0095050Y0054775D02*
X0092463Y0054775D01*
X0092463Y0055373D02*
X0094452Y0055373D01*
X0093853Y0055972D02*
X0092463Y0055972D01*
X0092463Y0056570D02*
X0093255Y0056570D01*
X0092656Y0057169D02*
X0092463Y0057169D01*
X0092463Y0052979D02*
X0096846Y0052979D01*
X0101173Y0052381D02*
X0092463Y0052381D01*
X0092463Y0051782D02*
X0101173Y0051782D01*
X0101173Y0051184D02*
X0092463Y0051184D01*
X0092463Y0050585D02*
X0101173Y0050585D01*
X0101173Y0049987D02*
X0092463Y0049987D01*
X0092463Y0049388D02*
X0101173Y0049388D01*
X0101282Y0048790D02*
X0092463Y0048790D01*
X0092463Y0048191D02*
X0109092Y0048191D01*
X0108863Y0048790D02*
X0108769Y0048790D01*
X0109340Y0047593D02*
X0092463Y0047593D01*
X0093008Y0046994D02*
X0109795Y0046994D01*
X0110394Y0046396D02*
X0093606Y0046396D01*
X0094205Y0045797D02*
X0111673Y0045797D01*
X0109072Y0060760D02*
X0108878Y0060760D01*
X0108878Y0061359D02*
X0109320Y0061359D01*
X0109747Y0061957D02*
X0108377Y0061957D01*
X0110345Y0062556D02*
X0096176Y0062556D01*
X0096774Y0063154D02*
X0098553Y0063154D01*
X0097954Y0063753D02*
X0097254Y0063753D01*
X0097254Y0064351D02*
X0097573Y0064351D01*
X0097573Y0064950D02*
X0097254Y0064950D01*
X0097072Y0065548D02*
X0097573Y0065548D01*
X0097854Y0066147D02*
X0096473Y0066147D01*
X0095981Y0067344D02*
X0093963Y0067344D01*
X0093963Y0067942D02*
X0094265Y0067942D01*
X0093963Y0066745D02*
X0098452Y0066745D01*
X0100875Y0066745D02*
X0101173Y0066745D01*
X0101754Y0065548D02*
X0116363Y0065548D01*
X0116363Y0064950D02*
X0101754Y0064950D01*
X0101754Y0064351D02*
X0116363Y0064351D01*
X0116363Y0063753D02*
X0101373Y0063753D01*
X0100774Y0063154D02*
X0111555Y0063154D01*
X0110829Y0066147D02*
X0108803Y0066147D01*
X0108878Y0066745D02*
X0110044Y0066745D01*
X0109446Y0067344D02*
X0108878Y0067344D01*
X0108878Y0067942D02*
X0109196Y0067942D01*
X0108948Y0068541D02*
X0108878Y0068541D01*
X0089863Y0061359D02*
X0089479Y0061359D01*
X0108696Y0087693D02*
X0109299Y0087693D01*
X0109051Y0088292D02*
X0108878Y0088292D01*
X0045963Y0027243D02*
X0045781Y0027243D01*
X0045963Y0026645D02*
X0045182Y0026645D01*
X0045963Y0026046D02*
X0044256Y0026046D01*
X0045963Y0025448D02*
X0038963Y0025448D01*
X0038963Y0024849D02*
X0045963Y0024849D01*
X0045963Y0024251D02*
X0038963Y0024251D01*
X0038963Y0023652D02*
X0045963Y0023652D01*
X0045963Y0023054D02*
X0044014Y0023054D01*
X0045082Y0022455D02*
X0045963Y0022455D01*
X0045963Y0021857D02*
X0045681Y0021857D01*
X0046048Y0021258D02*
X0046208Y0021258D01*
X0046296Y0020660D02*
X0046807Y0020660D01*
X0046963Y0020061D02*
X0046463Y0020061D01*
X0046463Y0019463D02*
X0046963Y0019463D01*
X0046963Y0018864D02*
X0046463Y0018864D01*
X0046265Y0018266D02*
X0046963Y0018266D01*
X0046963Y0017667D02*
X0046017Y0017667D01*
X0045606Y0017069D02*
X0046963Y0017069D01*
X0046963Y0016470D02*
X0045008Y0016470D01*
X0043834Y0015872D02*
X0046963Y0015872D01*
D42*
X0097982Y0098681D02*
X0098333Y0098681D01*
X0097982Y0098681D02*
X0096663Y0100000D01*
D43*
X0064671Y0025453D02*
X0064671Y0016522D01*
D44*
X0064663Y0016514D01*
X0104663Y0185500D02*
X0105263Y0186100D01*
X0105263Y0190300D01*
X0112663Y0197700D01*
X0112663Y0199500D01*
M02*
