G75*
%MOIN*%
%OFA0B0*%
%FSLAX25Y25*%
%IPPOS*%
%LPD*%
%AMOC8*
5,1,8,0,0,1.08239X$1,22.5*
%
%ADD10R,0.01575X0.05315*%
%ADD11R,0.05906X0.07480*%
%ADD12R,0.04921X0.02559*%
%ADD13R,0.01800X0.02400*%
%ADD14R,0.03937X0.04134*%
%ADD15R,0.04134X0.08661*%
%ADD16R,0.02400X0.01800*%
%ADD17R,0.02756X0.05512*%
%ADD18R,0.05512X0.02756*%
%ADD19R,0.03937X0.03937*%
%ADD20R,0.03937X0.03150*%
%ADD21R,0.06299X0.11811*%
%ADD22R,0.03937X0.21654*%
%ADD23R,0.03150X0.03150*%
%ADD24R,0.02800X0.04100*%
%ADD25R,0.04100X0.02800*%
%ADD26R,0.01181X0.03150*%
%ADD27R,0.02600X0.02600*%
%ADD28R,0.03937X0.04331*%
%ADD29R,0.06299X0.03543*%
%ADD30R,0.01181X0.02362*%
%ADD31R,0.03150X0.10630*%
%ADD32R,0.02756X0.01575*%
D10*
X0089045Y0189655D03*
X0091604Y0189655D03*
X0094163Y0189655D03*
X0096723Y0189655D03*
X0099282Y0189655D03*
D11*
X0098100Y0200186D03*
X0090226Y0200147D03*
D12*
X0087782Y0142238D03*
X0087782Y0136135D03*
X0102545Y0136135D03*
X0102545Y0142238D03*
X0067545Y0142238D03*
X0067545Y0136135D03*
X0052782Y0136135D03*
X0052782Y0142238D03*
D13*
X0048763Y0009186D03*
X0048763Y0012686D03*
X0052563Y0012686D03*
X0052563Y0009186D03*
X0052563Y0016186D03*
X0048763Y0016186D03*
X0048763Y0019686D03*
X0052563Y0019686D03*
X0066263Y0130686D03*
X0070063Y0130686D03*
X0073263Y0130686D03*
X0077063Y0130686D03*
X0077063Y0147686D03*
X0073263Y0147686D03*
X0084363Y0147386D03*
X0088163Y0147386D03*
X0102163Y0183186D03*
X0105963Y0183186D03*
D14*
X0064663Y0018200D03*
D15*
X0058856Y0012186D03*
X0070471Y0012186D03*
D16*
X0077663Y0014286D03*
X0081663Y0014286D03*
X0089663Y0014286D03*
X0089663Y0018086D03*
X0081663Y0018086D03*
X0077663Y0018086D03*
X0097663Y0018086D03*
X0097663Y0014286D03*
X0092663Y0148686D03*
X0092663Y0152486D03*
X0099163Y0158786D03*
X0099163Y0162586D03*
X0088663Y0162786D03*
X0088663Y0166586D03*
X0076663Y0166586D03*
X0076663Y0162786D03*
X0105663Y0176186D03*
X0105663Y0179986D03*
D17*
X0099317Y0121234D03*
X0094986Y0121234D03*
X0090656Y0121234D03*
X0086325Y0121234D03*
X0081994Y0121234D03*
X0077663Y0121234D03*
X0073333Y0121234D03*
X0069002Y0121234D03*
X0064671Y0121234D03*
X0060341Y0121234D03*
X0056010Y0121234D03*
X0056010Y0027139D03*
X0060341Y0027139D03*
X0064671Y0027139D03*
X0069002Y0027139D03*
X0073333Y0027139D03*
X0077663Y0027139D03*
X0081994Y0027139D03*
X0086325Y0027139D03*
X0090656Y0027139D03*
X0094986Y0027139D03*
X0099317Y0027139D03*
D18*
X0105026Y0030879D03*
X0105026Y0035210D03*
X0105026Y0039541D03*
X0105026Y0043871D03*
X0105026Y0048202D03*
X0105026Y0052533D03*
X0105026Y0056863D03*
X0105026Y0061194D03*
X0105026Y0065525D03*
X0105026Y0069856D03*
X0105026Y0074186D03*
X0105026Y0078517D03*
X0105026Y0082848D03*
X0105026Y0087178D03*
X0105026Y0091509D03*
X0105026Y0095840D03*
X0105026Y0100171D03*
X0105026Y0104501D03*
X0105026Y0108832D03*
X0105026Y0113163D03*
X0105026Y0117493D03*
X0050301Y0117493D03*
X0050301Y0113163D03*
X0050301Y0108832D03*
X0050301Y0104501D03*
X0050301Y0100171D03*
X0050301Y0095840D03*
X0050301Y0091509D03*
X0050301Y0087178D03*
X0050301Y0082848D03*
X0050301Y0078517D03*
X0050301Y0074186D03*
X0050301Y0069856D03*
X0050301Y0065525D03*
X0050301Y0061194D03*
X0050301Y0056863D03*
X0050301Y0052533D03*
X0050301Y0048202D03*
X0050301Y0043871D03*
X0050301Y0039541D03*
X0050301Y0035210D03*
X0050301Y0030879D03*
D19*
X0056994Y0033832D03*
X0065262Y0033832D03*
X0073530Y0033832D03*
X0081797Y0033832D03*
X0090065Y0033832D03*
X0098333Y0033832D03*
X0098333Y0040919D03*
X0090065Y0040919D03*
X0081797Y0040919D03*
X0073530Y0040919D03*
X0065262Y0040919D03*
X0056994Y0040919D03*
X0056994Y0048005D03*
X0056994Y0062178D03*
X0098333Y0062178D03*
X0098333Y0048005D03*
X0098333Y0086194D03*
X0098333Y0100367D03*
X0098333Y0107454D03*
X0090065Y0107454D03*
X0081797Y0107454D03*
X0073530Y0107454D03*
X0065262Y0107454D03*
X0056994Y0107454D03*
X0056994Y0100367D03*
X0056994Y0086194D03*
X0056994Y0114541D03*
X0065262Y0114541D03*
X0073530Y0114541D03*
X0081797Y0114541D03*
X0090065Y0114541D03*
X0098333Y0114541D03*
D20*
X0080616Y0137021D03*
X0074711Y0137021D03*
X0074711Y0141352D03*
X0080616Y0141352D03*
D21*
X0076549Y0194749D03*
X0049778Y0194749D03*
D22*
X0059226Y0185812D03*
X0067100Y0185812D03*
D23*
X0072663Y0169639D03*
X0072663Y0163734D03*
X0097711Y0151186D03*
X0103616Y0151186D03*
D24*
X0054604Y0178711D03*
X0048704Y0178711D03*
D25*
X0060145Y0168716D03*
X0060145Y0162816D03*
D26*
X0093211Y0166175D03*
X0095179Y0166175D03*
X0097148Y0166175D03*
X0099116Y0166175D03*
X0099116Y0177198D03*
X0097148Y0177198D03*
X0095179Y0177198D03*
X0093211Y0177198D03*
D27*
X0096163Y0171686D03*
D28*
X0103163Y0170533D03*
X0103163Y0163840D03*
X0081163Y0163840D03*
X0081163Y0170533D03*
D29*
X0052663Y0169186D03*
D30*
X0052663Y0165249D03*
X0050104Y0165249D03*
X0055223Y0165249D03*
X0055223Y0173123D03*
X0052663Y0173123D03*
X0050104Y0173123D03*
D31*
X0053824Y0154212D03*
X0062486Y0154212D03*
D32*
X0081417Y0153486D03*
X0081417Y0156045D03*
X0088110Y0156045D03*
X0088110Y0150927D03*
X0081417Y0150927D03*
M02*
