G75*
%MOIN*%
%OFA0B0*%
%FSLAX25Y25*%
%IPPOS*%
%LPD*%
%AMOC8*
5,1,8,0,0,1.08239X$1,22.5*
%
%ADD10R,0.04800X0.04800*%
%ADD11R,0.04000X0.03000*%
%ADD12R,0.03200X0.02600*%
%ADD13C,0.05131*%
%ADD14C,0.03162*%
%ADD15C,0.06600*%
%ADD16R,0.04737X0.05131*%
%ADD17R,0.04737X0.12611*%
%ADD18C,0.03556*%
%ADD19C,0.04343*%
%ADD20R,0.01772X0.03543*%
%ADD21R,0.02600X0.03200*%
%ADD22R,0.02953X0.01181*%
%ADD23R,0.01181X0.02953*%
%ADD24R,0.03346X0.01181*%
%ADD25R,0.05131X0.08280*%
%ADD26R,0.01575X0.05118*%
%ADD27C,0.01457*%
%ADD28R,0.10236X0.10236*%
%ADD29R,0.05800X0.03800*%
%ADD30R,0.10500X0.10000*%
%ADD31R,0.09855X0.07296*%
%ADD32R,0.04900X0.03600*%
%ADD33R,0.03600X0.04900*%
%ADD34C,0.04762*%
%ADD35C,0.06600*%
%ADD36C,0.03800*%
%ADD37R,0.11430X0.07099*%
D10*
X0085663Y0062186D03*
D11*
X0081163Y0191686D03*
D12*
X0068163Y0195286D03*
X0068163Y0199086D03*
X0098163Y0177086D03*
X0098163Y0173286D03*
X0100663Y0167086D03*
X0104363Y0167086D03*
X0104363Y0163286D03*
X0100663Y0163286D03*
X0089663Y0162786D03*
X0086163Y0162786D03*
X0082663Y0162786D03*
X0079163Y0162786D03*
X0075663Y0162786D03*
X0072163Y0162786D03*
X0068663Y0162786D03*
X0065163Y0162786D03*
X0065163Y0166586D03*
X0068663Y0166586D03*
X0072163Y0166586D03*
X0075663Y0166586D03*
X0079163Y0166586D03*
X0082663Y0166586D03*
X0086163Y0166586D03*
X0089663Y0166586D03*
X0064263Y0157486D03*
X0060763Y0157486D03*
X0060763Y0153686D03*
X0064263Y0153686D03*
X0068263Y0146086D03*
X0071763Y0146086D03*
X0075263Y0146086D03*
X0075263Y0142286D03*
X0071763Y0142286D03*
X0068263Y0142286D03*
X0065663Y0138386D03*
X0065663Y0134586D03*
X0052363Y0127786D03*
X0052363Y0123986D03*
X0088163Y0142286D03*
X0088163Y0146086D03*
X0088163Y0149286D03*
X0088163Y0153086D03*
X0102663Y0153086D03*
X0102663Y0149286D03*
X0102663Y0146086D03*
X0102663Y0142286D03*
X0101363Y0139086D03*
X0101363Y0135286D03*
X0102163Y0129086D03*
X0105663Y0129086D03*
X0105663Y0125286D03*
X0102163Y0125286D03*
X0053163Y0087086D03*
X0049663Y0087086D03*
X0049663Y0083286D03*
X0053163Y0083286D03*
X0087063Y0074886D03*
X0087063Y0071086D03*
X0099363Y0069286D03*
X0099363Y0073086D03*
D13*
X0105089Y0198021D02*
X0105089Y0202352D01*
X0083238Y0202352D02*
X0083238Y0198021D01*
D14*
X0086486Y0191919D03*
X0101841Y0191919D03*
D15*
X0042663Y0021186D02*
X0036863Y0021186D01*
X0036863Y0031186D02*
X0042663Y0031186D01*
X0042663Y0041186D02*
X0036863Y0041186D01*
X0036863Y0051186D02*
X0042663Y0051186D01*
X0042663Y0061186D02*
X0036863Y0061186D01*
X0036863Y0071186D02*
X0042663Y0071186D01*
X0042663Y0081186D02*
X0036863Y0081186D01*
X0036863Y0091186D02*
X0042663Y0091186D01*
X0042663Y0101186D02*
X0036863Y0101186D01*
X0036863Y0111186D02*
X0042663Y0111186D01*
X0042663Y0121186D02*
X0036863Y0121186D01*
X0036863Y0131186D02*
X0042663Y0131186D01*
X0042663Y0141186D02*
X0036863Y0141186D01*
X0036863Y0151186D02*
X0042663Y0151186D01*
X0042663Y0161186D02*
X0036863Y0161186D01*
X0036863Y0171186D02*
X0042663Y0171186D01*
X0042663Y0181186D02*
X0036863Y0181186D01*
X0036863Y0191186D02*
X0042663Y0191186D01*
X0112663Y0191186D02*
X0118463Y0191186D01*
X0118463Y0181186D02*
X0112663Y0181186D01*
X0112663Y0171186D02*
X0118463Y0171186D01*
X0118463Y0161186D02*
X0112663Y0161186D01*
X0112663Y0151186D02*
X0118463Y0151186D01*
X0118463Y0141186D02*
X0112663Y0141186D01*
X0112663Y0131186D02*
X0118463Y0131186D01*
X0118463Y0121186D02*
X0112663Y0121186D01*
X0112663Y0111186D02*
X0118463Y0111186D01*
X0118463Y0101186D02*
X0112663Y0101186D01*
X0112663Y0091186D02*
X0118463Y0091186D01*
X0118463Y0081186D02*
X0112663Y0081186D01*
X0112663Y0071186D02*
X0118463Y0071186D01*
X0118463Y0061186D02*
X0112663Y0061186D01*
X0112663Y0051186D02*
X0118463Y0051186D01*
X0118463Y0041186D02*
X0112663Y0041186D01*
X0112663Y0031186D02*
X0118463Y0031186D01*
X0118463Y0021186D02*
X0112663Y0021186D01*
D16*
X0094663Y0010052D03*
X0084663Y0010052D03*
X0074663Y0010052D03*
X0074663Y0055721D03*
X0084663Y0055721D03*
X0094663Y0055721D03*
D17*
X0105530Y0032886D03*
X0063797Y0032886D03*
D18*
X0066356Y0049225D03*
D19*
X0101789Y0016548D03*
D20*
X0064223Y0142646D03*
X0061663Y0142646D03*
X0059104Y0142646D03*
X0055223Y0142646D03*
X0052663Y0142646D03*
X0050104Y0142646D03*
X0050104Y0150126D03*
X0055223Y0150126D03*
X0059104Y0150126D03*
X0064223Y0150126D03*
D21*
X0055463Y0154386D03*
X0051663Y0154386D03*
X0051663Y0157986D03*
X0055463Y0157986D03*
X0093263Y0170086D03*
X0097063Y0170086D03*
X0054263Y0137586D03*
X0050463Y0137586D03*
X0049763Y0073186D03*
X0053563Y0073186D03*
X0057763Y0073186D03*
X0061563Y0073186D03*
X0066763Y0073186D03*
X0070563Y0073186D03*
X0074763Y0073186D03*
X0078563Y0073186D03*
X0090763Y0067686D03*
X0094563Y0067686D03*
X0094663Y0062086D03*
X0090863Y0062086D03*
X0099663Y0062086D03*
X0103463Y0062086D03*
D22*
X0098734Y0144824D03*
X0098734Y0146399D03*
X0098734Y0147974D03*
X0092593Y0147974D03*
X0092593Y0149549D03*
X0092593Y0146399D03*
X0092593Y0144824D03*
X0084734Y0144824D03*
X0084734Y0146399D03*
X0084734Y0147974D03*
X0078593Y0147974D03*
X0078593Y0149549D03*
X0078593Y0146399D03*
X0078593Y0144824D03*
D23*
X0079301Y0142541D03*
X0080876Y0142541D03*
X0082451Y0142541D03*
X0084026Y0142541D03*
X0093301Y0142541D03*
X0094876Y0142541D03*
X0096451Y0142541D03*
X0098026Y0142541D03*
X0098026Y0151832D03*
X0096451Y0151832D03*
X0094876Y0151832D03*
X0093301Y0151832D03*
X0084026Y0151832D03*
X0082451Y0151832D03*
X0080876Y0151832D03*
X0079301Y0151832D03*
D24*
X0084537Y0149549D03*
X0098537Y0149549D03*
D25*
X0077585Y0065186D03*
X0067742Y0065186D03*
X0060191Y0065470D03*
X0051136Y0065470D03*
X0051136Y0050903D03*
X0060191Y0050903D03*
D26*
G36*
X0070844Y0077374D02*
X0069731Y0078487D01*
X0073348Y0082104D01*
X0074461Y0080991D01*
X0070844Y0077374D01*
G37*
G36*
X0069452Y0078766D02*
X0068339Y0079879D01*
X0071956Y0083496D01*
X0073069Y0082383D01*
X0069452Y0078766D01*
G37*
G36*
X0068060Y0080158D02*
X0066947Y0081271D01*
X0070564Y0084888D01*
X0071677Y0083775D01*
X0068060Y0080158D01*
G37*
G36*
X0066668Y0081550D02*
X0065555Y0082663D01*
X0069172Y0086280D01*
X0070285Y0085167D01*
X0066668Y0081550D01*
G37*
G36*
X0065276Y0082942D02*
X0064163Y0084055D01*
X0067780Y0087672D01*
X0068893Y0086559D01*
X0065276Y0082942D01*
G37*
G36*
X0063884Y0084334D02*
X0062771Y0085447D01*
X0066388Y0089064D01*
X0067501Y0087951D01*
X0063884Y0084334D01*
G37*
G36*
X0062492Y0085726D02*
X0061379Y0086839D01*
X0064996Y0090456D01*
X0066109Y0089343D01*
X0062492Y0085726D01*
G37*
G36*
X0061100Y0087118D02*
X0059987Y0088231D01*
X0063604Y0091848D01*
X0064717Y0090735D01*
X0061100Y0087118D01*
G37*
G36*
X0059708Y0088510D02*
X0058595Y0089623D01*
X0062212Y0093240D01*
X0063325Y0092127D01*
X0059708Y0088510D01*
G37*
G36*
X0058316Y0089902D02*
X0057203Y0091015D01*
X0060820Y0094632D01*
X0061933Y0093519D01*
X0058316Y0089902D01*
G37*
G36*
X0056924Y0091294D02*
X0055811Y0092407D01*
X0059428Y0096024D01*
X0060541Y0094911D01*
X0056924Y0091294D01*
G37*
G36*
X0055532Y0092686D02*
X0054419Y0093799D01*
X0058036Y0097416D01*
X0059149Y0096303D01*
X0055532Y0092686D01*
G37*
G36*
X0054140Y0094078D02*
X0053027Y0095191D01*
X0056644Y0098808D01*
X0057757Y0097695D01*
X0054140Y0094078D01*
G37*
G36*
X0052748Y0095470D02*
X0051635Y0096583D01*
X0055252Y0100200D01*
X0056365Y0099087D01*
X0052748Y0095470D01*
G37*
G36*
X0051357Y0096862D02*
X0050244Y0097975D01*
X0053861Y0101592D01*
X0054974Y0100479D01*
X0051357Y0096862D01*
G37*
G36*
X0049965Y0098254D02*
X0048852Y0099367D01*
X0052469Y0102984D01*
X0053582Y0101871D01*
X0049965Y0098254D01*
G37*
G36*
X0053582Y0110502D02*
X0052469Y0109389D01*
X0048852Y0113006D01*
X0049965Y0114119D01*
X0053582Y0110502D01*
G37*
G36*
X0054974Y0111894D02*
X0053861Y0110781D01*
X0050244Y0114398D01*
X0051357Y0115511D01*
X0054974Y0111894D01*
G37*
G36*
X0056365Y0113286D02*
X0055252Y0112173D01*
X0051635Y0115790D01*
X0052748Y0116903D01*
X0056365Y0113286D01*
G37*
G36*
X0057757Y0114678D02*
X0056644Y0113565D01*
X0053027Y0117182D01*
X0054140Y0118295D01*
X0057757Y0114678D01*
G37*
G36*
X0059149Y0116070D02*
X0058036Y0114957D01*
X0054419Y0118574D01*
X0055532Y0119687D01*
X0059149Y0116070D01*
G37*
G36*
X0060541Y0117462D02*
X0059428Y0116349D01*
X0055811Y0119966D01*
X0056924Y0121079D01*
X0060541Y0117462D01*
G37*
G36*
X0061933Y0118854D02*
X0060820Y0117741D01*
X0057203Y0121358D01*
X0058316Y0122471D01*
X0061933Y0118854D01*
G37*
G36*
X0063325Y0120246D02*
X0062212Y0119133D01*
X0058595Y0122750D01*
X0059708Y0123863D01*
X0063325Y0120246D01*
G37*
G36*
X0064717Y0121638D02*
X0063604Y0120525D01*
X0059987Y0124142D01*
X0061100Y0125255D01*
X0064717Y0121638D01*
G37*
G36*
X0066109Y0123030D02*
X0064996Y0121917D01*
X0061379Y0125534D01*
X0062492Y0126647D01*
X0066109Y0123030D01*
G37*
G36*
X0067501Y0124422D02*
X0066388Y0123309D01*
X0062771Y0126926D01*
X0063884Y0128039D01*
X0067501Y0124422D01*
G37*
G36*
X0068893Y0125813D02*
X0067780Y0124700D01*
X0064163Y0128317D01*
X0065276Y0129430D01*
X0068893Y0125813D01*
G37*
G36*
X0070285Y0127205D02*
X0069172Y0126092D01*
X0065555Y0129709D01*
X0066668Y0130822D01*
X0070285Y0127205D01*
G37*
G36*
X0071677Y0128597D02*
X0070564Y0127484D01*
X0066947Y0131101D01*
X0068060Y0132214D01*
X0071677Y0128597D01*
G37*
G36*
X0073069Y0129989D02*
X0071956Y0128876D01*
X0068339Y0132493D01*
X0069452Y0133606D01*
X0073069Y0129989D01*
G37*
G36*
X0074461Y0131381D02*
X0073348Y0130268D01*
X0069731Y0133885D01*
X0070844Y0134998D01*
X0074461Y0131381D01*
G37*
G36*
X0081979Y0130268D02*
X0080866Y0131381D01*
X0084483Y0134998D01*
X0085596Y0133885D01*
X0081979Y0130268D01*
G37*
G36*
X0083371Y0128876D02*
X0082258Y0129989D01*
X0085875Y0133606D01*
X0086988Y0132493D01*
X0083371Y0128876D01*
G37*
G36*
X0084763Y0127484D02*
X0083650Y0128597D01*
X0087267Y0132214D01*
X0088380Y0131101D01*
X0084763Y0127484D01*
G37*
G36*
X0086155Y0126092D02*
X0085042Y0127205D01*
X0088659Y0130822D01*
X0089772Y0129709D01*
X0086155Y0126092D01*
G37*
G36*
X0087547Y0124700D02*
X0086434Y0125813D01*
X0090051Y0129430D01*
X0091164Y0128317D01*
X0087547Y0124700D01*
G37*
G36*
X0088939Y0123309D02*
X0087826Y0124422D01*
X0091443Y0128039D01*
X0092556Y0126926D01*
X0088939Y0123309D01*
G37*
G36*
X0090331Y0121917D02*
X0089218Y0123030D01*
X0092835Y0126647D01*
X0093948Y0125534D01*
X0090331Y0121917D01*
G37*
G36*
X0091723Y0120525D02*
X0090610Y0121638D01*
X0094227Y0125255D01*
X0095340Y0124142D01*
X0091723Y0120525D01*
G37*
G36*
X0093115Y0119133D02*
X0092002Y0120246D01*
X0095619Y0123863D01*
X0096732Y0122750D01*
X0093115Y0119133D01*
G37*
G36*
X0094507Y0117741D02*
X0093394Y0118854D01*
X0097011Y0122471D01*
X0098124Y0121358D01*
X0094507Y0117741D01*
G37*
G36*
X0095899Y0116349D02*
X0094786Y0117462D01*
X0098403Y0121079D01*
X0099516Y0119966D01*
X0095899Y0116349D01*
G37*
G36*
X0097291Y0114957D02*
X0096178Y0116070D01*
X0099795Y0119687D01*
X0100908Y0118574D01*
X0097291Y0114957D01*
G37*
G36*
X0098683Y0113565D02*
X0097570Y0114678D01*
X0101187Y0118295D01*
X0102300Y0117182D01*
X0098683Y0113565D01*
G37*
G36*
X0100075Y0112173D02*
X0098962Y0113286D01*
X0102579Y0116903D01*
X0103692Y0115790D01*
X0100075Y0112173D01*
G37*
G36*
X0101466Y0110781D02*
X0100353Y0111894D01*
X0103970Y0115511D01*
X0105083Y0114398D01*
X0101466Y0110781D01*
G37*
G36*
X0102858Y0109389D02*
X0101745Y0110502D01*
X0105362Y0114119D01*
X0106475Y0113006D01*
X0102858Y0109389D01*
G37*
G36*
X0106475Y0099367D02*
X0105362Y0098254D01*
X0101745Y0101871D01*
X0102858Y0102984D01*
X0106475Y0099367D01*
G37*
G36*
X0105083Y0097975D02*
X0103970Y0096862D01*
X0100353Y0100479D01*
X0101466Y0101592D01*
X0105083Y0097975D01*
G37*
G36*
X0103692Y0096583D02*
X0102579Y0095470D01*
X0098962Y0099087D01*
X0100075Y0100200D01*
X0103692Y0096583D01*
G37*
G36*
X0102300Y0095191D02*
X0101187Y0094078D01*
X0097570Y0097695D01*
X0098683Y0098808D01*
X0102300Y0095191D01*
G37*
G36*
X0100908Y0093799D02*
X0099795Y0092686D01*
X0096178Y0096303D01*
X0097291Y0097416D01*
X0100908Y0093799D01*
G37*
G36*
X0099516Y0092407D02*
X0098403Y0091294D01*
X0094786Y0094911D01*
X0095899Y0096024D01*
X0099516Y0092407D01*
G37*
G36*
X0098124Y0091015D02*
X0097011Y0089902D01*
X0093394Y0093519D01*
X0094507Y0094632D01*
X0098124Y0091015D01*
G37*
G36*
X0096732Y0089623D02*
X0095619Y0088510D01*
X0092002Y0092127D01*
X0093115Y0093240D01*
X0096732Y0089623D01*
G37*
G36*
X0095340Y0088231D02*
X0094227Y0087118D01*
X0090610Y0090735D01*
X0091723Y0091848D01*
X0095340Y0088231D01*
G37*
G36*
X0093948Y0086839D02*
X0092835Y0085726D01*
X0089218Y0089343D01*
X0090331Y0090456D01*
X0093948Y0086839D01*
G37*
G36*
X0092556Y0085447D02*
X0091443Y0084334D01*
X0087826Y0087951D01*
X0088939Y0089064D01*
X0092556Y0085447D01*
G37*
G36*
X0091164Y0084055D02*
X0090051Y0082942D01*
X0086434Y0086559D01*
X0087547Y0087672D01*
X0091164Y0084055D01*
G37*
G36*
X0089772Y0082663D02*
X0088659Y0081550D01*
X0085042Y0085167D01*
X0086155Y0086280D01*
X0089772Y0082663D01*
G37*
G36*
X0088380Y0081271D02*
X0087267Y0080158D01*
X0083650Y0083775D01*
X0084763Y0084888D01*
X0088380Y0081271D01*
G37*
G36*
X0086988Y0079879D02*
X0085875Y0078766D01*
X0082258Y0082383D01*
X0083371Y0083496D01*
X0086988Y0079879D01*
G37*
G36*
X0085596Y0078487D02*
X0084483Y0077374D01*
X0080866Y0080991D01*
X0081979Y0082104D01*
X0085596Y0078487D01*
G37*
D27*
X0082585Y0170328D02*
X0082585Y0172493D01*
X0080616Y0172493D02*
X0080616Y0170328D01*
X0078648Y0170328D02*
X0078648Y0172493D01*
X0076679Y0172493D02*
X0076679Y0170328D01*
X0074711Y0170328D02*
X0074711Y0172493D01*
X0072742Y0172493D02*
X0072742Y0170328D01*
X0070971Y0174265D02*
X0068805Y0174265D01*
X0068805Y0176234D02*
X0070971Y0176234D01*
X0070971Y0178202D02*
X0068805Y0178202D01*
X0068805Y0180171D02*
X0070971Y0180171D01*
X0070971Y0182139D02*
X0068805Y0182139D01*
X0068805Y0184108D02*
X0070971Y0184108D01*
X0072742Y0185879D02*
X0072742Y0188045D01*
X0074711Y0188045D02*
X0074711Y0185879D01*
X0076679Y0185879D02*
X0076679Y0188045D01*
X0078648Y0188045D02*
X0078648Y0185879D01*
X0080616Y0185879D02*
X0080616Y0188045D01*
X0082585Y0188045D02*
X0082585Y0185879D01*
X0084356Y0184108D02*
X0086522Y0184108D01*
X0086522Y0182139D02*
X0084356Y0182139D01*
X0084356Y0180171D02*
X0086522Y0180171D01*
X0086522Y0178202D02*
X0084356Y0178202D01*
X0084356Y0176234D02*
X0086522Y0176234D01*
X0086522Y0174265D02*
X0084356Y0174265D01*
D28*
X0077663Y0179186D03*
D29*
X0096663Y0189536D03*
D30*
X0096663Y0198786D03*
D31*
X0057163Y0200182D03*
X0057163Y0187190D03*
D32*
X0072663Y0195736D03*
X0078163Y0195736D03*
X0088463Y0195736D03*
X0088463Y0201636D03*
X0078163Y0201636D03*
X0072663Y0201636D03*
D33*
X0061113Y0180686D03*
X0055213Y0180686D03*
X0055213Y0175186D03*
X0061113Y0175186D03*
X0061113Y0169686D03*
X0055213Y0169686D03*
D34*
X0092663Y0183186D03*
X0097663Y0183186D03*
D35*
X0112663Y0201186D03*
X0042663Y0201186D03*
D36*
X0093463Y0176186D03*
X0093463Y0166186D03*
X0048663Y0106086D03*
X0048563Y0096386D03*
X0050363Y0090986D03*
D37*
X0054163Y0042198D03*
X0054163Y0031175D03*
X0054163Y0023698D03*
X0054163Y0012675D03*
M02*
