G75*
%MOIN*%
%OFA0B0*%
%FSLAX25Y25*%
%IPPOS*%
%LPD*%
%AMOC8*
5,1,8,0,0,1.08239X$1,22.5*
%
%ADD10R,0.02375X0.06115*%
%ADD11C,0.05131*%
%ADD12R,0.06706X0.08280*%
%ADD13C,0.03162*%
%ADD14R,0.05721X0.03359*%
%ADD15R,0.02600X0.03200*%
%ADD16C,0.06600*%
%ADD17R,0.04737X0.04934*%
%ADD18R,0.04934X0.09461*%
%ADD19R,0.03200X0.02600*%
%ADD20C,0.00100*%
%ADD21R,0.03543X0.06299*%
%ADD22R,0.06299X0.03543*%
%ADD23C,0.02769*%
%ADD24R,0.04724X0.04724*%
%ADD25C,0.03556*%
%ADD26C,0.04343*%
%ADD27R,0.04737X0.03950*%
%ADD28R,0.07099X0.12611*%
%ADD29R,0.04737X0.22454*%
%ADD30R,0.03950X0.03950*%
%ADD31R,0.03600X0.04900*%
%ADD32R,0.04900X0.03600*%
%ADD33R,0.01181X0.03150*%
%ADD34R,0.07402X0.06811*%
%ADD35R,0.04737X0.05131*%
%ADD36C,0.04762*%
%ADD37R,0.07099X0.04343*%
%ADD38R,0.01981X0.03162*%
%ADD39R,0.03950X0.11430*%
%ADD40C,0.06600*%
%ADD41R,0.03556X0.02375*%
D10*
X0089045Y0189655D03*
X0091604Y0189655D03*
X0094163Y0189655D03*
X0096723Y0189655D03*
X0099282Y0189655D03*
D11*
X0105089Y0198021D02*
X0105089Y0202352D01*
X0083238Y0202352D02*
X0083238Y0198021D01*
D12*
X0090226Y0200147D03*
X0098100Y0200186D03*
D13*
X0101841Y0191919D03*
X0086486Y0191919D03*
D14*
X0087782Y0142238D03*
X0087782Y0136135D03*
X0102545Y0136135D03*
X0102545Y0142238D03*
X0067545Y0142238D03*
X0067545Y0136135D03*
X0052782Y0136135D03*
X0052782Y0142238D03*
D15*
X0066263Y0130686D03*
X0070063Y0130686D03*
X0073263Y0130686D03*
X0077063Y0130686D03*
X0077063Y0147686D03*
X0073263Y0147686D03*
X0084363Y0147386D03*
X0088163Y0147386D03*
X0102163Y0183186D03*
X0105963Y0183186D03*
X0052563Y0019686D03*
X0048763Y0019686D03*
X0048763Y0016186D03*
X0052563Y0016186D03*
X0052563Y0012686D03*
X0052563Y0009186D03*
X0048763Y0009186D03*
X0048763Y0012686D03*
D16*
X0042663Y0021186D02*
X0036863Y0021186D01*
X0036863Y0031186D02*
X0042663Y0031186D01*
X0042663Y0041186D02*
X0036863Y0041186D01*
X0036863Y0051186D02*
X0042663Y0051186D01*
X0042663Y0061186D02*
X0036863Y0061186D01*
X0036863Y0071186D02*
X0042663Y0071186D01*
X0042663Y0081186D02*
X0036863Y0081186D01*
X0036863Y0091186D02*
X0042663Y0091186D01*
X0042663Y0101186D02*
X0036863Y0101186D01*
X0036863Y0111186D02*
X0042663Y0111186D01*
X0042663Y0121186D02*
X0036863Y0121186D01*
X0036863Y0131186D02*
X0042663Y0131186D01*
X0042663Y0141186D02*
X0036863Y0141186D01*
X0036863Y0151186D02*
X0042663Y0151186D01*
X0042663Y0161186D02*
X0036863Y0161186D01*
X0036863Y0171186D02*
X0042663Y0171186D01*
X0042663Y0181186D02*
X0036863Y0181186D01*
X0036863Y0191186D02*
X0042663Y0191186D01*
X0112663Y0191186D02*
X0118463Y0191186D01*
X0118463Y0181186D02*
X0112663Y0181186D01*
X0112663Y0171186D02*
X0118463Y0171186D01*
X0118463Y0161186D02*
X0112663Y0161186D01*
X0112663Y0151186D02*
X0118463Y0151186D01*
X0118463Y0141186D02*
X0112663Y0141186D01*
X0112663Y0131186D02*
X0118463Y0131186D01*
X0118463Y0121186D02*
X0112663Y0121186D01*
X0112663Y0111186D02*
X0118463Y0111186D01*
X0118463Y0101186D02*
X0112663Y0101186D01*
X0112663Y0091186D02*
X0118463Y0091186D01*
X0118463Y0081186D02*
X0112663Y0081186D01*
X0112663Y0071186D02*
X0118463Y0071186D01*
X0118463Y0061186D02*
X0112663Y0061186D01*
X0112663Y0051186D02*
X0118463Y0051186D01*
X0118463Y0041186D02*
X0112663Y0041186D01*
X0112663Y0031186D02*
X0118463Y0031186D01*
X0118463Y0021186D02*
X0112663Y0021186D01*
D17*
X0064663Y0018200D03*
D18*
X0058856Y0012186D03*
X0070471Y0012186D03*
D19*
X0077663Y0014286D03*
X0081663Y0014286D03*
X0089663Y0014286D03*
X0089663Y0018086D03*
X0081663Y0018086D03*
X0077663Y0018086D03*
X0097663Y0018086D03*
X0097663Y0014286D03*
X0092663Y0148686D03*
X0092663Y0152486D03*
X0099163Y0158786D03*
X0099163Y0162586D03*
X0088663Y0162786D03*
X0088663Y0166586D03*
X0076663Y0166586D03*
X0076663Y0162786D03*
X0105663Y0176186D03*
X0105663Y0179986D03*
D20*
X0106463Y0016186D02*
X0106963Y0013786D01*
X0106463Y0013486D01*
X0105963Y0013786D01*
X0106463Y0016186D01*
X0106453Y0016136D02*
X0106474Y0016136D01*
X0106494Y0016037D02*
X0106432Y0016037D01*
X0106412Y0015939D02*
X0106515Y0015939D01*
X0106536Y0015840D02*
X0106391Y0015840D01*
X0106371Y0015742D02*
X0106556Y0015742D01*
X0106577Y0015643D02*
X0106350Y0015643D01*
X0106330Y0015545D02*
X0106597Y0015545D01*
X0106618Y0015446D02*
X0106309Y0015446D01*
X0106289Y0015348D02*
X0106638Y0015348D01*
X0106659Y0015249D02*
X0106268Y0015249D01*
X0106248Y0015151D02*
X0106679Y0015151D01*
X0106700Y0015052D02*
X0106227Y0015052D01*
X0106207Y0014954D02*
X0106720Y0014954D01*
X0106741Y0014855D02*
X0106186Y0014855D01*
X0106166Y0014757D02*
X0106761Y0014757D01*
X0106782Y0014658D02*
X0106145Y0014658D01*
X0106125Y0014560D02*
X0106802Y0014560D01*
X0106823Y0014461D02*
X0106104Y0014461D01*
X0106084Y0014363D02*
X0106843Y0014363D01*
X0106864Y0014264D02*
X0106063Y0014264D01*
X0106043Y0014166D02*
X0106884Y0014166D01*
X0106905Y0014067D02*
X0106022Y0014067D01*
X0106001Y0013969D02*
X0106925Y0013969D01*
X0106946Y0013870D02*
X0105981Y0013870D01*
X0105988Y0013772D02*
X0106939Y0013772D01*
X0106775Y0013673D02*
X0106152Y0013673D01*
X0106316Y0013575D02*
X0106611Y0013575D01*
X0106944Y0013181D02*
X0108493Y0013181D01*
X0108559Y0013279D02*
X0107104Y0013279D01*
X0107265Y0013378D02*
X0108624Y0013378D01*
X0108690Y0013476D02*
X0107426Y0013476D01*
X0107587Y0013575D02*
X0108756Y0013575D01*
X0108821Y0013673D02*
X0107747Y0013673D01*
X0107908Y0013772D02*
X0108887Y0013772D01*
X0108953Y0013870D02*
X0108069Y0013870D01*
X0108229Y0013969D02*
X0109018Y0013969D01*
X0109084Y0014067D02*
X0108390Y0014067D01*
X0108551Y0014166D02*
X0109150Y0014166D01*
X0109215Y0014264D02*
X0108712Y0014264D01*
X0108872Y0014363D02*
X0109281Y0014363D01*
X0109347Y0014461D02*
X0109033Y0014461D01*
X0109194Y0014560D02*
X0109412Y0014560D01*
X0109355Y0014658D02*
X0109478Y0014658D01*
X0109515Y0014757D02*
X0109544Y0014757D01*
X0109563Y0014786D02*
X0106463Y0012886D01*
X0103463Y0014786D01*
X0105363Y0011786D01*
X0103363Y0008586D01*
X0106463Y0010586D01*
X0109563Y0008686D01*
X0107563Y0011786D01*
X0109563Y0014786D01*
X0108427Y0013082D02*
X0106783Y0013082D01*
X0106622Y0012984D02*
X0108362Y0012984D01*
X0108296Y0012885D02*
X0104668Y0012885D01*
X0104730Y0012787D02*
X0108230Y0012787D01*
X0108165Y0012688D02*
X0104792Y0012688D01*
X0104855Y0012590D02*
X0108099Y0012590D01*
X0108033Y0012491D02*
X0104917Y0012491D01*
X0104980Y0012393D02*
X0107968Y0012393D01*
X0107902Y0012294D02*
X0105042Y0012294D01*
X0105104Y0012196D02*
X0107836Y0012196D01*
X0107771Y0012097D02*
X0105167Y0012097D01*
X0105229Y0011998D02*
X0107705Y0011998D01*
X0107639Y0011900D02*
X0105291Y0011900D01*
X0105354Y0011801D02*
X0107574Y0011801D01*
X0107617Y0011703D02*
X0105311Y0011703D01*
X0105250Y0011604D02*
X0107681Y0011604D01*
X0107744Y0011506D02*
X0105188Y0011506D01*
X0105127Y0011407D02*
X0107808Y0011407D01*
X0107871Y0011309D02*
X0105065Y0011309D01*
X0105004Y0011210D02*
X0107935Y0011210D01*
X0107999Y0011112D02*
X0104942Y0011112D01*
X0104880Y0011013D02*
X0108062Y0011013D01*
X0108126Y0010915D02*
X0104819Y0010915D01*
X0104757Y0010816D02*
X0108189Y0010816D01*
X0108253Y0010718D02*
X0104696Y0010718D01*
X0104634Y0010619D02*
X0108316Y0010619D01*
X0108380Y0010521D02*
X0106570Y0010521D01*
X0106731Y0010422D02*
X0108443Y0010422D01*
X0108507Y0010324D02*
X0106892Y0010324D01*
X0107053Y0010225D02*
X0108571Y0010225D01*
X0108634Y0010127D02*
X0107213Y0010127D01*
X0107374Y0010028D02*
X0108698Y0010028D01*
X0108761Y0009930D02*
X0107535Y0009930D01*
X0107695Y0009831D02*
X0108825Y0009831D01*
X0108888Y0009733D02*
X0107856Y0009733D01*
X0108017Y0009634D02*
X0108952Y0009634D01*
X0109015Y0009536D02*
X0108178Y0009536D01*
X0108338Y0009437D02*
X0109079Y0009437D01*
X0109143Y0009339D02*
X0108499Y0009339D01*
X0108660Y0009240D02*
X0109206Y0009240D01*
X0109270Y0009142D02*
X0108821Y0009142D01*
X0108981Y0009043D02*
X0109333Y0009043D01*
X0109397Y0008945D02*
X0109142Y0008945D01*
X0109303Y0008846D02*
X0109460Y0008846D01*
X0109463Y0008748D02*
X0109524Y0008748D01*
X0109121Y0011407D02*
X0108491Y0011407D01*
X0108550Y0011309D02*
X0108667Y0011309D01*
X0108563Y0011286D02*
X0110863Y0011786D01*
X0108563Y0012286D01*
X0108263Y0011786D01*
X0108563Y0011286D01*
X0108432Y0011506D02*
X0109574Y0011506D01*
X0110027Y0011604D02*
X0108373Y0011604D01*
X0108313Y0011703D02*
X0110480Y0011703D01*
X0110341Y0011900D02*
X0108332Y0011900D01*
X0108391Y0011998D02*
X0109887Y0011998D01*
X0109434Y0012097D02*
X0108450Y0012097D01*
X0108509Y0012196D02*
X0108981Y0012196D01*
X0108273Y0011801D02*
X0110794Y0011801D01*
X0106963Y0009686D02*
X0106463Y0009986D01*
X0105963Y0009686D01*
X0106463Y0007286D01*
X0106963Y0009686D01*
X0106953Y0009634D02*
X0105974Y0009634D01*
X0105995Y0009536D02*
X0106932Y0009536D01*
X0106912Y0009437D02*
X0106015Y0009437D01*
X0106036Y0009339D02*
X0106891Y0009339D01*
X0106871Y0009240D02*
X0106056Y0009240D01*
X0106077Y0009142D02*
X0106850Y0009142D01*
X0106829Y0009043D02*
X0106097Y0009043D01*
X0106118Y0008945D02*
X0106809Y0008945D01*
X0106788Y0008846D02*
X0106139Y0008846D01*
X0106159Y0008748D02*
X0106768Y0008748D01*
X0106747Y0008649D02*
X0106180Y0008649D01*
X0106200Y0008551D02*
X0106727Y0008551D01*
X0106706Y0008452D02*
X0106221Y0008452D01*
X0106241Y0008354D02*
X0106686Y0008354D01*
X0106665Y0008255D02*
X0106262Y0008255D01*
X0106282Y0008157D02*
X0106645Y0008157D01*
X0106624Y0008058D02*
X0106303Y0008058D01*
X0106323Y0007960D02*
X0106604Y0007960D01*
X0106583Y0007861D02*
X0106344Y0007861D01*
X0106364Y0007763D02*
X0106563Y0007763D01*
X0106542Y0007664D02*
X0106385Y0007664D01*
X0106405Y0007565D02*
X0106522Y0007565D01*
X0106501Y0007467D02*
X0106426Y0007467D01*
X0106446Y0007368D02*
X0106481Y0007368D01*
X0106886Y0009733D02*
X0106041Y0009733D01*
X0106205Y0009831D02*
X0106722Y0009831D01*
X0106558Y0009930D02*
X0106369Y0009930D01*
X0106057Y0010324D02*
X0104449Y0010324D01*
X0104388Y0010225D02*
X0105904Y0010225D01*
X0105751Y0010127D02*
X0104326Y0010127D01*
X0104265Y0010028D02*
X0105598Y0010028D01*
X0105446Y0009930D02*
X0104203Y0009930D01*
X0104142Y0009831D02*
X0105293Y0009831D01*
X0105140Y0009733D02*
X0104080Y0009733D01*
X0104018Y0009634D02*
X0104988Y0009634D01*
X0104835Y0009536D02*
X0103957Y0009536D01*
X0103895Y0009437D02*
X0104682Y0009437D01*
X0104530Y0009339D02*
X0103834Y0009339D01*
X0103772Y0009240D02*
X0104377Y0009240D01*
X0104224Y0009142D02*
X0103711Y0009142D01*
X0103649Y0009043D02*
X0104072Y0009043D01*
X0103919Y0008945D02*
X0103587Y0008945D01*
X0103526Y0008846D02*
X0103766Y0008846D01*
X0103613Y0008748D02*
X0103464Y0008748D01*
X0103461Y0008649D02*
X0103403Y0008649D01*
X0104511Y0010422D02*
X0106209Y0010422D01*
X0106362Y0010521D02*
X0104573Y0010521D01*
X0104363Y0011286D02*
X0102063Y0011786D01*
X0104363Y0012286D01*
X0104763Y0011786D01*
X0104363Y0011286D01*
X0104382Y0011309D02*
X0104260Y0011309D01*
X0104460Y0011407D02*
X0103806Y0011407D01*
X0103353Y0011506D02*
X0104539Y0011506D01*
X0104618Y0011604D02*
X0102900Y0011604D01*
X0103039Y0011998D02*
X0104594Y0011998D01*
X0104673Y0011900D02*
X0102586Y0011900D01*
X0102447Y0011703D02*
X0104697Y0011703D01*
X0104751Y0011801D02*
X0102133Y0011801D01*
X0103493Y0012097D02*
X0104515Y0012097D01*
X0104436Y0012196D02*
X0103946Y0012196D01*
X0104605Y0012984D02*
X0106310Y0012984D01*
X0106154Y0013082D02*
X0104543Y0013082D01*
X0104480Y0013181D02*
X0105999Y0013181D01*
X0105843Y0013279D02*
X0104418Y0013279D01*
X0104356Y0013378D02*
X0105688Y0013378D01*
X0105532Y0013476D02*
X0104293Y0013476D01*
X0104231Y0013575D02*
X0105377Y0013575D01*
X0105221Y0013673D02*
X0104168Y0013673D01*
X0104106Y0013772D02*
X0105066Y0013772D01*
X0104910Y0013870D02*
X0104044Y0013870D01*
X0103981Y0013969D02*
X0104754Y0013969D01*
X0104599Y0014067D02*
X0103919Y0014067D01*
X0103856Y0014166D02*
X0104443Y0014166D01*
X0104288Y0014264D02*
X0103794Y0014264D01*
X0103732Y0014363D02*
X0104132Y0014363D01*
X0103977Y0014461D02*
X0103669Y0014461D01*
X0103607Y0014560D02*
X0103821Y0014560D01*
X0103666Y0014658D02*
X0103545Y0014658D01*
X0103510Y0014757D02*
X0103482Y0014757D01*
D21*
X0099317Y0027139D03*
X0094986Y0027139D03*
X0090656Y0027139D03*
X0086325Y0027139D03*
X0081994Y0027139D03*
X0077663Y0027139D03*
X0073333Y0027139D03*
X0069002Y0027139D03*
X0064671Y0027139D03*
X0060341Y0027139D03*
X0056010Y0027139D03*
X0056010Y0121234D03*
X0060341Y0121234D03*
X0064671Y0121234D03*
X0069002Y0121234D03*
X0073333Y0121234D03*
X0077663Y0121234D03*
X0081994Y0121234D03*
X0086325Y0121234D03*
X0090656Y0121234D03*
X0094986Y0121234D03*
X0099317Y0121234D03*
D22*
X0105026Y0117493D03*
X0105026Y0113163D03*
X0105026Y0108832D03*
X0105026Y0104501D03*
X0105026Y0100171D03*
X0105026Y0095840D03*
X0105026Y0091509D03*
X0105026Y0087178D03*
X0105026Y0082848D03*
X0105026Y0078517D03*
X0105026Y0074186D03*
X0105026Y0069856D03*
X0105026Y0065525D03*
X0105026Y0061194D03*
X0105026Y0056863D03*
X0105026Y0052533D03*
X0105026Y0048202D03*
X0105026Y0043871D03*
X0105026Y0039541D03*
X0105026Y0035210D03*
X0105026Y0030879D03*
X0050301Y0030879D03*
X0050301Y0035210D03*
X0050301Y0039541D03*
X0050301Y0043871D03*
X0050301Y0048202D03*
X0050301Y0052533D03*
X0050301Y0056863D03*
X0050301Y0061194D03*
X0050301Y0065525D03*
X0050301Y0069856D03*
X0050301Y0074186D03*
X0050301Y0078517D03*
X0050301Y0082848D03*
X0050301Y0087178D03*
X0050301Y0091509D03*
X0050301Y0095840D03*
X0050301Y0100171D03*
X0050301Y0104501D03*
X0050301Y0108832D03*
X0050301Y0113163D03*
X0050301Y0117493D03*
D23*
X0105223Y0026942D03*
D24*
X0098333Y0033832D03*
X0090065Y0033832D03*
X0081797Y0033832D03*
X0073530Y0033832D03*
X0065262Y0033832D03*
X0056994Y0033832D03*
X0056994Y0040919D03*
X0065262Y0040919D03*
X0073530Y0040919D03*
X0081797Y0040919D03*
X0090065Y0040919D03*
X0098333Y0040919D03*
X0098333Y0048005D03*
X0098333Y0062178D03*
X0056994Y0062178D03*
X0056994Y0048005D03*
X0056994Y0086194D03*
X0056994Y0100367D03*
X0056994Y0107454D03*
X0065262Y0107454D03*
X0073530Y0107454D03*
X0081797Y0107454D03*
X0090065Y0107454D03*
X0098333Y0107454D03*
X0098333Y0100367D03*
X0098333Y0086194D03*
X0098333Y0114541D03*
X0090065Y0114541D03*
X0081797Y0114541D03*
X0073530Y0114541D03*
X0065262Y0114541D03*
X0056994Y0114541D03*
D25*
X0066356Y0049225D03*
D26*
X0101789Y0016548D03*
D27*
X0080616Y0137021D03*
X0074711Y0137021D03*
X0074711Y0141352D03*
X0080616Y0141352D03*
D28*
X0076549Y0194749D03*
X0049778Y0194749D03*
D29*
X0059226Y0185812D03*
X0067100Y0185812D03*
D30*
X0072663Y0169639D03*
X0072663Y0163734D03*
X0097711Y0151186D03*
X0103616Y0151186D03*
D31*
X0054604Y0178711D03*
X0048704Y0178711D03*
D32*
X0060145Y0168716D03*
X0060145Y0162816D03*
D33*
X0093211Y0166175D03*
X0093211Y0166175D03*
X0095179Y0166175D03*
X0097148Y0166175D03*
X0099116Y0166175D03*
X0099116Y0177198D03*
X0097148Y0177198D03*
X0095179Y0177198D03*
X0093211Y0177198D03*
D34*
X0096163Y0171686D03*
D35*
X0103163Y0170533D03*
X0103163Y0163840D03*
X0081163Y0163840D03*
X0081163Y0170533D03*
D36*
X0092663Y0183186D03*
X0097663Y0183186D03*
D37*
X0052663Y0169186D03*
D38*
X0052663Y0165249D03*
X0050104Y0165249D03*
X0055223Y0165249D03*
X0055223Y0173123D03*
X0052663Y0173123D03*
X0050104Y0173123D03*
D39*
X0053824Y0154212D03*
X0062486Y0154212D03*
D40*
X0042663Y0201186D03*
X0112663Y0201186D03*
D41*
X0088110Y0156045D03*
X0081417Y0156045D03*
X0081417Y0153486D03*
X0081417Y0150927D03*
X0088110Y0150927D03*
M02*
