G75*
%MOIN*%
%OFA0B0*%
%FSLAX25Y25*%
%IPPOS*%
%LPD*%
%AMOC8*
5,1,8,0,0,1.08239X$1,22.5*
%
%ADD10R,0.02400X0.01800*%
%ADD11R,0.03937X0.04331*%
%ADD12R,0.03937X0.11811*%
%ADD13R,0.01181X0.02953*%
%ADD14R,0.01800X0.02400*%
%ADD15R,0.02559X0.00787*%
%ADD16R,0.00787X0.02559*%
%ADD17R,0.02953X0.00787*%
%ADD18R,0.04331X0.07480*%
%ADD19R,0.01181X0.04724*%
%ADD20C,0.00906*%
%ADD21R,0.04331X0.04331*%
%ADD22R,0.05000X0.03000*%
%ADD23R,0.09700X0.09200*%
%ADD24R,0.09055X0.06496*%
%ADD25R,0.04100X0.02800*%
%ADD26R,0.02800X0.04100*%
%ADD27R,0.10630X0.06299*%
D10*
X0344510Y0125286D03*
X0348010Y0125286D03*
X0348010Y0129086D03*
X0344510Y0129086D03*
X0348810Y0135286D03*
X0348810Y0139086D03*
X0347510Y0142286D03*
X0347510Y0146086D03*
X0347510Y0149286D03*
X0347510Y0153086D03*
X0362010Y0153086D03*
X0362010Y0149286D03*
X0362010Y0146086D03*
X0362010Y0142286D03*
X0374910Y0142286D03*
X0378410Y0142286D03*
X0381910Y0142286D03*
X0384510Y0138386D03*
X0384510Y0134586D03*
X0397810Y0127786D03*
X0397810Y0123986D03*
X0381910Y0146086D03*
X0378410Y0146086D03*
X0374910Y0146086D03*
X0385910Y0153686D03*
X0389410Y0153686D03*
X0389410Y0157486D03*
X0385910Y0157486D03*
X0385010Y0162786D03*
X0381510Y0162786D03*
X0378010Y0162786D03*
X0374510Y0162786D03*
X0371010Y0162786D03*
X0367510Y0162786D03*
X0364010Y0162786D03*
X0360510Y0162786D03*
X0360510Y0166586D03*
X0364010Y0166586D03*
X0367510Y0166586D03*
X0371010Y0166586D03*
X0374510Y0166586D03*
X0378010Y0166586D03*
X0381510Y0166586D03*
X0385010Y0166586D03*
X0352010Y0173286D03*
X0352010Y0177086D03*
X0349510Y0167086D03*
X0345810Y0167086D03*
X0345810Y0163286D03*
X0349510Y0163286D03*
X0382010Y0195286D03*
X0382010Y0199086D03*
X0397010Y0087086D03*
X0400510Y0087086D03*
X0400510Y0083286D03*
X0397010Y0083286D03*
X0363110Y0074886D03*
X0363110Y0071086D03*
X0350810Y0069286D03*
X0350810Y0073086D03*
D11*
X0355510Y0055721D03*
X0365510Y0055721D03*
X0375510Y0055721D03*
X0375510Y0010052D03*
X0365510Y0010052D03*
X0355510Y0010052D03*
D12*
X0344644Y0032886D03*
X0386376Y0032886D03*
D13*
X0385951Y0142646D03*
X0388510Y0142646D03*
X0391069Y0142646D03*
X0394951Y0142646D03*
X0397510Y0142646D03*
X0400069Y0142646D03*
X0400069Y0150126D03*
X0394951Y0150126D03*
X0391069Y0150126D03*
X0385951Y0150126D03*
D14*
X0394710Y0154386D03*
X0398510Y0154386D03*
X0398510Y0157986D03*
X0394710Y0157986D03*
X0356910Y0170086D03*
X0353110Y0170086D03*
X0395910Y0137586D03*
X0399710Y0137586D03*
X0400410Y0073186D03*
X0396610Y0073186D03*
X0392410Y0073186D03*
X0388610Y0073186D03*
X0383410Y0073186D03*
X0379610Y0073186D03*
X0375410Y0073186D03*
X0371610Y0073186D03*
X0359410Y0067686D03*
X0355610Y0067686D03*
X0355510Y0062086D03*
X0359310Y0062086D03*
X0350510Y0062086D03*
X0346710Y0062086D03*
D15*
X0351439Y0144824D03*
X0351439Y0146399D03*
X0351439Y0147974D03*
X0357581Y0147974D03*
X0357581Y0149549D03*
X0357581Y0146399D03*
X0357581Y0144824D03*
X0365439Y0144824D03*
X0365439Y0146399D03*
X0365439Y0147974D03*
X0371581Y0147974D03*
X0371581Y0149549D03*
X0371581Y0146399D03*
X0371581Y0144824D03*
D16*
X0370872Y0142541D03*
X0369297Y0142541D03*
X0367722Y0142541D03*
X0366148Y0142541D03*
X0356872Y0142541D03*
X0355297Y0142541D03*
X0353722Y0142541D03*
X0352148Y0142541D03*
X0352148Y0151832D03*
X0353722Y0151832D03*
X0355297Y0151832D03*
X0356872Y0151832D03*
X0366148Y0151832D03*
X0367722Y0151832D03*
X0369297Y0151832D03*
X0370872Y0151832D03*
D17*
X0365636Y0149549D03*
X0351636Y0149549D03*
D18*
X0372589Y0065186D03*
X0382431Y0065186D03*
X0389982Y0065470D03*
X0399037Y0065470D03*
X0399037Y0050903D03*
X0389982Y0050903D03*
D19*
G36*
X0375991Y0080991D02*
X0376826Y0081826D01*
X0380165Y0078487D01*
X0379330Y0077652D01*
X0375991Y0080991D01*
G37*
G36*
X0377383Y0082383D02*
X0378218Y0083218D01*
X0381557Y0079879D01*
X0380722Y0079044D01*
X0377383Y0082383D01*
G37*
G36*
X0378775Y0083775D02*
X0379610Y0084610D01*
X0382949Y0081271D01*
X0382114Y0080436D01*
X0378775Y0083775D01*
G37*
G36*
X0380166Y0085167D02*
X0381001Y0086002D01*
X0384340Y0082663D01*
X0383505Y0081828D01*
X0380166Y0085167D01*
G37*
G36*
X0381558Y0086559D02*
X0382393Y0087394D01*
X0385732Y0084055D01*
X0384897Y0083220D01*
X0381558Y0086559D01*
G37*
G36*
X0382950Y0087951D02*
X0383785Y0088786D01*
X0387124Y0085447D01*
X0386289Y0084612D01*
X0382950Y0087951D01*
G37*
G36*
X0384342Y0089343D02*
X0385177Y0090178D01*
X0388516Y0086839D01*
X0387681Y0086004D01*
X0384342Y0089343D01*
G37*
G36*
X0385734Y0090735D02*
X0386569Y0091570D01*
X0389908Y0088231D01*
X0389073Y0087396D01*
X0385734Y0090735D01*
G37*
G36*
X0387126Y0092127D02*
X0387961Y0092962D01*
X0391300Y0089623D01*
X0390465Y0088788D01*
X0387126Y0092127D01*
G37*
G36*
X0388518Y0093519D02*
X0389353Y0094354D01*
X0392692Y0091015D01*
X0391857Y0090180D01*
X0388518Y0093519D01*
G37*
G36*
X0389910Y0094911D02*
X0390745Y0095746D01*
X0394084Y0092407D01*
X0393249Y0091572D01*
X0389910Y0094911D01*
G37*
G36*
X0391302Y0096303D02*
X0392137Y0097138D01*
X0395476Y0093799D01*
X0394641Y0092964D01*
X0391302Y0096303D01*
G37*
G36*
X0392694Y0097695D02*
X0393529Y0098530D01*
X0396868Y0095191D01*
X0396033Y0094356D01*
X0392694Y0097695D01*
G37*
G36*
X0394086Y0099087D02*
X0394921Y0099922D01*
X0398260Y0096583D01*
X0397425Y0095748D01*
X0394086Y0099087D01*
G37*
G36*
X0395478Y0100479D02*
X0396313Y0101314D01*
X0399652Y0097975D01*
X0398817Y0097140D01*
X0395478Y0100479D01*
G37*
G36*
X0396870Y0101871D02*
X0397705Y0102706D01*
X0401044Y0099367D01*
X0400209Y0098532D01*
X0396870Y0101871D01*
G37*
G36*
X0397705Y0109667D02*
X0396870Y0110502D01*
X0400209Y0113841D01*
X0401044Y0113006D01*
X0397705Y0109667D01*
G37*
G36*
X0398817Y0115233D02*
X0399652Y0114398D01*
X0396313Y0111059D01*
X0395478Y0111894D01*
X0398817Y0115233D01*
G37*
G36*
X0397425Y0116625D02*
X0398260Y0115790D01*
X0394921Y0112451D01*
X0394086Y0113286D01*
X0397425Y0116625D01*
G37*
G36*
X0396033Y0118017D02*
X0396868Y0117182D01*
X0393529Y0113843D01*
X0392694Y0114678D01*
X0396033Y0118017D01*
G37*
G36*
X0394641Y0119409D02*
X0395476Y0118574D01*
X0392137Y0115235D01*
X0391302Y0116070D01*
X0394641Y0119409D01*
G37*
G36*
X0393249Y0120801D02*
X0394084Y0119966D01*
X0390745Y0116627D01*
X0389910Y0117462D01*
X0393249Y0120801D01*
G37*
G36*
X0391857Y0122193D02*
X0392692Y0121358D01*
X0389353Y0118019D01*
X0388518Y0118854D01*
X0391857Y0122193D01*
G37*
G36*
X0390465Y0123585D02*
X0391300Y0122750D01*
X0387961Y0119411D01*
X0387126Y0120246D01*
X0390465Y0123585D01*
G37*
G36*
X0389073Y0124977D02*
X0389908Y0124142D01*
X0386569Y0120803D01*
X0385734Y0121638D01*
X0389073Y0124977D01*
G37*
G36*
X0387681Y0126369D02*
X0388516Y0125534D01*
X0385177Y0122195D01*
X0384342Y0123030D01*
X0387681Y0126369D01*
G37*
G36*
X0386289Y0127761D02*
X0387124Y0126926D01*
X0383785Y0123587D01*
X0382950Y0124422D01*
X0386289Y0127761D01*
G37*
G36*
X0384897Y0129152D02*
X0385732Y0128317D01*
X0382393Y0124978D01*
X0381558Y0125813D01*
X0384897Y0129152D01*
G37*
G36*
X0383505Y0130544D02*
X0384340Y0129709D01*
X0381001Y0126370D01*
X0380166Y0127205D01*
X0383505Y0130544D01*
G37*
G36*
X0382114Y0131936D02*
X0382949Y0131101D01*
X0379610Y0127762D01*
X0378775Y0128597D01*
X0382114Y0131936D01*
G37*
G36*
X0380722Y0133328D02*
X0381557Y0132493D01*
X0378218Y0129154D01*
X0377383Y0129989D01*
X0380722Y0133328D01*
G37*
G36*
X0379330Y0134720D02*
X0380165Y0133885D01*
X0376826Y0130546D01*
X0375991Y0131381D01*
X0379330Y0134720D01*
G37*
G36*
X0369029Y0131381D02*
X0368194Y0130546D01*
X0364855Y0133885D01*
X0365690Y0134720D01*
X0369029Y0131381D01*
G37*
G36*
X0367637Y0129989D02*
X0366802Y0129154D01*
X0363463Y0132493D01*
X0364298Y0133328D01*
X0367637Y0129989D01*
G37*
G36*
X0366245Y0128597D02*
X0365410Y0127762D01*
X0362071Y0131101D01*
X0362906Y0131936D01*
X0366245Y0128597D01*
G37*
G36*
X0364853Y0127205D02*
X0364018Y0126370D01*
X0360679Y0129709D01*
X0361514Y0130544D01*
X0364853Y0127205D01*
G37*
G36*
X0363461Y0125813D02*
X0362626Y0124978D01*
X0359287Y0128317D01*
X0360122Y0129152D01*
X0363461Y0125813D01*
G37*
G36*
X0362069Y0124422D02*
X0361234Y0123587D01*
X0357895Y0126926D01*
X0358730Y0127761D01*
X0362069Y0124422D01*
G37*
G36*
X0360677Y0123030D02*
X0359842Y0122195D01*
X0356503Y0125534D01*
X0357338Y0126369D01*
X0360677Y0123030D01*
G37*
G36*
X0359286Y0121638D02*
X0358451Y0120803D01*
X0355112Y0124142D01*
X0355947Y0124977D01*
X0359286Y0121638D01*
G37*
G36*
X0357894Y0120246D02*
X0357059Y0119411D01*
X0353720Y0122750D01*
X0354555Y0123585D01*
X0357894Y0120246D01*
G37*
G36*
X0356502Y0118854D02*
X0355667Y0118019D01*
X0352328Y0121358D01*
X0353163Y0122193D01*
X0356502Y0118854D01*
G37*
G36*
X0355110Y0117462D02*
X0354275Y0116627D01*
X0350936Y0119966D01*
X0351771Y0120801D01*
X0355110Y0117462D01*
G37*
G36*
X0353718Y0116070D02*
X0352883Y0115235D01*
X0349544Y0118574D01*
X0350379Y0119409D01*
X0353718Y0116070D01*
G37*
G36*
X0352326Y0114678D02*
X0351491Y0113843D01*
X0348152Y0117182D01*
X0348987Y0118017D01*
X0352326Y0114678D01*
G37*
G36*
X0350934Y0113286D02*
X0350099Y0112451D01*
X0346760Y0115790D01*
X0347595Y0116625D01*
X0350934Y0113286D01*
G37*
G36*
X0349542Y0111894D02*
X0348707Y0111059D01*
X0345368Y0114398D01*
X0346203Y0115233D01*
X0349542Y0111894D01*
G37*
G36*
X0348150Y0110502D02*
X0347315Y0109667D01*
X0343976Y0113006D01*
X0344811Y0113841D01*
X0348150Y0110502D01*
G37*
G36*
X0347315Y0102706D02*
X0348150Y0101871D01*
X0344811Y0098532D01*
X0343976Y0099367D01*
X0347315Y0102706D01*
G37*
G36*
X0348707Y0101314D02*
X0349542Y0100479D01*
X0346203Y0097140D01*
X0345368Y0097975D01*
X0348707Y0101314D01*
G37*
G36*
X0350099Y0099922D02*
X0350934Y0099087D01*
X0347595Y0095748D01*
X0346760Y0096583D01*
X0350099Y0099922D01*
G37*
G36*
X0351491Y0098530D02*
X0352326Y0097695D01*
X0348987Y0094356D01*
X0348152Y0095191D01*
X0351491Y0098530D01*
G37*
G36*
X0352883Y0097138D02*
X0353718Y0096303D01*
X0350379Y0092964D01*
X0349544Y0093799D01*
X0352883Y0097138D01*
G37*
G36*
X0354275Y0095746D02*
X0355110Y0094911D01*
X0351771Y0091572D01*
X0350936Y0092407D01*
X0354275Y0095746D01*
G37*
G36*
X0355667Y0094354D02*
X0356502Y0093519D01*
X0353163Y0090180D01*
X0352328Y0091015D01*
X0355667Y0094354D01*
G37*
G36*
X0357059Y0092962D02*
X0357894Y0092127D01*
X0354555Y0088788D01*
X0353720Y0089623D01*
X0357059Y0092962D01*
G37*
G36*
X0358451Y0091570D02*
X0359286Y0090735D01*
X0355947Y0087396D01*
X0355112Y0088231D01*
X0358451Y0091570D01*
G37*
G36*
X0359842Y0090178D02*
X0360677Y0089343D01*
X0357338Y0086004D01*
X0356503Y0086839D01*
X0359842Y0090178D01*
G37*
G36*
X0361234Y0088786D02*
X0362069Y0087951D01*
X0358730Y0084612D01*
X0357895Y0085447D01*
X0361234Y0088786D01*
G37*
G36*
X0362626Y0087394D02*
X0363461Y0086559D01*
X0360122Y0083220D01*
X0359287Y0084055D01*
X0362626Y0087394D01*
G37*
G36*
X0364018Y0086002D02*
X0364853Y0085167D01*
X0361514Y0081828D01*
X0360679Y0082663D01*
X0364018Y0086002D01*
G37*
G36*
X0365410Y0084610D02*
X0366245Y0083775D01*
X0362906Y0080436D01*
X0362071Y0081271D01*
X0365410Y0084610D01*
G37*
G36*
X0366802Y0083218D02*
X0367637Y0082383D01*
X0364298Y0079044D01*
X0363463Y0079879D01*
X0366802Y0083218D01*
G37*
G36*
X0368194Y0081826D02*
X0369029Y0080991D01*
X0365690Y0077652D01*
X0364855Y0078487D01*
X0368194Y0081826D01*
G37*
D20*
X0367589Y0170328D02*
X0367589Y0172493D01*
X0369557Y0172493D02*
X0369557Y0170328D01*
X0371526Y0170328D02*
X0371526Y0172493D01*
X0373494Y0172493D02*
X0373494Y0170328D01*
X0375463Y0170328D02*
X0375463Y0172493D01*
X0377431Y0172493D02*
X0377431Y0170328D01*
X0379203Y0174265D02*
X0381368Y0174265D01*
X0381368Y0176234D02*
X0379203Y0176234D01*
X0379203Y0178202D02*
X0381368Y0178202D01*
X0381368Y0180171D02*
X0379203Y0180171D01*
X0379203Y0182139D02*
X0381368Y0182139D01*
X0381368Y0184108D02*
X0379203Y0184108D01*
X0377431Y0185879D02*
X0377431Y0188045D01*
X0375463Y0188045D02*
X0375463Y0185879D01*
X0373494Y0185879D02*
X0373494Y0188045D01*
X0371526Y0188045D02*
X0371526Y0185879D01*
X0369557Y0185879D02*
X0369557Y0188045D01*
X0367589Y0188045D02*
X0367589Y0185879D01*
X0365817Y0184108D02*
X0363652Y0184108D01*
X0363652Y0182139D02*
X0365817Y0182139D01*
X0365817Y0180171D02*
X0363652Y0180171D01*
X0363652Y0178202D02*
X0365817Y0178202D01*
X0365817Y0176234D02*
X0363652Y0176234D01*
X0363652Y0174265D02*
X0365817Y0174265D01*
D21*
X0369754Y0176430D03*
X0375266Y0176430D03*
X0375266Y0181942D03*
X0369754Y0181942D03*
D22*
X0353510Y0189536D03*
D23*
X0353510Y0198786D03*
D24*
X0393010Y0200182D03*
X0393010Y0187190D03*
D25*
X0377510Y0195736D03*
X0372010Y0195736D03*
X0361710Y0195736D03*
X0361710Y0201636D03*
X0372010Y0201636D03*
X0377510Y0201636D03*
D26*
X0389060Y0180686D03*
X0394960Y0180686D03*
X0394960Y0175186D03*
X0389060Y0175186D03*
X0389060Y0169686D03*
X0394960Y0169686D03*
D27*
X0396010Y0042198D03*
X0396010Y0031175D03*
X0396010Y0023698D03*
X0396010Y0012675D03*
M02*
