G75*
%MOIN*%
%OFA0B0*%
%FSLAX25Y25*%
%IPPOS*%
%LPD*%
%AMOC8*
5,1,8,0,0,1.08239X$1,22.5*
%
%ADD10C,0.03569*%
%ADD11C,0.05250*%
%ADD12C,0.02781*%
%ADD13C,0.03962*%
%ADD14C,0.02381*%
%ADD15C,0.00800*%
%ADD16C,0.01000*%
%ADD17C,0.00600*%
%ADD18C,0.07000*%
D10*
X0083238Y0200186D03*
X0105089Y0200186D03*
D11*
X0112663Y0201186D03*
X0112663Y0191186D03*
X0112663Y0181186D03*
X0112663Y0171186D03*
X0112663Y0161186D03*
X0112663Y0151186D03*
X0112663Y0141186D03*
X0112663Y0131186D03*
X0112663Y0121186D03*
X0112663Y0111186D03*
X0112663Y0101186D03*
X0112663Y0091186D03*
X0112663Y0081186D03*
X0112663Y0071186D03*
X0112663Y0061186D03*
X0112663Y0051186D03*
X0112663Y0041186D03*
X0112663Y0031186D03*
X0112663Y0021186D03*
X0042663Y0021186D03*
X0042663Y0031186D03*
X0042663Y0041186D03*
X0042663Y0051186D03*
X0042663Y0061186D03*
X0042663Y0071186D03*
X0042663Y0081186D03*
X0042663Y0091186D03*
X0042663Y0101186D03*
X0042663Y0111186D03*
X0042663Y0121186D03*
X0042663Y0131186D03*
X0042663Y0141186D03*
X0042663Y0151186D03*
X0042663Y0161186D03*
X0042663Y0171186D03*
X0042663Y0181186D03*
X0042663Y0191186D03*
X0042663Y0201186D03*
D12*
X0074120Y0182730D03*
X0077663Y0182730D03*
X0077663Y0179186D03*
X0074120Y0179186D03*
X0074120Y0175643D03*
X0077663Y0175643D03*
X0081207Y0175643D03*
X0081207Y0179186D03*
X0081207Y0182730D03*
D13*
X0092663Y0183186D03*
X0097663Y0183186D03*
D14*
X0102163Y0187186D03*
X0104663Y0187186D03*
X0101463Y0177786D03*
X0102463Y0174686D03*
X0108863Y0177286D03*
X0088963Y0178186D03*
X0088963Y0175186D03*
X0087863Y0172186D03*
X0089063Y0169386D03*
X0088663Y0160086D03*
X0085163Y0160386D03*
X0080463Y0159886D03*
X0077363Y0160086D03*
X0076663Y0156786D03*
X0073463Y0156786D03*
X0070263Y0155686D03*
X0070363Y0158686D03*
X0066663Y0159986D03*
X0059163Y0160186D03*
X0047663Y0167186D03*
X0047663Y0170186D03*
X0047663Y0173186D03*
X0063863Y0171286D03*
X0064963Y0172786D03*
X0066063Y0171286D03*
X0069263Y0171186D03*
X0053163Y0184786D03*
X0051563Y0185886D03*
X0053163Y0186986D03*
X0054763Y0185886D03*
X0071163Y0192186D03*
X0084963Y0187686D03*
X0086063Y0186286D03*
X0093163Y0159386D03*
X0092063Y0156586D03*
X0096463Y0155986D03*
X0096163Y0158986D03*
X0100963Y0155986D03*
X0102363Y0158786D03*
X0084763Y0155986D03*
X0076363Y0151186D03*
X0073863Y0153386D03*
X0071863Y0150786D03*
X0066663Y0151086D03*
X0081663Y0147986D03*
X0095663Y0147186D03*
X0087663Y0139186D03*
X0084463Y0139186D03*
X0092663Y0135686D03*
X0091163Y0132286D03*
X0094463Y0130986D03*
X0097663Y0135586D03*
X0110663Y0126286D03*
X0110663Y0116186D03*
X0094163Y0113186D03*
X0085863Y0116186D03*
X0077563Y0116486D03*
X0077663Y0110986D03*
X0077663Y0107186D03*
X0085963Y0107086D03*
X0085963Y0110086D03*
X0094163Y0106686D03*
X0085863Y0103986D03*
X0091163Y0101686D03*
X0094163Y0101686D03*
X0091163Y0097686D03*
X0089163Y0095186D03*
X0084163Y0094686D03*
X0080163Y0091686D03*
X0082163Y0089186D03*
X0085163Y0089686D03*
X0075663Y0088186D03*
X0072663Y0087686D03*
X0080163Y0084086D03*
X0073763Y0078086D03*
X0087863Y0077386D03*
X0090463Y0073886D03*
X0095163Y0071686D03*
X0095363Y0077586D03*
X0083463Y0069886D03*
X0088363Y0067686D03*
X0082663Y0066586D03*
X0081663Y0062786D03*
X0086463Y0061386D03*
X0088863Y0058186D03*
X0099163Y0058186D03*
X0099163Y0053186D03*
X0085563Y0049286D03*
X0079663Y0049686D03*
X0077163Y0045686D03*
X0072163Y0045686D03*
X0067163Y0045686D03*
X0061163Y0044686D03*
X0061163Y0041186D03*
X0045163Y0046186D03*
X0059163Y0057686D03*
X0066163Y0058686D03*
X0073463Y0070086D03*
X0059163Y0076186D03*
X0060963Y0084086D03*
X0066663Y0096686D03*
X0066163Y0099686D03*
X0067163Y0102686D03*
X0064163Y0102686D03*
X0061163Y0102686D03*
X0062663Y0099686D03*
X0061163Y0109186D03*
X0061163Y0112186D03*
X0061163Y0115186D03*
X0069363Y0115586D03*
X0069763Y0110886D03*
X0083163Y0099686D03*
X0100163Y0090186D03*
X0110663Y0086186D03*
X0110663Y0066186D03*
X0098463Y0066186D03*
X0094163Y0040686D03*
X0094163Y0033686D03*
X0085963Y0033686D03*
X0077663Y0032186D03*
X0076163Y0021686D03*
X0068663Y0021686D03*
X0068663Y0018686D03*
X0073863Y0017686D03*
X0073863Y0014686D03*
X0079163Y0010186D03*
X0089163Y0010186D03*
X0099163Y0010186D03*
X0111163Y0009186D03*
X0113163Y0013186D03*
X0109963Y0016186D03*
X0104163Y0021686D03*
X0098663Y0021686D03*
X0093663Y0021686D03*
X0087163Y0021686D03*
X0082663Y0021686D03*
X0085663Y0018186D03*
X0093663Y0018186D03*
X0061763Y0022186D03*
X0060663Y0018686D03*
X0058163Y0017686D03*
X0055363Y0017686D03*
X0055363Y0014686D03*
X0055363Y0011686D03*
X0055363Y0008686D03*
X0045663Y0009186D03*
X0045663Y0012686D03*
X0045663Y0016186D03*
X0050163Y0023186D03*
X0049163Y0024686D03*
X0050163Y0026186D03*
X0051163Y0024686D03*
X0044663Y0096186D03*
X0044663Y0106186D03*
X0052163Y0121186D03*
X0049663Y0123186D03*
X0049363Y0126186D03*
X0061763Y0130986D03*
X0060663Y0134186D03*
X0058663Y0136686D03*
X0059063Y0139686D03*
X0070963Y0139286D03*
X0079863Y0133286D03*
X0079663Y0128886D03*
X0076163Y0125986D03*
X0083163Y0125986D03*
X0042763Y0136186D03*
X0045463Y0155286D03*
D15*
X0069563Y0154986D02*
X0069563Y0144086D01*
X0068163Y0142686D01*
X0068163Y0137186D01*
X0070663Y0134686D01*
X0070663Y0124186D01*
X0072163Y0122686D01*
X0072163Y0090686D01*
X0070163Y0088686D01*
X0070163Y0064686D01*
X0085563Y0049286D01*
X0082963Y0054086D02*
X0077463Y0059586D01*
X0077463Y0074386D01*
X0073763Y0078086D01*
X0072663Y0087686D02*
X0072663Y0088186D01*
X0073663Y0089186D01*
X0073663Y0123186D01*
X0072163Y0124686D01*
X0072163Y0135486D01*
X0073663Y0136986D01*
X0073663Y0142486D01*
X0071863Y0144286D01*
X0071863Y0150786D01*
X0074163Y0153086D02*
X0073863Y0153386D01*
X0074163Y0153086D02*
X0074163Y0144386D01*
X0075263Y0143286D01*
X0075263Y0135886D01*
X0073663Y0134286D01*
X0073663Y0125186D01*
X0075163Y0123686D01*
X0075163Y0088686D01*
X0075663Y0088186D01*
X0077963Y0089886D02*
X0077963Y0102286D01*
X0080163Y0104486D01*
X0080163Y0119186D01*
X0085663Y0124686D01*
X0085663Y0134586D01*
X0082063Y0138186D01*
X0082063Y0144586D01*
X0084263Y0146786D01*
X0084263Y0148986D01*
X0076663Y0156586D01*
X0076663Y0156786D01*
X0080463Y0154886D02*
X0080463Y0159886D01*
X0082863Y0158186D02*
X0086763Y0158186D01*
X0088663Y0160086D01*
X0093163Y0159386D02*
X0094963Y0161186D01*
X0097163Y0161186D01*
X0098463Y0159886D01*
X0098463Y0158286D01*
X0100763Y0155986D01*
X0100963Y0155986D01*
X0100963Y0154786D01*
X0103163Y0152586D01*
X0103163Y0096686D01*
X0097663Y0091186D01*
X0097663Y0089186D01*
X0099163Y0087686D01*
X0099163Y0072186D01*
X0096163Y0069186D01*
X0092663Y0069186D01*
X0090463Y0071386D01*
X0090463Y0073886D01*
X0095163Y0072686D02*
X0095163Y0071686D01*
X0095163Y0072686D02*
X0097663Y0075186D01*
X0097663Y0087186D01*
X0096163Y0088686D01*
X0096163Y0091686D01*
X0101663Y0097186D01*
X0101663Y0150786D01*
X0096463Y0155986D01*
X0094263Y0157086D02*
X0094263Y0154786D01*
X0100163Y0148886D01*
X0100163Y0097686D01*
X0094663Y0092186D01*
X0094663Y0088186D01*
X0096163Y0086686D01*
X0096163Y0078386D01*
X0095363Y0077586D01*
X0100663Y0071586D02*
X0094563Y0065486D01*
X0084363Y0065486D01*
X0083263Y0066586D01*
X0082663Y0066586D01*
X0082563Y0069886D02*
X0078863Y0066186D01*
X0078863Y0060186D01*
X0083563Y0055486D01*
X0089963Y0055486D01*
X0096463Y0061986D01*
X0098963Y0061986D01*
X0102163Y0065186D01*
X0102163Y0086686D01*
X0106163Y0090686D01*
X0106163Y0171186D01*
X0112663Y0177686D01*
X0112663Y0181186D01*
X0104663Y0176586D02*
X0104663Y0091386D01*
X0100663Y0087386D01*
X0100663Y0071586D01*
X0103663Y0064686D02*
X0099563Y0060586D01*
X0097063Y0060586D01*
X0090563Y0054086D01*
X0082963Y0054086D01*
X0103663Y0064686D02*
X0103663Y0086186D01*
X0107663Y0090186D01*
X0107663Y0166186D01*
X0112663Y0171186D01*
X0104663Y0176586D02*
X0103463Y0177786D01*
X0101463Y0177786D01*
X0093063Y0169386D01*
X0089063Y0169386D01*
X0096163Y0158986D02*
X0094263Y0157086D01*
X0092063Y0156586D02*
X0092063Y0153986D01*
X0098663Y0147386D01*
X0098663Y0139686D01*
X0095463Y0136486D01*
X0095463Y0134686D01*
X0098663Y0131486D01*
X0098663Y0105586D01*
X0097063Y0103986D01*
X0085863Y0103986D01*
X0083163Y0102986D02*
X0080863Y0100686D01*
X0080863Y0094486D01*
X0082663Y0092686D01*
X0082663Y0089686D01*
X0082163Y0089186D01*
X0081163Y0086686D02*
X0077963Y0089886D01*
X0080163Y0091686D02*
X0079463Y0092386D01*
X0079463Y0101486D01*
X0081663Y0103686D01*
X0081663Y0118686D01*
X0087163Y0124186D01*
X0087163Y0135586D01*
X0090663Y0139086D01*
X0090663Y0144686D01*
X0080463Y0154886D01*
X0081863Y0155486D02*
X0081863Y0157186D01*
X0082863Y0158186D01*
X0081863Y0155486D02*
X0092163Y0145186D01*
X0092163Y0138486D01*
X0088663Y0134986D01*
X0088663Y0123686D01*
X0083163Y0118186D01*
X0083163Y0102986D01*
X0085163Y0089686D02*
X0085163Y0088686D01*
X0083163Y0086686D01*
X0081163Y0086686D01*
X0082563Y0069886D02*
X0083463Y0069886D01*
X0069563Y0154986D02*
X0070263Y0155686D01*
D16*
X0073763Y0078086D02*
X0079763Y0078086D01*
X0088063Y0069786D01*
X0088063Y0067986D01*
X0088363Y0067686D01*
D17*
X0038863Y0016470D02*
X0038863Y0204986D01*
X0116463Y0204986D01*
X0116463Y0016470D01*
X0111922Y0007386D01*
X0043405Y0007386D01*
X0038863Y0016470D01*
X0038918Y0016361D02*
X0099118Y0016361D01*
X0099118Y0016016D02*
X0099525Y0015034D01*
X0100276Y0014283D01*
X0101258Y0013876D01*
X0102321Y0013876D01*
X0103303Y0014283D01*
X0104054Y0015034D01*
X0104461Y0016016D01*
X0104461Y0017079D01*
X0104054Y0018061D01*
X0103303Y0018813D01*
X0102321Y0019219D01*
X0101258Y0019219D01*
X0100276Y0018813D01*
X0099525Y0018061D01*
X0099118Y0017079D01*
X0099118Y0016016D01*
X0099223Y0015763D02*
X0039217Y0015763D01*
X0039516Y0015164D02*
X0099471Y0015164D01*
X0099993Y0014565D02*
X0039816Y0014565D01*
X0040115Y0013967D02*
X0101039Y0013967D01*
X0102540Y0013967D02*
X0115212Y0013967D01*
X0114913Y0013368D02*
X0040414Y0013368D01*
X0040713Y0012770D02*
X0114614Y0012770D01*
X0114314Y0012171D02*
X0100135Y0012171D01*
X0100029Y0012277D02*
X0098298Y0012277D01*
X0097073Y0011052D01*
X0097073Y0009320D01*
X0098298Y0008096D01*
X0100029Y0008096D01*
X0101254Y0009320D01*
X0101254Y0011052D01*
X0100029Y0012277D01*
X0100733Y0011573D02*
X0114015Y0011573D01*
X0113716Y0010974D02*
X0101254Y0010974D01*
X0101254Y0010376D02*
X0113417Y0010376D01*
X0113117Y0009777D02*
X0101254Y0009777D01*
X0101113Y0009179D02*
X0112818Y0009179D01*
X0112519Y0008580D02*
X0100514Y0008580D01*
X0097813Y0008580D02*
X0090514Y0008580D01*
X0090029Y0008096D02*
X0091254Y0009320D01*
X0091254Y0011052D01*
X0090029Y0012277D01*
X0088298Y0012277D01*
X0087073Y0011052D01*
X0087073Y0009320D01*
X0088298Y0008096D01*
X0090029Y0008096D01*
X0091113Y0009179D02*
X0097214Y0009179D01*
X0097073Y0009777D02*
X0091254Y0009777D01*
X0091254Y0010376D02*
X0097073Y0010376D01*
X0097073Y0010974D02*
X0091254Y0010974D01*
X0090733Y0011573D02*
X0097594Y0011573D01*
X0098192Y0012171D02*
X0090135Y0012171D01*
X0088192Y0012171D02*
X0080135Y0012171D01*
X0080029Y0012277D02*
X0078298Y0012277D01*
X0077073Y0011052D01*
X0077073Y0009320D01*
X0078298Y0008096D01*
X0080029Y0008096D01*
X0081254Y0009320D01*
X0081254Y0011052D01*
X0080029Y0012277D01*
X0080733Y0011573D02*
X0087594Y0011573D01*
X0087073Y0010974D02*
X0081254Y0010974D01*
X0081254Y0010376D02*
X0087073Y0010376D01*
X0087073Y0009777D02*
X0081254Y0009777D01*
X0081113Y0009179D02*
X0087214Y0009179D01*
X0087813Y0008580D02*
X0080514Y0008580D01*
X0077813Y0008580D02*
X0042808Y0008580D01*
X0043107Y0007982D02*
X0112220Y0007982D01*
X0115511Y0014565D02*
X0103585Y0014565D01*
X0104108Y0015164D02*
X0115811Y0015164D01*
X0116110Y0015763D02*
X0104356Y0015763D01*
X0104461Y0016361D02*
X0116409Y0016361D01*
X0116463Y0016960D02*
X0104461Y0016960D01*
X0104263Y0017558D02*
X0116463Y0017558D01*
X0116463Y0018157D02*
X0114560Y0018157D01*
X0114660Y0018198D02*
X0115652Y0019190D01*
X0116188Y0020485D01*
X0116188Y0021887D01*
X0115652Y0023183D01*
X0114660Y0024175D01*
X0113365Y0024711D01*
X0111962Y0024711D01*
X0110667Y0024175D01*
X0109675Y0023183D01*
X0109138Y0021887D01*
X0109138Y0020485D01*
X0109675Y0019190D01*
X0110667Y0018198D01*
X0111962Y0017661D01*
X0113365Y0017661D01*
X0114660Y0018198D01*
X0115217Y0018755D02*
X0116463Y0018755D01*
X0116463Y0019354D02*
X0115720Y0019354D01*
X0115968Y0019952D02*
X0116463Y0019952D01*
X0116463Y0020551D02*
X0116188Y0020551D01*
X0116188Y0021149D02*
X0116463Y0021149D01*
X0116463Y0021748D02*
X0116188Y0021748D01*
X0115998Y0022346D02*
X0116463Y0022346D01*
X0116463Y0022945D02*
X0115751Y0022945D01*
X0115292Y0023543D02*
X0116463Y0023543D01*
X0116463Y0024142D02*
X0114693Y0024142D01*
X0116463Y0024740D02*
X0054940Y0024740D01*
X0054563Y0024364D02*
X0056894Y0026694D01*
X0057563Y0028311D01*
X0057563Y0112864D01*
X0059073Y0114373D01*
X0059073Y0114320D01*
X0059707Y0113686D01*
X0059073Y0113052D01*
X0059073Y0111320D01*
X0059707Y0110686D01*
X0059073Y0110052D01*
X0059073Y0108320D01*
X0060298Y0107096D01*
X0062029Y0107096D01*
X0063254Y0108320D01*
X0063254Y0110052D01*
X0062620Y0110686D01*
X0063254Y0111320D01*
X0063254Y0113052D01*
X0062620Y0113686D01*
X0063254Y0114320D01*
X0063254Y0116052D01*
X0062029Y0117277D01*
X0061635Y0117277D01*
X0062063Y0118311D01*
X0062063Y0128062D01*
X0061718Y0128896D01*
X0062629Y0128896D01*
X0063854Y0130120D01*
X0063854Y0131852D01*
X0062629Y0133077D01*
X0062510Y0133077D01*
X0062754Y0133320D01*
X0062754Y0135052D01*
X0061529Y0136277D01*
X0060754Y0136277D01*
X0060754Y0137552D01*
X0059529Y0138777D01*
X0057798Y0138777D01*
X0057563Y0138543D01*
X0057563Y0158830D01*
X0058298Y0158096D01*
X0060029Y0158096D01*
X0061254Y0159320D01*
X0061254Y0161052D01*
X0060029Y0162277D01*
X0058298Y0162277D01*
X0057563Y0161543D01*
X0057563Y0185662D01*
X0056894Y0187279D01*
X0055656Y0188516D01*
X0054039Y0189186D01*
X0052288Y0189186D01*
X0050671Y0188516D01*
X0049433Y0187279D01*
X0048763Y0185662D01*
X0048763Y0130811D01*
X0049433Y0129194D01*
X0050671Y0127956D01*
X0053263Y0125364D01*
X0053263Y0123043D01*
X0053029Y0123277D01*
X0051754Y0123277D01*
X0051754Y0124052D01*
X0050529Y0125277D01*
X0048798Y0125277D01*
X0047573Y0124052D01*
X0047573Y0122320D01*
X0048798Y0121096D01*
X0050073Y0121096D01*
X0050073Y0120320D01*
X0051298Y0119096D01*
X0051350Y0119096D01*
X0049433Y0117179D01*
X0048763Y0115562D01*
X0048763Y0031009D01*
X0047671Y0029916D01*
X0046433Y0028679D01*
X0045763Y0027062D01*
X0045763Y0022913D01*
X0045652Y0023183D01*
X0044660Y0024175D01*
X0043365Y0024711D01*
X0041962Y0024711D01*
X0040667Y0024175D01*
X0039675Y0023183D01*
X0039138Y0021887D01*
X0039138Y0020485D01*
X0039675Y0019190D01*
X0040667Y0018198D01*
X0041962Y0017661D01*
X0043365Y0017661D01*
X0044660Y0018198D01*
X0045652Y0019190D01*
X0046188Y0020485D01*
X0046188Y0021285D01*
X0046433Y0020694D01*
X0047671Y0019456D01*
X0049288Y0018786D01*
X0051039Y0018786D01*
X0052656Y0019456D01*
X0053894Y0020694D01*
X0054563Y0022311D01*
X0054563Y0024364D01*
X0054563Y0024142D02*
X0110634Y0024142D01*
X0110035Y0023543D02*
X0054563Y0023543D01*
X0054563Y0022945D02*
X0109576Y0022945D01*
X0109328Y0022346D02*
X0054563Y0022346D01*
X0054330Y0021748D02*
X0109138Y0021748D01*
X0109138Y0021149D02*
X0054082Y0021149D01*
X0053750Y0020551D02*
X0109138Y0020551D01*
X0109359Y0019952D02*
X0053152Y0019952D01*
X0052408Y0019354D02*
X0109607Y0019354D01*
X0110110Y0018755D02*
X0103360Y0018755D01*
X0103959Y0018157D02*
X0110767Y0018157D01*
X0100218Y0018755D02*
X0045217Y0018755D01*
X0045720Y0019354D02*
X0047919Y0019354D01*
X0047175Y0019952D02*
X0045968Y0019952D01*
X0046188Y0020551D02*
X0046577Y0020551D01*
X0046245Y0021149D02*
X0046188Y0021149D01*
X0045763Y0022945D02*
X0045751Y0022945D01*
X0045763Y0023543D02*
X0045292Y0023543D01*
X0045763Y0024142D02*
X0044693Y0024142D01*
X0045763Y0024740D02*
X0038863Y0024740D01*
X0038863Y0024142D02*
X0040634Y0024142D01*
X0040035Y0023543D02*
X0038863Y0023543D01*
X0038863Y0022945D02*
X0039576Y0022945D01*
X0039328Y0022346D02*
X0038863Y0022346D01*
X0038863Y0021748D02*
X0039138Y0021748D01*
X0039138Y0021149D02*
X0038863Y0021149D01*
X0038863Y0020551D02*
X0039138Y0020551D01*
X0039359Y0019952D02*
X0038863Y0019952D01*
X0038863Y0019354D02*
X0039607Y0019354D01*
X0040110Y0018755D02*
X0038863Y0018755D01*
X0038863Y0018157D02*
X0040767Y0018157D01*
X0038863Y0017558D02*
X0099316Y0017558D01*
X0099118Y0016960D02*
X0038863Y0016960D01*
X0044560Y0018157D02*
X0099620Y0018157D01*
X0116463Y0025339D02*
X0055538Y0025339D01*
X0056137Y0025937D02*
X0116463Y0025937D01*
X0116463Y0026536D02*
X0056735Y0026536D01*
X0057076Y0027134D02*
X0116463Y0027134D01*
X0116463Y0027733D02*
X0113537Y0027733D01*
X0113365Y0027661D02*
X0114660Y0028198D01*
X0115652Y0029190D01*
X0116188Y0030485D01*
X0116188Y0031887D01*
X0115652Y0033183D01*
X0114660Y0034175D01*
X0113365Y0034711D01*
X0111962Y0034711D01*
X0110667Y0034175D01*
X0109675Y0033183D01*
X0109138Y0031887D01*
X0109138Y0030485D01*
X0109675Y0029190D01*
X0110667Y0028198D01*
X0111962Y0027661D01*
X0113365Y0027661D01*
X0111790Y0027733D02*
X0057324Y0027733D01*
X0057563Y0028331D02*
X0110533Y0028331D01*
X0109935Y0028930D02*
X0057563Y0028930D01*
X0057563Y0029528D02*
X0109535Y0029528D01*
X0109287Y0030127D02*
X0057563Y0030127D01*
X0057563Y0030725D02*
X0109138Y0030725D01*
X0109138Y0031324D02*
X0057563Y0031324D01*
X0057563Y0031922D02*
X0109153Y0031922D01*
X0109401Y0032521D02*
X0057563Y0032521D01*
X0057563Y0033119D02*
X0109649Y0033119D01*
X0110210Y0033718D02*
X0057563Y0033718D01*
X0057563Y0034316D02*
X0111009Y0034316D01*
X0114318Y0034316D02*
X0116463Y0034316D01*
X0116463Y0033718D02*
X0115117Y0033718D01*
X0115678Y0033119D02*
X0116463Y0033119D01*
X0116463Y0032521D02*
X0115926Y0032521D01*
X0116174Y0031922D02*
X0116463Y0031922D01*
X0116463Y0031324D02*
X0116188Y0031324D01*
X0116188Y0030725D02*
X0116463Y0030725D01*
X0116463Y0030127D02*
X0116040Y0030127D01*
X0115792Y0029528D02*
X0116463Y0029528D01*
X0116463Y0028930D02*
X0115392Y0028930D01*
X0114793Y0028331D02*
X0116463Y0028331D01*
X0116463Y0034915D02*
X0057563Y0034915D01*
X0057563Y0035513D02*
X0116463Y0035513D01*
X0116463Y0036112D02*
X0057563Y0036112D01*
X0057563Y0036710D02*
X0116463Y0036710D01*
X0116463Y0037309D02*
X0057563Y0037309D01*
X0057563Y0037907D02*
X0111368Y0037907D01*
X0111962Y0037661D02*
X0113365Y0037661D01*
X0114660Y0038198D01*
X0115652Y0039190D01*
X0116188Y0040485D01*
X0116188Y0041888D01*
X0115652Y0043183D01*
X0114660Y0044175D01*
X0113365Y0044711D01*
X0111962Y0044711D01*
X0110667Y0044175D01*
X0109675Y0043183D01*
X0109138Y0041888D01*
X0109138Y0040485D01*
X0109675Y0039190D01*
X0110667Y0038198D01*
X0111962Y0037661D01*
X0110359Y0038506D02*
X0057563Y0038506D01*
X0057563Y0039104D02*
X0109760Y0039104D01*
X0109462Y0039703D02*
X0057563Y0039703D01*
X0057563Y0040301D02*
X0109215Y0040301D01*
X0109138Y0040900D02*
X0057563Y0040900D01*
X0057563Y0041498D02*
X0109138Y0041498D01*
X0109225Y0042097D02*
X0057563Y0042097D01*
X0057563Y0042696D02*
X0109473Y0042696D01*
X0109786Y0043294D02*
X0057563Y0043294D01*
X0057563Y0043893D02*
X0066001Y0043893D01*
X0066298Y0043596D02*
X0068029Y0043596D01*
X0069254Y0044820D01*
X0069254Y0046552D01*
X0068080Y0047727D01*
X0068634Y0048281D01*
X0068634Y0050168D01*
X0067300Y0051503D01*
X0065413Y0051503D01*
X0064078Y0050168D01*
X0064078Y0048281D01*
X0065413Y0046947D01*
X0065468Y0046947D01*
X0065073Y0046552D01*
X0065073Y0044820D01*
X0066298Y0043596D01*
X0065402Y0044491D02*
X0057563Y0044491D01*
X0057563Y0045090D02*
X0065073Y0045090D01*
X0065073Y0045688D02*
X0057563Y0045688D01*
X0057563Y0046287D02*
X0065073Y0046287D01*
X0065406Y0046885D02*
X0057563Y0046885D01*
X0057563Y0047484D02*
X0064876Y0047484D01*
X0064278Y0048082D02*
X0057563Y0048082D01*
X0057563Y0048681D02*
X0064078Y0048681D01*
X0064078Y0049279D02*
X0057563Y0049279D01*
X0057563Y0049878D02*
X0064078Y0049878D01*
X0064386Y0050476D02*
X0057563Y0050476D01*
X0057563Y0051075D02*
X0064985Y0051075D01*
X0067728Y0051075D02*
X0078095Y0051075D01*
X0077573Y0050552D02*
X0077573Y0048820D01*
X0078798Y0047596D01*
X0080529Y0047596D01*
X0081754Y0048820D01*
X0081754Y0050552D01*
X0080529Y0051777D01*
X0078798Y0051777D01*
X0077573Y0050552D01*
X0077573Y0050476D02*
X0068327Y0050476D01*
X0068634Y0049878D02*
X0077573Y0049878D01*
X0077573Y0049279D02*
X0068634Y0049279D01*
X0068634Y0048681D02*
X0077713Y0048681D01*
X0078311Y0048082D02*
X0068435Y0048082D01*
X0068323Y0047484D02*
X0071004Y0047484D01*
X0071298Y0047777D02*
X0070073Y0046552D01*
X0070073Y0044820D01*
X0071298Y0043596D01*
X0073029Y0043596D01*
X0074254Y0044820D01*
X0074254Y0046552D01*
X0073029Y0047777D01*
X0071298Y0047777D01*
X0070406Y0046885D02*
X0068921Y0046885D01*
X0069254Y0046287D02*
X0070073Y0046287D01*
X0070073Y0045688D02*
X0069254Y0045688D01*
X0069254Y0045090D02*
X0070073Y0045090D01*
X0070402Y0044491D02*
X0068925Y0044491D01*
X0068326Y0043893D02*
X0071001Y0043893D01*
X0073326Y0043893D02*
X0076001Y0043893D01*
X0076298Y0043596D02*
X0078029Y0043596D01*
X0079254Y0044820D01*
X0079254Y0046552D01*
X0078029Y0047777D01*
X0076298Y0047777D01*
X0075073Y0046552D01*
X0075073Y0044820D01*
X0076298Y0043596D01*
X0075402Y0044491D02*
X0073925Y0044491D01*
X0074254Y0045090D02*
X0075073Y0045090D01*
X0075073Y0045688D02*
X0074254Y0045688D01*
X0074254Y0046287D02*
X0075073Y0046287D01*
X0075406Y0046885D02*
X0073921Y0046885D01*
X0073323Y0047484D02*
X0076004Y0047484D01*
X0078323Y0047484D02*
X0084410Y0047484D01*
X0084698Y0047196D02*
X0086429Y0047196D01*
X0087654Y0048420D01*
X0087654Y0050152D01*
X0086429Y0051377D01*
X0085311Y0051377D01*
X0083902Y0052786D01*
X0091102Y0052786D01*
X0091863Y0053548D01*
X0097602Y0059286D01*
X0100102Y0059286D01*
X0104963Y0064148D01*
X0104963Y0085648D01*
X0108963Y0089648D01*
X0108963Y0165648D01*
X0111266Y0167950D01*
X0111962Y0167661D01*
X0113365Y0167661D01*
X0114660Y0168198D01*
X0115652Y0169190D01*
X0116188Y0170485D01*
X0116188Y0171888D01*
X0115652Y0173183D01*
X0114660Y0174175D01*
X0113365Y0174711D01*
X0111962Y0174711D01*
X0111219Y0174403D01*
X0113202Y0176386D01*
X0113963Y0177148D01*
X0113963Y0177909D01*
X0114660Y0178198D01*
X0115652Y0179190D01*
X0116188Y0180485D01*
X0116188Y0181887D01*
X0115652Y0183183D01*
X0114660Y0184175D01*
X0113365Y0184711D01*
X0111962Y0184711D01*
X0110667Y0184175D01*
X0109675Y0183183D01*
X0109138Y0181887D01*
X0109138Y0180485D01*
X0109675Y0179190D01*
X0110667Y0178198D01*
X0111140Y0178002D01*
X0105963Y0172825D01*
X0105963Y0177125D01*
X0105202Y0177886D01*
X0104002Y0179086D01*
X0103120Y0179086D01*
X0102329Y0179877D01*
X0100598Y0179877D01*
X0099373Y0178652D01*
X0099373Y0177534D01*
X0092525Y0170686D01*
X0090720Y0170686D01*
X0089954Y0171452D01*
X0089954Y0173052D01*
X0089870Y0173136D01*
X0091054Y0174320D01*
X0091054Y0176052D01*
X0090420Y0176686D01*
X0091054Y0177320D01*
X0091054Y0179052D01*
X0089829Y0180277D01*
X0088098Y0180277D01*
X0086873Y0179052D01*
X0086873Y0177320D01*
X0087507Y0176686D01*
X0086873Y0176052D01*
X0086873Y0174320D01*
X0086957Y0174236D01*
X0085773Y0173052D01*
X0085773Y0171320D01*
X0086973Y0170120D01*
X0086973Y0168520D01*
X0088198Y0167296D01*
X0089929Y0167296D01*
X0090720Y0168086D01*
X0093602Y0168086D01*
X0094363Y0168848D01*
X0100373Y0174857D01*
X0100373Y0173820D01*
X0101598Y0172596D01*
X0103329Y0172596D01*
X0103363Y0172630D01*
X0103363Y0154225D01*
X0102761Y0154827D01*
X0103054Y0155120D01*
X0103054Y0156852D01*
X0101829Y0158077D01*
X0100511Y0158077D01*
X0099763Y0158825D01*
X0099763Y0160425D01*
X0099002Y0161186D01*
X0097702Y0162486D01*
X0094425Y0162486D01*
X0093416Y0161477D01*
X0092298Y0161477D01*
X0091073Y0160252D01*
X0091073Y0158552D01*
X0089973Y0157452D01*
X0089973Y0155720D01*
X0090763Y0154930D01*
X0090763Y0153448D01*
X0094934Y0149277D01*
X0094798Y0149277D01*
X0093573Y0148052D01*
X0093573Y0146320D01*
X0094798Y0145096D01*
X0096529Y0145096D01*
X0097363Y0145930D01*
X0097363Y0140225D01*
X0094163Y0137025D01*
X0094163Y0134148D01*
X0095234Y0133077D01*
X0093598Y0133077D01*
X0093254Y0132733D01*
X0093254Y0133152D01*
X0092029Y0134377D01*
X0090298Y0134377D01*
X0089963Y0134043D01*
X0089963Y0134448D01*
X0093463Y0137948D01*
X0093463Y0145725D01*
X0083163Y0156025D01*
X0083163Y0156648D01*
X0083402Y0156886D01*
X0087302Y0156886D01*
X0088411Y0157996D01*
X0089529Y0157996D01*
X0090754Y0159220D01*
X0090754Y0160952D01*
X0089529Y0162177D01*
X0087798Y0162177D01*
X0087063Y0161443D01*
X0086029Y0162477D01*
X0084298Y0162477D01*
X0083073Y0161252D01*
X0083073Y0159520D01*
X0083107Y0159486D01*
X0082554Y0159486D01*
X0082554Y0160752D01*
X0081329Y0161977D01*
X0079598Y0161977D01*
X0079013Y0161393D01*
X0078229Y0162177D01*
X0076498Y0162177D01*
X0075273Y0160952D01*
X0075273Y0159220D01*
X0075707Y0158786D01*
X0075063Y0158143D01*
X0074329Y0158877D01*
X0072598Y0158877D01*
X0072454Y0158733D01*
X0072454Y0159552D01*
X0071229Y0160777D01*
X0069498Y0160777D01*
X0068754Y0160033D01*
X0068754Y0160852D01*
X0067529Y0162077D01*
X0065798Y0162077D01*
X0064573Y0160852D01*
X0064573Y0159120D01*
X0065798Y0157896D01*
X0067529Y0157896D01*
X0068273Y0158639D01*
X0068273Y0157820D01*
X0068857Y0157236D01*
X0068173Y0156552D01*
X0068173Y0154820D01*
X0068263Y0154730D01*
X0068263Y0152443D01*
X0067529Y0153177D01*
X0065798Y0153177D01*
X0064573Y0151952D01*
X0064573Y0150220D01*
X0065798Y0148996D01*
X0067529Y0148996D01*
X0068263Y0149730D01*
X0068263Y0144625D01*
X0067625Y0143986D01*
X0066863Y0143225D01*
X0066863Y0136648D01*
X0069363Y0134148D01*
X0069363Y0123648D01*
X0070125Y0122886D01*
X0070863Y0122148D01*
X0070863Y0117043D01*
X0070229Y0117677D01*
X0068498Y0117677D01*
X0067273Y0116452D01*
X0067273Y0114720D01*
X0068498Y0113496D01*
X0070229Y0113496D01*
X0070863Y0114130D01*
X0070863Y0112743D01*
X0070629Y0112977D01*
X0068898Y0112977D01*
X0067673Y0111752D01*
X0067673Y0110020D01*
X0068898Y0108796D01*
X0070629Y0108796D01*
X0070863Y0109030D01*
X0070863Y0091225D01*
X0068863Y0089225D01*
X0068863Y0064148D01*
X0083473Y0049538D01*
X0083473Y0048420D01*
X0084698Y0047196D01*
X0083811Y0048082D02*
X0081016Y0048082D01*
X0081614Y0048681D02*
X0083473Y0048681D01*
X0083473Y0049279D02*
X0081754Y0049279D01*
X0081754Y0049878D02*
X0083134Y0049878D01*
X0082535Y0050476D02*
X0081754Y0050476D01*
X0081937Y0051075D02*
X0081232Y0051075D01*
X0081338Y0051673D02*
X0080633Y0051673D01*
X0080740Y0052272D02*
X0057563Y0052272D01*
X0057563Y0052870D02*
X0080141Y0052870D01*
X0079543Y0053469D02*
X0057563Y0053469D01*
X0057563Y0054067D02*
X0078944Y0054067D01*
X0078346Y0054666D02*
X0057563Y0054666D01*
X0057563Y0055264D02*
X0077747Y0055264D01*
X0077149Y0055863D02*
X0057563Y0055863D01*
X0057563Y0056461D02*
X0076550Y0056461D01*
X0075952Y0057060D02*
X0057563Y0057060D01*
X0057563Y0057658D02*
X0075353Y0057658D01*
X0074755Y0058257D02*
X0057563Y0058257D01*
X0057563Y0058855D02*
X0074156Y0058855D01*
X0073557Y0059454D02*
X0057563Y0059454D01*
X0057563Y0060052D02*
X0072959Y0060052D01*
X0072360Y0060651D02*
X0057563Y0060651D01*
X0057563Y0061249D02*
X0071762Y0061249D01*
X0071163Y0061848D02*
X0057563Y0061848D01*
X0057563Y0062446D02*
X0070565Y0062446D01*
X0069966Y0063045D02*
X0057563Y0063045D01*
X0057563Y0063643D02*
X0069368Y0063643D01*
X0068863Y0064242D02*
X0057563Y0064242D01*
X0057563Y0064840D02*
X0068863Y0064840D01*
X0068863Y0065439D02*
X0057563Y0065439D01*
X0057563Y0066037D02*
X0068863Y0066037D01*
X0068863Y0066636D02*
X0057563Y0066636D01*
X0057563Y0067234D02*
X0068863Y0067234D01*
X0068863Y0067833D02*
X0057563Y0067833D01*
X0057563Y0068432D02*
X0068863Y0068432D01*
X0068863Y0069030D02*
X0057563Y0069030D01*
X0057563Y0069629D02*
X0068863Y0069629D01*
X0068863Y0070227D02*
X0057563Y0070227D01*
X0057563Y0070826D02*
X0068863Y0070826D01*
X0068863Y0071424D02*
X0057563Y0071424D01*
X0057563Y0072023D02*
X0068863Y0072023D01*
X0068863Y0072621D02*
X0057563Y0072621D01*
X0057563Y0073220D02*
X0068863Y0073220D01*
X0068863Y0073818D02*
X0057563Y0073818D01*
X0057563Y0074417D02*
X0068863Y0074417D01*
X0068863Y0075015D02*
X0057563Y0075015D01*
X0057563Y0075614D02*
X0068863Y0075614D01*
X0068863Y0076212D02*
X0057563Y0076212D01*
X0057563Y0076811D02*
X0068863Y0076811D01*
X0068863Y0077409D02*
X0057563Y0077409D01*
X0057563Y0078008D02*
X0068863Y0078008D01*
X0068863Y0078606D02*
X0057563Y0078606D01*
X0057563Y0079205D02*
X0068863Y0079205D01*
X0068863Y0079803D02*
X0057563Y0079803D01*
X0057563Y0080402D02*
X0068863Y0080402D01*
X0068863Y0081000D02*
X0057563Y0081000D01*
X0057563Y0081599D02*
X0068863Y0081599D01*
X0068863Y0082197D02*
X0057563Y0082197D01*
X0057563Y0082796D02*
X0068863Y0082796D01*
X0068863Y0083394D02*
X0057563Y0083394D01*
X0057563Y0083993D02*
X0068863Y0083993D01*
X0068863Y0084591D02*
X0057563Y0084591D01*
X0057563Y0085190D02*
X0068863Y0085190D01*
X0068863Y0085788D02*
X0057563Y0085788D01*
X0057563Y0086387D02*
X0068863Y0086387D01*
X0068863Y0086985D02*
X0057563Y0086985D01*
X0057563Y0087584D02*
X0068863Y0087584D01*
X0068863Y0088182D02*
X0057563Y0088182D01*
X0057563Y0088781D02*
X0068863Y0088781D01*
X0069018Y0089379D02*
X0057563Y0089379D01*
X0057563Y0089978D02*
X0069617Y0089978D01*
X0070215Y0090576D02*
X0057563Y0090576D01*
X0057563Y0091175D02*
X0070814Y0091175D01*
X0070863Y0091773D02*
X0057563Y0091773D01*
X0057563Y0092372D02*
X0070863Y0092372D01*
X0070863Y0092970D02*
X0057563Y0092970D01*
X0057563Y0093569D02*
X0070863Y0093569D01*
X0070863Y0094167D02*
X0057563Y0094167D01*
X0057563Y0094766D02*
X0070863Y0094766D01*
X0070863Y0095365D02*
X0057563Y0095365D01*
X0057563Y0095963D02*
X0070863Y0095963D01*
X0070863Y0096562D02*
X0057563Y0096562D01*
X0057563Y0097160D02*
X0070863Y0097160D01*
X0070863Y0097759D02*
X0067192Y0097759D01*
X0067029Y0097596D02*
X0068254Y0098820D01*
X0068254Y0100552D01*
X0067029Y0101777D01*
X0066210Y0101777D01*
X0066254Y0101820D01*
X0066254Y0103552D01*
X0065029Y0104777D01*
X0063298Y0104777D01*
X0062663Y0104143D01*
X0062029Y0104777D01*
X0060298Y0104777D01*
X0059073Y0103552D01*
X0059073Y0101820D01*
X0060298Y0100596D01*
X0060616Y0100596D01*
X0060573Y0100552D01*
X0060573Y0098820D01*
X0061798Y0097596D01*
X0063529Y0097596D01*
X0064413Y0098480D01*
X0065298Y0097596D01*
X0067029Y0097596D01*
X0067791Y0098357D02*
X0070863Y0098357D01*
X0070863Y0098956D02*
X0068254Y0098956D01*
X0068254Y0099554D02*
X0070863Y0099554D01*
X0070863Y0100153D02*
X0068254Y0100153D01*
X0068055Y0100751D02*
X0070863Y0100751D01*
X0070863Y0101350D02*
X0067457Y0101350D01*
X0066254Y0101948D02*
X0070863Y0101948D01*
X0070863Y0102547D02*
X0066254Y0102547D01*
X0066254Y0103145D02*
X0070863Y0103145D01*
X0070863Y0103744D02*
X0066063Y0103744D01*
X0065464Y0104342D02*
X0070863Y0104342D01*
X0070863Y0104941D02*
X0057563Y0104941D01*
X0057563Y0105539D02*
X0070863Y0105539D01*
X0070863Y0106138D02*
X0057563Y0106138D01*
X0057563Y0106736D02*
X0070863Y0106736D01*
X0070863Y0107335D02*
X0062268Y0107335D01*
X0062867Y0107933D02*
X0070863Y0107933D01*
X0070863Y0108532D02*
X0063254Y0108532D01*
X0063254Y0109130D02*
X0068563Y0109130D01*
X0067965Y0109729D02*
X0063254Y0109729D01*
X0062979Y0110327D02*
X0067673Y0110327D01*
X0067673Y0110926D02*
X0062859Y0110926D01*
X0063254Y0111524D02*
X0067673Y0111524D01*
X0068043Y0112123D02*
X0063254Y0112123D01*
X0063254Y0112721D02*
X0068642Y0112721D01*
X0068075Y0113918D02*
X0062852Y0113918D01*
X0062986Y0113320D02*
X0070863Y0113320D01*
X0070863Y0113918D02*
X0070652Y0113918D01*
X0067476Y0114517D02*
X0063254Y0114517D01*
X0063254Y0115115D02*
X0067273Y0115115D01*
X0067273Y0115714D02*
X0063254Y0115714D01*
X0062994Y0116312D02*
X0067273Y0116312D01*
X0067732Y0116911D02*
X0062395Y0116911D01*
X0061731Y0117509D02*
X0068330Y0117509D01*
X0070397Y0117509D02*
X0070863Y0117509D01*
X0070863Y0118108D02*
X0061979Y0118108D01*
X0062063Y0118706D02*
X0070863Y0118706D01*
X0070863Y0119305D02*
X0062063Y0119305D01*
X0062063Y0119903D02*
X0070863Y0119903D01*
X0070863Y0120502D02*
X0062063Y0120502D01*
X0062063Y0121101D02*
X0070863Y0121101D01*
X0070863Y0121699D02*
X0062063Y0121699D01*
X0062063Y0122298D02*
X0070714Y0122298D01*
X0070115Y0122896D02*
X0062063Y0122896D01*
X0062063Y0123495D02*
X0069517Y0123495D01*
X0069363Y0124093D02*
X0062063Y0124093D01*
X0062063Y0124692D02*
X0069363Y0124692D01*
X0069363Y0125290D02*
X0062063Y0125290D01*
X0062063Y0125889D02*
X0069363Y0125889D01*
X0069363Y0126487D02*
X0062063Y0126487D01*
X0062063Y0127086D02*
X0069363Y0127086D01*
X0069363Y0127684D02*
X0062063Y0127684D01*
X0061972Y0128283D02*
X0069363Y0128283D01*
X0069363Y0128881D02*
X0061724Y0128881D01*
X0063213Y0129480D02*
X0069363Y0129480D01*
X0069363Y0130078D02*
X0063812Y0130078D01*
X0063854Y0130677D02*
X0069363Y0130677D01*
X0069363Y0131275D02*
X0063854Y0131275D01*
X0063833Y0131874D02*
X0069363Y0131874D01*
X0069363Y0132472D02*
X0063234Y0132472D01*
X0062636Y0133071D02*
X0069363Y0133071D01*
X0069363Y0133669D02*
X0062754Y0133669D01*
X0062754Y0134268D02*
X0069244Y0134268D01*
X0068645Y0134866D02*
X0062754Y0134866D01*
X0062341Y0135465D02*
X0068047Y0135465D01*
X0067448Y0136063D02*
X0061743Y0136063D01*
X0060754Y0136662D02*
X0066863Y0136662D01*
X0066863Y0137260D02*
X0060754Y0137260D01*
X0060447Y0137859D02*
X0066863Y0137859D01*
X0066863Y0138457D02*
X0059849Y0138457D01*
X0057563Y0139056D02*
X0066863Y0139056D01*
X0066863Y0139654D02*
X0057563Y0139654D01*
X0057563Y0140253D02*
X0066863Y0140253D01*
X0066863Y0140851D02*
X0057563Y0140851D01*
X0057563Y0141450D02*
X0066863Y0141450D01*
X0066863Y0142048D02*
X0057563Y0142048D01*
X0057563Y0142647D02*
X0066863Y0142647D01*
X0066884Y0143245D02*
X0057563Y0143245D01*
X0057563Y0143844D02*
X0067483Y0143844D01*
X0067625Y0143986D02*
X0067625Y0143986D01*
X0068081Y0144442D02*
X0057563Y0144442D01*
X0057563Y0145041D02*
X0068263Y0145041D01*
X0068263Y0145639D02*
X0057563Y0145639D01*
X0057563Y0146238D02*
X0068263Y0146238D01*
X0068263Y0146836D02*
X0057563Y0146836D01*
X0057563Y0147435D02*
X0068263Y0147435D01*
X0068263Y0148034D02*
X0057563Y0148034D01*
X0057563Y0148632D02*
X0068263Y0148632D01*
X0068263Y0149231D02*
X0067764Y0149231D01*
X0065563Y0149231D02*
X0057563Y0149231D01*
X0057563Y0149829D02*
X0064964Y0149829D01*
X0064573Y0150428D02*
X0057563Y0150428D01*
X0057563Y0151026D02*
X0064573Y0151026D01*
X0064573Y0151625D02*
X0057563Y0151625D01*
X0057563Y0152223D02*
X0064844Y0152223D01*
X0065442Y0152822D02*
X0057563Y0152822D01*
X0057563Y0153420D02*
X0068263Y0153420D01*
X0068263Y0152822D02*
X0067885Y0152822D01*
X0068263Y0154019D02*
X0057563Y0154019D01*
X0057563Y0154617D02*
X0068263Y0154617D01*
X0068173Y0155216D02*
X0057563Y0155216D01*
X0057563Y0155814D02*
X0068173Y0155814D01*
X0068173Y0156413D02*
X0057563Y0156413D01*
X0057563Y0157011D02*
X0068632Y0157011D01*
X0068484Y0157610D02*
X0057563Y0157610D01*
X0057563Y0158208D02*
X0058185Y0158208D01*
X0057587Y0158807D02*
X0057563Y0158807D01*
X0060142Y0158208D02*
X0065485Y0158208D01*
X0064887Y0158807D02*
X0060740Y0158807D01*
X0061254Y0159405D02*
X0064573Y0159405D01*
X0064573Y0160004D02*
X0061254Y0160004D01*
X0061254Y0160602D02*
X0064573Y0160602D01*
X0064921Y0161201D02*
X0061106Y0161201D01*
X0060507Y0161799D02*
X0065520Y0161799D01*
X0067807Y0161799D02*
X0076120Y0161799D01*
X0075521Y0161201D02*
X0068406Y0161201D01*
X0068754Y0160602D02*
X0069323Y0160602D01*
X0071404Y0160602D02*
X0075273Y0160602D01*
X0075273Y0160004D02*
X0072003Y0160004D01*
X0072454Y0159405D02*
X0075273Y0159405D01*
X0075687Y0158807D02*
X0074400Y0158807D01*
X0074998Y0158208D02*
X0075129Y0158208D01*
X0072527Y0158807D02*
X0072454Y0158807D01*
X0068273Y0158208D02*
X0067842Y0158208D01*
X0074920Y0155286D02*
X0075063Y0155430D01*
X0075798Y0154696D01*
X0076716Y0154696D01*
X0081334Y0150077D01*
X0080798Y0150077D01*
X0079573Y0148852D01*
X0079573Y0147120D01*
X0080798Y0145896D01*
X0081534Y0145896D01*
X0080763Y0145125D01*
X0080763Y0137648D01*
X0081525Y0136886D01*
X0084363Y0134048D01*
X0084363Y0125225D01*
X0078863Y0119725D01*
X0078863Y0118143D01*
X0078429Y0118577D01*
X0076698Y0118577D01*
X0076463Y0118343D01*
X0076463Y0124225D01*
X0074963Y0125725D01*
X0074963Y0133748D01*
X0076563Y0135348D01*
X0076563Y0143825D01*
X0075463Y0144925D01*
X0075463Y0152030D01*
X0075954Y0152520D01*
X0075954Y0154252D01*
X0074920Y0155286D01*
X0074991Y0155216D02*
X0075278Y0155216D01*
X0075589Y0154617D02*
X0076794Y0154617D01*
X0077393Y0154019D02*
X0075954Y0154019D01*
X0075954Y0153420D02*
X0077991Y0153420D01*
X0078590Y0152822D02*
X0075954Y0152822D01*
X0075657Y0152223D02*
X0079188Y0152223D01*
X0079787Y0151625D02*
X0075463Y0151625D01*
X0075463Y0151026D02*
X0080385Y0151026D01*
X0080984Y0150428D02*
X0075463Y0150428D01*
X0075463Y0149829D02*
X0080550Y0149829D01*
X0079951Y0149231D02*
X0075463Y0149231D01*
X0075463Y0148632D02*
X0079573Y0148632D01*
X0079573Y0148034D02*
X0075463Y0148034D01*
X0075463Y0147435D02*
X0079573Y0147435D01*
X0079857Y0146836D02*
X0075463Y0146836D01*
X0075463Y0146238D02*
X0080455Y0146238D01*
X0081278Y0145639D02*
X0075463Y0145639D01*
X0075463Y0145041D02*
X0080763Y0145041D01*
X0080763Y0144442D02*
X0075946Y0144442D01*
X0076544Y0143844D02*
X0080763Y0143844D01*
X0080763Y0143245D02*
X0076563Y0143245D01*
X0076563Y0142647D02*
X0080763Y0142647D01*
X0080763Y0142048D02*
X0076563Y0142048D01*
X0076563Y0141450D02*
X0080763Y0141450D01*
X0080763Y0140851D02*
X0076563Y0140851D01*
X0076563Y0140253D02*
X0080763Y0140253D01*
X0080763Y0139654D02*
X0076563Y0139654D01*
X0076563Y0139056D02*
X0080763Y0139056D01*
X0080763Y0138457D02*
X0076563Y0138457D01*
X0076563Y0137859D02*
X0080763Y0137859D01*
X0081151Y0137260D02*
X0076563Y0137260D01*
X0076563Y0136662D02*
X0081750Y0136662D01*
X0082348Y0136063D02*
X0076563Y0136063D01*
X0076563Y0135465D02*
X0082947Y0135465D01*
X0083545Y0134866D02*
X0081240Y0134866D01*
X0080729Y0135377D02*
X0081954Y0134152D01*
X0081954Y0132420D01*
X0080729Y0131196D01*
X0078998Y0131196D01*
X0077773Y0132420D01*
X0077773Y0134152D01*
X0078998Y0135377D01*
X0080729Y0135377D01*
X0081839Y0134268D02*
X0084144Y0134268D01*
X0084363Y0133669D02*
X0081954Y0133669D01*
X0081954Y0133071D02*
X0084363Y0133071D01*
X0084363Y0132472D02*
X0081954Y0132472D01*
X0081407Y0131874D02*
X0084363Y0131874D01*
X0084363Y0131275D02*
X0080809Y0131275D01*
X0080529Y0130977D02*
X0078798Y0130977D01*
X0077573Y0129752D01*
X0077573Y0128020D01*
X0078798Y0126796D01*
X0080529Y0126796D01*
X0081754Y0128020D01*
X0081754Y0129752D01*
X0080529Y0130977D01*
X0080830Y0130677D02*
X0084363Y0130677D01*
X0084363Y0130078D02*
X0081428Y0130078D01*
X0081754Y0129480D02*
X0084363Y0129480D01*
X0084363Y0128881D02*
X0081754Y0128881D01*
X0081754Y0128283D02*
X0084363Y0128283D01*
X0084363Y0127684D02*
X0081418Y0127684D01*
X0080819Y0127086D02*
X0084363Y0127086D01*
X0084363Y0126487D02*
X0074963Y0126487D01*
X0074963Y0125889D02*
X0084363Y0125889D01*
X0084363Y0125290D02*
X0075398Y0125290D01*
X0075997Y0124692D02*
X0083830Y0124692D01*
X0083232Y0124093D02*
X0076463Y0124093D01*
X0076463Y0123495D02*
X0082633Y0123495D01*
X0082035Y0122896D02*
X0076463Y0122896D01*
X0076463Y0122298D02*
X0081436Y0122298D01*
X0080838Y0121699D02*
X0076463Y0121699D01*
X0076463Y0121101D02*
X0080239Y0121101D01*
X0079641Y0120502D02*
X0076463Y0120502D01*
X0076463Y0119903D02*
X0079042Y0119903D01*
X0078863Y0119305D02*
X0076463Y0119305D01*
X0076463Y0118706D02*
X0078863Y0118706D01*
X0085092Y0118277D02*
X0089202Y0122386D01*
X0089963Y0123148D01*
X0089963Y0130530D01*
X0090298Y0130196D01*
X0092029Y0130196D01*
X0092373Y0130539D01*
X0092373Y0130120D01*
X0093598Y0128896D01*
X0095329Y0128896D01*
X0096554Y0130120D01*
X0096554Y0131757D01*
X0097363Y0130948D01*
X0097363Y0106125D01*
X0096525Y0105286D01*
X0095720Y0105286D01*
X0096254Y0105820D01*
X0096254Y0107552D01*
X0095029Y0108777D01*
X0093298Y0108777D01*
X0092073Y0107552D01*
X0092073Y0105820D01*
X0092607Y0105286D01*
X0087520Y0105286D01*
X0087320Y0105486D01*
X0088054Y0106220D01*
X0088054Y0107952D01*
X0086829Y0109177D01*
X0085098Y0109177D01*
X0084463Y0108543D01*
X0084463Y0114630D01*
X0084998Y0114096D01*
X0086729Y0114096D01*
X0087954Y0115320D01*
X0087954Y0117052D01*
X0086729Y0118277D01*
X0085092Y0118277D01*
X0085522Y0118706D02*
X0097363Y0118706D01*
X0097363Y0118108D02*
X0086898Y0118108D01*
X0087497Y0117509D02*
X0097363Y0117509D01*
X0097363Y0116911D02*
X0087954Y0116911D01*
X0087954Y0116312D02*
X0097363Y0116312D01*
X0097363Y0115714D02*
X0087954Y0115714D01*
X0087749Y0115115D02*
X0093136Y0115115D01*
X0093298Y0115277D02*
X0092073Y0114052D01*
X0092073Y0112320D01*
X0093298Y0111096D01*
X0095029Y0111096D01*
X0096254Y0112320D01*
X0096254Y0114052D01*
X0095029Y0115277D01*
X0093298Y0115277D01*
X0092538Y0114517D02*
X0087151Y0114517D01*
X0084576Y0114517D02*
X0084463Y0114517D01*
X0084463Y0113918D02*
X0092073Y0113918D01*
X0092073Y0113320D02*
X0084463Y0113320D01*
X0084463Y0112721D02*
X0092073Y0112721D01*
X0092270Y0112123D02*
X0084463Y0112123D01*
X0084463Y0111524D02*
X0092869Y0111524D01*
X0095458Y0111524D02*
X0097363Y0111524D01*
X0097363Y0110926D02*
X0084463Y0110926D01*
X0084463Y0110327D02*
X0097363Y0110327D01*
X0097363Y0109729D02*
X0084463Y0109729D01*
X0084463Y0109130D02*
X0085051Y0109130D01*
X0086876Y0109130D02*
X0097363Y0109130D01*
X0097363Y0108532D02*
X0095275Y0108532D01*
X0095873Y0107933D02*
X0097363Y0107933D01*
X0097363Y0107335D02*
X0096254Y0107335D01*
X0096254Y0106736D02*
X0097363Y0106736D01*
X0097363Y0106138D02*
X0096254Y0106138D01*
X0095973Y0105539D02*
X0096778Y0105539D01*
X0098659Y0103744D02*
X0098863Y0103744D01*
X0098863Y0103948D02*
X0098863Y0098225D01*
X0093363Y0092725D01*
X0093363Y0087648D01*
X0094863Y0086148D01*
X0094863Y0079677D01*
X0094498Y0079677D01*
X0093273Y0078452D01*
X0093273Y0076720D01*
X0094498Y0075496D01*
X0096134Y0075496D01*
X0094625Y0073986D01*
X0094416Y0073777D01*
X0094298Y0073777D01*
X0093073Y0072552D01*
X0093073Y0070820D01*
X0093407Y0070486D01*
X0093202Y0070486D01*
X0091763Y0071925D01*
X0091763Y0072230D01*
X0092554Y0073020D01*
X0092554Y0074752D01*
X0091329Y0075977D01*
X0089598Y0075977D01*
X0088373Y0074752D01*
X0088373Y0073020D01*
X0089163Y0072230D01*
X0089163Y0070848D01*
X0089925Y0070086D01*
X0092125Y0067886D01*
X0095125Y0067886D01*
X0094025Y0066786D01*
X0090420Y0066786D01*
X0090454Y0066820D01*
X0090454Y0068552D01*
X0089463Y0069543D01*
X0089463Y0070366D01*
X0088643Y0071186D01*
X0081163Y0078666D01*
X0080343Y0079486D01*
X0075320Y0079486D01*
X0074629Y0080177D01*
X0072898Y0080177D01*
X0071673Y0078952D01*
X0071673Y0077220D01*
X0072898Y0075996D01*
X0074016Y0075996D01*
X0076163Y0073848D01*
X0076163Y0060525D01*
X0071463Y0065225D01*
X0071463Y0085930D01*
X0071798Y0085596D01*
X0073529Y0085596D01*
X0074413Y0086480D01*
X0074798Y0086096D01*
X0076529Y0086096D01*
X0077754Y0087320D01*
X0077754Y0088257D01*
X0079834Y0086177D01*
X0079298Y0086177D01*
X0078073Y0084952D01*
X0078073Y0083220D01*
X0079298Y0081996D01*
X0081029Y0081996D01*
X0082254Y0083220D01*
X0082254Y0084952D01*
X0081820Y0085386D01*
X0083702Y0085386D01*
X0085702Y0087386D01*
X0085911Y0087596D01*
X0086029Y0087596D01*
X0087254Y0088820D01*
X0087254Y0090552D01*
X0086029Y0091777D01*
X0084298Y0091777D01*
X0083963Y0091443D01*
X0083963Y0093225D01*
X0083202Y0093986D01*
X0082163Y0095025D01*
X0082163Y0097730D01*
X0082298Y0097596D01*
X0084029Y0097596D01*
X0085254Y0098820D01*
X0085254Y0100552D01*
X0084029Y0101777D01*
X0083792Y0101777D01*
X0084454Y0102439D01*
X0084998Y0101896D01*
X0086729Y0101896D01*
X0087520Y0102686D01*
X0089207Y0102686D01*
X0089073Y0102552D01*
X0089073Y0100820D01*
X0090207Y0099686D01*
X0089073Y0098552D01*
X0089073Y0097277D01*
X0088298Y0097277D01*
X0087073Y0096052D01*
X0087073Y0094320D01*
X0088298Y0093096D01*
X0090029Y0093096D01*
X0091254Y0094320D01*
X0091254Y0095596D01*
X0092029Y0095596D01*
X0093254Y0096820D01*
X0093254Y0098552D01*
X0092120Y0099686D01*
X0092663Y0100230D01*
X0093298Y0099596D01*
X0095029Y0099596D01*
X0096254Y0100820D01*
X0096254Y0102552D01*
X0096120Y0102686D01*
X0097602Y0102686D01*
X0098863Y0103948D01*
X0098863Y0103145D02*
X0098061Y0103145D01*
X0098863Y0102547D02*
X0096254Y0102547D01*
X0096254Y0101948D02*
X0098863Y0101948D01*
X0098863Y0101350D02*
X0096254Y0101350D01*
X0096185Y0100751D02*
X0098863Y0100751D01*
X0098863Y0100153D02*
X0095586Y0100153D01*
X0092741Y0100153D02*
X0092586Y0100153D01*
X0092252Y0099554D02*
X0098863Y0099554D01*
X0098863Y0098956D02*
X0092851Y0098956D01*
X0093254Y0098357D02*
X0098863Y0098357D01*
X0098397Y0097759D02*
X0093254Y0097759D01*
X0093254Y0097160D02*
X0097799Y0097160D01*
X0097200Y0096562D02*
X0092995Y0096562D01*
X0092397Y0095963D02*
X0096602Y0095963D01*
X0096003Y0095365D02*
X0091254Y0095365D01*
X0091254Y0094766D02*
X0095405Y0094766D01*
X0094806Y0094167D02*
X0091101Y0094167D01*
X0090503Y0093569D02*
X0094208Y0093569D01*
X0093609Y0092970D02*
X0083963Y0092970D01*
X0083963Y0092372D02*
X0093363Y0092372D01*
X0093363Y0091773D02*
X0086033Y0091773D01*
X0086631Y0091175D02*
X0093363Y0091175D01*
X0093363Y0090576D02*
X0087230Y0090576D01*
X0087254Y0089978D02*
X0093363Y0089978D01*
X0093363Y0089379D02*
X0087254Y0089379D01*
X0087215Y0088781D02*
X0093363Y0088781D01*
X0093363Y0088182D02*
X0086616Y0088182D01*
X0085899Y0087584D02*
X0093427Y0087584D01*
X0094026Y0086985D02*
X0085301Y0086985D01*
X0084702Y0086387D02*
X0094624Y0086387D01*
X0094863Y0085788D02*
X0084104Y0085788D01*
X0082016Y0085190D02*
X0094863Y0085190D01*
X0094863Y0084591D02*
X0082254Y0084591D01*
X0082254Y0083993D02*
X0094863Y0083993D01*
X0094863Y0083394D02*
X0082254Y0083394D01*
X0081829Y0082796D02*
X0094863Y0082796D01*
X0094863Y0082197D02*
X0081231Y0082197D01*
X0079096Y0082197D02*
X0071463Y0082197D01*
X0071463Y0081599D02*
X0094863Y0081599D01*
X0094863Y0081000D02*
X0071463Y0081000D01*
X0071463Y0080402D02*
X0094863Y0080402D01*
X0094863Y0079803D02*
X0075003Y0079803D01*
X0072524Y0079803D02*
X0071463Y0079803D01*
X0071463Y0079205D02*
X0071925Y0079205D01*
X0071673Y0078606D02*
X0071463Y0078606D01*
X0071463Y0078008D02*
X0071673Y0078008D01*
X0071673Y0077409D02*
X0071463Y0077409D01*
X0071463Y0076811D02*
X0072083Y0076811D01*
X0072681Y0076212D02*
X0071463Y0076212D01*
X0071463Y0075614D02*
X0074398Y0075614D01*
X0074996Y0075015D02*
X0071463Y0075015D01*
X0071463Y0074417D02*
X0075595Y0074417D01*
X0076163Y0073818D02*
X0071463Y0073818D01*
X0071463Y0073220D02*
X0076163Y0073220D01*
X0076163Y0072621D02*
X0071463Y0072621D01*
X0071463Y0072023D02*
X0076163Y0072023D01*
X0076163Y0071424D02*
X0071463Y0071424D01*
X0071463Y0070826D02*
X0076163Y0070826D01*
X0076163Y0070227D02*
X0071463Y0070227D01*
X0071463Y0069629D02*
X0076163Y0069629D01*
X0076163Y0069030D02*
X0071463Y0069030D01*
X0071463Y0068432D02*
X0076163Y0068432D01*
X0076163Y0067833D02*
X0071463Y0067833D01*
X0071463Y0067234D02*
X0076163Y0067234D01*
X0076163Y0066636D02*
X0071463Y0066636D01*
X0071463Y0066037D02*
X0076163Y0066037D01*
X0076163Y0065439D02*
X0071463Y0065439D01*
X0071848Y0064840D02*
X0076163Y0064840D01*
X0076163Y0064242D02*
X0072446Y0064242D01*
X0073045Y0063643D02*
X0076163Y0063643D01*
X0076163Y0063045D02*
X0073643Y0063045D01*
X0074242Y0062446D02*
X0076163Y0062446D01*
X0076163Y0061848D02*
X0074840Y0061848D01*
X0075439Y0061249D02*
X0076163Y0061249D01*
X0076163Y0060651D02*
X0076037Y0060651D01*
X0080163Y0060725D02*
X0080163Y0065648D01*
X0080573Y0066057D01*
X0080573Y0065720D01*
X0081798Y0064496D01*
X0083516Y0064496D01*
X0083825Y0064186D01*
X0095102Y0064186D01*
X0096373Y0065457D01*
X0096373Y0065320D01*
X0097598Y0064096D01*
X0099234Y0064096D01*
X0098425Y0063286D01*
X0095925Y0063286D01*
X0089425Y0056786D01*
X0084102Y0056786D01*
X0080163Y0060725D01*
X0080237Y0060651D02*
X0084373Y0060651D01*
X0084373Y0060520D02*
X0085598Y0059296D01*
X0087329Y0059296D01*
X0088554Y0060520D01*
X0088554Y0062252D01*
X0087329Y0063477D01*
X0085598Y0063477D01*
X0084373Y0062252D01*
X0084373Y0060520D01*
X0084841Y0060052D02*
X0080836Y0060052D01*
X0081434Y0059454D02*
X0085439Y0059454D01*
X0087487Y0059454D02*
X0092093Y0059454D01*
X0092691Y0060052D02*
X0088086Y0060052D01*
X0088554Y0060651D02*
X0093290Y0060651D01*
X0093888Y0061249D02*
X0088554Y0061249D01*
X0088554Y0061848D02*
X0094487Y0061848D01*
X0095085Y0062446D02*
X0088360Y0062446D01*
X0087761Y0063045D02*
X0095684Y0063045D01*
X0095158Y0064242D02*
X0097451Y0064242D01*
X0096853Y0064840D02*
X0095756Y0064840D01*
X0096355Y0065439D02*
X0096373Y0065439D01*
X0094473Y0067234D02*
X0090454Y0067234D01*
X0090454Y0067833D02*
X0095072Y0067833D01*
X0091580Y0068432D02*
X0090454Y0068432D01*
X0089976Y0069030D02*
X0090981Y0069030D01*
X0090383Y0069629D02*
X0089463Y0069629D01*
X0089463Y0070227D02*
X0089784Y0070227D01*
X0089186Y0070826D02*
X0089004Y0070826D01*
X0088643Y0071186D02*
X0088643Y0071186D01*
X0088406Y0071424D02*
X0089163Y0071424D01*
X0089163Y0072023D02*
X0087807Y0072023D01*
X0087209Y0072621D02*
X0088772Y0072621D01*
X0088373Y0073220D02*
X0086610Y0073220D01*
X0086012Y0073818D02*
X0088373Y0073818D01*
X0088373Y0074417D02*
X0085413Y0074417D01*
X0084815Y0075015D02*
X0088636Y0075015D01*
X0089234Y0075614D02*
X0084216Y0075614D01*
X0083618Y0076212D02*
X0093781Y0076212D01*
X0093273Y0076811D02*
X0083019Y0076811D01*
X0082421Y0077409D02*
X0093273Y0077409D01*
X0093273Y0078008D02*
X0081822Y0078008D01*
X0081223Y0078606D02*
X0093427Y0078606D01*
X0094025Y0079205D02*
X0080625Y0079205D01*
X0078498Y0082796D02*
X0071463Y0082796D01*
X0071463Y0083394D02*
X0078073Y0083394D01*
X0078073Y0083993D02*
X0071463Y0083993D01*
X0071463Y0084591D02*
X0078073Y0084591D01*
X0078310Y0085190D02*
X0071463Y0085190D01*
X0071463Y0085788D02*
X0071605Y0085788D01*
X0073722Y0085788D02*
X0078909Y0085788D01*
X0079624Y0086387D02*
X0076820Y0086387D01*
X0077419Y0086985D02*
X0079026Y0086985D01*
X0078427Y0087584D02*
X0077754Y0087584D01*
X0077754Y0088182D02*
X0077829Y0088182D01*
X0074506Y0086387D02*
X0074320Y0086387D01*
X0083963Y0091773D02*
X0084294Y0091773D01*
X0083619Y0093569D02*
X0087824Y0093569D01*
X0087226Y0094167D02*
X0083021Y0094167D01*
X0083202Y0093986D02*
X0083202Y0093986D01*
X0082422Y0094766D02*
X0087073Y0094766D01*
X0087073Y0095365D02*
X0082163Y0095365D01*
X0082163Y0095963D02*
X0087073Y0095963D01*
X0087582Y0096562D02*
X0082163Y0096562D01*
X0082163Y0097160D02*
X0088181Y0097160D01*
X0089073Y0097759D02*
X0084192Y0097759D01*
X0084791Y0098357D02*
X0089073Y0098357D01*
X0089476Y0098956D02*
X0085254Y0098956D01*
X0085254Y0099554D02*
X0090075Y0099554D01*
X0089741Y0100153D02*
X0085254Y0100153D01*
X0085055Y0100751D02*
X0089142Y0100751D01*
X0089073Y0101350D02*
X0084457Y0101350D01*
X0084945Y0101948D02*
X0083964Y0101948D01*
X0086782Y0101948D02*
X0089073Y0101948D01*
X0089073Y0102547D02*
X0087380Y0102547D01*
X0087373Y0105539D02*
X0092354Y0105539D01*
X0092073Y0106138D02*
X0087971Y0106138D01*
X0088054Y0106736D02*
X0092073Y0106736D01*
X0092073Y0107335D02*
X0088054Y0107335D01*
X0088054Y0107933D02*
X0092454Y0107933D01*
X0093052Y0108532D02*
X0087475Y0108532D01*
X0096056Y0112123D02*
X0097363Y0112123D01*
X0097363Y0112721D02*
X0096254Y0112721D01*
X0096254Y0113320D02*
X0097363Y0113320D01*
X0097363Y0113918D02*
X0096254Y0113918D01*
X0095789Y0114517D02*
X0097363Y0114517D01*
X0097363Y0115115D02*
X0095191Y0115115D01*
X0097363Y0119305D02*
X0086121Y0119305D01*
X0086719Y0119903D02*
X0097363Y0119903D01*
X0097363Y0120502D02*
X0087318Y0120502D01*
X0087916Y0121101D02*
X0097363Y0121101D01*
X0097363Y0121699D02*
X0088515Y0121699D01*
X0089113Y0122298D02*
X0097363Y0122298D01*
X0097363Y0122896D02*
X0089712Y0122896D01*
X0089963Y0123495D02*
X0097363Y0123495D01*
X0097363Y0124093D02*
X0089963Y0124093D01*
X0089963Y0124692D02*
X0097363Y0124692D01*
X0097363Y0125290D02*
X0089963Y0125290D01*
X0089963Y0125889D02*
X0097363Y0125889D01*
X0097363Y0126487D02*
X0089963Y0126487D01*
X0089963Y0127086D02*
X0097363Y0127086D01*
X0097363Y0127684D02*
X0089963Y0127684D01*
X0089963Y0128283D02*
X0097363Y0128283D01*
X0097363Y0128881D02*
X0089963Y0128881D01*
X0089963Y0129480D02*
X0093014Y0129480D01*
X0092415Y0130078D02*
X0089963Y0130078D01*
X0093254Y0133071D02*
X0093591Y0133071D01*
X0092737Y0133669D02*
X0094642Y0133669D01*
X0094163Y0134268D02*
X0092139Y0134268D01*
X0090980Y0135465D02*
X0094163Y0135465D01*
X0094163Y0136063D02*
X0091579Y0136063D01*
X0092177Y0136662D02*
X0094163Y0136662D01*
X0094399Y0137260D02*
X0092776Y0137260D01*
X0093374Y0137859D02*
X0094997Y0137859D01*
X0095596Y0138457D02*
X0093463Y0138457D01*
X0093463Y0139056D02*
X0096195Y0139056D01*
X0096793Y0139654D02*
X0093463Y0139654D01*
X0093463Y0140253D02*
X0097363Y0140253D01*
X0097363Y0140851D02*
X0093463Y0140851D01*
X0093463Y0141450D02*
X0097363Y0141450D01*
X0097363Y0142048D02*
X0093463Y0142048D01*
X0093463Y0142647D02*
X0097363Y0142647D01*
X0097363Y0143245D02*
X0093463Y0143245D01*
X0093463Y0143844D02*
X0097363Y0143844D01*
X0097363Y0144442D02*
X0093463Y0144442D01*
X0093463Y0145041D02*
X0097363Y0145041D01*
X0097363Y0145639D02*
X0097073Y0145639D01*
X0094254Y0145639D02*
X0093463Y0145639D01*
X0093655Y0146238D02*
X0092950Y0146238D01*
X0092352Y0146836D02*
X0093573Y0146836D01*
X0093573Y0147435D02*
X0091753Y0147435D01*
X0091155Y0148034D02*
X0093573Y0148034D01*
X0094153Y0148632D02*
X0090556Y0148632D01*
X0089958Y0149231D02*
X0094751Y0149231D01*
X0094382Y0149829D02*
X0089359Y0149829D01*
X0088761Y0150428D02*
X0093784Y0150428D01*
X0093185Y0151026D02*
X0088162Y0151026D01*
X0087564Y0151625D02*
X0092587Y0151625D01*
X0091988Y0152223D02*
X0086965Y0152223D01*
X0086367Y0152822D02*
X0091390Y0152822D01*
X0090791Y0153420D02*
X0085768Y0153420D01*
X0085170Y0154019D02*
X0090763Y0154019D01*
X0090763Y0154617D02*
X0084571Y0154617D01*
X0083973Y0155216D02*
X0090478Y0155216D01*
X0089973Y0155814D02*
X0083374Y0155814D01*
X0083163Y0156413D02*
X0089973Y0156413D01*
X0089973Y0157011D02*
X0087427Y0157011D01*
X0088025Y0157610D02*
X0090130Y0157610D01*
X0089742Y0158208D02*
X0090729Y0158208D01*
X0091073Y0158807D02*
X0090340Y0158807D01*
X0090754Y0159405D02*
X0091073Y0159405D01*
X0091073Y0160004D02*
X0090754Y0160004D01*
X0090754Y0160602D02*
X0091423Y0160602D01*
X0092021Y0161201D02*
X0090506Y0161201D01*
X0089907Y0161799D02*
X0093738Y0161799D01*
X0094336Y0162398D02*
X0086108Y0162398D01*
X0086707Y0161799D02*
X0087420Y0161799D01*
X0084218Y0162398D02*
X0057563Y0162398D01*
X0057563Y0162996D02*
X0103363Y0162996D01*
X0103363Y0162398D02*
X0097790Y0162398D01*
X0098389Y0161799D02*
X0103363Y0161799D01*
X0103363Y0161201D02*
X0098987Y0161201D01*
X0099586Y0160602D02*
X0103363Y0160602D01*
X0103363Y0160004D02*
X0099763Y0160004D01*
X0099763Y0159405D02*
X0103363Y0159405D01*
X0103363Y0158807D02*
X0099782Y0158807D01*
X0100380Y0158208D02*
X0103363Y0158208D01*
X0103363Y0157610D02*
X0102297Y0157610D01*
X0102895Y0157011D02*
X0103363Y0157011D01*
X0103363Y0156413D02*
X0103054Y0156413D01*
X0103054Y0155814D02*
X0103363Y0155814D01*
X0103363Y0155216D02*
X0103054Y0155216D01*
X0102971Y0154617D02*
X0103363Y0154617D01*
X0108963Y0154617D02*
X0111735Y0154617D01*
X0111962Y0154711D02*
X0110667Y0154175D01*
X0109675Y0153183D01*
X0109138Y0151888D01*
X0109138Y0150485D01*
X0109675Y0149190D01*
X0110667Y0148198D01*
X0111962Y0147661D01*
X0113365Y0147661D01*
X0114660Y0148198D01*
X0115652Y0149190D01*
X0116188Y0150485D01*
X0116188Y0151888D01*
X0115652Y0153183D01*
X0114660Y0154175D01*
X0113365Y0154711D01*
X0111962Y0154711D01*
X0110511Y0154019D02*
X0108963Y0154019D01*
X0108963Y0153420D02*
X0109912Y0153420D01*
X0109525Y0152822D02*
X0108963Y0152822D01*
X0108963Y0152223D02*
X0109277Y0152223D01*
X0109138Y0151625D02*
X0108963Y0151625D01*
X0108963Y0151026D02*
X0109138Y0151026D01*
X0109162Y0150428D02*
X0108963Y0150428D01*
X0108963Y0149829D02*
X0109410Y0149829D01*
X0109658Y0149231D02*
X0108963Y0149231D01*
X0108963Y0148632D02*
X0110233Y0148632D01*
X0111064Y0148034D02*
X0108963Y0148034D01*
X0108963Y0147435D02*
X0116463Y0147435D01*
X0116463Y0148034D02*
X0114263Y0148034D01*
X0115094Y0148632D02*
X0116463Y0148632D01*
X0116463Y0149231D02*
X0115669Y0149231D01*
X0115917Y0149829D02*
X0116463Y0149829D01*
X0116463Y0150428D02*
X0116165Y0150428D01*
X0116188Y0151026D02*
X0116463Y0151026D01*
X0116463Y0151625D02*
X0116188Y0151625D01*
X0116049Y0152223D02*
X0116463Y0152223D01*
X0116463Y0152822D02*
X0115802Y0152822D01*
X0115415Y0153420D02*
X0116463Y0153420D01*
X0116463Y0154019D02*
X0114816Y0154019D01*
X0113592Y0154617D02*
X0116463Y0154617D01*
X0116463Y0155216D02*
X0108963Y0155216D01*
X0108963Y0155814D02*
X0116463Y0155814D01*
X0116463Y0156413D02*
X0108963Y0156413D01*
X0108963Y0157011D02*
X0116463Y0157011D01*
X0116463Y0157610D02*
X0108963Y0157610D01*
X0108963Y0158208D02*
X0116463Y0158208D01*
X0116463Y0158807D02*
X0108963Y0158807D01*
X0108963Y0159405D02*
X0116463Y0159405D01*
X0116463Y0160004D02*
X0108963Y0160004D01*
X0108963Y0160602D02*
X0116463Y0160602D01*
X0116463Y0161201D02*
X0108963Y0161201D01*
X0108963Y0161799D02*
X0116463Y0161799D01*
X0116463Y0162398D02*
X0108963Y0162398D01*
X0108963Y0162996D02*
X0116463Y0162996D01*
X0116463Y0163595D02*
X0108963Y0163595D01*
X0108963Y0164193D02*
X0116463Y0164193D01*
X0116463Y0164792D02*
X0108963Y0164792D01*
X0108963Y0165390D02*
X0116463Y0165390D01*
X0116463Y0165989D02*
X0109304Y0165989D01*
X0109903Y0166587D02*
X0116463Y0166587D01*
X0116463Y0167186D02*
X0110501Y0167186D01*
X0111100Y0167784D02*
X0111665Y0167784D01*
X0113662Y0167784D02*
X0116463Y0167784D01*
X0116463Y0168383D02*
X0114845Y0168383D01*
X0115444Y0168981D02*
X0116463Y0168981D01*
X0116463Y0169580D02*
X0115813Y0169580D01*
X0116061Y0170178D02*
X0116463Y0170178D01*
X0116463Y0170777D02*
X0116188Y0170777D01*
X0116188Y0171375D02*
X0116463Y0171375D01*
X0116463Y0171974D02*
X0116153Y0171974D01*
X0115905Y0172572D02*
X0116463Y0172572D01*
X0116463Y0173171D02*
X0115657Y0173171D01*
X0115065Y0173770D02*
X0116463Y0173770D01*
X0116463Y0174368D02*
X0114193Y0174368D01*
X0112979Y0176164D02*
X0116463Y0176164D01*
X0116463Y0176762D02*
X0113578Y0176762D01*
X0113963Y0177361D02*
X0116463Y0177361D01*
X0116463Y0177959D02*
X0114083Y0177959D01*
X0115020Y0178558D02*
X0116463Y0178558D01*
X0116463Y0179156D02*
X0115618Y0179156D01*
X0115886Y0179755D02*
X0116463Y0179755D01*
X0116463Y0180353D02*
X0116134Y0180353D01*
X0116188Y0180952D02*
X0116463Y0180952D01*
X0116463Y0181550D02*
X0116188Y0181550D01*
X0116080Y0182149D02*
X0116463Y0182149D01*
X0116463Y0182747D02*
X0115832Y0182747D01*
X0115489Y0183346D02*
X0116463Y0183346D01*
X0116463Y0183944D02*
X0114891Y0183944D01*
X0113772Y0184543D02*
X0116463Y0184543D01*
X0116463Y0185141D02*
X0105575Y0185141D01*
X0105529Y0185096D02*
X0106754Y0186320D01*
X0106754Y0188052D01*
X0105529Y0189277D01*
X0103798Y0189277D01*
X0103413Y0188893D01*
X0103104Y0189203D01*
X0103403Y0189365D01*
X0103435Y0189361D01*
X0103509Y0189422D01*
X0103593Y0189467D01*
X0103602Y0189499D01*
X0103870Y0189720D01*
X0103902Y0189723D01*
X0103963Y0189796D01*
X0104037Y0189857D01*
X0104040Y0189889D01*
X0104261Y0190157D01*
X0104292Y0190167D01*
X0104337Y0190250D01*
X0104398Y0190324D01*
X0104395Y0190356D01*
X0104560Y0190662D01*
X0104589Y0190677D01*
X0104617Y0190768D01*
X0104663Y0190852D01*
X0104653Y0190883D01*
X0104757Y0191214D01*
X0104783Y0191235D01*
X0104793Y0191329D01*
X0104822Y0191420D01*
X0104807Y0191449D01*
X0104845Y0191795D01*
X0104867Y0191820D01*
X0104859Y0191915D01*
X0104869Y0192009D01*
X0104848Y0192035D01*
X0104819Y0192381D01*
X0104835Y0192411D01*
X0104809Y0192501D01*
X0104801Y0192596D01*
X0104775Y0192617D01*
X0104678Y0192952D01*
X0104688Y0192984D01*
X0104644Y0193068D01*
X0104618Y0193158D01*
X0104589Y0193174D01*
X0104428Y0193483D01*
X0104431Y0193517D01*
X0104372Y0193590D01*
X0104328Y0193674D01*
X0104296Y0193684D01*
X0104077Y0193955D01*
X0104074Y0193988D01*
X0104002Y0194049D01*
X0103942Y0194122D01*
X0103909Y0194126D01*
X0103641Y0194348D01*
X0103632Y0194381D01*
X0103549Y0194425D01*
X0103476Y0194486D01*
X0103443Y0194483D01*
X0103136Y0194648D01*
X0103120Y0194678D01*
X0103030Y0194706D01*
X0102947Y0194751D01*
X0102915Y0194741D01*
X0102582Y0194843D01*
X0102560Y0194869D01*
X0102467Y0194878D01*
X0102376Y0194906D01*
X0102347Y0194890D01*
X0102016Y0194923D01*
X0102004Y0194935D01*
X0101948Y0194935D01*
X0101935Y0194946D01*
X0101860Y0194939D01*
X0101786Y0194946D01*
X0101773Y0194935D01*
X0101716Y0194935D01*
X0101704Y0194923D01*
X0101372Y0194890D01*
X0101342Y0194906D01*
X0101252Y0194879D01*
X0101158Y0194869D01*
X0101137Y0194844D01*
X0100801Y0194742D01*
X0100769Y0194752D01*
X0100686Y0194707D01*
X0100595Y0194679D01*
X0100579Y0194650D01*
X0100270Y0194485D01*
X0100237Y0194488D01*
X0100164Y0194428D01*
X0100080Y0194383D01*
X0100071Y0194351D01*
X0099800Y0194129D01*
X0099767Y0194126D01*
X0099707Y0194053D01*
X0099633Y0193993D01*
X0099630Y0193959D01*
X0099408Y0193688D01*
X0099376Y0193679D01*
X0099331Y0193595D01*
X0099271Y0193522D01*
X0099274Y0193489D01*
X0099109Y0193180D01*
X0099080Y0193164D01*
X0099052Y0193074D01*
X0099008Y0192990D01*
X0099017Y0192958D01*
X0098916Y0192623D01*
X0098890Y0192602D01*
X0098881Y0192507D01*
X0098853Y0192417D01*
X0098869Y0192387D01*
X0098835Y0192041D01*
X0098815Y0192017D01*
X0098823Y0191921D01*
X0098813Y0191824D01*
X0098833Y0191800D01*
X0098863Y0191450D01*
X0098847Y0191421D01*
X0098873Y0191330D01*
X0098881Y0191237D01*
X0098907Y0191215D01*
X0099007Y0190875D01*
X0098997Y0190843D01*
X0099041Y0190760D01*
X0099067Y0190669D01*
X0099097Y0190653D01*
X0099262Y0190340D01*
X0099259Y0190306D01*
X0099318Y0190233D01*
X0099362Y0190150D01*
X0099395Y0190140D01*
X0099619Y0189866D01*
X0099622Y0189833D01*
X0099695Y0189773D01*
X0099755Y0189700D01*
X0099788Y0189697D01*
X0100062Y0189473D01*
X0100072Y0189440D01*
X0100155Y0189396D01*
X0100228Y0189337D01*
X0100262Y0189340D01*
X0100575Y0189175D01*
X0100591Y0189145D01*
X0100682Y0189119D01*
X0100765Y0189075D01*
X0100797Y0189085D01*
X0101036Y0189015D01*
X0100073Y0188052D01*
X0100073Y0186320D01*
X0101298Y0185096D01*
X0103029Y0185096D01*
X0103413Y0185480D01*
X0103798Y0185096D01*
X0105529Y0185096D01*
X0106173Y0185740D02*
X0116463Y0185740D01*
X0116463Y0186338D02*
X0106754Y0186338D01*
X0106754Y0186937D02*
X0116463Y0186937D01*
X0116463Y0187535D02*
X0106754Y0187535D01*
X0106673Y0188134D02*
X0110822Y0188134D01*
X0110667Y0188198D02*
X0111962Y0187661D01*
X0113365Y0187661D01*
X0114660Y0188198D01*
X0115652Y0189190D01*
X0116188Y0190485D01*
X0116188Y0191887D01*
X0115652Y0193183D01*
X0114660Y0194175D01*
X0113365Y0194711D01*
X0111962Y0194711D01*
X0110667Y0194175D01*
X0109675Y0193183D01*
X0109138Y0191887D01*
X0109138Y0190485D01*
X0109675Y0189190D01*
X0110667Y0188198D01*
X0110132Y0188732D02*
X0106074Y0188732D01*
X0104073Y0189929D02*
X0109369Y0189929D01*
X0109138Y0190528D02*
X0104487Y0190528D01*
X0104730Y0191126D02*
X0109138Y0191126D01*
X0109138Y0191725D02*
X0104837Y0191725D01*
X0104824Y0192323D02*
X0109319Y0192323D01*
X0109567Y0192922D02*
X0104687Y0192922D01*
X0104428Y0193520D02*
X0110012Y0193520D01*
X0110611Y0194119D02*
X0103945Y0194119D01*
X0103008Y0194717D02*
X0116463Y0194717D01*
X0116463Y0194119D02*
X0114716Y0194119D01*
X0115315Y0193520D02*
X0116463Y0193520D01*
X0116463Y0192922D02*
X0115760Y0192922D01*
X0116008Y0192323D02*
X0116463Y0192323D01*
X0116463Y0191725D02*
X0116188Y0191725D01*
X0116188Y0191126D02*
X0116463Y0191126D01*
X0116463Y0190528D02*
X0116188Y0190528D01*
X0115958Y0189929D02*
X0116463Y0189929D01*
X0116463Y0189331D02*
X0115710Y0189331D01*
X0115195Y0188732D02*
X0116463Y0188732D01*
X0116463Y0188134D02*
X0114505Y0188134D01*
X0109617Y0189331D02*
X0103340Y0189331D01*
X0100753Y0188732D02*
X0086874Y0188732D01*
X0086985Y0188937D02*
X0087076Y0188966D01*
X0087170Y0188976D01*
X0087191Y0189002D01*
X0087522Y0189106D01*
X0087553Y0189096D01*
X0087637Y0189142D01*
X0087728Y0189170D01*
X0087743Y0189199D01*
X0088048Y0189365D01*
X0088081Y0189361D01*
X0088155Y0189422D01*
X0088238Y0189467D01*
X0088248Y0189499D01*
X0088516Y0189720D01*
X0088548Y0189723D01*
X0088609Y0189796D01*
X0088682Y0189857D01*
X0088685Y0189889D01*
X0088906Y0190157D01*
X0088937Y0190167D01*
X0088983Y0190250D01*
X0089043Y0190324D01*
X0089040Y0190356D01*
X0089206Y0190662D01*
X0089235Y0190677D01*
X0089263Y0190768D01*
X0089308Y0190852D01*
X0089299Y0190883D01*
X0089403Y0191214D01*
X0089428Y0191235D01*
X0089439Y0191329D01*
X0089468Y0191420D01*
X0089452Y0191449D01*
X0089491Y0191795D01*
X0089512Y0191820D01*
X0089504Y0191915D01*
X0089515Y0192009D01*
X0089494Y0192035D01*
X0089465Y0192381D01*
X0089481Y0192411D01*
X0089455Y0192501D01*
X0089447Y0192596D01*
X0089421Y0192617D01*
X0089324Y0192952D01*
X0089334Y0192984D01*
X0089290Y0193068D01*
X0089264Y0193158D01*
X0089234Y0193174D01*
X0089073Y0193483D01*
X0089077Y0193517D01*
X0089018Y0193590D01*
X0088974Y0193674D01*
X0088942Y0193684D01*
X0088723Y0193955D01*
X0088720Y0193988D01*
X0088647Y0194049D01*
X0088588Y0194122D01*
X0088555Y0194126D01*
X0088287Y0194348D01*
X0088277Y0194381D01*
X0088194Y0194425D01*
X0088122Y0194486D01*
X0088088Y0194483D01*
X0087782Y0194648D01*
X0087766Y0194678D01*
X0087676Y0194706D01*
X0087593Y0194751D01*
X0087560Y0194741D01*
X0087227Y0194843D01*
X0087206Y0194869D01*
X0087112Y0194878D01*
X0087022Y0194906D01*
X0086992Y0194890D01*
X0086662Y0194923D01*
X0086650Y0194935D01*
X0086594Y0194935D01*
X0086581Y0194946D01*
X0086506Y0194939D01*
X0086432Y0194946D01*
X0086418Y0194935D01*
X0086362Y0194935D01*
X0086350Y0194923D01*
X0086017Y0194890D01*
X0085988Y0194906D01*
X0085898Y0194879D01*
X0085803Y0194869D01*
X0085782Y0194844D01*
X0085447Y0194742D01*
X0085415Y0194752D01*
X0085331Y0194707D01*
X0085241Y0194679D01*
X0085225Y0194650D01*
X0084916Y0194485D01*
X0084883Y0194488D01*
X0084810Y0194428D01*
X0084726Y0194383D01*
X0084716Y0194351D01*
X0084445Y0194129D01*
X0084412Y0194126D01*
X0084352Y0194053D01*
X0084279Y0193993D01*
X0084276Y0193959D01*
X0084053Y0193688D01*
X0084022Y0193679D01*
X0083977Y0193595D01*
X0083917Y0193522D01*
X0083920Y0193489D01*
X0083755Y0193180D01*
X0083726Y0193164D01*
X0083698Y0193074D01*
X0083653Y0192990D01*
X0083663Y0192958D01*
X0083561Y0192623D01*
X0083536Y0192602D01*
X0083526Y0192507D01*
X0083499Y0192417D01*
X0083514Y0192387D01*
X0083480Y0192041D01*
X0083460Y0192017D01*
X0083469Y0191921D01*
X0083459Y0191824D01*
X0083479Y0191800D01*
X0083509Y0191450D01*
X0083493Y0191421D01*
X0083519Y0191330D01*
X0083527Y0191237D01*
X0083553Y0191215D01*
X0083653Y0190875D01*
X0083643Y0190843D01*
X0083687Y0190760D01*
X0083713Y0190669D01*
X0083743Y0190653D01*
X0083908Y0190340D01*
X0083904Y0190306D01*
X0083964Y0190233D01*
X0084008Y0190150D01*
X0084040Y0190140D01*
X0084264Y0189866D01*
X0084268Y0189833D01*
X0084336Y0189777D01*
X0084098Y0189777D01*
X0082873Y0188552D01*
X0082873Y0186820D01*
X0083973Y0185720D01*
X0083973Y0185420D01*
X0085198Y0184196D01*
X0086929Y0184196D01*
X0088154Y0185420D01*
X0088154Y0187152D01*
X0087054Y0188252D01*
X0087054Y0188552D01*
X0086684Y0188922D01*
X0086956Y0188953D01*
X0086985Y0188937D01*
X0087173Y0188134D02*
X0100154Y0188134D01*
X0100073Y0187535D02*
X0087771Y0187535D01*
X0088154Y0186937D02*
X0100073Y0186937D01*
X0100073Y0186338D02*
X0088154Y0186338D01*
X0088154Y0185740D02*
X0091299Y0185740D01*
X0091031Y0185629D02*
X0092090Y0186067D01*
X0093237Y0186067D01*
X0094295Y0185629D01*
X0095106Y0184818D01*
X0095163Y0184679D01*
X0095221Y0184818D01*
X0096031Y0185629D01*
X0097090Y0186067D01*
X0098237Y0186067D01*
X0099295Y0185629D01*
X0100106Y0184818D01*
X0100545Y0183759D01*
X0100545Y0182613D01*
X0100106Y0181554D01*
X0099295Y0180744D01*
X0098237Y0180305D01*
X0097090Y0180305D01*
X0096031Y0180744D01*
X0095221Y0181554D01*
X0095163Y0181693D01*
X0095106Y0181554D01*
X0094295Y0180744D01*
X0093237Y0180305D01*
X0092090Y0180305D01*
X0091031Y0180744D01*
X0090221Y0181554D01*
X0089782Y0182613D01*
X0089782Y0183759D01*
X0090221Y0184818D01*
X0091031Y0185629D01*
X0090544Y0185141D02*
X0087875Y0185141D01*
X0087276Y0184543D02*
X0090107Y0184543D01*
X0089859Y0183944D02*
X0057563Y0183944D01*
X0057563Y0183346D02*
X0089782Y0183346D01*
X0089782Y0182747D02*
X0057563Y0182747D01*
X0057563Y0182149D02*
X0089975Y0182149D01*
X0090225Y0181550D02*
X0057563Y0181550D01*
X0057563Y0180952D02*
X0090824Y0180952D01*
X0090352Y0179755D02*
X0100475Y0179755D01*
X0099877Y0179156D02*
X0090950Y0179156D01*
X0091054Y0178558D02*
X0099373Y0178558D01*
X0099373Y0177959D02*
X0091054Y0177959D01*
X0091054Y0177361D02*
X0099199Y0177361D01*
X0098601Y0176762D02*
X0090496Y0176762D01*
X0090943Y0176164D02*
X0098002Y0176164D01*
X0097404Y0175565D02*
X0091054Y0175565D01*
X0091054Y0174967D02*
X0096805Y0174967D01*
X0096207Y0174368D02*
X0091054Y0174368D01*
X0090503Y0173770D02*
X0095608Y0173770D01*
X0095010Y0173171D02*
X0089905Y0173171D01*
X0089954Y0172572D02*
X0094411Y0172572D01*
X0093813Y0171974D02*
X0089954Y0171974D01*
X0090031Y0171375D02*
X0093214Y0171375D01*
X0092616Y0170777D02*
X0090629Y0170777D01*
X0086915Y0170178D02*
X0068195Y0170178D01*
X0068354Y0170338D02*
X0068354Y0172235D01*
X0067254Y0173335D01*
X0067254Y0173735D01*
X0065912Y0175077D01*
X0064015Y0175077D01*
X0062673Y0173735D01*
X0062673Y0173335D01*
X0061573Y0172235D01*
X0061573Y0170338D01*
X0062915Y0168996D01*
X0064812Y0168996D01*
X0064963Y0169147D01*
X0065115Y0168996D01*
X0067012Y0168996D01*
X0068354Y0170338D01*
X0068354Y0170777D02*
X0086316Y0170777D01*
X0085773Y0171375D02*
X0068354Y0171375D01*
X0068354Y0171974D02*
X0085773Y0171974D01*
X0085773Y0172572D02*
X0068017Y0172572D01*
X0067418Y0173171D02*
X0085892Y0173171D01*
X0086490Y0173770D02*
X0067220Y0173770D01*
X0066621Y0174368D02*
X0086873Y0174368D01*
X0086873Y0174967D02*
X0066023Y0174967D01*
X0063904Y0174967D02*
X0057563Y0174967D01*
X0057563Y0175565D02*
X0086873Y0175565D01*
X0086984Y0176164D02*
X0057563Y0176164D01*
X0057563Y0176762D02*
X0087431Y0176762D01*
X0086873Y0177361D02*
X0057563Y0177361D01*
X0057563Y0177959D02*
X0086873Y0177959D01*
X0086873Y0178558D02*
X0057563Y0178558D01*
X0057563Y0179156D02*
X0086977Y0179156D01*
X0087575Y0179755D02*
X0057563Y0179755D01*
X0057563Y0180353D02*
X0091975Y0180353D01*
X0093352Y0180353D02*
X0096975Y0180353D01*
X0095824Y0180952D02*
X0094503Y0180952D01*
X0095102Y0181550D02*
X0095225Y0181550D01*
X0098352Y0180353D02*
X0109193Y0180353D01*
X0109138Y0180952D02*
X0099503Y0180952D01*
X0100102Y0181550D02*
X0109138Y0181550D01*
X0109247Y0182149D02*
X0100352Y0182149D01*
X0100545Y0182747D02*
X0109495Y0182747D01*
X0109838Y0183346D02*
X0100545Y0183346D01*
X0100468Y0183944D02*
X0110436Y0183944D01*
X0111555Y0184543D02*
X0100220Y0184543D01*
X0099783Y0185141D02*
X0101252Y0185141D01*
X0100654Y0185740D02*
X0099028Y0185740D01*
X0096299Y0185740D02*
X0094028Y0185740D01*
X0094783Y0185141D02*
X0095544Y0185141D01*
X0103075Y0185141D02*
X0103752Y0185141D01*
X0100280Y0189331D02*
X0087986Y0189331D01*
X0088718Y0189929D02*
X0099567Y0189929D01*
X0099163Y0190528D02*
X0089133Y0190528D01*
X0089375Y0191126D02*
X0098933Y0191126D01*
X0098840Y0191725D02*
X0089483Y0191725D01*
X0089470Y0192323D02*
X0098863Y0192323D01*
X0099006Y0192922D02*
X0089332Y0192922D01*
X0089074Y0193520D02*
X0099271Y0193520D01*
X0099761Y0194119D02*
X0088591Y0194119D01*
X0087654Y0194717D02*
X0100705Y0194717D01*
X0109675Y0199190D02*
X0110667Y0198198D01*
X0111962Y0197661D01*
X0113365Y0197661D01*
X0114660Y0198198D01*
X0115652Y0199190D01*
X0116188Y0200485D01*
X0116188Y0201887D01*
X0115652Y0203183D01*
X0114660Y0204175D01*
X0113365Y0204711D01*
X0111962Y0204711D01*
X0110667Y0204175D01*
X0109675Y0203183D01*
X0109138Y0201887D01*
X0109138Y0200485D01*
X0109675Y0199190D01*
X0109544Y0199505D02*
X0045999Y0199505D01*
X0045821Y0199076D02*
X0046388Y0200445D01*
X0046388Y0201927D01*
X0045821Y0203296D01*
X0044774Y0204344D01*
X0043404Y0204911D01*
X0041923Y0204911D01*
X0040553Y0204344D01*
X0039506Y0203296D01*
X0038938Y0201927D01*
X0038938Y0200445D01*
X0039506Y0199076D01*
X0040553Y0198028D01*
X0041923Y0197461D01*
X0043404Y0197461D01*
X0044774Y0198028D01*
X0045821Y0199076D01*
X0045652Y0198907D02*
X0109958Y0198907D01*
X0110556Y0198308D02*
X0045054Y0198308D01*
X0044005Y0197710D02*
X0111845Y0197710D01*
X0113482Y0197710D02*
X0116463Y0197710D01*
X0116463Y0198308D02*
X0114771Y0198308D01*
X0115369Y0198907D02*
X0116463Y0198907D01*
X0116463Y0199505D02*
X0115783Y0199505D01*
X0116031Y0200104D02*
X0116463Y0200104D01*
X0116463Y0200703D02*
X0116188Y0200703D01*
X0116188Y0201301D02*
X0116463Y0201301D01*
X0116463Y0201900D02*
X0116183Y0201900D01*
X0115936Y0202498D02*
X0116463Y0202498D01*
X0116463Y0203097D02*
X0115688Y0203097D01*
X0115140Y0203695D02*
X0116463Y0203695D01*
X0116463Y0204294D02*
X0114373Y0204294D01*
X0116463Y0204892D02*
X0043451Y0204892D01*
X0044824Y0204294D02*
X0110954Y0204294D01*
X0110187Y0203695D02*
X0045423Y0203695D01*
X0045904Y0203097D02*
X0109639Y0203097D01*
X0109391Y0202498D02*
X0046152Y0202498D01*
X0046388Y0201900D02*
X0109143Y0201900D01*
X0109138Y0201301D02*
X0046388Y0201301D01*
X0046388Y0200703D02*
X0109138Y0200703D01*
X0109296Y0200104D02*
X0046247Y0200104D01*
X0041322Y0197710D02*
X0038863Y0197710D01*
X0038863Y0198308D02*
X0040273Y0198308D01*
X0039675Y0198907D02*
X0038863Y0198907D01*
X0038863Y0199505D02*
X0039328Y0199505D01*
X0039080Y0200104D02*
X0038863Y0200104D01*
X0038863Y0200703D02*
X0038938Y0200703D01*
X0038938Y0201301D02*
X0038863Y0201301D01*
X0038863Y0201900D02*
X0038938Y0201900D01*
X0038863Y0202498D02*
X0039175Y0202498D01*
X0039423Y0203097D02*
X0038863Y0203097D01*
X0038863Y0203695D02*
X0039904Y0203695D01*
X0040503Y0204294D02*
X0038863Y0204294D01*
X0038863Y0204892D02*
X0041876Y0204892D01*
X0038863Y0197111D02*
X0116463Y0197111D01*
X0116463Y0196513D02*
X0038863Y0196513D01*
X0038863Y0195914D02*
X0116463Y0195914D01*
X0116463Y0195316D02*
X0038863Y0195316D01*
X0038863Y0194717D02*
X0085351Y0194717D01*
X0084407Y0194119D02*
X0072187Y0194119D01*
X0072029Y0194277D02*
X0070298Y0194277D01*
X0069073Y0193052D01*
X0069073Y0191320D01*
X0070298Y0190096D01*
X0072029Y0190096D01*
X0073254Y0191320D01*
X0073254Y0193052D01*
X0072029Y0194277D01*
X0072786Y0193520D02*
X0083917Y0193520D01*
X0083652Y0192922D02*
X0073254Y0192922D01*
X0073254Y0192323D02*
X0083508Y0192323D01*
X0083485Y0191725D02*
X0073254Y0191725D01*
X0073060Y0191126D02*
X0083579Y0191126D01*
X0083809Y0190528D02*
X0072461Y0190528D01*
X0069865Y0190528D02*
X0046188Y0190528D01*
X0046188Y0190485D02*
X0045652Y0189190D01*
X0044660Y0188198D01*
X0043365Y0187661D01*
X0041962Y0187661D01*
X0040667Y0188198D01*
X0039675Y0189190D01*
X0039138Y0190485D01*
X0039138Y0191887D01*
X0039675Y0193183D01*
X0040667Y0194175D01*
X0041962Y0194711D01*
X0043365Y0194711D01*
X0044660Y0194175D01*
X0045652Y0193183D01*
X0046188Y0191887D01*
X0046188Y0190485D01*
X0045958Y0189929D02*
X0084213Y0189929D01*
X0083651Y0189331D02*
X0045710Y0189331D01*
X0045195Y0188732D02*
X0051192Y0188732D01*
X0050288Y0188134D02*
X0044505Y0188134D01*
X0046188Y0191126D02*
X0069267Y0191126D01*
X0069073Y0191725D02*
X0046188Y0191725D01*
X0046008Y0192323D02*
X0069073Y0192323D01*
X0069073Y0192922D02*
X0045760Y0192922D01*
X0045315Y0193520D02*
X0069541Y0193520D01*
X0070140Y0194119D02*
X0044716Y0194119D01*
X0040611Y0194119D02*
X0038863Y0194119D01*
X0038863Y0193520D02*
X0040012Y0193520D01*
X0039567Y0192922D02*
X0038863Y0192922D01*
X0038863Y0192323D02*
X0039319Y0192323D01*
X0039138Y0191725D02*
X0038863Y0191725D01*
X0038863Y0191126D02*
X0039138Y0191126D01*
X0039138Y0190528D02*
X0038863Y0190528D01*
X0038863Y0189929D02*
X0039369Y0189929D01*
X0039617Y0189331D02*
X0038863Y0189331D01*
X0038863Y0188732D02*
X0040132Y0188732D01*
X0040822Y0188134D02*
X0038863Y0188134D01*
X0038863Y0187535D02*
X0049690Y0187535D01*
X0049292Y0186937D02*
X0038863Y0186937D01*
X0038863Y0186338D02*
X0049044Y0186338D01*
X0048796Y0185740D02*
X0038863Y0185740D01*
X0038863Y0185141D02*
X0048763Y0185141D01*
X0048763Y0184543D02*
X0038863Y0184543D01*
X0038863Y0183944D02*
X0048763Y0183944D01*
X0048763Y0183346D02*
X0038863Y0183346D01*
X0038863Y0182747D02*
X0048763Y0182747D01*
X0048763Y0182149D02*
X0038863Y0182149D01*
X0038863Y0181550D02*
X0048763Y0181550D01*
X0048763Y0180952D02*
X0038863Y0180952D01*
X0038863Y0180353D02*
X0048763Y0180353D01*
X0048763Y0179755D02*
X0038863Y0179755D01*
X0038863Y0179156D02*
X0048763Y0179156D01*
X0048763Y0178558D02*
X0038863Y0178558D01*
X0038863Y0177959D02*
X0048763Y0177959D01*
X0048763Y0177361D02*
X0038863Y0177361D01*
X0038863Y0176762D02*
X0048763Y0176762D01*
X0048763Y0176164D02*
X0038863Y0176164D01*
X0038863Y0175565D02*
X0048763Y0175565D01*
X0048763Y0174967D02*
X0038863Y0174967D01*
X0038863Y0174368D02*
X0041133Y0174368D01*
X0040667Y0174175D02*
X0039675Y0173183D01*
X0039138Y0171888D01*
X0039138Y0170485D01*
X0039675Y0169190D01*
X0040667Y0168198D01*
X0041962Y0167661D01*
X0043365Y0167661D01*
X0044660Y0168198D01*
X0045652Y0169190D01*
X0046188Y0170485D01*
X0046188Y0171888D01*
X0045652Y0173183D01*
X0044660Y0174175D01*
X0043365Y0174711D01*
X0041962Y0174711D01*
X0040667Y0174175D01*
X0040262Y0173770D02*
X0038863Y0173770D01*
X0038863Y0173171D02*
X0039670Y0173171D01*
X0039422Y0172572D02*
X0038863Y0172572D01*
X0038863Y0171974D02*
X0039174Y0171974D01*
X0039138Y0171375D02*
X0038863Y0171375D01*
X0038863Y0170777D02*
X0039138Y0170777D01*
X0039266Y0170178D02*
X0038863Y0170178D01*
X0038863Y0169580D02*
X0039513Y0169580D01*
X0039883Y0168981D02*
X0038863Y0168981D01*
X0038863Y0168383D02*
X0040482Y0168383D01*
X0041665Y0167784D02*
X0038863Y0167784D01*
X0038863Y0167186D02*
X0048763Y0167186D01*
X0048763Y0167784D02*
X0043662Y0167784D01*
X0044845Y0168383D02*
X0048763Y0168383D01*
X0048763Y0168981D02*
X0045444Y0168981D01*
X0045813Y0169580D02*
X0048763Y0169580D01*
X0048763Y0170178D02*
X0046061Y0170178D01*
X0046188Y0170777D02*
X0048763Y0170777D01*
X0048763Y0171375D02*
X0046188Y0171375D01*
X0046153Y0171974D02*
X0048763Y0171974D01*
X0048763Y0172572D02*
X0045905Y0172572D01*
X0045657Y0173171D02*
X0048763Y0173171D01*
X0048763Y0173770D02*
X0045065Y0173770D01*
X0044193Y0174368D02*
X0048763Y0174368D01*
X0057563Y0174368D02*
X0063306Y0174368D01*
X0062707Y0173770D02*
X0057563Y0173770D01*
X0057563Y0173171D02*
X0062509Y0173171D01*
X0061910Y0172572D02*
X0057563Y0172572D01*
X0057563Y0171974D02*
X0061573Y0171974D01*
X0061573Y0171375D02*
X0057563Y0171375D01*
X0057563Y0170777D02*
X0061573Y0170777D01*
X0061732Y0170178D02*
X0057563Y0170178D01*
X0057563Y0169580D02*
X0062331Y0169580D01*
X0057563Y0168981D02*
X0086973Y0168981D01*
X0086973Y0169580D02*
X0067596Y0169580D01*
X0057563Y0168383D02*
X0087110Y0168383D01*
X0087709Y0167784D02*
X0057563Y0167784D01*
X0057563Y0167186D02*
X0103363Y0167186D01*
X0103363Y0167784D02*
X0090418Y0167784D01*
X0093899Y0168383D02*
X0103363Y0168383D01*
X0103363Y0168981D02*
X0094497Y0168981D01*
X0095096Y0169580D02*
X0103363Y0169580D01*
X0103363Y0170178D02*
X0095694Y0170178D01*
X0096293Y0170777D02*
X0103363Y0170777D01*
X0103363Y0171375D02*
X0096891Y0171375D01*
X0097490Y0171974D02*
X0103363Y0171974D01*
X0103363Y0172572D02*
X0098088Y0172572D01*
X0098687Y0173171D02*
X0101022Y0173171D01*
X0100424Y0173770D02*
X0099285Y0173770D01*
X0099884Y0174368D02*
X0100373Y0174368D01*
X0105963Y0174368D02*
X0107507Y0174368D01*
X0108105Y0174967D02*
X0105963Y0174967D01*
X0105963Y0175565D02*
X0108704Y0175565D01*
X0109302Y0176164D02*
X0105963Y0176164D01*
X0105963Y0176762D02*
X0109901Y0176762D01*
X0110499Y0177361D02*
X0105728Y0177361D01*
X0105129Y0177959D02*
X0111098Y0177959D01*
X0110307Y0178558D02*
X0104531Y0178558D01*
X0103050Y0179156D02*
X0109709Y0179156D01*
X0109441Y0179755D02*
X0102452Y0179755D01*
X0111782Y0174967D02*
X0116463Y0174967D01*
X0116463Y0175565D02*
X0112381Y0175565D01*
X0106908Y0173770D02*
X0105963Y0173770D01*
X0105963Y0173171D02*
X0106310Y0173171D01*
X0103363Y0166587D02*
X0057563Y0166587D01*
X0057563Y0165989D02*
X0103363Y0165989D01*
X0103363Y0165390D02*
X0057563Y0165390D01*
X0057563Y0164792D02*
X0103363Y0164792D01*
X0103363Y0164193D02*
X0057563Y0164193D01*
X0057563Y0163595D02*
X0103363Y0163595D01*
X0083620Y0161799D02*
X0081507Y0161799D01*
X0082106Y0161201D02*
X0083073Y0161201D01*
X0083073Y0160602D02*
X0082554Y0160602D01*
X0082554Y0160004D02*
X0083073Y0160004D01*
X0079420Y0161799D02*
X0078607Y0161799D01*
X0057820Y0161799D02*
X0057563Y0161799D01*
X0048763Y0161799D02*
X0046188Y0161799D01*
X0046188Y0161888D02*
X0045652Y0163183D01*
X0044660Y0164175D01*
X0043365Y0164711D01*
X0041962Y0164711D01*
X0040667Y0164175D01*
X0039675Y0163183D01*
X0039138Y0161888D01*
X0039138Y0160485D01*
X0039675Y0159190D01*
X0040667Y0158198D01*
X0041962Y0157661D01*
X0043365Y0157661D01*
X0044660Y0158198D01*
X0045652Y0159190D01*
X0046188Y0160485D01*
X0046188Y0161888D01*
X0045977Y0162398D02*
X0048763Y0162398D01*
X0048763Y0162996D02*
X0045729Y0162996D01*
X0045240Y0163595D02*
X0048763Y0163595D01*
X0048763Y0164193D02*
X0044615Y0164193D01*
X0040712Y0164193D02*
X0038863Y0164193D01*
X0038863Y0163595D02*
X0040087Y0163595D01*
X0039598Y0162996D02*
X0038863Y0162996D01*
X0038863Y0162398D02*
X0039350Y0162398D01*
X0039138Y0161799D02*
X0038863Y0161799D01*
X0038863Y0161201D02*
X0039138Y0161201D01*
X0039138Y0160602D02*
X0038863Y0160602D01*
X0038863Y0160004D02*
X0039338Y0160004D01*
X0039586Y0159405D02*
X0038863Y0159405D01*
X0038863Y0158807D02*
X0040058Y0158807D01*
X0040656Y0158208D02*
X0038863Y0158208D01*
X0038863Y0157610D02*
X0048763Y0157610D01*
X0048763Y0158208D02*
X0044670Y0158208D01*
X0045269Y0158807D02*
X0048763Y0158807D01*
X0048763Y0159405D02*
X0045741Y0159405D01*
X0045989Y0160004D02*
X0048763Y0160004D01*
X0048763Y0160602D02*
X0046188Y0160602D01*
X0046188Y0161201D02*
X0048763Y0161201D01*
X0048763Y0164792D02*
X0038863Y0164792D01*
X0038863Y0165390D02*
X0048763Y0165390D01*
X0048763Y0165989D02*
X0038863Y0165989D01*
X0038863Y0166587D02*
X0048763Y0166587D01*
X0048763Y0157011D02*
X0038863Y0157011D01*
X0038863Y0156413D02*
X0048763Y0156413D01*
X0048763Y0155814D02*
X0038863Y0155814D01*
X0038863Y0155216D02*
X0048763Y0155216D01*
X0048763Y0154617D02*
X0043592Y0154617D01*
X0043365Y0154711D02*
X0041962Y0154711D01*
X0040667Y0154175D01*
X0039675Y0153183D01*
X0039138Y0151888D01*
X0039138Y0150485D01*
X0039675Y0149190D01*
X0040667Y0148198D01*
X0041962Y0147661D01*
X0043365Y0147661D01*
X0044660Y0148198D01*
X0045652Y0149190D01*
X0046188Y0150485D01*
X0046188Y0151888D01*
X0045652Y0153183D01*
X0044660Y0154175D01*
X0043365Y0154711D01*
X0044816Y0154019D02*
X0048763Y0154019D01*
X0048763Y0153420D02*
X0045415Y0153420D01*
X0045802Y0152822D02*
X0048763Y0152822D01*
X0048763Y0152223D02*
X0046049Y0152223D01*
X0046188Y0151625D02*
X0048763Y0151625D01*
X0048763Y0151026D02*
X0046188Y0151026D01*
X0046165Y0150428D02*
X0048763Y0150428D01*
X0048763Y0149829D02*
X0045917Y0149829D01*
X0045669Y0149231D02*
X0048763Y0149231D01*
X0048763Y0148632D02*
X0045094Y0148632D01*
X0044263Y0148034D02*
X0048763Y0148034D01*
X0048763Y0147435D02*
X0038863Y0147435D01*
X0038863Y0148034D02*
X0041064Y0148034D01*
X0040233Y0148632D02*
X0038863Y0148632D01*
X0038863Y0149231D02*
X0039658Y0149231D01*
X0039410Y0149829D02*
X0038863Y0149829D01*
X0038863Y0150428D02*
X0039162Y0150428D01*
X0039138Y0151026D02*
X0038863Y0151026D01*
X0038863Y0151625D02*
X0039138Y0151625D01*
X0039277Y0152223D02*
X0038863Y0152223D01*
X0038863Y0152822D02*
X0039525Y0152822D01*
X0039912Y0153420D02*
X0038863Y0153420D01*
X0038863Y0154019D02*
X0040511Y0154019D01*
X0041735Y0154617D02*
X0038863Y0154617D01*
X0038863Y0146836D02*
X0048763Y0146836D01*
X0048763Y0146238D02*
X0038863Y0146238D01*
X0038863Y0145639D02*
X0048763Y0145639D01*
X0048763Y0145041D02*
X0038863Y0145041D01*
X0038863Y0144442D02*
X0041313Y0144442D01*
X0040667Y0144175D02*
X0039675Y0143183D01*
X0039138Y0141888D01*
X0039138Y0140485D01*
X0039675Y0139190D01*
X0040667Y0138198D01*
X0041481Y0137861D01*
X0040673Y0137052D01*
X0040673Y0135320D01*
X0041481Y0134512D01*
X0040667Y0134175D01*
X0039675Y0133183D01*
X0039138Y0131888D01*
X0039138Y0130485D01*
X0039675Y0129190D01*
X0040667Y0128198D01*
X0041962Y0127661D01*
X0043365Y0127661D01*
X0044660Y0128198D01*
X0045652Y0129190D01*
X0046188Y0130485D01*
X0046188Y0131888D01*
X0045652Y0133183D01*
X0044660Y0134175D01*
X0043987Y0134453D01*
X0044854Y0135320D01*
X0044854Y0137052D01*
X0043987Y0137919D01*
X0044660Y0138198D01*
X0045652Y0139190D01*
X0046188Y0140485D01*
X0046188Y0141888D01*
X0045652Y0143183D01*
X0044660Y0144175D01*
X0043365Y0144711D01*
X0041962Y0144711D01*
X0040667Y0144175D01*
X0040336Y0143844D02*
X0038863Y0143844D01*
X0038863Y0143245D02*
X0039737Y0143245D01*
X0039453Y0142647D02*
X0038863Y0142647D01*
X0038863Y0142048D02*
X0039205Y0142048D01*
X0039138Y0141450D02*
X0038863Y0141450D01*
X0038863Y0140851D02*
X0039138Y0140851D01*
X0039235Y0140253D02*
X0038863Y0140253D01*
X0038863Y0139654D02*
X0039483Y0139654D01*
X0039809Y0139056D02*
X0038863Y0139056D01*
X0038863Y0138457D02*
X0040407Y0138457D01*
X0041479Y0137859D02*
X0038863Y0137859D01*
X0038863Y0137260D02*
X0040881Y0137260D01*
X0040673Y0136662D02*
X0038863Y0136662D01*
X0038863Y0136063D02*
X0040673Y0136063D01*
X0040673Y0135465D02*
X0038863Y0135465D01*
X0038863Y0134866D02*
X0041127Y0134866D01*
X0040891Y0134268D02*
X0038863Y0134268D01*
X0038863Y0133669D02*
X0040161Y0133669D01*
X0039629Y0133071D02*
X0038863Y0133071D01*
X0038863Y0132472D02*
X0039381Y0132472D01*
X0039138Y0131874D02*
X0038863Y0131874D01*
X0038863Y0131275D02*
X0039138Y0131275D01*
X0039138Y0130677D02*
X0038863Y0130677D01*
X0038863Y0130078D02*
X0039307Y0130078D01*
X0039555Y0129480D02*
X0038863Y0129480D01*
X0038863Y0128881D02*
X0039984Y0128881D01*
X0040582Y0128283D02*
X0038863Y0128283D01*
X0038863Y0127684D02*
X0041907Y0127684D01*
X0043420Y0127684D02*
X0050943Y0127684D01*
X0050345Y0128283D02*
X0044745Y0128283D01*
X0045343Y0128881D02*
X0049746Y0128881D01*
X0049315Y0129480D02*
X0045772Y0129480D01*
X0046020Y0130078D02*
X0049067Y0130078D01*
X0048819Y0130677D02*
X0046188Y0130677D01*
X0046188Y0131275D02*
X0048763Y0131275D01*
X0048763Y0131874D02*
X0046188Y0131874D01*
X0045946Y0132472D02*
X0048763Y0132472D01*
X0048763Y0133071D02*
X0045698Y0133071D01*
X0045166Y0133669D02*
X0048763Y0133669D01*
X0048763Y0134268D02*
X0044435Y0134268D01*
X0044400Y0134866D02*
X0048763Y0134866D01*
X0048763Y0135465D02*
X0044854Y0135465D01*
X0044854Y0136063D02*
X0048763Y0136063D01*
X0048763Y0136662D02*
X0044854Y0136662D01*
X0044646Y0137260D02*
X0048763Y0137260D01*
X0048763Y0137859D02*
X0044047Y0137859D01*
X0044920Y0138457D02*
X0048763Y0138457D01*
X0048763Y0139056D02*
X0045518Y0139056D01*
X0045844Y0139654D02*
X0048763Y0139654D01*
X0048763Y0140253D02*
X0046092Y0140253D01*
X0046188Y0140851D02*
X0048763Y0140851D01*
X0048763Y0141450D02*
X0046188Y0141450D01*
X0046122Y0142048D02*
X0048763Y0142048D01*
X0048763Y0142647D02*
X0045874Y0142647D01*
X0045589Y0143245D02*
X0048763Y0143245D01*
X0048763Y0143844D02*
X0044991Y0143844D01*
X0044014Y0144442D02*
X0048763Y0144442D01*
X0074963Y0133669D02*
X0077773Y0133669D01*
X0077773Y0133071D02*
X0074963Y0133071D01*
X0074963Y0132472D02*
X0077773Y0132472D01*
X0078320Y0131874D02*
X0074963Y0131874D01*
X0074963Y0131275D02*
X0078918Y0131275D01*
X0078497Y0130677D02*
X0074963Y0130677D01*
X0074963Y0130078D02*
X0077899Y0130078D01*
X0077573Y0129480D02*
X0074963Y0129480D01*
X0074963Y0128881D02*
X0077573Y0128881D01*
X0077573Y0128283D02*
X0074963Y0128283D01*
X0074963Y0127684D02*
X0077909Y0127684D01*
X0078508Y0127086D02*
X0074963Y0127086D01*
X0075483Y0134268D02*
X0077888Y0134268D01*
X0078487Y0134866D02*
X0076082Y0134866D01*
X0089963Y0134268D02*
X0090188Y0134268D01*
X0090382Y0134866D02*
X0094163Y0134866D01*
X0096554Y0131275D02*
X0097036Y0131275D01*
X0097363Y0130677D02*
X0096554Y0130677D01*
X0096512Y0130078D02*
X0097363Y0130078D01*
X0097363Y0129480D02*
X0095913Y0129480D01*
X0108963Y0129480D02*
X0109555Y0129480D01*
X0109675Y0129190D02*
X0110667Y0128198D01*
X0111962Y0127661D01*
X0113365Y0127661D01*
X0114660Y0128198D01*
X0115652Y0129190D01*
X0116188Y0130485D01*
X0116188Y0131888D01*
X0115652Y0133183D01*
X0114660Y0134175D01*
X0113365Y0134711D01*
X0111962Y0134711D01*
X0110667Y0134175D01*
X0109675Y0133183D01*
X0109138Y0131888D01*
X0109138Y0130485D01*
X0109675Y0129190D01*
X0109984Y0128881D02*
X0108963Y0128881D01*
X0108963Y0128283D02*
X0110582Y0128283D01*
X0111907Y0127684D02*
X0108963Y0127684D01*
X0108963Y0127086D02*
X0116463Y0127086D01*
X0116463Y0127684D02*
X0113420Y0127684D01*
X0114745Y0128283D02*
X0116463Y0128283D01*
X0116463Y0128881D02*
X0115343Y0128881D01*
X0115772Y0129480D02*
X0116463Y0129480D01*
X0116463Y0130078D02*
X0116020Y0130078D01*
X0116188Y0130677D02*
X0116463Y0130677D01*
X0116463Y0131275D02*
X0116188Y0131275D01*
X0116188Y0131874D02*
X0116463Y0131874D01*
X0116463Y0132472D02*
X0115946Y0132472D01*
X0115698Y0133071D02*
X0116463Y0133071D01*
X0116463Y0133669D02*
X0115166Y0133669D01*
X0114435Y0134268D02*
X0116463Y0134268D01*
X0116463Y0134866D02*
X0108963Y0134866D01*
X0108963Y0134268D02*
X0110891Y0134268D01*
X0110161Y0133669D02*
X0108963Y0133669D01*
X0108963Y0133071D02*
X0109629Y0133071D01*
X0109381Y0132472D02*
X0108963Y0132472D01*
X0108963Y0131874D02*
X0109138Y0131874D01*
X0109138Y0131275D02*
X0108963Y0131275D01*
X0108963Y0130677D02*
X0109138Y0130677D01*
X0109307Y0130078D02*
X0108963Y0130078D01*
X0108963Y0126487D02*
X0116463Y0126487D01*
X0116463Y0125889D02*
X0108963Y0125889D01*
X0108963Y0125290D02*
X0116463Y0125290D01*
X0116463Y0124692D02*
X0113412Y0124692D01*
X0113365Y0124711D02*
X0111962Y0124711D01*
X0110667Y0124175D01*
X0109675Y0123183D01*
X0109138Y0121887D01*
X0109138Y0120485D01*
X0109675Y0119190D01*
X0110667Y0118198D01*
X0111962Y0117661D01*
X0113365Y0117661D01*
X0114660Y0118198D01*
X0115652Y0119190D01*
X0116188Y0120485D01*
X0116188Y0121887D01*
X0115652Y0123183D01*
X0114660Y0124175D01*
X0113365Y0124711D01*
X0111915Y0124692D02*
X0108963Y0124692D01*
X0108963Y0124093D02*
X0110585Y0124093D01*
X0109987Y0123495D02*
X0108963Y0123495D01*
X0108963Y0122896D02*
X0109556Y0122896D01*
X0109308Y0122298D02*
X0108963Y0122298D01*
X0108963Y0121699D02*
X0109138Y0121699D01*
X0109138Y0121101D02*
X0108963Y0121101D01*
X0108963Y0120502D02*
X0109138Y0120502D01*
X0108963Y0119903D02*
X0109379Y0119903D01*
X0109627Y0119305D02*
X0108963Y0119305D01*
X0108963Y0118706D02*
X0110158Y0118706D01*
X0110884Y0118108D02*
X0108963Y0118108D01*
X0108963Y0117509D02*
X0116463Y0117509D01*
X0116463Y0116911D02*
X0108963Y0116911D01*
X0108963Y0116312D02*
X0116463Y0116312D01*
X0116463Y0115714D02*
X0108963Y0115714D01*
X0108963Y0115115D02*
X0116463Y0115115D01*
X0116463Y0114517D02*
X0113834Y0114517D01*
X0113365Y0114711D02*
X0111962Y0114711D01*
X0110667Y0114175D01*
X0109675Y0113183D01*
X0109138Y0111887D01*
X0109138Y0110485D01*
X0109675Y0109190D01*
X0110667Y0108198D01*
X0111962Y0107661D01*
X0113365Y0107661D01*
X0114660Y0108198D01*
X0115652Y0109190D01*
X0116188Y0110485D01*
X0116188Y0111887D01*
X0115652Y0113183D01*
X0114660Y0114175D01*
X0113365Y0114711D01*
X0114917Y0113918D02*
X0116463Y0113918D01*
X0116463Y0113320D02*
X0115515Y0113320D01*
X0115843Y0112721D02*
X0116463Y0112721D01*
X0116463Y0112123D02*
X0116091Y0112123D01*
X0116188Y0111524D02*
X0116463Y0111524D01*
X0116463Y0110926D02*
X0116188Y0110926D01*
X0116123Y0110327D02*
X0116463Y0110327D01*
X0116463Y0109729D02*
X0115875Y0109729D01*
X0115593Y0109130D02*
X0116463Y0109130D01*
X0116463Y0108532D02*
X0114994Y0108532D01*
X0114021Y0107933D02*
X0116463Y0107933D01*
X0116463Y0107335D02*
X0108963Y0107335D01*
X0108963Y0107933D02*
X0111306Y0107933D01*
X0110333Y0108532D02*
X0108963Y0108532D01*
X0108963Y0109130D02*
X0109734Y0109130D01*
X0109452Y0109729D02*
X0108963Y0109729D01*
X0108963Y0110327D02*
X0109204Y0110327D01*
X0109138Y0110926D02*
X0108963Y0110926D01*
X0108963Y0111524D02*
X0109138Y0111524D01*
X0109236Y0112123D02*
X0108963Y0112123D01*
X0108963Y0112721D02*
X0109484Y0112721D01*
X0109812Y0113320D02*
X0108963Y0113320D01*
X0108963Y0113918D02*
X0110410Y0113918D01*
X0111493Y0114517D02*
X0108963Y0114517D01*
X0114443Y0118108D02*
X0116463Y0118108D01*
X0116463Y0118706D02*
X0115169Y0118706D01*
X0115700Y0119305D02*
X0116463Y0119305D01*
X0116463Y0119903D02*
X0115948Y0119903D01*
X0116188Y0120502D02*
X0116463Y0120502D01*
X0116463Y0121101D02*
X0116188Y0121101D01*
X0116188Y0121699D02*
X0116463Y0121699D01*
X0116463Y0122298D02*
X0116019Y0122298D01*
X0115771Y0122896D02*
X0116463Y0122896D01*
X0116463Y0123495D02*
X0115340Y0123495D01*
X0114742Y0124093D02*
X0116463Y0124093D01*
X0116463Y0135465D02*
X0108963Y0135465D01*
X0108963Y0136063D02*
X0116463Y0136063D01*
X0116463Y0136662D02*
X0108963Y0136662D01*
X0108963Y0137260D02*
X0116463Y0137260D01*
X0116463Y0137859D02*
X0113841Y0137859D01*
X0113365Y0137661D02*
X0114660Y0138198D01*
X0115652Y0139190D01*
X0116188Y0140485D01*
X0116188Y0141888D01*
X0115652Y0143183D01*
X0114660Y0144175D01*
X0113365Y0144711D01*
X0111962Y0144711D01*
X0110667Y0144175D01*
X0109675Y0143183D01*
X0109138Y0141888D01*
X0109138Y0140485D01*
X0109675Y0139190D01*
X0110667Y0138198D01*
X0111962Y0137661D01*
X0113365Y0137661D01*
X0114920Y0138457D02*
X0116463Y0138457D01*
X0116463Y0139056D02*
X0115518Y0139056D01*
X0115844Y0139654D02*
X0116463Y0139654D01*
X0116463Y0140253D02*
X0116092Y0140253D01*
X0116188Y0140851D02*
X0116463Y0140851D01*
X0116463Y0141450D02*
X0116188Y0141450D01*
X0116122Y0142048D02*
X0116463Y0142048D01*
X0116463Y0142647D02*
X0115874Y0142647D01*
X0115589Y0143245D02*
X0116463Y0143245D01*
X0116463Y0143844D02*
X0114991Y0143844D01*
X0114014Y0144442D02*
X0116463Y0144442D01*
X0116463Y0145041D02*
X0108963Y0145041D01*
X0108963Y0145639D02*
X0116463Y0145639D01*
X0116463Y0146238D02*
X0108963Y0146238D01*
X0108963Y0146836D02*
X0116463Y0146836D01*
X0111313Y0144442D02*
X0108963Y0144442D01*
X0108963Y0143844D02*
X0110336Y0143844D01*
X0109737Y0143245D02*
X0108963Y0143245D01*
X0108963Y0142647D02*
X0109453Y0142647D01*
X0109205Y0142048D02*
X0108963Y0142048D01*
X0108963Y0141450D02*
X0109138Y0141450D01*
X0109138Y0140851D02*
X0108963Y0140851D01*
X0108963Y0140253D02*
X0109235Y0140253D01*
X0109483Y0139654D02*
X0108963Y0139654D01*
X0108963Y0139056D02*
X0109809Y0139056D01*
X0110407Y0138457D02*
X0108963Y0138457D01*
X0108963Y0137859D02*
X0111486Y0137859D01*
X0059475Y0113918D02*
X0058618Y0113918D01*
X0058020Y0113320D02*
X0059341Y0113320D01*
X0059073Y0112721D02*
X0057563Y0112721D01*
X0057563Y0112123D02*
X0059073Y0112123D01*
X0059073Y0111524D02*
X0057563Y0111524D01*
X0057563Y0110926D02*
X0059467Y0110926D01*
X0059348Y0110327D02*
X0057563Y0110327D01*
X0057563Y0109729D02*
X0059073Y0109729D01*
X0059073Y0109130D02*
X0057563Y0109130D01*
X0057563Y0108532D02*
X0059073Y0108532D01*
X0059460Y0107933D02*
X0057563Y0107933D01*
X0057563Y0107335D02*
X0060059Y0107335D01*
X0059863Y0104342D02*
X0057563Y0104342D01*
X0057563Y0103744D02*
X0059264Y0103744D01*
X0059073Y0103145D02*
X0057563Y0103145D01*
X0057563Y0102547D02*
X0059073Y0102547D01*
X0059073Y0101948D02*
X0057563Y0101948D01*
X0057563Y0101350D02*
X0059544Y0101350D01*
X0060142Y0100751D02*
X0057563Y0100751D01*
X0057563Y0100153D02*
X0060573Y0100153D01*
X0060573Y0099554D02*
X0057563Y0099554D01*
X0057563Y0098956D02*
X0060573Y0098956D01*
X0061036Y0098357D02*
X0057563Y0098357D01*
X0057563Y0097759D02*
X0061635Y0097759D01*
X0063692Y0097759D02*
X0065135Y0097759D01*
X0064536Y0098357D02*
X0064291Y0098357D01*
X0062863Y0104342D02*
X0062464Y0104342D01*
X0048763Y0104342D02*
X0044256Y0104342D01*
X0044660Y0104175D02*
X0043365Y0104711D01*
X0041962Y0104711D01*
X0040667Y0104175D01*
X0039675Y0103183D01*
X0039138Y0101887D01*
X0039138Y0100485D01*
X0039675Y0099190D01*
X0040667Y0098198D01*
X0041962Y0097661D01*
X0043365Y0097661D01*
X0044660Y0098198D01*
X0045652Y0099190D01*
X0046188Y0100485D01*
X0046188Y0101887D01*
X0045652Y0103183D01*
X0044660Y0104175D01*
X0045091Y0103744D02*
X0048763Y0103744D01*
X0048763Y0103145D02*
X0045668Y0103145D01*
X0045915Y0102547D02*
X0048763Y0102547D01*
X0048763Y0101948D02*
X0046163Y0101948D01*
X0046188Y0101350D02*
X0048763Y0101350D01*
X0048763Y0100751D02*
X0046188Y0100751D01*
X0046051Y0100153D02*
X0048763Y0100153D01*
X0048763Y0099554D02*
X0045803Y0099554D01*
X0045418Y0098956D02*
X0048763Y0098956D01*
X0048763Y0098357D02*
X0044819Y0098357D01*
X0043599Y0097759D02*
X0048763Y0097759D01*
X0048763Y0097160D02*
X0038863Y0097160D01*
X0038863Y0096562D02*
X0048763Y0096562D01*
X0048763Y0095963D02*
X0038863Y0095963D01*
X0038863Y0095365D02*
X0048763Y0095365D01*
X0048763Y0094766D02*
X0038863Y0094766D01*
X0038863Y0094167D02*
X0040660Y0094167D01*
X0040667Y0094175D02*
X0039675Y0093183D01*
X0039138Y0091887D01*
X0039138Y0090485D01*
X0039675Y0089190D01*
X0040667Y0088198D01*
X0041962Y0087661D01*
X0043365Y0087661D01*
X0044660Y0088198D01*
X0045652Y0089190D01*
X0046188Y0090485D01*
X0046188Y0091887D01*
X0045652Y0093183D01*
X0044660Y0094175D01*
X0043365Y0094711D01*
X0041962Y0094711D01*
X0040667Y0094175D01*
X0040061Y0093569D02*
X0038863Y0093569D01*
X0038863Y0092970D02*
X0039587Y0092970D01*
X0039339Y0092372D02*
X0038863Y0092372D01*
X0038863Y0091773D02*
X0039138Y0091773D01*
X0039138Y0091175D02*
X0038863Y0091175D01*
X0038863Y0090576D02*
X0039138Y0090576D01*
X0039349Y0089978D02*
X0038863Y0089978D01*
X0038863Y0089379D02*
X0039596Y0089379D01*
X0040084Y0088781D02*
X0038863Y0088781D01*
X0038863Y0088182D02*
X0040704Y0088182D01*
X0038863Y0087584D02*
X0048763Y0087584D01*
X0048763Y0088182D02*
X0044623Y0088182D01*
X0045243Y0088781D02*
X0048763Y0088781D01*
X0048763Y0089379D02*
X0045730Y0089379D01*
X0045978Y0089978D02*
X0048763Y0089978D01*
X0048763Y0090576D02*
X0046188Y0090576D01*
X0046188Y0091175D02*
X0048763Y0091175D01*
X0048763Y0091773D02*
X0046188Y0091773D01*
X0045988Y0092372D02*
X0048763Y0092372D01*
X0048763Y0092970D02*
X0045740Y0092970D01*
X0045266Y0093569D02*
X0048763Y0093569D01*
X0048763Y0094167D02*
X0044667Y0094167D01*
X0041728Y0097759D02*
X0038863Y0097759D01*
X0038863Y0098357D02*
X0040508Y0098357D01*
X0039909Y0098956D02*
X0038863Y0098956D01*
X0038863Y0099554D02*
X0039524Y0099554D01*
X0039276Y0100153D02*
X0038863Y0100153D01*
X0038863Y0100751D02*
X0039138Y0100751D01*
X0039138Y0101350D02*
X0038863Y0101350D01*
X0038863Y0101948D02*
X0039164Y0101948D01*
X0039412Y0102547D02*
X0038863Y0102547D01*
X0038863Y0103145D02*
X0039659Y0103145D01*
X0040236Y0103744D02*
X0038863Y0103744D01*
X0038863Y0104342D02*
X0041071Y0104342D01*
X0038863Y0104941D02*
X0048763Y0104941D01*
X0048763Y0105539D02*
X0038863Y0105539D01*
X0038863Y0106138D02*
X0048763Y0106138D01*
X0048763Y0106736D02*
X0038863Y0106736D01*
X0038863Y0107335D02*
X0048763Y0107335D01*
X0048763Y0107933D02*
X0044021Y0107933D01*
X0044660Y0108198D02*
X0043365Y0107661D01*
X0041962Y0107661D01*
X0040667Y0108198D01*
X0039675Y0109190D01*
X0039138Y0110485D01*
X0039138Y0111887D01*
X0039675Y0113183D01*
X0040667Y0114175D01*
X0041962Y0114711D01*
X0043365Y0114711D01*
X0044660Y0114175D01*
X0045652Y0113183D01*
X0046188Y0111887D01*
X0046188Y0110485D01*
X0045652Y0109190D01*
X0044660Y0108198D01*
X0044994Y0108532D02*
X0048763Y0108532D01*
X0048763Y0109130D02*
X0045593Y0109130D01*
X0045875Y0109729D02*
X0048763Y0109729D01*
X0048763Y0110327D02*
X0046123Y0110327D01*
X0046188Y0110926D02*
X0048763Y0110926D01*
X0048763Y0111524D02*
X0046188Y0111524D01*
X0046091Y0112123D02*
X0048763Y0112123D01*
X0048763Y0112721D02*
X0045843Y0112721D01*
X0045515Y0113320D02*
X0048763Y0113320D01*
X0048763Y0113918D02*
X0044917Y0113918D01*
X0043834Y0114517D02*
X0048763Y0114517D01*
X0048763Y0115115D02*
X0038863Y0115115D01*
X0038863Y0114517D02*
X0041493Y0114517D01*
X0040410Y0113918D02*
X0038863Y0113918D01*
X0038863Y0113320D02*
X0039812Y0113320D01*
X0039484Y0112721D02*
X0038863Y0112721D01*
X0038863Y0112123D02*
X0039236Y0112123D01*
X0039138Y0111524D02*
X0038863Y0111524D01*
X0038863Y0110926D02*
X0039138Y0110926D01*
X0039204Y0110327D02*
X0038863Y0110327D01*
X0038863Y0109729D02*
X0039452Y0109729D01*
X0039734Y0109130D02*
X0038863Y0109130D01*
X0038863Y0108532D02*
X0040333Y0108532D01*
X0041306Y0107933D02*
X0038863Y0107933D01*
X0038863Y0115714D02*
X0048827Y0115714D01*
X0049074Y0116312D02*
X0038863Y0116312D01*
X0038863Y0116911D02*
X0049322Y0116911D01*
X0049764Y0117509D02*
X0038863Y0117509D01*
X0038863Y0118108D02*
X0040884Y0118108D01*
X0040667Y0118198D02*
X0041962Y0117661D01*
X0043365Y0117661D01*
X0044660Y0118198D01*
X0045652Y0119190D01*
X0046188Y0120485D01*
X0046188Y0121887D01*
X0045652Y0123183D01*
X0044660Y0124175D01*
X0043365Y0124711D01*
X0041962Y0124711D01*
X0040667Y0124175D01*
X0039675Y0123183D01*
X0039138Y0121887D01*
X0039138Y0120485D01*
X0039675Y0119190D01*
X0040667Y0118198D01*
X0040158Y0118706D02*
X0038863Y0118706D01*
X0038863Y0119305D02*
X0039627Y0119305D01*
X0039379Y0119903D02*
X0038863Y0119903D01*
X0038863Y0120502D02*
X0039138Y0120502D01*
X0039138Y0121101D02*
X0038863Y0121101D01*
X0038863Y0121699D02*
X0039138Y0121699D01*
X0039308Y0122298D02*
X0038863Y0122298D01*
X0038863Y0122896D02*
X0039556Y0122896D01*
X0039987Y0123495D02*
X0038863Y0123495D01*
X0038863Y0124093D02*
X0040585Y0124093D01*
X0041915Y0124692D02*
X0038863Y0124692D01*
X0038863Y0125290D02*
X0053263Y0125290D01*
X0053263Y0124692D02*
X0051115Y0124692D01*
X0051713Y0124093D02*
X0053263Y0124093D01*
X0053263Y0123495D02*
X0051754Y0123495D01*
X0052739Y0125889D02*
X0038863Y0125889D01*
X0038863Y0126487D02*
X0052140Y0126487D01*
X0051542Y0127086D02*
X0038863Y0127086D01*
X0043412Y0124692D02*
X0048212Y0124692D01*
X0047614Y0124093D02*
X0044742Y0124093D01*
X0045340Y0123495D02*
X0047573Y0123495D01*
X0047573Y0122896D02*
X0045771Y0122896D01*
X0046019Y0122298D02*
X0047596Y0122298D01*
X0048194Y0121699D02*
X0046188Y0121699D01*
X0046188Y0121101D02*
X0048793Y0121101D01*
X0050073Y0120502D02*
X0046188Y0120502D01*
X0045948Y0119903D02*
X0050490Y0119903D01*
X0051088Y0119305D02*
X0045700Y0119305D01*
X0045169Y0118706D02*
X0050961Y0118706D01*
X0050363Y0118108D02*
X0044443Y0118108D01*
X0048763Y0086985D02*
X0038863Y0086985D01*
X0038863Y0086387D02*
X0048763Y0086387D01*
X0048763Y0085788D02*
X0038863Y0085788D01*
X0038863Y0085190D02*
X0048763Y0085190D01*
X0048763Y0084591D02*
X0043654Y0084591D01*
X0043365Y0084711D02*
X0041962Y0084711D01*
X0040667Y0084175D01*
X0039675Y0083183D01*
X0039138Y0081888D01*
X0039138Y0080485D01*
X0039675Y0079190D01*
X0040667Y0078198D01*
X0041962Y0077661D01*
X0043365Y0077661D01*
X0044660Y0078198D01*
X0045652Y0079190D01*
X0046188Y0080485D01*
X0046188Y0081888D01*
X0045652Y0083183D01*
X0044660Y0084175D01*
X0043365Y0084711D01*
X0044842Y0083993D02*
X0048763Y0083993D01*
X0048763Y0083394D02*
X0045441Y0083394D01*
X0045812Y0082796D02*
X0048763Y0082796D01*
X0048763Y0082197D02*
X0046060Y0082197D01*
X0046188Y0081599D02*
X0048763Y0081599D01*
X0048763Y0081000D02*
X0046188Y0081000D01*
X0046154Y0080402D02*
X0048763Y0080402D01*
X0048763Y0079803D02*
X0045906Y0079803D01*
X0045658Y0079205D02*
X0048763Y0079205D01*
X0048763Y0078606D02*
X0045068Y0078606D01*
X0044201Y0078008D02*
X0048763Y0078008D01*
X0048763Y0077409D02*
X0038863Y0077409D01*
X0038863Y0076811D02*
X0048763Y0076811D01*
X0048763Y0076212D02*
X0038863Y0076212D01*
X0038863Y0075614D02*
X0048763Y0075614D01*
X0048763Y0075015D02*
X0038863Y0075015D01*
X0038863Y0074417D02*
X0041251Y0074417D01*
X0040667Y0074175D02*
X0039675Y0073183D01*
X0039138Y0071888D01*
X0039138Y0070485D01*
X0039675Y0069190D01*
X0040667Y0068198D01*
X0041962Y0067661D01*
X0043365Y0067661D01*
X0044660Y0068198D01*
X0045652Y0069190D01*
X0046188Y0070485D01*
X0046188Y0071888D01*
X0045652Y0073183D01*
X0044660Y0074175D01*
X0043365Y0074711D01*
X0041962Y0074711D01*
X0040667Y0074175D01*
X0040310Y0073818D02*
X0038863Y0073818D01*
X0038863Y0073220D02*
X0039712Y0073220D01*
X0039442Y0072621D02*
X0038863Y0072621D01*
X0038863Y0072023D02*
X0039194Y0072023D01*
X0039138Y0071424D02*
X0038863Y0071424D01*
X0038863Y0070826D02*
X0039138Y0070826D01*
X0039245Y0070227D02*
X0038863Y0070227D01*
X0038863Y0069629D02*
X0039493Y0069629D01*
X0039835Y0069030D02*
X0038863Y0069030D01*
X0038863Y0068432D02*
X0040433Y0068432D01*
X0041548Y0067833D02*
X0038863Y0067833D01*
X0038863Y0067234D02*
X0048763Y0067234D01*
X0048763Y0066636D02*
X0038863Y0066636D01*
X0038863Y0066037D02*
X0048763Y0066037D01*
X0048763Y0065439D02*
X0038863Y0065439D01*
X0038863Y0064840D02*
X0048763Y0064840D01*
X0048763Y0064242D02*
X0044498Y0064242D01*
X0044660Y0064175D02*
X0043365Y0064711D01*
X0041962Y0064711D01*
X0040667Y0064175D01*
X0039675Y0063183D01*
X0039138Y0061887D01*
X0039138Y0060485D01*
X0039675Y0059190D01*
X0040667Y0058198D01*
X0041962Y0057661D01*
X0043365Y0057661D01*
X0044660Y0058198D01*
X0045652Y0059190D01*
X0046188Y0060485D01*
X0046188Y0061887D01*
X0045652Y0063183D01*
X0044660Y0064175D01*
X0045191Y0063643D02*
X0048763Y0063643D01*
X0048763Y0063045D02*
X0045709Y0063045D01*
X0045957Y0062446D02*
X0048763Y0062446D01*
X0048763Y0061848D02*
X0046188Y0061848D01*
X0046188Y0061249D02*
X0048763Y0061249D01*
X0048763Y0060651D02*
X0046188Y0060651D01*
X0046009Y0060052D02*
X0048763Y0060052D01*
X0048763Y0059454D02*
X0045761Y0059454D01*
X0045318Y0058855D02*
X0048763Y0058855D01*
X0048763Y0058257D02*
X0044719Y0058257D01*
X0043365Y0054711D02*
X0041962Y0054711D01*
X0040667Y0054175D01*
X0039675Y0053183D01*
X0039138Y0051887D01*
X0039138Y0050485D01*
X0039675Y0049190D01*
X0040667Y0048198D01*
X0041962Y0047661D01*
X0043365Y0047661D01*
X0044660Y0048198D01*
X0045652Y0049190D01*
X0046188Y0050485D01*
X0046188Y0051887D01*
X0045652Y0053183D01*
X0044660Y0054175D01*
X0043365Y0054711D01*
X0043475Y0054666D02*
X0048763Y0054666D01*
X0048763Y0055264D02*
X0038863Y0055264D01*
X0038863Y0054666D02*
X0041852Y0054666D01*
X0040559Y0054067D02*
X0038863Y0054067D01*
X0038863Y0053469D02*
X0039961Y0053469D01*
X0039546Y0052870D02*
X0038863Y0052870D01*
X0038863Y0052272D02*
X0039298Y0052272D01*
X0039138Y0051673D02*
X0038863Y0051673D01*
X0038863Y0051075D02*
X0039138Y0051075D01*
X0039142Y0050476D02*
X0038863Y0050476D01*
X0038863Y0049878D02*
X0039390Y0049878D01*
X0039638Y0049279D02*
X0038863Y0049279D01*
X0038863Y0048681D02*
X0040184Y0048681D01*
X0040946Y0048082D02*
X0038863Y0048082D01*
X0038863Y0047484D02*
X0048763Y0047484D01*
X0048763Y0048082D02*
X0044380Y0048082D01*
X0045143Y0048681D02*
X0048763Y0048681D01*
X0048763Y0049279D02*
X0045689Y0049279D01*
X0045937Y0049878D02*
X0048763Y0049878D01*
X0048763Y0050476D02*
X0046185Y0050476D01*
X0046188Y0051075D02*
X0048763Y0051075D01*
X0048763Y0051673D02*
X0046188Y0051673D01*
X0046029Y0052272D02*
X0048763Y0052272D01*
X0048763Y0052870D02*
X0045781Y0052870D01*
X0045366Y0053469D02*
X0048763Y0053469D01*
X0048763Y0054067D02*
X0044768Y0054067D01*
X0048763Y0055863D02*
X0038863Y0055863D01*
X0038863Y0056461D02*
X0048763Y0056461D01*
X0048763Y0057060D02*
X0038863Y0057060D01*
X0038863Y0057658D02*
X0048763Y0057658D01*
X0040608Y0058257D02*
X0038863Y0058257D01*
X0038863Y0058855D02*
X0040009Y0058855D01*
X0039566Y0059454D02*
X0038863Y0059454D01*
X0038863Y0060052D02*
X0039318Y0060052D01*
X0039138Y0060651D02*
X0038863Y0060651D01*
X0038863Y0061249D02*
X0039138Y0061249D01*
X0039138Y0061848D02*
X0038863Y0061848D01*
X0038863Y0062446D02*
X0039370Y0062446D01*
X0039618Y0063045D02*
X0038863Y0063045D01*
X0038863Y0063643D02*
X0040135Y0063643D01*
X0040829Y0064242D02*
X0038863Y0064242D01*
X0043779Y0067833D02*
X0048763Y0067833D01*
X0048763Y0068432D02*
X0044894Y0068432D01*
X0045492Y0069030D02*
X0048763Y0069030D01*
X0048763Y0069629D02*
X0045834Y0069629D01*
X0046082Y0070227D02*
X0048763Y0070227D01*
X0048763Y0070826D02*
X0046188Y0070826D01*
X0046188Y0071424D02*
X0048763Y0071424D01*
X0048763Y0072023D02*
X0046133Y0072023D01*
X0045885Y0072621D02*
X0048763Y0072621D01*
X0048763Y0073220D02*
X0045615Y0073220D01*
X0045017Y0073818D02*
X0048763Y0073818D01*
X0048763Y0074417D02*
X0044076Y0074417D01*
X0041126Y0078008D02*
X0038863Y0078008D01*
X0038863Y0078606D02*
X0040259Y0078606D01*
X0039669Y0079205D02*
X0038863Y0079205D01*
X0038863Y0079803D02*
X0039421Y0079803D01*
X0039173Y0080402D02*
X0038863Y0080402D01*
X0038863Y0081000D02*
X0039138Y0081000D01*
X0039138Y0081599D02*
X0038863Y0081599D01*
X0038863Y0082197D02*
X0039267Y0082197D01*
X0039515Y0082796D02*
X0038863Y0082796D01*
X0038863Y0083394D02*
X0039886Y0083394D01*
X0040485Y0083993D02*
X0038863Y0083993D01*
X0038863Y0084591D02*
X0041673Y0084591D01*
X0080163Y0065439D02*
X0080854Y0065439D01*
X0080573Y0066037D02*
X0080553Y0066037D01*
X0080163Y0064840D02*
X0081453Y0064840D01*
X0080163Y0064242D02*
X0083769Y0064242D01*
X0085166Y0063045D02*
X0080163Y0063045D01*
X0080163Y0063643D02*
X0098782Y0063643D01*
X0101466Y0060651D02*
X0109138Y0060651D01*
X0109138Y0060485D02*
X0109675Y0059190D01*
X0110667Y0058198D01*
X0111962Y0057661D01*
X0113365Y0057661D01*
X0114660Y0058198D01*
X0115652Y0059190D01*
X0116188Y0060485D01*
X0116188Y0061887D01*
X0115652Y0063183D01*
X0114660Y0064175D01*
X0113365Y0064711D01*
X0111962Y0064711D01*
X0110667Y0064175D01*
X0109675Y0063183D01*
X0109138Y0061887D01*
X0109138Y0060485D01*
X0109318Y0060052D02*
X0100868Y0060052D01*
X0100269Y0059454D02*
X0109566Y0059454D01*
X0110009Y0058855D02*
X0097171Y0058855D01*
X0096572Y0058257D02*
X0110608Y0058257D01*
X0111962Y0054711D02*
X0110667Y0054175D01*
X0109675Y0053183D01*
X0109138Y0051887D01*
X0109138Y0050485D01*
X0109675Y0049190D01*
X0110667Y0048198D01*
X0111962Y0047661D01*
X0113365Y0047661D01*
X0114660Y0048198D01*
X0115652Y0049190D01*
X0116188Y0050485D01*
X0116188Y0051887D01*
X0115652Y0053183D01*
X0114660Y0054175D01*
X0113365Y0054711D01*
X0111962Y0054711D01*
X0111852Y0054666D02*
X0092981Y0054666D01*
X0092383Y0054067D02*
X0110559Y0054067D01*
X0109961Y0053469D02*
X0091784Y0053469D01*
X0091186Y0052870D02*
X0109546Y0052870D01*
X0109298Y0052272D02*
X0084417Y0052272D01*
X0085015Y0051673D02*
X0109138Y0051673D01*
X0109138Y0051075D02*
X0086732Y0051075D01*
X0087330Y0050476D02*
X0109142Y0050476D01*
X0109390Y0049878D02*
X0087654Y0049878D01*
X0087654Y0049279D02*
X0109638Y0049279D01*
X0110184Y0048681D02*
X0087654Y0048681D01*
X0087316Y0048082D02*
X0110946Y0048082D01*
X0114380Y0048082D02*
X0116463Y0048082D01*
X0116463Y0047484D02*
X0086717Y0047484D01*
X0079254Y0046287D02*
X0116463Y0046287D01*
X0116463Y0046885D02*
X0078921Y0046885D01*
X0079254Y0045688D02*
X0116463Y0045688D01*
X0116463Y0045090D02*
X0079254Y0045090D01*
X0078925Y0044491D02*
X0111431Y0044491D01*
X0110385Y0043893D02*
X0078326Y0043893D01*
X0078694Y0051673D02*
X0057563Y0051673D01*
X0048763Y0046885D02*
X0038863Y0046885D01*
X0038863Y0046287D02*
X0048763Y0046287D01*
X0048763Y0045688D02*
X0038863Y0045688D01*
X0038863Y0045090D02*
X0048763Y0045090D01*
X0048763Y0044491D02*
X0043896Y0044491D01*
X0043365Y0044711D02*
X0041962Y0044711D01*
X0040667Y0044175D01*
X0039675Y0043183D01*
X0039138Y0041888D01*
X0039138Y0040485D01*
X0039675Y0039190D01*
X0040667Y0038198D01*
X0041962Y0037661D01*
X0043365Y0037661D01*
X0044660Y0038198D01*
X0045652Y0039190D01*
X0046188Y0040485D01*
X0046188Y0041888D01*
X0045652Y0043183D01*
X0044660Y0044175D01*
X0043365Y0044711D01*
X0044942Y0043893D02*
X0048763Y0043893D01*
X0048763Y0043294D02*
X0045541Y0043294D01*
X0045854Y0042696D02*
X0048763Y0042696D01*
X0048763Y0042097D02*
X0046102Y0042097D01*
X0046188Y0041498D02*
X0048763Y0041498D01*
X0048763Y0040900D02*
X0046188Y0040900D01*
X0046112Y0040301D02*
X0048763Y0040301D01*
X0048763Y0039703D02*
X0045864Y0039703D01*
X0045567Y0039104D02*
X0048763Y0039104D01*
X0048763Y0038506D02*
X0044968Y0038506D01*
X0043959Y0037907D02*
X0048763Y0037907D01*
X0048763Y0037309D02*
X0038863Y0037309D01*
X0038863Y0037907D02*
X0041368Y0037907D01*
X0040359Y0038506D02*
X0038863Y0038506D01*
X0038863Y0039104D02*
X0039760Y0039104D01*
X0039462Y0039703D02*
X0038863Y0039703D01*
X0038863Y0040301D02*
X0039215Y0040301D01*
X0039138Y0040900D02*
X0038863Y0040900D01*
X0038863Y0041498D02*
X0039138Y0041498D01*
X0039225Y0042097D02*
X0038863Y0042097D01*
X0038863Y0042696D02*
X0039473Y0042696D01*
X0039786Y0043294D02*
X0038863Y0043294D01*
X0038863Y0043893D02*
X0040385Y0043893D01*
X0041431Y0044491D02*
X0038863Y0044491D01*
X0038863Y0036710D02*
X0048763Y0036710D01*
X0048763Y0036112D02*
X0038863Y0036112D01*
X0038863Y0035513D02*
X0048763Y0035513D01*
X0048763Y0034915D02*
X0038863Y0034915D01*
X0038863Y0034316D02*
X0041009Y0034316D01*
X0040667Y0034175D02*
X0039675Y0033183D01*
X0039138Y0031887D01*
X0039138Y0030485D01*
X0039675Y0029190D01*
X0040667Y0028198D01*
X0041962Y0027661D01*
X0043365Y0027661D01*
X0044660Y0028198D01*
X0045652Y0029190D01*
X0046188Y0030485D01*
X0046188Y0031887D01*
X0045652Y0033183D01*
X0044660Y0034175D01*
X0043365Y0034711D01*
X0041962Y0034711D01*
X0040667Y0034175D01*
X0040210Y0033718D02*
X0038863Y0033718D01*
X0038863Y0033119D02*
X0039649Y0033119D01*
X0039401Y0032521D02*
X0038863Y0032521D01*
X0038863Y0031922D02*
X0039153Y0031922D01*
X0039138Y0031324D02*
X0038863Y0031324D01*
X0038863Y0030725D02*
X0039138Y0030725D01*
X0039287Y0030127D02*
X0038863Y0030127D01*
X0038863Y0029528D02*
X0039535Y0029528D01*
X0039935Y0028930D02*
X0038863Y0028930D01*
X0038863Y0028331D02*
X0040533Y0028331D01*
X0041790Y0027733D02*
X0038863Y0027733D01*
X0038863Y0027134D02*
X0045794Y0027134D01*
X0045763Y0026536D02*
X0038863Y0026536D01*
X0038863Y0025937D02*
X0045763Y0025937D01*
X0045763Y0025339D02*
X0038863Y0025339D01*
X0043537Y0027733D02*
X0046041Y0027733D01*
X0046289Y0028331D02*
X0044793Y0028331D01*
X0045392Y0028930D02*
X0046684Y0028930D01*
X0047283Y0029528D02*
X0045792Y0029528D01*
X0046040Y0030127D02*
X0047881Y0030127D01*
X0048480Y0030725D02*
X0046188Y0030725D01*
X0046188Y0031324D02*
X0048763Y0031324D01*
X0048763Y0031922D02*
X0046174Y0031922D01*
X0045926Y0032521D02*
X0048763Y0032521D01*
X0048763Y0033119D02*
X0045678Y0033119D01*
X0045117Y0033718D02*
X0048763Y0033718D01*
X0048763Y0034316D02*
X0044318Y0034316D01*
X0041013Y0012171D02*
X0078192Y0012171D01*
X0077594Y0011573D02*
X0041312Y0011573D01*
X0041611Y0010974D02*
X0077073Y0010974D01*
X0077073Y0010376D02*
X0041910Y0010376D01*
X0042210Y0009777D02*
X0077073Y0009777D01*
X0077214Y0009179D02*
X0042509Y0009179D01*
X0113959Y0037907D02*
X0116463Y0037907D01*
X0116463Y0038506D02*
X0114968Y0038506D01*
X0115567Y0039104D02*
X0116463Y0039104D01*
X0116463Y0039703D02*
X0115864Y0039703D01*
X0116112Y0040301D02*
X0116463Y0040301D01*
X0116463Y0040900D02*
X0116188Y0040900D01*
X0116188Y0041498D02*
X0116463Y0041498D01*
X0116463Y0042097D02*
X0116102Y0042097D01*
X0115854Y0042696D02*
X0116463Y0042696D01*
X0116463Y0043294D02*
X0115541Y0043294D01*
X0114942Y0043893D02*
X0116463Y0043893D01*
X0116463Y0044491D02*
X0113896Y0044491D01*
X0115143Y0048681D02*
X0116463Y0048681D01*
X0116463Y0049279D02*
X0115689Y0049279D01*
X0115937Y0049878D02*
X0116463Y0049878D01*
X0116463Y0050476D02*
X0116185Y0050476D01*
X0116188Y0051075D02*
X0116463Y0051075D01*
X0116463Y0051673D02*
X0116188Y0051673D01*
X0116029Y0052272D02*
X0116463Y0052272D01*
X0116463Y0052870D02*
X0115781Y0052870D01*
X0115366Y0053469D02*
X0116463Y0053469D01*
X0116463Y0054067D02*
X0114768Y0054067D01*
X0113475Y0054666D02*
X0116463Y0054666D01*
X0116463Y0055264D02*
X0093580Y0055264D01*
X0094178Y0055863D02*
X0116463Y0055863D01*
X0116463Y0056461D02*
X0094777Y0056461D01*
X0095375Y0057060D02*
X0116463Y0057060D01*
X0116463Y0057658D02*
X0095974Y0057658D01*
X0091494Y0058855D02*
X0082033Y0058855D01*
X0082631Y0058257D02*
X0090895Y0058257D01*
X0090297Y0057658D02*
X0083230Y0057658D01*
X0083828Y0057060D02*
X0089698Y0057060D01*
X0084373Y0061249D02*
X0080163Y0061249D01*
X0080163Y0061848D02*
X0084373Y0061848D01*
X0084567Y0062446D02*
X0080163Y0062446D01*
X0092863Y0070826D02*
X0093073Y0070826D01*
X0093073Y0071424D02*
X0092264Y0071424D01*
X0091763Y0072023D02*
X0093073Y0072023D01*
X0093142Y0072621D02*
X0092155Y0072621D01*
X0092554Y0073220D02*
X0093740Y0073220D01*
X0094457Y0073818D02*
X0092554Y0073818D01*
X0092554Y0074417D02*
X0095055Y0074417D01*
X0095654Y0075015D02*
X0092291Y0075015D01*
X0091693Y0075614D02*
X0094380Y0075614D01*
X0104963Y0075614D02*
X0116463Y0075614D01*
X0116463Y0076212D02*
X0104963Y0076212D01*
X0104963Y0076811D02*
X0116463Y0076811D01*
X0116463Y0077409D02*
X0104963Y0077409D01*
X0104963Y0078008D02*
X0111126Y0078008D01*
X0110667Y0078198D02*
X0111962Y0077661D01*
X0113365Y0077661D01*
X0114660Y0078198D01*
X0115652Y0079190D01*
X0116188Y0080485D01*
X0116188Y0081888D01*
X0115652Y0083183D01*
X0114660Y0084175D01*
X0113365Y0084711D01*
X0111962Y0084711D01*
X0110667Y0084175D01*
X0109675Y0083183D01*
X0109138Y0081888D01*
X0109138Y0080485D01*
X0109675Y0079190D01*
X0110667Y0078198D01*
X0110259Y0078606D02*
X0104963Y0078606D01*
X0104963Y0079205D02*
X0109669Y0079205D01*
X0109421Y0079803D02*
X0104963Y0079803D01*
X0104963Y0080402D02*
X0109173Y0080402D01*
X0109138Y0081000D02*
X0104963Y0081000D01*
X0104963Y0081599D02*
X0109138Y0081599D01*
X0109267Y0082197D02*
X0104963Y0082197D01*
X0104963Y0082796D02*
X0109515Y0082796D01*
X0109886Y0083394D02*
X0104963Y0083394D01*
X0104963Y0083993D02*
X0110485Y0083993D01*
X0111673Y0084591D02*
X0104963Y0084591D01*
X0104963Y0085190D02*
X0116463Y0085190D01*
X0116463Y0085788D02*
X0105104Y0085788D01*
X0105702Y0086387D02*
X0116463Y0086387D01*
X0116463Y0086985D02*
X0106301Y0086985D01*
X0106899Y0087584D02*
X0116463Y0087584D01*
X0116463Y0088182D02*
X0114623Y0088182D01*
X0114660Y0088198D02*
X0115652Y0089190D01*
X0116188Y0090485D01*
X0116188Y0091887D01*
X0115652Y0093183D01*
X0114660Y0094175D01*
X0113365Y0094711D01*
X0111962Y0094711D01*
X0110667Y0094175D01*
X0109675Y0093183D01*
X0109138Y0091887D01*
X0109138Y0090485D01*
X0109675Y0089190D01*
X0110667Y0088198D01*
X0111962Y0087661D01*
X0113365Y0087661D01*
X0114660Y0088198D01*
X0115243Y0088781D02*
X0116463Y0088781D01*
X0116463Y0089379D02*
X0115730Y0089379D01*
X0115978Y0089978D02*
X0116463Y0089978D01*
X0116463Y0090576D02*
X0116188Y0090576D01*
X0116188Y0091175D02*
X0116463Y0091175D01*
X0116463Y0091773D02*
X0116188Y0091773D01*
X0115988Y0092372D02*
X0116463Y0092372D01*
X0116463Y0092970D02*
X0115740Y0092970D01*
X0115266Y0093569D02*
X0116463Y0093569D01*
X0116463Y0094167D02*
X0114667Y0094167D01*
X0116463Y0094766D02*
X0108963Y0094766D01*
X0108963Y0094167D02*
X0110660Y0094167D01*
X0110061Y0093569D02*
X0108963Y0093569D01*
X0108963Y0092970D02*
X0109587Y0092970D01*
X0109339Y0092372D02*
X0108963Y0092372D01*
X0108963Y0091773D02*
X0109138Y0091773D01*
X0109138Y0091175D02*
X0108963Y0091175D01*
X0108963Y0090576D02*
X0109138Y0090576D01*
X0108963Y0089978D02*
X0109349Y0089978D01*
X0109596Y0089379D02*
X0108695Y0089379D01*
X0108097Y0088781D02*
X0110084Y0088781D01*
X0110704Y0088182D02*
X0107498Y0088182D01*
X0113654Y0084591D02*
X0116463Y0084591D01*
X0116463Y0083993D02*
X0114842Y0083993D01*
X0115441Y0083394D02*
X0116463Y0083394D01*
X0116463Y0082796D02*
X0115812Y0082796D01*
X0116060Y0082197D02*
X0116463Y0082197D01*
X0116463Y0081599D02*
X0116188Y0081599D01*
X0116188Y0081000D02*
X0116463Y0081000D01*
X0116463Y0080402D02*
X0116154Y0080402D01*
X0115906Y0079803D02*
X0116463Y0079803D01*
X0116463Y0079205D02*
X0115658Y0079205D01*
X0115068Y0078606D02*
X0116463Y0078606D01*
X0116463Y0078008D02*
X0114201Y0078008D01*
X0113365Y0074711D02*
X0111962Y0074711D01*
X0110667Y0074175D01*
X0109675Y0073183D01*
X0109138Y0071888D01*
X0109138Y0070485D01*
X0109675Y0069190D01*
X0110667Y0068198D01*
X0111962Y0067661D01*
X0113365Y0067661D01*
X0114660Y0068198D01*
X0115652Y0069190D01*
X0116188Y0070485D01*
X0116188Y0071888D01*
X0115652Y0073183D01*
X0114660Y0074175D01*
X0113365Y0074711D01*
X0114076Y0074417D02*
X0116463Y0074417D01*
X0116463Y0075015D02*
X0104963Y0075015D01*
X0104963Y0074417D02*
X0111251Y0074417D01*
X0110310Y0073818D02*
X0104963Y0073818D01*
X0104963Y0073220D02*
X0109712Y0073220D01*
X0109442Y0072621D02*
X0104963Y0072621D01*
X0104963Y0072023D02*
X0109194Y0072023D01*
X0109138Y0071424D02*
X0104963Y0071424D01*
X0104963Y0070826D02*
X0109138Y0070826D01*
X0109245Y0070227D02*
X0104963Y0070227D01*
X0104963Y0069629D02*
X0109493Y0069629D01*
X0109835Y0069030D02*
X0104963Y0069030D01*
X0104963Y0068432D02*
X0110433Y0068432D01*
X0111548Y0067833D02*
X0104963Y0067833D01*
X0104963Y0067234D02*
X0116463Y0067234D01*
X0116463Y0066636D02*
X0104963Y0066636D01*
X0104963Y0066037D02*
X0116463Y0066037D01*
X0116463Y0065439D02*
X0104963Y0065439D01*
X0104963Y0064840D02*
X0116463Y0064840D01*
X0116463Y0064242D02*
X0114498Y0064242D01*
X0115191Y0063643D02*
X0116463Y0063643D01*
X0116463Y0063045D02*
X0115709Y0063045D01*
X0115957Y0062446D02*
X0116463Y0062446D01*
X0116463Y0061848D02*
X0116188Y0061848D01*
X0116188Y0061249D02*
X0116463Y0061249D01*
X0116463Y0060651D02*
X0116188Y0060651D01*
X0116009Y0060052D02*
X0116463Y0060052D01*
X0116463Y0059454D02*
X0115761Y0059454D01*
X0115318Y0058855D02*
X0116463Y0058855D01*
X0116463Y0058257D02*
X0114719Y0058257D01*
X0109138Y0061249D02*
X0102065Y0061249D01*
X0102663Y0061848D02*
X0109138Y0061848D01*
X0109370Y0062446D02*
X0103262Y0062446D01*
X0103861Y0063045D02*
X0109618Y0063045D01*
X0110135Y0063643D02*
X0104459Y0063643D01*
X0104963Y0064242D02*
X0110829Y0064242D01*
X0113779Y0067833D02*
X0116463Y0067833D01*
X0116463Y0068432D02*
X0114894Y0068432D01*
X0115492Y0069030D02*
X0116463Y0069030D01*
X0116463Y0069629D02*
X0115834Y0069629D01*
X0116082Y0070227D02*
X0116463Y0070227D01*
X0116463Y0070826D02*
X0116188Y0070826D01*
X0116188Y0071424D02*
X0116463Y0071424D01*
X0116463Y0072023D02*
X0116133Y0072023D01*
X0115885Y0072621D02*
X0116463Y0072621D01*
X0116463Y0073220D02*
X0115615Y0073220D01*
X0115017Y0073818D02*
X0116463Y0073818D01*
X0116463Y0095365D02*
X0108963Y0095365D01*
X0108963Y0095963D02*
X0116463Y0095963D01*
X0116463Y0096562D02*
X0108963Y0096562D01*
X0108963Y0097160D02*
X0116463Y0097160D01*
X0116463Y0097759D02*
X0113599Y0097759D01*
X0113365Y0097661D02*
X0114660Y0098198D01*
X0115652Y0099190D01*
X0116188Y0100485D01*
X0116188Y0101887D01*
X0115652Y0103183D01*
X0114660Y0104175D01*
X0113365Y0104711D01*
X0111962Y0104711D01*
X0110667Y0104175D01*
X0109675Y0103183D01*
X0109138Y0101887D01*
X0109138Y0100485D01*
X0109675Y0099190D01*
X0110667Y0098198D01*
X0111962Y0097661D01*
X0113365Y0097661D01*
X0114819Y0098357D02*
X0116463Y0098357D01*
X0116463Y0098956D02*
X0115418Y0098956D01*
X0115803Y0099554D02*
X0116463Y0099554D01*
X0116463Y0100153D02*
X0116051Y0100153D01*
X0116188Y0100751D02*
X0116463Y0100751D01*
X0116463Y0101350D02*
X0116188Y0101350D01*
X0116163Y0101948D02*
X0116463Y0101948D01*
X0116463Y0102547D02*
X0115915Y0102547D01*
X0115668Y0103145D02*
X0116463Y0103145D01*
X0116463Y0103744D02*
X0115091Y0103744D01*
X0114256Y0104342D02*
X0116463Y0104342D01*
X0116463Y0104941D02*
X0108963Y0104941D01*
X0108963Y0105539D02*
X0116463Y0105539D01*
X0116463Y0106138D02*
X0108963Y0106138D01*
X0108963Y0106736D02*
X0116463Y0106736D01*
X0111071Y0104342D02*
X0108963Y0104342D01*
X0108963Y0103744D02*
X0110236Y0103744D01*
X0109659Y0103145D02*
X0108963Y0103145D01*
X0108963Y0102547D02*
X0109412Y0102547D01*
X0109164Y0101948D02*
X0108963Y0101948D01*
X0108963Y0101350D02*
X0109138Y0101350D01*
X0109138Y0100751D02*
X0108963Y0100751D01*
X0108963Y0100153D02*
X0109276Y0100153D01*
X0109524Y0099554D02*
X0108963Y0099554D01*
X0108963Y0098956D02*
X0109909Y0098956D01*
X0110508Y0098357D02*
X0108963Y0098357D01*
X0108963Y0097759D02*
X0111728Y0097759D01*
X0084851Y0184543D02*
X0057563Y0184543D01*
X0057563Y0185141D02*
X0084252Y0185141D01*
X0083954Y0185740D02*
X0057531Y0185740D01*
X0057283Y0186338D02*
X0083355Y0186338D01*
X0082873Y0186937D02*
X0057035Y0186937D01*
X0056637Y0187535D02*
X0082873Y0187535D01*
X0082873Y0188134D02*
X0056039Y0188134D01*
X0055135Y0188732D02*
X0083053Y0188732D01*
D18*
X0053163Y0184786D02*
X0053163Y0131686D01*
X0057663Y0127186D01*
X0057663Y0119186D01*
X0053163Y0114686D01*
X0053163Y0029186D01*
X0050163Y0026186D01*
X0050163Y0023186D01*
M02*
