G75*
%MOIN*%
%OFA0B0*%
%FSLAX25Y25*%
%IPPOS*%
%LPD*%
%AMOC8*
5,1,8,0,0,1.08239X$1,22.5*
%
%ADD10C,0.01200*%
%ADD11C,0.00400*%
%ADD12C,0.00500*%
%ADD13C,0.00300*%
%ADD14C,0.00394*%
%ADD15C,0.00600*%
%ADD16C,0.00787*%
%ADD17C,0.00800*%
%ADD18R,0.01673X0.01772*%
%ADD19R,0.10000X0.01000*%
D10*
X0048663Y0040686D02*
X0059663Y0040686D01*
X0100663Y0059186D02*
X0106163Y0053686D01*
D11*
X0105364Y0018755D02*
X0104963Y0018355D01*
X0104963Y0017554D01*
X0105364Y0017154D01*
X0106965Y0018755D01*
X0105364Y0018755D01*
X0106965Y0018755D02*
X0107366Y0018355D01*
X0107366Y0017554D01*
X0106965Y0017154D01*
X0105364Y0017154D01*
X0105364Y0016265D02*
X0104963Y0016265D01*
X0104963Y0015865D01*
X0105364Y0015865D01*
X0105364Y0016265D01*
X0105364Y0014888D02*
X0104963Y0014487D01*
X0104963Y0013687D01*
X0105364Y0013286D01*
X0105364Y0012398D02*
X0104963Y0012398D01*
X0104963Y0011997D01*
X0105364Y0011997D01*
X0105364Y0012398D01*
X0104963Y0011020D02*
X0104963Y0009419D01*
X0104963Y0010220D02*
X0107366Y0010220D01*
X0106565Y0009419D01*
X0106565Y0008442D02*
X0104963Y0007641D01*
X0106565Y0006841D01*
X0106965Y0013286D02*
X0107366Y0013687D01*
X0107366Y0014487D01*
X0106965Y0014888D01*
X0106565Y0014888D01*
X0106164Y0014487D01*
X0105764Y0014888D01*
X0105364Y0014888D01*
X0106164Y0014487D02*
X0106164Y0014087D01*
D12*
X0096663Y0065186D02*
X0088663Y0065186D01*
X0088663Y0070186D01*
X0096663Y0070186D01*
X0096663Y0065186D01*
X0079055Y0079739D02*
X0076272Y0079739D01*
X0051217Y0104794D01*
X0051217Y0107578D01*
X0076272Y0132633D01*
X0079055Y0132633D01*
X0104110Y0107578D01*
X0104110Y0104794D01*
X0079055Y0079739D01*
X0075694Y0083915D02*
X0075696Y0084003D01*
X0075702Y0084091D01*
X0075712Y0084179D01*
X0075726Y0084267D01*
X0075743Y0084353D01*
X0075765Y0084439D01*
X0075790Y0084523D01*
X0075820Y0084607D01*
X0075852Y0084689D01*
X0075889Y0084769D01*
X0075929Y0084848D01*
X0075973Y0084925D01*
X0076020Y0085000D01*
X0076070Y0085072D01*
X0076124Y0085143D01*
X0076180Y0085210D01*
X0076240Y0085276D01*
X0076302Y0085338D01*
X0076368Y0085398D01*
X0076435Y0085454D01*
X0076506Y0085508D01*
X0076578Y0085558D01*
X0076653Y0085605D01*
X0076730Y0085649D01*
X0076809Y0085689D01*
X0076889Y0085726D01*
X0076971Y0085758D01*
X0077055Y0085788D01*
X0077139Y0085813D01*
X0077225Y0085835D01*
X0077311Y0085852D01*
X0077399Y0085866D01*
X0077487Y0085876D01*
X0077575Y0085882D01*
X0077663Y0085884D01*
X0077751Y0085882D01*
X0077839Y0085876D01*
X0077927Y0085866D01*
X0078015Y0085852D01*
X0078101Y0085835D01*
X0078187Y0085813D01*
X0078271Y0085788D01*
X0078355Y0085758D01*
X0078437Y0085726D01*
X0078517Y0085689D01*
X0078596Y0085649D01*
X0078673Y0085605D01*
X0078748Y0085558D01*
X0078820Y0085508D01*
X0078891Y0085454D01*
X0078958Y0085398D01*
X0079024Y0085338D01*
X0079086Y0085276D01*
X0079146Y0085210D01*
X0079202Y0085143D01*
X0079256Y0085072D01*
X0079306Y0085000D01*
X0079353Y0084925D01*
X0079397Y0084848D01*
X0079437Y0084769D01*
X0079474Y0084689D01*
X0079506Y0084607D01*
X0079536Y0084523D01*
X0079561Y0084439D01*
X0079583Y0084353D01*
X0079600Y0084267D01*
X0079614Y0084179D01*
X0079624Y0084091D01*
X0079630Y0084003D01*
X0079632Y0083915D01*
X0079630Y0083827D01*
X0079624Y0083739D01*
X0079614Y0083651D01*
X0079600Y0083563D01*
X0079583Y0083477D01*
X0079561Y0083391D01*
X0079536Y0083307D01*
X0079506Y0083223D01*
X0079474Y0083141D01*
X0079437Y0083061D01*
X0079397Y0082982D01*
X0079353Y0082905D01*
X0079306Y0082830D01*
X0079256Y0082758D01*
X0079202Y0082687D01*
X0079146Y0082620D01*
X0079086Y0082554D01*
X0079024Y0082492D01*
X0078958Y0082432D01*
X0078891Y0082376D01*
X0078820Y0082322D01*
X0078748Y0082272D01*
X0078673Y0082225D01*
X0078596Y0082181D01*
X0078517Y0082141D01*
X0078437Y0082104D01*
X0078355Y0082072D01*
X0078271Y0082042D01*
X0078187Y0082017D01*
X0078101Y0081995D01*
X0078015Y0081978D01*
X0077927Y0081964D01*
X0077839Y0081954D01*
X0077751Y0081948D01*
X0077663Y0081946D01*
X0077575Y0081948D01*
X0077487Y0081954D01*
X0077399Y0081964D01*
X0077311Y0081978D01*
X0077225Y0081995D01*
X0077139Y0082017D01*
X0077055Y0082042D01*
X0076971Y0082072D01*
X0076889Y0082104D01*
X0076809Y0082141D01*
X0076730Y0082181D01*
X0076653Y0082225D01*
X0076578Y0082272D01*
X0076506Y0082322D01*
X0076435Y0082376D01*
X0076368Y0082432D01*
X0076302Y0082492D01*
X0076240Y0082554D01*
X0076180Y0082620D01*
X0076124Y0082687D01*
X0076070Y0082758D01*
X0076020Y0082830D01*
X0075973Y0082905D01*
X0075929Y0082982D01*
X0075889Y0083061D01*
X0075852Y0083141D01*
X0075820Y0083223D01*
X0075790Y0083307D01*
X0075765Y0083391D01*
X0075743Y0083477D01*
X0075726Y0083563D01*
X0075712Y0083651D01*
X0075702Y0083739D01*
X0075696Y0083827D01*
X0075694Y0083915D01*
X0063911Y0140086D02*
X0063913Y0140123D01*
X0063919Y0140160D01*
X0063929Y0140197D01*
X0063942Y0140231D01*
X0063960Y0140265D01*
X0063980Y0140296D01*
X0064004Y0140325D01*
X0064031Y0140351D01*
X0064061Y0140374D01*
X0064092Y0140394D01*
X0064126Y0140410D01*
X0064161Y0140423D01*
X0064198Y0140432D01*
X0064235Y0140437D01*
X0064272Y0140438D01*
X0064310Y0140435D01*
X0064347Y0140428D01*
X0064382Y0140417D01*
X0064417Y0140403D01*
X0064450Y0140384D01*
X0064480Y0140363D01*
X0064509Y0140338D01*
X0064534Y0140311D01*
X0064556Y0140281D01*
X0064575Y0140248D01*
X0064591Y0140214D01*
X0064603Y0140179D01*
X0064611Y0140142D01*
X0064615Y0140105D01*
X0064615Y0140067D01*
X0064611Y0140030D01*
X0064603Y0139993D01*
X0064591Y0139958D01*
X0064575Y0139924D01*
X0064556Y0139891D01*
X0064534Y0139861D01*
X0064509Y0139834D01*
X0064480Y0139809D01*
X0064450Y0139788D01*
X0064417Y0139769D01*
X0064382Y0139755D01*
X0064347Y0139744D01*
X0064310Y0139737D01*
X0064272Y0139734D01*
X0064235Y0139735D01*
X0064198Y0139740D01*
X0064161Y0139749D01*
X0064126Y0139762D01*
X0064092Y0139778D01*
X0064061Y0139798D01*
X0064031Y0139821D01*
X0064004Y0139847D01*
X0063980Y0139876D01*
X0063960Y0139907D01*
X0063942Y0139941D01*
X0063929Y0139975D01*
X0063919Y0140012D01*
X0063913Y0140049D01*
X0063911Y0140086D01*
X0054911Y0140086D02*
X0054913Y0140123D01*
X0054919Y0140160D01*
X0054929Y0140197D01*
X0054942Y0140231D01*
X0054960Y0140265D01*
X0054980Y0140296D01*
X0055004Y0140325D01*
X0055031Y0140351D01*
X0055061Y0140374D01*
X0055092Y0140394D01*
X0055126Y0140410D01*
X0055161Y0140423D01*
X0055198Y0140432D01*
X0055235Y0140437D01*
X0055272Y0140438D01*
X0055310Y0140435D01*
X0055347Y0140428D01*
X0055382Y0140417D01*
X0055417Y0140403D01*
X0055450Y0140384D01*
X0055480Y0140363D01*
X0055509Y0140338D01*
X0055534Y0140311D01*
X0055556Y0140281D01*
X0055575Y0140248D01*
X0055591Y0140214D01*
X0055603Y0140179D01*
X0055611Y0140142D01*
X0055615Y0140105D01*
X0055615Y0140067D01*
X0055611Y0140030D01*
X0055603Y0139993D01*
X0055591Y0139958D01*
X0055575Y0139924D01*
X0055556Y0139891D01*
X0055534Y0139861D01*
X0055509Y0139834D01*
X0055480Y0139809D01*
X0055450Y0139788D01*
X0055417Y0139769D01*
X0055382Y0139755D01*
X0055347Y0139744D01*
X0055310Y0139737D01*
X0055272Y0139734D01*
X0055235Y0139735D01*
X0055198Y0139740D01*
X0055161Y0139749D01*
X0055126Y0139762D01*
X0055092Y0139778D01*
X0055061Y0139798D01*
X0055031Y0139821D01*
X0055004Y0139847D01*
X0054980Y0139876D01*
X0054960Y0139907D01*
X0054942Y0139941D01*
X0054929Y0139975D01*
X0054919Y0140012D01*
X0054913Y0140049D01*
X0054911Y0140086D01*
X0054831Y0145363D02*
X0054833Y0145400D01*
X0054839Y0145437D01*
X0054849Y0145474D01*
X0054862Y0145508D01*
X0054880Y0145542D01*
X0054900Y0145573D01*
X0054924Y0145602D01*
X0054951Y0145628D01*
X0054981Y0145651D01*
X0055012Y0145671D01*
X0055046Y0145687D01*
X0055081Y0145700D01*
X0055118Y0145709D01*
X0055155Y0145714D01*
X0055192Y0145715D01*
X0055230Y0145712D01*
X0055267Y0145705D01*
X0055302Y0145694D01*
X0055337Y0145680D01*
X0055370Y0145661D01*
X0055400Y0145640D01*
X0055429Y0145615D01*
X0055454Y0145588D01*
X0055476Y0145558D01*
X0055495Y0145525D01*
X0055511Y0145491D01*
X0055523Y0145456D01*
X0055531Y0145419D01*
X0055535Y0145382D01*
X0055535Y0145344D01*
X0055531Y0145307D01*
X0055523Y0145270D01*
X0055511Y0145235D01*
X0055495Y0145201D01*
X0055476Y0145168D01*
X0055454Y0145138D01*
X0055429Y0145111D01*
X0055400Y0145086D01*
X0055370Y0145065D01*
X0055337Y0145046D01*
X0055302Y0145032D01*
X0055267Y0145021D01*
X0055230Y0145014D01*
X0055192Y0145011D01*
X0055155Y0145012D01*
X0055118Y0145017D01*
X0055081Y0145026D01*
X0055046Y0145039D01*
X0055012Y0145055D01*
X0054981Y0145075D01*
X0054951Y0145098D01*
X0054924Y0145124D01*
X0054900Y0145153D01*
X0054880Y0145184D01*
X0054862Y0145218D01*
X0054849Y0145252D01*
X0054839Y0145289D01*
X0054833Y0145326D01*
X0054831Y0145363D01*
X0063831Y0145363D02*
X0063833Y0145400D01*
X0063839Y0145437D01*
X0063849Y0145474D01*
X0063862Y0145508D01*
X0063880Y0145542D01*
X0063900Y0145573D01*
X0063924Y0145602D01*
X0063951Y0145628D01*
X0063981Y0145651D01*
X0064012Y0145671D01*
X0064046Y0145687D01*
X0064081Y0145700D01*
X0064118Y0145709D01*
X0064155Y0145714D01*
X0064192Y0145715D01*
X0064230Y0145712D01*
X0064267Y0145705D01*
X0064302Y0145694D01*
X0064337Y0145680D01*
X0064370Y0145661D01*
X0064400Y0145640D01*
X0064429Y0145615D01*
X0064454Y0145588D01*
X0064476Y0145558D01*
X0064495Y0145525D01*
X0064511Y0145491D01*
X0064523Y0145456D01*
X0064531Y0145419D01*
X0064535Y0145382D01*
X0064535Y0145344D01*
X0064531Y0145307D01*
X0064523Y0145270D01*
X0064511Y0145235D01*
X0064495Y0145201D01*
X0064476Y0145168D01*
X0064454Y0145138D01*
X0064429Y0145111D01*
X0064400Y0145086D01*
X0064370Y0145065D01*
X0064337Y0145046D01*
X0064302Y0145032D01*
X0064267Y0145021D01*
X0064230Y0145014D01*
X0064192Y0145011D01*
X0064155Y0145012D01*
X0064118Y0145017D01*
X0064081Y0145026D01*
X0064046Y0145039D01*
X0064012Y0145055D01*
X0063981Y0145075D01*
X0063951Y0145098D01*
X0063924Y0145124D01*
X0063900Y0145153D01*
X0063880Y0145184D01*
X0063862Y0145218D01*
X0063849Y0145252D01*
X0063839Y0145289D01*
X0063833Y0145326D01*
X0063831Y0145363D01*
X0062951Y0184907D02*
X0065156Y0184907D01*
X0065156Y0202466D01*
X0062951Y0202466D01*
X0051376Y0202466D02*
X0049171Y0202466D01*
X0049171Y0184907D01*
X0051376Y0184907D01*
D13*
X0072445Y0191120D02*
X0072445Y0192254D01*
X0072728Y0192538D01*
X0073579Y0192538D01*
X0073579Y0190836D01*
X0072728Y0190836D01*
X0072445Y0191120D01*
X0074239Y0190836D02*
X0074807Y0190836D01*
X0074523Y0190836D02*
X0074523Y0192538D01*
X0074807Y0192538D02*
X0074239Y0192538D01*
X0075514Y0192538D02*
X0075514Y0190836D01*
X0076648Y0190836D02*
X0076648Y0192538D01*
X0076081Y0191971D01*
X0075514Y0192538D01*
X0077355Y0192254D02*
X0077355Y0191687D01*
X0077639Y0191403D01*
X0078490Y0191403D01*
X0078490Y0190836D02*
X0078490Y0192538D01*
X0077639Y0192538D01*
X0077355Y0192254D01*
X0092493Y0173838D02*
X0092493Y0172136D01*
X0091358Y0172136D01*
X0093200Y0172420D02*
X0093484Y0172136D01*
X0094051Y0172136D01*
X0094334Y0172420D01*
X0094334Y0173554D01*
X0094051Y0173838D01*
X0093484Y0173838D01*
X0093200Y0173554D01*
X0095042Y0173554D02*
X0095325Y0173838D01*
X0095892Y0173838D01*
X0096176Y0173554D01*
X0096176Y0173271D01*
X0095892Y0172987D01*
X0095325Y0172987D01*
X0095042Y0172703D01*
X0095042Y0172420D01*
X0095325Y0172136D01*
X0095892Y0172136D01*
X0096176Y0172420D01*
X0096192Y0163638D02*
X0096476Y0163354D01*
X0096476Y0163071D01*
X0096192Y0162787D01*
X0095625Y0162787D01*
X0095342Y0162503D01*
X0095342Y0162220D01*
X0095625Y0161936D01*
X0096192Y0161936D01*
X0096476Y0162220D01*
X0096192Y0163638D02*
X0095625Y0163638D01*
X0095342Y0163354D01*
X0094634Y0163638D02*
X0093784Y0163638D01*
X0093500Y0163354D01*
X0093500Y0162220D01*
X0093784Y0161936D01*
X0094634Y0161936D01*
X0094634Y0163638D01*
X0092793Y0163071D02*
X0092226Y0163638D01*
X0091658Y0163071D01*
X0091658Y0161936D01*
X0091658Y0162787D02*
X0092793Y0162787D01*
X0092793Y0163071D02*
X0092793Y0161936D01*
X0082897Y0060538D02*
X0082329Y0059971D01*
X0081762Y0060538D01*
X0081762Y0058836D01*
X0081055Y0059120D02*
X0080771Y0058836D01*
X0080204Y0058836D01*
X0079921Y0059120D01*
X0079921Y0060254D01*
X0080204Y0060538D01*
X0080771Y0060538D01*
X0081055Y0060254D01*
X0081055Y0059120D01*
X0079213Y0058836D02*
X0079213Y0060538D01*
X0078363Y0060538D01*
X0078079Y0060254D01*
X0078079Y0059120D01*
X0078363Y0058836D01*
X0079213Y0058836D01*
X0077372Y0058836D02*
X0076238Y0058836D01*
X0076805Y0059687D02*
X0077372Y0059687D01*
X0077372Y0060538D02*
X0077372Y0058836D01*
X0077372Y0060538D02*
X0076238Y0060538D01*
X0082897Y0060538D02*
X0082897Y0058836D01*
D14*
X0067144Y0008674D02*
X0064978Y0008674D01*
X0064978Y0025997D01*
X0064978Y0039776D02*
X0064978Y0047256D01*
X0067144Y0046863D02*
X0067144Y0008674D01*
X0070097Y0008674D01*
X0070097Y0012808D01*
X0099230Y0012808D01*
X0099230Y0008674D01*
X0102183Y0008674D01*
X0102183Y0013792D01*
X0102183Y0008674D02*
X0104349Y0008674D01*
X0104349Y0025997D01*
X0102183Y0019304D02*
X0102183Y0050012D01*
X0099230Y0052965D01*
X0099230Y0052571D01*
X0070097Y0052571D01*
X0070097Y0057099D01*
X0067144Y0057099D01*
X0067144Y0051390D01*
X0064978Y0051193D02*
X0064978Y0057099D01*
X0067144Y0057099D01*
X0099230Y0057099D02*
X0099230Y0052965D01*
X0102183Y0057099D02*
X0104349Y0054934D01*
X0104349Y0039776D01*
X0102183Y0057099D02*
X0099230Y0057099D01*
X0099207Y0142068D02*
X0099207Y0143643D01*
X0092120Y0143643D02*
X0092120Y0142068D01*
X0085207Y0142068D02*
X0085207Y0143643D01*
X0078120Y0143643D02*
X0078120Y0142068D01*
X0078120Y0150730D02*
X0078120Y0152304D01*
X0085207Y0152304D02*
X0085207Y0150730D01*
X0092120Y0150730D02*
X0092120Y0152304D01*
X0099207Y0152304D02*
X0099207Y0150730D01*
D15*
X0065687Y0148689D02*
X0065687Y0144083D01*
X0057640Y0144083D02*
X0057640Y0148689D01*
X0056687Y0148689D02*
X0056687Y0144083D01*
X0048640Y0144083D02*
X0048640Y0148689D01*
D16*
X0086703Y0149568D02*
X0086705Y0149580D01*
X0086710Y0149591D01*
X0086719Y0149600D01*
X0086730Y0149605D01*
X0086742Y0149607D01*
X0086754Y0149605D01*
X0086765Y0149600D01*
X0086774Y0149591D01*
X0086779Y0149580D01*
X0086781Y0149568D01*
X0086779Y0149556D01*
X0086774Y0149545D01*
X0086765Y0149536D01*
X0086754Y0149531D01*
X0086742Y0149529D01*
X0086730Y0149531D01*
X0086719Y0149536D01*
X0086710Y0149545D01*
X0086705Y0149556D01*
X0086703Y0149568D01*
X0100703Y0149568D02*
X0100705Y0149580D01*
X0100710Y0149591D01*
X0100719Y0149600D01*
X0100730Y0149605D01*
X0100742Y0149607D01*
X0100754Y0149605D01*
X0100765Y0149600D01*
X0100774Y0149591D01*
X0100779Y0149580D01*
X0100781Y0149568D01*
X0100779Y0149556D01*
X0100774Y0149545D01*
X0100765Y0149536D01*
X0100754Y0149531D01*
X0100742Y0149529D01*
X0100730Y0149531D01*
X0100719Y0149536D01*
X0100710Y0149545D01*
X0100705Y0149556D01*
X0100703Y0149568D01*
X0073233Y0078208D02*
X0073235Y0078247D01*
X0073241Y0078286D01*
X0073251Y0078324D01*
X0073264Y0078361D01*
X0073281Y0078396D01*
X0073301Y0078430D01*
X0073325Y0078461D01*
X0073352Y0078490D01*
X0073381Y0078516D01*
X0073413Y0078539D01*
X0073447Y0078559D01*
X0073483Y0078575D01*
X0073520Y0078587D01*
X0073559Y0078596D01*
X0073598Y0078601D01*
X0073637Y0078602D01*
X0073676Y0078599D01*
X0073715Y0078592D01*
X0073752Y0078581D01*
X0073789Y0078567D01*
X0073824Y0078549D01*
X0073857Y0078528D01*
X0073888Y0078503D01*
X0073916Y0078476D01*
X0073941Y0078446D01*
X0073963Y0078413D01*
X0073982Y0078379D01*
X0073997Y0078343D01*
X0074009Y0078305D01*
X0074017Y0078267D01*
X0074021Y0078228D01*
X0074021Y0078188D01*
X0074017Y0078149D01*
X0074009Y0078111D01*
X0073997Y0078073D01*
X0073982Y0078037D01*
X0073963Y0078003D01*
X0073941Y0077970D01*
X0073916Y0077940D01*
X0073888Y0077913D01*
X0073857Y0077888D01*
X0073824Y0077867D01*
X0073789Y0077849D01*
X0073752Y0077835D01*
X0073715Y0077824D01*
X0073676Y0077817D01*
X0073637Y0077814D01*
X0073598Y0077815D01*
X0073559Y0077820D01*
X0073520Y0077829D01*
X0073483Y0077841D01*
X0073447Y0077857D01*
X0073413Y0077877D01*
X0073381Y0077900D01*
X0073352Y0077926D01*
X0073325Y0077955D01*
X0073301Y0077986D01*
X0073281Y0078020D01*
X0073264Y0078055D01*
X0073251Y0078092D01*
X0073241Y0078130D01*
X0073235Y0078169D01*
X0073233Y0078208D01*
D17*
X0074632Y0068139D02*
X0070695Y0068139D01*
X0070695Y0062234D02*
X0074632Y0062234D01*
X0061963Y0060549D02*
X0061963Y0055824D01*
X0056845Y0048344D02*
X0054482Y0048344D01*
X0049364Y0055824D02*
X0049364Y0060549D01*
X0054482Y0068029D02*
X0056845Y0068029D01*
D18*
X0084504Y0186076D03*
D19*
X0096663Y0205286D03*
M02*
