G75*
%MOIN*%
%OFA0B0*%
%FSLAX25Y25*%
%IPPOS*%
%LPD*%
%AMOC8*
5,1,8,0,0,1.08239X$1,22.5*
%
%ADD10C,0.03569*%
%ADD11C,0.05250*%
%ADD12C,0.02781*%
%ADD13C,0.03962*%
%ADD14C,0.02381*%
%ADD15C,0.00600*%
%ADD16C,0.00800*%
%ADD17C,0.04000*%
%ADD18C,0.01000*%
%ADD19C,0.01600*%
D10*
X0083238Y0200186D03*
X0105089Y0200186D03*
D11*
X0112663Y0201186D03*
X0112663Y0191186D03*
X0112663Y0181186D03*
X0112663Y0171186D03*
X0112663Y0161186D03*
X0112663Y0151186D03*
X0112663Y0141186D03*
X0112663Y0131186D03*
X0112663Y0121186D03*
X0112663Y0111186D03*
X0112663Y0101186D03*
X0112663Y0091186D03*
X0112663Y0081186D03*
X0112663Y0071186D03*
X0112663Y0061186D03*
X0112663Y0051186D03*
X0112663Y0041186D03*
X0112663Y0031186D03*
X0112663Y0021186D03*
X0042663Y0021186D03*
X0042663Y0031186D03*
X0042663Y0041186D03*
X0042663Y0051186D03*
X0042663Y0061186D03*
X0042663Y0071186D03*
X0042663Y0081186D03*
X0042663Y0091186D03*
X0042663Y0101186D03*
X0042663Y0111186D03*
X0042663Y0121186D03*
X0042663Y0131186D03*
X0042663Y0141186D03*
X0042663Y0151186D03*
X0042663Y0161186D03*
X0042663Y0171186D03*
X0042663Y0181186D03*
X0042663Y0191186D03*
X0042663Y0201186D03*
D12*
X0074120Y0182730D03*
X0077663Y0182730D03*
X0077663Y0179186D03*
X0074120Y0179186D03*
X0074120Y0175643D03*
X0077663Y0175643D03*
X0081207Y0175643D03*
X0081207Y0179186D03*
X0081207Y0182730D03*
D13*
X0092663Y0183186D03*
X0097663Y0183186D03*
D14*
X0102163Y0187186D03*
X0104663Y0187186D03*
X0101463Y0177786D03*
X0102463Y0174686D03*
X0108863Y0177286D03*
X0088963Y0178186D03*
X0088963Y0175186D03*
X0087863Y0172186D03*
X0089063Y0169386D03*
X0088663Y0160086D03*
X0085163Y0160386D03*
X0080463Y0159886D03*
X0077363Y0160086D03*
X0076663Y0156786D03*
X0073463Y0156786D03*
X0070263Y0155686D03*
X0070363Y0158686D03*
X0066663Y0159986D03*
X0059163Y0160186D03*
X0047663Y0167186D03*
X0047663Y0170186D03*
X0047663Y0173186D03*
X0063863Y0171286D03*
X0064963Y0172786D03*
X0066063Y0171286D03*
X0069263Y0171186D03*
X0053163Y0184786D03*
X0051563Y0185886D03*
X0053163Y0186986D03*
X0054763Y0185886D03*
X0071163Y0192186D03*
X0084963Y0187686D03*
X0086063Y0186286D03*
X0093163Y0159386D03*
X0092063Y0156586D03*
X0096463Y0155986D03*
X0096163Y0158986D03*
X0100963Y0155986D03*
X0102363Y0158786D03*
X0084763Y0155986D03*
X0076363Y0151186D03*
X0073863Y0153386D03*
X0071863Y0150786D03*
X0066663Y0151086D03*
X0081663Y0147986D03*
X0095663Y0147186D03*
X0087663Y0139186D03*
X0084463Y0139186D03*
X0092663Y0135686D03*
X0091163Y0132286D03*
X0094463Y0130986D03*
X0097663Y0135586D03*
X0110663Y0126286D03*
X0110663Y0116186D03*
X0094163Y0113186D03*
X0085863Y0116186D03*
X0077563Y0116486D03*
X0077663Y0110986D03*
X0077663Y0107186D03*
X0085963Y0107086D03*
X0085963Y0110086D03*
X0094163Y0106686D03*
X0085863Y0103986D03*
X0091163Y0101686D03*
X0094163Y0101686D03*
X0091163Y0097686D03*
X0089163Y0095186D03*
X0084163Y0094686D03*
X0080163Y0091686D03*
X0082163Y0089186D03*
X0085163Y0089686D03*
X0075663Y0088186D03*
X0072663Y0087686D03*
X0080163Y0084086D03*
X0073763Y0078086D03*
X0087863Y0077386D03*
X0090463Y0073886D03*
X0095163Y0071686D03*
X0095363Y0077586D03*
X0083463Y0069886D03*
X0088363Y0067686D03*
X0082663Y0066586D03*
X0081663Y0062786D03*
X0086463Y0061386D03*
X0088863Y0058186D03*
X0099163Y0058186D03*
X0099163Y0053186D03*
X0085563Y0049286D03*
X0079663Y0049686D03*
X0077163Y0045686D03*
X0072163Y0045686D03*
X0067163Y0045686D03*
X0061163Y0044686D03*
X0061163Y0041186D03*
X0045163Y0046186D03*
X0059163Y0057686D03*
X0066163Y0058686D03*
X0073463Y0070086D03*
X0059163Y0076186D03*
X0060963Y0084086D03*
X0066663Y0096686D03*
X0066163Y0099686D03*
X0067163Y0102686D03*
X0064163Y0102686D03*
X0061163Y0102686D03*
X0062663Y0099686D03*
X0061163Y0109186D03*
X0061163Y0112186D03*
X0061163Y0115186D03*
X0069363Y0115586D03*
X0069763Y0110886D03*
X0083163Y0099686D03*
X0100163Y0090186D03*
X0110663Y0086186D03*
X0110663Y0066186D03*
X0098463Y0066186D03*
X0094163Y0040686D03*
X0094163Y0033686D03*
X0085963Y0033686D03*
X0077663Y0032186D03*
X0076163Y0021686D03*
X0068663Y0021686D03*
X0068663Y0018686D03*
X0073863Y0017686D03*
X0073863Y0014686D03*
X0079163Y0010186D03*
X0089163Y0010186D03*
X0099163Y0010186D03*
X0111163Y0009186D03*
X0113163Y0013186D03*
X0109963Y0016186D03*
X0104163Y0021686D03*
X0098663Y0021686D03*
X0093663Y0021686D03*
X0087163Y0021686D03*
X0082663Y0021686D03*
X0085663Y0018186D03*
X0093663Y0018186D03*
X0061763Y0022186D03*
X0060663Y0018686D03*
X0058163Y0017686D03*
X0055363Y0017686D03*
X0055363Y0014686D03*
X0055363Y0011686D03*
X0055363Y0008686D03*
X0045663Y0009186D03*
X0045663Y0012686D03*
X0045663Y0016186D03*
X0050163Y0023186D03*
X0049163Y0024686D03*
X0050163Y0026186D03*
X0051163Y0024686D03*
X0044663Y0096186D03*
X0044663Y0106186D03*
X0052163Y0121186D03*
X0049663Y0123186D03*
X0049363Y0126186D03*
X0061763Y0130986D03*
X0060663Y0134186D03*
X0058663Y0136686D03*
X0059063Y0139686D03*
X0070963Y0139286D03*
X0079863Y0133286D03*
X0079663Y0128886D03*
X0076163Y0125986D03*
X0083163Y0125986D03*
X0042763Y0136186D03*
X0045463Y0155286D03*
D15*
X0038863Y0204986D02*
X0038863Y0016470D01*
X0043405Y0007386D01*
X0111922Y0007386D01*
X0116463Y0016470D01*
X0116463Y0204986D01*
X0038863Y0204986D01*
X0038863Y0204892D02*
X0041876Y0204892D01*
X0041923Y0204911D02*
X0040553Y0204344D01*
X0039506Y0203296D01*
X0038938Y0201927D01*
X0038938Y0200445D01*
X0039506Y0199076D01*
X0040553Y0198028D01*
X0041923Y0197461D01*
X0043404Y0197461D01*
X0044774Y0198028D01*
X0045821Y0199076D01*
X0046388Y0200445D01*
X0046388Y0201927D01*
X0045821Y0203296D01*
X0044774Y0204344D01*
X0043404Y0204911D01*
X0041923Y0204911D01*
X0043451Y0204892D02*
X0082888Y0204892D01*
X0082849Y0204883D02*
X0082758Y0204882D01*
X0082732Y0204855D01*
X0082385Y0204774D01*
X0082349Y0204786D01*
X0082268Y0204746D01*
X0082180Y0204726D01*
X0082160Y0204694D01*
X0081840Y0204537D01*
X0081802Y0204541D01*
X0081731Y0204484D01*
X0081650Y0204444D01*
X0081638Y0204409D01*
X0081361Y0204185D01*
X0081323Y0204180D01*
X0081267Y0204109D01*
X0081197Y0204052D01*
X0081193Y0204015D01*
X0080972Y0203735D01*
X0080937Y0203722D01*
X0080898Y0203640D01*
X0080842Y0203569D01*
X0080847Y0203532D01*
X0080694Y0203210D01*
X0080662Y0203189D01*
X0080642Y0203101D01*
X0080604Y0203019D01*
X0080616Y0202984D01*
X0080540Y0202637D01*
X0080513Y0202611D01*
X0080513Y0202519D01*
X0080494Y0202430D01*
X0080513Y0202399D01*
X0080513Y0198023D01*
X0080494Y0197992D01*
X0080513Y0197903D01*
X0080513Y0197812D01*
X0080540Y0197786D01*
X0080606Y0197487D01*
X0080594Y0197456D01*
X0080633Y0197370D01*
X0080653Y0197277D01*
X0080682Y0197260D01*
X0080804Y0196983D01*
X0080798Y0196951D01*
X0080852Y0196873D01*
X0080891Y0196787D01*
X0080922Y0196775D01*
X0081095Y0196528D01*
X0081096Y0196494D01*
X0081165Y0196429D01*
X0081219Y0196352D01*
X0081252Y0196346D01*
X0081470Y0196137D01*
X0081478Y0196105D01*
X0081558Y0196054D01*
X0081626Y0195989D01*
X0081659Y0195990D01*
X0081914Y0195828D01*
X0081928Y0195798D01*
X0082016Y0195763D01*
X0082096Y0195713D01*
X0082128Y0195720D01*
X0082410Y0195611D01*
X0082429Y0195584D01*
X0082522Y0195568D01*
X0082611Y0195533D01*
X0082641Y0195547D01*
X0082939Y0195495D01*
X0082963Y0195472D01*
X0083057Y0195474D01*
X0083151Y0195458D01*
X0083178Y0195477D01*
X0083467Y0195484D01*
X0083483Y0195472D01*
X0083589Y0195487D01*
X0083695Y0195489D01*
X0083709Y0195504D01*
X0083944Y0195538D01*
X0083974Y0195524D01*
X0084063Y0195555D01*
X0084157Y0195569D01*
X0084177Y0195596D01*
X0084412Y0195679D01*
X0084444Y0195671D01*
X0084526Y0195719D01*
X0084615Y0195751D01*
X0084629Y0195781D01*
X0084844Y0195908D01*
X0084877Y0195907D01*
X0084948Y0195970D01*
X0085029Y0196018D01*
X0085037Y0196051D01*
X0085223Y0196218D01*
X0085256Y0196222D01*
X0085312Y0196298D01*
X0085383Y0196361D01*
X0085385Y0196395D01*
X0085534Y0196595D01*
X0085565Y0196606D01*
X0085606Y0196691D01*
X0085663Y0196767D01*
X0085658Y0196800D01*
X0085766Y0197025D01*
X0085794Y0197042D01*
X0085818Y0197134D01*
X0085859Y0197220D01*
X0085847Y0197251D01*
X0085909Y0197493D01*
X0085934Y0197515D01*
X0085939Y0197610D01*
X0085962Y0197702D01*
X0085945Y0197730D01*
X0085957Y0197956D01*
X0085963Y0197962D01*
X0085963Y0198078D01*
X0085970Y0198195D01*
X0085963Y0198201D01*
X0085963Y0202279D01*
X0085974Y0202292D01*
X0085963Y0202401D01*
X0085963Y0202511D01*
X0085952Y0202523D01*
X0085929Y0202754D01*
X0085944Y0202784D01*
X0085917Y0202874D01*
X0085908Y0202969D01*
X0085882Y0202990D01*
X0085809Y0203228D01*
X0085819Y0203260D01*
X0085774Y0203344D01*
X0085747Y0203434D01*
X0085718Y0203450D01*
X0085600Y0203670D01*
X0085603Y0203703D01*
X0085543Y0203776D01*
X0085499Y0203860D01*
X0085467Y0203869D01*
X0085309Y0204062D01*
X0085305Y0204095D01*
X0085232Y0204155D01*
X0085172Y0204228D01*
X0085139Y0204232D01*
X0084946Y0204390D01*
X0084937Y0204422D01*
X0084853Y0204466D01*
X0084780Y0204526D01*
X0084747Y0204523D01*
X0084527Y0204641D01*
X0084511Y0204670D01*
X0084421Y0204697D01*
X0084337Y0204742D01*
X0084305Y0204732D01*
X0084067Y0204805D01*
X0084046Y0204830D01*
X0083951Y0204840D01*
X0083861Y0204867D01*
X0083832Y0204852D01*
X0083600Y0204874D01*
X0083588Y0204886D01*
X0083537Y0204886D01*
X0083536Y0204887D01*
X0083474Y0204887D01*
X0083369Y0204897D01*
X0083356Y0204886D01*
X0083289Y0204886D01*
X0083288Y0204886D01*
X0082969Y0204884D01*
X0082937Y0204903D01*
X0082849Y0204883D01*
X0082955Y0204892D02*
X0083363Y0204892D01*
X0083420Y0204892D02*
X0104907Y0204892D01*
X0104868Y0204888D02*
X0104800Y0204891D01*
X0104796Y0204886D01*
X0104739Y0204886D01*
X0104727Y0204874D01*
X0104495Y0204852D01*
X0104466Y0204867D01*
X0104375Y0204840D01*
X0104281Y0204830D01*
X0104260Y0204805D01*
X0104022Y0204732D01*
X0103990Y0204742D01*
X0103906Y0204697D01*
X0103816Y0204670D01*
X0103800Y0204641D01*
X0103580Y0204523D01*
X0103547Y0204526D01*
X0103474Y0204466D01*
X0103390Y0204422D01*
X0103381Y0204390D01*
X0103188Y0204232D01*
X0103155Y0204228D01*
X0103095Y0204155D01*
X0103021Y0204095D01*
X0103018Y0204062D01*
X0102860Y0203869D01*
X0102828Y0203860D01*
X0102784Y0203776D01*
X0102723Y0203703D01*
X0102727Y0203670D01*
X0102609Y0203450D01*
X0102580Y0203434D01*
X0102552Y0203344D01*
X0102508Y0203260D01*
X0102517Y0203228D01*
X0102445Y0202990D01*
X0102419Y0202969D01*
X0102410Y0202874D01*
X0102383Y0202784D01*
X0102398Y0202754D01*
X0102375Y0202523D01*
X0102363Y0202511D01*
X0102363Y0202401D01*
X0102353Y0202292D01*
X0102363Y0202279D01*
X0102363Y0198050D01*
X0102356Y0198041D01*
X0102363Y0197927D01*
X0102363Y0197812D01*
X0102371Y0197804D01*
X0102388Y0197545D01*
X0102370Y0197512D01*
X0102395Y0197425D01*
X0102401Y0197335D01*
X0102430Y0197310D01*
X0102511Y0197035D01*
X0102501Y0196998D01*
X0102545Y0196919D01*
X0102571Y0196833D01*
X0102604Y0196815D01*
X0102745Y0196565D01*
X0102743Y0196527D01*
X0102803Y0196460D01*
X0102848Y0196381D01*
X0102884Y0196371D01*
X0103077Y0196158D01*
X0103083Y0196121D01*
X0103158Y0196069D01*
X0103218Y0196002D01*
X0103256Y0196001D01*
X0103491Y0195836D01*
X0103506Y0195801D01*
X0103590Y0195767D01*
X0103664Y0195716D01*
X0103701Y0195722D01*
X0103967Y0195614D01*
X0103989Y0195584D01*
X0104078Y0195569D01*
X0104162Y0195535D01*
X0104197Y0195550D01*
X0104467Y0195506D01*
X0104484Y0195488D01*
X0104587Y0195487D01*
X0104688Y0195470D01*
X0104708Y0195485D01*
X0105030Y0195479D01*
X0105058Y0195460D01*
X0105151Y0195477D01*
X0105246Y0195476D01*
X0105270Y0195499D01*
X0105595Y0195558D01*
X0105626Y0195545D01*
X0105714Y0195580D01*
X0105807Y0195596D01*
X0105826Y0195624D01*
X0106134Y0195745D01*
X0106167Y0195738D01*
X0106246Y0195790D01*
X0106334Y0195824D01*
X0106347Y0195855D01*
X0106626Y0196034D01*
X0106659Y0196034D01*
X0106727Y0196100D01*
X0106807Y0196151D01*
X0106814Y0196183D01*
X0107052Y0196413D01*
X0107084Y0196419D01*
X0107138Y0196497D01*
X0107206Y0196563D01*
X0107207Y0196596D01*
X0107396Y0196869D01*
X0107426Y0196881D01*
X0107464Y0196968D01*
X0107518Y0197046D01*
X0107512Y0197078D01*
X0107644Y0197382D01*
X0107672Y0197400D01*
X0107692Y0197493D01*
X0107730Y0197579D01*
X0107717Y0197610D01*
X0107788Y0197937D01*
X0107813Y0197962D01*
X0107813Y0198054D01*
X0107833Y0198144D01*
X0107813Y0198175D01*
X0107813Y0202189D01*
X0107829Y0202211D01*
X0107813Y0202310D01*
X0107813Y0202411D01*
X0107794Y0202430D01*
X0107748Y0202719D01*
X0107762Y0202749D01*
X0107729Y0202838D01*
X0107714Y0202932D01*
X0107687Y0202951D01*
X0107582Y0203232D01*
X0107590Y0203264D01*
X0107540Y0203345D01*
X0107508Y0203433D01*
X0107477Y0203447D01*
X0107320Y0203702D01*
X0107322Y0203735D01*
X0107257Y0203805D01*
X0107208Y0203885D01*
X0107175Y0203893D01*
X0106972Y0204112D01*
X0106966Y0204145D01*
X0106890Y0204201D01*
X0106825Y0204270D01*
X0106792Y0204271D01*
X0106549Y0204447D01*
X0106538Y0204478D01*
X0106452Y0204517D01*
X0106375Y0204573D01*
X0106342Y0204567D01*
X0106070Y0204692D01*
X0106053Y0204720D01*
X0105961Y0204742D01*
X0105874Y0204782D01*
X0105843Y0204770D01*
X0105552Y0204839D01*
X0105530Y0204864D01*
X0105435Y0204867D01*
X0105343Y0204889D01*
X0105314Y0204872D01*
X0105042Y0204882D01*
X0105038Y0204886D01*
X0104971Y0204886D01*
X0104958Y0204897D01*
X0104868Y0204888D01*
X0104964Y0204892D02*
X0116463Y0204892D01*
X0116463Y0204294D02*
X0114373Y0204294D01*
X0114660Y0204175D02*
X0113365Y0204711D01*
X0111962Y0204711D01*
X0110667Y0204175D01*
X0109675Y0203183D01*
X0109138Y0201887D01*
X0109138Y0200485D01*
X0109675Y0199190D01*
X0110667Y0198198D01*
X0111962Y0197661D01*
X0113365Y0197661D01*
X0114660Y0198198D01*
X0115652Y0199190D01*
X0116188Y0200485D01*
X0116188Y0201887D01*
X0115652Y0203183D01*
X0114660Y0204175D01*
X0115140Y0203695D02*
X0116463Y0203695D01*
X0116463Y0203097D02*
X0115688Y0203097D01*
X0115936Y0202498D02*
X0116463Y0202498D01*
X0116463Y0201900D02*
X0116183Y0201900D01*
X0116188Y0201301D02*
X0116463Y0201301D01*
X0116463Y0200703D02*
X0116188Y0200703D01*
X0116031Y0200104D02*
X0116463Y0200104D01*
X0116463Y0199505D02*
X0115783Y0199505D01*
X0115369Y0198907D02*
X0116463Y0198907D01*
X0116463Y0198308D02*
X0114771Y0198308D01*
X0113482Y0197710D02*
X0116463Y0197710D01*
X0116463Y0197111D02*
X0107527Y0197111D01*
X0107739Y0197710D02*
X0111845Y0197710D01*
X0110556Y0198308D02*
X0107813Y0198308D01*
X0107813Y0198907D02*
X0109958Y0198907D01*
X0109544Y0199505D02*
X0107813Y0199505D01*
X0107813Y0200104D02*
X0109296Y0200104D01*
X0109138Y0200703D02*
X0107813Y0200703D01*
X0107813Y0201301D02*
X0109138Y0201301D01*
X0109143Y0201900D02*
X0107813Y0201900D01*
X0107783Y0202498D02*
X0109391Y0202498D01*
X0109639Y0203097D02*
X0107633Y0203097D01*
X0107325Y0203695D02*
X0110187Y0203695D01*
X0110954Y0204294D02*
X0106761Y0204294D01*
X0103263Y0204294D02*
X0085064Y0204294D01*
X0085603Y0203695D02*
X0102724Y0203695D01*
X0102478Y0203097D02*
X0085849Y0203097D01*
X0085963Y0202498D02*
X0102363Y0202498D01*
X0102363Y0201900D02*
X0085963Y0201900D01*
X0085963Y0201301D02*
X0102363Y0201301D01*
X0102363Y0200703D02*
X0085963Y0200703D01*
X0085963Y0200104D02*
X0102363Y0200104D01*
X0102363Y0199505D02*
X0085963Y0199505D01*
X0085963Y0198907D02*
X0102363Y0198907D01*
X0102363Y0198308D02*
X0085963Y0198308D01*
X0085957Y0197710D02*
X0102377Y0197710D01*
X0102488Y0197111D02*
X0085812Y0197111D01*
X0085473Y0196513D02*
X0102755Y0196513D01*
X0103379Y0195914D02*
X0084886Y0195914D01*
X0085415Y0194752D02*
X0085331Y0194707D01*
X0085241Y0194679D01*
X0085225Y0194650D01*
X0084916Y0194485D01*
X0084883Y0194488D01*
X0084810Y0194428D01*
X0084726Y0194383D01*
X0084716Y0194351D01*
X0084445Y0194129D01*
X0084412Y0194126D01*
X0084352Y0194053D01*
X0084279Y0193993D01*
X0084276Y0193959D01*
X0084053Y0193688D01*
X0084022Y0193679D01*
X0083977Y0193595D01*
X0083917Y0193522D01*
X0083920Y0193489D01*
X0083755Y0193180D01*
X0083726Y0193164D01*
X0083698Y0193074D01*
X0083653Y0192990D01*
X0083663Y0192958D01*
X0083561Y0192623D01*
X0083536Y0192602D01*
X0083526Y0192507D01*
X0083499Y0192417D01*
X0083514Y0192387D01*
X0083480Y0192041D01*
X0083460Y0192017D01*
X0083469Y0191921D01*
X0083459Y0191824D01*
X0083479Y0191800D01*
X0083509Y0191450D01*
X0083493Y0191421D01*
X0083519Y0191330D01*
X0083527Y0191237D01*
X0083553Y0191215D01*
X0083653Y0190875D01*
X0083643Y0190843D01*
X0083687Y0190760D01*
X0083713Y0190669D01*
X0083743Y0190653D01*
X0083908Y0190340D01*
X0083904Y0190306D01*
X0083964Y0190233D01*
X0084008Y0190150D01*
X0084040Y0190140D01*
X0084084Y0190086D01*
X0080865Y0190086D01*
X0079563Y0191388D01*
X0079563Y0195763D01*
X0079122Y0196829D01*
X0078306Y0197645D01*
X0076293Y0199658D01*
X0076222Y0199829D01*
X0075406Y0200645D01*
X0074340Y0201086D01*
X0049087Y0201086D01*
X0048021Y0200645D01*
X0047205Y0199829D01*
X0042087Y0194711D01*
X0041962Y0194711D01*
X0040667Y0194175D01*
X0039675Y0193183D01*
X0039138Y0191887D01*
X0039138Y0190485D01*
X0039675Y0189190D01*
X0040667Y0188198D01*
X0041962Y0187661D01*
X0043365Y0187661D01*
X0044660Y0188198D01*
X0045652Y0189190D01*
X0046188Y0190485D01*
X0046188Y0190610D01*
X0050865Y0195286D01*
X0072462Y0195286D01*
X0073763Y0193985D01*
X0073763Y0189609D01*
X0074205Y0188544D01*
X0077205Y0185544D01*
X0078021Y0184728D01*
X0079087Y0184286D01*
X0083961Y0184286D01*
X0084279Y0183929D01*
X0085317Y0183425D01*
X0086469Y0183357D01*
X0087559Y0183736D01*
X0088421Y0184502D01*
X0088925Y0185540D01*
X0088992Y0186692D01*
X0088614Y0187782D01*
X0087756Y0188748D01*
X0087722Y0188829D01*
X0087464Y0189087D01*
X0087522Y0189106D01*
X0087553Y0189096D01*
X0087637Y0189142D01*
X0087728Y0189170D01*
X0087743Y0189199D01*
X0088048Y0189365D01*
X0088081Y0189361D01*
X0088155Y0189422D01*
X0088238Y0189467D01*
X0088248Y0189499D01*
X0088516Y0189720D01*
X0088548Y0189723D01*
X0088609Y0189796D01*
X0088682Y0189857D01*
X0088685Y0189889D01*
X0088906Y0190157D01*
X0088937Y0190167D01*
X0088983Y0190250D01*
X0089043Y0190324D01*
X0089040Y0190356D01*
X0089206Y0190662D01*
X0089235Y0190677D01*
X0089263Y0190768D01*
X0089308Y0190852D01*
X0089299Y0190883D01*
X0089403Y0191214D01*
X0089428Y0191235D01*
X0089439Y0191329D01*
X0089468Y0191420D01*
X0089452Y0191449D01*
X0089491Y0191795D01*
X0089512Y0191820D01*
X0089504Y0191915D01*
X0089515Y0192009D01*
X0089494Y0192035D01*
X0089465Y0192381D01*
X0089481Y0192411D01*
X0089455Y0192501D01*
X0089447Y0192596D01*
X0089421Y0192617D01*
X0089324Y0192952D01*
X0089334Y0192984D01*
X0089290Y0193068D01*
X0089264Y0193158D01*
X0089234Y0193174D01*
X0089073Y0193483D01*
X0089077Y0193517D01*
X0089018Y0193590D01*
X0088974Y0193674D01*
X0088942Y0193684D01*
X0088723Y0193955D01*
X0088720Y0193988D01*
X0088647Y0194049D01*
X0088588Y0194122D01*
X0088555Y0194126D01*
X0088287Y0194348D01*
X0088277Y0194381D01*
X0088194Y0194425D01*
X0088122Y0194486D01*
X0088088Y0194483D01*
X0087782Y0194648D01*
X0087766Y0194678D01*
X0087676Y0194706D01*
X0087593Y0194751D01*
X0087560Y0194741D01*
X0087227Y0194843D01*
X0087206Y0194869D01*
X0087112Y0194878D01*
X0087022Y0194906D01*
X0086992Y0194890D01*
X0086662Y0194923D01*
X0086650Y0194935D01*
X0086594Y0194935D01*
X0086581Y0194946D01*
X0086506Y0194939D01*
X0086432Y0194946D01*
X0086418Y0194935D01*
X0086362Y0194935D01*
X0086350Y0194923D01*
X0086017Y0194890D01*
X0085988Y0194906D01*
X0085898Y0194879D01*
X0085803Y0194869D01*
X0085782Y0194844D01*
X0085447Y0194742D01*
X0085415Y0194752D01*
X0085351Y0194717D02*
X0079563Y0194717D01*
X0079563Y0194119D02*
X0084407Y0194119D01*
X0083917Y0193520D02*
X0079563Y0193520D01*
X0079563Y0192922D02*
X0083652Y0192922D01*
X0083508Y0192323D02*
X0079563Y0192323D01*
X0079563Y0191725D02*
X0083485Y0191725D01*
X0083579Y0191126D02*
X0079825Y0191126D01*
X0080423Y0190528D02*
X0083809Y0190528D01*
X0087986Y0189331D02*
X0100280Y0189331D01*
X0100262Y0189340D02*
X0100575Y0189175D01*
X0100591Y0189145D01*
X0100682Y0189119D01*
X0100765Y0189075D01*
X0100797Y0189085D01*
X0101036Y0189015D01*
X0100073Y0188052D01*
X0100073Y0186320D01*
X0101298Y0185096D01*
X0103029Y0185096D01*
X0103413Y0185480D01*
X0103798Y0185096D01*
X0103876Y0185096D01*
X0097463Y0178683D01*
X0097463Y0170183D01*
X0095666Y0168386D01*
X0094463Y0168386D01*
X0094463Y0171525D01*
X0093702Y0172286D01*
X0091054Y0174934D01*
X0091054Y0176052D01*
X0090420Y0176686D01*
X0091054Y0177320D01*
X0091054Y0179052D01*
X0089829Y0180277D01*
X0088098Y0180277D01*
X0086873Y0179052D01*
X0086873Y0178376D01*
X0083763Y0175266D01*
X0083763Y0168466D01*
X0077684Y0162386D01*
X0075763Y0162386D01*
X0075763Y0170566D01*
X0074943Y0171386D01*
X0071563Y0174766D01*
X0071563Y0190096D01*
X0072029Y0190096D01*
X0073254Y0191320D01*
X0073254Y0193052D01*
X0072029Y0194277D01*
X0070298Y0194277D01*
X0069073Y0193052D01*
X0069073Y0191576D01*
X0068763Y0191266D01*
X0068763Y0191110D01*
X0068677Y0190980D01*
X0068763Y0190548D01*
X0068763Y0173606D01*
X0069584Y0172786D01*
X0072963Y0169406D01*
X0072963Y0162386D01*
X0069843Y0162386D01*
X0063234Y0168996D01*
X0064812Y0168996D01*
X0064963Y0169147D01*
X0065115Y0168996D01*
X0067012Y0168996D01*
X0068354Y0170338D01*
X0068354Y0172235D01*
X0067254Y0173335D01*
X0067254Y0173735D01*
X0065912Y0175077D01*
X0064015Y0175077D01*
X0062673Y0173735D01*
X0062673Y0173335D01*
X0061573Y0172235D01*
X0061573Y0170657D01*
X0054563Y0177666D01*
X0054563Y0183230D01*
X0055129Y0183796D01*
X0055629Y0183796D01*
X0056854Y0185020D01*
X0056854Y0186752D01*
X0055629Y0187977D01*
X0055129Y0187977D01*
X0054029Y0189077D01*
X0052298Y0189077D01*
X0051198Y0187977D01*
X0050698Y0187977D01*
X0049473Y0186752D01*
X0049473Y0185020D01*
X0050698Y0183796D01*
X0051198Y0183796D01*
X0051763Y0183230D01*
X0051763Y0176506D01*
X0065884Y0162386D01*
X0050166Y0162386D01*
X0049463Y0161683D01*
X0048963Y0161183D01*
X0048963Y0163725D01*
X0044540Y0168148D01*
X0044660Y0168198D01*
X0045652Y0169190D01*
X0046188Y0170485D01*
X0046188Y0171888D01*
X0045652Y0173183D01*
X0044660Y0174175D01*
X0043365Y0174711D01*
X0041962Y0174711D01*
X0040667Y0174175D01*
X0039675Y0173183D01*
X0039138Y0171888D01*
X0039138Y0170485D01*
X0039675Y0169190D01*
X0040667Y0168198D01*
X0041363Y0167909D01*
X0041363Y0167648D01*
X0046363Y0162648D01*
X0046363Y0159325D01*
X0045900Y0159788D01*
X0046188Y0160485D01*
X0046188Y0161888D01*
X0045652Y0163183D01*
X0044660Y0164175D01*
X0043365Y0164711D01*
X0041962Y0164711D01*
X0040667Y0164175D01*
X0039675Y0163183D01*
X0039138Y0161888D01*
X0039138Y0160485D01*
X0039675Y0159190D01*
X0040667Y0158198D01*
X0041962Y0157661D01*
X0043365Y0157661D01*
X0044061Y0157950D01*
X0046363Y0155648D01*
X0046363Y0149325D01*
X0045900Y0149788D01*
X0046188Y0150485D01*
X0046188Y0151888D01*
X0045652Y0153183D01*
X0044660Y0154175D01*
X0043365Y0154711D01*
X0041962Y0154711D01*
X0040667Y0154175D01*
X0039675Y0153183D01*
X0039138Y0151888D01*
X0039138Y0150485D01*
X0039675Y0149190D01*
X0040667Y0148198D01*
X0041962Y0147661D01*
X0043365Y0147661D01*
X0044061Y0147950D01*
X0046363Y0145648D01*
X0046363Y0139325D01*
X0045900Y0139788D01*
X0046188Y0140485D01*
X0046188Y0141888D01*
X0045652Y0143183D01*
X0044660Y0144175D01*
X0043365Y0144711D01*
X0041962Y0144711D01*
X0040667Y0144175D01*
X0039675Y0143183D01*
X0039138Y0141888D01*
X0039138Y0140485D01*
X0039675Y0139190D01*
X0040667Y0138198D01*
X0041481Y0137861D01*
X0040673Y0137052D01*
X0040673Y0135320D01*
X0041481Y0134512D01*
X0040667Y0134175D01*
X0039675Y0133183D01*
X0039138Y0131888D01*
X0039138Y0130485D01*
X0039675Y0129190D01*
X0040667Y0128198D01*
X0041962Y0127661D01*
X0043365Y0127661D01*
X0044660Y0128198D01*
X0045652Y0129190D01*
X0045863Y0129701D01*
X0045863Y0123448D01*
X0046463Y0122848D01*
X0046463Y0106189D01*
X0047166Y0105486D01*
X0057896Y0094757D01*
X0045848Y0082709D01*
X0045652Y0083183D01*
X0044660Y0084175D01*
X0043365Y0084711D01*
X0041962Y0084711D01*
X0040667Y0084175D01*
X0039675Y0083183D01*
X0039138Y0081888D01*
X0039138Y0080485D01*
X0039675Y0079190D01*
X0040667Y0078198D01*
X0041962Y0077661D01*
X0043365Y0077661D01*
X0044660Y0078198D01*
X0045652Y0079190D01*
X0045940Y0079886D01*
X0046363Y0079886D01*
X0046363Y0056725D01*
X0044061Y0054423D01*
X0043365Y0054711D01*
X0041962Y0054711D01*
X0040667Y0054175D01*
X0039675Y0053183D01*
X0039138Y0051887D01*
X0039138Y0050485D01*
X0039675Y0049190D01*
X0040667Y0048198D01*
X0041962Y0047661D01*
X0043365Y0047661D01*
X0044660Y0048198D01*
X0045652Y0049190D01*
X0046188Y0050485D01*
X0046188Y0051887D01*
X0045900Y0052584D01*
X0047863Y0054548D01*
X0047863Y0046725D01*
X0044987Y0043848D01*
X0044660Y0044175D01*
X0043365Y0044711D01*
X0041962Y0044711D01*
X0040667Y0044175D01*
X0039675Y0043183D01*
X0039138Y0041888D01*
X0039138Y0040485D01*
X0039675Y0039190D01*
X0040667Y0038198D01*
X0041962Y0037661D01*
X0043365Y0037661D01*
X0044660Y0038198D01*
X0045652Y0039190D01*
X0046188Y0040485D01*
X0046188Y0041373D01*
X0049363Y0044548D01*
X0049363Y0039725D01*
X0044061Y0034423D01*
X0043365Y0034711D01*
X0041962Y0034711D01*
X0040667Y0034175D01*
X0039675Y0033183D01*
X0039138Y0031887D01*
X0039138Y0030485D01*
X0039675Y0029190D01*
X0040667Y0028198D01*
X0041962Y0027661D01*
X0043365Y0027661D01*
X0044660Y0028198D01*
X0045652Y0029190D01*
X0046188Y0030485D01*
X0046188Y0031887D01*
X0045900Y0032584D01*
X0050863Y0037548D01*
X0050863Y0032725D01*
X0042850Y0024711D01*
X0041962Y0024711D01*
X0040667Y0024175D01*
X0039675Y0023183D01*
X0039138Y0021887D01*
X0039138Y0020485D01*
X0039675Y0019190D01*
X0040667Y0018198D01*
X0041962Y0017661D01*
X0043365Y0017661D01*
X0044660Y0018198D01*
X0045652Y0019190D01*
X0046188Y0020485D01*
X0046188Y0021887D01*
X0045652Y0023183D01*
X0045325Y0023510D01*
X0047073Y0025257D01*
X0047073Y0023820D01*
X0048073Y0022820D01*
X0048073Y0022320D01*
X0049298Y0021096D01*
X0051029Y0021096D01*
X0052254Y0022320D01*
X0052254Y0022820D01*
X0053254Y0023820D01*
X0053254Y0025552D01*
X0052254Y0026552D01*
X0052254Y0027052D01*
X0051029Y0028277D01*
X0050092Y0028277D01*
X0053463Y0031648D01*
X0053463Y0078648D01*
X0061702Y0086886D01*
X0070202Y0086886D01*
X0070573Y0087257D01*
X0070573Y0086820D01*
X0071798Y0085596D01*
X0073529Y0085596D01*
X0073793Y0085860D01*
X0076563Y0083089D01*
X0076563Y0062148D01*
X0080225Y0058486D01*
X0085402Y0058486D01*
X0086211Y0059296D01*
X0087329Y0059296D01*
X0088554Y0060520D01*
X0088554Y0062252D01*
X0087329Y0063477D01*
X0085598Y0063477D01*
X0084373Y0062252D01*
X0084373Y0061134D01*
X0084325Y0061086D01*
X0081302Y0061086D01*
X0079163Y0063225D01*
X0079163Y0080489D01*
X0080166Y0079486D01*
X0086661Y0079486D01*
X0087363Y0080189D01*
X0092993Y0085819D01*
X0100363Y0078448D01*
X0100363Y0069925D01*
X0098716Y0068277D01*
X0097598Y0068277D01*
X0096373Y0067052D01*
X0096373Y0065320D01*
X0097598Y0064096D01*
X0099329Y0064096D01*
X0100554Y0065320D01*
X0100554Y0066438D01*
X0101863Y0067748D01*
X0101863Y0030148D01*
X0109427Y0022584D01*
X0109138Y0021887D01*
X0109138Y0020485D01*
X0109675Y0019190D01*
X0110667Y0018198D01*
X0111962Y0017661D01*
X0113365Y0017661D01*
X0114660Y0018198D01*
X0115652Y0019190D01*
X0116188Y0020485D01*
X0116188Y0021887D01*
X0115652Y0023183D01*
X0114660Y0024175D01*
X0113365Y0024711D01*
X0111962Y0024711D01*
X0111266Y0024423D01*
X0104463Y0031225D01*
X0104463Y0037548D01*
X0109427Y0032584D01*
X0109138Y0031887D01*
X0109138Y0030485D01*
X0109675Y0029190D01*
X0110667Y0028198D01*
X0111962Y0027661D01*
X0113365Y0027661D01*
X0114660Y0028198D01*
X0115652Y0029190D01*
X0116188Y0030485D01*
X0116188Y0031887D01*
X0115652Y0033183D01*
X0114660Y0034175D01*
X0113365Y0034711D01*
X0111962Y0034711D01*
X0111266Y0034423D01*
X0105963Y0039725D01*
X0105963Y0046048D01*
X0109427Y0042584D01*
X0109138Y0041888D01*
X0109138Y0040485D01*
X0109675Y0039190D01*
X0110667Y0038198D01*
X0111962Y0037661D01*
X0113365Y0037661D01*
X0114660Y0038198D01*
X0115652Y0039190D01*
X0116188Y0040485D01*
X0116188Y0041888D01*
X0115652Y0043183D01*
X0114660Y0044175D01*
X0113365Y0044711D01*
X0111962Y0044711D01*
X0111266Y0044423D01*
X0107463Y0048225D01*
X0107463Y0054548D01*
X0109427Y0052584D01*
X0109138Y0051887D01*
X0109138Y0050485D01*
X0109675Y0049190D01*
X0110667Y0048198D01*
X0111962Y0047661D01*
X0113365Y0047661D01*
X0114660Y0048198D01*
X0115652Y0049190D01*
X0116188Y0050485D01*
X0116188Y0051887D01*
X0115652Y0053183D01*
X0114660Y0054175D01*
X0113365Y0054711D01*
X0111962Y0054711D01*
X0111266Y0054423D01*
X0108963Y0056725D01*
X0108963Y0081725D01*
X0101811Y0088877D01*
X0102254Y0089320D01*
X0102254Y0091052D01*
X0101029Y0092277D01*
X0099298Y0092277D01*
X0098963Y0091943D01*
X0098963Y0095225D01*
X0096363Y0097825D01*
X0096363Y0102048D01*
X0098202Y0103886D01*
X0104202Y0103886D01*
X0104963Y0104648D01*
X0108963Y0108648D01*
X0108963Y0126648D01*
X0110590Y0128275D01*
X0110667Y0128198D01*
X0111962Y0127661D01*
X0113365Y0127661D01*
X0114660Y0128198D01*
X0115652Y0129190D01*
X0116188Y0130485D01*
X0116188Y0131888D01*
X0115652Y0133183D01*
X0114660Y0134175D01*
X0113365Y0134711D01*
X0111962Y0134711D01*
X0110667Y0134175D01*
X0109675Y0133183D01*
X0109138Y0131888D01*
X0109138Y0130500D01*
X0108963Y0130325D01*
X0108963Y0136648D01*
X0110590Y0138275D01*
X0110667Y0138198D01*
X0111962Y0137661D01*
X0113365Y0137661D01*
X0114660Y0138198D01*
X0115652Y0139190D01*
X0116188Y0140485D01*
X0116188Y0141888D01*
X0115652Y0143183D01*
X0114660Y0144175D01*
X0113365Y0144711D01*
X0111962Y0144711D01*
X0110667Y0144175D01*
X0109675Y0143183D01*
X0109138Y0141888D01*
X0109138Y0140500D01*
X0107463Y0138825D01*
X0107463Y0145148D01*
X0110590Y0148275D01*
X0110667Y0148198D01*
X0111962Y0147661D01*
X0113365Y0147661D01*
X0114660Y0148198D01*
X0115652Y0149190D01*
X0116188Y0150485D01*
X0116188Y0151888D01*
X0115652Y0153183D01*
X0114660Y0154175D01*
X0113365Y0154711D01*
X0111962Y0154711D01*
X0110667Y0154175D01*
X0109675Y0153183D01*
X0109138Y0151888D01*
X0109138Y0150500D01*
X0107363Y0148725D01*
X0107363Y0179189D01*
X0109138Y0180964D01*
X0109138Y0180485D01*
X0109675Y0179190D01*
X0110667Y0178198D01*
X0111962Y0177661D01*
X0113365Y0177661D01*
X0114660Y0178198D01*
X0115652Y0179190D01*
X0116188Y0180485D01*
X0116188Y0181887D01*
X0115652Y0183183D01*
X0114660Y0184175D01*
X0113365Y0184711D01*
X0112885Y0184711D01*
X0116363Y0188189D01*
X0116363Y0194183D01*
X0115661Y0194886D01*
X0114161Y0196386D01*
X0110166Y0196386D01*
X0109463Y0195683D01*
X0107463Y0193683D01*
X0107463Y0188683D01*
X0106754Y0187974D01*
X0106754Y0188052D01*
X0105529Y0189277D01*
X0103798Y0189277D01*
X0103413Y0188893D01*
X0103104Y0189203D01*
X0103403Y0189365D01*
X0103435Y0189361D01*
X0103509Y0189422D01*
X0103593Y0189467D01*
X0103602Y0189499D01*
X0103870Y0189720D01*
X0103902Y0189723D01*
X0103963Y0189796D01*
X0104037Y0189857D01*
X0104040Y0189889D01*
X0104261Y0190157D01*
X0104292Y0190167D01*
X0104337Y0190250D01*
X0104398Y0190324D01*
X0104395Y0190356D01*
X0104560Y0190662D01*
X0104589Y0190677D01*
X0104617Y0190768D01*
X0104663Y0190852D01*
X0104653Y0190883D01*
X0104757Y0191214D01*
X0104783Y0191235D01*
X0104793Y0191329D01*
X0104822Y0191420D01*
X0104807Y0191449D01*
X0104845Y0191795D01*
X0104867Y0191820D01*
X0104859Y0191915D01*
X0104869Y0192009D01*
X0104848Y0192035D01*
X0104819Y0192381D01*
X0104835Y0192411D01*
X0104809Y0192501D01*
X0104801Y0192596D01*
X0104775Y0192617D01*
X0104678Y0192952D01*
X0104688Y0192984D01*
X0104644Y0193068D01*
X0104618Y0193158D01*
X0104589Y0193174D01*
X0104428Y0193483D01*
X0104431Y0193517D01*
X0104372Y0193590D01*
X0104328Y0193674D01*
X0104296Y0193684D01*
X0104077Y0193955D01*
X0104074Y0193988D01*
X0104002Y0194049D01*
X0103942Y0194122D01*
X0103909Y0194126D01*
X0103641Y0194348D01*
X0103632Y0194381D01*
X0103549Y0194425D01*
X0103476Y0194486D01*
X0103443Y0194483D01*
X0103136Y0194648D01*
X0103120Y0194678D01*
X0103030Y0194706D01*
X0102947Y0194751D01*
X0102915Y0194741D01*
X0102582Y0194843D01*
X0102560Y0194869D01*
X0102467Y0194878D01*
X0102376Y0194906D01*
X0102347Y0194890D01*
X0102016Y0194923D01*
X0102004Y0194935D01*
X0101948Y0194935D01*
X0101935Y0194946D01*
X0101860Y0194939D01*
X0101786Y0194946D01*
X0101773Y0194935D01*
X0101716Y0194935D01*
X0101704Y0194923D01*
X0101372Y0194890D01*
X0101342Y0194906D01*
X0101252Y0194879D01*
X0101158Y0194869D01*
X0101137Y0194844D01*
X0100801Y0194742D01*
X0100769Y0194752D01*
X0100686Y0194707D01*
X0100595Y0194679D01*
X0100579Y0194650D01*
X0100270Y0194485D01*
X0100237Y0194488D01*
X0100164Y0194428D01*
X0100080Y0194383D01*
X0100071Y0194351D01*
X0099800Y0194129D01*
X0099767Y0194126D01*
X0099707Y0194053D01*
X0099633Y0193993D01*
X0099630Y0193959D01*
X0099408Y0193688D01*
X0099376Y0193679D01*
X0099331Y0193595D01*
X0099271Y0193522D01*
X0099274Y0193489D01*
X0099109Y0193180D01*
X0099080Y0193164D01*
X0099052Y0193074D01*
X0099008Y0192990D01*
X0099017Y0192958D01*
X0098916Y0192623D01*
X0098890Y0192602D01*
X0098881Y0192507D01*
X0098853Y0192417D01*
X0098869Y0192387D01*
X0098835Y0192041D01*
X0098815Y0192017D01*
X0098823Y0191921D01*
X0098813Y0191824D01*
X0098833Y0191800D01*
X0098863Y0191450D01*
X0098847Y0191421D01*
X0098873Y0191330D01*
X0098881Y0191237D01*
X0098907Y0191215D01*
X0099007Y0190875D01*
X0098997Y0190843D01*
X0099041Y0190760D01*
X0099067Y0190669D01*
X0099097Y0190653D01*
X0099262Y0190340D01*
X0099259Y0190306D01*
X0099318Y0190233D01*
X0099362Y0190150D01*
X0099395Y0190140D01*
X0099619Y0189866D01*
X0099622Y0189833D01*
X0099695Y0189773D01*
X0099755Y0189700D01*
X0099788Y0189697D01*
X0100062Y0189473D01*
X0100072Y0189440D01*
X0100155Y0189396D01*
X0100228Y0189337D01*
X0100262Y0189340D01*
X0100753Y0188732D02*
X0087769Y0188732D01*
X0088301Y0188134D02*
X0100154Y0188134D01*
X0100073Y0187535D02*
X0088700Y0187535D01*
X0088907Y0186937D02*
X0100073Y0186937D01*
X0100073Y0186338D02*
X0088972Y0186338D01*
X0088936Y0185740D02*
X0091299Y0185740D01*
X0091031Y0185629D02*
X0092090Y0186067D01*
X0093237Y0186067D01*
X0094295Y0185629D01*
X0095106Y0184818D01*
X0095163Y0184679D01*
X0095221Y0184818D01*
X0096031Y0185629D01*
X0097090Y0186067D01*
X0098237Y0186067D01*
X0099295Y0185629D01*
X0100106Y0184818D01*
X0100545Y0183759D01*
X0100545Y0182613D01*
X0100106Y0181554D01*
X0099295Y0180744D01*
X0098237Y0180305D01*
X0097090Y0180305D01*
X0096031Y0180744D01*
X0095221Y0181554D01*
X0095163Y0181693D01*
X0095106Y0181554D01*
X0094295Y0180744D01*
X0093237Y0180305D01*
X0092090Y0180305D01*
X0091031Y0180744D01*
X0090221Y0181554D01*
X0089782Y0182613D01*
X0089782Y0183759D01*
X0090221Y0184818D01*
X0091031Y0185629D01*
X0090544Y0185141D02*
X0088731Y0185141D01*
X0088441Y0184543D02*
X0090107Y0184543D01*
X0089859Y0183944D02*
X0087794Y0183944D01*
X0089782Y0183346D02*
X0071563Y0183346D01*
X0071563Y0183944D02*
X0084265Y0183944D01*
X0089782Y0182747D02*
X0071563Y0182747D01*
X0071563Y0182149D02*
X0089975Y0182149D01*
X0090225Y0181550D02*
X0071563Y0181550D01*
X0071563Y0180952D02*
X0090824Y0180952D01*
X0090352Y0179755D02*
X0098535Y0179755D01*
X0098352Y0180353D02*
X0099133Y0180353D01*
X0099503Y0180952D02*
X0099732Y0180952D01*
X0100102Y0181550D02*
X0100330Y0181550D01*
X0100352Y0182149D02*
X0100929Y0182149D01*
X0100545Y0182747D02*
X0101527Y0182747D01*
X0102126Y0183346D02*
X0100545Y0183346D01*
X0100468Y0183944D02*
X0102724Y0183944D01*
X0103323Y0184543D02*
X0100220Y0184543D01*
X0099783Y0185141D02*
X0101252Y0185141D01*
X0100654Y0185740D02*
X0099028Y0185740D01*
X0096299Y0185740D02*
X0094028Y0185740D01*
X0094783Y0185141D02*
X0095544Y0185141D01*
X0095225Y0181550D02*
X0095102Y0181550D01*
X0094503Y0180952D02*
X0095824Y0180952D01*
X0096975Y0180353D02*
X0093352Y0180353D01*
X0091975Y0180353D02*
X0071563Y0180353D01*
X0071563Y0179755D02*
X0087575Y0179755D01*
X0086977Y0179156D02*
X0071563Y0179156D01*
X0071563Y0178558D02*
X0086873Y0178558D01*
X0086456Y0177959D02*
X0071563Y0177959D01*
X0071563Y0177361D02*
X0085858Y0177361D01*
X0085259Y0176762D02*
X0071563Y0176762D01*
X0071563Y0176164D02*
X0084661Y0176164D01*
X0084062Y0175565D02*
X0071563Y0175565D01*
X0071563Y0174967D02*
X0083763Y0174967D01*
X0083763Y0174368D02*
X0071962Y0174368D01*
X0072560Y0173770D02*
X0083763Y0173770D01*
X0083763Y0173171D02*
X0073159Y0173171D01*
X0073757Y0172572D02*
X0083763Y0172572D01*
X0083763Y0171974D02*
X0074356Y0171974D01*
X0074943Y0171386D02*
X0074943Y0171386D01*
X0074954Y0171375D02*
X0083763Y0171375D01*
X0083763Y0170777D02*
X0075553Y0170777D01*
X0075763Y0170178D02*
X0083763Y0170178D01*
X0083763Y0169580D02*
X0075763Y0169580D01*
X0075763Y0168981D02*
X0083763Y0168981D01*
X0083680Y0168383D02*
X0075763Y0168383D01*
X0075763Y0167784D02*
X0083082Y0167784D01*
X0082483Y0167186D02*
X0075763Y0167186D01*
X0075763Y0166587D02*
X0081885Y0166587D01*
X0081286Y0165989D02*
X0075763Y0165989D01*
X0075763Y0165390D02*
X0080688Y0165390D01*
X0080089Y0164792D02*
X0075763Y0164792D01*
X0075763Y0164193D02*
X0079491Y0164193D01*
X0078892Y0163595D02*
X0075763Y0163595D01*
X0075763Y0162996D02*
X0078294Y0162996D01*
X0077695Y0162398D02*
X0075763Y0162398D01*
X0072963Y0162398D02*
X0069832Y0162398D01*
X0069233Y0162996D02*
X0072963Y0162996D01*
X0072963Y0163595D02*
X0068635Y0163595D01*
X0068036Y0164193D02*
X0072963Y0164193D01*
X0072963Y0164792D02*
X0067438Y0164792D01*
X0066839Y0165390D02*
X0072963Y0165390D01*
X0072963Y0165989D02*
X0066241Y0165989D01*
X0065642Y0166587D02*
X0072963Y0166587D01*
X0072963Y0167186D02*
X0065044Y0167186D01*
X0064445Y0167784D02*
X0072963Y0167784D01*
X0072963Y0168383D02*
X0063847Y0168383D01*
X0063248Y0168981D02*
X0072963Y0168981D01*
X0072790Y0169580D02*
X0067596Y0169580D01*
X0068195Y0170178D02*
X0072191Y0170178D01*
X0071593Y0170777D02*
X0068354Y0170777D01*
X0068354Y0171375D02*
X0070994Y0171375D01*
X0070396Y0171974D02*
X0068354Y0171974D01*
X0068017Y0172572D02*
X0069797Y0172572D01*
X0069199Y0173171D02*
X0067418Y0173171D01*
X0067220Y0173770D02*
X0068763Y0173770D01*
X0068763Y0174368D02*
X0066621Y0174368D01*
X0066023Y0174967D02*
X0068763Y0174967D01*
X0068763Y0175565D02*
X0056665Y0175565D01*
X0057263Y0174967D02*
X0063904Y0174967D01*
X0063306Y0174368D02*
X0057862Y0174368D01*
X0058460Y0173770D02*
X0062707Y0173770D01*
X0062509Y0173171D02*
X0059059Y0173171D01*
X0059657Y0172572D02*
X0061910Y0172572D01*
X0061573Y0171974D02*
X0060256Y0171974D01*
X0060854Y0171375D02*
X0061573Y0171375D01*
X0061573Y0170777D02*
X0061453Y0170777D01*
X0059288Y0168981D02*
X0045444Y0168981D01*
X0045813Y0169580D02*
X0058690Y0169580D01*
X0058091Y0170178D02*
X0046061Y0170178D01*
X0046188Y0170777D02*
X0057493Y0170777D01*
X0056894Y0171375D02*
X0046188Y0171375D01*
X0046153Y0171974D02*
X0056296Y0171974D01*
X0055697Y0172572D02*
X0045905Y0172572D01*
X0045657Y0173171D02*
X0055099Y0173171D01*
X0054500Y0173770D02*
X0045065Y0173770D01*
X0044193Y0174368D02*
X0053902Y0174368D01*
X0053303Y0174967D02*
X0038863Y0174967D01*
X0038863Y0175565D02*
X0052705Y0175565D01*
X0052106Y0176164D02*
X0038863Y0176164D01*
X0038863Y0176762D02*
X0051763Y0176762D01*
X0051763Y0177361D02*
X0038863Y0177361D01*
X0038863Y0177959D02*
X0051763Y0177959D01*
X0051763Y0178558D02*
X0038863Y0178558D01*
X0038863Y0179156D02*
X0051763Y0179156D01*
X0051763Y0179755D02*
X0038863Y0179755D01*
X0038863Y0180353D02*
X0051763Y0180353D01*
X0051763Y0180952D02*
X0038863Y0180952D01*
X0038863Y0181550D02*
X0051763Y0181550D01*
X0051763Y0182149D02*
X0038863Y0182149D01*
X0038863Y0182747D02*
X0051763Y0182747D01*
X0051648Y0183346D02*
X0038863Y0183346D01*
X0038863Y0183944D02*
X0050549Y0183944D01*
X0049951Y0184543D02*
X0038863Y0184543D01*
X0038863Y0185141D02*
X0049473Y0185141D01*
X0049473Y0185740D02*
X0038863Y0185740D01*
X0038863Y0186338D02*
X0049473Y0186338D01*
X0049657Y0186937D02*
X0038863Y0186937D01*
X0038863Y0187535D02*
X0050256Y0187535D01*
X0051354Y0188134D02*
X0044505Y0188134D01*
X0045195Y0188732D02*
X0051953Y0188732D01*
X0054374Y0188732D02*
X0068763Y0188732D01*
X0068763Y0188134D02*
X0054973Y0188134D01*
X0056071Y0187535D02*
X0068763Y0187535D01*
X0068763Y0186937D02*
X0056670Y0186937D01*
X0056854Y0186338D02*
X0068763Y0186338D01*
X0068763Y0185740D02*
X0056854Y0185740D01*
X0056854Y0185141D02*
X0068763Y0185141D01*
X0068763Y0184543D02*
X0056376Y0184543D01*
X0055778Y0183944D02*
X0068763Y0183944D01*
X0068763Y0183346D02*
X0054679Y0183346D01*
X0054563Y0182747D02*
X0068763Y0182747D01*
X0068763Y0182149D02*
X0054563Y0182149D01*
X0054563Y0181550D02*
X0068763Y0181550D01*
X0068763Y0180952D02*
X0054563Y0180952D01*
X0054563Y0180353D02*
X0068763Y0180353D01*
X0068763Y0179755D02*
X0054563Y0179755D01*
X0054563Y0179156D02*
X0068763Y0179156D01*
X0068763Y0178558D02*
X0054563Y0178558D01*
X0054563Y0177959D02*
X0068763Y0177959D01*
X0068763Y0177361D02*
X0054869Y0177361D01*
X0055468Y0176762D02*
X0068763Y0176762D01*
X0068763Y0176164D02*
X0056066Y0176164D01*
X0041133Y0174368D02*
X0038863Y0174368D01*
X0038863Y0173770D02*
X0040262Y0173770D01*
X0039670Y0173171D02*
X0038863Y0173171D01*
X0038863Y0172572D02*
X0039422Y0172572D01*
X0039174Y0171974D02*
X0038863Y0171974D01*
X0038863Y0171375D02*
X0039138Y0171375D01*
X0039138Y0170777D02*
X0038863Y0170777D01*
X0038863Y0170178D02*
X0039266Y0170178D01*
X0039513Y0169580D02*
X0038863Y0169580D01*
X0038863Y0168981D02*
X0039883Y0168981D01*
X0040482Y0168383D02*
X0038863Y0168383D01*
X0038863Y0167784D02*
X0041363Y0167784D01*
X0041825Y0167186D02*
X0038863Y0167186D01*
X0038863Y0166587D02*
X0042424Y0166587D01*
X0043022Y0165989D02*
X0038863Y0165989D01*
X0038863Y0165390D02*
X0043621Y0165390D01*
X0044219Y0164792D02*
X0038863Y0164792D01*
X0038863Y0164193D02*
X0040712Y0164193D01*
X0040087Y0163595D02*
X0038863Y0163595D01*
X0038863Y0162996D02*
X0039598Y0162996D01*
X0039350Y0162398D02*
X0038863Y0162398D01*
X0038863Y0161799D02*
X0039138Y0161799D01*
X0039138Y0161201D02*
X0038863Y0161201D01*
X0038863Y0160602D02*
X0039138Y0160602D01*
X0039338Y0160004D02*
X0038863Y0160004D01*
X0038863Y0159405D02*
X0039586Y0159405D01*
X0040058Y0158807D02*
X0038863Y0158807D01*
X0038863Y0158208D02*
X0040656Y0158208D01*
X0038863Y0157610D02*
X0044402Y0157610D01*
X0045000Y0157011D02*
X0038863Y0157011D01*
X0038863Y0156413D02*
X0045599Y0156413D01*
X0046197Y0155814D02*
X0038863Y0155814D01*
X0038863Y0155216D02*
X0046363Y0155216D01*
X0046363Y0154617D02*
X0043592Y0154617D01*
X0044816Y0154019D02*
X0046363Y0154019D01*
X0046363Y0153420D02*
X0045415Y0153420D01*
X0045802Y0152822D02*
X0046363Y0152822D01*
X0046363Y0152223D02*
X0046049Y0152223D01*
X0046188Y0151625D02*
X0046363Y0151625D01*
X0046363Y0151026D02*
X0046188Y0151026D01*
X0046165Y0150428D02*
X0046363Y0150428D01*
X0046363Y0149829D02*
X0045917Y0149829D01*
X0044576Y0147435D02*
X0038863Y0147435D01*
X0038863Y0148034D02*
X0041064Y0148034D01*
X0040233Y0148632D02*
X0038863Y0148632D01*
X0038863Y0149231D02*
X0039658Y0149231D01*
X0039410Y0149829D02*
X0038863Y0149829D01*
X0038863Y0150428D02*
X0039162Y0150428D01*
X0039138Y0151026D02*
X0038863Y0151026D01*
X0038863Y0151625D02*
X0039138Y0151625D01*
X0039277Y0152223D02*
X0038863Y0152223D01*
X0038863Y0152822D02*
X0039525Y0152822D01*
X0039912Y0153420D02*
X0038863Y0153420D01*
X0038863Y0154019D02*
X0040511Y0154019D01*
X0041735Y0154617D02*
X0038863Y0154617D01*
X0046283Y0159405D02*
X0046363Y0159405D01*
X0046363Y0160004D02*
X0045989Y0160004D01*
X0046188Y0160602D02*
X0046363Y0160602D01*
X0046363Y0161201D02*
X0046188Y0161201D01*
X0046188Y0161799D02*
X0046363Y0161799D01*
X0046363Y0162398D02*
X0045977Y0162398D01*
X0046015Y0162996D02*
X0045729Y0162996D01*
X0045417Y0163595D02*
X0045240Y0163595D01*
X0044818Y0164193D02*
X0044615Y0164193D01*
X0046699Y0165989D02*
X0062281Y0165989D01*
X0061683Y0166587D02*
X0046101Y0166587D01*
X0045502Y0167186D02*
X0061084Y0167186D01*
X0060486Y0167784D02*
X0044904Y0167784D01*
X0044845Y0168383D02*
X0059887Y0168383D01*
X0062880Y0165390D02*
X0047298Y0165390D01*
X0047896Y0164792D02*
X0063478Y0164792D01*
X0064077Y0164193D02*
X0048495Y0164193D01*
X0048963Y0163595D02*
X0064675Y0163595D01*
X0065274Y0162996D02*
X0048963Y0162996D01*
X0048963Y0162398D02*
X0065872Y0162398D01*
X0067084Y0161186D02*
X0068495Y0159775D01*
X0068273Y0159552D01*
X0068273Y0157820D01*
X0068857Y0157236D01*
X0068173Y0156552D01*
X0068173Y0154820D01*
X0069398Y0153596D01*
X0071129Y0153596D01*
X0071773Y0154239D01*
X0071773Y0152877D01*
X0070998Y0152877D01*
X0069773Y0151652D01*
X0069773Y0149920D01*
X0070998Y0148696D01*
X0072729Y0148696D01*
X0073954Y0149920D01*
X0073954Y0151296D01*
X0074273Y0151296D01*
X0074273Y0150320D01*
X0075498Y0149096D01*
X0077229Y0149096D01*
X0078454Y0150320D01*
X0078454Y0152052D01*
X0077229Y0153277D01*
X0075954Y0153277D01*
X0075954Y0154252D01*
X0074920Y0155286D01*
X0075063Y0155430D01*
X0075798Y0154696D01*
X0077529Y0154696D01*
X0078754Y0155920D01*
X0078754Y0157652D01*
X0078320Y0158086D01*
X0078813Y0158580D01*
X0079598Y0157796D01*
X0081329Y0157796D01*
X0082554Y0159020D01*
X0082554Y0160752D01*
X0081329Y0161977D01*
X0081234Y0161977D01*
X0085743Y0166486D01*
X0085743Y0166486D01*
X0086443Y0167186D01*
X0090263Y0167186D01*
X0090263Y0161525D01*
X0090222Y0161484D01*
X0089529Y0162177D01*
X0087798Y0162177D01*
X0086573Y0160952D01*
X0086573Y0159220D01*
X0087798Y0157996D01*
X0088563Y0157996D01*
X0088563Y0154948D01*
X0089325Y0154186D01*
X0091025Y0152486D01*
X0096025Y0152486D01*
X0096663Y0151848D01*
X0096663Y0149143D01*
X0096529Y0149277D01*
X0094798Y0149277D01*
X0094407Y0148886D01*
X0083720Y0148886D01*
X0082529Y0150077D01*
X0080798Y0150077D01*
X0079573Y0148852D01*
X0079573Y0147120D01*
X0080798Y0145896D01*
X0081350Y0145896D01*
X0081759Y0145486D01*
X0094407Y0145486D01*
X0094798Y0145096D01*
X0096529Y0145096D01*
X0096663Y0145230D01*
X0096663Y0139525D01*
X0094222Y0137084D01*
X0093529Y0137777D01*
X0091798Y0137777D01*
X0090573Y0136552D01*
X0090573Y0134820D01*
X0091016Y0134377D01*
X0090298Y0134377D01*
X0089073Y0133152D01*
X0089073Y0131420D01*
X0090298Y0130196D01*
X0092029Y0130196D01*
X0092373Y0130539D01*
X0092373Y0130120D01*
X0093598Y0128896D01*
X0095329Y0128896D01*
X0095363Y0128930D01*
X0095363Y0124225D01*
X0088625Y0117486D01*
X0087520Y0117486D01*
X0086729Y0118277D01*
X0084998Y0118277D01*
X0083773Y0117052D01*
X0083773Y0115320D01*
X0084998Y0114096D01*
X0086729Y0114096D01*
X0087520Y0114886D01*
X0089702Y0114886D01*
X0090463Y0115648D01*
X0097963Y0123148D01*
X0097963Y0132825D01*
X0097292Y0133496D01*
X0098529Y0133496D01*
X0099754Y0134720D01*
X0099754Y0135838D01*
X0100663Y0136748D01*
X0100663Y0153625D01*
X0100392Y0153896D01*
X0101829Y0153896D01*
X0103054Y0155120D01*
X0103054Y0156696D01*
X0103229Y0156696D01*
X0104454Y0157920D01*
X0104454Y0159652D01*
X0103229Y0160877D01*
X0101498Y0160877D01*
X0100273Y0159652D01*
X0100273Y0158077D01*
X0100098Y0158077D01*
X0100063Y0158043D01*
X0100063Y0160025D01*
X0098163Y0161925D01*
X0097402Y0162686D01*
X0094802Y0162686D01*
X0094463Y0163025D01*
X0094463Y0167186D01*
X0106163Y0167186D01*
X0106163Y0167784D02*
X0096762Y0167784D01*
X0096163Y0167186D02*
X0098663Y0169686D01*
X0098663Y0178186D01*
X0108663Y0188186D01*
X0108663Y0193186D01*
X0110663Y0195186D01*
X0113663Y0195186D01*
X0115163Y0193686D01*
X0115163Y0188686D01*
X0106163Y0179686D01*
X0106163Y0147525D01*
X0105625Y0146986D01*
X0104863Y0146225D01*
X0104863Y0130225D01*
X0104125Y0129486D01*
X0103363Y0128725D01*
X0103363Y0110886D01*
X0101963Y0109486D01*
X0096702Y0109486D01*
X0095463Y0110725D01*
X0095463Y0111530D01*
X0096254Y0112320D01*
X0096254Y0114052D01*
X0095029Y0115277D01*
X0093298Y0115277D01*
X0092073Y0114052D01*
X0092073Y0112320D01*
X0092863Y0111530D01*
X0092863Y0109648D01*
X0093625Y0108886D01*
X0093734Y0108777D01*
X0093298Y0108777D01*
X0092073Y0107552D01*
X0092073Y0105820D01*
X0093298Y0104596D01*
X0095029Y0104596D01*
X0095820Y0105386D01*
X0096025Y0105386D01*
X0094416Y0103777D01*
X0093298Y0103777D01*
X0092663Y0103143D01*
X0092029Y0103777D01*
X0090298Y0103777D01*
X0089073Y0102552D01*
X0089073Y0100820D01*
X0090207Y0099686D01*
X0089073Y0098552D01*
X0089073Y0097277D01*
X0088298Y0097277D01*
X0088163Y0097143D01*
X0088163Y0103525D01*
X0087954Y0103734D01*
X0087954Y0104852D01*
X0086729Y0106077D01*
X0084998Y0106077D01*
X0083773Y0104852D01*
X0083773Y0103120D01*
X0084998Y0101896D01*
X0085563Y0101896D01*
X0085563Y0096243D01*
X0085029Y0096777D01*
X0083298Y0096777D01*
X0082073Y0095552D01*
X0082073Y0093820D01*
X0083298Y0092596D01*
X0085029Y0092596D01*
X0085563Y0093130D01*
X0085563Y0093048D01*
X0086563Y0092048D01*
X0087325Y0091286D01*
X0091125Y0091286D01*
X0091763Y0090648D01*
X0091763Y0087048D01*
X0092144Y0086667D01*
X0086163Y0080686D01*
X0080663Y0080686D01*
X0079163Y0082186D01*
X0079163Y0089625D01*
X0078402Y0090386D01*
X0077763Y0091025D01*
X0077763Y0092448D01*
X0079363Y0094048D01*
X0079363Y0103848D01*
X0081163Y0105648D01*
X0081163Y0108625D01*
X0080402Y0109386D01*
X0079711Y0110077D01*
X0079754Y0110120D01*
X0079754Y0111852D01*
X0078529Y0113077D01*
X0076798Y0113077D01*
X0076463Y0112743D01*
X0076463Y0113548D01*
X0077311Y0114396D01*
X0078429Y0114396D01*
X0079654Y0115620D01*
X0079654Y0117352D01*
X0078429Y0118577D01*
X0076698Y0118577D01*
X0075473Y0117352D01*
X0075473Y0116234D01*
X0074963Y0115725D01*
X0074963Y0124230D01*
X0075298Y0123896D01*
X0077029Y0123896D01*
X0078254Y0125120D01*
X0078254Y0126852D01*
X0077520Y0127586D01*
X0078007Y0127586D01*
X0078798Y0126796D01*
X0080529Y0126796D01*
X0081754Y0128020D01*
X0081754Y0129752D01*
X0080529Y0130977D01*
X0078798Y0130977D01*
X0078007Y0130186D01*
X0074825Y0130186D01*
X0072363Y0127725D01*
X0072363Y0114425D01*
X0071454Y0115334D01*
X0071454Y0116452D01*
X0070229Y0117677D01*
X0068498Y0117677D01*
X0067963Y0117143D01*
X0067963Y0132225D01*
X0062963Y0137225D01*
X0062202Y0137986D01*
X0060320Y0137986D01*
X0060320Y0137986D01*
X0061154Y0138820D01*
X0061154Y0140552D01*
X0059929Y0141777D01*
X0058198Y0141777D01*
X0056973Y0140552D01*
X0056973Y0138820D01*
X0057407Y0138386D01*
X0056573Y0137552D01*
X0056573Y0135820D01*
X0057798Y0134596D01*
X0058573Y0134596D01*
X0058573Y0133934D01*
X0058163Y0133525D01*
X0058163Y0129248D01*
X0058925Y0128486D01*
X0062363Y0125048D01*
X0062363Y0116943D01*
X0062029Y0117277D01*
X0060298Y0117277D01*
X0060104Y0117084D01*
X0058963Y0118225D01*
X0058963Y0127725D01*
X0054963Y0131725D01*
X0054963Y0136725D01*
X0054202Y0137486D01*
X0051963Y0139725D01*
X0051963Y0147725D01*
X0051202Y0148486D01*
X0050463Y0149225D01*
X0050463Y0157225D01*
X0049702Y0157986D01*
X0049163Y0158525D01*
X0049163Y0159686D01*
X0050663Y0161186D01*
X0067084Y0161186D01*
X0067668Y0160602D02*
X0050079Y0160602D01*
X0049481Y0160004D02*
X0068266Y0160004D01*
X0068273Y0159405D02*
X0049163Y0159405D01*
X0049163Y0158807D02*
X0068273Y0158807D01*
X0068273Y0158208D02*
X0049480Y0158208D01*
X0050079Y0157610D02*
X0068484Y0157610D01*
X0068632Y0157011D02*
X0050463Y0157011D01*
X0050463Y0156413D02*
X0068173Y0156413D01*
X0068173Y0155814D02*
X0050463Y0155814D01*
X0050463Y0155216D02*
X0068173Y0155216D01*
X0068376Y0154617D02*
X0050463Y0154617D01*
X0050463Y0154019D02*
X0068975Y0154019D01*
X0070344Y0152223D02*
X0050463Y0152223D01*
X0050463Y0151625D02*
X0069773Y0151625D01*
X0069773Y0151026D02*
X0050463Y0151026D01*
X0050463Y0150428D02*
X0069773Y0150428D01*
X0069864Y0149829D02*
X0050463Y0149829D01*
X0050463Y0149231D02*
X0070463Y0149231D01*
X0073264Y0149231D02*
X0075363Y0149231D01*
X0074764Y0149829D02*
X0073863Y0149829D01*
X0073954Y0150428D02*
X0074273Y0150428D01*
X0074273Y0151026D02*
X0073954Y0151026D01*
X0070942Y0152822D02*
X0050463Y0152822D01*
X0050463Y0153420D02*
X0071773Y0153420D01*
X0071773Y0154019D02*
X0071552Y0154019D01*
X0074991Y0155216D02*
X0075278Y0155216D01*
X0075589Y0154617D02*
X0083176Y0154617D01*
X0082673Y0155120D02*
X0083898Y0153896D01*
X0085629Y0153896D01*
X0086854Y0155120D01*
X0086854Y0156852D01*
X0085629Y0158077D01*
X0083898Y0158077D01*
X0082673Y0156852D01*
X0082673Y0155120D01*
X0082673Y0155216D02*
X0078049Y0155216D01*
X0078648Y0155814D02*
X0082673Y0155814D01*
X0082673Y0156413D02*
X0078754Y0156413D01*
X0078754Y0157011D02*
X0082832Y0157011D01*
X0083430Y0157610D02*
X0078754Y0157610D01*
X0078442Y0158208D02*
X0079185Y0158208D01*
X0081742Y0158208D02*
X0087585Y0158208D01*
X0086987Y0158807D02*
X0082340Y0158807D01*
X0082554Y0159405D02*
X0086573Y0159405D01*
X0086573Y0160004D02*
X0082554Y0160004D01*
X0082554Y0160602D02*
X0086573Y0160602D01*
X0086821Y0161201D02*
X0082106Y0161201D01*
X0081507Y0161799D02*
X0087420Y0161799D01*
X0089907Y0161799D02*
X0090263Y0161799D01*
X0090263Y0162398D02*
X0081655Y0162398D01*
X0082253Y0162996D02*
X0090263Y0162996D01*
X0090263Y0163595D02*
X0082852Y0163595D01*
X0083450Y0164193D02*
X0090263Y0164193D01*
X0090263Y0164792D02*
X0084049Y0164792D01*
X0084647Y0165390D02*
X0090263Y0165390D01*
X0090263Y0165989D02*
X0085246Y0165989D01*
X0085844Y0166587D02*
X0090263Y0166587D01*
X0090263Y0167186D02*
X0086443Y0167186D01*
X0094463Y0167186D02*
X0096163Y0167186D01*
X0097360Y0168383D02*
X0106163Y0168383D01*
X0106163Y0168981D02*
X0097959Y0168981D01*
X0098557Y0169580D02*
X0106163Y0169580D01*
X0106163Y0170178D02*
X0098663Y0170178D01*
X0098663Y0170777D02*
X0106163Y0170777D01*
X0106163Y0171375D02*
X0098663Y0171375D01*
X0098663Y0171974D02*
X0106163Y0171974D01*
X0106163Y0172572D02*
X0098663Y0172572D01*
X0098663Y0173171D02*
X0106163Y0173171D01*
X0106163Y0173770D02*
X0098663Y0173770D01*
X0098663Y0174368D02*
X0106163Y0174368D01*
X0106163Y0174967D02*
X0098663Y0174967D01*
X0098663Y0175565D02*
X0106163Y0175565D01*
X0106163Y0176164D02*
X0102797Y0176164D01*
X0102329Y0175696D02*
X0103554Y0176920D01*
X0103554Y0178652D01*
X0102329Y0179877D01*
X0100598Y0179877D01*
X0099373Y0178652D01*
X0099373Y0176920D01*
X0100598Y0175696D01*
X0102329Y0175696D01*
X0103396Y0176762D02*
X0106163Y0176762D01*
X0106163Y0177361D02*
X0103554Y0177361D01*
X0103554Y0177959D02*
X0106163Y0177959D01*
X0106163Y0178558D02*
X0103554Y0178558D01*
X0103050Y0179156D02*
X0106163Y0179156D01*
X0106232Y0179755D02*
X0102452Y0179755D01*
X0101429Y0180952D02*
X0107429Y0180952D01*
X0108027Y0181550D02*
X0102027Y0181550D01*
X0102626Y0182149D02*
X0108626Y0182149D01*
X0109224Y0182747D02*
X0103224Y0182747D01*
X0103823Y0183346D02*
X0109823Y0183346D01*
X0110421Y0183944D02*
X0104421Y0183944D01*
X0105020Y0184543D02*
X0111020Y0184543D01*
X0111618Y0185141D02*
X0105618Y0185141D01*
X0106217Y0185740D02*
X0112217Y0185740D01*
X0112815Y0186338D02*
X0106815Y0186338D01*
X0107414Y0186937D02*
X0113414Y0186937D01*
X0114012Y0187535D02*
X0108012Y0187535D01*
X0108611Y0188134D02*
X0114611Y0188134D01*
X0115163Y0188732D02*
X0108663Y0188732D01*
X0108663Y0189331D02*
X0115163Y0189331D01*
X0115163Y0189929D02*
X0108663Y0189929D01*
X0108663Y0190528D02*
X0115163Y0190528D01*
X0115163Y0191126D02*
X0108663Y0191126D01*
X0108663Y0191725D02*
X0115163Y0191725D01*
X0115163Y0192323D02*
X0108663Y0192323D01*
X0108663Y0192922D02*
X0115163Y0192922D01*
X0115163Y0193520D02*
X0108998Y0193520D01*
X0109596Y0194119D02*
X0114731Y0194119D01*
X0114132Y0194717D02*
X0110195Y0194717D01*
X0109096Y0195316D02*
X0079563Y0195316D01*
X0079501Y0195914D02*
X0081778Y0195914D01*
X0081096Y0196513D02*
X0079253Y0196513D01*
X0078840Y0197111D02*
X0080747Y0197111D01*
X0080557Y0197710D02*
X0078241Y0197710D01*
X0077643Y0198308D02*
X0080513Y0198308D01*
X0080513Y0198907D02*
X0077044Y0198907D01*
X0076446Y0199505D02*
X0080513Y0199505D01*
X0080513Y0200104D02*
X0075947Y0200104D01*
X0075267Y0200703D02*
X0080513Y0200703D01*
X0080513Y0201301D02*
X0046388Y0201301D01*
X0046388Y0200703D02*
X0048160Y0200703D01*
X0047480Y0200104D02*
X0046247Y0200104D01*
X0045999Y0199505D02*
X0046881Y0199505D01*
X0046283Y0198907D02*
X0045652Y0198907D01*
X0045684Y0198308D02*
X0045054Y0198308D01*
X0045086Y0197710D02*
X0044005Y0197710D01*
X0044487Y0197111D02*
X0038863Y0197111D01*
X0038863Y0196513D02*
X0043889Y0196513D01*
X0043290Y0195914D02*
X0038863Y0195914D01*
X0038863Y0195316D02*
X0042692Y0195316D01*
X0042093Y0194717D02*
X0038863Y0194717D01*
X0038863Y0194119D02*
X0040611Y0194119D01*
X0040012Y0193520D02*
X0038863Y0193520D01*
X0038863Y0192922D02*
X0039567Y0192922D01*
X0039319Y0192323D02*
X0038863Y0192323D01*
X0038863Y0191725D02*
X0039138Y0191725D01*
X0039138Y0191126D02*
X0038863Y0191126D01*
X0038863Y0190528D02*
X0039138Y0190528D01*
X0039369Y0189929D02*
X0038863Y0189929D01*
X0038863Y0189331D02*
X0039617Y0189331D01*
X0040132Y0188732D02*
X0038863Y0188732D01*
X0038863Y0188134D02*
X0040822Y0188134D01*
X0045710Y0189331D02*
X0068763Y0189331D01*
X0068763Y0189929D02*
X0045958Y0189929D01*
X0046188Y0190528D02*
X0068763Y0190528D01*
X0068763Y0191126D02*
X0046705Y0191126D01*
X0047303Y0191725D02*
X0069073Y0191725D01*
X0069073Y0192323D02*
X0047902Y0192323D01*
X0048500Y0192922D02*
X0069073Y0192922D01*
X0069541Y0193520D02*
X0049099Y0193520D01*
X0049697Y0194119D02*
X0070140Y0194119D01*
X0072187Y0194119D02*
X0073630Y0194119D01*
X0073763Y0193520D02*
X0072786Y0193520D01*
X0073254Y0192922D02*
X0073763Y0192922D01*
X0073763Y0192323D02*
X0073254Y0192323D01*
X0073254Y0191725D02*
X0073763Y0191725D01*
X0073763Y0191126D02*
X0073060Y0191126D01*
X0072461Y0190528D02*
X0073763Y0190528D01*
X0073763Y0189929D02*
X0071563Y0189929D01*
X0071563Y0189331D02*
X0073879Y0189331D01*
X0074127Y0188732D02*
X0071563Y0188732D01*
X0071563Y0188134D02*
X0074615Y0188134D01*
X0075213Y0187535D02*
X0071563Y0187535D01*
X0071563Y0186937D02*
X0075812Y0186937D01*
X0076410Y0186338D02*
X0071563Y0186338D01*
X0071563Y0185740D02*
X0077009Y0185740D01*
X0077607Y0185141D02*
X0071563Y0185141D01*
X0071563Y0184543D02*
X0078468Y0184543D01*
X0088718Y0189929D02*
X0099567Y0189929D01*
X0099163Y0190528D02*
X0089133Y0190528D01*
X0089375Y0191126D02*
X0098933Y0191126D01*
X0098840Y0191725D02*
X0089483Y0191725D01*
X0089470Y0192323D02*
X0098863Y0192323D01*
X0099006Y0192922D02*
X0089332Y0192922D01*
X0089074Y0193520D02*
X0099271Y0193520D01*
X0099761Y0194119D02*
X0088591Y0194119D01*
X0087654Y0194717D02*
X0100705Y0194717D01*
X0103008Y0194717D02*
X0108497Y0194717D01*
X0107899Y0194119D02*
X0103945Y0194119D01*
X0104428Y0193520D02*
X0107463Y0193520D01*
X0107463Y0192922D02*
X0104687Y0192922D01*
X0104824Y0192323D02*
X0107463Y0192323D01*
X0107463Y0191725D02*
X0104837Y0191725D01*
X0104730Y0191126D02*
X0107463Y0191126D01*
X0107463Y0190528D02*
X0104487Y0190528D01*
X0104073Y0189929D02*
X0107463Y0189929D01*
X0107463Y0189331D02*
X0103340Y0189331D01*
X0106074Y0188732D02*
X0107463Y0188732D01*
X0106914Y0188134D02*
X0106673Y0188134D01*
X0103752Y0185141D02*
X0103075Y0185141D01*
X0100830Y0180353D02*
X0106830Y0180353D01*
X0107929Y0179755D02*
X0109441Y0179755D01*
X0109193Y0180353D02*
X0108527Y0180353D01*
X0109126Y0180952D02*
X0109138Y0180952D01*
X0109709Y0179156D02*
X0107363Y0179156D01*
X0107363Y0178558D02*
X0110307Y0178558D01*
X0111243Y0177959D02*
X0107363Y0177959D01*
X0107363Y0177361D02*
X0116463Y0177361D01*
X0116463Y0177959D02*
X0114083Y0177959D01*
X0115020Y0178558D02*
X0116463Y0178558D01*
X0116463Y0179156D02*
X0115618Y0179156D01*
X0115886Y0179755D02*
X0116463Y0179755D01*
X0116463Y0180353D02*
X0116134Y0180353D01*
X0116188Y0180952D02*
X0116463Y0180952D01*
X0116463Y0181550D02*
X0116188Y0181550D01*
X0116080Y0182149D02*
X0116463Y0182149D01*
X0116463Y0182747D02*
X0115832Y0182747D01*
X0115489Y0183346D02*
X0116463Y0183346D01*
X0116463Y0183944D02*
X0114891Y0183944D01*
X0113772Y0184543D02*
X0116463Y0184543D01*
X0116463Y0185141D02*
X0113315Y0185141D01*
X0113914Y0185740D02*
X0116463Y0185740D01*
X0116463Y0186338D02*
X0114512Y0186338D01*
X0115111Y0186937D02*
X0116463Y0186937D01*
X0116463Y0187535D02*
X0115709Y0187535D01*
X0116308Y0188134D02*
X0116463Y0188134D01*
X0116463Y0188732D02*
X0116363Y0188732D01*
X0116363Y0189331D02*
X0116463Y0189331D01*
X0116463Y0189929D02*
X0116363Y0189929D01*
X0116363Y0190528D02*
X0116463Y0190528D01*
X0116463Y0191126D02*
X0116363Y0191126D01*
X0116363Y0191725D02*
X0116463Y0191725D01*
X0116463Y0192323D02*
X0116363Y0192323D01*
X0116363Y0192922D02*
X0116463Y0192922D01*
X0116463Y0193520D02*
X0116363Y0193520D01*
X0116363Y0194119D02*
X0116463Y0194119D01*
X0116463Y0194717D02*
X0115829Y0194717D01*
X0115231Y0195316D02*
X0116463Y0195316D01*
X0116463Y0195914D02*
X0114632Y0195914D01*
X0116463Y0196513D02*
X0107155Y0196513D01*
X0106440Y0195914D02*
X0109695Y0195914D01*
X0081496Y0204294D02*
X0044824Y0204294D01*
X0045423Y0203695D02*
X0080924Y0203695D01*
X0080640Y0203097D02*
X0045904Y0203097D01*
X0046152Y0202498D02*
X0080509Y0202498D01*
X0080513Y0201900D02*
X0046388Y0201900D01*
X0040503Y0204294D02*
X0038863Y0204294D01*
X0038863Y0203695D02*
X0039904Y0203695D01*
X0039423Y0203097D02*
X0038863Y0203097D01*
X0038863Y0202498D02*
X0039175Y0202498D01*
X0038938Y0201900D02*
X0038863Y0201900D01*
X0038863Y0201301D02*
X0038938Y0201301D01*
X0038938Y0200703D02*
X0038863Y0200703D01*
X0038863Y0200104D02*
X0039080Y0200104D01*
X0038863Y0199505D02*
X0039328Y0199505D01*
X0039675Y0198907D02*
X0038863Y0198907D01*
X0038863Y0198308D02*
X0040273Y0198308D01*
X0041322Y0197710D02*
X0038863Y0197710D01*
X0050296Y0194717D02*
X0073031Y0194717D01*
X0100232Y0179755D02*
X0100475Y0179755D01*
X0099877Y0179156D02*
X0099633Y0179156D01*
X0099373Y0178558D02*
X0099035Y0178558D01*
X0099373Y0177959D02*
X0098663Y0177959D01*
X0098663Y0177361D02*
X0099373Y0177361D01*
X0099531Y0176762D02*
X0098663Y0176762D01*
X0098663Y0176164D02*
X0100130Y0176164D01*
X0097463Y0176164D02*
X0090943Y0176164D01*
X0091054Y0175565D02*
X0097463Y0175565D01*
X0097463Y0174967D02*
X0091054Y0174967D01*
X0091620Y0174368D02*
X0097463Y0174368D01*
X0097463Y0173770D02*
X0092219Y0173770D01*
X0092817Y0173171D02*
X0097463Y0173171D01*
X0097463Y0172572D02*
X0093416Y0172572D01*
X0094014Y0171974D02*
X0097463Y0171974D01*
X0097463Y0171375D02*
X0094463Y0171375D01*
X0094463Y0170777D02*
X0097463Y0170777D01*
X0097459Y0170178D02*
X0094463Y0170178D01*
X0094463Y0169580D02*
X0096860Y0169580D01*
X0096262Y0168981D02*
X0094463Y0168981D01*
X0094463Y0166587D02*
X0106163Y0166587D01*
X0106163Y0165989D02*
X0094463Y0165989D01*
X0094463Y0165390D02*
X0106163Y0165390D01*
X0106163Y0164792D02*
X0094463Y0164792D01*
X0094463Y0164193D02*
X0106163Y0164193D01*
X0106163Y0163595D02*
X0094463Y0163595D01*
X0094492Y0162996D02*
X0106163Y0162996D01*
X0106163Y0162398D02*
X0097690Y0162398D01*
X0098289Y0161799D02*
X0106163Y0161799D01*
X0106163Y0161201D02*
X0098887Y0161201D01*
X0099486Y0160602D02*
X0101223Y0160602D01*
X0100624Y0160004D02*
X0100063Y0160004D01*
X0100063Y0159405D02*
X0100273Y0159405D01*
X0100273Y0158807D02*
X0100063Y0158807D01*
X0100063Y0158208D02*
X0100273Y0158208D01*
X0103054Y0156413D02*
X0106163Y0156413D01*
X0106163Y0157011D02*
X0103545Y0157011D01*
X0104143Y0157610D02*
X0106163Y0157610D01*
X0106163Y0158208D02*
X0104454Y0158208D01*
X0104454Y0158807D02*
X0106163Y0158807D01*
X0106163Y0159405D02*
X0104454Y0159405D01*
X0104103Y0160004D02*
X0106163Y0160004D01*
X0106163Y0160602D02*
X0103504Y0160602D01*
X0107363Y0160602D02*
X0116463Y0160602D01*
X0116463Y0160004D02*
X0107363Y0160004D01*
X0107363Y0159405D02*
X0116463Y0159405D01*
X0116463Y0158807D02*
X0107363Y0158807D01*
X0107363Y0158208D02*
X0116463Y0158208D01*
X0116463Y0157610D02*
X0107363Y0157610D01*
X0107363Y0157011D02*
X0116463Y0157011D01*
X0116463Y0156413D02*
X0107363Y0156413D01*
X0107363Y0155814D02*
X0116463Y0155814D01*
X0116463Y0155216D02*
X0107363Y0155216D01*
X0107363Y0154617D02*
X0111735Y0154617D01*
X0110511Y0154019D02*
X0107363Y0154019D01*
X0107363Y0153420D02*
X0109912Y0153420D01*
X0109525Y0152822D02*
X0107363Y0152822D01*
X0107363Y0152223D02*
X0109277Y0152223D01*
X0109138Y0151625D02*
X0107363Y0151625D01*
X0107363Y0151026D02*
X0109138Y0151026D01*
X0109066Y0150428D02*
X0107363Y0150428D01*
X0107363Y0149829D02*
X0108468Y0149829D01*
X0107869Y0149231D02*
X0107363Y0149231D01*
X0106163Y0149231D02*
X0100663Y0149231D01*
X0100663Y0149829D02*
X0106163Y0149829D01*
X0106163Y0150428D02*
X0100663Y0150428D01*
X0100663Y0151026D02*
X0106163Y0151026D01*
X0106163Y0151625D02*
X0100663Y0151625D01*
X0100663Y0152223D02*
X0106163Y0152223D01*
X0106163Y0152822D02*
X0100663Y0152822D01*
X0100663Y0153420D02*
X0106163Y0153420D01*
X0106163Y0154019D02*
X0101952Y0154019D01*
X0102551Y0154617D02*
X0106163Y0154617D01*
X0106163Y0155216D02*
X0103054Y0155216D01*
X0103054Y0155814D02*
X0106163Y0155814D01*
X0107363Y0161201D02*
X0116463Y0161201D01*
X0116463Y0161799D02*
X0107363Y0161799D01*
X0107363Y0162398D02*
X0116463Y0162398D01*
X0116463Y0162996D02*
X0107363Y0162996D01*
X0107363Y0163595D02*
X0116463Y0163595D01*
X0116463Y0164193D02*
X0107363Y0164193D01*
X0107363Y0164792D02*
X0116463Y0164792D01*
X0116463Y0165390D02*
X0107363Y0165390D01*
X0107363Y0165989D02*
X0116463Y0165989D01*
X0116463Y0166587D02*
X0107363Y0166587D01*
X0107363Y0167186D02*
X0116463Y0167186D01*
X0116463Y0167784D02*
X0113662Y0167784D01*
X0113365Y0167661D02*
X0114660Y0168198D01*
X0115652Y0169190D01*
X0116188Y0170485D01*
X0116188Y0171888D01*
X0115652Y0173183D01*
X0114660Y0174175D01*
X0113365Y0174711D01*
X0111962Y0174711D01*
X0110667Y0174175D01*
X0109675Y0173183D01*
X0109138Y0171888D01*
X0109138Y0170485D01*
X0109675Y0169190D01*
X0110667Y0168198D01*
X0111962Y0167661D01*
X0113365Y0167661D01*
X0114845Y0168383D02*
X0116463Y0168383D01*
X0116463Y0168981D02*
X0115444Y0168981D01*
X0115813Y0169580D02*
X0116463Y0169580D01*
X0116463Y0170178D02*
X0116061Y0170178D01*
X0116188Y0170777D02*
X0116463Y0170777D01*
X0116463Y0171375D02*
X0116188Y0171375D01*
X0116153Y0171974D02*
X0116463Y0171974D01*
X0116463Y0172572D02*
X0115905Y0172572D01*
X0115657Y0173171D02*
X0116463Y0173171D01*
X0116463Y0173770D02*
X0115065Y0173770D01*
X0114193Y0174368D02*
X0116463Y0174368D01*
X0116463Y0174967D02*
X0107363Y0174967D01*
X0107363Y0175565D02*
X0116463Y0175565D01*
X0116463Y0176164D02*
X0107363Y0176164D01*
X0107363Y0176762D02*
X0116463Y0176762D01*
X0111133Y0174368D02*
X0107363Y0174368D01*
X0107363Y0173770D02*
X0110262Y0173770D01*
X0109670Y0173171D02*
X0107363Y0173171D01*
X0107363Y0172572D02*
X0109422Y0172572D01*
X0109174Y0171974D02*
X0107363Y0171974D01*
X0107363Y0171375D02*
X0109138Y0171375D01*
X0109138Y0170777D02*
X0107363Y0170777D01*
X0107363Y0170178D02*
X0109266Y0170178D01*
X0109513Y0169580D02*
X0107363Y0169580D01*
X0107363Y0168981D02*
X0109883Y0168981D01*
X0110482Y0168383D02*
X0107363Y0168383D01*
X0107363Y0167784D02*
X0111665Y0167784D01*
X0097463Y0176762D02*
X0090496Y0176762D01*
X0091054Y0177361D02*
X0097463Y0177361D01*
X0097463Y0177959D02*
X0091054Y0177959D01*
X0091054Y0178558D02*
X0097463Y0178558D01*
X0097936Y0179156D02*
X0090950Y0179156D01*
X0088563Y0157610D02*
X0086097Y0157610D01*
X0086695Y0157011D02*
X0088563Y0157011D01*
X0088563Y0156413D02*
X0086854Y0156413D01*
X0086854Y0155814D02*
X0088563Y0155814D01*
X0088563Y0155216D02*
X0086854Y0155216D01*
X0086351Y0154617D02*
X0088894Y0154617D01*
X0089493Y0154019D02*
X0085752Y0154019D01*
X0083775Y0154019D02*
X0075954Y0154019D01*
X0075954Y0153420D02*
X0090091Y0153420D01*
X0090690Y0152822D02*
X0077685Y0152822D01*
X0078283Y0152223D02*
X0096288Y0152223D01*
X0096663Y0151625D02*
X0078454Y0151625D01*
X0078454Y0151026D02*
X0096663Y0151026D01*
X0096663Y0150428D02*
X0078454Y0150428D01*
X0077963Y0149829D02*
X0080550Y0149829D01*
X0079951Y0149231D02*
X0077364Y0149231D01*
X0079573Y0148632D02*
X0051056Y0148632D01*
X0051655Y0148034D02*
X0079573Y0148034D01*
X0079573Y0147435D02*
X0051963Y0147435D01*
X0051963Y0146836D02*
X0079857Y0146836D01*
X0080455Y0146238D02*
X0051963Y0146238D01*
X0051963Y0145639D02*
X0081606Y0145639D01*
X0083376Y0149231D02*
X0094751Y0149231D01*
X0096576Y0149231D02*
X0096663Y0149231D01*
X0096663Y0149829D02*
X0082777Y0149829D01*
X0096663Y0145041D02*
X0051963Y0145041D01*
X0051963Y0144442D02*
X0096663Y0144442D01*
X0096663Y0143844D02*
X0051963Y0143844D01*
X0051963Y0143245D02*
X0096663Y0143245D01*
X0096663Y0142647D02*
X0051963Y0142647D01*
X0051963Y0142048D02*
X0096663Y0142048D01*
X0096663Y0141450D02*
X0060256Y0141450D01*
X0060855Y0140851D02*
X0083172Y0140851D01*
X0083598Y0141277D02*
X0082373Y0140052D01*
X0082373Y0138934D01*
X0079325Y0135886D01*
X0078563Y0135125D01*
X0078563Y0134943D01*
X0077773Y0134152D01*
X0077773Y0132420D01*
X0078998Y0131196D01*
X0080729Y0131196D01*
X0081954Y0132420D01*
X0081954Y0134152D01*
X0081611Y0134495D01*
X0084211Y0137096D01*
X0085329Y0137096D01*
X0086063Y0137830D01*
X0086798Y0137096D01*
X0088529Y0137096D01*
X0089754Y0138320D01*
X0089754Y0140052D01*
X0088529Y0141277D01*
X0086798Y0141277D01*
X0086063Y0140543D01*
X0085329Y0141277D01*
X0083598Y0141277D01*
X0082574Y0140253D02*
X0061154Y0140253D01*
X0061154Y0139654D02*
X0082373Y0139654D01*
X0082373Y0139056D02*
X0061154Y0139056D01*
X0060791Y0138457D02*
X0081896Y0138457D01*
X0081297Y0137859D02*
X0062329Y0137859D01*
X0062928Y0137260D02*
X0080699Y0137260D01*
X0080100Y0136662D02*
X0063526Y0136662D01*
X0064125Y0136063D02*
X0079502Y0136063D01*
X0078903Y0135465D02*
X0064723Y0135465D01*
X0065322Y0134866D02*
X0078487Y0134866D01*
X0077888Y0134268D02*
X0065921Y0134268D01*
X0066519Y0133669D02*
X0077773Y0133669D01*
X0077773Y0133071D02*
X0067118Y0133071D01*
X0067716Y0132472D02*
X0077773Y0132472D01*
X0078320Y0131874D02*
X0067963Y0131874D01*
X0067963Y0131275D02*
X0078918Y0131275D01*
X0078497Y0130677D02*
X0067963Y0130677D01*
X0067963Y0130078D02*
X0074717Y0130078D01*
X0074118Y0129480D02*
X0067963Y0129480D01*
X0067963Y0128881D02*
X0073520Y0128881D01*
X0072921Y0128283D02*
X0067963Y0128283D01*
X0067963Y0127684D02*
X0072363Y0127684D01*
X0072363Y0127086D02*
X0067963Y0127086D01*
X0067963Y0126487D02*
X0072363Y0126487D01*
X0072363Y0125889D02*
X0067963Y0125889D01*
X0067963Y0125290D02*
X0072363Y0125290D01*
X0072363Y0124692D02*
X0067963Y0124692D01*
X0067963Y0124093D02*
X0072363Y0124093D01*
X0072363Y0123495D02*
X0067963Y0123495D01*
X0067963Y0122896D02*
X0072363Y0122896D01*
X0072363Y0122298D02*
X0067963Y0122298D01*
X0067963Y0121699D02*
X0072363Y0121699D01*
X0072363Y0121101D02*
X0067963Y0121101D01*
X0067963Y0120502D02*
X0072363Y0120502D01*
X0072363Y0119903D02*
X0067963Y0119903D01*
X0067963Y0119305D02*
X0072363Y0119305D01*
X0072363Y0118706D02*
X0067963Y0118706D01*
X0067963Y0118108D02*
X0072363Y0118108D01*
X0072363Y0117509D02*
X0070397Y0117509D01*
X0070995Y0116911D02*
X0072363Y0116911D01*
X0072363Y0116312D02*
X0071454Y0116312D01*
X0071454Y0115714D02*
X0072363Y0115714D01*
X0072363Y0115115D02*
X0071673Y0115115D01*
X0072271Y0114517D02*
X0072363Y0114517D01*
X0074963Y0116312D02*
X0075473Y0116312D01*
X0075473Y0116911D02*
X0074963Y0116911D01*
X0074963Y0117509D02*
X0075630Y0117509D01*
X0076229Y0118108D02*
X0074963Y0118108D01*
X0074963Y0118706D02*
X0089845Y0118706D01*
X0089247Y0118108D02*
X0086898Y0118108D01*
X0087497Y0117509D02*
X0088648Y0117509D01*
X0090444Y0119305D02*
X0074963Y0119305D01*
X0074963Y0119903D02*
X0091042Y0119903D01*
X0091641Y0120502D02*
X0074963Y0120502D01*
X0074963Y0121101D02*
X0092239Y0121101D01*
X0092838Y0121699D02*
X0074963Y0121699D01*
X0074963Y0122298D02*
X0093436Y0122298D01*
X0094035Y0122896D02*
X0074963Y0122896D01*
X0074963Y0123495D02*
X0094633Y0123495D01*
X0095232Y0124093D02*
X0084227Y0124093D01*
X0084029Y0123896D02*
X0085254Y0125120D01*
X0085254Y0126852D01*
X0084029Y0128077D01*
X0082298Y0128077D01*
X0081073Y0126852D01*
X0081073Y0125120D01*
X0082298Y0123896D01*
X0084029Y0123896D01*
X0084825Y0124692D02*
X0095363Y0124692D01*
X0095363Y0125290D02*
X0085254Y0125290D01*
X0085254Y0125889D02*
X0095363Y0125889D01*
X0095363Y0126487D02*
X0085254Y0126487D01*
X0085021Y0127086D02*
X0095363Y0127086D01*
X0095363Y0127684D02*
X0084422Y0127684D01*
X0081905Y0127684D02*
X0081418Y0127684D01*
X0081306Y0127086D02*
X0080819Y0127086D01*
X0081073Y0126487D02*
X0078254Y0126487D01*
X0078254Y0125889D02*
X0081073Y0125889D01*
X0081073Y0125290D02*
X0078254Y0125290D01*
X0077825Y0124692D02*
X0081502Y0124692D01*
X0082100Y0124093D02*
X0077227Y0124093D01*
X0075100Y0124093D02*
X0074963Y0124093D01*
X0078021Y0127086D02*
X0078508Y0127086D01*
X0081754Y0128283D02*
X0095363Y0128283D01*
X0095363Y0128881D02*
X0081754Y0128881D01*
X0081754Y0129480D02*
X0093014Y0129480D01*
X0092415Y0130078D02*
X0081428Y0130078D01*
X0080830Y0130677D02*
X0089817Y0130677D01*
X0089218Y0131275D02*
X0080809Y0131275D01*
X0081407Y0131874D02*
X0089073Y0131874D01*
X0089073Y0132472D02*
X0081954Y0132472D01*
X0081954Y0133071D02*
X0089073Y0133071D01*
X0089590Y0133669D02*
X0081954Y0133669D01*
X0081839Y0134268D02*
X0090188Y0134268D01*
X0090573Y0134866D02*
X0081982Y0134866D01*
X0082580Y0135465D02*
X0090573Y0135465D01*
X0090573Y0136063D02*
X0083179Y0136063D01*
X0083777Y0136662D02*
X0090682Y0136662D01*
X0091281Y0137260D02*
X0088694Y0137260D01*
X0089292Y0137859D02*
X0094998Y0137859D01*
X0095596Y0138457D02*
X0089754Y0138457D01*
X0089754Y0139056D02*
X0096195Y0139056D01*
X0096663Y0139654D02*
X0089754Y0139654D01*
X0089553Y0140253D02*
X0096663Y0140253D01*
X0096663Y0140851D02*
X0088955Y0140851D01*
X0086372Y0140851D02*
X0085755Y0140851D01*
X0085494Y0137260D02*
X0086633Y0137260D01*
X0094046Y0137260D02*
X0094399Y0137260D01*
X0097718Y0133071D02*
X0104863Y0133071D01*
X0104863Y0133669D02*
X0098703Y0133669D01*
X0099301Y0134268D02*
X0104863Y0134268D01*
X0104863Y0134866D02*
X0099754Y0134866D01*
X0099754Y0135465D02*
X0104863Y0135465D01*
X0104863Y0136063D02*
X0099979Y0136063D01*
X0100577Y0136662D02*
X0104863Y0136662D01*
X0104863Y0137260D02*
X0100663Y0137260D01*
X0100663Y0137859D02*
X0104863Y0137859D01*
X0104863Y0138457D02*
X0100663Y0138457D01*
X0100663Y0139056D02*
X0104863Y0139056D01*
X0104863Y0139654D02*
X0100663Y0139654D01*
X0100663Y0140253D02*
X0104863Y0140253D01*
X0104863Y0140851D02*
X0100663Y0140851D01*
X0100663Y0141450D02*
X0104863Y0141450D01*
X0104863Y0142048D02*
X0100663Y0142048D01*
X0100663Y0142647D02*
X0104863Y0142647D01*
X0104863Y0143245D02*
X0100663Y0143245D01*
X0100663Y0143844D02*
X0104863Y0143844D01*
X0104863Y0144442D02*
X0100663Y0144442D01*
X0100663Y0145041D02*
X0104863Y0145041D01*
X0104863Y0145639D02*
X0100663Y0145639D01*
X0100663Y0146238D02*
X0104877Y0146238D01*
X0105475Y0146836D02*
X0100663Y0146836D01*
X0100663Y0147435D02*
X0106074Y0147435D01*
X0106163Y0148034D02*
X0100663Y0148034D01*
X0100663Y0148632D02*
X0106163Y0148632D01*
X0108554Y0146238D02*
X0116463Y0146238D01*
X0116463Y0146836D02*
X0109152Y0146836D01*
X0109751Y0147435D02*
X0116463Y0147435D01*
X0116463Y0148034D02*
X0114263Y0148034D01*
X0115094Y0148632D02*
X0116463Y0148632D01*
X0116463Y0149231D02*
X0115669Y0149231D01*
X0115917Y0149829D02*
X0116463Y0149829D01*
X0116463Y0150428D02*
X0116165Y0150428D01*
X0116188Y0151026D02*
X0116463Y0151026D01*
X0116463Y0151625D02*
X0116188Y0151625D01*
X0116049Y0152223D02*
X0116463Y0152223D01*
X0116463Y0152822D02*
X0115802Y0152822D01*
X0115415Y0153420D02*
X0116463Y0153420D01*
X0116463Y0154019D02*
X0114816Y0154019D01*
X0113592Y0154617D02*
X0116463Y0154617D01*
X0111064Y0148034D02*
X0110349Y0148034D01*
X0107955Y0145639D02*
X0116463Y0145639D01*
X0116463Y0145041D02*
X0107463Y0145041D01*
X0107463Y0144442D02*
X0111313Y0144442D01*
X0110336Y0143844D02*
X0107463Y0143844D01*
X0107463Y0143245D02*
X0109737Y0143245D01*
X0109453Y0142647D02*
X0107463Y0142647D01*
X0107463Y0142048D02*
X0109205Y0142048D01*
X0109138Y0141450D02*
X0107463Y0141450D01*
X0107463Y0140851D02*
X0109138Y0140851D01*
X0108892Y0140253D02*
X0107463Y0140253D01*
X0107463Y0139654D02*
X0108293Y0139654D01*
X0107695Y0139056D02*
X0107463Y0139056D01*
X0109576Y0137260D02*
X0116463Y0137260D01*
X0116463Y0136662D02*
X0108977Y0136662D01*
X0108963Y0136063D02*
X0116463Y0136063D01*
X0116463Y0135465D02*
X0108963Y0135465D01*
X0108963Y0134866D02*
X0116463Y0134866D01*
X0116463Y0134268D02*
X0114435Y0134268D01*
X0115166Y0133669D02*
X0116463Y0133669D01*
X0116463Y0133071D02*
X0115698Y0133071D01*
X0115946Y0132472D02*
X0116463Y0132472D01*
X0116463Y0131874D02*
X0116188Y0131874D01*
X0116188Y0131275D02*
X0116463Y0131275D01*
X0116463Y0130677D02*
X0116188Y0130677D01*
X0116020Y0130078D02*
X0116463Y0130078D01*
X0116463Y0129480D02*
X0115772Y0129480D01*
X0115343Y0128881D02*
X0116463Y0128881D01*
X0116463Y0128283D02*
X0114745Y0128283D01*
X0113420Y0127684D02*
X0116463Y0127684D01*
X0116463Y0127086D02*
X0109401Y0127086D01*
X0108963Y0126487D02*
X0116463Y0126487D01*
X0116463Y0125889D02*
X0108963Y0125889D01*
X0108963Y0125290D02*
X0116463Y0125290D01*
X0116463Y0124692D02*
X0113412Y0124692D01*
X0113365Y0124711D02*
X0111962Y0124711D01*
X0110667Y0124175D01*
X0109675Y0123183D01*
X0109138Y0121887D01*
X0109138Y0120485D01*
X0109675Y0119190D01*
X0110667Y0118198D01*
X0111962Y0117661D01*
X0113365Y0117661D01*
X0114660Y0118198D01*
X0115652Y0119190D01*
X0116188Y0120485D01*
X0116188Y0121887D01*
X0115652Y0123183D01*
X0114660Y0124175D01*
X0113365Y0124711D01*
X0111915Y0124692D02*
X0108963Y0124692D01*
X0108963Y0124093D02*
X0110585Y0124093D01*
X0109987Y0123495D02*
X0108963Y0123495D01*
X0108963Y0122896D02*
X0109556Y0122896D01*
X0109308Y0122298D02*
X0108963Y0122298D01*
X0108963Y0121699D02*
X0109138Y0121699D01*
X0109138Y0121101D02*
X0108963Y0121101D01*
X0108963Y0120502D02*
X0109138Y0120502D01*
X0108963Y0119903D02*
X0109379Y0119903D01*
X0109627Y0119305D02*
X0108963Y0119305D01*
X0108963Y0118706D02*
X0110158Y0118706D01*
X0110884Y0118108D02*
X0108963Y0118108D01*
X0108963Y0117509D02*
X0116463Y0117509D01*
X0116463Y0116911D02*
X0108963Y0116911D01*
X0108963Y0116312D02*
X0116463Y0116312D01*
X0116463Y0115714D02*
X0108963Y0115714D01*
X0108963Y0115115D02*
X0116463Y0115115D01*
X0116463Y0114517D02*
X0113834Y0114517D01*
X0113365Y0114711D02*
X0111962Y0114711D01*
X0110667Y0114175D01*
X0109675Y0113183D01*
X0109138Y0111887D01*
X0109138Y0110485D01*
X0109675Y0109190D01*
X0110667Y0108198D01*
X0111962Y0107661D01*
X0113365Y0107661D01*
X0114660Y0108198D01*
X0115652Y0109190D01*
X0116188Y0110485D01*
X0116188Y0111887D01*
X0115652Y0113183D01*
X0114660Y0114175D01*
X0113365Y0114711D01*
X0114917Y0113918D02*
X0116463Y0113918D01*
X0116463Y0113320D02*
X0115515Y0113320D01*
X0115843Y0112721D02*
X0116463Y0112721D01*
X0116463Y0112123D02*
X0116091Y0112123D01*
X0116188Y0111524D02*
X0116463Y0111524D01*
X0116463Y0110926D02*
X0116188Y0110926D01*
X0116123Y0110327D02*
X0116463Y0110327D01*
X0116463Y0109729D02*
X0115875Y0109729D01*
X0115593Y0109130D02*
X0116463Y0109130D01*
X0116463Y0108532D02*
X0114994Y0108532D01*
X0114021Y0107933D02*
X0116463Y0107933D01*
X0116463Y0107335D02*
X0107650Y0107335D01*
X0107052Y0106736D02*
X0116463Y0106736D01*
X0116463Y0106138D02*
X0106453Y0106138D01*
X0105855Y0105539D02*
X0116463Y0105539D01*
X0116463Y0104941D02*
X0105256Y0104941D01*
X0104658Y0104342D02*
X0111071Y0104342D01*
X0110667Y0104175D02*
X0109675Y0103183D01*
X0109138Y0101887D01*
X0109138Y0100485D01*
X0109675Y0099190D01*
X0110667Y0098198D01*
X0111962Y0097661D01*
X0113365Y0097661D01*
X0114660Y0098198D01*
X0115652Y0099190D01*
X0116188Y0100485D01*
X0116188Y0101887D01*
X0115652Y0103183D01*
X0114660Y0104175D01*
X0113365Y0104711D01*
X0111962Y0104711D01*
X0110667Y0104175D01*
X0110236Y0103744D02*
X0098059Y0103744D01*
X0097461Y0103145D02*
X0109659Y0103145D01*
X0109412Y0102547D02*
X0096862Y0102547D01*
X0096363Y0101948D02*
X0109164Y0101948D01*
X0109138Y0101350D02*
X0096363Y0101350D01*
X0096363Y0100751D02*
X0109138Y0100751D01*
X0109276Y0100153D02*
X0096363Y0100153D01*
X0096363Y0099554D02*
X0109524Y0099554D01*
X0109909Y0098956D02*
X0096363Y0098956D01*
X0096363Y0098357D02*
X0110508Y0098357D01*
X0111728Y0097759D02*
X0096430Y0097759D01*
X0097028Y0097160D02*
X0116463Y0097160D01*
X0116463Y0096562D02*
X0097627Y0096562D01*
X0098225Y0095963D02*
X0116463Y0095963D01*
X0116463Y0095365D02*
X0098824Y0095365D01*
X0098963Y0094766D02*
X0116463Y0094766D01*
X0116463Y0094167D02*
X0114667Y0094167D01*
X0114660Y0094175D02*
X0113365Y0094711D01*
X0111962Y0094711D01*
X0110667Y0094175D01*
X0109675Y0093183D01*
X0109138Y0091887D01*
X0109138Y0090485D01*
X0109675Y0089190D01*
X0110667Y0088198D01*
X0111962Y0087661D01*
X0113365Y0087661D01*
X0114660Y0088198D01*
X0115652Y0089190D01*
X0116188Y0090485D01*
X0116188Y0091887D01*
X0115652Y0093183D01*
X0114660Y0094175D01*
X0115266Y0093569D02*
X0116463Y0093569D01*
X0116463Y0092970D02*
X0115740Y0092970D01*
X0115988Y0092372D02*
X0116463Y0092372D01*
X0116463Y0091773D02*
X0116188Y0091773D01*
X0116188Y0091175D02*
X0116463Y0091175D01*
X0116463Y0090576D02*
X0116188Y0090576D01*
X0115978Y0089978D02*
X0116463Y0089978D01*
X0116463Y0089379D02*
X0115730Y0089379D01*
X0115243Y0088781D02*
X0116463Y0088781D01*
X0116463Y0088182D02*
X0114623Y0088182D01*
X0116463Y0087584D02*
X0103104Y0087584D01*
X0102506Y0088182D02*
X0110704Y0088182D01*
X0110084Y0088781D02*
X0101907Y0088781D01*
X0102254Y0089379D02*
X0109596Y0089379D01*
X0109349Y0089978D02*
X0102254Y0089978D01*
X0102254Y0090576D02*
X0109138Y0090576D01*
X0109138Y0091175D02*
X0102131Y0091175D01*
X0101533Y0091773D02*
X0109138Y0091773D01*
X0109339Y0092372D02*
X0098963Y0092372D01*
X0098963Y0092970D02*
X0109587Y0092970D01*
X0110061Y0093569D02*
X0098963Y0093569D01*
X0098963Y0094167D02*
X0110660Y0094167D01*
X0113599Y0097759D02*
X0116463Y0097759D01*
X0116463Y0098357D02*
X0114819Y0098357D01*
X0115418Y0098956D02*
X0116463Y0098956D01*
X0116463Y0099554D02*
X0115803Y0099554D01*
X0116051Y0100153D02*
X0116463Y0100153D01*
X0116463Y0100751D02*
X0116188Y0100751D01*
X0116188Y0101350D02*
X0116463Y0101350D01*
X0116463Y0101948D02*
X0116163Y0101948D01*
X0115915Y0102547D02*
X0116463Y0102547D01*
X0116463Y0103145D02*
X0115668Y0103145D01*
X0115091Y0103744D02*
X0116463Y0103744D01*
X0116463Y0104342D02*
X0114256Y0104342D01*
X0111306Y0107933D02*
X0108249Y0107933D01*
X0108847Y0108532D02*
X0110333Y0108532D01*
X0109734Y0109130D02*
X0108963Y0109130D01*
X0108963Y0109729D02*
X0109452Y0109729D01*
X0109204Y0110327D02*
X0108963Y0110327D01*
X0108963Y0110926D02*
X0109138Y0110926D01*
X0109138Y0111524D02*
X0108963Y0111524D01*
X0108963Y0112123D02*
X0109236Y0112123D01*
X0109484Y0112721D02*
X0108963Y0112721D01*
X0108963Y0113320D02*
X0109812Y0113320D01*
X0110410Y0113918D02*
X0108963Y0113918D01*
X0108963Y0114517D02*
X0111493Y0114517D01*
X0114443Y0118108D02*
X0116463Y0118108D01*
X0116463Y0118706D02*
X0115169Y0118706D01*
X0115700Y0119305D02*
X0116463Y0119305D01*
X0116463Y0119903D02*
X0115948Y0119903D01*
X0116188Y0120502D02*
X0116463Y0120502D01*
X0116463Y0121101D02*
X0116188Y0121101D01*
X0116188Y0121699D02*
X0116463Y0121699D01*
X0116463Y0122298D02*
X0116019Y0122298D01*
X0115771Y0122896D02*
X0116463Y0122896D01*
X0116463Y0123495D02*
X0115340Y0123495D01*
X0114742Y0124093D02*
X0116463Y0124093D01*
X0111907Y0127684D02*
X0110000Y0127684D01*
X0109138Y0130677D02*
X0108963Y0130677D01*
X0108963Y0131275D02*
X0109138Y0131275D01*
X0109138Y0131874D02*
X0108963Y0131874D01*
X0108963Y0132472D02*
X0109381Y0132472D01*
X0109629Y0133071D02*
X0108963Y0133071D01*
X0108963Y0133669D02*
X0110161Y0133669D01*
X0110891Y0134268D02*
X0108963Y0134268D01*
X0110174Y0137859D02*
X0111486Y0137859D01*
X0113841Y0137859D02*
X0116463Y0137859D01*
X0116463Y0138457D02*
X0114920Y0138457D01*
X0115518Y0139056D02*
X0116463Y0139056D01*
X0116463Y0139654D02*
X0115844Y0139654D01*
X0116092Y0140253D02*
X0116463Y0140253D01*
X0116463Y0140851D02*
X0116188Y0140851D01*
X0116188Y0141450D02*
X0116463Y0141450D01*
X0116463Y0142048D02*
X0116122Y0142048D01*
X0115874Y0142647D02*
X0116463Y0142647D01*
X0116463Y0143245D02*
X0115589Y0143245D01*
X0114991Y0143844D02*
X0116463Y0143844D01*
X0116463Y0144442D02*
X0114014Y0144442D01*
X0104863Y0132472D02*
X0097963Y0132472D01*
X0097963Y0131874D02*
X0104863Y0131874D01*
X0104863Y0131275D02*
X0097963Y0131275D01*
X0097963Y0130677D02*
X0104863Y0130677D01*
X0104717Y0130078D02*
X0097963Y0130078D01*
X0097963Y0129480D02*
X0104118Y0129480D01*
X0103520Y0128881D02*
X0097963Y0128881D01*
X0097963Y0128283D02*
X0103363Y0128283D01*
X0103363Y0127684D02*
X0097963Y0127684D01*
X0097963Y0127086D02*
X0103363Y0127086D01*
X0103363Y0126487D02*
X0097963Y0126487D01*
X0097963Y0125889D02*
X0103363Y0125889D01*
X0103363Y0125290D02*
X0097963Y0125290D01*
X0097963Y0124692D02*
X0103363Y0124692D01*
X0103363Y0124093D02*
X0097963Y0124093D01*
X0097963Y0123495D02*
X0103363Y0123495D01*
X0103363Y0122896D02*
X0097712Y0122896D01*
X0097113Y0122298D02*
X0103363Y0122298D01*
X0103363Y0121699D02*
X0096515Y0121699D01*
X0095916Y0121101D02*
X0103363Y0121101D01*
X0103363Y0120502D02*
X0095318Y0120502D01*
X0094719Y0119903D02*
X0103363Y0119903D01*
X0103363Y0119305D02*
X0094121Y0119305D01*
X0093522Y0118706D02*
X0103363Y0118706D01*
X0103363Y0118108D02*
X0092924Y0118108D01*
X0092325Y0117509D02*
X0103363Y0117509D01*
X0103363Y0116911D02*
X0091727Y0116911D01*
X0091128Y0116312D02*
X0103363Y0116312D01*
X0103363Y0115714D02*
X0090530Y0115714D01*
X0089931Y0115115D02*
X0093136Y0115115D01*
X0092538Y0114517D02*
X0087150Y0114517D01*
X0084576Y0114517D02*
X0078551Y0114517D01*
X0079149Y0115115D02*
X0083978Y0115115D01*
X0083773Y0115714D02*
X0079654Y0115714D01*
X0079654Y0116312D02*
X0083773Y0116312D01*
X0083773Y0116911D02*
X0079654Y0116911D01*
X0079497Y0117509D02*
X0084230Y0117509D01*
X0084829Y0118108D02*
X0078898Y0118108D01*
X0076834Y0113918D02*
X0092073Y0113918D01*
X0092073Y0113320D02*
X0076463Y0113320D01*
X0078885Y0112721D02*
X0092073Y0112721D01*
X0092270Y0112123D02*
X0086883Y0112123D01*
X0086829Y0112177D02*
X0085098Y0112177D01*
X0083873Y0110952D01*
X0083873Y0109220D01*
X0085098Y0107996D01*
X0086829Y0107996D01*
X0088054Y0109220D01*
X0088054Y0110952D01*
X0086829Y0112177D01*
X0087482Y0111524D02*
X0092863Y0111524D01*
X0092863Y0110926D02*
X0088054Y0110926D01*
X0088054Y0110327D02*
X0092863Y0110327D01*
X0092863Y0109729D02*
X0088054Y0109729D01*
X0087964Y0109130D02*
X0093381Y0109130D01*
X0093052Y0108532D02*
X0087365Y0108532D01*
X0084562Y0108532D02*
X0081163Y0108532D01*
X0081163Y0107933D02*
X0092454Y0107933D01*
X0092073Y0107335D02*
X0081163Y0107335D01*
X0081163Y0106736D02*
X0092073Y0106736D01*
X0092073Y0106138D02*
X0081163Y0106138D01*
X0081055Y0105539D02*
X0084460Y0105539D01*
X0083861Y0104941D02*
X0080456Y0104941D01*
X0079858Y0104342D02*
X0083773Y0104342D01*
X0083773Y0103744D02*
X0079363Y0103744D01*
X0079363Y0103145D02*
X0083773Y0103145D01*
X0084347Y0102547D02*
X0079363Y0102547D01*
X0079363Y0101948D02*
X0084945Y0101948D01*
X0085563Y0101350D02*
X0079363Y0101350D01*
X0079363Y0100751D02*
X0085563Y0100751D01*
X0085563Y0100153D02*
X0079363Y0100153D01*
X0079363Y0099554D02*
X0085563Y0099554D01*
X0085563Y0098956D02*
X0079363Y0098956D01*
X0079363Y0098357D02*
X0085563Y0098357D01*
X0085563Y0097759D02*
X0079363Y0097759D01*
X0079363Y0097160D02*
X0085563Y0097160D01*
X0085563Y0096562D02*
X0085245Y0096562D01*
X0083082Y0096562D02*
X0079363Y0096562D01*
X0079363Y0095963D02*
X0082484Y0095963D01*
X0082073Y0095365D02*
X0079363Y0095365D01*
X0079363Y0094766D02*
X0082073Y0094766D01*
X0082073Y0094167D02*
X0079363Y0094167D01*
X0079298Y0093777D02*
X0078073Y0092552D01*
X0078073Y0090820D01*
X0079298Y0089596D01*
X0080073Y0089596D01*
X0080073Y0088320D01*
X0081298Y0087096D01*
X0083029Y0087096D01*
X0083913Y0087980D01*
X0084298Y0087596D01*
X0086029Y0087596D01*
X0087254Y0088820D01*
X0087254Y0090552D01*
X0086029Y0091777D01*
X0084298Y0091777D01*
X0083413Y0090893D01*
X0083029Y0091277D01*
X0082254Y0091277D01*
X0082254Y0092552D01*
X0081029Y0093777D01*
X0079298Y0093777D01*
X0079090Y0093569D02*
X0078885Y0093569D01*
X0078491Y0092970D02*
X0078286Y0092970D01*
X0078073Y0092372D02*
X0077763Y0092372D01*
X0077763Y0091773D02*
X0078073Y0091773D01*
X0078073Y0091175D02*
X0077763Y0091175D01*
X0078212Y0090576D02*
X0078317Y0090576D01*
X0078810Y0089978D02*
X0078915Y0089978D01*
X0079163Y0089379D02*
X0080073Y0089379D01*
X0080073Y0088781D02*
X0079163Y0088781D01*
X0079163Y0088182D02*
X0080211Y0088182D01*
X0080809Y0087584D02*
X0079163Y0087584D01*
X0079163Y0086985D02*
X0091826Y0086985D01*
X0091864Y0086387D02*
X0079163Y0086387D01*
X0079163Y0085788D02*
X0091265Y0085788D01*
X0090667Y0085190D02*
X0079163Y0085190D01*
X0079163Y0084591D02*
X0090068Y0084591D01*
X0089470Y0083993D02*
X0079163Y0083993D01*
X0079163Y0083394D02*
X0088871Y0083394D01*
X0088273Y0082796D02*
X0079163Y0082796D01*
X0079163Y0082197D02*
X0087674Y0082197D01*
X0087076Y0081599D02*
X0079751Y0081599D01*
X0080350Y0081000D02*
X0086477Y0081000D01*
X0087576Y0080402D02*
X0098410Y0080402D01*
X0099008Y0079803D02*
X0086977Y0079803D01*
X0088174Y0081000D02*
X0097811Y0081000D01*
X0097213Y0081599D02*
X0088773Y0081599D01*
X0089371Y0082197D02*
X0096614Y0082197D01*
X0096016Y0082796D02*
X0089970Y0082796D01*
X0090568Y0083394D02*
X0095417Y0083394D01*
X0094819Y0083993D02*
X0091167Y0083993D01*
X0091765Y0084591D02*
X0094220Y0084591D01*
X0093622Y0085190D02*
X0092364Y0085190D01*
X0092963Y0085788D02*
X0093023Y0085788D01*
X0091763Y0087584D02*
X0083517Y0087584D01*
X0086616Y0088182D02*
X0091763Y0088182D01*
X0091763Y0088781D02*
X0087215Y0088781D01*
X0087254Y0089379D02*
X0091763Y0089379D01*
X0091763Y0089978D02*
X0087254Y0089978D01*
X0087230Y0090576D02*
X0091763Y0090576D01*
X0091236Y0091175D02*
X0086631Y0091175D01*
X0086838Y0091773D02*
X0086033Y0091773D01*
X0086239Y0092372D02*
X0082254Y0092372D01*
X0082254Y0091773D02*
X0084294Y0091773D01*
X0083696Y0091175D02*
X0083131Y0091175D01*
X0082923Y0092970D02*
X0081836Y0092970D01*
X0082324Y0093569D02*
X0081237Y0093569D01*
X0085404Y0092970D02*
X0085641Y0092970D01*
X0088163Y0097160D02*
X0088181Y0097160D01*
X0088163Y0097759D02*
X0089073Y0097759D01*
X0089073Y0098357D02*
X0088163Y0098357D01*
X0088163Y0098956D02*
X0089476Y0098956D01*
X0090075Y0099554D02*
X0088163Y0099554D01*
X0088163Y0100153D02*
X0089741Y0100153D01*
X0089142Y0100751D02*
X0088163Y0100751D01*
X0088163Y0101350D02*
X0089073Y0101350D01*
X0089073Y0101948D02*
X0088163Y0101948D01*
X0088163Y0102547D02*
X0089073Y0102547D01*
X0089666Y0103145D02*
X0088163Y0103145D01*
X0087954Y0103744D02*
X0090264Y0103744D01*
X0092063Y0103744D02*
X0093264Y0103744D01*
X0092666Y0103145D02*
X0092661Y0103145D01*
X0092953Y0104941D02*
X0087866Y0104941D01*
X0087954Y0104342D02*
X0094981Y0104342D01*
X0095374Y0104941D02*
X0095579Y0104941D01*
X0092354Y0105539D02*
X0087267Y0105539D01*
X0083963Y0109130D02*
X0080658Y0109130D01*
X0080059Y0109729D02*
X0083873Y0109729D01*
X0083873Y0110327D02*
X0079754Y0110327D01*
X0079754Y0110926D02*
X0083873Y0110926D01*
X0084445Y0111524D02*
X0079754Y0111524D01*
X0079483Y0112123D02*
X0085043Y0112123D01*
X0095463Y0111524D02*
X0103363Y0111524D01*
X0103363Y0110926D02*
X0095463Y0110926D01*
X0095861Y0110327D02*
X0102804Y0110327D01*
X0102206Y0109729D02*
X0096459Y0109729D01*
X0096056Y0112123D02*
X0103363Y0112123D01*
X0103363Y0112721D02*
X0096254Y0112721D01*
X0096254Y0113320D02*
X0103363Y0113320D01*
X0103363Y0113918D02*
X0096254Y0113918D01*
X0095789Y0114517D02*
X0103363Y0114517D01*
X0103363Y0115115D02*
X0095191Y0115115D01*
X0069363Y0108796D02*
X0069363Y0097725D01*
X0068754Y0097115D01*
X0068754Y0097552D01*
X0067529Y0098777D01*
X0065798Y0098777D01*
X0064573Y0097552D01*
X0064573Y0095820D01*
X0064907Y0095486D01*
X0058863Y0095486D01*
X0047663Y0106686D01*
X0047663Y0124930D01*
X0048498Y0124096D01*
X0050229Y0124096D01*
X0051454Y0125320D01*
X0051454Y0125557D01*
X0051863Y0125148D01*
X0051863Y0123277D01*
X0051298Y0123277D01*
X0050073Y0122052D01*
X0050073Y0120320D01*
X0051298Y0119096D01*
X0053029Y0119096D01*
X0053363Y0119430D01*
X0053363Y0115225D01*
X0053363Y0114148D01*
X0057363Y0110148D01*
X0057363Y0100948D01*
X0059163Y0099148D01*
X0059925Y0098386D01*
X0061007Y0098386D01*
X0061798Y0097596D01*
X0063529Y0097596D01*
X0064754Y0098820D01*
X0064754Y0100552D01*
X0064710Y0100596D01*
X0065029Y0100596D01*
X0065663Y0101230D01*
X0066298Y0100596D01*
X0068029Y0100596D01*
X0069254Y0101820D01*
X0069254Y0103552D01*
X0068029Y0104777D01*
X0066298Y0104777D01*
X0065663Y0104143D01*
X0065463Y0104343D01*
X0065463Y0106148D01*
X0067963Y0108648D01*
X0067963Y0109730D01*
X0068898Y0108796D01*
X0069363Y0108796D01*
X0069363Y0108532D02*
X0067847Y0108532D01*
X0067963Y0109130D02*
X0068563Y0109130D01*
X0067965Y0109729D02*
X0067963Y0109729D01*
X0067249Y0107933D02*
X0069363Y0107933D01*
X0069363Y0107335D02*
X0066650Y0107335D01*
X0066052Y0106736D02*
X0069363Y0106736D01*
X0069363Y0106138D02*
X0065463Y0106138D01*
X0065463Y0105539D02*
X0069363Y0105539D01*
X0069363Y0104941D02*
X0065463Y0104941D01*
X0065464Y0104342D02*
X0065863Y0104342D01*
X0068464Y0104342D02*
X0069363Y0104342D01*
X0069363Y0103744D02*
X0069063Y0103744D01*
X0069254Y0103145D02*
X0069363Y0103145D01*
X0069363Y0102547D02*
X0069254Y0102547D01*
X0069254Y0101948D02*
X0069363Y0101948D01*
X0069363Y0101350D02*
X0068783Y0101350D01*
X0069363Y0100751D02*
X0068185Y0100751D01*
X0069363Y0100153D02*
X0064754Y0100153D01*
X0064754Y0099554D02*
X0069363Y0099554D01*
X0069363Y0098956D02*
X0064754Y0098956D01*
X0064291Y0098357D02*
X0065378Y0098357D01*
X0064779Y0097759D02*
X0063692Y0097759D01*
X0064573Y0097160D02*
X0057190Y0097160D01*
X0057788Y0096562D02*
X0064573Y0096562D01*
X0064573Y0095963D02*
X0058387Y0095963D01*
X0057288Y0095365D02*
X0038863Y0095365D01*
X0038863Y0095963D02*
X0056690Y0095963D01*
X0056091Y0096562D02*
X0038863Y0096562D01*
X0038863Y0097160D02*
X0055493Y0097160D01*
X0054894Y0097759D02*
X0043599Y0097759D01*
X0043365Y0097661D02*
X0044660Y0098198D01*
X0045652Y0099190D01*
X0046188Y0100485D01*
X0046188Y0101887D01*
X0045652Y0103183D01*
X0044660Y0104175D01*
X0043365Y0104711D01*
X0041962Y0104711D01*
X0040667Y0104175D01*
X0039675Y0103183D01*
X0039138Y0101887D01*
X0039138Y0100485D01*
X0039675Y0099190D01*
X0040667Y0098198D01*
X0041962Y0097661D01*
X0043365Y0097661D01*
X0044819Y0098357D02*
X0054296Y0098357D01*
X0053697Y0098956D02*
X0045418Y0098956D01*
X0045803Y0099554D02*
X0053099Y0099554D01*
X0052500Y0100153D02*
X0046051Y0100153D01*
X0046188Y0100751D02*
X0051902Y0100751D01*
X0051303Y0101350D02*
X0046188Y0101350D01*
X0046163Y0101948D02*
X0050705Y0101948D01*
X0050106Y0102547D02*
X0045915Y0102547D01*
X0045668Y0103145D02*
X0049508Y0103145D01*
X0048909Y0103744D02*
X0045091Y0103744D01*
X0044256Y0104342D02*
X0048311Y0104342D01*
X0047712Y0104941D02*
X0038863Y0104941D01*
X0038863Y0105539D02*
X0047114Y0105539D01*
X0046515Y0106138D02*
X0038863Y0106138D01*
X0038863Y0106736D02*
X0046463Y0106736D01*
X0046463Y0107335D02*
X0038863Y0107335D01*
X0038863Y0107933D02*
X0041306Y0107933D01*
X0040667Y0108198D02*
X0041962Y0107661D01*
X0043365Y0107661D01*
X0044660Y0108198D01*
X0045652Y0109190D01*
X0046188Y0110485D01*
X0046188Y0111887D01*
X0045652Y0113183D01*
X0044660Y0114175D01*
X0043365Y0114711D01*
X0041962Y0114711D01*
X0040667Y0114175D01*
X0039675Y0113183D01*
X0039138Y0111887D01*
X0039138Y0110485D01*
X0039675Y0109190D01*
X0040667Y0108198D01*
X0040333Y0108532D02*
X0038863Y0108532D01*
X0038863Y0109130D02*
X0039734Y0109130D01*
X0039452Y0109729D02*
X0038863Y0109729D01*
X0038863Y0110327D02*
X0039204Y0110327D01*
X0039138Y0110926D02*
X0038863Y0110926D01*
X0038863Y0111524D02*
X0039138Y0111524D01*
X0039236Y0112123D02*
X0038863Y0112123D01*
X0038863Y0112721D02*
X0039484Y0112721D01*
X0039812Y0113320D02*
X0038863Y0113320D01*
X0038863Y0113918D02*
X0040410Y0113918D01*
X0041493Y0114517D02*
X0038863Y0114517D01*
X0038863Y0115115D02*
X0046463Y0115115D01*
X0046463Y0114517D02*
X0043834Y0114517D01*
X0044917Y0113918D02*
X0046463Y0113918D01*
X0046463Y0113320D02*
X0045515Y0113320D01*
X0045843Y0112721D02*
X0046463Y0112721D01*
X0046463Y0112123D02*
X0046091Y0112123D01*
X0046188Y0111524D02*
X0046463Y0111524D01*
X0046463Y0110926D02*
X0046188Y0110926D01*
X0046123Y0110327D02*
X0046463Y0110327D01*
X0046463Y0109729D02*
X0045875Y0109729D01*
X0045593Y0109130D02*
X0046463Y0109130D01*
X0046463Y0108532D02*
X0044994Y0108532D01*
X0044021Y0107933D02*
X0046463Y0107933D01*
X0047663Y0107933D02*
X0057363Y0107933D01*
X0057363Y0107335D02*
X0047663Y0107335D01*
X0047663Y0106736D02*
X0057363Y0106736D01*
X0057363Y0106138D02*
X0048212Y0106138D01*
X0048811Y0105539D02*
X0057363Y0105539D01*
X0057363Y0104941D02*
X0049409Y0104941D01*
X0050008Y0104342D02*
X0057363Y0104342D01*
X0057363Y0103744D02*
X0050606Y0103744D01*
X0051205Y0103145D02*
X0057363Y0103145D01*
X0057363Y0102547D02*
X0051803Y0102547D01*
X0052402Y0101948D02*
X0057363Y0101948D01*
X0057363Y0101350D02*
X0053000Y0101350D01*
X0053599Y0100751D02*
X0057560Y0100751D01*
X0058159Y0100153D02*
X0054197Y0100153D01*
X0054796Y0099554D02*
X0058757Y0099554D01*
X0059356Y0098956D02*
X0055394Y0098956D01*
X0055993Y0098357D02*
X0061036Y0098357D01*
X0061635Y0097759D02*
X0056591Y0097759D01*
X0057887Y0094766D02*
X0038863Y0094766D01*
X0038863Y0094167D02*
X0040660Y0094167D01*
X0040667Y0094175D02*
X0039675Y0093183D01*
X0039138Y0091887D01*
X0039138Y0090485D01*
X0039675Y0089190D01*
X0040667Y0088198D01*
X0041962Y0087661D01*
X0043365Y0087661D01*
X0044660Y0088198D01*
X0045652Y0089190D01*
X0046188Y0090485D01*
X0046188Y0091887D01*
X0045652Y0093183D01*
X0044660Y0094175D01*
X0043365Y0094711D01*
X0041962Y0094711D01*
X0040667Y0094175D01*
X0040061Y0093569D02*
X0038863Y0093569D01*
X0038863Y0092970D02*
X0039587Y0092970D01*
X0039339Y0092372D02*
X0038863Y0092372D01*
X0038863Y0091773D02*
X0039138Y0091773D01*
X0039138Y0091175D02*
X0038863Y0091175D01*
X0038863Y0090576D02*
X0039138Y0090576D01*
X0039349Y0089978D02*
X0038863Y0089978D01*
X0038863Y0089379D02*
X0039596Y0089379D01*
X0040084Y0088781D02*
X0038863Y0088781D01*
X0038863Y0088182D02*
X0040704Y0088182D01*
X0038863Y0087584D02*
X0050723Y0087584D01*
X0051321Y0088182D02*
X0044623Y0088182D01*
X0045243Y0088781D02*
X0051920Y0088781D01*
X0052518Y0089379D02*
X0045730Y0089379D01*
X0045978Y0089978D02*
X0053117Y0089978D01*
X0053715Y0090576D02*
X0046188Y0090576D01*
X0046188Y0091175D02*
X0054314Y0091175D01*
X0054912Y0091773D02*
X0046188Y0091773D01*
X0045988Y0092372D02*
X0055511Y0092372D01*
X0056109Y0092970D02*
X0045740Y0092970D01*
X0045266Y0093569D02*
X0056708Y0093569D01*
X0057306Y0094167D02*
X0044667Y0094167D01*
X0041728Y0097759D02*
X0038863Y0097759D01*
X0038863Y0098357D02*
X0040508Y0098357D01*
X0039909Y0098956D02*
X0038863Y0098956D01*
X0038863Y0099554D02*
X0039524Y0099554D01*
X0039276Y0100153D02*
X0038863Y0100153D01*
X0038863Y0100751D02*
X0039138Y0100751D01*
X0039138Y0101350D02*
X0038863Y0101350D01*
X0038863Y0101948D02*
X0039164Y0101948D01*
X0039412Y0102547D02*
X0038863Y0102547D01*
X0038863Y0103145D02*
X0039659Y0103145D01*
X0040236Y0103744D02*
X0038863Y0103744D01*
X0038863Y0104342D02*
X0041071Y0104342D01*
X0047663Y0108532D02*
X0057363Y0108532D01*
X0057363Y0109130D02*
X0047663Y0109130D01*
X0047663Y0109729D02*
X0057363Y0109729D01*
X0057184Y0110327D02*
X0047663Y0110327D01*
X0047663Y0110926D02*
X0056586Y0110926D01*
X0055987Y0111524D02*
X0047663Y0111524D01*
X0047663Y0112123D02*
X0055388Y0112123D01*
X0054790Y0112721D02*
X0047663Y0112721D01*
X0047663Y0113320D02*
X0054191Y0113320D01*
X0053593Y0113918D02*
X0047663Y0113918D01*
X0047663Y0114517D02*
X0053363Y0114517D01*
X0053363Y0115115D02*
X0047663Y0115115D01*
X0047663Y0115714D02*
X0053363Y0115714D01*
X0053363Y0116312D02*
X0047663Y0116312D01*
X0047663Y0116911D02*
X0053363Y0116911D01*
X0053363Y0117509D02*
X0047663Y0117509D01*
X0047663Y0118108D02*
X0053363Y0118108D01*
X0053363Y0118706D02*
X0047663Y0118706D01*
X0047663Y0119305D02*
X0051088Y0119305D01*
X0050490Y0119903D02*
X0047663Y0119903D01*
X0047663Y0120502D02*
X0050073Y0120502D01*
X0050073Y0121101D02*
X0047663Y0121101D01*
X0047663Y0121699D02*
X0050073Y0121699D01*
X0050318Y0122298D02*
X0047663Y0122298D01*
X0047663Y0122896D02*
X0050917Y0122896D01*
X0051863Y0123495D02*
X0047663Y0123495D01*
X0047663Y0124093D02*
X0051863Y0124093D01*
X0051863Y0124692D02*
X0050825Y0124692D01*
X0051424Y0125290D02*
X0051721Y0125290D01*
X0047902Y0124692D02*
X0047663Y0124692D01*
X0045863Y0124692D02*
X0043412Y0124692D01*
X0043365Y0124711D02*
X0041962Y0124711D01*
X0040667Y0124175D01*
X0039675Y0123183D01*
X0039138Y0121887D01*
X0039138Y0120485D01*
X0039675Y0119190D01*
X0040667Y0118198D01*
X0041962Y0117661D01*
X0043365Y0117661D01*
X0044660Y0118198D01*
X0045652Y0119190D01*
X0046188Y0120485D01*
X0046188Y0121887D01*
X0045652Y0123183D01*
X0044660Y0124175D01*
X0043365Y0124711D01*
X0041915Y0124692D02*
X0038863Y0124692D01*
X0038863Y0125290D02*
X0045863Y0125290D01*
X0045863Y0125889D02*
X0038863Y0125889D01*
X0038863Y0126487D02*
X0045863Y0126487D01*
X0045863Y0127086D02*
X0038863Y0127086D01*
X0038863Y0127684D02*
X0041907Y0127684D01*
X0040582Y0128283D02*
X0038863Y0128283D01*
X0038863Y0128881D02*
X0039984Y0128881D01*
X0039555Y0129480D02*
X0038863Y0129480D01*
X0038863Y0130078D02*
X0039307Y0130078D01*
X0039138Y0130677D02*
X0038863Y0130677D01*
X0038863Y0131275D02*
X0039138Y0131275D01*
X0039138Y0131874D02*
X0038863Y0131874D01*
X0038863Y0132472D02*
X0039381Y0132472D01*
X0039629Y0133071D02*
X0038863Y0133071D01*
X0038863Y0133669D02*
X0040161Y0133669D01*
X0040891Y0134268D02*
X0038863Y0134268D01*
X0038863Y0134866D02*
X0041127Y0134866D01*
X0040673Y0135465D02*
X0038863Y0135465D01*
X0038863Y0136063D02*
X0040673Y0136063D01*
X0040673Y0136662D02*
X0038863Y0136662D01*
X0038863Y0137260D02*
X0040881Y0137260D01*
X0041479Y0137859D02*
X0038863Y0137859D01*
X0038863Y0138457D02*
X0040407Y0138457D01*
X0039809Y0139056D02*
X0038863Y0139056D01*
X0038863Y0139654D02*
X0039483Y0139654D01*
X0039235Y0140253D02*
X0038863Y0140253D01*
X0038863Y0140851D02*
X0039138Y0140851D01*
X0039138Y0141450D02*
X0038863Y0141450D01*
X0038863Y0142048D02*
X0039205Y0142048D01*
X0039453Y0142647D02*
X0038863Y0142647D01*
X0038863Y0143245D02*
X0039737Y0143245D01*
X0040336Y0143844D02*
X0038863Y0143844D01*
X0038863Y0144442D02*
X0041313Y0144442D01*
X0038863Y0145041D02*
X0046363Y0145041D01*
X0046363Y0145639D02*
X0038863Y0145639D01*
X0038863Y0146238D02*
X0045773Y0146238D01*
X0045175Y0146836D02*
X0038863Y0146836D01*
X0044014Y0144442D02*
X0046363Y0144442D01*
X0046363Y0143844D02*
X0044991Y0143844D01*
X0045589Y0143245D02*
X0046363Y0143245D01*
X0046363Y0142647D02*
X0045874Y0142647D01*
X0046122Y0142048D02*
X0046363Y0142048D01*
X0046363Y0141450D02*
X0046188Y0141450D01*
X0046188Y0140851D02*
X0046363Y0140851D01*
X0046363Y0140253D02*
X0046092Y0140253D01*
X0046034Y0139654D02*
X0046363Y0139654D01*
X0051963Y0140253D02*
X0056973Y0140253D01*
X0056973Y0139654D02*
X0052034Y0139654D01*
X0052632Y0139056D02*
X0056973Y0139056D01*
X0057336Y0138457D02*
X0053231Y0138457D01*
X0053829Y0137859D02*
X0056879Y0137859D01*
X0056573Y0137260D02*
X0054428Y0137260D01*
X0054963Y0136662D02*
X0056573Y0136662D01*
X0056573Y0136063D02*
X0054963Y0136063D01*
X0054963Y0135465D02*
X0056929Y0135465D01*
X0057527Y0134866D02*
X0054963Y0134866D01*
X0054963Y0134268D02*
X0058573Y0134268D01*
X0058308Y0133669D02*
X0054963Y0133669D01*
X0054963Y0133071D02*
X0058163Y0133071D01*
X0058163Y0132472D02*
X0054963Y0132472D01*
X0054963Y0131874D02*
X0058163Y0131874D01*
X0058163Y0131275D02*
X0055413Y0131275D01*
X0056012Y0130677D02*
X0058163Y0130677D01*
X0058163Y0130078D02*
X0056610Y0130078D01*
X0057209Y0129480D02*
X0058163Y0129480D01*
X0057807Y0128881D02*
X0058530Y0128881D01*
X0058925Y0128486D02*
X0058925Y0128486D01*
X0059129Y0128283D02*
X0058406Y0128283D01*
X0058963Y0127684D02*
X0059727Y0127684D01*
X0060326Y0127086D02*
X0058963Y0127086D01*
X0058963Y0126487D02*
X0060924Y0126487D01*
X0061523Y0125889D02*
X0058963Y0125889D01*
X0058963Y0125290D02*
X0062121Y0125290D01*
X0062363Y0124692D02*
X0058963Y0124692D01*
X0058963Y0124093D02*
X0062363Y0124093D01*
X0062363Y0123495D02*
X0058963Y0123495D01*
X0058963Y0122896D02*
X0062363Y0122896D01*
X0062363Y0122298D02*
X0058963Y0122298D01*
X0058963Y0121699D02*
X0062363Y0121699D01*
X0062363Y0121101D02*
X0058963Y0121101D01*
X0058963Y0120502D02*
X0062363Y0120502D01*
X0062363Y0119903D02*
X0058963Y0119903D01*
X0058963Y0119305D02*
X0062363Y0119305D01*
X0062363Y0118706D02*
X0058963Y0118706D01*
X0059080Y0118108D02*
X0062363Y0118108D01*
X0062363Y0117509D02*
X0059679Y0117509D01*
X0053363Y0119305D02*
X0053239Y0119305D01*
X0046463Y0119305D02*
X0045700Y0119305D01*
X0045948Y0119903D02*
X0046463Y0119903D01*
X0046463Y0120502D02*
X0046188Y0120502D01*
X0046188Y0121101D02*
X0046463Y0121101D01*
X0046463Y0121699D02*
X0046188Y0121699D01*
X0046019Y0122298D02*
X0046463Y0122298D01*
X0046415Y0122896D02*
X0045771Y0122896D01*
X0045863Y0123495D02*
X0045340Y0123495D01*
X0045863Y0124093D02*
X0044742Y0124093D01*
X0040585Y0124093D02*
X0038863Y0124093D01*
X0038863Y0123495D02*
X0039987Y0123495D01*
X0039556Y0122896D02*
X0038863Y0122896D01*
X0038863Y0122298D02*
X0039308Y0122298D01*
X0039138Y0121699D02*
X0038863Y0121699D01*
X0038863Y0121101D02*
X0039138Y0121101D01*
X0039138Y0120502D02*
X0038863Y0120502D01*
X0038863Y0119903D02*
X0039379Y0119903D01*
X0039627Y0119305D02*
X0038863Y0119305D01*
X0038863Y0118706D02*
X0040158Y0118706D01*
X0040884Y0118108D02*
X0038863Y0118108D01*
X0038863Y0117509D02*
X0046463Y0117509D01*
X0046463Y0116911D02*
X0038863Y0116911D01*
X0038863Y0116312D02*
X0046463Y0116312D01*
X0046463Y0115714D02*
X0038863Y0115714D01*
X0044443Y0118108D02*
X0046463Y0118108D01*
X0046463Y0118706D02*
X0045169Y0118706D01*
X0045863Y0127684D02*
X0043420Y0127684D01*
X0044745Y0128283D02*
X0045863Y0128283D01*
X0045863Y0128881D02*
X0045343Y0128881D01*
X0045772Y0129480D02*
X0045863Y0129480D01*
X0067963Y0117509D02*
X0068330Y0117509D01*
X0066142Y0100751D02*
X0065185Y0100751D01*
X0067949Y0098357D02*
X0069363Y0098357D01*
X0069363Y0097759D02*
X0068548Y0097759D01*
X0068754Y0097160D02*
X0068799Y0097160D01*
X0070301Y0086985D02*
X0070573Y0086985D01*
X0071006Y0086387D02*
X0061202Y0086387D01*
X0060604Y0085788D02*
X0071605Y0085788D01*
X0073722Y0085788D02*
X0073864Y0085788D01*
X0074463Y0085190D02*
X0060005Y0085190D01*
X0059407Y0084591D02*
X0075061Y0084591D01*
X0075660Y0083993D02*
X0058808Y0083993D01*
X0058210Y0083394D02*
X0076258Y0083394D01*
X0076563Y0082796D02*
X0057611Y0082796D01*
X0057013Y0082197D02*
X0076563Y0082197D01*
X0076563Y0081599D02*
X0056414Y0081599D01*
X0055816Y0081000D02*
X0076563Y0081000D01*
X0076563Y0080402D02*
X0055217Y0080402D01*
X0054619Y0079803D02*
X0072524Y0079803D01*
X0072898Y0080177D02*
X0071673Y0078952D01*
X0071673Y0077220D01*
X0072898Y0075996D01*
X0074629Y0075996D01*
X0075854Y0077220D01*
X0075854Y0078952D01*
X0074629Y0080177D01*
X0072898Y0080177D01*
X0071925Y0079205D02*
X0054020Y0079205D01*
X0053463Y0078606D02*
X0071673Y0078606D01*
X0071673Y0078008D02*
X0053463Y0078008D01*
X0053463Y0077409D02*
X0071673Y0077409D01*
X0072083Y0076811D02*
X0053463Y0076811D01*
X0053463Y0076212D02*
X0072681Y0076212D01*
X0074846Y0076212D02*
X0076563Y0076212D01*
X0076563Y0075614D02*
X0053463Y0075614D01*
X0053463Y0075015D02*
X0076563Y0075015D01*
X0076563Y0074417D02*
X0053463Y0074417D01*
X0053463Y0073818D02*
X0076563Y0073818D01*
X0076563Y0073220D02*
X0053463Y0073220D01*
X0053463Y0072621D02*
X0076563Y0072621D01*
X0076563Y0072023D02*
X0053463Y0072023D01*
X0053463Y0071424D02*
X0076563Y0071424D01*
X0076563Y0070826D02*
X0053463Y0070826D01*
X0053463Y0070227D02*
X0076563Y0070227D01*
X0076563Y0069629D02*
X0053463Y0069629D01*
X0053463Y0069030D02*
X0076563Y0069030D01*
X0076563Y0068432D02*
X0053463Y0068432D01*
X0053463Y0067833D02*
X0076563Y0067833D01*
X0076563Y0067234D02*
X0053463Y0067234D01*
X0053463Y0066636D02*
X0076563Y0066636D01*
X0076563Y0066037D02*
X0053463Y0066037D01*
X0053463Y0065439D02*
X0076563Y0065439D01*
X0076563Y0064840D02*
X0053463Y0064840D01*
X0053463Y0064242D02*
X0076563Y0064242D01*
X0076563Y0063643D02*
X0053463Y0063643D01*
X0053463Y0063045D02*
X0076563Y0063045D01*
X0076563Y0062446D02*
X0053463Y0062446D01*
X0053463Y0061848D02*
X0076863Y0061848D01*
X0077462Y0061249D02*
X0053463Y0061249D01*
X0053463Y0060651D02*
X0078060Y0060651D01*
X0078659Y0060052D02*
X0053463Y0060052D01*
X0053463Y0059454D02*
X0079257Y0059454D01*
X0079856Y0058855D02*
X0053463Y0058855D01*
X0053463Y0058257D02*
X0101863Y0058257D01*
X0101863Y0058855D02*
X0085771Y0058855D01*
X0087487Y0059454D02*
X0101863Y0059454D01*
X0101863Y0060052D02*
X0088086Y0060052D01*
X0088554Y0060651D02*
X0101863Y0060651D01*
X0101863Y0061249D02*
X0088554Y0061249D01*
X0088554Y0061848D02*
X0101863Y0061848D01*
X0101863Y0062446D02*
X0088360Y0062446D01*
X0087761Y0063045D02*
X0101863Y0063045D01*
X0101863Y0063643D02*
X0079163Y0063643D01*
X0079163Y0064242D02*
X0097451Y0064242D01*
X0096853Y0064840D02*
X0083874Y0064840D01*
X0083529Y0064496D02*
X0084754Y0065720D01*
X0084754Y0067452D01*
X0084370Y0067836D01*
X0085554Y0069020D01*
X0085554Y0070752D01*
X0084329Y0071977D01*
X0082598Y0071977D01*
X0081373Y0070752D01*
X0081373Y0069020D01*
X0081757Y0068636D01*
X0080573Y0067452D01*
X0080573Y0065720D01*
X0081798Y0064496D01*
X0083529Y0064496D01*
X0084473Y0065439D02*
X0096373Y0065439D01*
X0096373Y0066037D02*
X0089671Y0066037D01*
X0089229Y0065596D02*
X0090454Y0066820D01*
X0090454Y0068552D01*
X0089229Y0069777D01*
X0087498Y0069777D01*
X0086273Y0068552D01*
X0086273Y0066820D01*
X0087498Y0065596D01*
X0089229Y0065596D01*
X0090270Y0066636D02*
X0096373Y0066636D01*
X0096555Y0067234D02*
X0090454Y0067234D01*
X0090454Y0067833D02*
X0097154Y0067833D01*
X0098870Y0068432D02*
X0090454Y0068432D01*
X0089976Y0069030D02*
X0099469Y0069030D01*
X0100067Y0069629D02*
X0096062Y0069629D01*
X0096029Y0069596D02*
X0097254Y0070820D01*
X0097254Y0072552D01*
X0096029Y0073777D01*
X0094298Y0073777D01*
X0093073Y0072552D01*
X0093073Y0070820D01*
X0094298Y0069596D01*
X0096029Y0069596D01*
X0096661Y0070227D02*
X0100363Y0070227D01*
X0100363Y0070826D02*
X0097254Y0070826D01*
X0097254Y0071424D02*
X0100363Y0071424D01*
X0100363Y0072023D02*
X0097254Y0072023D01*
X0097185Y0072621D02*
X0100363Y0072621D01*
X0100363Y0073220D02*
X0096587Y0073220D01*
X0096229Y0075496D02*
X0094498Y0075496D01*
X0093273Y0076720D01*
X0093273Y0078452D01*
X0094498Y0079677D01*
X0096229Y0079677D01*
X0097454Y0078452D01*
X0097454Y0076720D01*
X0096229Y0075496D01*
X0096347Y0075614D02*
X0100363Y0075614D01*
X0100363Y0076212D02*
X0096946Y0076212D01*
X0097454Y0076811D02*
X0100363Y0076811D01*
X0100363Y0077409D02*
X0097454Y0077409D01*
X0097454Y0078008D02*
X0100363Y0078008D01*
X0100205Y0078606D02*
X0097300Y0078606D01*
X0096702Y0079205D02*
X0099607Y0079205D01*
X0100363Y0075015D02*
X0092291Y0075015D01*
X0092554Y0074752D02*
X0091329Y0075977D01*
X0089598Y0075977D01*
X0088373Y0074752D01*
X0088373Y0073020D01*
X0089598Y0071796D01*
X0091329Y0071796D01*
X0092554Y0073020D01*
X0092554Y0074752D01*
X0092554Y0074417D02*
X0100363Y0074417D01*
X0100363Y0073818D02*
X0092554Y0073818D01*
X0092554Y0073220D02*
X0093740Y0073220D01*
X0093142Y0072621D02*
X0092155Y0072621D01*
X0091556Y0072023D02*
X0093073Y0072023D01*
X0093073Y0071424D02*
X0084882Y0071424D01*
X0085481Y0070826D02*
X0093073Y0070826D01*
X0093666Y0070227D02*
X0085554Y0070227D01*
X0085554Y0069629D02*
X0087349Y0069629D01*
X0086751Y0069030D02*
X0085554Y0069030D01*
X0084965Y0068432D02*
X0086273Y0068432D01*
X0086273Y0067833D02*
X0084373Y0067833D01*
X0084754Y0067234D02*
X0086273Y0067234D01*
X0086457Y0066636D02*
X0084754Y0066636D01*
X0084754Y0066037D02*
X0087056Y0066037D01*
X0085166Y0063045D02*
X0079343Y0063045D01*
X0079942Y0062446D02*
X0084567Y0062446D01*
X0084373Y0061848D02*
X0080540Y0061848D01*
X0081139Y0061249D02*
X0084373Y0061249D01*
X0081453Y0064840D02*
X0079163Y0064840D01*
X0079163Y0065439D02*
X0080854Y0065439D01*
X0080573Y0066037D02*
X0079163Y0066037D01*
X0079163Y0066636D02*
X0080573Y0066636D01*
X0080573Y0067234D02*
X0079163Y0067234D01*
X0079163Y0067833D02*
X0080954Y0067833D01*
X0081552Y0068432D02*
X0079163Y0068432D01*
X0079163Y0069030D02*
X0081373Y0069030D01*
X0081373Y0069629D02*
X0079163Y0069629D01*
X0079163Y0070227D02*
X0081373Y0070227D01*
X0081446Y0070826D02*
X0079163Y0070826D01*
X0079163Y0071424D02*
X0082045Y0071424D01*
X0079163Y0072023D02*
X0089371Y0072023D01*
X0088772Y0072621D02*
X0079163Y0072621D01*
X0079163Y0073220D02*
X0088373Y0073220D01*
X0088373Y0073818D02*
X0079163Y0073818D01*
X0079163Y0074417D02*
X0088373Y0074417D01*
X0088636Y0075015D02*
X0079163Y0075015D01*
X0079163Y0075614D02*
X0089234Y0075614D01*
X0091693Y0075614D02*
X0094380Y0075614D01*
X0093781Y0076212D02*
X0079163Y0076212D01*
X0079163Y0076811D02*
X0093273Y0076811D01*
X0093273Y0077409D02*
X0079163Y0077409D01*
X0079163Y0078008D02*
X0093273Y0078008D01*
X0093427Y0078606D02*
X0079163Y0078606D01*
X0079163Y0079205D02*
X0094025Y0079205D01*
X0104900Y0085788D02*
X0116463Y0085788D01*
X0116463Y0085190D02*
X0105498Y0085190D01*
X0106097Y0084591D02*
X0111673Y0084591D01*
X0111962Y0084711D02*
X0110667Y0084175D01*
X0109675Y0083183D01*
X0109138Y0081888D01*
X0109138Y0080485D01*
X0109675Y0079190D01*
X0110667Y0078198D01*
X0111962Y0077661D01*
X0113365Y0077661D01*
X0114660Y0078198D01*
X0115652Y0079190D01*
X0116188Y0080485D01*
X0116188Y0081888D01*
X0115652Y0083183D01*
X0114660Y0084175D01*
X0113365Y0084711D01*
X0111962Y0084711D01*
X0110485Y0083993D02*
X0106695Y0083993D01*
X0107294Y0083394D02*
X0109886Y0083394D01*
X0109515Y0082796D02*
X0107892Y0082796D01*
X0108491Y0082197D02*
X0109267Y0082197D01*
X0109138Y0081599D02*
X0108963Y0081599D01*
X0108963Y0081000D02*
X0109138Y0081000D01*
X0109173Y0080402D02*
X0108963Y0080402D01*
X0108963Y0079803D02*
X0109421Y0079803D01*
X0109669Y0079205D02*
X0108963Y0079205D01*
X0108963Y0078606D02*
X0110259Y0078606D01*
X0111126Y0078008D02*
X0108963Y0078008D01*
X0108963Y0077409D02*
X0116463Y0077409D01*
X0116463Y0076811D02*
X0108963Y0076811D01*
X0108963Y0076212D02*
X0116463Y0076212D01*
X0116463Y0075614D02*
X0108963Y0075614D01*
X0108963Y0075015D02*
X0116463Y0075015D01*
X0116463Y0074417D02*
X0114076Y0074417D01*
X0114660Y0074175D02*
X0113365Y0074711D01*
X0111962Y0074711D01*
X0110667Y0074175D01*
X0109675Y0073183D01*
X0109138Y0071888D01*
X0109138Y0070485D01*
X0109675Y0069190D01*
X0110667Y0068198D01*
X0111962Y0067661D01*
X0113365Y0067661D01*
X0114660Y0068198D01*
X0115652Y0069190D01*
X0116188Y0070485D01*
X0116188Y0071888D01*
X0115652Y0073183D01*
X0114660Y0074175D01*
X0115017Y0073818D02*
X0116463Y0073818D01*
X0116463Y0073220D02*
X0115615Y0073220D01*
X0115885Y0072621D02*
X0116463Y0072621D01*
X0116463Y0072023D02*
X0116133Y0072023D01*
X0116188Y0071424D02*
X0116463Y0071424D01*
X0116463Y0070826D02*
X0116188Y0070826D01*
X0116082Y0070227D02*
X0116463Y0070227D01*
X0116463Y0069629D02*
X0115834Y0069629D01*
X0115492Y0069030D02*
X0116463Y0069030D01*
X0116463Y0068432D02*
X0114894Y0068432D01*
X0113779Y0067833D02*
X0116463Y0067833D01*
X0116463Y0067234D02*
X0108963Y0067234D01*
X0108963Y0066636D02*
X0116463Y0066636D01*
X0116463Y0066037D02*
X0108963Y0066037D01*
X0108963Y0065439D02*
X0116463Y0065439D01*
X0116463Y0064840D02*
X0108963Y0064840D01*
X0108963Y0064242D02*
X0110829Y0064242D01*
X0110667Y0064175D02*
X0109675Y0063183D01*
X0109138Y0061887D01*
X0109138Y0060485D01*
X0109675Y0059190D01*
X0110667Y0058198D01*
X0111962Y0057661D01*
X0113365Y0057661D01*
X0114660Y0058198D01*
X0115652Y0059190D01*
X0116188Y0060485D01*
X0116188Y0061887D01*
X0115652Y0063183D01*
X0114660Y0064175D01*
X0113365Y0064711D01*
X0111962Y0064711D01*
X0110667Y0064175D01*
X0110135Y0063643D02*
X0108963Y0063643D01*
X0108963Y0063045D02*
X0109618Y0063045D01*
X0109370Y0062446D02*
X0108963Y0062446D01*
X0108963Y0061848D02*
X0109138Y0061848D01*
X0109138Y0061249D02*
X0108963Y0061249D01*
X0108963Y0060651D02*
X0109138Y0060651D01*
X0108963Y0060052D02*
X0109318Y0060052D01*
X0109566Y0059454D02*
X0108963Y0059454D01*
X0108963Y0058855D02*
X0110009Y0058855D01*
X0110608Y0058257D02*
X0108963Y0058257D01*
X0108963Y0057658D02*
X0116463Y0057658D01*
X0116463Y0057060D02*
X0108963Y0057060D01*
X0109227Y0056461D02*
X0116463Y0056461D01*
X0116463Y0055863D02*
X0109825Y0055863D01*
X0110424Y0055264D02*
X0116463Y0055264D01*
X0116463Y0054666D02*
X0113475Y0054666D01*
X0114768Y0054067D02*
X0116463Y0054067D01*
X0116463Y0053469D02*
X0115366Y0053469D01*
X0115781Y0052870D02*
X0116463Y0052870D01*
X0116463Y0052272D02*
X0116029Y0052272D01*
X0116188Y0051673D02*
X0116463Y0051673D01*
X0116463Y0051075D02*
X0116188Y0051075D01*
X0116185Y0050476D02*
X0116463Y0050476D01*
X0116463Y0049878D02*
X0115937Y0049878D01*
X0115689Y0049279D02*
X0116463Y0049279D01*
X0116463Y0048681D02*
X0115143Y0048681D01*
X0114380Y0048082D02*
X0116463Y0048082D01*
X0116463Y0047484D02*
X0108205Y0047484D01*
X0107606Y0048082D02*
X0110946Y0048082D01*
X0110184Y0048681D02*
X0107463Y0048681D01*
X0107463Y0049279D02*
X0109638Y0049279D01*
X0109390Y0049878D02*
X0107463Y0049878D01*
X0107463Y0050476D02*
X0109142Y0050476D01*
X0109138Y0051075D02*
X0107463Y0051075D01*
X0107463Y0051673D02*
X0109138Y0051673D01*
X0109298Y0052272D02*
X0107463Y0052272D01*
X0107463Y0052870D02*
X0109141Y0052870D01*
X0108543Y0053469D02*
X0107463Y0053469D01*
X0107463Y0054067D02*
X0107944Y0054067D01*
X0111023Y0054666D02*
X0111852Y0054666D01*
X0114719Y0058257D02*
X0116463Y0058257D01*
X0116463Y0058855D02*
X0115318Y0058855D01*
X0115761Y0059454D02*
X0116463Y0059454D01*
X0116463Y0060052D02*
X0116009Y0060052D01*
X0116188Y0060651D02*
X0116463Y0060651D01*
X0116463Y0061249D02*
X0116188Y0061249D01*
X0116188Y0061848D02*
X0116463Y0061848D01*
X0116463Y0062446D02*
X0115957Y0062446D01*
X0115709Y0063045D02*
X0116463Y0063045D01*
X0116463Y0063643D02*
X0115191Y0063643D01*
X0114498Y0064242D02*
X0116463Y0064242D01*
X0111548Y0067833D02*
X0108963Y0067833D01*
X0108963Y0068432D02*
X0110433Y0068432D01*
X0109835Y0069030D02*
X0108963Y0069030D01*
X0108963Y0069629D02*
X0109493Y0069629D01*
X0109245Y0070227D02*
X0108963Y0070227D01*
X0108963Y0070826D02*
X0109138Y0070826D01*
X0109138Y0071424D02*
X0108963Y0071424D01*
X0108963Y0072023D02*
X0109194Y0072023D01*
X0108963Y0072621D02*
X0109442Y0072621D01*
X0109712Y0073220D02*
X0108963Y0073220D01*
X0108963Y0073818D02*
X0110310Y0073818D01*
X0111251Y0074417D02*
X0108963Y0074417D01*
X0114201Y0078008D02*
X0116463Y0078008D01*
X0116463Y0078606D02*
X0115068Y0078606D01*
X0115658Y0079205D02*
X0116463Y0079205D01*
X0116463Y0079803D02*
X0115906Y0079803D01*
X0116154Y0080402D02*
X0116463Y0080402D01*
X0116463Y0081000D02*
X0116188Y0081000D01*
X0116188Y0081599D02*
X0116463Y0081599D01*
X0116463Y0082197D02*
X0116060Y0082197D01*
X0115812Y0082796D02*
X0116463Y0082796D01*
X0116463Y0083394D02*
X0115441Y0083394D01*
X0114842Y0083993D02*
X0116463Y0083993D01*
X0116463Y0084591D02*
X0113654Y0084591D01*
X0116463Y0086387D02*
X0104301Y0086387D01*
X0103703Y0086985D02*
X0116463Y0086985D01*
X0094265Y0069629D02*
X0089378Y0069629D01*
X0099476Y0064242D02*
X0101863Y0064242D01*
X0101863Y0064840D02*
X0100074Y0064840D01*
X0100554Y0065439D02*
X0101863Y0065439D01*
X0101863Y0066037D02*
X0100554Y0066037D01*
X0100752Y0066636D02*
X0101863Y0066636D01*
X0101863Y0067234D02*
X0101350Y0067234D01*
X0101863Y0057658D02*
X0053463Y0057658D01*
X0053463Y0057060D02*
X0101863Y0057060D01*
X0101863Y0056461D02*
X0053463Y0056461D01*
X0053463Y0055863D02*
X0101863Y0055863D01*
X0101863Y0055264D02*
X0053463Y0055264D01*
X0053463Y0054666D02*
X0101863Y0054666D01*
X0101863Y0054067D02*
X0053463Y0054067D01*
X0053463Y0053469D02*
X0101863Y0053469D01*
X0101863Y0052870D02*
X0053463Y0052870D01*
X0053463Y0052272D02*
X0101863Y0052272D01*
X0101863Y0051673D02*
X0080633Y0051673D01*
X0080529Y0051777D02*
X0078798Y0051777D01*
X0077573Y0050552D01*
X0077573Y0048820D01*
X0078798Y0047596D01*
X0080529Y0047596D01*
X0081754Y0048820D01*
X0081754Y0050552D01*
X0080529Y0051777D01*
X0081232Y0051075D02*
X0084395Y0051075D01*
X0084698Y0051377D02*
X0083473Y0050152D01*
X0083473Y0048420D01*
X0084698Y0047196D01*
X0086429Y0047196D01*
X0087654Y0048420D01*
X0087654Y0050152D01*
X0086429Y0051377D01*
X0084698Y0051377D01*
X0083797Y0050476D02*
X0081754Y0050476D01*
X0081754Y0049878D02*
X0083473Y0049878D01*
X0083473Y0049279D02*
X0081754Y0049279D01*
X0081614Y0048681D02*
X0083473Y0048681D01*
X0083811Y0048082D02*
X0081016Y0048082D01*
X0079254Y0046552D02*
X0078029Y0047777D01*
X0076298Y0047777D01*
X0075073Y0046552D01*
X0075073Y0044820D01*
X0076298Y0043596D01*
X0078029Y0043596D01*
X0079254Y0044820D01*
X0079254Y0046552D01*
X0079254Y0046287D02*
X0101863Y0046287D01*
X0101863Y0046885D02*
X0078921Y0046885D01*
X0078323Y0047484D02*
X0084410Y0047484D01*
X0086717Y0047484D02*
X0101863Y0047484D01*
X0101863Y0048082D02*
X0087316Y0048082D01*
X0087654Y0048681D02*
X0101863Y0048681D01*
X0101863Y0049279D02*
X0087654Y0049279D01*
X0087654Y0049878D02*
X0101863Y0049878D01*
X0101863Y0050476D02*
X0087330Y0050476D01*
X0086732Y0051075D02*
X0101863Y0051075D01*
X0101863Y0045688D02*
X0079254Y0045688D01*
X0079254Y0045090D02*
X0101863Y0045090D01*
X0101863Y0044491D02*
X0078925Y0044491D01*
X0078326Y0043893D02*
X0101863Y0043893D01*
X0101863Y0043294D02*
X0053463Y0043294D01*
X0053463Y0042696D02*
X0101863Y0042696D01*
X0101863Y0042097D02*
X0053463Y0042097D01*
X0053463Y0041498D02*
X0101863Y0041498D01*
X0101863Y0040900D02*
X0053463Y0040900D01*
X0053463Y0040301D02*
X0101863Y0040301D01*
X0101863Y0039703D02*
X0053463Y0039703D01*
X0053463Y0039104D02*
X0101863Y0039104D01*
X0101863Y0038506D02*
X0053463Y0038506D01*
X0053463Y0037907D02*
X0101863Y0037907D01*
X0101863Y0037309D02*
X0053463Y0037309D01*
X0053463Y0036710D02*
X0101863Y0036710D01*
X0101863Y0036112D02*
X0053463Y0036112D01*
X0053463Y0035513D02*
X0101863Y0035513D01*
X0101863Y0034915D02*
X0053463Y0034915D01*
X0053463Y0034316D02*
X0101863Y0034316D01*
X0101863Y0033718D02*
X0053463Y0033718D01*
X0053463Y0033119D02*
X0101863Y0033119D01*
X0101863Y0032521D02*
X0053463Y0032521D01*
X0053463Y0031922D02*
X0101863Y0031922D01*
X0101863Y0031324D02*
X0053139Y0031324D01*
X0052541Y0030725D02*
X0101863Y0030725D01*
X0101885Y0030127D02*
X0051942Y0030127D01*
X0051344Y0029528D02*
X0102483Y0029528D01*
X0103082Y0028930D02*
X0050745Y0028930D01*
X0050147Y0028331D02*
X0103680Y0028331D01*
X0104279Y0027733D02*
X0051574Y0027733D01*
X0052172Y0027134D02*
X0104877Y0027134D01*
X0105476Y0026536D02*
X0052271Y0026536D01*
X0052869Y0025937D02*
X0106074Y0025937D01*
X0106673Y0025339D02*
X0053254Y0025339D01*
X0053254Y0024740D02*
X0107271Y0024740D01*
X0107870Y0024142D02*
X0053254Y0024142D01*
X0052977Y0023543D02*
X0108468Y0023543D01*
X0109067Y0022945D02*
X0052378Y0022945D01*
X0052254Y0022346D02*
X0109328Y0022346D01*
X0109138Y0021748D02*
X0051681Y0021748D01*
X0051083Y0021149D02*
X0109138Y0021149D01*
X0109138Y0020551D02*
X0046188Y0020551D01*
X0046188Y0021149D02*
X0049244Y0021149D01*
X0048646Y0021748D02*
X0046188Y0021748D01*
X0045998Y0022346D02*
X0048073Y0022346D01*
X0047949Y0022945D02*
X0045751Y0022945D01*
X0045359Y0023543D02*
X0047350Y0023543D01*
X0047073Y0024142D02*
X0045957Y0024142D01*
X0046556Y0024740D02*
X0047073Y0024740D01*
X0045273Y0027134D02*
X0038863Y0027134D01*
X0038863Y0026536D02*
X0044674Y0026536D01*
X0044076Y0025937D02*
X0038863Y0025937D01*
X0038863Y0025339D02*
X0043477Y0025339D01*
X0042879Y0024740D02*
X0038863Y0024740D01*
X0038863Y0024142D02*
X0040634Y0024142D01*
X0040035Y0023543D02*
X0038863Y0023543D01*
X0038863Y0022945D02*
X0039576Y0022945D01*
X0039328Y0022346D02*
X0038863Y0022346D01*
X0038863Y0021748D02*
X0039138Y0021748D01*
X0039138Y0021149D02*
X0038863Y0021149D01*
X0038863Y0020551D02*
X0039138Y0020551D01*
X0039359Y0019952D02*
X0038863Y0019952D01*
X0038863Y0019354D02*
X0039607Y0019354D01*
X0040110Y0018755D02*
X0038863Y0018755D01*
X0038863Y0018157D02*
X0040767Y0018157D01*
X0038863Y0017558D02*
X0099316Y0017558D01*
X0099118Y0017079D02*
X0099525Y0018061D01*
X0100276Y0018813D01*
X0101258Y0019219D01*
X0102321Y0019219D01*
X0103303Y0018813D01*
X0104054Y0018061D01*
X0104461Y0017079D01*
X0104461Y0016016D01*
X0104054Y0015034D01*
X0103303Y0014283D01*
X0102321Y0013876D01*
X0101258Y0013876D01*
X0100276Y0014283D01*
X0099525Y0015034D01*
X0099118Y0016016D01*
X0099118Y0017079D01*
X0099118Y0016960D02*
X0038863Y0016960D01*
X0038918Y0016361D02*
X0099118Y0016361D01*
X0099223Y0015763D02*
X0039217Y0015763D01*
X0039516Y0015164D02*
X0099471Y0015164D01*
X0099993Y0014565D02*
X0039816Y0014565D01*
X0040115Y0013967D02*
X0101039Y0013967D01*
X0102540Y0013967D02*
X0115212Y0013967D01*
X0114913Y0013368D02*
X0040414Y0013368D01*
X0040713Y0012770D02*
X0114614Y0012770D01*
X0114314Y0012171D02*
X0100135Y0012171D01*
X0100029Y0012277D02*
X0098298Y0012277D01*
X0097073Y0011052D01*
X0097073Y0009320D01*
X0098298Y0008096D01*
X0100029Y0008096D01*
X0101254Y0009320D01*
X0101254Y0011052D01*
X0100029Y0012277D01*
X0100733Y0011573D02*
X0114015Y0011573D01*
X0113716Y0010974D02*
X0101254Y0010974D01*
X0101254Y0010376D02*
X0113417Y0010376D01*
X0113117Y0009777D02*
X0101254Y0009777D01*
X0101113Y0009179D02*
X0112818Y0009179D01*
X0112519Y0008580D02*
X0100514Y0008580D01*
X0097813Y0008580D02*
X0090514Y0008580D01*
X0090029Y0008096D02*
X0091254Y0009320D01*
X0091254Y0011052D01*
X0090029Y0012277D01*
X0088298Y0012277D01*
X0087073Y0011052D01*
X0087073Y0009320D01*
X0088298Y0008096D01*
X0090029Y0008096D01*
X0091113Y0009179D02*
X0097214Y0009179D01*
X0097073Y0009777D02*
X0091254Y0009777D01*
X0091254Y0010376D02*
X0097073Y0010376D01*
X0097073Y0010974D02*
X0091254Y0010974D01*
X0090733Y0011573D02*
X0097594Y0011573D01*
X0098192Y0012171D02*
X0090135Y0012171D01*
X0088192Y0012171D02*
X0080135Y0012171D01*
X0080029Y0012277D02*
X0078298Y0012277D01*
X0077073Y0011052D01*
X0077073Y0009320D01*
X0078298Y0008096D01*
X0080029Y0008096D01*
X0081254Y0009320D01*
X0081254Y0011052D01*
X0080029Y0012277D01*
X0080733Y0011573D02*
X0087594Y0011573D01*
X0087073Y0010974D02*
X0081254Y0010974D01*
X0081254Y0010376D02*
X0087073Y0010376D01*
X0087073Y0009777D02*
X0081254Y0009777D01*
X0081113Y0009179D02*
X0087214Y0009179D01*
X0087813Y0008580D02*
X0080514Y0008580D01*
X0077813Y0008580D02*
X0042808Y0008580D01*
X0043107Y0007982D02*
X0112220Y0007982D01*
X0115511Y0014565D02*
X0103585Y0014565D01*
X0104108Y0015164D02*
X0115811Y0015164D01*
X0116110Y0015763D02*
X0104356Y0015763D01*
X0104461Y0016361D02*
X0116409Y0016361D01*
X0116463Y0016960D02*
X0104461Y0016960D01*
X0104263Y0017558D02*
X0116463Y0017558D01*
X0116463Y0018157D02*
X0114560Y0018157D01*
X0115217Y0018755D02*
X0116463Y0018755D01*
X0116463Y0019354D02*
X0115720Y0019354D01*
X0115968Y0019952D02*
X0116463Y0019952D01*
X0116463Y0020551D02*
X0116188Y0020551D01*
X0116188Y0021149D02*
X0116463Y0021149D01*
X0116463Y0021748D02*
X0116188Y0021748D01*
X0115998Y0022346D02*
X0116463Y0022346D01*
X0116463Y0022945D02*
X0115751Y0022945D01*
X0115292Y0023543D02*
X0116463Y0023543D01*
X0116463Y0024142D02*
X0114693Y0024142D01*
X0116463Y0024740D02*
X0110948Y0024740D01*
X0110350Y0025339D02*
X0116463Y0025339D01*
X0116463Y0025937D02*
X0109751Y0025937D01*
X0109153Y0026536D02*
X0116463Y0026536D01*
X0116463Y0027134D02*
X0108554Y0027134D01*
X0107956Y0027733D02*
X0111790Y0027733D01*
X0110533Y0028331D02*
X0107357Y0028331D01*
X0106759Y0028930D02*
X0109935Y0028930D01*
X0109535Y0029528D02*
X0106160Y0029528D01*
X0105561Y0030127D02*
X0109287Y0030127D01*
X0109138Y0030725D02*
X0104963Y0030725D01*
X0104463Y0031324D02*
X0109138Y0031324D01*
X0109153Y0031922D02*
X0104463Y0031922D01*
X0104463Y0032521D02*
X0109401Y0032521D01*
X0108892Y0033119D02*
X0104463Y0033119D01*
X0104463Y0033718D02*
X0108293Y0033718D01*
X0107695Y0034316D02*
X0104463Y0034316D01*
X0104463Y0034915D02*
X0107096Y0034915D01*
X0106498Y0035513D02*
X0104463Y0035513D01*
X0104463Y0036112D02*
X0105899Y0036112D01*
X0105301Y0036710D02*
X0104463Y0036710D01*
X0104463Y0037309D02*
X0104702Y0037309D01*
X0106584Y0039104D02*
X0109760Y0039104D01*
X0109462Y0039703D02*
X0105985Y0039703D01*
X0105963Y0040301D02*
X0109215Y0040301D01*
X0109138Y0040900D02*
X0105963Y0040900D01*
X0105963Y0041498D02*
X0109138Y0041498D01*
X0109225Y0042097D02*
X0105963Y0042097D01*
X0105963Y0042696D02*
X0109316Y0042696D01*
X0108717Y0043294D02*
X0105963Y0043294D01*
X0105963Y0043893D02*
X0108119Y0043893D01*
X0107520Y0044491D02*
X0105963Y0044491D01*
X0105963Y0045090D02*
X0106922Y0045090D01*
X0106323Y0045688D02*
X0105963Y0045688D01*
X0108803Y0046885D02*
X0116463Y0046885D01*
X0116463Y0046287D02*
X0109402Y0046287D01*
X0110000Y0045688D02*
X0116463Y0045688D01*
X0116463Y0045090D02*
X0110599Y0045090D01*
X0111197Y0044491D02*
X0111431Y0044491D01*
X0113896Y0044491D02*
X0116463Y0044491D01*
X0116463Y0043893D02*
X0114942Y0043893D01*
X0115541Y0043294D02*
X0116463Y0043294D01*
X0116463Y0042696D02*
X0115854Y0042696D01*
X0116102Y0042097D02*
X0116463Y0042097D01*
X0116463Y0041498D02*
X0116188Y0041498D01*
X0116188Y0040900D02*
X0116463Y0040900D01*
X0116463Y0040301D02*
X0116112Y0040301D01*
X0115864Y0039703D02*
X0116463Y0039703D01*
X0116463Y0039104D02*
X0115567Y0039104D01*
X0114968Y0038506D02*
X0116463Y0038506D01*
X0116463Y0037907D02*
X0113959Y0037907D01*
X0116463Y0037309D02*
X0108379Y0037309D01*
X0107781Y0037907D02*
X0111368Y0037907D01*
X0110359Y0038506D02*
X0107182Y0038506D01*
X0108978Y0036710D02*
X0116463Y0036710D01*
X0116463Y0036112D02*
X0109576Y0036112D01*
X0110175Y0035513D02*
X0116463Y0035513D01*
X0116463Y0034915D02*
X0110773Y0034915D01*
X0114318Y0034316D02*
X0116463Y0034316D01*
X0116463Y0033718D02*
X0115117Y0033718D01*
X0115678Y0033119D02*
X0116463Y0033119D01*
X0116463Y0032521D02*
X0115926Y0032521D01*
X0116174Y0031922D02*
X0116463Y0031922D01*
X0116463Y0031324D02*
X0116188Y0031324D01*
X0116188Y0030725D02*
X0116463Y0030725D01*
X0116463Y0030127D02*
X0116040Y0030127D01*
X0115792Y0029528D02*
X0116463Y0029528D01*
X0116463Y0028930D02*
X0115392Y0028930D01*
X0114793Y0028331D02*
X0116463Y0028331D01*
X0116463Y0027733D02*
X0113537Y0027733D01*
X0109359Y0019952D02*
X0045968Y0019952D01*
X0045720Y0019354D02*
X0109607Y0019354D01*
X0110110Y0018755D02*
X0103360Y0018755D01*
X0103959Y0018157D02*
X0110767Y0018157D01*
X0100218Y0018755D02*
X0045217Y0018755D01*
X0044560Y0018157D02*
X0099620Y0018157D01*
X0078192Y0012171D02*
X0041013Y0012171D01*
X0041312Y0011573D02*
X0077594Y0011573D01*
X0077073Y0010974D02*
X0041611Y0010974D01*
X0041910Y0010376D02*
X0077073Y0010376D01*
X0077073Y0009777D02*
X0042210Y0009777D01*
X0042509Y0009179D02*
X0077214Y0009179D01*
X0045871Y0027733D02*
X0043537Y0027733D01*
X0044793Y0028331D02*
X0046470Y0028331D01*
X0047068Y0028930D02*
X0045392Y0028930D01*
X0045792Y0029528D02*
X0047667Y0029528D01*
X0048265Y0030127D02*
X0046040Y0030127D01*
X0046188Y0030725D02*
X0048864Y0030725D01*
X0049462Y0031324D02*
X0046188Y0031324D01*
X0046174Y0031922D02*
X0050061Y0031922D01*
X0050659Y0032521D02*
X0045926Y0032521D01*
X0046435Y0033119D02*
X0050863Y0033119D01*
X0050863Y0033718D02*
X0047033Y0033718D01*
X0047632Y0034316D02*
X0050863Y0034316D01*
X0050863Y0034915D02*
X0048230Y0034915D01*
X0048829Y0035513D02*
X0050863Y0035513D01*
X0050863Y0036112D02*
X0049427Y0036112D01*
X0050026Y0036710D02*
X0050863Y0036710D01*
X0050863Y0037309D02*
X0050625Y0037309D01*
X0048743Y0039104D02*
X0045567Y0039104D01*
X0045864Y0039703D02*
X0049342Y0039703D01*
X0049363Y0040301D02*
X0046112Y0040301D01*
X0046188Y0040900D02*
X0049363Y0040900D01*
X0049363Y0041498D02*
X0046314Y0041498D01*
X0046913Y0042097D02*
X0049363Y0042097D01*
X0049363Y0042696D02*
X0047511Y0042696D01*
X0048110Y0043294D02*
X0049363Y0043294D01*
X0049363Y0043893D02*
X0048708Y0043893D01*
X0049307Y0044491D02*
X0049363Y0044491D01*
X0047425Y0046287D02*
X0038863Y0046287D01*
X0038863Y0046885D02*
X0047863Y0046885D01*
X0047863Y0047484D02*
X0038863Y0047484D01*
X0038863Y0048082D02*
X0040946Y0048082D01*
X0040184Y0048681D02*
X0038863Y0048681D01*
X0038863Y0049279D02*
X0039638Y0049279D01*
X0039390Y0049878D02*
X0038863Y0049878D01*
X0038863Y0050476D02*
X0039142Y0050476D01*
X0039138Y0051075D02*
X0038863Y0051075D01*
X0038863Y0051673D02*
X0039138Y0051673D01*
X0039298Y0052272D02*
X0038863Y0052272D01*
X0038863Y0052870D02*
X0039546Y0052870D01*
X0039961Y0053469D02*
X0038863Y0053469D01*
X0038863Y0054067D02*
X0040559Y0054067D01*
X0041852Y0054666D02*
X0038863Y0054666D01*
X0038863Y0055264D02*
X0044903Y0055264D01*
X0044304Y0054666D02*
X0043475Y0054666D01*
X0045501Y0055863D02*
X0038863Y0055863D01*
X0038863Y0056461D02*
X0046100Y0056461D01*
X0046363Y0057060D02*
X0038863Y0057060D01*
X0038863Y0057658D02*
X0046363Y0057658D01*
X0046363Y0058257D02*
X0044719Y0058257D01*
X0044660Y0058198D02*
X0045652Y0059190D01*
X0046188Y0060485D01*
X0046188Y0061887D01*
X0045652Y0063183D01*
X0044660Y0064175D01*
X0043365Y0064711D01*
X0041962Y0064711D01*
X0040667Y0064175D01*
X0039675Y0063183D01*
X0039138Y0061887D01*
X0039138Y0060485D01*
X0039675Y0059190D01*
X0040667Y0058198D01*
X0041962Y0057661D01*
X0043365Y0057661D01*
X0044660Y0058198D01*
X0045318Y0058855D02*
X0046363Y0058855D01*
X0046363Y0059454D02*
X0045761Y0059454D01*
X0046009Y0060052D02*
X0046363Y0060052D01*
X0046363Y0060651D02*
X0046188Y0060651D01*
X0046188Y0061249D02*
X0046363Y0061249D01*
X0046363Y0061848D02*
X0046188Y0061848D01*
X0046363Y0062446D02*
X0045957Y0062446D01*
X0045709Y0063045D02*
X0046363Y0063045D01*
X0046363Y0063643D02*
X0045191Y0063643D01*
X0044498Y0064242D02*
X0046363Y0064242D01*
X0046363Y0064840D02*
X0038863Y0064840D01*
X0038863Y0064242D02*
X0040829Y0064242D01*
X0040135Y0063643D02*
X0038863Y0063643D01*
X0038863Y0063045D02*
X0039618Y0063045D01*
X0039370Y0062446D02*
X0038863Y0062446D01*
X0038863Y0061848D02*
X0039138Y0061848D01*
X0039138Y0061249D02*
X0038863Y0061249D01*
X0038863Y0060651D02*
X0039138Y0060651D01*
X0039318Y0060052D02*
X0038863Y0060052D01*
X0038863Y0059454D02*
X0039566Y0059454D01*
X0040009Y0058855D02*
X0038863Y0058855D01*
X0038863Y0058257D02*
X0040608Y0058257D01*
X0047383Y0054067D02*
X0047863Y0054067D01*
X0047863Y0053469D02*
X0046784Y0053469D01*
X0046186Y0052870D02*
X0047863Y0052870D01*
X0047863Y0052272D02*
X0046029Y0052272D01*
X0046188Y0051673D02*
X0047863Y0051673D01*
X0047863Y0051075D02*
X0046188Y0051075D01*
X0046185Y0050476D02*
X0047863Y0050476D01*
X0047863Y0049878D02*
X0045937Y0049878D01*
X0045689Y0049279D02*
X0047863Y0049279D01*
X0047863Y0048681D02*
X0045143Y0048681D01*
X0044380Y0048082D02*
X0047863Y0048082D01*
X0046827Y0045688D02*
X0038863Y0045688D01*
X0038863Y0045090D02*
X0046228Y0045090D01*
X0045630Y0044491D02*
X0043896Y0044491D01*
X0044942Y0043893D02*
X0045031Y0043893D01*
X0041431Y0044491D02*
X0038863Y0044491D01*
X0038863Y0043893D02*
X0040385Y0043893D01*
X0039786Y0043294D02*
X0038863Y0043294D01*
X0038863Y0042696D02*
X0039473Y0042696D01*
X0039225Y0042097D02*
X0038863Y0042097D01*
X0038863Y0041498D02*
X0039138Y0041498D01*
X0039138Y0040900D02*
X0038863Y0040900D01*
X0038863Y0040301D02*
X0039215Y0040301D01*
X0039462Y0039703D02*
X0038863Y0039703D01*
X0038863Y0039104D02*
X0039760Y0039104D01*
X0040359Y0038506D02*
X0038863Y0038506D01*
X0038863Y0037907D02*
X0041368Y0037907D01*
X0038863Y0037309D02*
X0046948Y0037309D01*
X0047546Y0037907D02*
X0043959Y0037907D01*
X0044968Y0038506D02*
X0048145Y0038506D01*
X0046349Y0036710D02*
X0038863Y0036710D01*
X0038863Y0036112D02*
X0045751Y0036112D01*
X0045152Y0035513D02*
X0038863Y0035513D01*
X0038863Y0034915D02*
X0044554Y0034915D01*
X0041009Y0034316D02*
X0038863Y0034316D01*
X0038863Y0033718D02*
X0040210Y0033718D01*
X0039649Y0033119D02*
X0038863Y0033119D01*
X0038863Y0032521D02*
X0039401Y0032521D01*
X0039153Y0031922D02*
X0038863Y0031922D01*
X0038863Y0031324D02*
X0039138Y0031324D01*
X0039138Y0030725D02*
X0038863Y0030725D01*
X0038863Y0030127D02*
X0039287Y0030127D01*
X0039535Y0029528D02*
X0038863Y0029528D01*
X0038863Y0028930D02*
X0039935Y0028930D01*
X0040533Y0028331D02*
X0038863Y0028331D01*
X0038863Y0027733D02*
X0041790Y0027733D01*
X0053463Y0043893D02*
X0066001Y0043893D01*
X0066298Y0043596D02*
X0068029Y0043596D01*
X0069254Y0044820D01*
X0069254Y0046552D01*
X0068080Y0047727D01*
X0068634Y0048281D01*
X0068634Y0050168D01*
X0067300Y0051503D01*
X0065413Y0051503D01*
X0064078Y0050168D01*
X0064078Y0048281D01*
X0065413Y0046947D01*
X0065468Y0046947D01*
X0065073Y0046552D01*
X0065073Y0044820D01*
X0066298Y0043596D01*
X0065402Y0044491D02*
X0053463Y0044491D01*
X0053463Y0045090D02*
X0065073Y0045090D01*
X0065073Y0045688D02*
X0053463Y0045688D01*
X0053463Y0046287D02*
X0065073Y0046287D01*
X0065406Y0046885D02*
X0053463Y0046885D01*
X0053463Y0047484D02*
X0064876Y0047484D01*
X0064278Y0048082D02*
X0053463Y0048082D01*
X0053463Y0048681D02*
X0064078Y0048681D01*
X0064078Y0049279D02*
X0053463Y0049279D01*
X0053463Y0049878D02*
X0064078Y0049878D01*
X0064386Y0050476D02*
X0053463Y0050476D01*
X0053463Y0051075D02*
X0064985Y0051075D01*
X0067728Y0051075D02*
X0078095Y0051075D01*
X0077573Y0050476D02*
X0068327Y0050476D01*
X0068634Y0049878D02*
X0077573Y0049878D01*
X0077573Y0049279D02*
X0068634Y0049279D01*
X0068634Y0048681D02*
X0077713Y0048681D01*
X0078311Y0048082D02*
X0068435Y0048082D01*
X0068323Y0047484D02*
X0071004Y0047484D01*
X0071298Y0047777D02*
X0070073Y0046552D01*
X0070073Y0044820D01*
X0071298Y0043596D01*
X0073029Y0043596D01*
X0074254Y0044820D01*
X0074254Y0046552D01*
X0073029Y0047777D01*
X0071298Y0047777D01*
X0070406Y0046885D02*
X0068921Y0046885D01*
X0069254Y0046287D02*
X0070073Y0046287D01*
X0070073Y0045688D02*
X0069254Y0045688D01*
X0069254Y0045090D02*
X0070073Y0045090D01*
X0070402Y0044491D02*
X0068925Y0044491D01*
X0068326Y0043893D02*
X0071001Y0043893D01*
X0073326Y0043893D02*
X0076001Y0043893D01*
X0075402Y0044491D02*
X0073925Y0044491D01*
X0074254Y0045090D02*
X0075073Y0045090D01*
X0075073Y0045688D02*
X0074254Y0045688D01*
X0074254Y0046287D02*
X0075073Y0046287D01*
X0075406Y0046885D02*
X0073921Y0046885D01*
X0073323Y0047484D02*
X0076004Y0047484D01*
X0078694Y0051673D02*
X0053463Y0051673D01*
X0046363Y0065439D02*
X0038863Y0065439D01*
X0038863Y0066037D02*
X0046363Y0066037D01*
X0046363Y0066636D02*
X0038863Y0066636D01*
X0038863Y0067234D02*
X0046363Y0067234D01*
X0046363Y0067833D02*
X0043779Y0067833D01*
X0043365Y0067661D02*
X0044660Y0068198D01*
X0045652Y0069190D01*
X0046188Y0070485D01*
X0046188Y0071888D01*
X0045652Y0073183D01*
X0044660Y0074175D01*
X0043365Y0074711D01*
X0041962Y0074711D01*
X0040667Y0074175D01*
X0039675Y0073183D01*
X0039138Y0071888D01*
X0039138Y0070485D01*
X0039675Y0069190D01*
X0040667Y0068198D01*
X0041962Y0067661D01*
X0043365Y0067661D01*
X0044894Y0068432D02*
X0046363Y0068432D01*
X0046363Y0069030D02*
X0045492Y0069030D01*
X0045834Y0069629D02*
X0046363Y0069629D01*
X0046363Y0070227D02*
X0046082Y0070227D01*
X0046188Y0070826D02*
X0046363Y0070826D01*
X0046363Y0071424D02*
X0046188Y0071424D01*
X0046133Y0072023D02*
X0046363Y0072023D01*
X0046363Y0072621D02*
X0045885Y0072621D01*
X0045615Y0073220D02*
X0046363Y0073220D01*
X0046363Y0073818D02*
X0045017Y0073818D01*
X0044076Y0074417D02*
X0046363Y0074417D01*
X0046363Y0075015D02*
X0038863Y0075015D01*
X0038863Y0074417D02*
X0041251Y0074417D01*
X0040310Y0073818D02*
X0038863Y0073818D01*
X0038863Y0073220D02*
X0039712Y0073220D01*
X0039442Y0072621D02*
X0038863Y0072621D01*
X0038863Y0072023D02*
X0039194Y0072023D01*
X0039138Y0071424D02*
X0038863Y0071424D01*
X0038863Y0070826D02*
X0039138Y0070826D01*
X0039245Y0070227D02*
X0038863Y0070227D01*
X0038863Y0069629D02*
X0039493Y0069629D01*
X0039835Y0069030D02*
X0038863Y0069030D01*
X0038863Y0068432D02*
X0040433Y0068432D01*
X0041548Y0067833D02*
X0038863Y0067833D01*
X0038863Y0075614D02*
X0046363Y0075614D01*
X0046363Y0076212D02*
X0038863Y0076212D01*
X0038863Y0076811D02*
X0046363Y0076811D01*
X0046363Y0077409D02*
X0038863Y0077409D01*
X0038863Y0078008D02*
X0041126Y0078008D01*
X0040259Y0078606D02*
X0038863Y0078606D01*
X0038863Y0079205D02*
X0039669Y0079205D01*
X0039421Y0079803D02*
X0038863Y0079803D01*
X0038863Y0080402D02*
X0039173Y0080402D01*
X0039138Y0081000D02*
X0038863Y0081000D01*
X0038863Y0081599D02*
X0039138Y0081599D01*
X0039267Y0082197D02*
X0038863Y0082197D01*
X0038863Y0082796D02*
X0039515Y0082796D01*
X0039886Y0083394D02*
X0038863Y0083394D01*
X0038863Y0083993D02*
X0040485Y0083993D01*
X0041673Y0084591D02*
X0038863Y0084591D01*
X0038863Y0085190D02*
X0048329Y0085190D01*
X0048927Y0085788D02*
X0038863Y0085788D01*
X0038863Y0086387D02*
X0049526Y0086387D01*
X0050124Y0086985D02*
X0038863Y0086985D01*
X0043654Y0084591D02*
X0047730Y0084591D01*
X0047131Y0083993D02*
X0044842Y0083993D01*
X0045441Y0083394D02*
X0046533Y0083394D01*
X0045934Y0082796D02*
X0045812Y0082796D01*
X0045906Y0079803D02*
X0046363Y0079803D01*
X0046363Y0079205D02*
X0045658Y0079205D01*
X0045068Y0078606D02*
X0046363Y0078606D01*
X0046363Y0078008D02*
X0044201Y0078008D01*
X0075003Y0079803D02*
X0076563Y0079803D01*
X0076563Y0079205D02*
X0075602Y0079205D01*
X0075854Y0078606D02*
X0076563Y0078606D01*
X0076563Y0078008D02*
X0075854Y0078008D01*
X0075854Y0077409D02*
X0076563Y0077409D01*
X0076563Y0076811D02*
X0075444Y0076811D01*
X0079163Y0079803D02*
X0079850Y0079803D01*
X0079251Y0080402D02*
X0079163Y0080402D01*
X0057272Y0140851D02*
X0051963Y0140851D01*
X0051963Y0141450D02*
X0057871Y0141450D01*
X0048981Y0161201D02*
X0048963Y0161201D01*
X0048963Y0161799D02*
X0049579Y0161799D01*
D16*
X0047663Y0163186D02*
X0047663Y0158186D01*
X0049163Y0156686D01*
X0049163Y0148686D01*
X0050663Y0147186D01*
X0050663Y0139186D01*
X0053663Y0136186D01*
X0053663Y0131186D01*
X0057663Y0127186D01*
X0057663Y0117686D01*
X0060163Y0115186D01*
X0061163Y0115186D01*
X0059163Y0112186D02*
X0056163Y0115186D01*
X0056163Y0126686D01*
X0052163Y0130686D01*
X0052163Y0135686D01*
X0049163Y0138686D01*
X0049163Y0146686D01*
X0047663Y0148186D01*
X0047663Y0156186D01*
X0042663Y0161186D01*
X0047663Y0163186D02*
X0042663Y0168186D01*
X0042663Y0171186D01*
X0042663Y0151186D02*
X0047663Y0146186D01*
X0047663Y0138186D01*
X0050663Y0135186D01*
X0050663Y0130186D01*
X0054663Y0126186D01*
X0054663Y0114686D01*
X0058663Y0110686D01*
X0058663Y0101486D01*
X0060463Y0099686D01*
X0062663Y0099686D01*
X0061163Y0102686D02*
X0061163Y0105686D01*
X0065163Y0109686D01*
X0065163Y0128186D01*
X0062363Y0130986D01*
X0061763Y0130986D01*
X0059463Y0129786D02*
X0059463Y0132986D01*
X0060663Y0134186D01*
X0061663Y0136686D02*
X0058663Y0136686D01*
X0061663Y0136686D02*
X0066663Y0131686D01*
X0066663Y0109186D01*
X0064163Y0106686D01*
X0064163Y0102686D01*
X0070663Y0097186D02*
X0067663Y0094186D01*
X0059163Y0094186D01*
X0046163Y0081186D01*
X0042663Y0081186D01*
X0047663Y0080686D02*
X0059663Y0092686D01*
X0068163Y0092686D01*
X0072163Y0096686D01*
X0072163Y0112786D01*
X0069363Y0115586D01*
X0075163Y0114086D02*
X0077563Y0116486D01*
X0075163Y0114086D02*
X0075163Y0095686D01*
X0069163Y0089686D01*
X0060663Y0089686D01*
X0050663Y0079686D01*
X0050663Y0039186D01*
X0042663Y0031186D01*
X0042663Y0022686D02*
X0052163Y0032186D01*
X0052163Y0079186D01*
X0061163Y0088186D01*
X0069663Y0088186D01*
X0076663Y0095186D01*
X0076663Y0106186D01*
X0077663Y0107186D01*
X0079863Y0108086D02*
X0079863Y0106186D01*
X0078063Y0104386D01*
X0078063Y0094586D01*
X0076463Y0092986D01*
X0076463Y0090486D01*
X0077863Y0089086D01*
X0077863Y0062686D01*
X0080763Y0059786D01*
X0084863Y0059786D01*
X0086463Y0061386D01*
X0098463Y0066186D02*
X0101663Y0069386D01*
X0101663Y0078986D01*
X0093063Y0087586D01*
X0093063Y0091186D01*
X0091663Y0092586D01*
X0087863Y0092586D01*
X0086863Y0093586D01*
X0086863Y0102986D01*
X0085863Y0103986D01*
X0091163Y0101686D02*
X0091163Y0101186D01*
X0097663Y0094686D01*
X0097663Y0089186D01*
X0106163Y0080686D01*
X0106163Y0047686D01*
X0112663Y0041186D01*
X0104663Y0039186D02*
X0112663Y0031186D01*
X0103163Y0030686D02*
X0112663Y0021186D01*
X0103163Y0030686D02*
X0103163Y0079686D01*
X0094663Y0088186D01*
X0094663Y0093686D01*
X0093163Y0095186D01*
X0089163Y0095186D01*
X0091163Y0097686D02*
X0092663Y0097686D01*
X0096163Y0094186D01*
X0096163Y0088686D01*
X0104663Y0080186D01*
X0104663Y0039186D01*
X0112663Y0051186D02*
X0107663Y0056186D01*
X0107663Y0081186D01*
X0100163Y0088686D01*
X0100163Y0090186D01*
X0094163Y0101686D02*
X0097663Y0105186D01*
X0103663Y0105186D01*
X0107663Y0109186D01*
X0107663Y0127186D01*
X0111663Y0131186D01*
X0112663Y0131186D01*
X0107663Y0129186D02*
X0106163Y0127686D01*
X0106163Y0109686D01*
X0103163Y0106686D01*
X0094163Y0106686D01*
X0096163Y0108186D02*
X0102663Y0108186D01*
X0104663Y0110186D01*
X0104663Y0128186D01*
X0106163Y0129686D01*
X0106163Y0145686D01*
X0111663Y0151186D01*
X0112663Y0151186D01*
X0099363Y0153086D02*
X0099363Y0137286D01*
X0097663Y0135586D01*
X0095063Y0136086D02*
X0095063Y0133886D01*
X0096663Y0132286D01*
X0096663Y0123686D01*
X0089163Y0116186D01*
X0085863Y0116186D01*
X0094163Y0113186D02*
X0094163Y0110186D01*
X0096163Y0108186D01*
X0079863Y0108086D02*
X0077663Y0110286D01*
X0077663Y0110986D01*
X0070663Y0109986D02*
X0069763Y0110886D01*
X0070663Y0109986D02*
X0070663Y0097186D01*
X0073663Y0096186D02*
X0068663Y0091186D01*
X0060163Y0091186D01*
X0049163Y0080186D01*
X0049163Y0046186D01*
X0044163Y0041186D01*
X0042663Y0041186D01*
X0042663Y0051186D02*
X0047663Y0056186D01*
X0047663Y0080686D01*
X0073663Y0096186D02*
X0073663Y0127186D01*
X0075363Y0128886D01*
X0079663Y0128886D01*
X0079863Y0133286D02*
X0079863Y0134586D01*
X0084463Y0139186D01*
X0095063Y0136086D02*
X0097963Y0138986D01*
X0097963Y0152386D01*
X0096563Y0153786D01*
X0091563Y0153786D01*
X0089863Y0155486D01*
X0089863Y0157686D01*
X0090863Y0158686D01*
X0090863Y0160286D01*
X0091563Y0160986D01*
X0091563Y0170286D01*
X0089663Y0172186D01*
X0087863Y0172186D01*
X0088963Y0175186D02*
X0093163Y0170986D01*
X0093163Y0162486D01*
X0094263Y0161386D01*
X0096863Y0161386D01*
X0098763Y0159486D01*
X0098763Y0153686D01*
X0099363Y0153086D01*
X0111663Y0141186D02*
X0112663Y0141186D01*
X0111663Y0141186D02*
X0107663Y0137186D01*
X0107663Y0129186D01*
X0063663Y0125586D02*
X0063663Y0111186D01*
X0061663Y0109186D01*
X0061163Y0109186D01*
X0061163Y0112186D02*
X0059163Y0112186D01*
X0052163Y0121186D02*
X0053163Y0122186D01*
X0053163Y0125686D01*
X0049163Y0129686D01*
X0049163Y0134686D01*
X0042663Y0141186D01*
X0042763Y0136186D02*
X0045163Y0136186D01*
X0047163Y0134186D01*
X0047163Y0123986D01*
X0047963Y0123186D01*
X0049663Y0123186D01*
X0059463Y0129786D02*
X0063663Y0125586D01*
X0042663Y0022686D02*
X0042663Y0021186D01*
D17*
X0079663Y0187186D02*
X0085263Y0187186D01*
X0086063Y0186286D01*
X0079663Y0187186D02*
X0076663Y0190186D01*
X0076663Y0195186D01*
X0073763Y0198086D01*
X0073763Y0198186D01*
X0049663Y0198186D01*
X0042663Y0191186D01*
D18*
X0053163Y0184786D02*
X0053163Y0177086D01*
X0070363Y0159886D01*
X0070363Y0158686D01*
X0073463Y0156786D02*
X0074363Y0157686D01*
X0074363Y0169986D01*
X0070163Y0174186D01*
X0070163Y0190686D01*
X0071163Y0192186D01*
X0088663Y0178186D02*
X0085163Y0174686D01*
X0085163Y0167886D01*
X0077363Y0160086D01*
X0088663Y0178186D02*
X0088963Y0178186D01*
D19*
X0081663Y0147986D02*
X0082463Y0147186D01*
X0095663Y0147186D01*
M02*
