%
M48
M72
T01C0.01181
T02C0.01969
T03C0.02362
T04C0.02756
T05C0.03500
T06C0.03543
%
T01
X45663Y9186
X45663Y12686
X45663Y16186
X55363Y14686
X55363Y11686
X55363Y8686
X55363Y17686
X58163Y17686
X60663Y18686
X61763Y22186
X68663Y21686
X76163Y21686
X73863Y17686
X68663Y18686
X73863Y14686
X79163Y10186
X89163Y10186
X99163Y10186
X111163Y9186
X113163Y13186
X109963Y16186
X104163Y21686
X98663Y21686
X93663Y21686
X87163Y21686
X82663Y21686
X85663Y18186
X93663Y18186
X77663Y32186
X85963Y33686
X94163Y33686
X94163Y40686
X77163Y45686
X72163Y45686
X67163Y45686
X61163Y44686
X61163Y41186
X45163Y46186
X59163Y57686
X66163Y58686
X81663Y62786
X82663Y66586
X88363Y67686
X83463Y69886
X90463Y73886
X87863Y77386
X95363Y77586
X95163Y71686
X98463Y66186
X86463Y61386
X88863Y58186
X99163Y58186
X99163Y53186
X85563Y49286
X79663Y49686
X110663Y66186
X80163Y84086
X75663Y88186
X72663Y87686
X80163Y91686
X82163Y89186
X85163Y89686
X84163Y94686
X89163Y95186
X91163Y97686
X91163Y101686
X94163Y101686
X85863Y103986
X85963Y107086
X85963Y110086
X94163Y106686
X94163Y113186
X85863Y116186
X77563Y116486
X77663Y110986
X77663Y107186
X69763Y110886
X69363Y115586
X61163Y115186
X61163Y112186
X61163Y109186
X61163Y102686
X64163Y102686
X67163Y102686
X66163Y99686
X62663Y99686
X66663Y96686
X83163Y99686
X100163Y90186
X110663Y86186
X73763Y78086
X60963Y84086
X59163Y76186
X73463Y70086
X44663Y96186
X44663Y106186
X52163Y121186
X49663Y123186
X49363Y126186
X61763Y130986
X60663Y134186
X58663Y136686
X59063Y139686
X70963Y139286
X79863Y133286
X79663Y128886
X76163Y125986
X83163Y125986
X94463Y130986
X91163Y132286
X92663Y135686
X97663Y135586
X87663Y139186
X84463Y139186
X81663Y147986
X76363Y151186
X73863Y153386
X73463Y156786
X76663Y156786
X84763Y155986
X85163Y160386
X88663Y160086
X93163Y159386
X92063Y156586
X96463Y155986
X96163Y158986
X100963Y155986
X102363Y158786
X95663Y147186
X80463Y159886
X77363Y160086
X70363Y158686
X70263Y155686
X66663Y159986
X59163Y160186
X47663Y167186
X47663Y170186
X47663Y173186
X63863Y171286
X64963Y172786
X66063Y171286
X69263Y171186
X74120Y175643
X77663Y175643
X81207Y175643
X88963Y175186
X88963Y178186
X81207Y179186
X77663Y179186
X74120Y179186
X74120Y182730
X77663Y182730
X81207Y182730
X86063Y186286
X84963Y187686
X71163Y192186
X54763Y185886
X53163Y184786
X51563Y185886
X53163Y186986
X87863Y172186
X89063Y169386
X102463Y174686
X101463Y177786
X108863Y177286
X104663Y187186
X102163Y187186
X45463Y155286
X66663Y151086
X71863Y150786
X42763Y136186
X110663Y126286
X110663Y116186
X50163Y26186
X49163Y24686
X50163Y23186
X51163Y24686
T02
X83238Y200186
X105089Y200186
T03
X101841Y191919
X86486Y191919
X92663Y183186
X97663Y183186
T04
X66356Y49225
T05
X42663Y21186
X42663Y31186
X42663Y41186
X42663Y51186
X42663Y61186
X42663Y71186
X42663Y81186
X42663Y91186
X42663Y101186
X42663Y111186
X42663Y121186
X42663Y131186
X42663Y141186
X42663Y151186
X42663Y161186
X42663Y171186
X42663Y181186
X42663Y191186
X42663Y201186
X112663Y201186
X112663Y191186
X112663Y181186
X112663Y171186
X112663Y161186
X112663Y151186
X112663Y141186
X112663Y131186
X112663Y121186
X112663Y111186
X112663Y101186
X112663Y91186
X112663Y81186
X112663Y71186
X112663Y61186
X112663Y51186
X112663Y41186
X112663Y31186
X112663Y21186
T06
X101789Y16548
M30
