G75*
%MOIN*%
%OFA0B0*%
%FSLAX25Y25*%
%IPPOS*%
%LPD*%
%AMOC8*
5,1,8,0,0,1.08239X$1,22.5*
%
%ADD10R,0.01575X0.05315*%
%ADD11C,0.04331*%
%ADD12R,0.05906X0.07480*%
%ADD13R,0.04921X0.02559*%
%ADD14R,0.01800X0.02400*%
%ADD15C,0.05800*%
%ADD16R,0.03937X0.04134*%
%ADD17R,0.04134X0.08661*%
%ADD18R,0.02400X0.01800*%
%ADD19R,0.03150X0.05906*%
%ADD20R,0.05906X0.03150*%
%ADD21C,0.01969*%
%ADD22R,0.04331X0.04331*%
%ADD23R,0.03937X0.03150*%
%ADD24C,0.02781*%
%ADD25R,0.06299X0.11811*%
%ADD26R,0.03937X0.21654*%
%ADD27R,0.03150X0.03150*%
%ADD28R,0.02800X0.04100*%
%ADD29R,0.04100X0.02800*%
%ADD30R,0.07402X0.06811*%
%ADD31R,0.01181X0.03150*%
%ADD32R,0.03937X0.04331*%
%ADD33C,0.03962*%
%ADD34R,0.06299X0.03543*%
%ADD35R,0.01181X0.02362*%
%ADD36R,0.03150X0.10630*%
%ADD37C,0.05800*%
%ADD38R,0.02756X0.01575*%
%ADD39C,0.01600*%
%ADD40C,0.02381*%
%ADD41C,0.01200*%
%ADD42C,0.00600*%
%ADD43C,0.00800*%
%ADD44C,0.00700*%
%ADD45C,0.01000*%
%ADD46C,0.01315*%
%ADD47C,0.02400*%
%ADD48C,0.00400*%
D10*
X0089045Y0189655D03*
X0091604Y0189655D03*
X0094163Y0189655D03*
X0096723Y0189655D03*
X0099282Y0189655D03*
D11*
X0105089Y0198021D02*
X0105089Y0202352D01*
X0083238Y0202352D02*
X0083238Y0198021D01*
D12*
X0090226Y0200147D03*
X0098100Y0200186D03*
D13*
X0102545Y0142238D03*
X0102545Y0136135D03*
X0087782Y0136135D03*
X0087782Y0142238D03*
X0067545Y0142238D03*
X0067545Y0136135D03*
X0052782Y0136135D03*
X0052782Y0142238D03*
D14*
X0066263Y0130686D03*
X0070063Y0130686D03*
X0073263Y0130686D03*
X0077063Y0130686D03*
X0077063Y0147686D03*
X0073263Y0147686D03*
X0084363Y0147386D03*
X0088163Y0147386D03*
X0102163Y0183186D03*
X0105963Y0183186D03*
X0052563Y0019686D03*
X0048763Y0019686D03*
X0048763Y0016186D03*
X0052563Y0016186D03*
X0052563Y0012686D03*
X0052563Y0009186D03*
X0048763Y0009186D03*
X0048763Y0012686D03*
D15*
X0042663Y0021186D02*
X0036863Y0021186D01*
X0036863Y0031186D02*
X0042663Y0031186D01*
X0042663Y0041186D02*
X0036863Y0041186D01*
X0036863Y0051186D02*
X0042663Y0051186D01*
X0042663Y0061186D02*
X0036863Y0061186D01*
X0036863Y0071186D02*
X0042663Y0071186D01*
X0042663Y0081186D02*
X0036863Y0081186D01*
X0036863Y0091186D02*
X0042663Y0091186D01*
X0042663Y0101186D02*
X0036863Y0101186D01*
X0036863Y0111186D02*
X0042663Y0111186D01*
X0042663Y0121186D02*
X0036863Y0121186D01*
X0036863Y0131186D02*
X0042663Y0131186D01*
X0042663Y0141186D02*
X0036863Y0141186D01*
X0036863Y0151186D02*
X0042663Y0151186D01*
X0042663Y0161186D02*
X0036863Y0161186D01*
X0036863Y0171186D02*
X0042663Y0171186D01*
X0042663Y0181186D02*
X0036863Y0181186D01*
X0036863Y0191186D02*
X0042663Y0191186D01*
X0112663Y0191186D02*
X0118463Y0191186D01*
X0118463Y0181186D02*
X0112663Y0181186D01*
X0112663Y0171186D02*
X0118463Y0171186D01*
X0118463Y0161186D02*
X0112663Y0161186D01*
X0112663Y0151186D02*
X0118463Y0151186D01*
X0118463Y0141186D02*
X0112663Y0141186D01*
X0112663Y0131186D02*
X0118463Y0131186D01*
X0118463Y0121186D02*
X0112663Y0121186D01*
X0112663Y0111186D02*
X0118463Y0111186D01*
X0118463Y0101186D02*
X0112663Y0101186D01*
X0112663Y0091186D02*
X0118463Y0091186D01*
X0118463Y0081186D02*
X0112663Y0081186D01*
X0112663Y0071186D02*
X0118463Y0071186D01*
X0118463Y0061186D02*
X0112663Y0061186D01*
X0112663Y0051186D02*
X0118463Y0051186D01*
X0118463Y0041186D02*
X0112663Y0041186D01*
X0112663Y0031186D02*
X0118463Y0031186D01*
X0118463Y0021186D02*
X0112663Y0021186D01*
D16*
X0064663Y0018200D03*
D17*
X0058856Y0012186D03*
X0070471Y0012186D03*
D18*
X0077663Y0014286D03*
X0081663Y0014286D03*
X0089663Y0014286D03*
X0089663Y0018086D03*
X0081663Y0018086D03*
X0077663Y0018086D03*
X0097663Y0018086D03*
X0097663Y0014286D03*
X0092663Y0148686D03*
X0092663Y0152486D03*
X0099163Y0158786D03*
X0099163Y0162586D03*
X0088663Y0162786D03*
X0088663Y0166586D03*
X0076663Y0166586D03*
X0076663Y0162786D03*
X0105663Y0176186D03*
X0105663Y0179986D03*
D19*
X0099317Y0121234D03*
X0094986Y0121234D03*
X0090656Y0121234D03*
X0086325Y0121234D03*
X0081994Y0121234D03*
X0077663Y0121234D03*
X0073333Y0121234D03*
X0069002Y0121234D03*
X0064671Y0121234D03*
X0060341Y0121234D03*
X0056010Y0121234D03*
X0056010Y0027139D03*
X0060341Y0027139D03*
X0064671Y0027139D03*
X0069002Y0027139D03*
X0073333Y0027139D03*
X0077663Y0027139D03*
X0081994Y0027139D03*
X0086325Y0027139D03*
X0090656Y0027139D03*
X0094986Y0027139D03*
X0099317Y0027139D03*
D20*
X0105026Y0030879D03*
X0105026Y0035210D03*
X0105026Y0039541D03*
X0105026Y0043871D03*
X0105026Y0048202D03*
X0105026Y0052533D03*
X0105026Y0056863D03*
X0105026Y0061194D03*
X0105026Y0065525D03*
X0105026Y0069856D03*
X0105026Y0074186D03*
X0105026Y0078517D03*
X0105026Y0082848D03*
X0105026Y0087178D03*
X0105026Y0091509D03*
X0105026Y0095840D03*
X0105026Y0100171D03*
X0105026Y0104501D03*
X0105026Y0108832D03*
X0105026Y0113163D03*
X0105026Y0117493D03*
X0050301Y0117493D03*
X0050301Y0113163D03*
X0050301Y0108832D03*
X0050301Y0104501D03*
X0050301Y0100171D03*
X0050301Y0095840D03*
X0050301Y0091509D03*
X0050301Y0087178D03*
X0050301Y0082848D03*
X0050301Y0078517D03*
X0050301Y0074186D03*
X0050301Y0069856D03*
X0050301Y0065525D03*
X0050301Y0061194D03*
X0050301Y0056863D03*
X0050301Y0052533D03*
X0050301Y0048202D03*
X0050301Y0043871D03*
X0050301Y0039541D03*
X0050301Y0035210D03*
X0050301Y0030879D03*
D21*
X0105223Y0026942D03*
D22*
X0098333Y0033832D03*
X0090065Y0033832D03*
X0081797Y0033832D03*
X0073530Y0033832D03*
X0065262Y0033832D03*
X0056994Y0033832D03*
X0056994Y0040919D03*
X0065262Y0040919D03*
X0073530Y0040919D03*
X0081797Y0040919D03*
X0090065Y0040919D03*
X0098333Y0040919D03*
X0098333Y0048005D03*
X0098333Y0062178D03*
X0056994Y0062178D03*
X0056994Y0048005D03*
X0056994Y0086194D03*
X0056994Y0100367D03*
X0056994Y0107454D03*
X0065262Y0107454D03*
X0073530Y0107454D03*
X0081797Y0107454D03*
X0090065Y0107454D03*
X0098333Y0107454D03*
X0098333Y0100367D03*
X0098333Y0086194D03*
X0098333Y0114541D03*
X0090065Y0114541D03*
X0081797Y0114541D03*
X0073530Y0114541D03*
X0065262Y0114541D03*
X0056994Y0114541D03*
D23*
X0074711Y0137021D03*
X0080616Y0137021D03*
X0080616Y0141352D03*
X0074711Y0141352D03*
D24*
X0074120Y0175643D03*
X0077663Y0175643D03*
X0081207Y0175643D03*
X0081207Y0179186D03*
X0077663Y0179186D03*
X0074120Y0179186D03*
X0074120Y0182730D03*
X0077663Y0182730D03*
X0081207Y0182730D03*
D25*
X0076549Y0194749D03*
X0049778Y0194749D03*
D26*
X0059226Y0185812D03*
X0067100Y0185812D03*
D27*
X0072663Y0169639D03*
X0072663Y0163734D03*
X0097711Y0151186D03*
X0103616Y0151186D03*
D28*
X0054604Y0178711D03*
X0048704Y0178711D03*
D29*
X0060145Y0168716D03*
X0060145Y0162816D03*
D30*
X0096163Y0171686D03*
D31*
X0095179Y0166175D03*
X0093211Y0166175D03*
X0097148Y0166175D03*
X0099116Y0166175D03*
X0099116Y0177198D03*
X0097148Y0177198D03*
X0095179Y0177198D03*
X0093211Y0177198D03*
D32*
X0103163Y0170533D03*
X0103163Y0163840D03*
X0081163Y0163840D03*
X0081163Y0170533D03*
D33*
X0092663Y0183186D03*
X0097663Y0183186D03*
D34*
X0052663Y0169186D03*
D35*
X0052663Y0165249D03*
X0050104Y0165249D03*
X0055223Y0165249D03*
X0055223Y0173123D03*
X0052663Y0173123D03*
X0050104Y0173123D03*
D36*
X0053824Y0154212D03*
X0062486Y0154212D03*
D37*
X0042663Y0201186D03*
X0112663Y0201186D03*
D38*
X0088110Y0156045D03*
X0081417Y0156045D03*
X0081417Y0153486D03*
X0081417Y0150927D03*
X0088110Y0150927D03*
D39*
X0097663Y0151186D02*
X0097663Y0151586D01*
X0097663Y0151186D02*
X0097711Y0151186D01*
X0073263Y0163134D02*
X0072663Y0163734D01*
X0092663Y0183186D02*
X0094163Y0184686D01*
X0094163Y0189655D01*
X0096723Y0189655D02*
X0096723Y0184127D01*
X0097663Y0183186D01*
X0099317Y0087178D02*
X0098333Y0086194D01*
X0099317Y0087178D02*
X0105026Y0087178D01*
X0062663Y0078186D02*
X0058663Y0082186D01*
X0050963Y0082186D01*
X0050301Y0082848D01*
X0062663Y0078186D02*
X0062663Y0047686D01*
X0064663Y0045686D01*
X0067163Y0045686D01*
X0098333Y0040919D02*
X0099711Y0039541D01*
X0105026Y0039541D01*
X0105026Y0030879D02*
X0104833Y0030686D01*
X0102663Y0030686D01*
X0099317Y0027340D01*
X0099317Y0027139D01*
X0097663Y0014286D02*
X0097663Y0011686D01*
X0099163Y0010186D01*
X0089663Y0010686D02*
X0089663Y0014286D01*
X0081663Y0014286D02*
X0079663Y0014286D01*
X0079663Y0010686D01*
X0079163Y0010186D01*
X0079663Y0014286D02*
X0077663Y0014286D01*
X0089163Y0010186D02*
X0089663Y0010686D01*
X0052563Y0009186D02*
X0052563Y0012686D01*
X0052563Y0016186D01*
X0052563Y0019686D01*
D40*
X0055363Y0017686D03*
X0058163Y0017686D03*
X0060663Y0018686D03*
X0061763Y0022186D03*
X0068663Y0021686D03*
X0076163Y0021686D03*
X0073863Y0017686D03*
X0068663Y0018686D03*
X0073863Y0014686D03*
X0079163Y0010186D03*
X0089163Y0010186D03*
X0099163Y0010186D03*
X0111163Y0009186D03*
X0113163Y0013186D03*
X0109963Y0016186D03*
X0104163Y0021686D03*
X0098663Y0021686D03*
X0093663Y0021686D03*
X0087163Y0021686D03*
X0082663Y0021686D03*
X0085663Y0018186D03*
X0093663Y0018186D03*
X0077663Y0032186D03*
X0085963Y0033686D03*
X0094163Y0033686D03*
X0094163Y0040686D03*
X0077163Y0045686D03*
X0072163Y0045686D03*
X0067163Y0045686D03*
X0061163Y0044686D03*
X0061163Y0041186D03*
X0045163Y0046186D03*
X0059163Y0057686D03*
X0066163Y0058686D03*
X0081663Y0062786D03*
X0082663Y0066586D03*
X0088363Y0067686D03*
X0083463Y0069886D03*
X0090463Y0073886D03*
X0087863Y0077386D03*
X0095363Y0077586D03*
X0095163Y0071686D03*
X0098463Y0066186D03*
X0086463Y0061386D03*
X0088863Y0058186D03*
X0099163Y0058186D03*
X0099163Y0053186D03*
X0085563Y0049286D03*
X0079663Y0049686D03*
X0110663Y0066186D03*
X0080163Y0084086D03*
X0075663Y0088186D03*
X0072663Y0087686D03*
X0080163Y0091686D03*
X0082163Y0089186D03*
X0085163Y0089686D03*
X0084163Y0094686D03*
X0089163Y0095186D03*
X0091163Y0097686D03*
X0091163Y0101686D03*
X0094163Y0101686D03*
X0085863Y0103986D03*
X0085963Y0107086D03*
X0085963Y0110086D03*
X0094163Y0106686D03*
X0094163Y0113186D03*
X0085863Y0116186D03*
X0077563Y0116486D03*
X0077663Y0110986D03*
X0077663Y0107186D03*
X0069763Y0110886D03*
X0069363Y0115586D03*
X0061163Y0115186D03*
X0061163Y0112186D03*
X0061163Y0109186D03*
X0061163Y0102686D03*
X0064163Y0102686D03*
X0067163Y0102686D03*
X0066163Y0099686D03*
X0062663Y0099686D03*
X0066663Y0096686D03*
X0083163Y0099686D03*
X0100163Y0090186D03*
X0110663Y0086186D03*
X0073763Y0078086D03*
X0060963Y0084086D03*
X0059163Y0076186D03*
X0073463Y0070086D03*
X0044663Y0096186D03*
X0044663Y0106186D03*
X0052163Y0121186D03*
X0049663Y0123186D03*
X0049363Y0126186D03*
X0061763Y0130986D03*
X0060663Y0134186D03*
X0058663Y0136686D03*
X0059063Y0139686D03*
X0070963Y0139286D03*
X0079863Y0133286D03*
X0079663Y0128886D03*
X0076163Y0125986D03*
X0083163Y0125986D03*
X0094463Y0130986D03*
X0091163Y0132286D03*
X0092663Y0135686D03*
X0097663Y0135586D03*
X0087663Y0139186D03*
X0084463Y0139186D03*
X0081663Y0147986D03*
X0076363Y0151186D03*
X0073863Y0153386D03*
X0073463Y0156786D03*
X0076663Y0156786D03*
X0084763Y0155986D03*
X0085163Y0160386D03*
X0088663Y0160086D03*
X0093163Y0159386D03*
X0092063Y0156586D03*
X0096463Y0155986D03*
X0096163Y0158986D03*
X0100963Y0155986D03*
X0102363Y0158786D03*
X0095663Y0147186D03*
X0080463Y0159886D03*
X0077363Y0160086D03*
X0070363Y0158686D03*
X0070263Y0155686D03*
X0066663Y0159986D03*
X0059163Y0160186D03*
X0047663Y0167186D03*
X0047663Y0170186D03*
X0047663Y0173186D03*
X0063863Y0171286D03*
X0064963Y0172786D03*
X0066063Y0171286D03*
X0069263Y0171186D03*
X0087863Y0172186D03*
X0089063Y0169386D03*
X0088963Y0175186D03*
X0088963Y0178186D03*
X0101463Y0177786D03*
X0102463Y0174686D03*
X0108863Y0177286D03*
X0104663Y0187186D03*
X0102163Y0187186D03*
X0086063Y0186286D03*
X0084963Y0187686D03*
X0071163Y0192186D03*
X0054763Y0185886D03*
X0053163Y0184786D03*
X0051563Y0185886D03*
X0053163Y0186986D03*
X0045463Y0155286D03*
X0066663Y0151086D03*
X0071863Y0150786D03*
X0042763Y0136186D03*
X0110663Y0126286D03*
X0110663Y0116186D03*
X0050163Y0026186D03*
X0049163Y0024686D03*
X0050163Y0023186D03*
X0051163Y0024686D03*
X0045663Y0016186D03*
X0045663Y0012686D03*
X0045663Y0009186D03*
X0055363Y0008686D03*
X0055363Y0011686D03*
X0055363Y0014686D03*
D41*
X0070963Y0139286D02*
X0070963Y0139986D01*
X0071663Y0140686D01*
X0074045Y0140686D01*
X0074711Y0141352D01*
X0097663Y0151586D02*
X0097811Y0151586D01*
X0088110Y0156045D02*
X0088110Y0157240D01*
X0085163Y0160186D01*
X0085163Y0160386D01*
X0082217Y0162786D02*
X0081163Y0163840D01*
X0082217Y0162786D02*
X0088663Y0162786D01*
X0094263Y0162786D01*
X0095179Y0163702D01*
X0095179Y0166175D01*
X0097148Y0166175D02*
X0097148Y0163702D01*
X0098163Y0162686D01*
X0099063Y0162686D01*
X0099163Y0162586D01*
X0101910Y0162586D01*
X0103163Y0163840D01*
X0103163Y0170533D02*
X0102463Y0171233D01*
X0102463Y0174686D01*
X0076663Y0169186D02*
X0076663Y0166586D01*
X0076663Y0169186D02*
X0075663Y0170186D01*
X0073211Y0170186D01*
X0072663Y0169639D01*
X0076663Y0162786D02*
X0076663Y0160786D01*
X0077363Y0160086D01*
D42*
X0038863Y0017386D02*
X0038863Y0016470D01*
X0043405Y0007386D01*
X0046963Y0007386D01*
X0046963Y0014259D01*
X0046963Y0022189D01*
X0046666Y0022486D01*
X0045963Y0023189D01*
X0045963Y0029223D01*
X0045885Y0029034D01*
X0044816Y0027965D01*
X0043419Y0027386D01*
X0038863Y0027386D01*
X0038863Y0024986D01*
X0043419Y0024986D01*
X0044816Y0024408D01*
X0045885Y0023339D01*
X0046463Y0021942D01*
X0046463Y0020430D01*
X0045885Y0019034D01*
X0044816Y0017965D01*
X0043419Y0017386D01*
X0038863Y0017386D01*
X0038863Y0016960D02*
X0046963Y0016960D01*
X0046963Y0017558D02*
X0043834Y0017558D01*
X0045008Y0018157D02*
X0046963Y0018157D01*
X0046963Y0018755D02*
X0045606Y0018755D01*
X0046017Y0019354D02*
X0046963Y0019354D01*
X0046963Y0019952D02*
X0046265Y0019952D01*
X0046463Y0020551D02*
X0046963Y0020551D01*
X0046963Y0021149D02*
X0046463Y0021149D01*
X0046463Y0021748D02*
X0046963Y0021748D01*
X0046807Y0022346D02*
X0046296Y0022346D01*
X0046208Y0022945D02*
X0046048Y0022945D01*
X0045963Y0023543D02*
X0045681Y0023543D01*
X0045963Y0024142D02*
X0045082Y0024142D01*
X0045963Y0024740D02*
X0044014Y0024740D01*
X0045963Y0025339D02*
X0038863Y0025339D01*
X0038863Y0025937D02*
X0045963Y0025937D01*
X0045963Y0026536D02*
X0038863Y0026536D01*
X0038863Y0027134D02*
X0045963Y0027134D01*
X0045963Y0027733D02*
X0044256Y0027733D01*
X0045182Y0028331D02*
X0045963Y0028331D01*
X0045963Y0028930D02*
X0045781Y0028930D01*
X0047163Y0028930D02*
X0053163Y0028930D01*
X0053163Y0029528D02*
X0047163Y0029528D01*
X0047163Y0030127D02*
X0053163Y0030127D01*
X0053163Y0030725D02*
X0047163Y0030725D01*
X0047163Y0031324D02*
X0053163Y0031324D01*
X0053163Y0031922D02*
X0047163Y0031922D01*
X0047163Y0032521D02*
X0053163Y0032521D01*
X0053163Y0033119D02*
X0047163Y0033119D01*
X0047163Y0033718D02*
X0053163Y0033718D01*
X0053163Y0034316D02*
X0047163Y0034316D01*
X0047163Y0034915D02*
X0053163Y0034915D01*
X0053163Y0035513D02*
X0047163Y0035513D01*
X0047163Y0036112D02*
X0053163Y0036112D01*
X0053163Y0036710D02*
X0047163Y0036710D01*
X0047163Y0037309D02*
X0053163Y0037309D01*
X0053163Y0037907D02*
X0047163Y0037907D01*
X0047163Y0038506D02*
X0053163Y0038506D01*
X0053163Y0039104D02*
X0047163Y0039104D01*
X0047163Y0039703D02*
X0053163Y0039703D01*
X0053163Y0040301D02*
X0047163Y0040301D01*
X0047163Y0040900D02*
X0053163Y0040900D01*
X0053163Y0041186D02*
X0047163Y0041186D01*
X0047163Y0023686D01*
X0048163Y0022686D01*
X0048163Y0007386D01*
X0050663Y0007386D01*
X0050663Y0021186D01*
X0053163Y0023686D01*
X0053163Y0041186D01*
X0053950Y0042097D02*
X0084363Y0042097D01*
X0084363Y0041498D02*
X0054363Y0041498D01*
X0054363Y0041683D02*
X0053661Y0042386D01*
X0046666Y0042386D01*
X0046393Y0042113D01*
X0045885Y0043339D01*
X0044816Y0044408D01*
X0043419Y0044986D01*
X0038863Y0044986D01*
X0038863Y0047386D01*
X0043419Y0047386D01*
X0044816Y0047965D01*
X0045885Y0049034D01*
X0046463Y0050430D01*
X0046463Y0050570D01*
X0046666Y0050367D01*
X0046449Y0050150D01*
X0046449Y0046254D01*
X0046976Y0045727D01*
X0053627Y0045727D01*
X0054154Y0046254D01*
X0054154Y0050150D01*
X0053936Y0050367D01*
X0054154Y0050585D01*
X0054154Y0054480D01*
X0053936Y0054698D01*
X0054154Y0054916D01*
X0054154Y0058811D01*
X0053936Y0059029D01*
X0054154Y0059247D01*
X0054154Y0063142D01*
X0053936Y0063360D01*
X0054154Y0063577D01*
X0054154Y0067473D01*
X0053936Y0067690D01*
X0054154Y0067908D01*
X0054154Y0071803D01*
X0053627Y0072330D01*
X0046976Y0072330D01*
X0046463Y0071818D01*
X0046463Y0071942D01*
X0045885Y0073339D01*
X0044816Y0074408D01*
X0043419Y0074986D01*
X0038863Y0074986D01*
X0038863Y0077386D01*
X0043419Y0077386D01*
X0044816Y0077965D01*
X0045885Y0079034D01*
X0046449Y0080394D01*
X0046449Y0076569D01*
X0046976Y0076042D01*
X0053627Y0076042D01*
X0054154Y0076569D01*
X0054154Y0080465D01*
X0054132Y0080486D01*
X0057959Y0080486D01*
X0060963Y0077482D01*
X0060963Y0046982D01*
X0062963Y0044982D01*
X0063959Y0043986D01*
X0065907Y0043986D01*
X0066298Y0043596D01*
X0068029Y0043596D01*
X0069254Y0044820D01*
X0069254Y0046552D01*
X0068080Y0047727D01*
X0068634Y0048281D01*
X0068634Y0050168D01*
X0067300Y0051503D01*
X0065413Y0051503D01*
X0064363Y0050453D01*
X0064363Y0062648D01*
X0070863Y0056148D01*
X0070863Y0047343D01*
X0070073Y0046552D01*
X0070073Y0044820D01*
X0071298Y0043596D01*
X0073029Y0043596D01*
X0074254Y0044820D01*
X0074254Y0046552D01*
X0073463Y0047343D01*
X0073463Y0055548D01*
X0078016Y0050995D01*
X0077573Y0050552D01*
X0077573Y0048820D01*
X0078798Y0047596D01*
X0080529Y0047596D01*
X0081363Y0048430D01*
X0081363Y0048225D01*
X0080125Y0046986D01*
X0078820Y0046986D01*
X0078029Y0047777D01*
X0076298Y0047777D01*
X0075073Y0046552D01*
X0075073Y0044820D01*
X0076298Y0043596D01*
X0078029Y0043596D01*
X0078820Y0044386D01*
X0081202Y0044386D01*
X0081963Y0045148D01*
X0083202Y0046386D01*
X0083963Y0047148D01*
X0083963Y0047930D01*
X0084363Y0047530D01*
X0084363Y0038148D01*
X0085125Y0037386D01*
X0086625Y0035886D01*
X0100625Y0035886D01*
X0101173Y0035338D01*
X0101173Y0033262D01*
X0101700Y0032735D01*
X0108351Y0032735D01*
X0108878Y0033262D01*
X0108878Y0037158D01*
X0108351Y0037685D01*
X0102504Y0037685D01*
X0102463Y0037725D01*
X0101702Y0038486D01*
X0087702Y0038486D01*
X0086963Y0039225D01*
X0086963Y0047730D01*
X0087654Y0048420D01*
X0087654Y0050152D01*
X0086429Y0051377D01*
X0084698Y0051377D01*
X0083963Y0050643D01*
X0083963Y0050725D01*
X0083202Y0051486D01*
X0069463Y0065225D01*
X0069463Y0086225D01*
X0068702Y0086986D01*
X0058548Y0097140D01*
X0054154Y0097140D01*
X0054154Y0097787D01*
X0053936Y0098005D01*
X0054154Y0098223D01*
X0054154Y0102118D01*
X0053936Y0102336D01*
X0054154Y0102554D01*
X0054154Y0106449D01*
X0053936Y0106667D01*
X0054154Y0106884D01*
X0054154Y0110780D01*
X0053936Y0110997D01*
X0054154Y0111215D01*
X0054154Y0115110D01*
X0053627Y0115637D01*
X0046976Y0115637D01*
X0046449Y0115110D01*
X0046449Y0111978D01*
X0045885Y0113339D01*
X0044816Y0114408D01*
X0043419Y0114986D01*
X0038863Y0114986D01*
X0038863Y0117386D01*
X0043419Y0117386D01*
X0044816Y0117965D01*
X0045885Y0119034D01*
X0046463Y0120430D01*
X0046463Y0121942D01*
X0045885Y0123339D01*
X0044816Y0124408D01*
X0043419Y0124986D01*
X0038863Y0124986D01*
X0038863Y0127386D01*
X0043419Y0127386D01*
X0044816Y0127965D01*
X0045885Y0129034D01*
X0046463Y0130430D01*
X0046463Y0131942D01*
X0045885Y0133339D01*
X0044816Y0134408D01*
X0044198Y0134664D01*
X0044854Y0135320D01*
X0044854Y0137052D01*
X0044198Y0137709D01*
X0044816Y0137965D01*
X0045885Y0139034D01*
X0046463Y0140430D01*
X0046463Y0141942D01*
X0045885Y0143339D01*
X0044816Y0144408D01*
X0043419Y0144986D01*
X0038863Y0144986D01*
X0038863Y0147386D01*
X0043419Y0147386D01*
X0044816Y0147965D01*
X0045885Y0149034D01*
X0046463Y0150430D01*
X0046463Y0151942D01*
X0045885Y0153339D01*
X0044816Y0154408D01*
X0043419Y0154986D01*
X0038863Y0154986D01*
X0038863Y0157386D01*
X0043419Y0157386D01*
X0044816Y0157965D01*
X0045885Y0159034D01*
X0046463Y0160430D01*
X0046463Y0161942D01*
X0045885Y0163339D01*
X0044816Y0164408D01*
X0043419Y0164986D01*
X0038863Y0164986D01*
X0038863Y0167386D01*
X0043419Y0167386D01*
X0044816Y0167965D01*
X0045885Y0169034D01*
X0046463Y0170430D01*
X0046463Y0171942D01*
X0045885Y0173339D01*
X0044816Y0174408D01*
X0043419Y0174986D01*
X0038863Y0174986D01*
X0038863Y0187386D01*
X0043419Y0187386D01*
X0044816Y0187965D01*
X0045728Y0188877D01*
X0045728Y0188471D01*
X0046255Y0187944D01*
X0050664Y0187944D01*
X0049473Y0186752D01*
X0049473Y0185020D01*
X0049963Y0184530D01*
X0049963Y0175689D01*
X0050666Y0174986D01*
X0050963Y0174689D01*
X0050963Y0171689D01*
X0051666Y0170986D01*
X0056161Y0170986D01*
X0056863Y0171689D01*
X0056863Y0173148D01*
X0058625Y0171386D01*
X0060625Y0171386D01*
X0061573Y0170438D01*
X0061573Y0170338D01*
X0062915Y0168996D01*
X0064812Y0168996D01*
X0064903Y0169086D01*
X0065024Y0169086D01*
X0065115Y0168996D01*
X0067012Y0168996D01*
X0068354Y0170338D01*
X0068354Y0172086D01*
X0069642Y0172086D01*
X0070189Y0171540D01*
X0070189Y0167691D01*
X0070716Y0167164D01*
X0074563Y0167164D01*
X0074563Y0166208D01*
X0070716Y0166208D01*
X0070189Y0165681D01*
X0070189Y0163239D01*
X0069784Y0162834D01*
X0068963Y0162013D01*
X0068963Y0161083D01*
X0068661Y0161386D01*
X0068661Y0161386D01*
X0067661Y0162386D01*
X0064661Y0162386D01*
X0063663Y0163383D01*
X0063663Y0166683D01*
X0062961Y0167386D01*
X0054166Y0167386D01*
X0053463Y0166683D01*
X0053463Y0163689D01*
X0054166Y0162986D01*
X0054766Y0162386D01*
X0053661Y0162386D01*
X0051863Y0164183D01*
X0051863Y0166683D01*
X0051161Y0167386D01*
X0049166Y0167386D01*
X0048463Y0166683D01*
X0048463Y0149689D01*
X0049166Y0148986D01*
X0050666Y0147486D01*
X0055661Y0147486D01*
X0056363Y0148189D01*
X0057163Y0148989D01*
X0057666Y0148486D01*
X0058666Y0147486D01*
X0067161Y0147486D01*
X0067863Y0148189D01*
X0069363Y0149689D01*
X0069363Y0153630D01*
X0069398Y0153596D01*
X0071129Y0153596D01*
X0071773Y0154239D01*
X0071773Y0152877D01*
X0070998Y0152877D01*
X0069773Y0151652D01*
X0069773Y0149920D01*
X0070998Y0148696D01*
X0071463Y0148696D01*
X0071463Y0147725D01*
X0069725Y0145986D01*
X0063625Y0145986D01*
X0061225Y0143586D01*
X0060463Y0142825D01*
X0060463Y0137843D01*
X0059529Y0138777D01*
X0057798Y0138777D01*
X0056573Y0137552D01*
X0056573Y0135820D01*
X0056863Y0135530D01*
X0056863Y0129825D01*
X0054082Y0132607D01*
X0054082Y0133956D01*
X0055615Y0133956D01*
X0056142Y0134483D01*
X0056142Y0137787D01*
X0055615Y0138315D01*
X0049948Y0138315D01*
X0049421Y0137787D01*
X0049421Y0134483D01*
X0049948Y0133956D01*
X0051482Y0133956D01*
X0051482Y0131530D01*
X0052243Y0130768D01*
X0052243Y0130768D01*
X0056863Y0126148D01*
X0057625Y0125386D01*
X0074202Y0125386D01*
X0074963Y0126148D01*
X0075702Y0126886D01*
X0076625Y0126886D01*
X0077363Y0126148D01*
X0078125Y0125386D01*
X0081202Y0125386D01*
X0082702Y0126886D01*
X0092202Y0126886D01*
X0094211Y0128896D01*
X0095329Y0128896D01*
X0096554Y0130120D01*
X0096554Y0131852D01*
X0095561Y0132845D01*
X0095602Y0132886D01*
X0096363Y0133648D01*
X0096363Y0133930D01*
X0096798Y0133496D01*
X0098529Y0133496D01*
X0099754Y0134720D01*
X0099754Y0136452D01*
X0098529Y0137677D01*
X0096798Y0137677D01*
X0096363Y0137243D01*
X0096363Y0138425D01*
X0095602Y0139186D01*
X0094302Y0140486D01*
X0092863Y0140486D01*
X0092863Y0142648D01*
X0093725Y0141786D01*
X0099185Y0141786D01*
X0099185Y0140585D01*
X0099712Y0140058D01*
X0105379Y0140058D01*
X0105906Y0140585D01*
X0105906Y0143386D01*
X0106702Y0143386D01*
X0107463Y0144148D01*
X0111055Y0147739D01*
X0111908Y0147386D01*
X0116463Y0147386D01*
X0116463Y0144986D01*
X0111908Y0144986D01*
X0110511Y0144408D01*
X0109442Y0143339D01*
X0108863Y0141942D01*
X0108863Y0140430D01*
X0109442Y0139034D01*
X0110511Y0137965D01*
X0111908Y0137386D01*
X0116463Y0137386D01*
X0116463Y0134986D01*
X0111908Y0134986D01*
X0110511Y0134408D01*
X0109442Y0133339D01*
X0108863Y0131942D01*
X0108863Y0130430D01*
X0109442Y0129034D01*
X0110511Y0127965D01*
X0111908Y0127386D01*
X0116463Y0127386D01*
X0116463Y0124986D01*
X0111908Y0124986D01*
X0110511Y0124408D01*
X0109442Y0123339D01*
X0108863Y0121942D01*
X0108863Y0120430D01*
X0109442Y0119034D01*
X0110511Y0117965D01*
X0111908Y0117386D01*
X0116463Y0117386D01*
X0116463Y0114986D01*
X0111908Y0114986D01*
X0110511Y0114408D01*
X0109442Y0113339D01*
X0108863Y0111942D01*
X0108863Y0110795D01*
X0108351Y0111307D01*
X0101700Y0111307D01*
X0101173Y0110780D01*
X0101173Y0106884D01*
X0101391Y0106667D01*
X0101173Y0106449D01*
X0101173Y0105286D01*
X0095720Y0105286D01*
X0096254Y0105820D01*
X0096254Y0107552D01*
X0095029Y0108777D01*
X0093298Y0108777D01*
X0092073Y0107552D01*
X0092073Y0105820D01*
X0092607Y0105286D01*
X0089725Y0105286D01*
X0088963Y0104525D01*
X0087954Y0103515D01*
X0087954Y0104852D01*
X0087320Y0105486D01*
X0088054Y0106220D01*
X0088054Y0107952D01*
X0086829Y0109177D01*
X0085098Y0109177D01*
X0083873Y0107952D01*
X0083873Y0106220D01*
X0084507Y0105586D01*
X0083773Y0104852D01*
X0083773Y0103120D01*
X0084998Y0101896D01*
X0086729Y0101896D01*
X0087363Y0102530D01*
X0087363Y0100725D01*
X0085125Y0098486D01*
X0084920Y0098486D01*
X0085254Y0098820D01*
X0085254Y0100552D01*
X0084029Y0101777D01*
X0082298Y0101777D01*
X0081073Y0100552D01*
X0081073Y0098820D01*
X0081407Y0098486D01*
X0079625Y0098486D01*
X0078863Y0097725D01*
X0072125Y0090986D01*
X0071363Y0090225D01*
X0071363Y0089343D01*
X0070573Y0088552D01*
X0070573Y0086820D01*
X0071798Y0085596D01*
X0073529Y0085596D01*
X0074413Y0086480D01*
X0074798Y0086096D01*
X0076529Y0086096D01*
X0077754Y0087320D01*
X0077754Y0089052D01*
X0076963Y0089843D01*
X0076963Y0090148D01*
X0078073Y0091257D01*
X0078073Y0090820D01*
X0078363Y0090530D01*
X0078363Y0087648D01*
X0079125Y0086886D01*
X0079834Y0086177D01*
X0079298Y0086177D01*
X0078073Y0084952D01*
X0078073Y0083220D01*
X0079298Y0081996D01*
X0081029Y0081996D01*
X0082254Y0083220D01*
X0082254Y0083757D01*
X0082625Y0083386D01*
X0087125Y0083386D01*
X0089863Y0080648D01*
X0089863Y0076148D01*
X0090034Y0075977D01*
X0089598Y0075977D01*
X0088373Y0074752D01*
X0088373Y0073020D01*
X0089598Y0071796D01*
X0089863Y0071796D01*
X0089863Y0069143D01*
X0089229Y0069777D01*
X0087498Y0069777D01*
X0086273Y0068552D01*
X0086273Y0066820D01*
X0087498Y0065596D01*
X0089229Y0065596D01*
X0089863Y0066230D01*
X0089863Y0048148D01*
X0090625Y0047386D01*
X0095125Y0042886D01*
X0101173Y0042886D01*
X0101173Y0041924D01*
X0101700Y0041397D01*
X0108351Y0041397D01*
X0108863Y0041909D01*
X0108863Y0040430D01*
X0109442Y0039034D01*
X0110511Y0037965D01*
X0111908Y0037386D01*
X0116463Y0037386D01*
X0116463Y0034986D01*
X0111908Y0034986D01*
X0110511Y0034408D01*
X0109442Y0033339D01*
X0108863Y0031942D01*
X0108863Y0030430D01*
X0109442Y0029034D01*
X0110511Y0027965D01*
X0111908Y0027386D01*
X0116463Y0027386D01*
X0116463Y0024986D01*
X0111908Y0024986D01*
X0110511Y0024408D01*
X0109442Y0023339D01*
X0108863Y0021942D01*
X0108863Y0020430D01*
X0109442Y0019034D01*
X0110511Y0017965D01*
X0111908Y0017386D01*
X0116463Y0017386D01*
X0116463Y0016470D01*
X0111922Y0007386D01*
X0051863Y0007386D01*
X0051863Y0020689D01*
X0054363Y0023189D01*
X0054363Y0041683D01*
X0054363Y0040900D02*
X0084363Y0040900D01*
X0084363Y0040301D02*
X0054363Y0040301D01*
X0054363Y0039703D02*
X0084363Y0039703D01*
X0084363Y0039104D02*
X0054363Y0039104D01*
X0054363Y0038506D02*
X0084363Y0038506D01*
X0084604Y0037907D02*
X0054363Y0037907D01*
X0054363Y0037309D02*
X0085202Y0037309D01*
X0085801Y0036710D02*
X0054363Y0036710D01*
X0054363Y0036112D02*
X0086399Y0036112D01*
X0087682Y0038506D02*
X0109970Y0038506D01*
X0109413Y0039104D02*
X0087084Y0039104D01*
X0086963Y0039703D02*
X0109165Y0039703D01*
X0108917Y0040301D02*
X0086963Y0040301D01*
X0086963Y0040900D02*
X0108863Y0040900D01*
X0108863Y0041498D02*
X0108453Y0041498D01*
X0108878Y0041978D02*
X0108878Y0045819D01*
X0108351Y0046346D01*
X0101700Y0046346D01*
X0101173Y0045819D01*
X0101173Y0045486D01*
X0096202Y0045486D01*
X0092463Y0049225D01*
X0092463Y0059048D01*
X0096363Y0055148D01*
X0097125Y0054386D01*
X0101173Y0054386D01*
X0101173Y0050585D01*
X0101700Y0050058D01*
X0108351Y0050058D01*
X0108863Y0050570D01*
X0108863Y0050430D01*
X0109442Y0049034D01*
X0110511Y0047965D01*
X0111908Y0047386D01*
X0116463Y0047386D01*
X0116463Y0044986D01*
X0111908Y0044986D01*
X0110511Y0044408D01*
X0109442Y0043339D01*
X0108878Y0041978D01*
X0108878Y0042097D02*
X0108928Y0042097D01*
X0108878Y0042696D02*
X0109176Y0042696D01*
X0109423Y0043294D02*
X0108878Y0043294D01*
X0108878Y0043893D02*
X0109996Y0043893D01*
X0110712Y0044491D02*
X0108878Y0044491D01*
X0108878Y0045090D02*
X0116463Y0045090D01*
X0116463Y0045688D02*
X0108878Y0045688D01*
X0108411Y0046287D02*
X0116463Y0046287D01*
X0116463Y0046885D02*
X0094803Y0046885D01*
X0094205Y0047484D02*
X0111673Y0047484D01*
X0110394Y0048082D02*
X0093606Y0048082D01*
X0093008Y0048681D02*
X0109795Y0048681D01*
X0109340Y0049279D02*
X0092463Y0049279D01*
X0092463Y0049878D02*
X0109092Y0049878D01*
X0108863Y0050476D02*
X0108769Y0050476D01*
X0101282Y0050476D02*
X0092463Y0050476D01*
X0092463Y0051075D02*
X0101173Y0051075D01*
X0101173Y0051673D02*
X0092463Y0051673D01*
X0092463Y0052272D02*
X0101173Y0052272D01*
X0101173Y0052870D02*
X0092463Y0052870D01*
X0092463Y0053469D02*
X0101173Y0053469D01*
X0101173Y0054067D02*
X0092463Y0054067D01*
X0092463Y0054666D02*
X0096846Y0054666D01*
X0096247Y0055264D02*
X0092463Y0055264D01*
X0092463Y0055863D02*
X0095649Y0055863D01*
X0095050Y0056461D02*
X0092463Y0056461D01*
X0092463Y0057060D02*
X0094452Y0057060D01*
X0093853Y0057658D02*
X0092463Y0057658D01*
X0092463Y0058257D02*
X0093255Y0058257D01*
X0092656Y0058855D02*
X0092463Y0058855D01*
X0089863Y0058855D02*
X0075833Y0058855D01*
X0076431Y0058257D02*
X0089863Y0058257D01*
X0089863Y0057658D02*
X0077030Y0057658D01*
X0077628Y0057060D02*
X0089863Y0057060D01*
X0089863Y0056461D02*
X0078227Y0056461D01*
X0078825Y0055863D02*
X0089863Y0055863D01*
X0089863Y0055264D02*
X0079424Y0055264D01*
X0080023Y0054666D02*
X0089863Y0054666D01*
X0089863Y0054067D02*
X0080621Y0054067D01*
X0081220Y0053469D02*
X0089863Y0053469D01*
X0089863Y0052870D02*
X0081818Y0052870D01*
X0082417Y0052272D02*
X0089863Y0052272D01*
X0089863Y0051673D02*
X0083015Y0051673D01*
X0083614Y0051075D02*
X0084395Y0051075D01*
X0086732Y0051075D02*
X0089863Y0051075D01*
X0089863Y0050476D02*
X0087330Y0050476D01*
X0087654Y0049878D02*
X0089863Y0049878D01*
X0089863Y0049279D02*
X0087654Y0049279D01*
X0087654Y0048681D02*
X0089863Y0048681D01*
X0089929Y0048082D02*
X0087316Y0048082D01*
X0086963Y0047484D02*
X0090528Y0047484D01*
X0091126Y0046885D02*
X0086963Y0046885D01*
X0086963Y0046287D02*
X0091725Y0046287D01*
X0092323Y0045688D02*
X0086963Y0045688D01*
X0086963Y0045090D02*
X0092922Y0045090D01*
X0093520Y0044491D02*
X0086963Y0044491D01*
X0086963Y0043893D02*
X0094119Y0043893D01*
X0094717Y0043294D02*
X0086963Y0043294D01*
X0086963Y0042696D02*
X0101173Y0042696D01*
X0101173Y0042097D02*
X0086963Y0042097D01*
X0086963Y0041498D02*
X0101598Y0041498D01*
X0102281Y0037907D02*
X0110650Y0037907D01*
X0108727Y0037309D02*
X0116463Y0037309D01*
X0116463Y0036710D02*
X0108878Y0036710D01*
X0108878Y0036112D02*
X0116463Y0036112D01*
X0116463Y0035513D02*
X0108878Y0035513D01*
X0108878Y0034915D02*
X0111735Y0034915D01*
X0110420Y0034316D02*
X0108878Y0034316D01*
X0108878Y0033718D02*
X0109821Y0033718D01*
X0109351Y0033119D02*
X0108735Y0033119D01*
X0109103Y0032521D02*
X0054363Y0032521D01*
X0054363Y0033119D02*
X0101316Y0033119D01*
X0101173Y0033718D02*
X0054363Y0033718D01*
X0054363Y0034316D02*
X0101173Y0034316D01*
X0101173Y0034915D02*
X0054363Y0034915D01*
X0054363Y0035513D02*
X0100998Y0035513D01*
X0108863Y0031922D02*
X0054363Y0031922D01*
X0054363Y0031324D02*
X0108863Y0031324D01*
X0108863Y0030725D02*
X0092870Y0030725D01*
X0093130Y0030465D02*
X0092603Y0030992D01*
X0088708Y0030992D01*
X0088181Y0030465D01*
X0088181Y0023814D01*
X0088708Y0023286D01*
X0092603Y0023286D01*
X0093130Y0023814D01*
X0093130Y0030465D01*
X0093130Y0030127D02*
X0108989Y0030127D01*
X0109237Y0029528D02*
X0093130Y0029528D01*
X0093130Y0028930D02*
X0109546Y0028930D01*
X0110145Y0028331D02*
X0106498Y0028331D01*
X0106003Y0028826D02*
X0104442Y0028826D01*
X0103338Y0027723D01*
X0103338Y0026162D01*
X0104442Y0025058D01*
X0106003Y0025058D01*
X0107107Y0026162D01*
X0107107Y0027723D01*
X0106003Y0028826D01*
X0107097Y0027733D02*
X0111071Y0027733D01*
X0111313Y0024740D02*
X0093130Y0024740D01*
X0093130Y0024142D02*
X0110245Y0024142D01*
X0109646Y0023543D02*
X0092860Y0023543D01*
X0093130Y0025339D02*
X0104161Y0025339D01*
X0103563Y0025937D02*
X0093130Y0025937D01*
X0093130Y0026536D02*
X0103338Y0026536D01*
X0103338Y0027134D02*
X0093130Y0027134D01*
X0093130Y0027733D02*
X0103348Y0027733D01*
X0103947Y0028331D02*
X0093130Y0028331D01*
X0088181Y0028331D02*
X0067296Y0028331D01*
X0067296Y0027733D02*
X0088181Y0027733D01*
X0088181Y0027134D02*
X0067296Y0027134D01*
X0067296Y0026536D02*
X0088181Y0026536D01*
X0088181Y0025937D02*
X0067296Y0025937D01*
X0067296Y0025339D02*
X0088181Y0025339D01*
X0088181Y0024740D02*
X0067296Y0024740D01*
X0067296Y0024142D02*
X0088181Y0024142D01*
X0088451Y0023543D02*
X0067088Y0023543D01*
X0067296Y0023751D02*
X0066681Y0023136D01*
X0066379Y0023136D01*
X0066379Y0021317D01*
X0067067Y0021317D01*
X0067682Y0020702D01*
X0067682Y0015986D01*
X0068288Y0015986D01*
X0068463Y0015811D01*
X0068463Y0008062D01*
X0068288Y0007886D01*
X0061039Y0007886D01*
X0060863Y0008062D01*
X0060863Y0015811D01*
X0061039Y0015986D01*
X0061645Y0015986D01*
X0061645Y0020702D01*
X0062260Y0021317D01*
X0062964Y0021317D01*
X0062964Y0023136D01*
X0062662Y0023136D01*
X0062047Y0023751D01*
X0062047Y0030527D01*
X0062662Y0031142D01*
X0066681Y0031142D01*
X0067296Y0030527D01*
X0067296Y0023751D01*
X0066379Y0022945D02*
X0109279Y0022945D01*
X0109031Y0022346D02*
X0066379Y0022346D01*
X0066379Y0021748D02*
X0108863Y0021748D01*
X0108863Y0021149D02*
X0067235Y0021149D01*
X0067682Y0020551D02*
X0108863Y0020551D01*
X0109062Y0019952D02*
X0067682Y0019952D01*
X0067682Y0019354D02*
X0109310Y0019354D01*
X0109721Y0018755D02*
X0103360Y0018755D01*
X0103303Y0018813D02*
X0102321Y0019219D01*
X0101258Y0019219D01*
X0100276Y0018813D01*
X0099525Y0018061D01*
X0099118Y0017079D01*
X0099118Y0016086D01*
X0096091Y0016086D01*
X0095563Y0015559D01*
X0095563Y0013014D01*
X0095963Y0012614D01*
X0095963Y0010982D01*
X0096959Y0009986D01*
X0097073Y0009873D01*
X0097073Y0009320D01*
X0098298Y0008096D01*
X0100029Y0008096D01*
X0101254Y0009320D01*
X0101254Y0011052D01*
X0100029Y0012277D01*
X0099477Y0012277D01*
X0099363Y0012390D01*
X0099363Y0012614D01*
X0099763Y0013014D01*
X0099763Y0014795D01*
X0100276Y0014283D01*
X0101258Y0013876D01*
X0102321Y0013876D01*
X0103303Y0014283D01*
X0104054Y0015034D01*
X0104461Y0016016D01*
X0104461Y0017079D01*
X0104054Y0018061D01*
X0103303Y0018813D01*
X0103959Y0018157D02*
X0110319Y0018157D01*
X0111493Y0017558D02*
X0104263Y0017558D01*
X0104461Y0016960D02*
X0116463Y0016960D01*
X0116409Y0016361D02*
X0104461Y0016361D01*
X0104356Y0015763D02*
X0116110Y0015763D01*
X0115811Y0015164D02*
X0104108Y0015164D01*
X0103585Y0014565D02*
X0115511Y0014565D01*
X0115212Y0013967D02*
X0102540Y0013967D01*
X0101039Y0013967D02*
X0099763Y0013967D01*
X0099763Y0014565D02*
X0099993Y0014565D01*
X0099763Y0013368D02*
X0114913Y0013368D01*
X0114614Y0012770D02*
X0099520Y0012770D01*
X0100135Y0012171D02*
X0114314Y0012171D01*
X0114015Y0011573D02*
X0100733Y0011573D01*
X0101254Y0010974D02*
X0113716Y0010974D01*
X0113417Y0010376D02*
X0101254Y0010376D01*
X0101254Y0009777D02*
X0113117Y0009777D01*
X0112818Y0009179D02*
X0101113Y0009179D01*
X0100514Y0008580D02*
X0112519Y0008580D01*
X0112220Y0007982D02*
X0068383Y0007982D01*
X0068463Y0008580D02*
X0077813Y0008580D01*
X0078298Y0008096D02*
X0080029Y0008096D01*
X0081254Y0009320D01*
X0081254Y0009873D01*
X0081363Y0009982D01*
X0081363Y0012486D01*
X0083236Y0012486D01*
X0083763Y0013014D01*
X0083763Y0015559D01*
X0083236Y0016086D01*
X0080091Y0016086D01*
X0079991Y0015986D01*
X0079336Y0015986D01*
X0079236Y0016086D01*
X0076091Y0016086D01*
X0075563Y0015559D01*
X0075563Y0013014D01*
X0076091Y0012486D01*
X0077963Y0012486D01*
X0077963Y0011943D01*
X0077073Y0011052D01*
X0077073Y0009320D01*
X0078298Y0008096D01*
X0077214Y0009179D02*
X0068463Y0009179D01*
X0068463Y0009777D02*
X0077073Y0009777D01*
X0077073Y0010376D02*
X0068463Y0010376D01*
X0068463Y0010974D02*
X0077073Y0010974D01*
X0077594Y0011573D02*
X0068463Y0011573D01*
X0068463Y0012171D02*
X0077963Y0012171D01*
X0075807Y0012770D02*
X0068463Y0012770D01*
X0068463Y0013368D02*
X0075563Y0013368D01*
X0075563Y0013967D02*
X0068463Y0013967D01*
X0068463Y0014565D02*
X0075563Y0014565D01*
X0075563Y0015164D02*
X0068463Y0015164D01*
X0068463Y0015763D02*
X0075767Y0015763D01*
X0067682Y0016361D02*
X0099118Y0016361D01*
X0099118Y0016960D02*
X0067682Y0016960D01*
X0067682Y0017558D02*
X0099316Y0017558D01*
X0099620Y0018157D02*
X0067682Y0018157D01*
X0067682Y0018755D02*
X0100218Y0018755D01*
X0095767Y0015763D02*
X0091560Y0015763D01*
X0091763Y0015559D02*
X0091236Y0016086D01*
X0088091Y0016086D01*
X0087563Y0015559D01*
X0087563Y0013014D01*
X0087963Y0012614D01*
X0087963Y0011943D01*
X0087073Y0011052D01*
X0087073Y0009320D01*
X0088298Y0008096D01*
X0090029Y0008096D01*
X0091254Y0009320D01*
X0091254Y0009873D01*
X0091363Y0009982D01*
X0091363Y0012614D01*
X0091763Y0013014D01*
X0091763Y0015559D01*
X0091763Y0015164D02*
X0095563Y0015164D01*
X0095563Y0014565D02*
X0091763Y0014565D01*
X0091763Y0013967D02*
X0095563Y0013967D01*
X0095563Y0013368D02*
X0091763Y0013368D01*
X0091520Y0012770D02*
X0095807Y0012770D01*
X0095963Y0012171D02*
X0091363Y0012171D01*
X0091363Y0011573D02*
X0095963Y0011573D01*
X0095971Y0010974D02*
X0091363Y0010974D01*
X0091363Y0010376D02*
X0096570Y0010376D01*
X0097073Y0009777D02*
X0091254Y0009777D01*
X0091113Y0009179D02*
X0097214Y0009179D01*
X0097813Y0008580D02*
X0090514Y0008580D01*
X0087813Y0008580D02*
X0080514Y0008580D01*
X0081113Y0009179D02*
X0087214Y0009179D01*
X0087073Y0009777D02*
X0081254Y0009777D01*
X0081363Y0010376D02*
X0087073Y0010376D01*
X0087073Y0010974D02*
X0081363Y0010974D01*
X0081363Y0011573D02*
X0087594Y0011573D01*
X0087963Y0012171D02*
X0081363Y0012171D01*
X0083520Y0012770D02*
X0087807Y0012770D01*
X0087563Y0013368D02*
X0083763Y0013368D01*
X0083763Y0013967D02*
X0087563Y0013967D01*
X0087563Y0014565D02*
X0083763Y0014565D01*
X0083763Y0015164D02*
X0087563Y0015164D01*
X0087767Y0015763D02*
X0083560Y0015763D01*
X0062964Y0021748D02*
X0052922Y0021748D01*
X0053520Y0022346D02*
X0062964Y0022346D01*
X0062964Y0022945D02*
X0054119Y0022945D01*
X0054363Y0023543D02*
X0062255Y0023543D01*
X0062047Y0024142D02*
X0054363Y0024142D01*
X0054363Y0024740D02*
X0062047Y0024740D01*
X0062047Y0025339D02*
X0054363Y0025339D01*
X0054363Y0025937D02*
X0062047Y0025937D01*
X0062047Y0026536D02*
X0054363Y0026536D01*
X0054363Y0027134D02*
X0062047Y0027134D01*
X0062047Y0027733D02*
X0054363Y0027733D01*
X0054363Y0028331D02*
X0062047Y0028331D01*
X0062047Y0028930D02*
X0054363Y0028930D01*
X0054363Y0029528D02*
X0062047Y0029528D01*
X0062047Y0030127D02*
X0054363Y0030127D01*
X0054363Y0030725D02*
X0062245Y0030725D01*
X0067098Y0030725D02*
X0088441Y0030725D01*
X0088181Y0030127D02*
X0067296Y0030127D01*
X0067296Y0029528D02*
X0088181Y0029528D01*
X0088181Y0028930D02*
X0067296Y0028930D01*
X0053163Y0028331D02*
X0047163Y0028331D01*
X0047163Y0027733D02*
X0053163Y0027733D01*
X0053163Y0027134D02*
X0047163Y0027134D01*
X0047163Y0026536D02*
X0053163Y0026536D01*
X0053163Y0025937D02*
X0047163Y0025937D01*
X0047163Y0025339D02*
X0053163Y0025339D01*
X0053163Y0024740D02*
X0047163Y0024740D01*
X0047163Y0024142D02*
X0053163Y0024142D01*
X0053020Y0023543D02*
X0047307Y0023543D01*
X0047905Y0022945D02*
X0052422Y0022945D01*
X0051823Y0022346D02*
X0048163Y0022346D01*
X0048163Y0021748D02*
X0051225Y0021748D01*
X0050663Y0021149D02*
X0048163Y0021149D01*
X0048163Y0020551D02*
X0050663Y0020551D01*
X0050663Y0019952D02*
X0048163Y0019952D01*
X0048163Y0019354D02*
X0050663Y0019354D01*
X0050663Y0018755D02*
X0048163Y0018755D01*
X0048163Y0018157D02*
X0050663Y0018157D01*
X0050663Y0017558D02*
X0048163Y0017558D01*
X0048163Y0016960D02*
X0050663Y0016960D01*
X0050663Y0016361D02*
X0048163Y0016361D01*
X0048163Y0015763D02*
X0050663Y0015763D01*
X0050663Y0015164D02*
X0048163Y0015164D01*
X0048163Y0014565D02*
X0050663Y0014565D01*
X0050663Y0013967D02*
X0048163Y0013967D01*
X0048163Y0013368D02*
X0050663Y0013368D01*
X0050663Y0012770D02*
X0048163Y0012770D01*
X0048163Y0012171D02*
X0050663Y0012171D01*
X0050663Y0011573D02*
X0048163Y0011573D01*
X0048163Y0010974D02*
X0050663Y0010974D01*
X0050663Y0010376D02*
X0048163Y0010376D01*
X0048163Y0009777D02*
X0050663Y0009777D01*
X0050663Y0009179D02*
X0048163Y0009179D01*
X0048163Y0008580D02*
X0050663Y0008580D01*
X0050663Y0007982D02*
X0048163Y0007982D01*
X0046963Y0007982D02*
X0043107Y0007982D01*
X0042808Y0008580D02*
X0046963Y0008580D01*
X0046963Y0009179D02*
X0042509Y0009179D01*
X0042210Y0009777D02*
X0046963Y0009777D01*
X0046963Y0010376D02*
X0041910Y0010376D01*
X0041611Y0010974D02*
X0046963Y0010974D01*
X0046963Y0011573D02*
X0041312Y0011573D01*
X0041013Y0012171D02*
X0046963Y0012171D01*
X0046963Y0012770D02*
X0040713Y0012770D01*
X0040414Y0013368D02*
X0046963Y0013368D01*
X0046963Y0013967D02*
X0040115Y0013967D01*
X0039816Y0014565D02*
X0046963Y0014565D01*
X0046963Y0015164D02*
X0039516Y0015164D01*
X0039217Y0015763D02*
X0046963Y0015763D01*
X0046963Y0016361D02*
X0038918Y0016361D01*
X0051863Y0016361D02*
X0061645Y0016361D01*
X0061645Y0016960D02*
X0051863Y0016960D01*
X0051863Y0017558D02*
X0061645Y0017558D01*
X0061645Y0018157D02*
X0051863Y0018157D01*
X0051863Y0018755D02*
X0061645Y0018755D01*
X0061645Y0019354D02*
X0051863Y0019354D01*
X0051863Y0019952D02*
X0061645Y0019952D01*
X0061645Y0020551D02*
X0051863Y0020551D01*
X0052323Y0021149D02*
X0062092Y0021149D01*
X0060863Y0015763D02*
X0051863Y0015763D01*
X0051863Y0015164D02*
X0060863Y0015164D01*
X0060863Y0014565D02*
X0051863Y0014565D01*
X0051863Y0013967D02*
X0060863Y0013967D01*
X0060863Y0013368D02*
X0051863Y0013368D01*
X0051863Y0012770D02*
X0060863Y0012770D01*
X0060863Y0012171D02*
X0051863Y0012171D01*
X0051863Y0011573D02*
X0060863Y0011573D01*
X0060863Y0010974D02*
X0051863Y0010974D01*
X0051863Y0010376D02*
X0060863Y0010376D01*
X0060863Y0009777D02*
X0051863Y0009777D01*
X0051863Y0009179D02*
X0060863Y0009179D01*
X0060863Y0008580D02*
X0051863Y0008580D01*
X0051863Y0007982D02*
X0060944Y0007982D01*
X0106284Y0025339D02*
X0116463Y0025339D01*
X0116463Y0025937D02*
X0106882Y0025937D01*
X0107107Y0026536D02*
X0116463Y0026536D01*
X0116463Y0027134D02*
X0107107Y0027134D01*
X0084363Y0042696D02*
X0046151Y0042696D01*
X0045904Y0043294D02*
X0084363Y0043294D01*
X0084363Y0043893D02*
X0078326Y0043893D01*
X0076001Y0043893D02*
X0073326Y0043893D01*
X0073925Y0044491D02*
X0075402Y0044491D01*
X0075073Y0045090D02*
X0074254Y0045090D01*
X0074254Y0045688D02*
X0075073Y0045688D01*
X0075073Y0046287D02*
X0074254Y0046287D01*
X0073921Y0046885D02*
X0075406Y0046885D01*
X0076004Y0047484D02*
X0073463Y0047484D01*
X0073463Y0048082D02*
X0078311Y0048082D01*
X0078323Y0047484D02*
X0080622Y0047484D01*
X0081016Y0048082D02*
X0081221Y0048082D01*
X0083102Y0046287D02*
X0084363Y0046287D01*
X0084363Y0046885D02*
X0083701Y0046885D01*
X0083963Y0047484D02*
X0084363Y0047484D01*
X0084363Y0045688D02*
X0082504Y0045688D01*
X0081905Y0045090D02*
X0084363Y0045090D01*
X0084363Y0044491D02*
X0081307Y0044491D01*
X0077713Y0048681D02*
X0073463Y0048681D01*
X0073463Y0049279D02*
X0077573Y0049279D01*
X0077573Y0049878D02*
X0073463Y0049878D01*
X0073463Y0050476D02*
X0077573Y0050476D01*
X0077937Y0051075D02*
X0073463Y0051075D01*
X0073463Y0051673D02*
X0077338Y0051673D01*
X0076740Y0052272D02*
X0073463Y0052272D01*
X0073463Y0052870D02*
X0076141Y0052870D01*
X0075543Y0053469D02*
X0073463Y0053469D01*
X0073463Y0054067D02*
X0074944Y0054067D01*
X0074346Y0054666D02*
X0073463Y0054666D01*
X0073463Y0055264D02*
X0073747Y0055264D01*
X0070863Y0055264D02*
X0064363Y0055264D01*
X0064363Y0054666D02*
X0070863Y0054666D01*
X0070863Y0054067D02*
X0064363Y0054067D01*
X0064363Y0053469D02*
X0070863Y0053469D01*
X0070863Y0052870D02*
X0064363Y0052870D01*
X0064363Y0052272D02*
X0070863Y0052272D01*
X0070863Y0051673D02*
X0064363Y0051673D01*
X0064363Y0051075D02*
X0064985Y0051075D01*
X0064386Y0050476D02*
X0064363Y0050476D01*
X0060963Y0050476D02*
X0054045Y0050476D01*
X0054154Y0049878D02*
X0060963Y0049878D01*
X0060963Y0049279D02*
X0054154Y0049279D01*
X0054154Y0048681D02*
X0060963Y0048681D01*
X0060963Y0048082D02*
X0054154Y0048082D01*
X0054154Y0047484D02*
X0060963Y0047484D01*
X0061061Y0046885D02*
X0054154Y0046885D01*
X0054154Y0046287D02*
X0061659Y0046287D01*
X0062258Y0045688D02*
X0038863Y0045688D01*
X0038863Y0045090D02*
X0062856Y0045090D01*
X0062963Y0044982D02*
X0062963Y0044982D01*
X0063455Y0044491D02*
X0044615Y0044491D01*
X0045331Y0043893D02*
X0066001Y0043893D01*
X0068326Y0043893D02*
X0071001Y0043893D01*
X0070402Y0044491D02*
X0068925Y0044491D01*
X0069254Y0045090D02*
X0070073Y0045090D01*
X0070073Y0045688D02*
X0069254Y0045688D01*
X0069254Y0046287D02*
X0070073Y0046287D01*
X0070406Y0046885D02*
X0068921Y0046885D01*
X0068323Y0047484D02*
X0070863Y0047484D01*
X0070863Y0048082D02*
X0068435Y0048082D01*
X0068634Y0048681D02*
X0070863Y0048681D01*
X0070863Y0049279D02*
X0068634Y0049279D01*
X0068634Y0049878D02*
X0070863Y0049878D01*
X0070863Y0050476D02*
X0068327Y0050476D01*
X0067728Y0051075D02*
X0070863Y0051075D01*
X0070863Y0055863D02*
X0064363Y0055863D01*
X0064363Y0056461D02*
X0070550Y0056461D01*
X0069952Y0057060D02*
X0064363Y0057060D01*
X0064363Y0057658D02*
X0069353Y0057658D01*
X0068755Y0058257D02*
X0064363Y0058257D01*
X0064363Y0058855D02*
X0068156Y0058855D01*
X0067557Y0059454D02*
X0064363Y0059454D01*
X0064363Y0060052D02*
X0066959Y0060052D01*
X0066360Y0060651D02*
X0064363Y0060651D01*
X0064363Y0061249D02*
X0065762Y0061249D01*
X0065163Y0061848D02*
X0064363Y0061848D01*
X0064363Y0062446D02*
X0064565Y0062446D01*
X0060963Y0062446D02*
X0054154Y0062446D01*
X0054154Y0061848D02*
X0060963Y0061848D01*
X0060963Y0061249D02*
X0054154Y0061249D01*
X0054154Y0060651D02*
X0060963Y0060651D01*
X0060963Y0060052D02*
X0054154Y0060052D01*
X0054154Y0059454D02*
X0060963Y0059454D01*
X0060963Y0058855D02*
X0054110Y0058855D01*
X0054154Y0058257D02*
X0060963Y0058257D01*
X0060963Y0057658D02*
X0054154Y0057658D01*
X0054154Y0057060D02*
X0060963Y0057060D01*
X0060963Y0056461D02*
X0054154Y0056461D01*
X0054154Y0055863D02*
X0060963Y0055863D01*
X0060963Y0055264D02*
X0054154Y0055264D01*
X0053969Y0054666D02*
X0060963Y0054666D01*
X0060963Y0054067D02*
X0054154Y0054067D01*
X0054154Y0053469D02*
X0060963Y0053469D01*
X0060963Y0052870D02*
X0054154Y0052870D01*
X0054154Y0052272D02*
X0060963Y0052272D01*
X0060963Y0051673D02*
X0054154Y0051673D01*
X0054154Y0051075D02*
X0060963Y0051075D01*
X0046558Y0050476D02*
X0046463Y0050476D01*
X0046449Y0049878D02*
X0046234Y0049878D01*
X0046449Y0049279D02*
X0045987Y0049279D01*
X0045532Y0048681D02*
X0046449Y0048681D01*
X0046449Y0048082D02*
X0044933Y0048082D01*
X0043654Y0047484D02*
X0046449Y0047484D01*
X0046449Y0046885D02*
X0038863Y0046885D01*
X0038863Y0046287D02*
X0046449Y0046287D01*
X0074636Y0060052D02*
X0084841Y0060052D01*
X0084373Y0060520D02*
X0085598Y0059296D01*
X0087329Y0059296D01*
X0088554Y0060520D01*
X0088554Y0062252D01*
X0087329Y0063477D01*
X0085598Y0063477D01*
X0084373Y0062252D01*
X0084373Y0060520D01*
X0084373Y0060651D02*
X0074037Y0060651D01*
X0073439Y0061249D02*
X0084373Y0061249D01*
X0084373Y0061848D02*
X0072840Y0061848D01*
X0072242Y0062446D02*
X0084567Y0062446D01*
X0085166Y0063045D02*
X0071643Y0063045D01*
X0071045Y0063643D02*
X0089863Y0063643D01*
X0089863Y0063045D02*
X0087761Y0063045D01*
X0088360Y0062446D02*
X0089863Y0062446D01*
X0089863Y0061848D02*
X0088554Y0061848D01*
X0088554Y0061249D02*
X0089863Y0061249D01*
X0089863Y0060651D02*
X0088554Y0060651D01*
X0088086Y0060052D02*
X0089863Y0060052D01*
X0089863Y0059454D02*
X0087487Y0059454D01*
X0085439Y0059454D02*
X0075234Y0059454D01*
X0070446Y0064242D02*
X0089863Y0064242D01*
X0089863Y0064840D02*
X0083874Y0064840D01*
X0083529Y0064496D02*
X0084754Y0065720D01*
X0084754Y0067452D01*
X0084370Y0067836D01*
X0085554Y0069020D01*
X0085554Y0070752D01*
X0084329Y0071977D01*
X0082598Y0071977D01*
X0081373Y0070752D01*
X0081373Y0069020D01*
X0081757Y0068636D01*
X0080573Y0067452D01*
X0080573Y0065720D01*
X0081798Y0064496D01*
X0083529Y0064496D01*
X0084473Y0065439D02*
X0089863Y0065439D01*
X0089863Y0066037D02*
X0089671Y0066037D01*
X0087056Y0066037D02*
X0084754Y0066037D01*
X0084754Y0066636D02*
X0086457Y0066636D01*
X0086273Y0067234D02*
X0084754Y0067234D01*
X0084373Y0067833D02*
X0086273Y0067833D01*
X0086273Y0068432D02*
X0084965Y0068432D01*
X0085554Y0069030D02*
X0086751Y0069030D01*
X0087349Y0069629D02*
X0085554Y0069629D01*
X0085554Y0070227D02*
X0089863Y0070227D01*
X0089863Y0069629D02*
X0089378Y0069629D01*
X0089863Y0070826D02*
X0085481Y0070826D01*
X0084882Y0071424D02*
X0089863Y0071424D01*
X0089371Y0072023D02*
X0069463Y0072023D01*
X0069463Y0072621D02*
X0088772Y0072621D01*
X0088373Y0073220D02*
X0069463Y0073220D01*
X0069463Y0073818D02*
X0088373Y0073818D01*
X0088373Y0074417D02*
X0069463Y0074417D01*
X0069463Y0075015D02*
X0088636Y0075015D01*
X0089234Y0075614D02*
X0069463Y0075614D01*
X0069463Y0076212D02*
X0072681Y0076212D01*
X0072898Y0075996D02*
X0074629Y0075996D01*
X0075854Y0077220D01*
X0075854Y0078952D01*
X0074629Y0080177D01*
X0072898Y0080177D01*
X0071673Y0078952D01*
X0071673Y0077220D01*
X0072898Y0075996D01*
X0072083Y0076811D02*
X0069463Y0076811D01*
X0069463Y0077409D02*
X0071673Y0077409D01*
X0071673Y0078008D02*
X0069463Y0078008D01*
X0069463Y0078606D02*
X0071673Y0078606D01*
X0071925Y0079205D02*
X0069463Y0079205D01*
X0069463Y0079803D02*
X0072524Y0079803D01*
X0075003Y0079803D02*
X0089863Y0079803D01*
X0089863Y0079205D02*
X0075602Y0079205D01*
X0075854Y0078606D02*
X0089863Y0078606D01*
X0089863Y0078008D02*
X0075854Y0078008D01*
X0075854Y0077409D02*
X0089863Y0077409D01*
X0089863Y0076811D02*
X0075444Y0076811D01*
X0074846Y0076212D02*
X0089863Y0076212D01*
X0089863Y0080402D02*
X0069463Y0080402D01*
X0069463Y0081000D02*
X0089511Y0081000D01*
X0088913Y0081599D02*
X0069463Y0081599D01*
X0069463Y0082197D02*
X0079096Y0082197D01*
X0078498Y0082796D02*
X0069463Y0082796D01*
X0069463Y0083394D02*
X0078073Y0083394D01*
X0078073Y0083993D02*
X0069463Y0083993D01*
X0069463Y0084591D02*
X0078073Y0084591D01*
X0078310Y0085190D02*
X0069463Y0085190D01*
X0069463Y0085788D02*
X0071605Y0085788D01*
X0071006Y0086387D02*
X0069301Y0086387D01*
X0068703Y0086985D02*
X0070573Y0086985D01*
X0070573Y0087584D02*
X0068104Y0087584D01*
X0067506Y0088182D02*
X0070573Y0088182D01*
X0070802Y0088781D02*
X0066907Y0088781D01*
X0066309Y0089379D02*
X0071363Y0089379D01*
X0071363Y0089978D02*
X0065710Y0089978D01*
X0065112Y0090576D02*
X0071715Y0090576D01*
X0072314Y0091175D02*
X0064513Y0091175D01*
X0063915Y0091773D02*
X0072912Y0091773D01*
X0073511Y0092372D02*
X0063316Y0092372D01*
X0062718Y0092970D02*
X0074109Y0092970D01*
X0074708Y0093569D02*
X0062119Y0093569D01*
X0061521Y0094167D02*
X0075306Y0094167D01*
X0075905Y0094766D02*
X0060922Y0094766D01*
X0060324Y0095365D02*
X0076503Y0095365D01*
X0077102Y0095963D02*
X0059725Y0095963D01*
X0059127Y0096562D02*
X0077700Y0096562D01*
X0078299Y0097160D02*
X0054154Y0097160D01*
X0054154Y0097759D02*
X0061635Y0097759D01*
X0061798Y0097596D02*
X0063529Y0097596D01*
X0064413Y0098480D01*
X0065298Y0097596D01*
X0067029Y0097596D01*
X0068254Y0098820D01*
X0068254Y0100552D01*
X0067029Y0101777D01*
X0066210Y0101777D01*
X0066254Y0101820D01*
X0066254Y0103552D01*
X0065029Y0104777D01*
X0063298Y0104777D01*
X0062663Y0104143D01*
X0062029Y0104777D01*
X0060298Y0104777D01*
X0059073Y0103552D01*
X0059073Y0101820D01*
X0060298Y0100596D01*
X0060616Y0100596D01*
X0060573Y0100552D01*
X0060573Y0098820D01*
X0061798Y0097596D01*
X0061036Y0098357D02*
X0054154Y0098357D01*
X0054154Y0098956D02*
X0060573Y0098956D01*
X0060573Y0099554D02*
X0054154Y0099554D01*
X0054154Y0100153D02*
X0060573Y0100153D01*
X0060142Y0100751D02*
X0054154Y0100751D01*
X0054154Y0101350D02*
X0059544Y0101350D01*
X0059073Y0101948D02*
X0054154Y0101948D01*
X0054147Y0102547D02*
X0059073Y0102547D01*
X0059073Y0103145D02*
X0054154Y0103145D01*
X0054154Y0103744D02*
X0059264Y0103744D01*
X0059863Y0104342D02*
X0054154Y0104342D01*
X0054154Y0104941D02*
X0083861Y0104941D01*
X0083773Y0104342D02*
X0065464Y0104342D01*
X0066063Y0103744D02*
X0083773Y0103744D01*
X0083773Y0103145D02*
X0066254Y0103145D01*
X0066254Y0102547D02*
X0084347Y0102547D01*
X0084945Y0101948D02*
X0066254Y0101948D01*
X0067457Y0101350D02*
X0081870Y0101350D01*
X0081272Y0100751D02*
X0068055Y0100751D01*
X0068254Y0100153D02*
X0081073Y0100153D01*
X0081073Y0099554D02*
X0068254Y0099554D01*
X0068254Y0098956D02*
X0081073Y0098956D01*
X0079496Y0098357D02*
X0067791Y0098357D01*
X0067192Y0097759D02*
X0078897Y0097759D01*
X0080702Y0095886D02*
X0086202Y0095886D01*
X0089202Y0098886D01*
X0089963Y0099648D01*
X0089963Y0099930D01*
X0090207Y0099686D01*
X0089073Y0098552D01*
X0089073Y0097277D01*
X0088298Y0097277D01*
X0087073Y0096052D01*
X0087073Y0094320D01*
X0088298Y0093096D01*
X0090029Y0093096D01*
X0091254Y0094320D01*
X0091254Y0095596D01*
X0092029Y0095596D01*
X0093254Y0096820D01*
X0093254Y0098552D01*
X0092120Y0099686D01*
X0092663Y0100230D01*
X0093298Y0099596D01*
X0095029Y0099596D01*
X0096254Y0100820D01*
X0096254Y0102552D01*
X0096120Y0102686D01*
X0101173Y0102686D01*
X0101173Y0102554D01*
X0101391Y0102336D01*
X0101173Y0102118D01*
X0101173Y0098223D01*
X0101391Y0098005D01*
X0101173Y0097787D01*
X0101173Y0093986D01*
X0098625Y0093986D01*
X0097125Y0092486D01*
X0087702Y0092486D01*
X0087463Y0092725D01*
X0086702Y0093486D01*
X0083702Y0093486D01*
X0082463Y0094725D01*
X0081702Y0095486D01*
X0080302Y0095486D01*
X0080702Y0095886D01*
X0081824Y0095365D02*
X0087073Y0095365D01*
X0087073Y0095963D02*
X0086279Y0095963D01*
X0086877Y0096562D02*
X0087582Y0096562D01*
X0087476Y0097160D02*
X0088181Y0097160D01*
X0088074Y0097759D02*
X0089073Y0097759D01*
X0089073Y0098357D02*
X0088673Y0098357D01*
X0089271Y0098956D02*
X0089476Y0098956D01*
X0089870Y0099554D02*
X0090075Y0099554D01*
X0092252Y0099554D02*
X0101173Y0099554D01*
X0101173Y0098956D02*
X0092851Y0098956D01*
X0093254Y0098357D02*
X0101173Y0098357D01*
X0101173Y0097759D02*
X0093254Y0097759D01*
X0093254Y0097160D02*
X0101173Y0097160D01*
X0101173Y0096562D02*
X0092995Y0096562D01*
X0092397Y0095963D02*
X0101173Y0095963D01*
X0101173Y0095365D02*
X0091254Y0095365D01*
X0091254Y0094766D02*
X0101173Y0094766D01*
X0101173Y0094167D02*
X0091101Y0094167D01*
X0090503Y0093569D02*
X0098208Y0093569D01*
X0097609Y0092970D02*
X0087218Y0092970D01*
X0087824Y0093569D02*
X0083619Y0093569D01*
X0083021Y0094167D02*
X0087226Y0094167D01*
X0087073Y0094766D02*
X0082422Y0094766D01*
X0078073Y0091175D02*
X0077991Y0091175D01*
X0078317Y0090576D02*
X0077392Y0090576D01*
X0076963Y0089978D02*
X0078363Y0089978D01*
X0078363Y0089379D02*
X0077427Y0089379D01*
X0077754Y0088781D02*
X0078363Y0088781D01*
X0078363Y0088182D02*
X0077754Y0088182D01*
X0077754Y0087584D02*
X0078427Y0087584D01*
X0079026Y0086985D02*
X0077419Y0086985D01*
X0076820Y0086387D02*
X0079624Y0086387D01*
X0078909Y0085788D02*
X0073722Y0085788D01*
X0074320Y0086387D02*
X0074506Y0086387D01*
X0081231Y0082197D02*
X0088314Y0082197D01*
X0087716Y0082796D02*
X0081829Y0082796D01*
X0082254Y0083394D02*
X0082617Y0083394D01*
X0090006Y0088182D02*
X0099211Y0088182D01*
X0099298Y0088096D02*
X0101029Y0088096D01*
X0101968Y0089034D01*
X0108351Y0089034D01*
X0108878Y0089562D01*
X0108878Y0090394D01*
X0109442Y0089034D01*
X0110511Y0087965D01*
X0111908Y0087386D01*
X0116463Y0087386D01*
X0116463Y0084986D01*
X0111908Y0084986D01*
X0110511Y0084408D01*
X0109442Y0083339D01*
X0108878Y0081978D01*
X0108878Y0084795D01*
X0108351Y0085323D01*
X0101700Y0085323D01*
X0101173Y0084795D01*
X0101173Y0083486D01*
X0094702Y0083486D01*
X0088302Y0089886D01*
X0098073Y0089886D01*
X0098073Y0089320D01*
X0099298Y0088096D01*
X0098612Y0088781D02*
X0089407Y0088781D01*
X0088809Y0089379D02*
X0098073Y0089379D01*
X0101116Y0088182D02*
X0110293Y0088182D01*
X0109695Y0088781D02*
X0101715Y0088781D01*
X0101567Y0085190D02*
X0092998Y0085190D01*
X0092400Y0085788D02*
X0116463Y0085788D01*
X0116463Y0085190D02*
X0108484Y0085190D01*
X0108878Y0084591D02*
X0110954Y0084591D01*
X0110096Y0083993D02*
X0108878Y0083993D01*
X0108878Y0083394D02*
X0109497Y0083394D01*
X0109217Y0082796D02*
X0108878Y0082796D01*
X0108878Y0082197D02*
X0108969Y0082197D01*
X0111431Y0087584D02*
X0090604Y0087584D01*
X0091203Y0086985D02*
X0116463Y0086985D01*
X0116463Y0086387D02*
X0091801Y0086387D01*
X0093597Y0084591D02*
X0101173Y0084591D01*
X0101173Y0083993D02*
X0094195Y0083993D01*
X0108696Y0089379D02*
X0109299Y0089379D01*
X0109051Y0089978D02*
X0108878Y0089978D01*
X0101173Y0100153D02*
X0095586Y0100153D01*
X0096185Y0100751D02*
X0101173Y0100751D01*
X0101173Y0101350D02*
X0096254Y0101350D01*
X0096254Y0101948D02*
X0101173Y0101948D01*
X0101180Y0102547D02*
X0096254Y0102547D01*
X0095973Y0105539D02*
X0101173Y0105539D01*
X0101173Y0106138D02*
X0096254Y0106138D01*
X0096254Y0106736D02*
X0101321Y0106736D01*
X0101173Y0107335D02*
X0096254Y0107335D01*
X0095873Y0107933D02*
X0101173Y0107933D01*
X0101173Y0108532D02*
X0095275Y0108532D01*
X0093052Y0108532D02*
X0087475Y0108532D01*
X0088054Y0107933D02*
X0092454Y0107933D01*
X0092073Y0107335D02*
X0088054Y0107335D01*
X0088054Y0106736D02*
X0092073Y0106736D01*
X0092073Y0106138D02*
X0087971Y0106138D01*
X0087373Y0105539D02*
X0092354Y0105539D01*
X0089379Y0104941D02*
X0087866Y0104941D01*
X0087954Y0104342D02*
X0088781Y0104342D01*
X0088182Y0103744D02*
X0087954Y0103744D01*
X0087363Y0101948D02*
X0086782Y0101948D01*
X0087363Y0101350D02*
X0084457Y0101350D01*
X0085055Y0100751D02*
X0087363Y0100751D01*
X0086791Y0100153D02*
X0085254Y0100153D01*
X0085254Y0099554D02*
X0086193Y0099554D01*
X0085594Y0098956D02*
X0085254Y0098956D01*
X0092586Y0100153D02*
X0092741Y0100153D01*
X0084460Y0105539D02*
X0078973Y0105539D01*
X0078529Y0105096D02*
X0079754Y0106320D01*
X0079754Y0108052D01*
X0078720Y0109086D01*
X0079754Y0110120D01*
X0079754Y0111852D01*
X0078529Y0113077D01*
X0076798Y0113077D01*
X0075573Y0111852D01*
X0075573Y0110120D01*
X0076607Y0109086D01*
X0075573Y0108052D01*
X0075573Y0106320D01*
X0076798Y0105096D01*
X0078529Y0105096D01*
X0079571Y0106138D02*
X0083956Y0106138D01*
X0083873Y0106736D02*
X0079754Y0106736D01*
X0079754Y0107335D02*
X0083873Y0107335D01*
X0083873Y0107933D02*
X0079754Y0107933D01*
X0079275Y0108532D02*
X0084452Y0108532D01*
X0085051Y0109130D02*
X0078764Y0109130D01*
X0079362Y0109729D02*
X0101173Y0109729D01*
X0101173Y0110327D02*
X0079754Y0110327D01*
X0079754Y0110926D02*
X0101319Y0110926D01*
X0101173Y0109130D02*
X0086876Y0109130D01*
X0092073Y0112320D02*
X0093298Y0111096D01*
X0095029Y0111096D01*
X0096254Y0112320D01*
X0096254Y0114052D01*
X0095029Y0115277D01*
X0093298Y0115277D01*
X0092073Y0114052D01*
X0092073Y0112320D01*
X0092270Y0112123D02*
X0079483Y0112123D01*
X0079754Y0111524D02*
X0092869Y0111524D01*
X0092073Y0112721D02*
X0078885Y0112721D01*
X0078429Y0114396D02*
X0079654Y0115620D01*
X0079654Y0117352D01*
X0079618Y0117388D01*
X0079829Y0117599D01*
X0080047Y0117381D01*
X0083942Y0117381D01*
X0084160Y0117599D01*
X0084239Y0117519D01*
X0083773Y0117052D01*
X0083773Y0115320D01*
X0084998Y0114096D01*
X0086729Y0114096D01*
X0087954Y0115320D01*
X0087954Y0117052D01*
X0087625Y0117381D01*
X0088272Y0117381D01*
X0088490Y0117599D01*
X0088708Y0117381D01*
X0092603Y0117381D01*
X0092821Y0117599D01*
X0093039Y0117381D01*
X0096934Y0117381D01*
X0097461Y0117908D01*
X0097461Y0124559D01*
X0096934Y0125086D01*
X0093039Y0125086D01*
X0092821Y0124869D01*
X0092603Y0125086D01*
X0088708Y0125086D01*
X0088490Y0124869D01*
X0088272Y0125086D01*
X0084377Y0125086D01*
X0084160Y0124869D01*
X0083942Y0125086D01*
X0080047Y0125086D01*
X0079829Y0124869D01*
X0079611Y0125086D01*
X0075716Y0125086D01*
X0075498Y0124869D01*
X0075280Y0125086D01*
X0071385Y0125086D01*
X0071167Y0124869D01*
X0070950Y0125086D01*
X0067054Y0125086D01*
X0066527Y0124559D01*
X0066527Y0117908D01*
X0067054Y0117381D01*
X0068201Y0117381D01*
X0067273Y0116452D01*
X0067273Y0114720D01*
X0068498Y0113496D01*
X0070229Y0113496D01*
X0071454Y0114720D01*
X0071454Y0116452D01*
X0070525Y0117381D01*
X0070950Y0117381D01*
X0071167Y0117599D01*
X0071385Y0117381D01*
X0075280Y0117381D01*
X0075498Y0117599D01*
X0075609Y0117488D01*
X0075473Y0117352D01*
X0075473Y0115620D01*
X0076698Y0114396D01*
X0078429Y0114396D01*
X0078551Y0114517D02*
X0084576Y0114517D01*
X0083978Y0115115D02*
X0079149Y0115115D01*
X0079654Y0115714D02*
X0083773Y0115714D01*
X0083773Y0116312D02*
X0079654Y0116312D01*
X0079654Y0116911D02*
X0083773Y0116911D01*
X0084070Y0117509D02*
X0084230Y0117509D01*
X0087954Y0116911D02*
X0116463Y0116911D01*
X0116463Y0116312D02*
X0087954Y0116312D01*
X0087954Y0115714D02*
X0116463Y0115714D01*
X0116463Y0115115D02*
X0095191Y0115115D01*
X0095789Y0114517D02*
X0110774Y0114517D01*
X0110022Y0113918D02*
X0096254Y0113918D01*
X0096254Y0113320D02*
X0109434Y0113320D01*
X0109186Y0112721D02*
X0096254Y0112721D01*
X0096056Y0112123D02*
X0108938Y0112123D01*
X0108863Y0111524D02*
X0095458Y0111524D01*
X0092073Y0113320D02*
X0062986Y0113320D01*
X0063254Y0113052D02*
X0062620Y0113686D01*
X0063254Y0114320D01*
X0063254Y0116052D01*
X0062029Y0117277D01*
X0060298Y0117277D01*
X0059073Y0116052D01*
X0059073Y0114320D01*
X0059707Y0113686D01*
X0059073Y0113052D01*
X0059073Y0111320D01*
X0059707Y0110686D01*
X0059073Y0110052D01*
X0059073Y0108320D01*
X0060298Y0107096D01*
X0062029Y0107096D01*
X0063254Y0108320D01*
X0063254Y0110052D01*
X0062620Y0110686D01*
X0063254Y0111320D01*
X0063254Y0113052D01*
X0063254Y0112721D02*
X0068642Y0112721D01*
X0068898Y0112977D02*
X0067673Y0111752D01*
X0067673Y0110020D01*
X0068898Y0108796D01*
X0070629Y0108796D01*
X0071854Y0110020D01*
X0071854Y0111752D01*
X0070629Y0112977D01*
X0068898Y0112977D01*
X0068043Y0112123D02*
X0063254Y0112123D01*
X0063254Y0111524D02*
X0067673Y0111524D01*
X0067673Y0110926D02*
X0062859Y0110926D01*
X0062979Y0110327D02*
X0067673Y0110327D01*
X0067965Y0109729D02*
X0063254Y0109729D01*
X0063254Y0109130D02*
X0068563Y0109130D01*
X0070964Y0109130D02*
X0076563Y0109130D01*
X0076052Y0108532D02*
X0063254Y0108532D01*
X0062867Y0107933D02*
X0075573Y0107933D01*
X0075573Y0107335D02*
X0062268Y0107335D01*
X0060059Y0107335D02*
X0054154Y0107335D01*
X0054154Y0107933D02*
X0059460Y0107933D01*
X0059073Y0108532D02*
X0054154Y0108532D01*
X0054154Y0109130D02*
X0059073Y0109130D01*
X0059073Y0109729D02*
X0054154Y0109729D01*
X0054154Y0110327D02*
X0059348Y0110327D01*
X0059467Y0110926D02*
X0054008Y0110926D01*
X0054154Y0111524D02*
X0059073Y0111524D01*
X0059073Y0112123D02*
X0054154Y0112123D01*
X0054154Y0112721D02*
X0059073Y0112721D01*
X0059341Y0113320D02*
X0054154Y0113320D01*
X0054154Y0113918D02*
X0059475Y0113918D01*
X0059073Y0114517D02*
X0054154Y0114517D01*
X0054149Y0115115D02*
X0059073Y0115115D01*
X0059073Y0115714D02*
X0038863Y0115714D01*
X0038863Y0116312D02*
X0059333Y0116312D01*
X0059932Y0116911D02*
X0038863Y0116911D01*
X0038863Y0115115D02*
X0046454Y0115115D01*
X0046449Y0114517D02*
X0044553Y0114517D01*
X0045305Y0113918D02*
X0046449Y0113918D01*
X0046449Y0113320D02*
X0045893Y0113320D01*
X0046141Y0112721D02*
X0046449Y0112721D01*
X0046449Y0112123D02*
X0046389Y0112123D01*
X0046449Y0110394D02*
X0046449Y0106884D01*
X0046666Y0106667D01*
X0046449Y0106449D01*
X0046449Y0102554D01*
X0046666Y0102336D01*
X0046449Y0102118D01*
X0046449Y0101978D01*
X0045885Y0103339D01*
X0044816Y0104408D01*
X0043419Y0104986D01*
X0038863Y0104986D01*
X0038863Y0107386D01*
X0043419Y0107386D01*
X0044816Y0107965D01*
X0045885Y0109034D01*
X0046449Y0110394D01*
X0046449Y0110327D02*
X0046421Y0110327D01*
X0046449Y0109729D02*
X0046173Y0109729D01*
X0045925Y0109130D02*
X0046449Y0109130D01*
X0046449Y0108532D02*
X0045383Y0108532D01*
X0044740Y0107933D02*
X0046449Y0107933D01*
X0046449Y0107335D02*
X0038863Y0107335D01*
X0038863Y0106736D02*
X0046597Y0106736D01*
X0046449Y0106138D02*
X0038863Y0106138D01*
X0038863Y0105539D02*
X0046449Y0105539D01*
X0046449Y0104941D02*
X0043529Y0104941D01*
X0044882Y0104342D02*
X0046449Y0104342D01*
X0046449Y0103744D02*
X0045480Y0103744D01*
X0045965Y0103145D02*
X0046449Y0103145D01*
X0046456Y0102547D02*
X0046213Y0102547D01*
X0046449Y0100394D02*
X0046449Y0098223D01*
X0046666Y0098005D01*
X0046449Y0097787D01*
X0046449Y0093892D01*
X0046666Y0093675D01*
X0046449Y0093457D01*
X0046449Y0091978D01*
X0045885Y0093339D01*
X0044816Y0094408D01*
X0043419Y0094986D01*
X0038863Y0094986D01*
X0038863Y0097386D01*
X0043419Y0097386D01*
X0044816Y0097965D01*
X0045885Y0099034D01*
X0046449Y0100394D01*
X0046449Y0100153D02*
X0046348Y0100153D01*
X0046449Y0099554D02*
X0046100Y0099554D01*
X0045807Y0098956D02*
X0046449Y0098956D01*
X0046449Y0098357D02*
X0045208Y0098357D01*
X0044318Y0097759D02*
X0046449Y0097759D01*
X0046449Y0097160D02*
X0038863Y0097160D01*
X0038863Y0096562D02*
X0046449Y0096562D01*
X0046449Y0095963D02*
X0038863Y0095963D01*
X0038863Y0095365D02*
X0046449Y0095365D01*
X0046449Y0094766D02*
X0043951Y0094766D01*
X0045056Y0094167D02*
X0046449Y0094167D01*
X0046561Y0093569D02*
X0045655Y0093569D01*
X0046038Y0092970D02*
X0046449Y0092970D01*
X0046449Y0092372D02*
X0046285Y0092372D01*
X0054154Y0087338D02*
X0055202Y0088386D01*
X0059625Y0088386D01*
X0063863Y0084148D01*
X0063863Y0079390D01*
X0059368Y0083886D01*
X0054154Y0083886D01*
X0054154Y0084795D01*
X0053936Y0085013D01*
X0054154Y0085231D01*
X0054154Y0087338D01*
X0054399Y0087584D02*
X0060427Y0087584D01*
X0059829Y0088182D02*
X0054998Y0088182D01*
X0054154Y0086985D02*
X0061026Y0086985D01*
X0061624Y0086387D02*
X0054154Y0086387D01*
X0054154Y0085788D02*
X0062223Y0085788D01*
X0062821Y0085190D02*
X0054113Y0085190D01*
X0054154Y0084591D02*
X0063420Y0084591D01*
X0063863Y0083993D02*
X0054154Y0083993D01*
X0054154Y0080402D02*
X0058044Y0080402D01*
X0058642Y0079803D02*
X0054154Y0079803D01*
X0054154Y0079205D02*
X0059241Y0079205D01*
X0059839Y0078606D02*
X0054154Y0078606D01*
X0054154Y0078008D02*
X0060438Y0078008D01*
X0060963Y0077409D02*
X0054154Y0077409D01*
X0054154Y0076811D02*
X0060963Y0076811D01*
X0060963Y0076212D02*
X0053797Y0076212D01*
X0046806Y0076212D02*
X0038863Y0076212D01*
X0038863Y0075614D02*
X0060963Y0075614D01*
X0060963Y0075015D02*
X0038863Y0075015D01*
X0038863Y0076811D02*
X0046449Y0076811D01*
X0046449Y0077409D02*
X0043474Y0077409D01*
X0044859Y0078008D02*
X0046449Y0078008D01*
X0046449Y0078606D02*
X0045457Y0078606D01*
X0045956Y0079205D02*
X0046449Y0079205D01*
X0046449Y0079803D02*
X0046204Y0079803D01*
X0044795Y0074417D02*
X0060963Y0074417D01*
X0060963Y0073818D02*
X0045406Y0073818D01*
X0045934Y0073220D02*
X0060963Y0073220D01*
X0060963Y0072621D02*
X0046182Y0072621D01*
X0046430Y0072023D02*
X0046668Y0072023D01*
X0053935Y0072023D02*
X0060963Y0072023D01*
X0060963Y0071424D02*
X0054154Y0071424D01*
X0054154Y0070826D02*
X0060963Y0070826D01*
X0060963Y0070227D02*
X0054154Y0070227D01*
X0054154Y0069629D02*
X0060963Y0069629D01*
X0060963Y0069030D02*
X0054154Y0069030D01*
X0054154Y0068432D02*
X0060963Y0068432D01*
X0060963Y0067833D02*
X0054079Y0067833D01*
X0054154Y0067234D02*
X0060963Y0067234D01*
X0060963Y0066636D02*
X0054154Y0066636D01*
X0054154Y0066037D02*
X0060963Y0066037D01*
X0060963Y0065439D02*
X0054154Y0065439D01*
X0054154Y0064840D02*
X0060963Y0064840D01*
X0060963Y0064242D02*
X0054154Y0064242D01*
X0054154Y0063643D02*
X0060963Y0063643D01*
X0060963Y0063045D02*
X0054154Y0063045D01*
X0069463Y0065439D02*
X0080854Y0065439D01*
X0080573Y0066037D02*
X0069463Y0066037D01*
X0069463Y0066636D02*
X0080573Y0066636D01*
X0080573Y0067234D02*
X0069463Y0067234D01*
X0069463Y0067833D02*
X0080954Y0067833D01*
X0081552Y0068432D02*
X0069463Y0068432D01*
X0069463Y0069030D02*
X0081373Y0069030D01*
X0081373Y0069629D02*
X0069463Y0069629D01*
X0069463Y0070227D02*
X0081373Y0070227D01*
X0081446Y0070826D02*
X0069463Y0070826D01*
X0069463Y0071424D02*
X0082045Y0071424D01*
X0093963Y0069930D02*
X0094298Y0069596D01*
X0095416Y0069596D01*
X0096125Y0068886D01*
X0101173Y0068886D01*
X0101173Y0067908D01*
X0101391Y0067690D01*
X0101187Y0067486D01*
X0100120Y0067486D01*
X0099329Y0068277D01*
X0097598Y0068277D01*
X0096373Y0067052D01*
X0096373Y0065320D01*
X0097598Y0064096D01*
X0099329Y0064096D01*
X0100120Y0064886D01*
X0101173Y0064886D01*
X0101173Y0063577D01*
X0101391Y0063360D01*
X0101173Y0063142D01*
X0101173Y0059247D01*
X0101391Y0059029D01*
X0101173Y0058811D01*
X0101173Y0056986D01*
X0098202Y0056986D01*
X0093963Y0061225D01*
X0093963Y0069930D01*
X0093963Y0069629D02*
X0094265Y0069629D01*
X0093963Y0069030D02*
X0095981Y0069030D01*
X0097154Y0067833D02*
X0093963Y0067833D01*
X0093963Y0068432D02*
X0101173Y0068432D01*
X0101248Y0067833D02*
X0099773Y0067833D01*
X0100074Y0064840D02*
X0101173Y0064840D01*
X0101173Y0064242D02*
X0099476Y0064242D01*
X0101173Y0063643D02*
X0093963Y0063643D01*
X0093963Y0063045D02*
X0101173Y0063045D01*
X0101173Y0062446D02*
X0093963Y0062446D01*
X0093963Y0061848D02*
X0101173Y0061848D01*
X0101173Y0061249D02*
X0093963Y0061249D01*
X0094537Y0060651D02*
X0101173Y0060651D01*
X0101173Y0060052D02*
X0095136Y0060052D01*
X0095734Y0059454D02*
X0101173Y0059454D01*
X0101217Y0058855D02*
X0096333Y0058855D01*
X0096931Y0058257D02*
X0101173Y0058257D01*
X0101173Y0057658D02*
X0097530Y0057658D01*
X0098128Y0057060D02*
X0101173Y0057060D01*
X0108878Y0061978D02*
X0108878Y0063142D01*
X0108661Y0063360D01*
X0108878Y0063577D01*
X0108878Y0067473D01*
X0108661Y0067690D01*
X0108878Y0067908D01*
X0108878Y0070394D01*
X0109442Y0069034D01*
X0110511Y0067965D01*
X0111908Y0067386D01*
X0116463Y0067386D01*
X0116463Y0064986D01*
X0111908Y0064986D01*
X0110511Y0064408D01*
X0109442Y0063339D01*
X0108878Y0061978D01*
X0108878Y0062446D02*
X0109072Y0062446D01*
X0108878Y0063045D02*
X0109320Y0063045D01*
X0109747Y0063643D02*
X0108878Y0063643D01*
X0108878Y0064242D02*
X0110345Y0064242D01*
X0111555Y0064840D02*
X0108878Y0064840D01*
X0108878Y0065439D02*
X0116463Y0065439D01*
X0116463Y0066037D02*
X0108878Y0066037D01*
X0108878Y0066636D02*
X0116463Y0066636D01*
X0116463Y0067234D02*
X0108878Y0067234D01*
X0108803Y0067833D02*
X0110829Y0067833D01*
X0110044Y0068432D02*
X0108878Y0068432D01*
X0108878Y0069030D02*
X0109446Y0069030D01*
X0109196Y0069629D02*
X0108878Y0069629D01*
X0108878Y0070227D02*
X0108948Y0070227D01*
X0096555Y0067234D02*
X0093963Y0067234D01*
X0093963Y0066636D02*
X0096373Y0066636D01*
X0096373Y0066037D02*
X0093963Y0066037D01*
X0093963Y0065439D02*
X0096373Y0065439D01*
X0096853Y0064840D02*
X0093963Y0064840D01*
X0093963Y0064242D02*
X0097451Y0064242D01*
X0081453Y0064840D02*
X0069848Y0064840D01*
X0063863Y0079803D02*
X0063451Y0079803D01*
X0063863Y0080402D02*
X0062852Y0080402D01*
X0062254Y0081000D02*
X0063863Y0081000D01*
X0063863Y0081599D02*
X0061655Y0081599D01*
X0061057Y0082197D02*
X0063863Y0082197D01*
X0063863Y0082796D02*
X0060458Y0082796D01*
X0059860Y0083394D02*
X0063863Y0083394D01*
X0063692Y0097759D02*
X0065135Y0097759D01*
X0064536Y0098357D02*
X0064291Y0098357D01*
X0062863Y0104342D02*
X0062464Y0104342D01*
X0054154Y0105539D02*
X0076354Y0105539D01*
X0075756Y0106138D02*
X0054154Y0106138D01*
X0054006Y0106736D02*
X0075573Y0106736D01*
X0075965Y0109729D02*
X0071562Y0109729D01*
X0071854Y0110327D02*
X0075573Y0110327D01*
X0075573Y0110926D02*
X0071854Y0110926D01*
X0071854Y0111524D02*
X0075573Y0111524D01*
X0075843Y0112123D02*
X0071483Y0112123D01*
X0070885Y0112721D02*
X0076442Y0112721D01*
X0076576Y0114517D02*
X0071251Y0114517D01*
X0071454Y0115115D02*
X0075978Y0115115D01*
X0075473Y0115714D02*
X0071454Y0115714D01*
X0071454Y0116312D02*
X0075473Y0116312D01*
X0075473Y0116911D02*
X0070995Y0116911D01*
X0071078Y0117509D02*
X0071257Y0117509D01*
X0067732Y0116911D02*
X0062395Y0116911D01*
X0062288Y0117381D02*
X0062815Y0117908D01*
X0062815Y0124559D01*
X0062288Y0125086D01*
X0058393Y0125086D01*
X0057866Y0124559D01*
X0057866Y0117908D01*
X0058393Y0117381D01*
X0062288Y0117381D01*
X0062417Y0117509D02*
X0066926Y0117509D01*
X0066527Y0118108D02*
X0062815Y0118108D01*
X0062815Y0118706D02*
X0066527Y0118706D01*
X0066527Y0119305D02*
X0062815Y0119305D01*
X0062815Y0119903D02*
X0066527Y0119903D01*
X0066527Y0120502D02*
X0062815Y0120502D01*
X0062815Y0121101D02*
X0066527Y0121101D01*
X0066527Y0121699D02*
X0062815Y0121699D01*
X0062815Y0122298D02*
X0066527Y0122298D01*
X0066527Y0122896D02*
X0062815Y0122896D01*
X0062815Y0123495D02*
X0066527Y0123495D01*
X0066527Y0124093D02*
X0062815Y0124093D01*
X0062683Y0124692D02*
X0066660Y0124692D01*
X0068063Y0129486D02*
X0068063Y0132259D01*
X0067536Y0132786D01*
X0064991Y0132786D01*
X0064491Y0132286D01*
X0063420Y0132286D01*
X0062629Y0133077D01*
X0062510Y0133077D01*
X0062754Y0133320D01*
X0062754Y0134438D01*
X0063063Y0134748D01*
X0063063Y0141748D01*
X0064702Y0143386D01*
X0070802Y0143386D01*
X0071563Y0144148D01*
X0073002Y0145586D01*
X0074536Y0145586D01*
X0075063Y0146114D01*
X0075063Y0149259D01*
X0074536Y0149786D01*
X0073820Y0149786D01*
X0073954Y0149920D01*
X0073954Y0151296D01*
X0074729Y0151296D01*
X0075954Y0152520D01*
X0075954Y0154252D01*
X0074920Y0155286D01*
X0075063Y0155430D01*
X0075798Y0154696D01*
X0077363Y0154696D01*
X0077363Y0149786D01*
X0075791Y0149786D01*
X0075263Y0149259D01*
X0075263Y0146114D01*
X0075763Y0145614D01*
X0075763Y0144366D01*
X0076303Y0143826D01*
X0072369Y0143826D01*
X0071842Y0143299D01*
X0071842Y0142186D01*
X0071042Y0142186D01*
X0070233Y0141377D01*
X0070098Y0141377D01*
X0068873Y0140152D01*
X0068873Y0138420D01*
X0068979Y0138315D01*
X0064712Y0138315D01*
X0064185Y0137787D01*
X0064185Y0134483D01*
X0064712Y0133956D01*
X0069094Y0133956D01*
X0068763Y0133625D01*
X0068763Y0132759D01*
X0068263Y0132259D01*
X0068263Y0129486D01*
X0068063Y0129486D01*
X0068063Y0130078D02*
X0068263Y0130078D01*
X0068263Y0130677D02*
X0068063Y0130677D01*
X0068063Y0131275D02*
X0068263Y0131275D01*
X0068263Y0131874D02*
X0068063Y0131874D01*
X0067850Y0132472D02*
X0068477Y0132472D01*
X0068763Y0133071D02*
X0062636Y0133071D01*
X0062754Y0133669D02*
X0068808Y0133669D01*
X0064677Y0132472D02*
X0063234Y0132472D01*
X0062754Y0134268D02*
X0064400Y0134268D01*
X0064185Y0134866D02*
X0063063Y0134866D01*
X0063063Y0135465D02*
X0064185Y0135465D01*
X0064185Y0136063D02*
X0063063Y0136063D01*
X0063063Y0136662D02*
X0064185Y0136662D01*
X0064185Y0137260D02*
X0063063Y0137260D01*
X0063063Y0137859D02*
X0064256Y0137859D01*
X0063063Y0138457D02*
X0068873Y0138457D01*
X0068873Y0139056D02*
X0063063Y0139056D01*
X0063063Y0139654D02*
X0068873Y0139654D01*
X0068974Y0140253D02*
X0063063Y0140253D01*
X0063063Y0140851D02*
X0069572Y0140851D01*
X0070306Y0141450D02*
X0063063Y0141450D01*
X0063364Y0142048D02*
X0070904Y0142048D01*
X0071842Y0142647D02*
X0063963Y0142647D01*
X0064561Y0143245D02*
X0071842Y0143245D01*
X0071260Y0143844D02*
X0076285Y0143844D01*
X0075763Y0144442D02*
X0071858Y0144442D01*
X0072457Y0145041D02*
X0075763Y0145041D01*
X0075738Y0145639D02*
X0074589Y0145639D01*
X0075063Y0146238D02*
X0075263Y0146238D01*
X0075263Y0146836D02*
X0075063Y0146836D01*
X0075063Y0147435D02*
X0075263Y0147435D01*
X0075263Y0148034D02*
X0075063Y0148034D01*
X0075063Y0148632D02*
X0075263Y0148632D01*
X0075263Y0149231D02*
X0075063Y0149231D01*
X0073863Y0149829D02*
X0077363Y0149829D01*
X0077363Y0150428D02*
X0073954Y0150428D01*
X0073954Y0151026D02*
X0077363Y0151026D01*
X0077363Y0151625D02*
X0075058Y0151625D01*
X0075657Y0152223D02*
X0077363Y0152223D01*
X0077363Y0152822D02*
X0075954Y0152822D01*
X0075954Y0153420D02*
X0077363Y0153420D01*
X0077363Y0154019D02*
X0075954Y0154019D01*
X0075589Y0154617D02*
X0077363Y0154617D01*
X0075278Y0155216D02*
X0074991Y0155216D01*
X0071773Y0154019D02*
X0071552Y0154019D01*
X0071773Y0153420D02*
X0069363Y0153420D01*
X0069363Y0152822D02*
X0070942Y0152822D01*
X0070344Y0152223D02*
X0069363Y0152223D01*
X0069363Y0151625D02*
X0069773Y0151625D01*
X0069773Y0151026D02*
X0069363Y0151026D01*
X0069363Y0150428D02*
X0069773Y0150428D01*
X0069864Y0149829D02*
X0069363Y0149829D01*
X0068905Y0149231D02*
X0070463Y0149231D01*
X0071463Y0148632D02*
X0068306Y0148632D01*
X0067708Y0148034D02*
X0071463Y0148034D01*
X0071174Y0147435D02*
X0043537Y0147435D01*
X0044885Y0148034D02*
X0050119Y0148034D01*
X0049521Y0148632D02*
X0045483Y0148632D01*
X0045966Y0149231D02*
X0048922Y0149231D01*
X0048463Y0149829D02*
X0046214Y0149829D01*
X0046462Y0150428D02*
X0048463Y0150428D01*
X0048463Y0151026D02*
X0046463Y0151026D01*
X0046463Y0151625D02*
X0048463Y0151625D01*
X0048463Y0152223D02*
X0046347Y0152223D01*
X0046099Y0152822D02*
X0048463Y0152822D01*
X0048463Y0153420D02*
X0045804Y0153420D01*
X0045205Y0154019D02*
X0048463Y0154019D01*
X0048463Y0154617D02*
X0044311Y0154617D01*
X0048463Y0155216D02*
X0038863Y0155216D01*
X0038863Y0155814D02*
X0048463Y0155814D01*
X0048463Y0156413D02*
X0038863Y0156413D01*
X0038863Y0157011D02*
X0048463Y0157011D01*
X0048463Y0157610D02*
X0043959Y0157610D01*
X0045059Y0158208D02*
X0048463Y0158208D01*
X0048463Y0158807D02*
X0045658Y0158807D01*
X0046039Y0159405D02*
X0048463Y0159405D01*
X0048463Y0160004D02*
X0046287Y0160004D01*
X0046463Y0160602D02*
X0048463Y0160602D01*
X0048463Y0161201D02*
X0046463Y0161201D01*
X0046463Y0161799D02*
X0048463Y0161799D01*
X0048463Y0162398D02*
X0046275Y0162398D01*
X0046027Y0162996D02*
X0048463Y0162996D01*
X0048463Y0163595D02*
X0045629Y0163595D01*
X0045030Y0164193D02*
X0048463Y0164193D01*
X0048463Y0164792D02*
X0043889Y0164792D01*
X0044380Y0167784D02*
X0070189Y0167784D01*
X0070189Y0168383D02*
X0045234Y0168383D01*
X0045833Y0168981D02*
X0070189Y0168981D01*
X0070189Y0169580D02*
X0067596Y0169580D01*
X0068195Y0170178D02*
X0070189Y0170178D01*
X0070189Y0170777D02*
X0068354Y0170777D01*
X0068354Y0171375D02*
X0070189Y0171375D01*
X0069755Y0171974D02*
X0068354Y0171974D01*
X0070885Y0175086D02*
X0071785Y0174186D01*
X0079631Y0174186D01*
X0080019Y0173798D01*
X0083588Y0173798D01*
X0084232Y0173154D01*
X0084232Y0167912D01*
X0083588Y0167267D01*
X0078763Y0167267D01*
X0078763Y0166846D01*
X0078822Y0166905D01*
X0083505Y0166905D01*
X0084032Y0166378D01*
X0084032Y0164286D01*
X0086791Y0164286D01*
X0087091Y0164586D01*
X0090236Y0164586D01*
X0090536Y0164286D01*
X0093642Y0164286D01*
X0093679Y0164323D01*
X0093679Y0166796D01*
X0093689Y0166805D01*
X0093689Y0168122D01*
X0094216Y0168649D01*
X0096143Y0168649D01*
X0096163Y0168628D01*
X0096184Y0168649D01*
X0098111Y0168649D01*
X0098638Y0168122D01*
X0098638Y0166805D01*
X0098648Y0166796D01*
X0098648Y0164386D01*
X0100295Y0164386D01*
X0100295Y0166378D01*
X0100822Y0166905D01*
X0105505Y0166905D01*
X0106032Y0166378D01*
X0106032Y0161302D01*
X0105505Y0160775D01*
X0100822Y0160775D01*
X0100773Y0160823D01*
X0100736Y0160786D01*
X0097591Y0160786D01*
X0097063Y0161314D01*
X0097063Y0161665D01*
X0096526Y0162202D01*
X0096163Y0162565D01*
X0095801Y0162202D01*
X0094885Y0161286D01*
X0094220Y0161286D01*
X0094863Y0160643D01*
X0095298Y0161077D01*
X0097029Y0161077D01*
X0098254Y0159852D01*
X0098254Y0158120D01*
X0097770Y0157636D01*
X0098554Y0156852D01*
X0098554Y0155120D01*
X0098520Y0155086D01*
X0098907Y0155086D01*
X0098873Y0155120D01*
X0098873Y0156852D01*
X0100098Y0158077D01*
X0101829Y0158077D01*
X0103054Y0156852D01*
X0103054Y0155315D01*
X0106263Y0158525D01*
X0106263Y0173125D01*
X0107025Y0173886D01*
X0110930Y0177791D01*
X0110511Y0177965D01*
X0109442Y0179034D01*
X0108863Y0180430D01*
X0108863Y0181886D01*
X0107763Y0181886D01*
X0107763Y0181614D01*
X0107586Y0181436D01*
X0107763Y0181259D01*
X0107763Y0178714D01*
X0107236Y0178186D01*
X0104091Y0178186D01*
X0103563Y0178714D01*
X0103563Y0181259D01*
X0104091Y0181786D01*
X0104163Y0181786D01*
X0104163Y0184486D01*
X0100243Y0184486D01*
X0100545Y0183759D01*
X0100545Y0182613D01*
X0100106Y0181554D01*
X0099295Y0180744D01*
X0098237Y0180305D01*
X0097090Y0180305D01*
X0096031Y0180744D01*
X0095221Y0181554D01*
X0095163Y0181693D01*
X0095106Y0181554D01*
X0094738Y0181186D01*
X0095002Y0181186D01*
X0095702Y0180486D01*
X0096463Y0179725D01*
X0096463Y0179352D01*
X0096670Y0179146D01*
X0096670Y0175251D01*
X0096143Y0174723D01*
X0094216Y0174723D01*
X0094195Y0174744D01*
X0094174Y0174723D01*
X0092563Y0174723D01*
X0092563Y0173648D01*
X0090563Y0171648D01*
X0090563Y0171648D01*
X0090161Y0171245D01*
X0091154Y0170252D01*
X0091154Y0168520D01*
X0089929Y0167296D01*
X0088198Y0167296D01*
X0086973Y0168520D01*
X0086973Y0170120D01*
X0085773Y0171320D01*
X0085773Y0173052D01*
X0086957Y0174236D01*
X0086873Y0174320D01*
X0086873Y0176052D01*
X0087507Y0176686D01*
X0086873Y0177320D01*
X0086873Y0179052D01*
X0088098Y0180277D01*
X0089829Y0180277D01*
X0090122Y0179984D01*
X0090625Y0180486D01*
X0090957Y0180818D01*
X0090221Y0181554D01*
X0089782Y0182613D01*
X0089782Y0183759D01*
X0090221Y0184818D01*
X0091031Y0185629D01*
X0092090Y0186067D01*
X0092463Y0186067D01*
X0092463Y0186097D01*
X0090444Y0186097D01*
X0089917Y0186625D01*
X0089917Y0192685D01*
X0090444Y0193212D01*
X0092765Y0193212D01*
X0092884Y0193093D01*
X0093003Y0193212D01*
X0095324Y0193212D01*
X0095443Y0193093D01*
X0095562Y0193212D01*
X0097883Y0193212D01*
X0097963Y0193132D01*
X0097963Y0195546D01*
X0094775Y0195546D01*
X0094248Y0196073D01*
X0094248Y0204299D01*
X0094775Y0204826D01*
X0101426Y0204826D01*
X0101953Y0204299D01*
X0101953Y0196886D01*
X0103963Y0196886D01*
X0103963Y0204683D01*
X0104266Y0204986D01*
X0063963Y0204986D01*
X0063963Y0176725D01*
X0065602Y0175086D01*
X0070885Y0175086D01*
X0071005Y0174967D02*
X0086873Y0174967D01*
X0086873Y0175565D02*
X0065123Y0175565D01*
X0064525Y0176164D02*
X0086984Y0176164D01*
X0087431Y0176762D02*
X0063963Y0176762D01*
X0063963Y0177361D02*
X0086873Y0177361D01*
X0086873Y0177959D02*
X0063963Y0177959D01*
X0063963Y0178558D02*
X0086873Y0178558D01*
X0086977Y0179156D02*
X0063963Y0179156D01*
X0063963Y0179755D02*
X0087575Y0179755D01*
X0090492Y0180353D02*
X0063963Y0180353D01*
X0063963Y0180952D02*
X0090824Y0180952D01*
X0090225Y0181550D02*
X0063963Y0181550D01*
X0063963Y0182149D02*
X0089975Y0182149D01*
X0089782Y0182747D02*
X0063963Y0182747D01*
X0063963Y0183346D02*
X0089782Y0183346D01*
X0089859Y0183944D02*
X0063963Y0183944D01*
X0063963Y0184543D02*
X0084851Y0184543D01*
X0085198Y0184196D02*
X0086929Y0184196D01*
X0088154Y0185420D01*
X0088154Y0187152D01*
X0087054Y0188252D01*
X0087054Y0188552D01*
X0085829Y0189777D01*
X0084098Y0189777D01*
X0082873Y0188552D01*
X0082873Y0186820D01*
X0083973Y0185720D01*
X0083973Y0185420D01*
X0085198Y0184196D01*
X0084252Y0185141D02*
X0063963Y0185141D01*
X0063963Y0185740D02*
X0083954Y0185740D01*
X0083355Y0186338D02*
X0063963Y0186338D01*
X0063963Y0186937D02*
X0082873Y0186937D01*
X0082873Y0187535D02*
X0063963Y0187535D01*
X0063963Y0188134D02*
X0072837Y0188134D01*
X0073027Y0187944D02*
X0080072Y0187944D01*
X0080599Y0188471D01*
X0080599Y0201028D01*
X0080072Y0201555D01*
X0073027Y0201555D01*
X0072500Y0201028D01*
X0072500Y0193807D01*
X0072029Y0194277D01*
X0070298Y0194277D01*
X0069073Y0193052D01*
X0069073Y0191320D01*
X0070298Y0190096D01*
X0072029Y0190096D01*
X0072500Y0190566D01*
X0072500Y0188471D01*
X0073027Y0187944D01*
X0072500Y0188732D02*
X0063963Y0188732D01*
X0063963Y0189331D02*
X0072500Y0189331D01*
X0072500Y0189929D02*
X0063963Y0189929D01*
X0063963Y0190528D02*
X0069865Y0190528D01*
X0069267Y0191126D02*
X0063963Y0191126D01*
X0063963Y0191725D02*
X0069073Y0191725D01*
X0069073Y0192323D02*
X0063963Y0192323D01*
X0063963Y0192922D02*
X0069073Y0192922D01*
X0069541Y0193520D02*
X0063963Y0193520D01*
X0063963Y0194119D02*
X0070140Y0194119D01*
X0072187Y0194119D02*
X0072500Y0194119D01*
X0072500Y0194717D02*
X0063963Y0194717D01*
X0063963Y0195316D02*
X0072500Y0195316D01*
X0072500Y0195914D02*
X0063963Y0195914D01*
X0063963Y0196513D02*
X0072500Y0196513D01*
X0072500Y0197111D02*
X0063963Y0197111D01*
X0063963Y0197710D02*
X0072500Y0197710D01*
X0072500Y0198308D02*
X0063963Y0198308D01*
X0063963Y0198907D02*
X0072500Y0198907D01*
X0072500Y0199505D02*
X0063963Y0199505D01*
X0063963Y0200104D02*
X0072500Y0200104D01*
X0072500Y0200703D02*
X0063963Y0200703D01*
X0063963Y0201301D02*
X0072773Y0201301D01*
X0080325Y0201301D02*
X0086374Y0201301D01*
X0086374Y0200703D02*
X0080599Y0200703D01*
X0080599Y0200104D02*
X0086374Y0200104D01*
X0086374Y0199505D02*
X0080599Y0199505D01*
X0080599Y0198907D02*
X0086374Y0198907D01*
X0086374Y0198308D02*
X0080599Y0198308D01*
X0080599Y0197710D02*
X0086374Y0197710D01*
X0086374Y0197111D02*
X0080599Y0197111D01*
X0080599Y0196513D02*
X0086374Y0196513D01*
X0086374Y0196034D02*
X0086901Y0195507D01*
X0093552Y0195507D01*
X0094079Y0196034D01*
X0094079Y0204260D01*
X0093552Y0204787D01*
X0086901Y0204787D01*
X0086374Y0204260D01*
X0086374Y0196034D01*
X0086493Y0195914D02*
X0080599Y0195914D01*
X0080599Y0195316D02*
X0097963Y0195316D01*
X0097963Y0194717D02*
X0080599Y0194717D01*
X0080599Y0194119D02*
X0097963Y0194119D01*
X0097963Y0193520D02*
X0087828Y0193520D01*
X0087348Y0194000D02*
X0085624Y0194000D01*
X0084405Y0192781D01*
X0084405Y0191057D01*
X0085624Y0189838D01*
X0087348Y0189838D01*
X0088567Y0191057D01*
X0088567Y0192781D01*
X0087348Y0194000D01*
X0088426Y0192922D02*
X0090154Y0192922D01*
X0089917Y0192323D02*
X0088567Y0192323D01*
X0088567Y0191725D02*
X0089917Y0191725D01*
X0089917Y0191126D02*
X0088567Y0191126D01*
X0088039Y0190528D02*
X0089917Y0190528D01*
X0089917Y0189929D02*
X0087440Y0189929D01*
X0086275Y0189331D02*
X0089917Y0189331D01*
X0089917Y0188732D02*
X0086874Y0188732D01*
X0087173Y0188134D02*
X0089917Y0188134D01*
X0089917Y0187535D02*
X0087771Y0187535D01*
X0088154Y0186937D02*
X0089917Y0186937D01*
X0090203Y0186338D02*
X0088154Y0186338D01*
X0088154Y0185740D02*
X0091299Y0185740D01*
X0090544Y0185141D02*
X0087875Y0185141D01*
X0087276Y0184543D02*
X0090107Y0184543D01*
X0095102Y0181550D02*
X0095225Y0181550D01*
X0095237Y0180952D02*
X0095824Y0180952D01*
X0095835Y0180353D02*
X0096975Y0180353D01*
X0096434Y0179755D02*
X0100475Y0179755D01*
X0100598Y0179877D02*
X0100237Y0179516D01*
X0100080Y0179673D01*
X0098153Y0179673D01*
X0097626Y0179146D01*
X0097626Y0175251D01*
X0098153Y0174723D01*
X0100080Y0174723D01*
X0100373Y0175017D01*
X0100373Y0173820D01*
X0100709Y0173485D01*
X0100295Y0173071D01*
X0100295Y0167995D01*
X0100822Y0167467D01*
X0105505Y0167467D01*
X0106032Y0167995D01*
X0106032Y0173071D01*
X0105505Y0173598D01*
X0104914Y0173598D01*
X0105702Y0174386D01*
X0107236Y0174386D01*
X0107763Y0174914D01*
X0107763Y0177459D01*
X0107236Y0177986D01*
X0104091Y0177986D01*
X0103563Y0177459D01*
X0103563Y0176543D01*
X0103370Y0176736D01*
X0103554Y0176920D01*
X0103554Y0178652D01*
X0102329Y0179877D01*
X0100598Y0179877D01*
X0099503Y0180952D02*
X0103563Y0180952D01*
X0103563Y0180353D02*
X0098352Y0180353D01*
X0097636Y0179156D02*
X0096659Y0179156D01*
X0096670Y0178558D02*
X0097626Y0178558D01*
X0097626Y0177959D02*
X0096670Y0177959D01*
X0096670Y0177361D02*
X0097626Y0177361D01*
X0097626Y0176762D02*
X0096670Y0176762D01*
X0096670Y0176164D02*
X0097626Y0176164D01*
X0097626Y0175565D02*
X0096670Y0175565D01*
X0096386Y0174967D02*
X0097910Y0174967D01*
X0100323Y0174967D02*
X0100373Y0174967D01*
X0100373Y0174368D02*
X0092563Y0174368D01*
X0092563Y0173770D02*
X0100424Y0173770D01*
X0100395Y0173171D02*
X0092087Y0173171D01*
X0091488Y0172572D02*
X0100295Y0172572D01*
X0100295Y0171974D02*
X0090890Y0171974D01*
X0090291Y0171375D02*
X0100295Y0171375D01*
X0100295Y0170777D02*
X0090629Y0170777D01*
X0091154Y0170178D02*
X0100295Y0170178D01*
X0100295Y0169580D02*
X0091154Y0169580D01*
X0091154Y0168981D02*
X0100295Y0168981D01*
X0100295Y0168383D02*
X0098377Y0168383D01*
X0098638Y0167784D02*
X0100505Y0167784D01*
X0100504Y0166587D02*
X0098648Y0166587D01*
X0098648Y0165989D02*
X0100295Y0165989D01*
X0100295Y0165390D02*
X0098648Y0165390D01*
X0098648Y0164792D02*
X0100295Y0164792D01*
X0098638Y0167186D02*
X0106263Y0167186D01*
X0106263Y0167784D02*
X0105822Y0167784D01*
X0106032Y0168383D02*
X0106263Y0168383D01*
X0106263Y0168981D02*
X0106032Y0168981D01*
X0106032Y0169580D02*
X0106263Y0169580D01*
X0106263Y0170178D02*
X0106032Y0170178D01*
X0106032Y0170777D02*
X0106263Y0170777D01*
X0106263Y0171375D02*
X0106032Y0171375D01*
X0106032Y0171974D02*
X0106263Y0171974D01*
X0106263Y0172572D02*
X0106032Y0172572D01*
X0105932Y0173171D02*
X0106310Y0173171D01*
X0106908Y0173770D02*
X0105085Y0173770D01*
X0105684Y0174368D02*
X0107507Y0174368D01*
X0107763Y0174967D02*
X0108105Y0174967D01*
X0107763Y0175565D02*
X0108704Y0175565D01*
X0109302Y0176164D02*
X0107763Y0176164D01*
X0107763Y0176762D02*
X0109901Y0176762D01*
X0110499Y0177361D02*
X0107763Y0177361D01*
X0107263Y0177959D02*
X0110525Y0177959D01*
X0109918Y0178558D02*
X0107608Y0178558D01*
X0107763Y0179156D02*
X0109391Y0179156D01*
X0109143Y0179755D02*
X0107763Y0179755D01*
X0107763Y0180353D02*
X0108895Y0180353D01*
X0108863Y0180952D02*
X0107763Y0180952D01*
X0107700Y0181550D02*
X0108863Y0181550D01*
X0104163Y0182149D02*
X0100352Y0182149D01*
X0100545Y0182747D02*
X0104163Y0182747D01*
X0104163Y0183346D02*
X0100545Y0183346D01*
X0100468Y0183944D02*
X0104163Y0183944D01*
X0103855Y0181550D02*
X0100102Y0181550D01*
X0102452Y0179755D02*
X0103563Y0179755D01*
X0103563Y0179156D02*
X0103050Y0179156D01*
X0103554Y0178558D02*
X0103719Y0178558D01*
X0103554Y0177959D02*
X0104063Y0177959D01*
X0103563Y0177361D02*
X0103554Y0177361D01*
X0103563Y0176762D02*
X0103396Y0176762D01*
X0108863Y0172048D02*
X0108938Y0172123D01*
X0108863Y0171942D01*
X0108863Y0170430D01*
X0109442Y0169034D01*
X0110511Y0167965D01*
X0111908Y0167386D01*
X0116463Y0167386D01*
X0116463Y0154986D01*
X0111908Y0154986D01*
X0110511Y0154408D01*
X0109442Y0153339D01*
X0108863Y0151942D01*
X0108863Y0150430D01*
X0109217Y0149578D01*
X0105625Y0145986D01*
X0097420Y0145986D01*
X0097754Y0146320D01*
X0097754Y0148052D01*
X0097095Y0148712D01*
X0099658Y0148712D01*
X0100186Y0149239D01*
X0100186Y0152486D01*
X0103902Y0152486D01*
X0104663Y0153248D01*
X0108102Y0156686D01*
X0108863Y0157448D01*
X0108863Y0172048D01*
X0108863Y0171974D02*
X0108877Y0171974D01*
X0108863Y0171375D02*
X0108863Y0171375D01*
X0108863Y0170777D02*
X0108863Y0170777D01*
X0108863Y0170178D02*
X0108968Y0170178D01*
X0108863Y0169580D02*
X0109216Y0169580D01*
X0109494Y0168981D02*
X0108863Y0168981D01*
X0108863Y0168383D02*
X0110093Y0168383D01*
X0110947Y0167784D02*
X0108863Y0167784D01*
X0108863Y0167186D02*
X0116463Y0167186D01*
X0116463Y0166587D02*
X0108863Y0166587D01*
X0108863Y0165989D02*
X0116463Y0165989D01*
X0116463Y0165390D02*
X0108863Y0165390D01*
X0108863Y0164792D02*
X0116463Y0164792D01*
X0116463Y0164193D02*
X0108863Y0164193D01*
X0108863Y0163595D02*
X0116463Y0163595D01*
X0116463Y0162996D02*
X0108863Y0162996D01*
X0108863Y0162398D02*
X0116463Y0162398D01*
X0116463Y0161799D02*
X0108863Y0161799D01*
X0108863Y0161201D02*
X0116463Y0161201D01*
X0116463Y0160602D02*
X0108863Y0160602D01*
X0108863Y0160004D02*
X0116463Y0160004D01*
X0116463Y0159405D02*
X0108863Y0159405D01*
X0108863Y0158807D02*
X0116463Y0158807D01*
X0116463Y0158208D02*
X0108863Y0158208D01*
X0108863Y0157610D02*
X0116463Y0157610D01*
X0116463Y0157011D02*
X0108427Y0157011D01*
X0107828Y0156413D02*
X0116463Y0156413D01*
X0116463Y0155814D02*
X0107230Y0155814D01*
X0106631Y0155216D02*
X0116463Y0155216D01*
X0111016Y0154617D02*
X0106033Y0154617D01*
X0105434Y0154019D02*
X0110122Y0154019D01*
X0109523Y0153420D02*
X0104836Y0153420D01*
X0104663Y0153248D02*
X0104663Y0153248D01*
X0104237Y0152822D02*
X0109228Y0152822D01*
X0108980Y0152223D02*
X0100186Y0152223D01*
X0100186Y0151625D02*
X0108863Y0151625D01*
X0108863Y0151026D02*
X0100186Y0151026D01*
X0100186Y0150428D02*
X0108865Y0150428D01*
X0109113Y0149829D02*
X0100186Y0149829D01*
X0100177Y0149231D02*
X0108869Y0149231D01*
X0108271Y0148632D02*
X0097174Y0148632D01*
X0097754Y0148034D02*
X0107672Y0148034D01*
X0107074Y0147435D02*
X0097754Y0147435D01*
X0097754Y0146836D02*
X0106475Y0146836D01*
X0105877Y0146238D02*
X0097672Y0146238D01*
X0092863Y0142647D02*
X0092864Y0142647D01*
X0092863Y0142048D02*
X0093463Y0142048D01*
X0092863Y0141450D02*
X0099185Y0141450D01*
X0099185Y0140851D02*
X0092863Y0140851D01*
X0094535Y0140253D02*
X0099517Y0140253D01*
X0098946Y0137260D02*
X0116463Y0137260D01*
X0116463Y0136662D02*
X0099544Y0136662D01*
X0099754Y0136063D02*
X0116463Y0136063D01*
X0116463Y0135465D02*
X0099754Y0135465D01*
X0099754Y0134866D02*
X0111618Y0134866D01*
X0110371Y0134268D02*
X0099301Y0134268D01*
X0098703Y0133669D02*
X0109772Y0133669D01*
X0109331Y0133071D02*
X0095786Y0133071D01*
X0095602Y0132886D02*
X0095602Y0132886D01*
X0095934Y0132472D02*
X0109083Y0132472D01*
X0108863Y0131874D02*
X0096533Y0131874D01*
X0096554Y0131275D02*
X0108863Y0131275D01*
X0108863Y0130677D02*
X0096554Y0130677D01*
X0096512Y0130078D02*
X0109009Y0130078D01*
X0109257Y0129480D02*
X0095913Y0129480D01*
X0094197Y0128881D02*
X0109595Y0128881D01*
X0110193Y0128283D02*
X0093598Y0128283D01*
X0093000Y0127684D02*
X0111189Y0127684D01*
X0116463Y0127086D02*
X0092401Y0127086D01*
X0091125Y0129486D02*
X0081754Y0129486D01*
X0081754Y0129752D01*
X0080529Y0130977D01*
X0078863Y0130977D01*
X0078863Y0131330D01*
X0078998Y0131196D01*
X0080729Y0131196D01*
X0081954Y0132420D01*
X0081954Y0134152D01*
X0081560Y0134546D01*
X0082958Y0134546D01*
X0083485Y0135073D01*
X0083485Y0137209D01*
X0083598Y0137096D01*
X0085329Y0137096D01*
X0086063Y0137830D01*
X0086798Y0137096D01*
X0088529Y0137096D01*
X0089320Y0137886D01*
X0093225Y0137886D01*
X0093763Y0137348D01*
X0093763Y0134725D01*
X0093725Y0134686D01*
X0091725Y0134686D01*
X0091416Y0134377D01*
X0090298Y0134377D01*
X0089073Y0133152D01*
X0089073Y0131420D01*
X0090298Y0130196D01*
X0091834Y0130196D01*
X0091125Y0129486D01*
X0091717Y0130078D02*
X0081428Y0130078D01*
X0080830Y0130677D02*
X0089817Y0130677D01*
X0089218Y0131275D02*
X0080809Y0131275D01*
X0081407Y0131874D02*
X0089073Y0131874D01*
X0089073Y0132472D02*
X0081954Y0132472D01*
X0081954Y0133071D02*
X0089073Y0133071D01*
X0089590Y0133669D02*
X0081954Y0133669D01*
X0081839Y0134268D02*
X0090188Y0134268D01*
X0088694Y0137260D02*
X0093763Y0137260D01*
X0093763Y0136662D02*
X0083485Y0136662D01*
X0083485Y0136063D02*
X0093763Y0136063D01*
X0093763Y0135465D02*
X0083485Y0135465D01*
X0083278Y0134866D02*
X0093763Y0134866D01*
X0096363Y0133669D02*
X0096624Y0133669D01*
X0096381Y0137260D02*
X0096363Y0137260D01*
X0096363Y0137859D02*
X0110767Y0137859D01*
X0110018Y0138457D02*
X0096331Y0138457D01*
X0095732Y0139056D02*
X0109433Y0139056D01*
X0109185Y0139654D02*
X0095134Y0139654D01*
X0093252Y0137859D02*
X0089292Y0137859D01*
X0086633Y0137260D02*
X0085494Y0137260D01*
X0078918Y0131275D02*
X0078863Y0131275D01*
X0077024Y0126487D02*
X0075303Y0126487D01*
X0074704Y0125889D02*
X0077623Y0125889D01*
X0081704Y0125889D02*
X0116463Y0125889D01*
X0116463Y0126487D02*
X0082303Y0126487D01*
X0097329Y0124692D02*
X0111196Y0124692D01*
X0110196Y0124093D02*
X0097461Y0124093D01*
X0097461Y0123495D02*
X0109598Y0123495D01*
X0109259Y0122896D02*
X0097461Y0122896D01*
X0097461Y0122298D02*
X0109011Y0122298D01*
X0108863Y0121699D02*
X0097461Y0121699D01*
X0097461Y0121101D02*
X0108863Y0121101D01*
X0108863Y0120502D02*
X0097461Y0120502D01*
X0097461Y0119903D02*
X0109082Y0119903D01*
X0109330Y0119305D02*
X0097461Y0119305D01*
X0097461Y0118706D02*
X0109769Y0118706D01*
X0110368Y0118108D02*
X0097461Y0118108D01*
X0097063Y0117509D02*
X0111610Y0117509D01*
X0108863Y0110926D02*
X0108732Y0110926D01*
X0093136Y0115115D02*
X0087749Y0115115D01*
X0087151Y0114517D02*
X0092538Y0114517D01*
X0092073Y0113918D02*
X0070652Y0113918D01*
X0068075Y0113918D02*
X0062852Y0113918D01*
X0063254Y0114517D02*
X0067476Y0114517D01*
X0067273Y0115115D02*
X0063254Y0115115D01*
X0063254Y0115714D02*
X0067273Y0115714D01*
X0067273Y0116312D02*
X0062994Y0116312D01*
X0058264Y0117509D02*
X0043717Y0117509D01*
X0044959Y0118108D02*
X0057866Y0118108D01*
X0057866Y0118706D02*
X0045558Y0118706D01*
X0045997Y0119305D02*
X0051088Y0119305D01*
X0051298Y0119096D02*
X0053029Y0119096D01*
X0054254Y0120320D01*
X0054254Y0122052D01*
X0053029Y0123277D01*
X0051754Y0123277D01*
X0051754Y0124052D01*
X0050529Y0125277D01*
X0048798Y0125277D01*
X0047573Y0124052D01*
X0047573Y0122320D01*
X0048798Y0121096D01*
X0050073Y0121096D01*
X0050073Y0120320D01*
X0051298Y0119096D01*
X0050490Y0119903D02*
X0046245Y0119903D01*
X0046463Y0120502D02*
X0050073Y0120502D01*
X0048793Y0121101D02*
X0046463Y0121101D01*
X0046463Y0121699D02*
X0048194Y0121699D01*
X0047596Y0122298D02*
X0046316Y0122298D01*
X0046068Y0122896D02*
X0047573Y0122896D01*
X0047573Y0123495D02*
X0045729Y0123495D01*
X0045131Y0124093D02*
X0047614Y0124093D01*
X0048212Y0124692D02*
X0044131Y0124692D01*
X0038863Y0125290D02*
X0116463Y0125290D01*
X0092910Y0117509D02*
X0092732Y0117509D01*
X0088579Y0117509D02*
X0088401Y0117509D01*
X0079918Y0117509D02*
X0079740Y0117509D01*
X0075587Y0117509D02*
X0075409Y0117509D01*
X0057866Y0119305D02*
X0053239Y0119305D01*
X0053837Y0119903D02*
X0057866Y0119903D01*
X0057866Y0120502D02*
X0054254Y0120502D01*
X0054254Y0121101D02*
X0057866Y0121101D01*
X0057866Y0121699D02*
X0054254Y0121699D01*
X0054009Y0122298D02*
X0057866Y0122298D01*
X0057866Y0122896D02*
X0053410Y0122896D01*
X0051754Y0123495D02*
X0057866Y0123495D01*
X0057866Y0124093D02*
X0051713Y0124093D01*
X0051115Y0124692D02*
X0057998Y0124692D01*
X0057123Y0125889D02*
X0038863Y0125889D01*
X0038863Y0126487D02*
X0056524Y0126487D01*
X0055926Y0127086D02*
X0038863Y0127086D01*
X0044138Y0127684D02*
X0055327Y0127684D01*
X0054729Y0128283D02*
X0045134Y0128283D01*
X0045732Y0128881D02*
X0054130Y0128881D01*
X0053532Y0129480D02*
X0046070Y0129480D01*
X0046318Y0130078D02*
X0052933Y0130078D01*
X0052335Y0130677D02*
X0046463Y0130677D01*
X0046463Y0131275D02*
X0051736Y0131275D01*
X0051482Y0131874D02*
X0046463Y0131874D01*
X0046244Y0132472D02*
X0051482Y0132472D01*
X0051482Y0133071D02*
X0045996Y0133071D01*
X0045555Y0133669D02*
X0051482Y0133669D01*
X0049636Y0134268D02*
X0044956Y0134268D01*
X0044400Y0134866D02*
X0049421Y0134866D01*
X0049421Y0135465D02*
X0044854Y0135465D01*
X0044854Y0136063D02*
X0049421Y0136063D01*
X0049421Y0136662D02*
X0044854Y0136662D01*
X0044646Y0137260D02*
X0049421Y0137260D01*
X0049492Y0137859D02*
X0044560Y0137859D01*
X0045308Y0138457D02*
X0057478Y0138457D01*
X0056879Y0137859D02*
X0056071Y0137859D01*
X0056142Y0137260D02*
X0056573Y0137260D01*
X0056573Y0136662D02*
X0056142Y0136662D01*
X0056142Y0136063D02*
X0056573Y0136063D01*
X0056863Y0135465D02*
X0056142Y0135465D01*
X0056142Y0134866D02*
X0056863Y0134866D01*
X0056863Y0134268D02*
X0055927Y0134268D01*
X0056863Y0133669D02*
X0054082Y0133669D01*
X0054082Y0133071D02*
X0056863Y0133071D01*
X0056863Y0132472D02*
X0054216Y0132472D01*
X0054815Y0131874D02*
X0056863Y0131874D01*
X0056863Y0131275D02*
X0055413Y0131275D01*
X0056012Y0130677D02*
X0056863Y0130677D01*
X0056863Y0130078D02*
X0056610Y0130078D01*
X0060447Y0137859D02*
X0060463Y0137859D01*
X0060463Y0138457D02*
X0059849Y0138457D01*
X0060463Y0139056D02*
X0045894Y0139056D01*
X0046142Y0139654D02*
X0060463Y0139654D01*
X0060463Y0140253D02*
X0046390Y0140253D01*
X0046463Y0140851D02*
X0060463Y0140851D01*
X0060463Y0141450D02*
X0046463Y0141450D01*
X0046419Y0142048D02*
X0060463Y0142048D01*
X0060463Y0142647D02*
X0046172Y0142647D01*
X0045924Y0143245D02*
X0060884Y0143245D01*
X0061483Y0143844D02*
X0045380Y0143844D01*
X0044732Y0144442D02*
X0062081Y0144442D01*
X0062680Y0145041D02*
X0038863Y0145041D01*
X0038863Y0145639D02*
X0063278Y0145639D01*
X0066663Y0148686D02*
X0059163Y0148686D01*
X0058163Y0149686D01*
X0058163Y0162186D01*
X0057163Y0163186D01*
X0055663Y0163186D01*
X0054663Y0164186D01*
X0054663Y0166186D01*
X0062463Y0166186D01*
X0062463Y0162886D01*
X0064163Y0161186D01*
X0067163Y0161186D01*
X0068163Y0160186D01*
X0068163Y0150186D01*
X0066663Y0148686D01*
X0067208Y0149231D02*
X0058619Y0149231D01*
X0058163Y0149829D02*
X0067806Y0149829D01*
X0068163Y0150428D02*
X0058163Y0150428D01*
X0058163Y0151026D02*
X0068163Y0151026D01*
X0068163Y0151625D02*
X0058163Y0151625D01*
X0058163Y0152223D02*
X0068163Y0152223D01*
X0068163Y0152822D02*
X0058163Y0152822D01*
X0058163Y0153420D02*
X0068163Y0153420D01*
X0068163Y0154019D02*
X0058163Y0154019D01*
X0058163Y0154617D02*
X0068163Y0154617D01*
X0068163Y0155216D02*
X0058163Y0155216D01*
X0058163Y0155814D02*
X0068163Y0155814D01*
X0068163Y0156413D02*
X0058163Y0156413D01*
X0058163Y0157011D02*
X0068163Y0157011D01*
X0068163Y0157610D02*
X0058163Y0157610D01*
X0058163Y0158208D02*
X0068163Y0158208D01*
X0068163Y0158807D02*
X0058163Y0158807D01*
X0058163Y0159405D02*
X0068163Y0159405D01*
X0068163Y0160004D02*
X0058163Y0160004D01*
X0058163Y0160602D02*
X0067748Y0160602D01*
X0068846Y0161201D02*
X0068963Y0161201D01*
X0068963Y0161799D02*
X0068248Y0161799D01*
X0069348Y0162398D02*
X0064649Y0162398D01*
X0064051Y0162996D02*
X0069946Y0162996D01*
X0070189Y0163595D02*
X0063663Y0163595D01*
X0063663Y0164193D02*
X0070189Y0164193D01*
X0070189Y0164792D02*
X0063663Y0164792D01*
X0063663Y0165390D02*
X0070189Y0165390D01*
X0070496Y0165989D02*
X0063663Y0165989D01*
X0063663Y0166587D02*
X0074563Y0166587D01*
X0070694Y0167186D02*
X0063161Y0167186D01*
X0062463Y0165989D02*
X0054663Y0165989D01*
X0054663Y0165390D02*
X0062463Y0165390D01*
X0062463Y0164792D02*
X0054663Y0164792D01*
X0054663Y0164193D02*
X0062463Y0164193D01*
X0062463Y0163595D02*
X0055255Y0163595D01*
X0054156Y0162996D02*
X0053051Y0162996D01*
X0053558Y0163595D02*
X0052452Y0163595D01*
X0051863Y0164193D02*
X0053463Y0164193D01*
X0053463Y0164792D02*
X0051863Y0164792D01*
X0051863Y0165390D02*
X0053463Y0165390D01*
X0053463Y0165989D02*
X0051863Y0165989D01*
X0051863Y0166587D02*
X0053463Y0166587D01*
X0053966Y0167186D02*
X0051361Y0167186D01*
X0050663Y0166186D02*
X0049663Y0166186D01*
X0049663Y0150186D01*
X0051163Y0148686D01*
X0055163Y0148686D01*
X0056163Y0149686D01*
X0056163Y0160186D01*
X0055163Y0161186D01*
X0053163Y0161186D01*
X0050663Y0163686D01*
X0050663Y0166186D01*
X0050663Y0165989D02*
X0049663Y0165989D01*
X0049663Y0165390D02*
X0050663Y0165390D01*
X0050663Y0164792D02*
X0049663Y0164792D01*
X0049663Y0164193D02*
X0050663Y0164193D01*
X0050755Y0163595D02*
X0049663Y0163595D01*
X0049663Y0162996D02*
X0051354Y0162996D01*
X0051952Y0162398D02*
X0049663Y0162398D01*
X0049663Y0161799D02*
X0052551Y0161799D01*
X0053149Y0161201D02*
X0049663Y0161201D01*
X0049663Y0160602D02*
X0055748Y0160602D01*
X0056163Y0160004D02*
X0049663Y0160004D01*
X0049663Y0159405D02*
X0056163Y0159405D01*
X0056163Y0158807D02*
X0049663Y0158807D01*
X0049663Y0158208D02*
X0056163Y0158208D01*
X0056163Y0157610D02*
X0049663Y0157610D01*
X0049663Y0157011D02*
X0056163Y0157011D01*
X0056163Y0156413D02*
X0049663Y0156413D01*
X0049663Y0155814D02*
X0056163Y0155814D01*
X0056163Y0155216D02*
X0049663Y0155216D01*
X0049663Y0154617D02*
X0056163Y0154617D01*
X0056163Y0154019D02*
X0049663Y0154019D01*
X0049663Y0153420D02*
X0056163Y0153420D01*
X0056163Y0152822D02*
X0049663Y0152822D01*
X0049663Y0152223D02*
X0056163Y0152223D01*
X0056163Y0151625D02*
X0049663Y0151625D01*
X0049663Y0151026D02*
X0056163Y0151026D01*
X0056163Y0150428D02*
X0049663Y0150428D01*
X0050021Y0149829D02*
X0056163Y0149829D01*
X0055708Y0149231D02*
X0050619Y0149231D01*
X0056208Y0148034D02*
X0058119Y0148034D01*
X0057521Y0148632D02*
X0056806Y0148632D01*
X0069977Y0146238D02*
X0038863Y0146238D01*
X0038863Y0146836D02*
X0070575Y0146836D01*
X0080163Y0152615D02*
X0080163Y0154358D01*
X0083168Y0154358D01*
X0083695Y0154885D01*
X0083695Y0157206D01*
X0083168Y0157733D01*
X0079666Y0157733D01*
X0079420Y0157486D01*
X0078754Y0157486D01*
X0078754Y0157652D01*
X0078320Y0158086D01*
X0078813Y0158580D01*
X0079598Y0157796D01*
X0081329Y0157796D01*
X0082554Y0159020D01*
X0082554Y0160752D01*
X0082532Y0160775D01*
X0083073Y0160775D01*
X0083073Y0159520D01*
X0084298Y0158296D01*
X0084933Y0158296D01*
X0085927Y0157301D01*
X0085832Y0157206D01*
X0085832Y0155606D01*
X0083825Y0153599D01*
X0083063Y0152837D01*
X0083063Y0152615D01*
X0080163Y0152615D01*
X0080163Y0152822D02*
X0083063Y0152822D01*
X0083646Y0153420D02*
X0080163Y0153420D01*
X0080163Y0154019D02*
X0084245Y0154019D01*
X0084843Y0154617D02*
X0083427Y0154617D01*
X0083695Y0155216D02*
X0085442Y0155216D01*
X0085832Y0155814D02*
X0083695Y0155814D01*
X0083695Y0156413D02*
X0085832Y0156413D01*
X0085832Y0157011D02*
X0083695Y0157011D01*
X0083291Y0157610D02*
X0085619Y0157610D01*
X0085020Y0158208D02*
X0081742Y0158208D01*
X0082340Y0158807D02*
X0083787Y0158807D01*
X0083188Y0159405D02*
X0082554Y0159405D01*
X0082554Y0160004D02*
X0083073Y0160004D01*
X0083073Y0160602D02*
X0082554Y0160602D01*
X0079185Y0158208D02*
X0078442Y0158208D01*
X0078754Y0157610D02*
X0079543Y0157610D01*
X0084032Y0164792D02*
X0093679Y0164792D01*
X0093679Y0165390D02*
X0084032Y0165390D01*
X0084032Y0165989D02*
X0093679Y0165989D01*
X0093679Y0166587D02*
X0083823Y0166587D01*
X0084105Y0167784D02*
X0087709Y0167784D01*
X0087110Y0168383D02*
X0084232Y0168383D01*
X0084232Y0168981D02*
X0086973Y0168981D01*
X0086973Y0169580D02*
X0084232Y0169580D01*
X0084232Y0170178D02*
X0086915Y0170178D01*
X0086316Y0170777D02*
X0084232Y0170777D01*
X0084232Y0171375D02*
X0085773Y0171375D01*
X0085773Y0171974D02*
X0084232Y0171974D01*
X0084232Y0172572D02*
X0085773Y0172572D01*
X0085892Y0173171D02*
X0084215Y0173171D01*
X0083616Y0173770D02*
X0086490Y0173770D01*
X0086873Y0174368D02*
X0071603Y0174368D01*
X0062331Y0169580D02*
X0046111Y0169580D01*
X0046359Y0170178D02*
X0061732Y0170178D01*
X0061234Y0170777D02*
X0046463Y0170777D01*
X0046463Y0171375D02*
X0051277Y0171375D01*
X0050963Y0171974D02*
X0046450Y0171974D01*
X0046202Y0172572D02*
X0050963Y0172572D01*
X0050963Y0173171D02*
X0045954Y0173171D01*
X0045454Y0173770D02*
X0050963Y0173770D01*
X0050963Y0174368D02*
X0044856Y0174368D01*
X0043467Y0174967D02*
X0050686Y0174967D01*
X0050088Y0175565D02*
X0038863Y0175565D01*
X0038863Y0176164D02*
X0049963Y0176164D01*
X0049963Y0176762D02*
X0038863Y0176762D01*
X0038863Y0177361D02*
X0049963Y0177361D01*
X0049963Y0177959D02*
X0038863Y0177959D01*
X0038863Y0178558D02*
X0049963Y0178558D01*
X0049963Y0179156D02*
X0038863Y0179156D01*
X0038863Y0179755D02*
X0049963Y0179755D01*
X0049963Y0180353D02*
X0038863Y0180353D01*
X0038863Y0180952D02*
X0049963Y0180952D01*
X0049963Y0181550D02*
X0038863Y0181550D01*
X0038863Y0182149D02*
X0049963Y0182149D01*
X0049963Y0182747D02*
X0038863Y0182747D01*
X0038863Y0183346D02*
X0049963Y0183346D01*
X0049963Y0183944D02*
X0038863Y0183944D01*
X0038863Y0184543D02*
X0049951Y0184543D01*
X0049473Y0185141D02*
X0038863Y0185141D01*
X0038863Y0185740D02*
X0049473Y0185740D01*
X0049473Y0186338D02*
X0038863Y0186338D01*
X0038863Y0186937D02*
X0049657Y0186937D01*
X0050256Y0187535D02*
X0043779Y0187535D01*
X0044985Y0188134D02*
X0046065Y0188134D01*
X0045728Y0188732D02*
X0045583Y0188732D01*
X0051163Y0186186D02*
X0052663Y0187686D01*
X0054663Y0187686D01*
X0055663Y0187186D01*
X0055663Y0172186D01*
X0052163Y0172186D01*
X0052163Y0175186D01*
X0051163Y0176186D01*
X0051163Y0186186D01*
X0051315Y0186338D02*
X0055663Y0186338D01*
X0055663Y0185740D02*
X0051163Y0185740D01*
X0051163Y0185141D02*
X0055663Y0185141D01*
X0055663Y0184543D02*
X0051163Y0184543D01*
X0051163Y0183944D02*
X0055663Y0183944D01*
X0055663Y0183346D02*
X0051163Y0183346D01*
X0051163Y0182747D02*
X0055663Y0182747D01*
X0055663Y0182149D02*
X0051163Y0182149D01*
X0051163Y0181550D02*
X0055663Y0181550D01*
X0055663Y0180952D02*
X0051163Y0180952D01*
X0051163Y0180353D02*
X0055663Y0180353D01*
X0055663Y0179755D02*
X0051163Y0179755D01*
X0051163Y0179156D02*
X0055663Y0179156D01*
X0055663Y0178558D02*
X0051163Y0178558D01*
X0051163Y0177959D02*
X0055663Y0177959D01*
X0055663Y0177361D02*
X0051163Y0177361D01*
X0051163Y0176762D02*
X0055663Y0176762D01*
X0055663Y0176164D02*
X0051186Y0176164D01*
X0051785Y0175565D02*
X0055663Y0175565D01*
X0055663Y0174967D02*
X0052163Y0174967D01*
X0052163Y0174368D02*
X0055663Y0174368D01*
X0055663Y0173770D02*
X0052163Y0173770D01*
X0052163Y0173171D02*
X0055663Y0173171D01*
X0055663Y0172572D02*
X0052163Y0172572D01*
X0056550Y0171375D02*
X0060636Y0171375D01*
X0058037Y0171974D02*
X0056863Y0171974D01*
X0056863Y0172572D02*
X0057439Y0172572D01*
X0048966Y0167186D02*
X0038863Y0167186D01*
X0038863Y0166587D02*
X0048463Y0166587D01*
X0048463Y0165989D02*
X0038863Y0165989D01*
X0038863Y0165390D02*
X0048463Y0165390D01*
X0053649Y0162398D02*
X0054755Y0162398D01*
X0057354Y0162996D02*
X0062463Y0162996D01*
X0062952Y0162398D02*
X0057952Y0162398D01*
X0058163Y0161799D02*
X0063551Y0161799D01*
X0064149Y0161201D02*
X0058163Y0161201D01*
X0078763Y0167186D02*
X0093689Y0167186D01*
X0093689Y0167784D02*
X0090418Y0167784D01*
X0091017Y0168383D02*
X0093949Y0168383D01*
X0095996Y0162398D02*
X0096331Y0162398D01*
X0096929Y0161799D02*
X0095398Y0161799D01*
X0094305Y0161201D02*
X0097176Y0161201D01*
X0097504Y0160602D02*
X0106263Y0160602D01*
X0106263Y0160004D02*
X0098103Y0160004D01*
X0098254Y0159405D02*
X0106263Y0159405D01*
X0106263Y0158807D02*
X0098254Y0158807D01*
X0098254Y0158208D02*
X0105947Y0158208D01*
X0105348Y0157610D02*
X0102297Y0157610D01*
X0102895Y0157011D02*
X0104750Y0157011D01*
X0104151Y0156413D02*
X0103054Y0156413D01*
X0103054Y0155814D02*
X0103553Y0155814D01*
X0099630Y0157610D02*
X0097797Y0157610D01*
X0098395Y0157011D02*
X0099032Y0157011D01*
X0098873Y0156413D02*
X0098554Y0156413D01*
X0098554Y0155814D02*
X0098873Y0155814D01*
X0098873Y0155216D02*
X0098554Y0155216D01*
X0105931Y0161201D02*
X0106263Y0161201D01*
X0106263Y0161799D02*
X0106032Y0161799D01*
X0106032Y0162398D02*
X0106263Y0162398D01*
X0106263Y0162996D02*
X0106032Y0162996D01*
X0106032Y0163595D02*
X0106263Y0163595D01*
X0106263Y0164193D02*
X0106032Y0164193D01*
X0106032Y0164792D02*
X0106263Y0164792D01*
X0106263Y0165390D02*
X0106032Y0165390D01*
X0106032Y0165989D02*
X0106263Y0165989D01*
X0106263Y0166587D02*
X0105823Y0166587D01*
X0109163Y0185686D02*
X0100163Y0185686D01*
X0099163Y0186686D01*
X0099163Y0195546D01*
X0101426Y0195546D01*
X0101566Y0195686D01*
X0103088Y0195686D01*
X0103352Y0195422D01*
X0104479Y0194956D01*
X0105698Y0194956D01*
X0106825Y0195422D01*
X0107687Y0196285D01*
X0108154Y0197411D01*
X0108154Y0202961D01*
X0107687Y0204088D01*
X0107589Y0204186D01*
X0116163Y0204186D01*
X0116163Y0194986D01*
X0111908Y0194986D01*
X0110511Y0194408D01*
X0110289Y0194186D01*
X0109163Y0194186D01*
X0109163Y0192666D01*
X0108863Y0191942D01*
X0108863Y0190430D01*
X0109163Y0189706D01*
X0109163Y0185686D01*
X0109163Y0185740D02*
X0100110Y0185740D01*
X0099512Y0186338D02*
X0109163Y0186338D01*
X0109163Y0186937D02*
X0099163Y0186937D01*
X0099163Y0187535D02*
X0109163Y0187535D01*
X0109163Y0188134D02*
X0099163Y0188134D01*
X0099163Y0188732D02*
X0109163Y0188732D01*
X0109163Y0189331D02*
X0099163Y0189331D01*
X0099163Y0189929D02*
X0100887Y0189929D01*
X0100979Y0189838D02*
X0102703Y0189838D01*
X0103922Y0191057D01*
X0103922Y0192781D01*
X0102703Y0194000D01*
X0100979Y0194000D01*
X0099760Y0192781D01*
X0099760Y0191057D01*
X0100979Y0189838D01*
X0100288Y0190528D02*
X0099163Y0190528D01*
X0099163Y0191126D02*
X0099760Y0191126D01*
X0099760Y0191725D02*
X0099163Y0191725D01*
X0099163Y0192323D02*
X0099760Y0192323D01*
X0099901Y0192922D02*
X0099163Y0192922D01*
X0099163Y0193520D02*
X0100499Y0193520D01*
X0099163Y0194119D02*
X0109163Y0194119D01*
X0109163Y0193520D02*
X0103182Y0193520D01*
X0103780Y0192922D02*
X0109163Y0192922D01*
X0109021Y0192323D02*
X0103922Y0192323D01*
X0103922Y0191725D02*
X0108863Y0191725D01*
X0108863Y0191126D02*
X0103922Y0191126D01*
X0103393Y0190528D02*
X0108863Y0190528D01*
X0109071Y0189929D02*
X0102794Y0189929D01*
X0103609Y0195316D02*
X0099163Y0195316D01*
X0099163Y0194717D02*
X0111258Y0194717D01*
X0107782Y0196513D02*
X0116163Y0196513D01*
X0116163Y0197111D02*
X0108030Y0197111D01*
X0108154Y0197710D02*
X0116163Y0197710D01*
X0116163Y0198308D02*
X0108154Y0198308D01*
X0108154Y0198907D02*
X0116163Y0198907D01*
X0116163Y0199505D02*
X0108154Y0199505D01*
X0108154Y0200104D02*
X0116163Y0200104D01*
X0116163Y0200703D02*
X0108154Y0200703D01*
X0108154Y0201301D02*
X0116163Y0201301D01*
X0116163Y0201900D02*
X0108154Y0201900D01*
X0108154Y0202498D02*
X0116163Y0202498D01*
X0116163Y0203097D02*
X0108098Y0203097D01*
X0107850Y0203695D02*
X0116163Y0203695D01*
X0104172Y0204892D02*
X0063963Y0204892D01*
X0063963Y0204294D02*
X0086407Y0204294D01*
X0086374Y0203695D02*
X0063963Y0203695D01*
X0063963Y0203097D02*
X0086374Y0203097D01*
X0086374Y0202498D02*
X0063963Y0202498D01*
X0063963Y0201900D02*
X0086374Y0201900D01*
X0094079Y0201900D02*
X0094248Y0201900D01*
X0094248Y0202498D02*
X0094079Y0202498D01*
X0094079Y0203097D02*
X0094248Y0203097D01*
X0094248Y0203695D02*
X0094079Y0203695D01*
X0094046Y0204294D02*
X0094248Y0204294D01*
X0094248Y0201301D02*
X0094079Y0201301D01*
X0094079Y0200703D02*
X0094248Y0200703D01*
X0094248Y0200104D02*
X0094079Y0200104D01*
X0094079Y0199505D02*
X0094248Y0199505D01*
X0094248Y0198907D02*
X0094079Y0198907D01*
X0094079Y0198308D02*
X0094248Y0198308D01*
X0094248Y0197710D02*
X0094079Y0197710D01*
X0094079Y0197111D02*
X0094248Y0197111D01*
X0094248Y0196513D02*
X0094079Y0196513D01*
X0093960Y0195914D02*
X0094407Y0195914D01*
X0101953Y0197111D02*
X0103963Y0197111D01*
X0103963Y0197710D02*
X0101953Y0197710D01*
X0101953Y0198308D02*
X0103963Y0198308D01*
X0103963Y0198907D02*
X0101953Y0198907D01*
X0101953Y0199505D02*
X0103963Y0199505D01*
X0103963Y0200104D02*
X0101953Y0200104D01*
X0101953Y0200703D02*
X0103963Y0200703D01*
X0103963Y0201301D02*
X0101953Y0201301D01*
X0101953Y0201900D02*
X0103963Y0201900D01*
X0103963Y0202498D02*
X0101953Y0202498D01*
X0101953Y0203097D02*
X0103963Y0203097D01*
X0103963Y0203695D02*
X0101953Y0203695D01*
X0101953Y0204294D02*
X0103963Y0204294D01*
X0107317Y0195914D02*
X0116163Y0195914D01*
X0116163Y0195316D02*
X0106568Y0195316D01*
X0085145Y0193520D02*
X0080599Y0193520D01*
X0080599Y0192922D02*
X0084546Y0192922D01*
X0084405Y0192323D02*
X0080599Y0192323D01*
X0080599Y0191725D02*
X0084405Y0191725D01*
X0084405Y0191126D02*
X0080599Y0191126D01*
X0080599Y0190528D02*
X0084934Y0190528D01*
X0085532Y0189929D02*
X0080599Y0189929D01*
X0080599Y0189331D02*
X0083651Y0189331D01*
X0083053Y0188732D02*
X0080599Y0188732D01*
X0080262Y0188134D02*
X0082873Y0188134D01*
X0072500Y0190528D02*
X0072461Y0190528D01*
X0055663Y0186937D02*
X0051914Y0186937D01*
X0052512Y0187535D02*
X0054966Y0187535D01*
X0110152Y0146836D02*
X0116463Y0146836D01*
X0116463Y0146238D02*
X0109554Y0146238D01*
X0108955Y0145639D02*
X0116463Y0145639D01*
X0116463Y0145041D02*
X0108357Y0145041D01*
X0107758Y0144442D02*
X0110595Y0144442D01*
X0109947Y0143844D02*
X0107160Y0143844D01*
X0105906Y0143245D02*
X0109403Y0143245D01*
X0109155Y0142647D02*
X0105906Y0142647D01*
X0105906Y0142048D02*
X0108907Y0142048D01*
X0108863Y0141450D02*
X0105906Y0141450D01*
X0105906Y0140851D02*
X0108863Y0140851D01*
X0108937Y0140253D02*
X0105574Y0140253D01*
X0110751Y0147435D02*
X0111790Y0147435D01*
X0101641Y0046287D02*
X0095402Y0046287D01*
X0096000Y0045688D02*
X0101173Y0045688D01*
D43*
X0104711Y0044186D02*
X0095663Y0044186D01*
X0091163Y0048686D01*
X0091163Y0073186D01*
X0090463Y0073886D01*
X0092663Y0075186D02*
X0091163Y0076686D01*
X0091163Y0081186D01*
X0087663Y0084686D01*
X0083163Y0084686D01*
X0079663Y0088186D01*
X0079663Y0091186D01*
X0080163Y0091686D01*
X0079163Y0094186D02*
X0075663Y0090686D01*
X0075663Y0088186D01*
X0072663Y0087686D02*
X0072663Y0089686D01*
X0080163Y0097186D01*
X0085663Y0097186D01*
X0088663Y0100186D01*
X0088663Y0102386D01*
X0090263Y0103986D01*
X0104511Y0103986D01*
X0104711Y0104186D02*
X0105026Y0104501D01*
X0105024Y0104458D01*
X0105019Y0104416D01*
X0105010Y0104375D01*
X0104998Y0104334D01*
X0104983Y0104294D01*
X0104964Y0104256D01*
X0104942Y0104219D01*
X0104917Y0104185D01*
X0104890Y0104152D01*
X0104860Y0104122D01*
X0104827Y0104095D01*
X0104793Y0104070D01*
X0104756Y0104048D01*
X0104718Y0104029D01*
X0104678Y0104014D01*
X0104637Y0104002D01*
X0104596Y0103993D01*
X0104554Y0103988D01*
X0104511Y0103986D01*
X0083163Y0092186D02*
X0081163Y0094186D01*
X0079163Y0094186D01*
X0083163Y0092186D02*
X0086163Y0092186D01*
X0087163Y0091186D01*
X0097663Y0091186D01*
X0099163Y0092686D01*
X0103849Y0092686D01*
X0105026Y0091509D01*
X0105026Y0082848D02*
X0104364Y0082186D01*
X0094163Y0082186D01*
X0086663Y0089686D01*
X0085163Y0089686D01*
X0084163Y0087186D02*
X0082163Y0089186D01*
X0084163Y0087186D02*
X0087163Y0087186D01*
X0092663Y0081686D01*
X0092663Y0077186D01*
X0094463Y0075386D01*
X0103826Y0075386D01*
X0105026Y0074186D01*
X0104695Y0070186D02*
X0096663Y0070186D01*
X0095163Y0071686D01*
X0092663Y0075186D02*
X0092663Y0060686D01*
X0097663Y0055686D01*
X0103849Y0055686D01*
X0105026Y0056863D01*
X0105026Y0065525D02*
X0104364Y0066186D01*
X0098463Y0066186D01*
X0104695Y0070186D02*
X0105026Y0069856D01*
X0096294Y0078517D02*
X0095363Y0077586D01*
X0096294Y0078517D02*
X0105026Y0078517D01*
X0082663Y0050186D02*
X0068163Y0064686D01*
X0068163Y0085686D01*
X0058010Y0095840D01*
X0050301Y0095840D01*
X0050301Y0091509D02*
X0060341Y0091509D01*
X0066663Y0085186D01*
X0066663Y0064186D01*
X0079663Y0051186D01*
X0079663Y0049686D01*
X0082663Y0050186D02*
X0082663Y0047686D01*
X0080663Y0045686D01*
X0077163Y0045686D01*
X0072163Y0045686D02*
X0072163Y0056686D01*
X0065163Y0063686D01*
X0065163Y0084686D01*
X0060163Y0089686D01*
X0054663Y0089686D01*
X0052156Y0087178D01*
X0050301Y0087178D01*
X0058163Y0126686D02*
X0073663Y0126686D01*
X0075163Y0128186D01*
X0077163Y0128186D01*
X0078663Y0126686D01*
X0080663Y0126686D01*
X0082163Y0128186D01*
X0091663Y0128186D01*
X0094463Y0130986D01*
X0094263Y0133386D02*
X0095063Y0134186D01*
X0095063Y0137886D01*
X0093763Y0139186D01*
X0091763Y0139186D01*
X0091563Y0139386D01*
X0091563Y0143686D01*
X0088163Y0147086D01*
X0088163Y0147386D01*
X0088110Y0147440D01*
X0088110Y0150927D01*
X0084363Y0152299D02*
X0084363Y0147386D01*
X0080616Y0141352D02*
X0077063Y0144904D01*
X0077063Y0147686D01*
X0073263Y0147686D02*
X0070263Y0144686D01*
X0064163Y0144686D01*
X0061763Y0142286D01*
X0061763Y0135286D01*
X0060663Y0134186D01*
X0058163Y0136186D02*
X0058663Y0136686D01*
X0058163Y0136186D02*
X0058163Y0129286D01*
X0059263Y0128186D01*
X0071163Y0128186D01*
X0073263Y0130286D01*
X0073263Y0130686D01*
X0070063Y0130686D02*
X0070063Y0133086D01*
X0073998Y0137021D01*
X0074711Y0137021D01*
X0077063Y0134086D02*
X0079998Y0137021D01*
X0080616Y0137021D01*
X0077063Y0134086D02*
X0077063Y0130686D01*
X0066263Y0130686D02*
X0065963Y0130986D01*
X0061763Y0130986D01*
X0058163Y0126686D02*
X0052782Y0132068D01*
X0052782Y0136135D01*
X0084363Y0152299D02*
X0088110Y0156045D01*
X0090463Y0153886D02*
X0090963Y0154386D01*
X0094963Y0154386D01*
X0095563Y0153786D01*
X0103363Y0153786D01*
X0107563Y0157986D01*
X0107563Y0172586D01*
X0112663Y0177686D01*
X0112663Y0181186D01*
X0110663Y0183186D01*
X0105963Y0183186D01*
X0105663Y0182886D01*
X0105663Y0179986D01*
X0101463Y0177786D02*
X0100875Y0177198D01*
X0099116Y0177198D01*
X0095179Y0177198D02*
X0095163Y0177214D01*
X0095163Y0179186D01*
X0094463Y0179886D01*
X0091863Y0179886D01*
X0091163Y0179186D01*
X0091163Y0177286D01*
X0089063Y0175186D01*
X0088963Y0175186D01*
X0091263Y0175386D02*
X0091263Y0174186D01*
X0089263Y0172186D01*
X0087863Y0172186D01*
X0081163Y0170533D02*
X0079010Y0172686D01*
X0071163Y0172686D01*
X0070263Y0173586D01*
X0065763Y0173586D01*
X0064963Y0172786D01*
X0091263Y0175386D02*
X0093075Y0177198D01*
X0093211Y0177198D01*
X0102463Y0174686D02*
X0104163Y0174686D01*
X0105663Y0176186D01*
X0097663Y0151586D02*
X0093563Y0151586D01*
X0092663Y0152486D01*
X0092663Y0148686D02*
X0092963Y0148686D01*
X0093463Y0148186D01*
X0093463Y0145886D01*
X0094663Y0144686D01*
X0106163Y0144686D01*
X0112663Y0151186D01*
X0102545Y0142238D02*
X0101697Y0143086D01*
X0094263Y0143086D01*
X0090463Y0146886D01*
X0091763Y0139186D02*
X0087663Y0139186D01*
X0092263Y0133386D02*
X0094263Y0133386D01*
X0092263Y0133386D02*
X0091163Y0132286D01*
X0085563Y0049286D02*
X0085663Y0049186D01*
X0085663Y0038686D01*
X0087163Y0037186D01*
X0101163Y0037186D01*
X0103140Y0035210D01*
X0105026Y0035210D01*
X0105026Y0043871D02*
X0104711Y0044186D01*
D44*
X0090463Y0146886D02*
X0090463Y0153886D01*
D45*
X0081417Y0156045D02*
X0081376Y0156086D01*
X0079263Y0156086D01*
X0078763Y0155586D01*
X0078763Y0149686D01*
X0080463Y0147986D01*
X0081663Y0147986D01*
X0070363Y0158686D02*
X0070363Y0161434D01*
X0072663Y0163734D01*
X0096663Y0101686D02*
X0097982Y0100367D01*
X0098333Y0100367D01*
D46*
X0064671Y0027139D02*
X0064671Y0018208D01*
D47*
X0064663Y0018200D01*
X0104663Y0187186D02*
X0105263Y0187786D01*
D48*
X0066863Y0171986D02*
X0066863Y0170686D01*
X0066563Y0170386D01*
X0063463Y0170386D01*
X0061163Y0172686D01*
X0059163Y0172686D01*
X0057663Y0174186D01*
X0057663Y0196686D01*
X0062663Y0196686D01*
X0062663Y0176186D01*
X0064132Y0174718D01*
X0064132Y0174571D01*
X0064718Y0173986D01*
X0064864Y0173986D01*
X0066863Y0171986D01*
X0066863Y0171967D02*
X0061883Y0171967D01*
X0062281Y0171569D02*
X0066863Y0171569D01*
X0066863Y0171170D02*
X0062680Y0171170D01*
X0063078Y0170772D02*
X0066863Y0170772D01*
X0066484Y0172366D02*
X0061484Y0172366D01*
X0059086Y0172764D02*
X0066086Y0172764D01*
X0065687Y0173163D02*
X0058687Y0173163D01*
X0058289Y0173561D02*
X0065289Y0173561D01*
X0064890Y0173960D02*
X0057890Y0173960D01*
X0057663Y0174358D02*
X0064345Y0174358D01*
X0064093Y0174757D02*
X0057663Y0174757D01*
X0057663Y0175155D02*
X0063695Y0175155D01*
X0063296Y0175554D02*
X0057663Y0175554D01*
X0057663Y0175952D02*
X0062898Y0175952D01*
X0062663Y0176351D02*
X0057663Y0176351D01*
X0057663Y0176749D02*
X0062663Y0176749D01*
X0062663Y0177148D02*
X0057663Y0177148D01*
X0057663Y0177546D02*
X0062663Y0177546D01*
X0062663Y0177945D02*
X0057663Y0177945D01*
X0057663Y0178343D02*
X0062663Y0178343D01*
X0062663Y0178742D02*
X0057663Y0178742D01*
X0057663Y0179140D02*
X0062663Y0179140D01*
X0062663Y0179539D02*
X0057663Y0179539D01*
X0057663Y0179937D02*
X0062663Y0179937D01*
X0062663Y0180336D02*
X0057663Y0180336D01*
X0057663Y0180734D02*
X0062663Y0180734D01*
X0062663Y0181133D02*
X0057663Y0181133D01*
X0057663Y0181531D02*
X0062663Y0181531D01*
X0062663Y0181930D02*
X0057663Y0181930D01*
X0057663Y0182328D02*
X0062663Y0182328D01*
X0062663Y0182727D02*
X0057663Y0182727D01*
X0057663Y0183125D02*
X0062663Y0183125D01*
X0062663Y0183524D02*
X0057663Y0183524D01*
X0057663Y0183922D02*
X0062663Y0183922D01*
X0062663Y0184321D02*
X0057663Y0184321D01*
X0057663Y0184719D02*
X0062663Y0184719D01*
X0062663Y0185118D02*
X0057663Y0185118D01*
X0057663Y0185516D02*
X0062663Y0185516D01*
X0062663Y0185915D02*
X0057663Y0185915D01*
X0057663Y0186313D02*
X0062663Y0186313D01*
X0062663Y0186712D02*
X0057663Y0186712D01*
X0057663Y0187110D02*
X0062663Y0187110D01*
X0062663Y0187509D02*
X0057663Y0187509D01*
X0057663Y0187907D02*
X0062663Y0187907D01*
X0062663Y0188186D02*
X0056663Y0188186D01*
X0054163Y0190686D01*
X0054163Y0196686D01*
X0053927Y0196686D01*
X0053927Y0201069D01*
X0053341Y0201655D01*
X0046214Y0201655D01*
X0045628Y0201069D01*
X0045628Y0196686D01*
X0038763Y0196686D01*
X0038763Y0205086D01*
X0062663Y0205086D01*
X0062663Y0188186D01*
X0062663Y0188306D02*
X0056544Y0188306D01*
X0056145Y0188705D02*
X0062663Y0188705D01*
X0057663Y0188705D01*
X0057663Y0189103D02*
X0062663Y0189103D01*
X0055747Y0189103D01*
X0055348Y0189502D02*
X0062663Y0189502D01*
X0057663Y0189502D01*
X0057663Y0189900D02*
X0062663Y0189900D01*
X0054950Y0189900D01*
X0054551Y0190299D02*
X0062663Y0190299D01*
X0057663Y0190299D01*
X0057663Y0190697D02*
X0062663Y0190697D01*
X0054163Y0190697D01*
X0054163Y0191096D02*
X0062663Y0191096D01*
X0057663Y0191096D01*
X0057663Y0191494D02*
X0062663Y0191494D01*
X0054163Y0191494D01*
X0054163Y0191893D02*
X0062663Y0191893D01*
X0057663Y0191893D01*
X0057663Y0192291D02*
X0062663Y0192291D01*
X0054163Y0192291D01*
X0054163Y0192690D02*
X0062663Y0192690D01*
X0057663Y0192690D01*
X0057663Y0193088D02*
X0062663Y0193088D01*
X0054163Y0193088D01*
X0054163Y0193487D02*
X0062663Y0193487D01*
X0057663Y0193487D01*
X0057663Y0193885D02*
X0062663Y0193885D01*
X0054163Y0193885D01*
X0054163Y0194284D02*
X0062663Y0194284D01*
X0057663Y0194284D01*
X0057663Y0194682D02*
X0062663Y0194682D01*
X0054163Y0194682D01*
X0054163Y0195081D02*
X0062663Y0195081D01*
X0057663Y0195081D01*
X0057663Y0195479D02*
X0062663Y0195479D01*
X0054163Y0195479D01*
X0054163Y0195878D02*
X0062663Y0195878D01*
X0057663Y0195878D01*
X0057663Y0196276D02*
X0062663Y0196276D01*
X0054163Y0196276D01*
X0054163Y0196675D02*
X0062663Y0196675D01*
X0057663Y0196675D01*
X0053927Y0197073D02*
X0062663Y0197073D01*
X0062663Y0197472D02*
X0053927Y0197472D01*
X0053927Y0197870D02*
X0062663Y0197870D01*
X0062663Y0198269D02*
X0053927Y0198269D01*
X0053927Y0198667D02*
X0062663Y0198667D01*
X0062663Y0199066D02*
X0053927Y0199066D01*
X0053927Y0199464D02*
X0062663Y0199464D01*
X0062663Y0199863D02*
X0053927Y0199863D01*
X0053927Y0200261D02*
X0062663Y0200261D01*
X0062663Y0200660D02*
X0053927Y0200660D01*
X0053927Y0201058D02*
X0062663Y0201058D01*
X0062663Y0201457D02*
X0053539Y0201457D01*
X0046016Y0201457D02*
X0038763Y0201457D01*
X0038763Y0201855D02*
X0062663Y0201855D01*
X0062663Y0202254D02*
X0038763Y0202254D01*
X0038763Y0202652D02*
X0062663Y0202652D01*
X0062663Y0203051D02*
X0038763Y0203051D01*
X0038763Y0203449D02*
X0062663Y0203449D01*
X0062663Y0203848D02*
X0038763Y0203848D01*
X0038763Y0204246D02*
X0062663Y0204246D01*
X0062663Y0204645D02*
X0038763Y0204645D01*
X0038763Y0205043D02*
X0062663Y0205043D01*
X0045628Y0201058D02*
X0038763Y0201058D01*
X0038763Y0200660D02*
X0045628Y0200660D01*
X0045628Y0200261D02*
X0038763Y0200261D01*
X0038763Y0199863D02*
X0045628Y0199863D01*
X0045628Y0199464D02*
X0038763Y0199464D01*
X0038763Y0199066D02*
X0045628Y0199066D01*
X0045628Y0198667D02*
X0038763Y0198667D01*
X0038763Y0198269D02*
X0045628Y0198269D01*
X0045628Y0197870D02*
X0038763Y0197870D01*
X0038763Y0197472D02*
X0045628Y0197472D01*
X0045628Y0197073D02*
X0038763Y0197073D01*
X0057663Y0188306D02*
X0062663Y0188306D01*
M02*
