G75*
%MOIN*%
%OFA0B0*%
%FSLAX25Y25*%
%IPPOS*%
%LPD*%
%AMOC8*
5,1,8,0,0,1.08239X$1,22.5*
%
%ADD10C,0.03569*%
%ADD11C,0.05250*%
%ADD12C,0.02781*%
%ADD13C,0.03962*%
%ADD14C,0.02381*%
%ADD15C,0.00800*%
%ADD16C,0.00600*%
%ADD17C,0.07000*%
%ADD18C,0.02000*%
D10*
X0083238Y0198500D03*
X0105089Y0198500D03*
D11*
X0112663Y0199500D03*
X0112663Y0189500D03*
X0112663Y0179500D03*
X0112663Y0169500D03*
X0112663Y0159500D03*
X0112663Y0149500D03*
X0112663Y0139500D03*
X0112663Y0129500D03*
X0112663Y0119500D03*
X0112663Y0109500D03*
X0112663Y0099500D03*
X0112663Y0089500D03*
X0112663Y0079500D03*
X0112663Y0069500D03*
X0112663Y0059500D03*
X0112663Y0049500D03*
X0112663Y0039500D03*
X0112663Y0029500D03*
X0112663Y0019500D03*
X0042663Y0019500D03*
X0042663Y0029500D03*
X0042663Y0039500D03*
X0042663Y0049500D03*
X0042663Y0059500D03*
X0042663Y0069500D03*
X0042663Y0079500D03*
X0042663Y0089500D03*
X0042663Y0099500D03*
X0042663Y0109500D03*
X0042663Y0119500D03*
X0042663Y0129500D03*
X0042663Y0139500D03*
X0042663Y0149500D03*
X0042663Y0159500D03*
X0042663Y0169500D03*
X0042663Y0179500D03*
X0042663Y0189500D03*
D12*
X0074120Y0181043D03*
X0077663Y0181043D03*
X0081207Y0181043D03*
X0081207Y0177500D03*
X0081207Y0173957D03*
X0077663Y0173957D03*
X0074120Y0173957D03*
X0074120Y0177500D03*
X0077663Y0177500D03*
D13*
X0092663Y0181500D03*
X0097663Y0181500D03*
D14*
X0102163Y0185500D03*
X0104663Y0185500D03*
X0101663Y0176000D03*
X0102463Y0173000D03*
X0108863Y0175600D03*
X0088963Y0176500D03*
X0088963Y0173500D03*
X0087863Y0170500D03*
X0089163Y0167700D03*
X0069163Y0169300D03*
X0066063Y0169600D03*
X0064963Y0171100D03*
X0063863Y0169600D03*
X0058763Y0163000D03*
X0050863Y0162600D03*
X0050863Y0160000D03*
X0047663Y0165000D03*
X0047663Y0167500D03*
X0051163Y0169000D03*
X0058763Y0157100D03*
X0065963Y0156700D03*
X0068963Y0156700D03*
X0074363Y0158300D03*
X0077363Y0158400D03*
X0079163Y0156000D03*
X0081263Y0158200D03*
X0084263Y0158200D03*
X0082163Y0155300D03*
X0086563Y0154100D03*
X0094163Y0154500D03*
X0096163Y0157000D03*
X0093163Y0157700D03*
X0101163Y0154500D03*
X0102163Y0158000D03*
X0081663Y0146300D03*
X0076763Y0150400D03*
X0077363Y0153500D03*
X0074663Y0155000D03*
X0071663Y0154000D03*
X0073863Y0151700D03*
X0071863Y0149100D03*
X0068863Y0150000D03*
X0070963Y0137600D03*
X0058663Y0138000D03*
X0058663Y0135000D03*
X0060663Y0132500D03*
X0062163Y0129500D03*
X0049363Y0124500D03*
X0049663Y0121500D03*
X0052163Y0119500D03*
X0061163Y0113500D03*
X0061163Y0110500D03*
X0061163Y0107500D03*
X0069763Y0109200D03*
X0077463Y0109500D03*
X0077663Y0113000D03*
X0069363Y0113900D03*
X0076163Y0124300D03*
X0079663Y0127200D03*
X0079863Y0131600D03*
X0084463Y0137500D03*
X0092663Y0134000D03*
X0094363Y0131300D03*
X0090863Y0131300D03*
X0097663Y0133500D03*
X0092663Y0128500D03*
X0083163Y0124300D03*
X0094163Y0111500D03*
X0085863Y0109300D03*
X0085963Y0106000D03*
X0094163Y0105000D03*
X0094163Y0100000D03*
X0091163Y0100000D03*
X0091163Y0096000D03*
X0089163Y0093500D03*
X0084163Y0093000D03*
X0080163Y0090000D03*
X0082163Y0087500D03*
X0085163Y0088000D03*
X0075663Y0086500D03*
X0072663Y0086000D03*
X0077163Y0083500D03*
X0080163Y0081500D03*
X0087863Y0075700D03*
X0095163Y0075000D03*
X0095163Y0070000D03*
X0090163Y0070000D03*
X0095163Y0064500D03*
X0099663Y0065000D03*
X0110663Y0064500D03*
X0099163Y0056500D03*
X0099163Y0051500D03*
X0087163Y0059500D03*
X0082663Y0061500D03*
X0088163Y0063000D03*
X0073463Y0068400D03*
X0059163Y0074500D03*
X0060963Y0082400D03*
X0066663Y0095000D03*
X0066163Y0098000D03*
X0062663Y0098000D03*
X0061163Y0101000D03*
X0064163Y0101000D03*
X0067163Y0101000D03*
X0083163Y0098000D03*
X0100163Y0088500D03*
X0110663Y0084500D03*
X0066163Y0057000D03*
X0059163Y0056000D03*
X0079663Y0048000D03*
X0077163Y0044000D03*
X0072163Y0044000D03*
X0067163Y0044000D03*
X0061163Y0043000D03*
X0061163Y0039500D03*
X0045163Y0044500D03*
X0077663Y0030500D03*
X0085963Y0032000D03*
X0094163Y0032000D03*
X0094163Y0039000D03*
X0093663Y0020000D03*
X0098663Y0020000D03*
X0104163Y0020000D03*
X0111163Y0014500D03*
X0111163Y0011500D03*
X0111163Y0007500D03*
X0099163Y0008500D03*
X0089163Y0008500D03*
X0079163Y0008500D03*
X0073863Y0013000D03*
X0073863Y0016000D03*
X0068663Y0017000D03*
X0068663Y0020000D03*
X0076163Y0020000D03*
X0082663Y0020000D03*
X0087163Y0020000D03*
X0085663Y0016500D03*
X0093663Y0016500D03*
X0060663Y0017000D03*
X0055363Y0016000D03*
X0055363Y0013000D03*
X0055363Y0010000D03*
X0055363Y0007000D03*
X0045663Y0007500D03*
X0045663Y0011000D03*
X0045663Y0014500D03*
X0056163Y0020000D03*
X0060663Y0020000D03*
X0051163Y0023000D03*
X0050163Y0021500D03*
X0049163Y0023000D03*
X0050163Y0024500D03*
X0044663Y0094500D03*
X0044663Y0104500D03*
X0110663Y0114500D03*
X0095663Y0145500D03*
X0054763Y0184200D03*
X0053163Y0185300D03*
X0051563Y0184200D03*
X0053163Y0183100D03*
X0071663Y0190500D03*
X0084963Y0186000D03*
X0086463Y0184800D03*
D15*
X0101663Y0176000D02*
X0103163Y0176000D01*
X0104663Y0174500D01*
X0104663Y0131000D01*
X0101163Y0127500D01*
X0101163Y0091000D01*
X0102663Y0089500D01*
X0102663Y0087500D01*
X0100663Y0085500D01*
X0100663Y0070000D01*
X0095163Y0064500D01*
X0096163Y0067500D02*
X0092663Y0067500D01*
X0090163Y0070000D01*
X0095163Y0070000D02*
X0095163Y0071000D01*
X0097663Y0073500D01*
X0097663Y0085500D01*
X0096163Y0087000D01*
X0096163Y0090000D01*
X0098163Y0092000D01*
X0098163Y0128500D01*
X0101663Y0132000D01*
X0101663Y0148500D01*
X0098163Y0152000D01*
X0098163Y0155000D01*
X0096163Y0157000D01*
X0097163Y0159500D02*
X0094963Y0159500D01*
X0093163Y0157700D01*
X0094163Y0154500D02*
X0094163Y0154000D01*
X0100163Y0148000D01*
X0100163Y0132500D01*
X0096663Y0129000D01*
X0096663Y0092500D01*
X0094663Y0090500D01*
X0094663Y0086500D01*
X0096163Y0085000D01*
X0096163Y0076000D01*
X0095163Y0075000D01*
X0099163Y0070500D02*
X0099163Y0086000D01*
X0097663Y0087500D01*
X0097663Y0089500D01*
X0099663Y0091500D01*
X0099663Y0128000D01*
X0103163Y0131500D01*
X0103163Y0149000D01*
X0101163Y0151000D01*
X0101163Y0154500D01*
X0101163Y0155500D01*
X0097163Y0159500D01*
X0107663Y0164500D02*
X0112663Y0169500D01*
X0106163Y0169500D02*
X0112663Y0176000D01*
X0112663Y0179500D01*
X0106163Y0169500D02*
X0106163Y0130500D01*
X0102663Y0127000D01*
X0102663Y0091500D01*
X0104163Y0090000D01*
X0104163Y0087000D01*
X0102163Y0085000D01*
X0102163Y0069500D01*
X0099663Y0067000D01*
X0099663Y0065000D01*
X0102163Y0064000D02*
X0102163Y0067500D01*
X0103663Y0069000D01*
X0103663Y0084500D01*
X0105663Y0086500D01*
X0105663Y0090500D01*
X0104163Y0092000D01*
X0104163Y0126500D01*
X0107663Y0130000D01*
X0107663Y0164500D01*
X0092163Y0143500D02*
X0082163Y0153500D01*
X0082163Y0155300D01*
X0079663Y0155500D02*
X0079663Y0154000D01*
X0090663Y0143000D01*
X0090663Y0137500D01*
X0087163Y0134000D01*
X0087163Y0122500D01*
X0081663Y0117000D01*
X0081663Y0108500D01*
X0078163Y0105000D01*
X0078163Y0092000D01*
X0080163Y0090000D01*
X0079163Y0091000D01*
X0076663Y0089500D02*
X0076663Y0105500D01*
X0080163Y0109000D01*
X0080163Y0117500D01*
X0085663Y0123000D01*
X0085663Y0134500D01*
X0089163Y0138000D01*
X0089163Y0142500D01*
X0078163Y0153500D01*
X0077363Y0153500D01*
X0079663Y0155500D02*
X0079163Y0156000D01*
X0074163Y0151400D02*
X0073863Y0151700D01*
X0074163Y0151400D02*
X0074163Y0142000D01*
X0076163Y0140000D01*
X0076163Y0135500D01*
X0073663Y0133000D01*
X0073663Y0123500D01*
X0075163Y0122000D01*
X0075163Y0087000D01*
X0075663Y0086500D01*
X0073663Y0087500D02*
X0072663Y0086500D01*
X0072663Y0086000D01*
X0073663Y0087500D02*
X0073663Y0121500D01*
X0072163Y0123000D01*
X0072163Y0133500D01*
X0074663Y0136000D01*
X0074663Y0139500D01*
X0071663Y0142500D01*
X0071663Y0148900D01*
X0071863Y0149100D01*
X0069663Y0154000D02*
X0066663Y0151000D01*
X0066663Y0138500D01*
X0070663Y0134500D01*
X0070663Y0122500D01*
X0072163Y0121000D01*
X0072163Y0089000D01*
X0070163Y0087000D01*
X0070163Y0085000D01*
X0071663Y0083500D01*
X0077163Y0083500D01*
X0081163Y0085000D02*
X0076663Y0089500D01*
X0079663Y0094000D02*
X0082663Y0091000D01*
X0082663Y0088000D01*
X0082163Y0087500D01*
X0081163Y0085000D02*
X0083163Y0085000D01*
X0085163Y0087000D01*
X0085163Y0088000D01*
X0079663Y0094000D02*
X0079663Y0104500D01*
X0083163Y0108000D01*
X0083163Y0116500D01*
X0088663Y0122000D01*
X0088663Y0133500D01*
X0092163Y0137000D01*
X0092163Y0143500D01*
X0071663Y0154000D02*
X0069663Y0154000D01*
X0099163Y0070500D02*
X0096163Y0067500D01*
X0100163Y0062000D02*
X0102163Y0064000D01*
X0100163Y0062000D02*
X0089163Y0062000D01*
X0088163Y0063000D01*
D16*
X0038963Y0014807D02*
X0038963Y0203200D01*
X0116363Y0203200D01*
X0116363Y0014807D01*
X0111860Y0005800D01*
X0043467Y0005800D01*
X0038963Y0014807D01*
X0039030Y0014675D02*
X0099118Y0014675D01*
X0099118Y0014330D02*
X0099525Y0013348D01*
X0100276Y0012596D01*
X0101258Y0012190D01*
X0102321Y0012190D01*
X0103303Y0012596D01*
X0104054Y0013348D01*
X0104461Y0014330D01*
X0104461Y0015393D01*
X0104054Y0016375D01*
X0103303Y0017126D01*
X0102321Y0017533D01*
X0101258Y0017533D01*
X0100276Y0017126D01*
X0099525Y0016375D01*
X0099118Y0015393D01*
X0099118Y0014330D01*
X0099223Y0014076D02*
X0039329Y0014076D01*
X0039628Y0013478D02*
X0099471Y0013478D01*
X0099993Y0012879D02*
X0039927Y0012879D01*
X0040227Y0012281D02*
X0101039Y0012281D01*
X0102540Y0012281D02*
X0115100Y0012281D01*
X0115400Y0012879D02*
X0103585Y0012879D01*
X0104108Y0013478D02*
X0115699Y0013478D01*
X0115998Y0014076D02*
X0104356Y0014076D01*
X0104461Y0014675D02*
X0116297Y0014675D01*
X0116363Y0015273D02*
X0104461Y0015273D01*
X0104263Y0015872D02*
X0116363Y0015872D01*
X0116363Y0016470D02*
X0114560Y0016470D01*
X0114660Y0016512D02*
X0115652Y0017503D01*
X0116188Y0018799D01*
X0116188Y0020201D01*
X0115652Y0021497D01*
X0114660Y0022488D01*
X0113365Y0023025D01*
X0111962Y0023025D01*
X0110667Y0022488D01*
X0109675Y0021497D01*
X0109138Y0020201D01*
X0109138Y0018799D01*
X0109675Y0017503D01*
X0110667Y0016512D01*
X0111962Y0015975D01*
X0113365Y0015975D01*
X0114660Y0016512D01*
X0115217Y0017069D02*
X0116363Y0017069D01*
X0116363Y0017667D02*
X0115720Y0017667D01*
X0115968Y0018266D02*
X0116363Y0018266D01*
X0116363Y0018864D02*
X0116188Y0018864D01*
X0116188Y0019463D02*
X0116363Y0019463D01*
X0116363Y0020061D02*
X0116188Y0020061D01*
X0116363Y0020660D02*
X0115998Y0020660D01*
X0115751Y0021258D02*
X0116363Y0021258D01*
X0116363Y0021857D02*
X0115292Y0021857D01*
X0114693Y0022455D02*
X0116363Y0022455D01*
X0116363Y0023054D02*
X0054940Y0023054D01*
X0054563Y0022677D02*
X0056894Y0025008D01*
X0057563Y0026625D01*
X0057563Y0028375D01*
X0057563Y0111177D01*
X0059073Y0112687D01*
X0059073Y0112634D01*
X0059707Y0112000D01*
X0059073Y0111366D01*
X0059073Y0109634D01*
X0059707Y0109000D01*
X0059073Y0108366D01*
X0059073Y0106634D01*
X0060298Y0105409D01*
X0062029Y0105409D01*
X0063254Y0106634D01*
X0063254Y0108366D01*
X0062620Y0109000D01*
X0063254Y0109634D01*
X0063254Y0111366D01*
X0062620Y0112000D01*
X0063254Y0112634D01*
X0063254Y0114366D01*
X0062029Y0115591D01*
X0061635Y0115591D01*
X0062063Y0116625D01*
X0062063Y0126375D01*
X0061635Y0127409D01*
X0063029Y0127409D01*
X0064254Y0128634D01*
X0064254Y0130366D01*
X0063029Y0131591D01*
X0062710Y0131591D01*
X0062754Y0131634D01*
X0062754Y0133366D01*
X0061529Y0134591D01*
X0060754Y0134591D01*
X0060754Y0135866D01*
X0059529Y0137091D01*
X0057798Y0137091D01*
X0057563Y0136856D01*
X0057563Y0155344D01*
X0057898Y0155009D01*
X0059629Y0155009D01*
X0060854Y0156234D01*
X0060854Y0157966D01*
X0059629Y0159191D01*
X0057898Y0159191D01*
X0057563Y0158856D01*
X0057563Y0161244D01*
X0057898Y0160909D01*
X0059629Y0160909D01*
X0060854Y0162134D01*
X0060854Y0163866D01*
X0059629Y0165091D01*
X0057898Y0165091D01*
X0057563Y0164756D01*
X0057563Y0183975D01*
X0056894Y0185592D01*
X0055656Y0186830D01*
X0054039Y0187500D01*
X0052288Y0187500D01*
X0050671Y0186830D01*
X0049433Y0185592D01*
X0048763Y0183975D01*
X0048763Y0129125D01*
X0049433Y0127508D01*
X0050671Y0126270D01*
X0053263Y0123677D01*
X0053263Y0121356D01*
X0053029Y0121591D01*
X0051754Y0121591D01*
X0051754Y0122366D01*
X0050529Y0123591D01*
X0048798Y0123591D01*
X0047573Y0122366D01*
X0047573Y0120634D01*
X0048798Y0119409D01*
X0050073Y0119409D01*
X0050073Y0118634D01*
X0051298Y0117409D01*
X0051350Y0117409D01*
X0049433Y0115492D01*
X0048763Y0113875D01*
X0048763Y0029323D01*
X0047671Y0028230D01*
X0046433Y0026992D01*
X0045763Y0025375D01*
X0045763Y0021227D01*
X0045652Y0021497D01*
X0044660Y0022488D01*
X0043365Y0023025D01*
X0041962Y0023025D01*
X0040667Y0022488D01*
X0039675Y0021497D01*
X0039138Y0020201D01*
X0039138Y0018799D01*
X0039675Y0017503D01*
X0040667Y0016512D01*
X0041962Y0015975D01*
X0043365Y0015975D01*
X0044660Y0016512D01*
X0045652Y0017503D01*
X0046188Y0018799D01*
X0046188Y0019599D01*
X0046433Y0019008D01*
X0047671Y0017770D01*
X0049288Y0017100D01*
X0051039Y0017100D01*
X0052656Y0017770D01*
X0053894Y0019008D01*
X0054563Y0020625D01*
X0054563Y0022677D01*
X0054563Y0022455D02*
X0110634Y0022455D01*
X0110035Y0021857D02*
X0054563Y0021857D01*
X0054563Y0021258D02*
X0109576Y0021258D01*
X0109328Y0020660D02*
X0054563Y0020660D01*
X0054330Y0020061D02*
X0109138Y0020061D01*
X0109138Y0019463D02*
X0054082Y0019463D01*
X0053750Y0018864D02*
X0109138Y0018864D01*
X0109359Y0018266D02*
X0053152Y0018266D01*
X0052408Y0017667D02*
X0109607Y0017667D01*
X0110110Y0017069D02*
X0103360Y0017069D01*
X0103959Y0016470D02*
X0110767Y0016470D01*
X0114801Y0011682D02*
X0040526Y0011682D01*
X0040825Y0011084D02*
X0114502Y0011084D01*
X0114203Y0010485D02*
X0100135Y0010485D01*
X0100029Y0010591D02*
X0098298Y0010591D01*
X0097073Y0009366D01*
X0097073Y0007634D01*
X0098298Y0006409D01*
X0100029Y0006409D01*
X0101254Y0007634D01*
X0101254Y0009366D01*
X0100029Y0010591D01*
X0100733Y0009887D02*
X0113903Y0009887D01*
X0113604Y0009288D02*
X0101254Y0009288D01*
X0101254Y0008690D02*
X0113305Y0008690D01*
X0113006Y0008091D02*
X0101254Y0008091D01*
X0101113Y0007493D02*
X0112706Y0007493D01*
X0112407Y0006894D02*
X0100514Y0006894D01*
X0097813Y0006894D02*
X0090514Y0006894D01*
X0090029Y0006409D02*
X0091254Y0007634D01*
X0091254Y0009366D01*
X0090029Y0010591D01*
X0088298Y0010591D01*
X0087073Y0009366D01*
X0087073Y0007634D01*
X0088298Y0006409D01*
X0090029Y0006409D01*
X0091113Y0007493D02*
X0097214Y0007493D01*
X0097073Y0008091D02*
X0091254Y0008091D01*
X0091254Y0008690D02*
X0097073Y0008690D01*
X0097073Y0009288D02*
X0091254Y0009288D01*
X0090733Y0009887D02*
X0097594Y0009887D01*
X0098192Y0010485D02*
X0090135Y0010485D01*
X0088192Y0010485D02*
X0080135Y0010485D01*
X0080029Y0010591D02*
X0078298Y0010591D01*
X0077073Y0009366D01*
X0077073Y0007634D01*
X0078298Y0006409D01*
X0080029Y0006409D01*
X0081254Y0007634D01*
X0081254Y0009366D01*
X0080029Y0010591D01*
X0080733Y0009887D02*
X0087594Y0009887D01*
X0087073Y0009288D02*
X0081254Y0009288D01*
X0081254Y0008690D02*
X0087073Y0008690D01*
X0087073Y0008091D02*
X0081254Y0008091D01*
X0081113Y0007493D02*
X0087214Y0007493D01*
X0087813Y0006894D02*
X0080514Y0006894D01*
X0077813Y0006894D02*
X0042920Y0006894D01*
X0043219Y0006296D02*
X0112108Y0006296D01*
X0099118Y0015273D02*
X0038963Y0015273D01*
X0038963Y0015872D02*
X0099316Y0015872D01*
X0099620Y0016470D02*
X0044560Y0016470D01*
X0045217Y0017069D02*
X0100218Y0017069D01*
X0116363Y0023652D02*
X0055538Y0023652D01*
X0056137Y0024251D02*
X0116363Y0024251D01*
X0116363Y0024849D02*
X0056735Y0024849D01*
X0057076Y0025448D02*
X0116363Y0025448D01*
X0116363Y0026046D02*
X0113537Y0026046D01*
X0113365Y0025975D02*
X0114660Y0026512D01*
X0115652Y0027503D01*
X0116188Y0028799D01*
X0116188Y0030201D01*
X0115652Y0031497D01*
X0114660Y0032488D01*
X0113365Y0033025D01*
X0111962Y0033025D01*
X0110667Y0032488D01*
X0109675Y0031497D01*
X0109138Y0030201D01*
X0109138Y0028799D01*
X0109675Y0027503D01*
X0110667Y0026512D01*
X0111962Y0025975D01*
X0113365Y0025975D01*
X0111790Y0026046D02*
X0057324Y0026046D01*
X0057563Y0026645D02*
X0110533Y0026645D01*
X0109935Y0027243D02*
X0057563Y0027243D01*
X0057563Y0027842D02*
X0109535Y0027842D01*
X0109287Y0028440D02*
X0057563Y0028440D01*
X0057563Y0029039D02*
X0109138Y0029039D01*
X0109138Y0029637D02*
X0057563Y0029637D01*
X0057563Y0030236D02*
X0109153Y0030236D01*
X0109401Y0030834D02*
X0057563Y0030834D01*
X0057563Y0031433D02*
X0109649Y0031433D01*
X0110210Y0032032D02*
X0057563Y0032032D01*
X0057563Y0032630D02*
X0111009Y0032630D01*
X0114318Y0032630D02*
X0116363Y0032630D01*
X0116363Y0032032D02*
X0115117Y0032032D01*
X0115678Y0031433D02*
X0116363Y0031433D01*
X0116363Y0030834D02*
X0115926Y0030834D01*
X0116174Y0030236D02*
X0116363Y0030236D01*
X0116363Y0029637D02*
X0116188Y0029637D01*
X0116188Y0029039D02*
X0116363Y0029039D01*
X0116363Y0028440D02*
X0116040Y0028440D01*
X0115792Y0027842D02*
X0116363Y0027842D01*
X0116363Y0027243D02*
X0115392Y0027243D01*
X0114793Y0026645D02*
X0116363Y0026645D01*
X0116363Y0033229D02*
X0057563Y0033229D01*
X0057563Y0033827D02*
X0116363Y0033827D01*
X0116363Y0034426D02*
X0057563Y0034426D01*
X0057563Y0035024D02*
X0116363Y0035024D01*
X0116363Y0035623D02*
X0057563Y0035623D01*
X0057563Y0036221D02*
X0111368Y0036221D01*
X0111962Y0035975D02*
X0113365Y0035975D01*
X0114660Y0036512D01*
X0115652Y0037503D01*
X0116188Y0038799D01*
X0116188Y0040201D01*
X0115652Y0041497D01*
X0114660Y0042488D01*
X0113365Y0043025D01*
X0111962Y0043025D01*
X0110667Y0042488D01*
X0109675Y0041497D01*
X0109138Y0040201D01*
X0109138Y0038799D01*
X0109675Y0037503D01*
X0110667Y0036512D01*
X0111962Y0035975D01*
X0110359Y0036820D02*
X0057563Y0036820D01*
X0057563Y0037418D02*
X0109760Y0037418D01*
X0109462Y0038017D02*
X0057563Y0038017D01*
X0057563Y0038615D02*
X0109215Y0038615D01*
X0109138Y0039214D02*
X0057563Y0039214D01*
X0057563Y0039812D02*
X0109138Y0039812D01*
X0109225Y0040411D02*
X0057563Y0040411D01*
X0057563Y0041009D02*
X0109473Y0041009D01*
X0109786Y0041608D02*
X0057563Y0041608D01*
X0057563Y0042206D02*
X0066001Y0042206D01*
X0066298Y0041909D02*
X0068029Y0041909D01*
X0069254Y0043134D01*
X0069254Y0044866D01*
X0068080Y0046040D01*
X0068634Y0046595D01*
X0068634Y0048482D01*
X0067300Y0049817D01*
X0065413Y0049817D01*
X0064078Y0048482D01*
X0064078Y0046595D01*
X0065413Y0045261D01*
X0065468Y0045261D01*
X0065073Y0044866D01*
X0065073Y0043134D01*
X0066298Y0041909D01*
X0065402Y0042805D02*
X0057563Y0042805D01*
X0057563Y0043403D02*
X0065073Y0043403D01*
X0065073Y0044002D02*
X0057563Y0044002D01*
X0057563Y0044600D02*
X0065073Y0044600D01*
X0065406Y0045199D02*
X0057563Y0045199D01*
X0057563Y0045797D02*
X0064876Y0045797D01*
X0064278Y0046396D02*
X0057563Y0046396D01*
X0057563Y0046994D02*
X0064078Y0046994D01*
X0064078Y0047593D02*
X0057563Y0047593D01*
X0057563Y0048191D02*
X0064078Y0048191D01*
X0064386Y0048790D02*
X0057563Y0048790D01*
X0057563Y0049388D02*
X0064985Y0049388D01*
X0067728Y0049388D02*
X0078095Y0049388D01*
X0077573Y0048866D02*
X0078798Y0050091D01*
X0080529Y0050091D01*
X0081754Y0048866D01*
X0081754Y0047134D01*
X0080529Y0045909D01*
X0078798Y0045909D01*
X0077573Y0047134D01*
X0077573Y0048866D01*
X0077573Y0048790D02*
X0068327Y0048790D01*
X0068634Y0048191D02*
X0077573Y0048191D01*
X0077573Y0047593D02*
X0068634Y0047593D01*
X0068634Y0046994D02*
X0077713Y0046994D01*
X0078311Y0046396D02*
X0068435Y0046396D01*
X0068323Y0045797D02*
X0071004Y0045797D01*
X0071298Y0046091D02*
X0070073Y0044866D01*
X0070073Y0043134D01*
X0071298Y0041909D01*
X0073029Y0041909D01*
X0074254Y0043134D01*
X0074254Y0044866D01*
X0073029Y0046091D01*
X0071298Y0046091D01*
X0070406Y0045199D02*
X0068921Y0045199D01*
X0069254Y0044600D02*
X0070073Y0044600D01*
X0070073Y0044002D02*
X0069254Y0044002D01*
X0069254Y0043403D02*
X0070073Y0043403D01*
X0070402Y0042805D02*
X0068925Y0042805D01*
X0068326Y0042206D02*
X0071001Y0042206D01*
X0073326Y0042206D02*
X0076001Y0042206D01*
X0076298Y0041909D02*
X0078029Y0041909D01*
X0079254Y0043134D01*
X0079254Y0044866D01*
X0078029Y0046091D01*
X0076298Y0046091D01*
X0075073Y0044866D01*
X0075073Y0043134D01*
X0076298Y0041909D01*
X0075402Y0042805D02*
X0073925Y0042805D01*
X0074254Y0043403D02*
X0075073Y0043403D01*
X0075073Y0044002D02*
X0074254Y0044002D01*
X0074254Y0044600D02*
X0075073Y0044600D01*
X0075406Y0045199D02*
X0073921Y0045199D01*
X0073323Y0045797D02*
X0076004Y0045797D01*
X0078323Y0045797D02*
X0116363Y0045797D01*
X0116363Y0045199D02*
X0078921Y0045199D01*
X0079254Y0044600D02*
X0116363Y0044600D01*
X0116363Y0044002D02*
X0079254Y0044002D01*
X0079254Y0043403D02*
X0116363Y0043403D01*
X0116363Y0042805D02*
X0113896Y0042805D01*
X0114942Y0042206D02*
X0116363Y0042206D01*
X0116363Y0041608D02*
X0115541Y0041608D01*
X0115854Y0041009D02*
X0116363Y0041009D01*
X0116363Y0040411D02*
X0116102Y0040411D01*
X0116188Y0039812D02*
X0116363Y0039812D01*
X0116363Y0039214D02*
X0116188Y0039214D01*
X0116112Y0038615D02*
X0116363Y0038615D01*
X0116363Y0038017D02*
X0115864Y0038017D01*
X0115567Y0037418D02*
X0116363Y0037418D01*
X0116363Y0036820D02*
X0114968Y0036820D01*
X0113959Y0036221D02*
X0116363Y0036221D01*
X0111431Y0042805D02*
X0078925Y0042805D01*
X0078326Y0042206D02*
X0110385Y0042206D01*
X0111962Y0045975D02*
X0113365Y0045975D01*
X0114660Y0046512D01*
X0115652Y0047503D01*
X0116188Y0048799D01*
X0116188Y0050201D01*
X0115652Y0051497D01*
X0114660Y0052488D01*
X0113365Y0053025D01*
X0111962Y0053025D01*
X0110667Y0052488D01*
X0109675Y0051497D01*
X0109138Y0050201D01*
X0109138Y0048799D01*
X0109675Y0047503D01*
X0110667Y0046512D01*
X0111962Y0045975D01*
X0110946Y0046396D02*
X0081016Y0046396D01*
X0081614Y0046994D02*
X0110184Y0046994D01*
X0109638Y0047593D02*
X0081754Y0047593D01*
X0081754Y0048191D02*
X0109390Y0048191D01*
X0109142Y0048790D02*
X0081754Y0048790D01*
X0081232Y0049388D02*
X0109138Y0049388D01*
X0109138Y0049987D02*
X0080633Y0049987D01*
X0078694Y0049987D02*
X0057563Y0049987D01*
X0057563Y0050585D02*
X0109298Y0050585D01*
X0109546Y0051184D02*
X0057563Y0051184D01*
X0057563Y0051782D02*
X0109961Y0051782D01*
X0110559Y0052381D02*
X0057563Y0052381D01*
X0057563Y0052979D02*
X0111852Y0052979D01*
X0113475Y0052979D02*
X0116363Y0052979D01*
X0116363Y0052381D02*
X0114768Y0052381D01*
X0115366Y0051782D02*
X0116363Y0051782D01*
X0116363Y0051184D02*
X0115781Y0051184D01*
X0116029Y0050585D02*
X0116363Y0050585D01*
X0116363Y0049987D02*
X0116188Y0049987D01*
X0116188Y0049388D02*
X0116363Y0049388D01*
X0116363Y0048790D02*
X0116185Y0048790D01*
X0116363Y0048191D02*
X0115937Y0048191D01*
X0115689Y0047593D02*
X0116363Y0047593D01*
X0116363Y0046994D02*
X0115143Y0046994D01*
X0114380Y0046396D02*
X0116363Y0046396D01*
X0116363Y0053578D02*
X0057563Y0053578D01*
X0057563Y0054176D02*
X0116363Y0054176D01*
X0116363Y0054775D02*
X0057563Y0054775D01*
X0057563Y0055373D02*
X0116363Y0055373D01*
X0116363Y0055972D02*
X0057563Y0055972D01*
X0057563Y0056570D02*
X0110608Y0056570D01*
X0110667Y0056512D02*
X0111962Y0055975D01*
X0113365Y0055975D01*
X0114660Y0056512D01*
X0115652Y0057503D01*
X0116188Y0058799D01*
X0116188Y0060201D01*
X0115652Y0061497D01*
X0114660Y0062488D01*
X0113365Y0063025D01*
X0111962Y0063025D01*
X0110667Y0062488D01*
X0109675Y0061497D01*
X0109138Y0060201D01*
X0109138Y0058799D01*
X0109675Y0057503D01*
X0110667Y0056512D01*
X0110009Y0057169D02*
X0057563Y0057169D01*
X0057563Y0057768D02*
X0109566Y0057768D01*
X0109318Y0058366D02*
X0057563Y0058366D01*
X0057563Y0058965D02*
X0109138Y0058965D01*
X0109138Y0059563D02*
X0057563Y0059563D01*
X0057563Y0060162D02*
X0109138Y0060162D01*
X0109370Y0060760D02*
X0100762Y0060760D01*
X0100702Y0060700D02*
X0102702Y0062700D01*
X0103463Y0063462D01*
X0103463Y0066962D01*
X0104202Y0067700D01*
X0104963Y0068462D01*
X0104963Y0083962D01*
X0106202Y0085200D01*
X0106963Y0085962D01*
X0106963Y0091038D01*
X0105463Y0092538D01*
X0105463Y0125962D01*
X0108202Y0128700D01*
X0108963Y0129462D01*
X0108963Y0163962D01*
X0111266Y0166264D01*
X0111962Y0165975D01*
X0113365Y0165975D01*
X0114660Y0166512D01*
X0115652Y0167503D01*
X0116188Y0168799D01*
X0116188Y0170201D01*
X0115652Y0171497D01*
X0114660Y0172488D01*
X0113365Y0173025D01*
X0111962Y0173025D01*
X0111219Y0172717D01*
X0113202Y0174700D01*
X0113963Y0175462D01*
X0113963Y0176223D01*
X0114660Y0176512D01*
X0115652Y0177503D01*
X0116188Y0178799D01*
X0116188Y0180201D01*
X0115652Y0181497D01*
X0114660Y0182488D01*
X0113365Y0183025D01*
X0111962Y0183025D01*
X0110667Y0182488D01*
X0109675Y0181497D01*
X0109138Y0180201D01*
X0109138Y0178799D01*
X0109675Y0177503D01*
X0110667Y0176512D01*
X0111140Y0176315D01*
X0105963Y0171138D01*
X0105963Y0175038D01*
X0105202Y0175800D01*
X0105202Y0175800D01*
X0104463Y0176538D01*
X0104463Y0176538D01*
X0103702Y0177300D01*
X0103320Y0177300D01*
X0102529Y0178091D01*
X0100798Y0178091D01*
X0099573Y0176866D01*
X0099573Y0175134D01*
X0100607Y0174100D01*
X0100373Y0173866D01*
X0100373Y0172134D01*
X0101598Y0170909D01*
X0103329Y0170909D01*
X0103363Y0170944D01*
X0103363Y0150638D01*
X0102463Y0151538D01*
X0102463Y0152844D01*
X0103254Y0153634D01*
X0103254Y0155366D01*
X0102029Y0156591D01*
X0101911Y0156591D01*
X0098463Y0160038D01*
X0098463Y0160038D01*
X0097702Y0160800D01*
X0094425Y0160800D01*
X0093416Y0159791D01*
X0092298Y0159791D01*
X0091073Y0158566D01*
X0091073Y0156834D01*
X0092298Y0155609D01*
X0092316Y0155609D01*
X0092073Y0155366D01*
X0092073Y0153634D01*
X0093298Y0152409D01*
X0093916Y0152409D01*
X0098863Y0147462D01*
X0098863Y0135256D01*
X0098529Y0135591D01*
X0096798Y0135591D01*
X0095573Y0134366D01*
X0095573Y0133047D01*
X0095229Y0133391D01*
X0093498Y0133391D01*
X0092613Y0132506D01*
X0091729Y0133391D01*
X0090392Y0133391D01*
X0093463Y0136462D01*
X0093463Y0144038D01*
X0083661Y0153841D01*
X0084254Y0154434D01*
X0084254Y0156109D01*
X0085129Y0156109D01*
X0086354Y0157334D01*
X0086354Y0159066D01*
X0085129Y0160291D01*
X0083398Y0160291D01*
X0082173Y0159066D01*
X0082173Y0157391D01*
X0081298Y0157391D01*
X0081013Y0157106D01*
X0080029Y0158091D01*
X0079454Y0158091D01*
X0079454Y0159266D01*
X0078229Y0160491D01*
X0076498Y0160491D01*
X0075813Y0159806D01*
X0075229Y0160391D01*
X0073498Y0160391D01*
X0072273Y0159166D01*
X0072273Y0157434D01*
X0073207Y0156500D01*
X0072663Y0155956D01*
X0072529Y0156091D01*
X0071054Y0156091D01*
X0071054Y0157566D01*
X0069829Y0158791D01*
X0068098Y0158791D01*
X0067463Y0158156D01*
X0066829Y0158791D01*
X0065098Y0158791D01*
X0063873Y0157566D01*
X0063873Y0155834D01*
X0065098Y0154609D01*
X0066829Y0154609D01*
X0067463Y0155244D01*
X0068098Y0154609D01*
X0068434Y0154609D01*
X0068363Y0154538D01*
X0065363Y0151538D01*
X0065363Y0137962D01*
X0069363Y0133962D01*
X0069363Y0121962D01*
X0070125Y0121200D01*
X0070863Y0120462D01*
X0070863Y0115356D01*
X0070229Y0115991D01*
X0068498Y0115991D01*
X0067273Y0114766D01*
X0067273Y0113034D01*
X0068498Y0111809D01*
X0070229Y0111809D01*
X0070863Y0112444D01*
X0070863Y0111056D01*
X0070629Y0111291D01*
X0068898Y0111291D01*
X0067673Y0110066D01*
X0067673Y0108334D01*
X0068898Y0107109D01*
X0070629Y0107109D01*
X0070863Y0107344D01*
X0070863Y0089538D01*
X0069625Y0088300D01*
X0068863Y0087538D01*
X0068863Y0084462D01*
X0070363Y0082962D01*
X0071125Y0082200D01*
X0075507Y0082200D01*
X0076298Y0081409D01*
X0078029Y0081409D01*
X0078073Y0081453D01*
X0078073Y0080634D01*
X0079298Y0079409D01*
X0081029Y0079409D01*
X0082254Y0080634D01*
X0082254Y0082366D01*
X0081029Y0083591D01*
X0079298Y0083591D01*
X0079254Y0083547D01*
X0079254Y0084366D01*
X0078029Y0085591D01*
X0077710Y0085591D01*
X0077754Y0085634D01*
X0077754Y0086571D01*
X0080625Y0083700D01*
X0083702Y0083700D01*
X0085702Y0085700D01*
X0085911Y0085909D01*
X0086029Y0085909D01*
X0087254Y0087134D01*
X0087254Y0088866D01*
X0086029Y0090091D01*
X0084298Y0090091D01*
X0083963Y0089756D01*
X0083963Y0091538D01*
X0083202Y0092300D01*
X0080963Y0094538D01*
X0080963Y0103962D01*
X0083702Y0106700D01*
X0084463Y0107462D01*
X0084463Y0115962D01*
X0089202Y0120700D01*
X0089963Y0121462D01*
X0089963Y0129244D01*
X0089998Y0129209D01*
X0090573Y0129209D01*
X0090573Y0127634D01*
X0091798Y0126409D01*
X0093529Y0126409D01*
X0094754Y0127634D01*
X0094754Y0129209D01*
X0095229Y0129209D01*
X0095363Y0129344D01*
X0095363Y0113256D01*
X0095029Y0113591D01*
X0093298Y0113591D01*
X0092073Y0112366D01*
X0092073Y0110634D01*
X0093298Y0109409D01*
X0095029Y0109409D01*
X0095363Y0109744D01*
X0095363Y0106756D01*
X0095029Y0107091D01*
X0093298Y0107091D01*
X0092073Y0105866D01*
X0092073Y0104134D01*
X0093298Y0102909D01*
X0095029Y0102909D01*
X0095363Y0103244D01*
X0095363Y0101756D01*
X0095029Y0102091D01*
X0093298Y0102091D01*
X0092663Y0101456D01*
X0092029Y0102091D01*
X0090298Y0102091D01*
X0089073Y0100866D01*
X0089073Y0099134D01*
X0090207Y0098000D01*
X0089073Y0096866D01*
X0089073Y0095591D01*
X0088298Y0095591D01*
X0087073Y0094366D01*
X0087073Y0092634D01*
X0088298Y0091409D01*
X0090029Y0091409D01*
X0091254Y0092634D01*
X0091254Y0093909D01*
X0092029Y0093909D01*
X0093254Y0095134D01*
X0093254Y0096866D01*
X0092120Y0098000D01*
X0092663Y0098544D01*
X0093298Y0097909D01*
X0095029Y0097909D01*
X0095363Y0098244D01*
X0095363Y0093038D01*
X0094125Y0091800D01*
X0093363Y0091038D01*
X0093363Y0085962D01*
X0094863Y0084462D01*
X0094863Y0077091D01*
X0094298Y0077091D01*
X0093073Y0075866D01*
X0093073Y0074134D01*
X0094298Y0072909D01*
X0095234Y0072909D01*
X0094625Y0072300D01*
X0094416Y0072091D01*
X0094298Y0072091D01*
X0093073Y0070866D01*
X0093073Y0069134D01*
X0093407Y0068800D01*
X0093202Y0068800D01*
X0092254Y0069748D01*
X0092254Y0070866D01*
X0091029Y0072091D01*
X0089298Y0072091D01*
X0088073Y0070866D01*
X0088073Y0069134D01*
X0089298Y0067909D01*
X0090416Y0067909D01*
X0092125Y0066200D01*
X0093907Y0066200D01*
X0093073Y0065366D01*
X0093073Y0063634D01*
X0093407Y0063300D01*
X0090254Y0063300D01*
X0090254Y0063866D01*
X0089029Y0065091D01*
X0087298Y0065091D01*
X0086073Y0063866D01*
X0086073Y0062134D01*
X0087298Y0060909D01*
X0088416Y0060909D01*
X0088625Y0060700D01*
X0100702Y0060700D01*
X0101361Y0061359D02*
X0109618Y0061359D01*
X0110135Y0061957D02*
X0101959Y0061957D01*
X0102558Y0062556D02*
X0110829Y0062556D01*
X0111962Y0065975D02*
X0113365Y0065975D01*
X0114660Y0066512D01*
X0115652Y0067503D01*
X0116188Y0068799D01*
X0116188Y0070201D01*
X0115652Y0071497D01*
X0114660Y0072488D01*
X0113365Y0073025D01*
X0111962Y0073025D01*
X0110667Y0072488D01*
X0109675Y0071497D01*
X0109138Y0070201D01*
X0109138Y0068799D01*
X0109675Y0067503D01*
X0110667Y0066512D01*
X0111962Y0065975D01*
X0111548Y0066147D02*
X0103463Y0066147D01*
X0103463Y0066745D02*
X0110433Y0066745D01*
X0109835Y0067344D02*
X0103846Y0067344D01*
X0104444Y0067942D02*
X0109493Y0067942D01*
X0109245Y0068541D02*
X0104963Y0068541D01*
X0104963Y0069139D02*
X0109138Y0069139D01*
X0109138Y0069738D02*
X0104963Y0069738D01*
X0104963Y0070336D02*
X0109194Y0070336D01*
X0109442Y0070935D02*
X0104963Y0070935D01*
X0104963Y0071533D02*
X0109712Y0071533D01*
X0110310Y0072132D02*
X0104963Y0072132D01*
X0104963Y0072730D02*
X0111251Y0072730D01*
X0114076Y0072730D02*
X0116363Y0072730D01*
X0116363Y0072132D02*
X0115017Y0072132D01*
X0115615Y0071533D02*
X0116363Y0071533D01*
X0116363Y0070935D02*
X0115885Y0070935D01*
X0116133Y0070336D02*
X0116363Y0070336D01*
X0116363Y0069738D02*
X0116188Y0069738D01*
X0116188Y0069139D02*
X0116363Y0069139D01*
X0116363Y0068541D02*
X0116082Y0068541D01*
X0115834Y0067942D02*
X0116363Y0067942D01*
X0116363Y0067344D02*
X0115492Y0067344D01*
X0114894Y0066745D02*
X0116363Y0066745D01*
X0116363Y0066147D02*
X0113779Y0066147D01*
X0116363Y0065548D02*
X0103463Y0065548D01*
X0103463Y0064950D02*
X0116363Y0064950D01*
X0116363Y0064351D02*
X0103463Y0064351D01*
X0103463Y0063753D02*
X0116363Y0063753D01*
X0116363Y0063154D02*
X0103156Y0063154D01*
X0093854Y0066147D02*
X0057563Y0066147D01*
X0057563Y0066745D02*
X0091580Y0066745D01*
X0090981Y0067344D02*
X0057563Y0067344D01*
X0057563Y0067942D02*
X0089265Y0067942D01*
X0088666Y0068541D02*
X0057563Y0068541D01*
X0057563Y0069139D02*
X0088073Y0069139D01*
X0088073Y0069738D02*
X0057563Y0069738D01*
X0057563Y0070336D02*
X0088073Y0070336D01*
X0088142Y0070935D02*
X0057563Y0070935D01*
X0057563Y0071533D02*
X0088740Y0071533D01*
X0091587Y0071533D02*
X0093740Y0071533D01*
X0093142Y0070935D02*
X0092185Y0070935D01*
X0092254Y0070336D02*
X0093073Y0070336D01*
X0093073Y0069738D02*
X0092264Y0069738D01*
X0092863Y0069139D02*
X0093073Y0069139D01*
X0094457Y0072132D02*
X0057563Y0072132D01*
X0057563Y0072730D02*
X0095055Y0072730D01*
X0093878Y0073329D02*
X0057563Y0073329D01*
X0057563Y0073927D02*
X0093280Y0073927D01*
X0093073Y0074526D02*
X0057563Y0074526D01*
X0057563Y0075124D02*
X0093073Y0075124D01*
X0093073Y0075723D02*
X0057563Y0075723D01*
X0057563Y0076321D02*
X0093528Y0076321D01*
X0094127Y0076920D02*
X0057563Y0076920D01*
X0057563Y0077518D02*
X0094863Y0077518D01*
X0094863Y0078117D02*
X0057563Y0078117D01*
X0057563Y0078715D02*
X0094863Y0078715D01*
X0094863Y0079314D02*
X0057563Y0079314D01*
X0057563Y0079912D02*
X0078795Y0079912D01*
X0078196Y0080511D02*
X0057563Y0080511D01*
X0057563Y0081109D02*
X0078073Y0081109D01*
X0075999Y0081708D02*
X0057563Y0081708D01*
X0057563Y0082306D02*
X0071019Y0082306D01*
X0070420Y0082905D02*
X0057563Y0082905D01*
X0057563Y0083503D02*
X0069821Y0083503D01*
X0069223Y0084102D02*
X0057563Y0084102D01*
X0057563Y0084701D02*
X0068863Y0084701D01*
X0068863Y0085299D02*
X0057563Y0085299D01*
X0057563Y0085898D02*
X0068863Y0085898D01*
X0068863Y0086496D02*
X0057563Y0086496D01*
X0057563Y0087095D02*
X0068863Y0087095D01*
X0069018Y0087693D02*
X0057563Y0087693D01*
X0057563Y0088292D02*
X0069617Y0088292D01*
X0070215Y0088890D02*
X0057563Y0088890D01*
X0057563Y0089489D02*
X0070814Y0089489D01*
X0070863Y0090087D02*
X0057563Y0090087D01*
X0057563Y0090686D02*
X0070863Y0090686D01*
X0070863Y0091284D02*
X0057563Y0091284D01*
X0057563Y0091883D02*
X0070863Y0091883D01*
X0070863Y0092481D02*
X0057563Y0092481D01*
X0057563Y0093080D02*
X0070863Y0093080D01*
X0070863Y0093678D02*
X0057563Y0093678D01*
X0057563Y0094277D02*
X0070863Y0094277D01*
X0070863Y0094875D02*
X0057563Y0094875D01*
X0057563Y0095474D02*
X0070863Y0095474D01*
X0070863Y0096072D02*
X0067192Y0096072D01*
X0067029Y0095909D02*
X0068254Y0097134D01*
X0068254Y0098866D01*
X0067029Y0100091D01*
X0066210Y0100091D01*
X0066254Y0100134D01*
X0066254Y0101866D01*
X0065029Y0103091D01*
X0063298Y0103091D01*
X0062663Y0102456D01*
X0062029Y0103091D01*
X0060298Y0103091D01*
X0059073Y0101866D01*
X0059073Y0100134D01*
X0060298Y0098909D01*
X0060616Y0098909D01*
X0060573Y0098866D01*
X0060573Y0097134D01*
X0061798Y0095909D01*
X0063529Y0095909D01*
X0064413Y0096794D01*
X0065298Y0095909D01*
X0067029Y0095909D01*
X0067791Y0096671D02*
X0070863Y0096671D01*
X0070863Y0097269D02*
X0068254Y0097269D01*
X0068254Y0097868D02*
X0070863Y0097868D01*
X0070863Y0098466D02*
X0068254Y0098466D01*
X0068055Y0099065D02*
X0070863Y0099065D01*
X0070863Y0099663D02*
X0067457Y0099663D01*
X0066254Y0100262D02*
X0070863Y0100262D01*
X0070863Y0100860D02*
X0066254Y0100860D01*
X0066254Y0101459D02*
X0070863Y0101459D01*
X0070863Y0102057D02*
X0066063Y0102057D01*
X0065464Y0102656D02*
X0070863Y0102656D01*
X0070863Y0103254D02*
X0057563Y0103254D01*
X0057563Y0102656D02*
X0059863Y0102656D01*
X0059264Y0102057D02*
X0057563Y0102057D01*
X0057563Y0101459D02*
X0059073Y0101459D01*
X0059073Y0100860D02*
X0057563Y0100860D01*
X0057563Y0100262D02*
X0059073Y0100262D01*
X0059544Y0099663D02*
X0057563Y0099663D01*
X0057563Y0099065D02*
X0060142Y0099065D01*
X0060573Y0098466D02*
X0057563Y0098466D01*
X0057563Y0097868D02*
X0060573Y0097868D01*
X0060573Y0097269D02*
X0057563Y0097269D01*
X0057563Y0096671D02*
X0061036Y0096671D01*
X0061635Y0096072D02*
X0057563Y0096072D01*
X0063692Y0096072D02*
X0065135Y0096072D01*
X0064536Y0096671D02*
X0064291Y0096671D01*
X0062863Y0102656D02*
X0062464Y0102656D01*
X0057563Y0103853D02*
X0070863Y0103853D01*
X0070863Y0104451D02*
X0057563Y0104451D01*
X0057563Y0105050D02*
X0070863Y0105050D01*
X0070863Y0105648D02*
X0062268Y0105648D01*
X0062867Y0106247D02*
X0070863Y0106247D01*
X0070863Y0106845D02*
X0063254Y0106845D01*
X0063254Y0107444D02*
X0068563Y0107444D01*
X0067965Y0108042D02*
X0063254Y0108042D01*
X0062979Y0108641D02*
X0067673Y0108641D01*
X0067673Y0109239D02*
X0062859Y0109239D01*
X0063254Y0109838D02*
X0067673Y0109838D01*
X0068043Y0110437D02*
X0063254Y0110437D01*
X0063254Y0111035D02*
X0068642Y0111035D01*
X0068075Y0112232D02*
X0062852Y0112232D01*
X0062986Y0111634D02*
X0070863Y0111634D01*
X0070863Y0112232D02*
X0070652Y0112232D01*
X0067476Y0112831D02*
X0063254Y0112831D01*
X0063254Y0113429D02*
X0067273Y0113429D01*
X0067273Y0114028D02*
X0063254Y0114028D01*
X0062994Y0114626D02*
X0067273Y0114626D01*
X0067732Y0115225D02*
X0062395Y0115225D01*
X0061731Y0115823D02*
X0068330Y0115823D01*
X0070397Y0115823D02*
X0070863Y0115823D01*
X0070863Y0116422D02*
X0061979Y0116422D01*
X0062063Y0117020D02*
X0070863Y0117020D01*
X0070863Y0117619D02*
X0062063Y0117619D01*
X0062063Y0118217D02*
X0070863Y0118217D01*
X0070863Y0118816D02*
X0062063Y0118816D01*
X0062063Y0119414D02*
X0070863Y0119414D01*
X0070863Y0120013D02*
X0062063Y0120013D01*
X0062063Y0120611D02*
X0070714Y0120611D01*
X0070125Y0121200D02*
X0070125Y0121200D01*
X0070115Y0121210D02*
X0062063Y0121210D01*
X0062063Y0121808D02*
X0069517Y0121808D01*
X0069363Y0122407D02*
X0062063Y0122407D01*
X0062063Y0123005D02*
X0069363Y0123005D01*
X0069363Y0123604D02*
X0062063Y0123604D01*
X0062063Y0124202D02*
X0069363Y0124202D01*
X0069363Y0124801D02*
X0062063Y0124801D01*
X0062063Y0125399D02*
X0069363Y0125399D01*
X0069363Y0125998D02*
X0062063Y0125998D01*
X0061972Y0126596D02*
X0069363Y0126596D01*
X0069363Y0127195D02*
X0061724Y0127195D01*
X0063413Y0127793D02*
X0069363Y0127793D01*
X0069363Y0128392D02*
X0064012Y0128392D01*
X0064254Y0128990D02*
X0069363Y0128990D01*
X0069363Y0129589D02*
X0064254Y0129589D01*
X0064254Y0130187D02*
X0069363Y0130187D01*
X0069363Y0130786D02*
X0063834Y0130786D01*
X0063236Y0131384D02*
X0069363Y0131384D01*
X0069363Y0131983D02*
X0062754Y0131983D01*
X0062754Y0132581D02*
X0069363Y0132581D01*
X0069363Y0133180D02*
X0062754Y0133180D01*
X0062341Y0133778D02*
X0069363Y0133778D01*
X0068948Y0134377D02*
X0061743Y0134377D01*
X0060754Y0134975D02*
X0068350Y0134975D01*
X0067751Y0135574D02*
X0060754Y0135574D01*
X0060447Y0136172D02*
X0067152Y0136172D01*
X0066554Y0136771D02*
X0059849Y0136771D01*
X0057563Y0137370D02*
X0065955Y0137370D01*
X0065363Y0137968D02*
X0057563Y0137968D01*
X0057563Y0138567D02*
X0065363Y0138567D01*
X0065363Y0139165D02*
X0057563Y0139165D01*
X0057563Y0139764D02*
X0065363Y0139764D01*
X0065363Y0140362D02*
X0057563Y0140362D01*
X0057563Y0140961D02*
X0065363Y0140961D01*
X0065363Y0141559D02*
X0057563Y0141559D01*
X0057563Y0142158D02*
X0065363Y0142158D01*
X0065363Y0142756D02*
X0057563Y0142756D01*
X0057563Y0143355D02*
X0065363Y0143355D01*
X0065363Y0143953D02*
X0057563Y0143953D01*
X0057563Y0144552D02*
X0065363Y0144552D01*
X0065363Y0145150D02*
X0057563Y0145150D01*
X0057563Y0145749D02*
X0065363Y0145749D01*
X0065363Y0146347D02*
X0057563Y0146347D01*
X0057563Y0146946D02*
X0065363Y0146946D01*
X0065363Y0147544D02*
X0057563Y0147544D01*
X0057563Y0148143D02*
X0065363Y0148143D01*
X0065363Y0148741D02*
X0057563Y0148741D01*
X0057563Y0149340D02*
X0065363Y0149340D01*
X0065363Y0149938D02*
X0057563Y0149938D01*
X0057563Y0150537D02*
X0065363Y0150537D01*
X0065363Y0151135D02*
X0057563Y0151135D01*
X0057563Y0151734D02*
X0065559Y0151734D01*
X0066157Y0152332D02*
X0057563Y0152332D01*
X0057563Y0152931D02*
X0066756Y0152931D01*
X0067354Y0153529D02*
X0057563Y0153529D01*
X0057563Y0154128D02*
X0067953Y0154128D01*
X0067981Y0154726D02*
X0066946Y0154726D01*
X0064981Y0154726D02*
X0057563Y0154726D01*
X0057563Y0155325D02*
X0057582Y0155325D01*
X0059945Y0155325D02*
X0064382Y0155325D01*
X0063873Y0155923D02*
X0060543Y0155923D01*
X0060854Y0156522D02*
X0063873Y0156522D01*
X0063873Y0157120D02*
X0060854Y0157120D01*
X0060854Y0157719D02*
X0064026Y0157719D01*
X0064624Y0158317D02*
X0060503Y0158317D01*
X0059904Y0158916D02*
X0072273Y0158916D01*
X0072273Y0158317D02*
X0070303Y0158317D01*
X0070901Y0157719D02*
X0072273Y0157719D01*
X0072587Y0157120D02*
X0071054Y0157120D01*
X0071054Y0156522D02*
X0073185Y0156522D01*
X0072621Y0159514D02*
X0057563Y0159514D01*
X0057563Y0158916D02*
X0057623Y0158916D01*
X0057563Y0160113D02*
X0073220Y0160113D01*
X0075507Y0160113D02*
X0076120Y0160113D01*
X0078607Y0160113D02*
X0083220Y0160113D01*
X0082621Y0159514D02*
X0079206Y0159514D01*
X0079454Y0158916D02*
X0082173Y0158916D01*
X0082173Y0158317D02*
X0079454Y0158317D01*
X0080401Y0157719D02*
X0082173Y0157719D01*
X0081027Y0157120D02*
X0081000Y0157120D01*
X0084254Y0155923D02*
X0091984Y0155923D01*
X0092073Y0155325D02*
X0084254Y0155325D01*
X0084254Y0154726D02*
X0092073Y0154726D01*
X0092073Y0154128D02*
X0083948Y0154128D01*
X0083973Y0153529D02*
X0092178Y0153529D01*
X0092776Y0152931D02*
X0084571Y0152931D01*
X0085170Y0152332D02*
X0093993Y0152332D01*
X0094591Y0151734D02*
X0085768Y0151734D01*
X0086367Y0151135D02*
X0095190Y0151135D01*
X0095788Y0150537D02*
X0086965Y0150537D01*
X0087564Y0149938D02*
X0096387Y0149938D01*
X0096985Y0149340D02*
X0088162Y0149340D01*
X0088761Y0148741D02*
X0097584Y0148741D01*
X0098182Y0148143D02*
X0089359Y0148143D01*
X0089958Y0147544D02*
X0094751Y0147544D01*
X0094798Y0147591D02*
X0093573Y0146366D01*
X0093573Y0144634D01*
X0094798Y0143409D01*
X0096529Y0143409D01*
X0097754Y0144634D01*
X0097754Y0146366D01*
X0096529Y0147591D01*
X0094798Y0147591D01*
X0094153Y0146946D02*
X0090556Y0146946D01*
X0091155Y0146347D02*
X0093573Y0146347D01*
X0093573Y0145749D02*
X0091753Y0145749D01*
X0092352Y0145150D02*
X0093573Y0145150D01*
X0093655Y0144552D02*
X0092950Y0144552D01*
X0093463Y0143953D02*
X0094254Y0143953D01*
X0093463Y0143355D02*
X0098863Y0143355D01*
X0098863Y0143953D02*
X0097073Y0143953D01*
X0097672Y0144552D02*
X0098863Y0144552D01*
X0098863Y0145150D02*
X0097754Y0145150D01*
X0097754Y0145749D02*
X0098863Y0145749D01*
X0098863Y0146347D02*
X0097754Y0146347D01*
X0097174Y0146946D02*
X0098863Y0146946D01*
X0098781Y0147544D02*
X0096576Y0147544D01*
X0098863Y0142756D02*
X0093463Y0142756D01*
X0093463Y0142158D02*
X0098863Y0142158D01*
X0098863Y0141559D02*
X0093463Y0141559D01*
X0093463Y0140961D02*
X0098863Y0140961D01*
X0098863Y0140362D02*
X0093463Y0140362D01*
X0093463Y0139764D02*
X0098863Y0139764D01*
X0098863Y0139165D02*
X0093463Y0139165D01*
X0093463Y0138567D02*
X0098863Y0138567D01*
X0098863Y0137968D02*
X0093463Y0137968D01*
X0093463Y0137370D02*
X0098863Y0137370D01*
X0098863Y0136771D02*
X0093463Y0136771D01*
X0093174Y0136172D02*
X0098863Y0136172D01*
X0098863Y0135574D02*
X0098546Y0135574D01*
X0096781Y0135574D02*
X0092576Y0135574D01*
X0091977Y0134975D02*
X0096182Y0134975D01*
X0095584Y0134377D02*
X0091379Y0134377D01*
X0090780Y0133778D02*
X0095573Y0133778D01*
X0095573Y0133180D02*
X0095440Y0133180D01*
X0093287Y0133180D02*
X0091940Y0133180D01*
X0092539Y0132581D02*
X0092688Y0132581D01*
X0094754Y0128990D02*
X0095363Y0128990D01*
X0095363Y0128392D02*
X0094754Y0128392D01*
X0094754Y0127793D02*
X0095363Y0127793D01*
X0095363Y0127195D02*
X0094315Y0127195D01*
X0093716Y0126596D02*
X0095363Y0126596D01*
X0095363Y0125998D02*
X0089963Y0125998D01*
X0089963Y0126596D02*
X0091611Y0126596D01*
X0091012Y0127195D02*
X0089963Y0127195D01*
X0089963Y0127793D02*
X0090573Y0127793D01*
X0090573Y0128392D02*
X0089963Y0128392D01*
X0089963Y0128990D02*
X0090573Y0128990D01*
X0089963Y0125399D02*
X0095363Y0125399D01*
X0095363Y0124801D02*
X0089963Y0124801D01*
X0089963Y0124202D02*
X0095363Y0124202D01*
X0095363Y0123604D02*
X0089963Y0123604D01*
X0089963Y0123005D02*
X0095363Y0123005D01*
X0095363Y0122407D02*
X0089963Y0122407D01*
X0089963Y0121808D02*
X0095363Y0121808D01*
X0095363Y0121210D02*
X0089712Y0121210D01*
X0089113Y0120611D02*
X0095363Y0120611D01*
X0095363Y0120013D02*
X0088515Y0120013D01*
X0087916Y0119414D02*
X0095363Y0119414D01*
X0095363Y0118816D02*
X0087318Y0118816D01*
X0086719Y0118217D02*
X0095363Y0118217D01*
X0095363Y0117619D02*
X0086121Y0117619D01*
X0085522Y0117020D02*
X0095363Y0117020D01*
X0095363Y0116422D02*
X0084924Y0116422D01*
X0084463Y0115823D02*
X0095363Y0115823D01*
X0095363Y0115225D02*
X0084463Y0115225D01*
X0084463Y0114626D02*
X0095363Y0114626D01*
X0095363Y0114028D02*
X0084463Y0114028D01*
X0084463Y0113429D02*
X0093136Y0113429D01*
X0092538Y0112831D02*
X0084463Y0112831D01*
X0084463Y0112232D02*
X0092073Y0112232D01*
X0092073Y0111634D02*
X0084463Y0111634D01*
X0084463Y0111035D02*
X0092073Y0111035D01*
X0092270Y0110437D02*
X0084463Y0110437D01*
X0084463Y0109838D02*
X0092869Y0109838D01*
X0095363Y0109239D02*
X0084463Y0109239D01*
X0084463Y0108641D02*
X0095363Y0108641D01*
X0095363Y0108042D02*
X0086877Y0108042D01*
X0086829Y0108091D02*
X0085098Y0108091D01*
X0083873Y0106866D01*
X0083873Y0105134D01*
X0085098Y0103909D01*
X0086829Y0103909D01*
X0088054Y0105134D01*
X0088054Y0106866D01*
X0086829Y0108091D01*
X0087476Y0107444D02*
X0095363Y0107444D01*
X0095363Y0106845D02*
X0095275Y0106845D01*
X0093052Y0106845D02*
X0088054Y0106845D01*
X0088054Y0106247D02*
X0092454Y0106247D01*
X0092073Y0105648D02*
X0088054Y0105648D01*
X0087970Y0105050D02*
X0092073Y0105050D01*
X0092073Y0104451D02*
X0087371Y0104451D01*
X0084556Y0104451D02*
X0081453Y0104451D01*
X0080963Y0103853D02*
X0092354Y0103853D01*
X0092953Y0103254D02*
X0080963Y0103254D01*
X0080963Y0102656D02*
X0095363Y0102656D01*
X0095363Y0102057D02*
X0095063Y0102057D01*
X0093264Y0102057D02*
X0092063Y0102057D01*
X0092661Y0101459D02*
X0092666Y0101459D01*
X0090264Y0102057D02*
X0080963Y0102057D01*
X0080963Y0101459D02*
X0089666Y0101459D01*
X0089073Y0100860D02*
X0080963Y0100860D01*
X0080963Y0100262D02*
X0089073Y0100262D01*
X0089073Y0099663D02*
X0084457Y0099663D01*
X0084029Y0100091D02*
X0082298Y0100091D01*
X0081073Y0098866D01*
X0081073Y0097134D01*
X0082298Y0095909D01*
X0084029Y0095909D01*
X0085254Y0097134D01*
X0085254Y0098866D01*
X0084029Y0100091D01*
X0085055Y0099065D02*
X0089142Y0099065D01*
X0089741Y0098466D02*
X0085254Y0098466D01*
X0085254Y0097868D02*
X0090075Y0097868D01*
X0089476Y0097269D02*
X0085254Y0097269D01*
X0084791Y0096671D02*
X0089073Y0096671D01*
X0089073Y0096072D02*
X0084192Y0096072D01*
X0082135Y0096072D02*
X0080963Y0096072D01*
X0080963Y0095474D02*
X0088181Y0095474D01*
X0087582Y0094875D02*
X0080963Y0094875D01*
X0081225Y0094277D02*
X0087073Y0094277D01*
X0087073Y0093678D02*
X0081824Y0093678D01*
X0082422Y0093080D02*
X0087073Y0093080D01*
X0087226Y0092481D02*
X0083021Y0092481D01*
X0083619Y0091883D02*
X0087824Y0091883D01*
X0086033Y0090087D02*
X0093363Y0090087D01*
X0093363Y0089489D02*
X0086631Y0089489D01*
X0087230Y0088890D02*
X0093363Y0088890D01*
X0093363Y0088292D02*
X0087254Y0088292D01*
X0087254Y0087693D02*
X0093363Y0087693D01*
X0093363Y0087095D02*
X0087215Y0087095D01*
X0086616Y0086496D02*
X0093363Y0086496D01*
X0093427Y0085898D02*
X0085899Y0085898D01*
X0085301Y0085299D02*
X0094026Y0085299D01*
X0094624Y0084701D02*
X0084702Y0084701D01*
X0084104Y0084102D02*
X0094863Y0084102D01*
X0094863Y0083503D02*
X0081116Y0083503D01*
X0081715Y0082905D02*
X0094863Y0082905D01*
X0094863Y0082306D02*
X0082254Y0082306D01*
X0082254Y0081708D02*
X0094863Y0081708D01*
X0094863Y0081109D02*
X0082254Y0081109D01*
X0082131Y0080511D02*
X0094863Y0080511D01*
X0094863Y0079912D02*
X0081532Y0079912D01*
X0080223Y0084102D02*
X0079254Y0084102D01*
X0078919Y0084701D02*
X0079624Y0084701D01*
X0079026Y0085299D02*
X0078321Y0085299D01*
X0078427Y0085898D02*
X0077754Y0085898D01*
X0077754Y0086496D02*
X0077829Y0086496D01*
X0083963Y0090087D02*
X0084294Y0090087D01*
X0083963Y0090686D02*
X0093363Y0090686D01*
X0093609Y0091284D02*
X0083963Y0091284D01*
X0090503Y0091883D02*
X0094208Y0091883D01*
X0094806Y0092481D02*
X0091101Y0092481D01*
X0091254Y0093080D02*
X0095363Y0093080D01*
X0095363Y0093678D02*
X0091254Y0093678D01*
X0092397Y0094277D02*
X0095363Y0094277D01*
X0095363Y0094875D02*
X0092995Y0094875D01*
X0093254Y0095474D02*
X0095363Y0095474D01*
X0095363Y0096072D02*
X0093254Y0096072D01*
X0093254Y0096671D02*
X0095363Y0096671D01*
X0095363Y0097269D02*
X0092851Y0097269D01*
X0092252Y0097868D02*
X0095363Y0097868D01*
X0092741Y0098466D02*
X0092586Y0098466D01*
X0081870Y0099663D02*
X0080963Y0099663D01*
X0080963Y0099065D02*
X0081272Y0099065D01*
X0081073Y0098466D02*
X0080963Y0098466D01*
X0080963Y0097868D02*
X0081073Y0097868D01*
X0081073Y0097269D02*
X0080963Y0097269D01*
X0080963Y0096671D02*
X0081536Y0096671D01*
X0082052Y0105050D02*
X0083957Y0105050D01*
X0083873Y0105648D02*
X0082650Y0105648D01*
X0083249Y0106247D02*
X0083873Y0106247D01*
X0083702Y0106700D02*
X0083702Y0106700D01*
X0083847Y0106845D02*
X0083873Y0106845D01*
X0084446Y0107444D02*
X0084451Y0107444D01*
X0084463Y0108042D02*
X0085049Y0108042D01*
X0078863Y0114756D02*
X0078529Y0115091D01*
X0076798Y0115091D01*
X0076463Y0114756D01*
X0076463Y0122538D01*
X0074963Y0124038D01*
X0074963Y0132462D01*
X0076702Y0134200D01*
X0077463Y0134962D01*
X0077463Y0140538D01*
X0076702Y0141300D01*
X0075463Y0142538D01*
X0075463Y0150344D01*
X0075954Y0150834D01*
X0075954Y0151953D01*
X0076498Y0151409D01*
X0078229Y0151409D01*
X0078322Y0151503D01*
X0081434Y0148391D01*
X0080798Y0148391D01*
X0079573Y0147166D01*
X0079573Y0145434D01*
X0080798Y0144209D01*
X0082529Y0144209D01*
X0083754Y0145434D01*
X0083754Y0146071D01*
X0087863Y0141962D01*
X0087863Y0138538D01*
X0086554Y0137229D01*
X0086554Y0138366D01*
X0085329Y0139591D01*
X0083598Y0139591D01*
X0082373Y0138366D01*
X0082373Y0136634D01*
X0083598Y0135409D01*
X0084734Y0135409D01*
X0084363Y0135038D01*
X0084363Y0133962D01*
X0084363Y0123538D01*
X0078863Y0118038D01*
X0078863Y0114756D01*
X0078863Y0115225D02*
X0076463Y0115225D01*
X0076463Y0115823D02*
X0078863Y0115823D01*
X0078863Y0116422D02*
X0076463Y0116422D01*
X0076463Y0117020D02*
X0078863Y0117020D01*
X0078863Y0117619D02*
X0076463Y0117619D01*
X0076463Y0118217D02*
X0079042Y0118217D01*
X0079641Y0118816D02*
X0076463Y0118816D01*
X0076463Y0119414D02*
X0080239Y0119414D01*
X0080838Y0120013D02*
X0076463Y0120013D01*
X0076463Y0120611D02*
X0081436Y0120611D01*
X0082035Y0121210D02*
X0076463Y0121210D01*
X0076463Y0121808D02*
X0082633Y0121808D01*
X0083232Y0122407D02*
X0076463Y0122407D01*
X0075997Y0123005D02*
X0083830Y0123005D01*
X0084363Y0123604D02*
X0075398Y0123604D01*
X0074963Y0124202D02*
X0084363Y0124202D01*
X0084363Y0124801D02*
X0074963Y0124801D01*
X0074963Y0125399D02*
X0078508Y0125399D01*
X0078798Y0125109D02*
X0080529Y0125109D01*
X0081754Y0126334D01*
X0081754Y0128066D01*
X0080529Y0129291D01*
X0078798Y0129291D01*
X0077573Y0128066D01*
X0077573Y0126334D01*
X0078798Y0125109D01*
X0077909Y0125998D02*
X0074963Y0125998D01*
X0074963Y0126596D02*
X0077573Y0126596D01*
X0077573Y0127195D02*
X0074963Y0127195D01*
X0074963Y0127793D02*
X0077573Y0127793D01*
X0077899Y0128392D02*
X0074963Y0128392D01*
X0074963Y0128990D02*
X0078497Y0128990D01*
X0078998Y0129509D02*
X0080729Y0129509D01*
X0081954Y0130734D01*
X0081954Y0132466D01*
X0080729Y0133691D01*
X0078998Y0133691D01*
X0077773Y0132466D01*
X0077773Y0130734D01*
X0078998Y0129509D01*
X0078918Y0129589D02*
X0074963Y0129589D01*
X0074963Y0130187D02*
X0078320Y0130187D01*
X0077773Y0130786D02*
X0074963Y0130786D01*
X0074963Y0131384D02*
X0077773Y0131384D01*
X0077773Y0131983D02*
X0074963Y0131983D01*
X0075083Y0132581D02*
X0077888Y0132581D01*
X0078487Y0133180D02*
X0075682Y0133180D01*
X0076280Y0133778D02*
X0084363Y0133778D01*
X0084363Y0133180D02*
X0081240Y0133180D01*
X0081839Y0132581D02*
X0084363Y0132581D01*
X0084363Y0131983D02*
X0081954Y0131983D01*
X0081954Y0131384D02*
X0084363Y0131384D01*
X0084363Y0130786D02*
X0081954Y0130786D01*
X0081407Y0130187D02*
X0084363Y0130187D01*
X0084363Y0129589D02*
X0080809Y0129589D01*
X0080830Y0128990D02*
X0084363Y0128990D01*
X0084363Y0128392D02*
X0081428Y0128392D01*
X0081754Y0127793D02*
X0084363Y0127793D01*
X0084363Y0127195D02*
X0081754Y0127195D01*
X0081754Y0126596D02*
X0084363Y0126596D01*
X0084363Y0125998D02*
X0081418Y0125998D01*
X0080819Y0125399D02*
X0084363Y0125399D01*
X0084363Y0134377D02*
X0076879Y0134377D01*
X0077463Y0134975D02*
X0084363Y0134975D01*
X0083433Y0135574D02*
X0077463Y0135574D01*
X0077463Y0136172D02*
X0082834Y0136172D01*
X0082373Y0136771D02*
X0077463Y0136771D01*
X0077463Y0137370D02*
X0082373Y0137370D01*
X0082373Y0137968D02*
X0077463Y0137968D01*
X0077463Y0138567D02*
X0082574Y0138567D01*
X0083172Y0139165D02*
X0077463Y0139165D01*
X0077463Y0139764D02*
X0087863Y0139764D01*
X0087863Y0140362D02*
X0077463Y0140362D01*
X0077041Y0140961D02*
X0087863Y0140961D01*
X0087863Y0141559D02*
X0076443Y0141559D01*
X0075844Y0142158D02*
X0087667Y0142158D01*
X0087069Y0142756D02*
X0075463Y0142756D01*
X0075463Y0143355D02*
X0086470Y0143355D01*
X0085872Y0143953D02*
X0075463Y0143953D01*
X0075463Y0144552D02*
X0080455Y0144552D01*
X0079857Y0145150D02*
X0075463Y0145150D01*
X0075463Y0145749D02*
X0079573Y0145749D01*
X0079573Y0146347D02*
X0075463Y0146347D01*
X0075463Y0146946D02*
X0079573Y0146946D01*
X0079951Y0147544D02*
X0075463Y0147544D01*
X0075463Y0148143D02*
X0080550Y0148143D01*
X0081084Y0148741D02*
X0075463Y0148741D01*
X0075463Y0149340D02*
X0080485Y0149340D01*
X0079887Y0149938D02*
X0075463Y0149938D01*
X0075657Y0150537D02*
X0079288Y0150537D01*
X0078690Y0151135D02*
X0075954Y0151135D01*
X0075954Y0151734D02*
X0076173Y0151734D01*
X0083754Y0145749D02*
X0084076Y0145749D01*
X0084675Y0145150D02*
X0083470Y0145150D01*
X0082872Y0144552D02*
X0085273Y0144552D01*
X0085755Y0139165D02*
X0087863Y0139165D01*
X0087863Y0138567D02*
X0086353Y0138567D01*
X0086554Y0137968D02*
X0087293Y0137968D01*
X0086695Y0137370D02*
X0086554Y0137370D01*
X0106098Y0126596D02*
X0110582Y0126596D01*
X0110667Y0126512D02*
X0111962Y0125975D01*
X0113365Y0125975D01*
X0114660Y0126512D01*
X0115652Y0127503D01*
X0116188Y0128799D01*
X0116188Y0130201D01*
X0115652Y0131497D01*
X0114660Y0132488D01*
X0113365Y0133025D01*
X0111962Y0133025D01*
X0110667Y0132488D01*
X0109675Y0131497D01*
X0109138Y0130201D01*
X0109138Y0128799D01*
X0109675Y0127503D01*
X0110667Y0126512D01*
X0109984Y0127195D02*
X0106697Y0127195D01*
X0107295Y0127793D02*
X0109555Y0127793D01*
X0109307Y0128392D02*
X0107894Y0128392D01*
X0108492Y0128990D02*
X0109138Y0128990D01*
X0109138Y0129589D02*
X0108963Y0129589D01*
X0108963Y0130187D02*
X0109138Y0130187D01*
X0108963Y0130786D02*
X0109381Y0130786D01*
X0109629Y0131384D02*
X0108963Y0131384D01*
X0108963Y0131983D02*
X0110161Y0131983D01*
X0110891Y0132581D02*
X0108963Y0132581D01*
X0108963Y0133180D02*
X0116363Y0133180D01*
X0116363Y0133778D02*
X0108963Y0133778D01*
X0108963Y0134377D02*
X0116363Y0134377D01*
X0116363Y0134975D02*
X0108963Y0134975D01*
X0108963Y0135574D02*
X0116363Y0135574D01*
X0116363Y0136172D02*
X0113841Y0136172D01*
X0113365Y0135975D02*
X0114660Y0136512D01*
X0115652Y0137503D01*
X0116188Y0138799D01*
X0116188Y0140201D01*
X0115652Y0141497D01*
X0114660Y0142488D01*
X0113365Y0143025D01*
X0111962Y0143025D01*
X0110667Y0142488D01*
X0109675Y0141497D01*
X0109138Y0140201D01*
X0109138Y0138799D01*
X0109675Y0137503D01*
X0110667Y0136512D01*
X0111962Y0135975D01*
X0113365Y0135975D01*
X0114920Y0136771D02*
X0116363Y0136771D01*
X0116363Y0137370D02*
X0115518Y0137370D01*
X0115844Y0137968D02*
X0116363Y0137968D01*
X0116363Y0138567D02*
X0116092Y0138567D01*
X0116188Y0139165D02*
X0116363Y0139165D01*
X0116363Y0139764D02*
X0116188Y0139764D01*
X0116122Y0140362D02*
X0116363Y0140362D01*
X0116363Y0140961D02*
X0115874Y0140961D01*
X0115589Y0141559D02*
X0116363Y0141559D01*
X0116363Y0142158D02*
X0114991Y0142158D01*
X0114014Y0142756D02*
X0116363Y0142756D01*
X0116363Y0143355D02*
X0108963Y0143355D01*
X0108963Y0143953D02*
X0116363Y0143953D01*
X0116363Y0144552D02*
X0108963Y0144552D01*
X0108963Y0145150D02*
X0116363Y0145150D01*
X0116363Y0145749D02*
X0108963Y0145749D01*
X0108963Y0146347D02*
X0111064Y0146347D01*
X0110667Y0146512D02*
X0111962Y0145975D01*
X0113365Y0145975D01*
X0114660Y0146512D01*
X0115652Y0147503D01*
X0116188Y0148799D01*
X0116188Y0150201D01*
X0115652Y0151497D01*
X0114660Y0152488D01*
X0113365Y0153025D01*
X0111962Y0153025D01*
X0110667Y0152488D01*
X0109675Y0151497D01*
X0109138Y0150201D01*
X0109138Y0148799D01*
X0109675Y0147503D01*
X0110667Y0146512D01*
X0110233Y0146946D02*
X0108963Y0146946D01*
X0108963Y0147544D02*
X0109658Y0147544D01*
X0109410Y0148143D02*
X0108963Y0148143D01*
X0108963Y0148741D02*
X0109162Y0148741D01*
X0109138Y0149340D02*
X0108963Y0149340D01*
X0108963Y0149938D02*
X0109138Y0149938D01*
X0109277Y0150537D02*
X0108963Y0150537D01*
X0108963Y0151135D02*
X0109525Y0151135D01*
X0109912Y0151734D02*
X0108963Y0151734D01*
X0108963Y0152332D02*
X0110511Y0152332D01*
X0111735Y0152931D02*
X0108963Y0152931D01*
X0108963Y0153529D02*
X0116363Y0153529D01*
X0116363Y0152931D02*
X0113592Y0152931D01*
X0114816Y0152332D02*
X0116363Y0152332D01*
X0116363Y0151734D02*
X0115415Y0151734D01*
X0115802Y0151135D02*
X0116363Y0151135D01*
X0116363Y0150537D02*
X0116049Y0150537D01*
X0116188Y0149938D02*
X0116363Y0149938D01*
X0116363Y0149340D02*
X0116188Y0149340D01*
X0116165Y0148741D02*
X0116363Y0148741D01*
X0116363Y0148143D02*
X0115917Y0148143D01*
X0115669Y0147544D02*
X0116363Y0147544D01*
X0116363Y0146946D02*
X0115094Y0146946D01*
X0114263Y0146347D02*
X0116363Y0146347D01*
X0111313Y0142756D02*
X0108963Y0142756D01*
X0108963Y0142158D02*
X0110336Y0142158D01*
X0109737Y0141559D02*
X0108963Y0141559D01*
X0108963Y0140961D02*
X0109453Y0140961D01*
X0109205Y0140362D02*
X0108963Y0140362D01*
X0108963Y0139764D02*
X0109138Y0139764D01*
X0109138Y0139165D02*
X0108963Y0139165D01*
X0108963Y0138567D02*
X0109235Y0138567D01*
X0109483Y0137968D02*
X0108963Y0137968D01*
X0108963Y0137370D02*
X0109809Y0137370D01*
X0110407Y0136771D02*
X0108963Y0136771D01*
X0108963Y0136172D02*
X0111486Y0136172D01*
X0114435Y0132581D02*
X0116363Y0132581D01*
X0116363Y0131983D02*
X0115166Y0131983D01*
X0115698Y0131384D02*
X0116363Y0131384D01*
X0116363Y0130786D02*
X0115946Y0130786D01*
X0116188Y0130187D02*
X0116363Y0130187D01*
X0116363Y0129589D02*
X0116188Y0129589D01*
X0116188Y0128990D02*
X0116363Y0128990D01*
X0116363Y0128392D02*
X0116020Y0128392D01*
X0115772Y0127793D02*
X0116363Y0127793D01*
X0116363Y0127195D02*
X0115343Y0127195D01*
X0114745Y0126596D02*
X0116363Y0126596D01*
X0116363Y0125998D02*
X0113420Y0125998D01*
X0111907Y0125998D02*
X0105500Y0125998D01*
X0105463Y0125399D02*
X0116363Y0125399D01*
X0116363Y0124801D02*
X0105463Y0124801D01*
X0105463Y0124202D02*
X0116363Y0124202D01*
X0116363Y0123604D02*
X0105463Y0123604D01*
X0105463Y0123005D02*
X0111915Y0123005D01*
X0111962Y0123025D02*
X0110667Y0122488D01*
X0109675Y0121497D01*
X0109138Y0120201D01*
X0109138Y0118799D01*
X0109675Y0117503D01*
X0110667Y0116512D01*
X0111962Y0115975D01*
X0113365Y0115975D01*
X0114660Y0116512D01*
X0115652Y0117503D01*
X0116188Y0118799D01*
X0116188Y0120201D01*
X0115652Y0121497D01*
X0114660Y0122488D01*
X0113365Y0123025D01*
X0111962Y0123025D01*
X0113412Y0123005D02*
X0116363Y0123005D01*
X0116363Y0122407D02*
X0114742Y0122407D01*
X0115340Y0121808D02*
X0116363Y0121808D01*
X0116363Y0121210D02*
X0115771Y0121210D01*
X0116019Y0120611D02*
X0116363Y0120611D01*
X0116363Y0120013D02*
X0116188Y0120013D01*
X0116188Y0119414D02*
X0116363Y0119414D01*
X0116363Y0118816D02*
X0116188Y0118816D01*
X0116363Y0118217D02*
X0115948Y0118217D01*
X0115700Y0117619D02*
X0116363Y0117619D01*
X0116363Y0117020D02*
X0115169Y0117020D01*
X0114443Y0116422D02*
X0116363Y0116422D01*
X0116363Y0115823D02*
X0105463Y0115823D01*
X0105463Y0115225D02*
X0116363Y0115225D01*
X0116363Y0114626D02*
X0105463Y0114626D01*
X0105463Y0114028D02*
X0116363Y0114028D01*
X0116363Y0113429D02*
X0105463Y0113429D01*
X0105463Y0112831D02*
X0111493Y0112831D01*
X0111962Y0113025D02*
X0110667Y0112488D01*
X0109675Y0111497D01*
X0109138Y0110201D01*
X0109138Y0108799D01*
X0109675Y0107503D01*
X0110667Y0106512D01*
X0111962Y0105975D01*
X0113365Y0105975D01*
X0114660Y0106512D01*
X0115652Y0107503D01*
X0116188Y0108799D01*
X0116188Y0110201D01*
X0115652Y0111497D01*
X0114660Y0112488D01*
X0113365Y0113025D01*
X0111962Y0113025D01*
X0110410Y0112232D02*
X0105463Y0112232D01*
X0105463Y0111634D02*
X0109812Y0111634D01*
X0109484Y0111035D02*
X0105463Y0111035D01*
X0105463Y0110437D02*
X0109236Y0110437D01*
X0109138Y0109838D02*
X0105463Y0109838D01*
X0105463Y0109239D02*
X0109138Y0109239D01*
X0109204Y0108641D02*
X0105463Y0108641D01*
X0105463Y0108042D02*
X0109452Y0108042D01*
X0109734Y0107444D02*
X0105463Y0107444D01*
X0105463Y0106845D02*
X0110333Y0106845D01*
X0111306Y0106247D02*
X0105463Y0106247D01*
X0105463Y0105648D02*
X0116363Y0105648D01*
X0116363Y0105050D02*
X0105463Y0105050D01*
X0105463Y0104451D02*
X0116363Y0104451D01*
X0116363Y0103853D02*
X0105463Y0103853D01*
X0105463Y0103254D02*
X0116363Y0103254D01*
X0116363Y0102656D02*
X0114256Y0102656D01*
X0114660Y0102488D02*
X0113365Y0103025D01*
X0111962Y0103025D01*
X0110667Y0102488D01*
X0109675Y0101497D01*
X0109138Y0100201D01*
X0109138Y0098799D01*
X0109675Y0097503D01*
X0110667Y0096512D01*
X0111962Y0095975D01*
X0113365Y0095975D01*
X0114660Y0096512D01*
X0115652Y0097503D01*
X0116188Y0098799D01*
X0116188Y0100201D01*
X0115652Y0101497D01*
X0114660Y0102488D01*
X0115091Y0102057D02*
X0116363Y0102057D01*
X0116363Y0101459D02*
X0115668Y0101459D01*
X0115915Y0100860D02*
X0116363Y0100860D01*
X0116363Y0100262D02*
X0116163Y0100262D01*
X0116188Y0099663D02*
X0116363Y0099663D01*
X0116363Y0099065D02*
X0116188Y0099065D01*
X0116051Y0098466D02*
X0116363Y0098466D01*
X0116363Y0097868D02*
X0115803Y0097868D01*
X0115418Y0097269D02*
X0116363Y0097269D01*
X0116363Y0096671D02*
X0114819Y0096671D01*
X0113599Y0096072D02*
X0116363Y0096072D01*
X0116363Y0095474D02*
X0105463Y0095474D01*
X0105463Y0096072D02*
X0111728Y0096072D01*
X0110508Y0096671D02*
X0105463Y0096671D01*
X0105463Y0097269D02*
X0109909Y0097269D01*
X0109524Y0097868D02*
X0105463Y0097868D01*
X0105463Y0098466D02*
X0109276Y0098466D01*
X0109138Y0099065D02*
X0105463Y0099065D01*
X0105463Y0099663D02*
X0109138Y0099663D01*
X0109164Y0100262D02*
X0105463Y0100262D01*
X0105463Y0100860D02*
X0109412Y0100860D01*
X0109659Y0101459D02*
X0105463Y0101459D01*
X0105463Y0102057D02*
X0110236Y0102057D01*
X0111071Y0102656D02*
X0105463Y0102656D01*
X0114021Y0106247D02*
X0116363Y0106247D01*
X0116363Y0106845D02*
X0114994Y0106845D01*
X0115593Y0107444D02*
X0116363Y0107444D01*
X0116363Y0108042D02*
X0115875Y0108042D01*
X0116123Y0108641D02*
X0116363Y0108641D01*
X0116363Y0109239D02*
X0116188Y0109239D01*
X0116188Y0109838D02*
X0116363Y0109838D01*
X0116363Y0110437D02*
X0116091Y0110437D01*
X0115843Y0111035D02*
X0116363Y0111035D01*
X0116363Y0111634D02*
X0115515Y0111634D01*
X0114917Y0112232D02*
X0116363Y0112232D01*
X0116363Y0112831D02*
X0113834Y0112831D01*
X0110884Y0116422D02*
X0105463Y0116422D01*
X0105463Y0117020D02*
X0110158Y0117020D01*
X0109627Y0117619D02*
X0105463Y0117619D01*
X0105463Y0118217D02*
X0109379Y0118217D01*
X0109138Y0118816D02*
X0105463Y0118816D01*
X0105463Y0119414D02*
X0109138Y0119414D01*
X0109138Y0120013D02*
X0105463Y0120013D01*
X0105463Y0120611D02*
X0109308Y0120611D01*
X0109556Y0121210D02*
X0105463Y0121210D01*
X0105463Y0121808D02*
X0109987Y0121808D01*
X0110585Y0122407D02*
X0105463Y0122407D01*
X0095363Y0113429D02*
X0095191Y0113429D01*
X0105463Y0094875D02*
X0116363Y0094875D01*
X0116363Y0094277D02*
X0105463Y0094277D01*
X0105463Y0093678D02*
X0116363Y0093678D01*
X0116363Y0093080D02*
X0105463Y0093080D01*
X0105521Y0092481D02*
X0110660Y0092481D01*
X0110667Y0092488D02*
X0109675Y0091497D01*
X0109138Y0090201D01*
X0109138Y0088799D01*
X0109675Y0087503D01*
X0110667Y0086512D01*
X0111962Y0085975D01*
X0113365Y0085975D01*
X0114660Y0086512D01*
X0115652Y0087503D01*
X0116188Y0088799D01*
X0116188Y0090201D01*
X0115652Y0091497D01*
X0114660Y0092488D01*
X0113365Y0093025D01*
X0111962Y0093025D01*
X0110667Y0092488D01*
X0110061Y0091883D02*
X0106119Y0091883D01*
X0106718Y0091284D02*
X0109587Y0091284D01*
X0109339Y0090686D02*
X0106963Y0090686D01*
X0106963Y0090087D02*
X0109138Y0090087D01*
X0109138Y0089489D02*
X0106963Y0089489D01*
X0106963Y0088890D02*
X0109138Y0088890D01*
X0109349Y0088292D02*
X0106963Y0088292D01*
X0106963Y0087693D02*
X0109596Y0087693D01*
X0110084Y0087095D02*
X0106963Y0087095D01*
X0106963Y0086496D02*
X0110704Y0086496D01*
X0106899Y0085898D02*
X0116363Y0085898D01*
X0116363Y0086496D02*
X0114623Y0086496D01*
X0115243Y0087095D02*
X0116363Y0087095D01*
X0116363Y0087693D02*
X0115730Y0087693D01*
X0115978Y0088292D02*
X0116363Y0088292D01*
X0116363Y0088890D02*
X0116188Y0088890D01*
X0116188Y0089489D02*
X0116363Y0089489D01*
X0116363Y0090087D02*
X0116188Y0090087D01*
X0116363Y0090686D02*
X0115988Y0090686D01*
X0115740Y0091284D02*
X0116363Y0091284D01*
X0116363Y0091883D02*
X0115266Y0091883D01*
X0114667Y0092481D02*
X0116363Y0092481D01*
X0116363Y0085299D02*
X0106301Y0085299D01*
X0105702Y0084701D02*
X0116363Y0084701D01*
X0116363Y0084102D02*
X0105104Y0084102D01*
X0104963Y0083503D02*
X0116363Y0083503D01*
X0116363Y0082905D02*
X0113654Y0082905D01*
X0113365Y0083025D02*
X0111962Y0083025D01*
X0110667Y0082488D01*
X0109675Y0081497D01*
X0109138Y0080201D01*
X0109138Y0078799D01*
X0109675Y0077503D01*
X0110667Y0076512D01*
X0111962Y0075975D01*
X0113365Y0075975D01*
X0114660Y0076512D01*
X0115652Y0077503D01*
X0116188Y0078799D01*
X0116188Y0080201D01*
X0115652Y0081497D01*
X0114660Y0082488D01*
X0113365Y0083025D01*
X0114842Y0082306D02*
X0116363Y0082306D01*
X0116363Y0081708D02*
X0115441Y0081708D01*
X0115812Y0081109D02*
X0116363Y0081109D01*
X0116363Y0080511D02*
X0116060Y0080511D01*
X0116188Y0079912D02*
X0116363Y0079912D01*
X0116363Y0079314D02*
X0116188Y0079314D01*
X0116154Y0078715D02*
X0116363Y0078715D01*
X0116363Y0078117D02*
X0115906Y0078117D01*
X0115658Y0077518D02*
X0116363Y0077518D01*
X0116363Y0076920D02*
X0115068Y0076920D01*
X0114201Y0076321D02*
X0116363Y0076321D01*
X0116363Y0075723D02*
X0104963Y0075723D01*
X0104963Y0076321D02*
X0111126Y0076321D01*
X0110259Y0076920D02*
X0104963Y0076920D01*
X0104963Y0077518D02*
X0109669Y0077518D01*
X0109421Y0078117D02*
X0104963Y0078117D01*
X0104963Y0078715D02*
X0109173Y0078715D01*
X0109138Y0079314D02*
X0104963Y0079314D01*
X0104963Y0079912D02*
X0109138Y0079912D01*
X0109267Y0080511D02*
X0104963Y0080511D01*
X0104963Y0081109D02*
X0109515Y0081109D01*
X0109886Y0081708D02*
X0104963Y0081708D01*
X0104963Y0082306D02*
X0110485Y0082306D01*
X0111673Y0082905D02*
X0104963Y0082905D01*
X0104963Y0075124D02*
X0116363Y0075124D01*
X0116363Y0074526D02*
X0104963Y0074526D01*
X0104963Y0073927D02*
X0116363Y0073927D01*
X0116363Y0073329D02*
X0104963Y0073329D01*
X0093255Y0065548D02*
X0057563Y0065548D01*
X0057563Y0064950D02*
X0087157Y0064950D01*
X0086558Y0064351D02*
X0057563Y0064351D01*
X0057563Y0063753D02*
X0086073Y0063753D01*
X0086073Y0063154D02*
X0057563Y0063154D01*
X0057563Y0062556D02*
X0086073Y0062556D01*
X0086250Y0061957D02*
X0057563Y0061957D01*
X0057563Y0061359D02*
X0086848Y0061359D01*
X0088565Y0060760D02*
X0057563Y0060760D01*
X0048763Y0060760D02*
X0045957Y0060760D01*
X0046188Y0060201D02*
X0045652Y0061497D01*
X0044660Y0062488D01*
X0043365Y0063025D01*
X0041962Y0063025D01*
X0040667Y0062488D01*
X0039675Y0061497D01*
X0039138Y0060201D01*
X0039138Y0058799D01*
X0039675Y0057503D01*
X0040667Y0056512D01*
X0041962Y0055975D01*
X0043365Y0055975D01*
X0044660Y0056512D01*
X0045652Y0057503D01*
X0046188Y0058799D01*
X0046188Y0060201D01*
X0046188Y0060162D02*
X0048763Y0060162D01*
X0048763Y0059563D02*
X0046188Y0059563D01*
X0046188Y0058965D02*
X0048763Y0058965D01*
X0048763Y0058366D02*
X0046009Y0058366D01*
X0045761Y0057768D02*
X0048763Y0057768D01*
X0048763Y0057169D02*
X0045318Y0057169D01*
X0044719Y0056570D02*
X0048763Y0056570D01*
X0048763Y0055972D02*
X0038963Y0055972D01*
X0038963Y0056570D02*
X0040608Y0056570D01*
X0040009Y0057169D02*
X0038963Y0057169D01*
X0038963Y0057768D02*
X0039566Y0057768D01*
X0039318Y0058366D02*
X0038963Y0058366D01*
X0038963Y0058965D02*
X0039138Y0058965D01*
X0039138Y0059563D02*
X0038963Y0059563D01*
X0038963Y0060162D02*
X0039138Y0060162D01*
X0038963Y0060760D02*
X0039370Y0060760D01*
X0039618Y0061359D02*
X0038963Y0061359D01*
X0038963Y0061957D02*
X0040135Y0061957D01*
X0040829Y0062556D02*
X0038963Y0062556D01*
X0038963Y0063154D02*
X0048763Y0063154D01*
X0048763Y0062556D02*
X0044498Y0062556D01*
X0045191Y0061957D02*
X0048763Y0061957D01*
X0048763Y0061359D02*
X0045709Y0061359D01*
X0048763Y0063753D02*
X0038963Y0063753D01*
X0038963Y0064351D02*
X0048763Y0064351D01*
X0048763Y0064950D02*
X0038963Y0064950D01*
X0038963Y0065548D02*
X0048763Y0065548D01*
X0048763Y0066147D02*
X0043779Y0066147D01*
X0043365Y0065975D02*
X0044660Y0066512D01*
X0045652Y0067503D01*
X0046188Y0068799D01*
X0046188Y0070201D01*
X0045652Y0071497D01*
X0044660Y0072488D01*
X0043365Y0073025D01*
X0041962Y0073025D01*
X0040667Y0072488D01*
X0039675Y0071497D01*
X0039138Y0070201D01*
X0039138Y0068799D01*
X0039675Y0067503D01*
X0040667Y0066512D01*
X0041962Y0065975D01*
X0043365Y0065975D01*
X0044894Y0066745D02*
X0048763Y0066745D01*
X0048763Y0067344D02*
X0045492Y0067344D01*
X0045834Y0067942D02*
X0048763Y0067942D01*
X0048763Y0068541D02*
X0046082Y0068541D01*
X0046188Y0069139D02*
X0048763Y0069139D01*
X0048763Y0069738D02*
X0046188Y0069738D01*
X0046133Y0070336D02*
X0048763Y0070336D01*
X0048763Y0070935D02*
X0045885Y0070935D01*
X0045615Y0071533D02*
X0048763Y0071533D01*
X0048763Y0072132D02*
X0045017Y0072132D01*
X0044076Y0072730D02*
X0048763Y0072730D01*
X0048763Y0073329D02*
X0038963Y0073329D01*
X0038963Y0073927D02*
X0048763Y0073927D01*
X0048763Y0074526D02*
X0038963Y0074526D01*
X0038963Y0075124D02*
X0048763Y0075124D01*
X0048763Y0075723D02*
X0038963Y0075723D01*
X0038963Y0076321D02*
X0041126Y0076321D01*
X0040667Y0076512D02*
X0041962Y0075975D01*
X0043365Y0075975D01*
X0044660Y0076512D01*
X0045652Y0077503D01*
X0046188Y0078799D01*
X0046188Y0080201D01*
X0045652Y0081497D01*
X0044660Y0082488D01*
X0043365Y0083025D01*
X0041962Y0083025D01*
X0040667Y0082488D01*
X0039675Y0081497D01*
X0039138Y0080201D01*
X0039138Y0078799D01*
X0039675Y0077503D01*
X0040667Y0076512D01*
X0040259Y0076920D02*
X0038963Y0076920D01*
X0038963Y0077518D02*
X0039669Y0077518D01*
X0039421Y0078117D02*
X0038963Y0078117D01*
X0038963Y0078715D02*
X0039173Y0078715D01*
X0039138Y0079314D02*
X0038963Y0079314D01*
X0038963Y0079912D02*
X0039138Y0079912D01*
X0039267Y0080511D02*
X0038963Y0080511D01*
X0038963Y0081109D02*
X0039515Y0081109D01*
X0039886Y0081708D02*
X0038963Y0081708D01*
X0038963Y0082306D02*
X0040485Y0082306D01*
X0041673Y0082905D02*
X0038963Y0082905D01*
X0038963Y0083503D02*
X0048763Y0083503D01*
X0048763Y0082905D02*
X0043654Y0082905D01*
X0044842Y0082306D02*
X0048763Y0082306D01*
X0048763Y0081708D02*
X0045441Y0081708D01*
X0045812Y0081109D02*
X0048763Y0081109D01*
X0048763Y0080511D02*
X0046060Y0080511D01*
X0046188Y0079912D02*
X0048763Y0079912D01*
X0048763Y0079314D02*
X0046188Y0079314D01*
X0046154Y0078715D02*
X0048763Y0078715D01*
X0048763Y0078117D02*
X0045906Y0078117D01*
X0045658Y0077518D02*
X0048763Y0077518D01*
X0048763Y0076920D02*
X0045068Y0076920D01*
X0044201Y0076321D02*
X0048763Y0076321D01*
X0041251Y0072730D02*
X0038963Y0072730D01*
X0038963Y0072132D02*
X0040310Y0072132D01*
X0039712Y0071533D02*
X0038963Y0071533D01*
X0038963Y0070935D02*
X0039442Y0070935D01*
X0039194Y0070336D02*
X0038963Y0070336D01*
X0038963Y0069738D02*
X0039138Y0069738D01*
X0039138Y0069139D02*
X0038963Y0069139D01*
X0038963Y0068541D02*
X0039245Y0068541D01*
X0039493Y0067942D02*
X0038963Y0067942D01*
X0038963Y0067344D02*
X0039835Y0067344D01*
X0040433Y0066745D02*
X0038963Y0066745D01*
X0038963Y0066147D02*
X0041548Y0066147D01*
X0038963Y0055373D02*
X0048763Y0055373D01*
X0048763Y0054775D02*
X0038963Y0054775D01*
X0038963Y0054176D02*
X0048763Y0054176D01*
X0048763Y0053578D02*
X0038963Y0053578D01*
X0038963Y0052979D02*
X0041852Y0052979D01*
X0041962Y0053025D02*
X0040667Y0052488D01*
X0039675Y0051497D01*
X0039138Y0050201D01*
X0039138Y0048799D01*
X0039675Y0047503D01*
X0040667Y0046512D01*
X0041962Y0045975D01*
X0043365Y0045975D01*
X0044660Y0046512D01*
X0045652Y0047503D01*
X0046188Y0048799D01*
X0046188Y0050201D01*
X0045652Y0051497D01*
X0044660Y0052488D01*
X0043365Y0053025D01*
X0041962Y0053025D01*
X0043475Y0052979D02*
X0048763Y0052979D01*
X0048763Y0052381D02*
X0044768Y0052381D01*
X0045366Y0051782D02*
X0048763Y0051782D01*
X0048763Y0051184D02*
X0045781Y0051184D01*
X0046029Y0050585D02*
X0048763Y0050585D01*
X0048763Y0049987D02*
X0046188Y0049987D01*
X0046188Y0049388D02*
X0048763Y0049388D01*
X0048763Y0048790D02*
X0046185Y0048790D01*
X0045937Y0048191D02*
X0048763Y0048191D01*
X0048763Y0047593D02*
X0045689Y0047593D01*
X0045143Y0046994D02*
X0048763Y0046994D01*
X0048763Y0046396D02*
X0044380Y0046396D01*
X0040946Y0046396D02*
X0038963Y0046396D01*
X0038963Y0046994D02*
X0040184Y0046994D01*
X0039638Y0047593D02*
X0038963Y0047593D01*
X0038963Y0048191D02*
X0039390Y0048191D01*
X0039142Y0048790D02*
X0038963Y0048790D01*
X0038963Y0049388D02*
X0039138Y0049388D01*
X0039138Y0049987D02*
X0038963Y0049987D01*
X0038963Y0050585D02*
X0039298Y0050585D01*
X0039546Y0051184D02*
X0038963Y0051184D01*
X0038963Y0051782D02*
X0039961Y0051782D01*
X0040559Y0052381D02*
X0038963Y0052381D01*
X0038963Y0045797D02*
X0048763Y0045797D01*
X0048763Y0045199D02*
X0038963Y0045199D01*
X0038963Y0044600D02*
X0048763Y0044600D01*
X0048763Y0044002D02*
X0038963Y0044002D01*
X0038963Y0043403D02*
X0048763Y0043403D01*
X0048763Y0042805D02*
X0043896Y0042805D01*
X0043365Y0043025D02*
X0044660Y0042488D01*
X0045652Y0041497D01*
X0046188Y0040201D01*
X0046188Y0038799D01*
X0045652Y0037503D01*
X0044660Y0036512D01*
X0043365Y0035975D01*
X0041962Y0035975D01*
X0040667Y0036512D01*
X0039675Y0037503D01*
X0039138Y0038799D01*
X0039138Y0040201D01*
X0039675Y0041497D01*
X0040667Y0042488D01*
X0041962Y0043025D01*
X0043365Y0043025D01*
X0044942Y0042206D02*
X0048763Y0042206D01*
X0048763Y0041608D02*
X0045541Y0041608D01*
X0045854Y0041009D02*
X0048763Y0041009D01*
X0048763Y0040411D02*
X0046102Y0040411D01*
X0046188Y0039812D02*
X0048763Y0039812D01*
X0048763Y0039214D02*
X0046188Y0039214D01*
X0046112Y0038615D02*
X0048763Y0038615D01*
X0048763Y0038017D02*
X0045864Y0038017D01*
X0045567Y0037418D02*
X0048763Y0037418D01*
X0048763Y0036820D02*
X0044968Y0036820D01*
X0043959Y0036221D02*
X0048763Y0036221D01*
X0048763Y0035623D02*
X0038963Y0035623D01*
X0038963Y0036221D02*
X0041368Y0036221D01*
X0040359Y0036820D02*
X0038963Y0036820D01*
X0038963Y0037418D02*
X0039760Y0037418D01*
X0039462Y0038017D02*
X0038963Y0038017D01*
X0038963Y0038615D02*
X0039215Y0038615D01*
X0039138Y0039214D02*
X0038963Y0039214D01*
X0038963Y0039812D02*
X0039138Y0039812D01*
X0039225Y0040411D02*
X0038963Y0040411D01*
X0038963Y0041009D02*
X0039473Y0041009D01*
X0039786Y0041608D02*
X0038963Y0041608D01*
X0038963Y0042206D02*
X0040385Y0042206D01*
X0041431Y0042805D02*
X0038963Y0042805D01*
X0038963Y0035024D02*
X0048763Y0035024D01*
X0048763Y0034426D02*
X0038963Y0034426D01*
X0038963Y0033827D02*
X0048763Y0033827D01*
X0048763Y0033229D02*
X0038963Y0033229D01*
X0038963Y0032630D02*
X0041009Y0032630D01*
X0040667Y0032488D02*
X0039675Y0031497D01*
X0039138Y0030201D01*
X0039138Y0028799D01*
X0039675Y0027503D01*
X0040667Y0026512D01*
X0041962Y0025975D01*
X0043365Y0025975D01*
X0044660Y0026512D01*
X0045652Y0027503D01*
X0046188Y0028799D01*
X0046188Y0030201D01*
X0045652Y0031497D01*
X0044660Y0032488D01*
X0043365Y0033025D01*
X0041962Y0033025D01*
X0040667Y0032488D01*
X0040210Y0032032D02*
X0038963Y0032032D01*
X0038963Y0031433D02*
X0039649Y0031433D01*
X0039401Y0030834D02*
X0038963Y0030834D01*
X0038963Y0030236D02*
X0039153Y0030236D01*
X0039138Y0029637D02*
X0038963Y0029637D01*
X0038963Y0029039D02*
X0039138Y0029039D01*
X0039287Y0028440D02*
X0038963Y0028440D01*
X0038963Y0027842D02*
X0039535Y0027842D01*
X0039935Y0027243D02*
X0038963Y0027243D01*
X0038963Y0026645D02*
X0040533Y0026645D01*
X0041790Y0026046D02*
X0038963Y0026046D01*
X0038963Y0025448D02*
X0045794Y0025448D01*
X0045763Y0024849D02*
X0038963Y0024849D01*
X0038963Y0024251D02*
X0045763Y0024251D01*
X0045763Y0023652D02*
X0038963Y0023652D01*
X0038963Y0023054D02*
X0045763Y0023054D01*
X0045763Y0022455D02*
X0044693Y0022455D01*
X0045292Y0021857D02*
X0045763Y0021857D01*
X0045751Y0021258D02*
X0045763Y0021258D01*
X0046188Y0019463D02*
X0046245Y0019463D01*
X0046188Y0018864D02*
X0046577Y0018864D01*
X0047175Y0018266D02*
X0045968Y0018266D01*
X0045720Y0017667D02*
X0047919Y0017667D01*
X0040767Y0016470D02*
X0038963Y0016470D01*
X0038963Y0017069D02*
X0040110Y0017069D01*
X0039607Y0017667D02*
X0038963Y0017667D01*
X0038963Y0018266D02*
X0039359Y0018266D01*
X0039138Y0018864D02*
X0038963Y0018864D01*
X0038963Y0019463D02*
X0039138Y0019463D01*
X0039138Y0020061D02*
X0038963Y0020061D01*
X0038963Y0020660D02*
X0039328Y0020660D01*
X0039576Y0021258D02*
X0038963Y0021258D01*
X0038963Y0021857D02*
X0040035Y0021857D01*
X0040634Y0022455D02*
X0038963Y0022455D01*
X0043537Y0026046D02*
X0046041Y0026046D01*
X0046289Y0026645D02*
X0044793Y0026645D01*
X0045392Y0027243D02*
X0046684Y0027243D01*
X0047283Y0027842D02*
X0045792Y0027842D01*
X0046040Y0028440D02*
X0047881Y0028440D01*
X0048480Y0029039D02*
X0046188Y0029039D01*
X0046188Y0029637D02*
X0048763Y0029637D01*
X0048763Y0030236D02*
X0046174Y0030236D01*
X0045926Y0030834D02*
X0048763Y0030834D01*
X0048763Y0031433D02*
X0045678Y0031433D01*
X0045117Y0032032D02*
X0048763Y0032032D01*
X0048763Y0032630D02*
X0044318Y0032630D01*
X0041124Y0010485D02*
X0078192Y0010485D01*
X0077594Y0009887D02*
X0041424Y0009887D01*
X0041723Y0009288D02*
X0077073Y0009288D01*
X0077073Y0008690D02*
X0042022Y0008690D01*
X0042321Y0008091D02*
X0077073Y0008091D01*
X0077214Y0007493D02*
X0042621Y0007493D01*
X0114719Y0056570D02*
X0116363Y0056570D01*
X0116363Y0057169D02*
X0115318Y0057169D01*
X0115761Y0057768D02*
X0116363Y0057768D01*
X0116363Y0058366D02*
X0116009Y0058366D01*
X0116188Y0058965D02*
X0116363Y0058965D01*
X0116363Y0059563D02*
X0116188Y0059563D01*
X0116188Y0060162D02*
X0116363Y0060162D01*
X0116363Y0060760D02*
X0115957Y0060760D01*
X0115709Y0061359D02*
X0116363Y0061359D01*
X0116363Y0061957D02*
X0115191Y0061957D01*
X0114498Y0062556D02*
X0116363Y0062556D01*
X0093073Y0063753D02*
X0090254Y0063753D01*
X0089769Y0064351D02*
X0093073Y0064351D01*
X0093073Y0064950D02*
X0089170Y0064950D01*
X0048763Y0084102D02*
X0038963Y0084102D01*
X0038963Y0084701D02*
X0048763Y0084701D01*
X0048763Y0085299D02*
X0038963Y0085299D01*
X0038963Y0085898D02*
X0048763Y0085898D01*
X0048763Y0086496D02*
X0044623Y0086496D01*
X0044660Y0086512D02*
X0045652Y0087503D01*
X0046188Y0088799D01*
X0046188Y0090201D01*
X0045652Y0091497D01*
X0044660Y0092488D01*
X0043365Y0093025D01*
X0041962Y0093025D01*
X0040667Y0092488D01*
X0039675Y0091497D01*
X0039138Y0090201D01*
X0039138Y0088799D01*
X0039675Y0087503D01*
X0040667Y0086512D01*
X0041962Y0085975D01*
X0043365Y0085975D01*
X0044660Y0086512D01*
X0045243Y0087095D02*
X0048763Y0087095D01*
X0048763Y0087693D02*
X0045730Y0087693D01*
X0045978Y0088292D02*
X0048763Y0088292D01*
X0048763Y0088890D02*
X0046188Y0088890D01*
X0046188Y0089489D02*
X0048763Y0089489D01*
X0048763Y0090087D02*
X0046188Y0090087D01*
X0045988Y0090686D02*
X0048763Y0090686D01*
X0048763Y0091284D02*
X0045740Y0091284D01*
X0045266Y0091883D02*
X0048763Y0091883D01*
X0048763Y0092481D02*
X0044667Y0092481D01*
X0043365Y0095975D02*
X0044660Y0096512D01*
X0045652Y0097503D01*
X0046188Y0098799D01*
X0046188Y0100201D01*
X0045652Y0101497D01*
X0044660Y0102488D01*
X0043365Y0103025D01*
X0041962Y0103025D01*
X0040667Y0102488D01*
X0039675Y0101497D01*
X0039138Y0100201D01*
X0039138Y0098799D01*
X0039675Y0097503D01*
X0040667Y0096512D01*
X0041962Y0095975D01*
X0043365Y0095975D01*
X0043599Y0096072D02*
X0048763Y0096072D01*
X0048763Y0095474D02*
X0038963Y0095474D01*
X0038963Y0096072D02*
X0041728Y0096072D01*
X0040508Y0096671D02*
X0038963Y0096671D01*
X0038963Y0097269D02*
X0039909Y0097269D01*
X0039524Y0097868D02*
X0038963Y0097868D01*
X0038963Y0098466D02*
X0039276Y0098466D01*
X0039138Y0099065D02*
X0038963Y0099065D01*
X0038963Y0099663D02*
X0039138Y0099663D01*
X0039164Y0100262D02*
X0038963Y0100262D01*
X0038963Y0100860D02*
X0039412Y0100860D01*
X0039659Y0101459D02*
X0038963Y0101459D01*
X0038963Y0102057D02*
X0040236Y0102057D01*
X0041071Y0102656D02*
X0038963Y0102656D01*
X0038963Y0103254D02*
X0048763Y0103254D01*
X0048763Y0102656D02*
X0044256Y0102656D01*
X0045091Y0102057D02*
X0048763Y0102057D01*
X0048763Y0101459D02*
X0045668Y0101459D01*
X0045915Y0100860D02*
X0048763Y0100860D01*
X0048763Y0100262D02*
X0046163Y0100262D01*
X0046188Y0099663D02*
X0048763Y0099663D01*
X0048763Y0099065D02*
X0046188Y0099065D01*
X0046051Y0098466D02*
X0048763Y0098466D01*
X0048763Y0097868D02*
X0045803Y0097868D01*
X0045418Y0097269D02*
X0048763Y0097269D01*
X0048763Y0096671D02*
X0044819Y0096671D01*
X0048763Y0094875D02*
X0038963Y0094875D01*
X0038963Y0094277D02*
X0048763Y0094277D01*
X0048763Y0093678D02*
X0038963Y0093678D01*
X0038963Y0093080D02*
X0048763Y0093080D01*
X0040660Y0092481D02*
X0038963Y0092481D01*
X0038963Y0091883D02*
X0040061Y0091883D01*
X0039587Y0091284D02*
X0038963Y0091284D01*
X0038963Y0090686D02*
X0039339Y0090686D01*
X0039138Y0090087D02*
X0038963Y0090087D01*
X0038963Y0089489D02*
X0039138Y0089489D01*
X0039138Y0088890D02*
X0038963Y0088890D01*
X0038963Y0088292D02*
X0039349Y0088292D01*
X0039596Y0087693D02*
X0038963Y0087693D01*
X0038963Y0087095D02*
X0040084Y0087095D01*
X0040704Y0086496D02*
X0038963Y0086496D01*
X0038963Y0103853D02*
X0048763Y0103853D01*
X0048763Y0104451D02*
X0038963Y0104451D01*
X0038963Y0105050D02*
X0048763Y0105050D01*
X0048763Y0105648D02*
X0038963Y0105648D01*
X0038963Y0106247D02*
X0041306Y0106247D01*
X0040667Y0106512D02*
X0041962Y0105975D01*
X0043365Y0105975D01*
X0044660Y0106512D01*
X0045652Y0107503D01*
X0046188Y0108799D01*
X0046188Y0110201D01*
X0045652Y0111497D01*
X0044660Y0112488D01*
X0043365Y0113025D01*
X0041962Y0113025D01*
X0040667Y0112488D01*
X0039675Y0111497D01*
X0039138Y0110201D01*
X0039138Y0108799D01*
X0039675Y0107503D01*
X0040667Y0106512D01*
X0040333Y0106845D02*
X0038963Y0106845D01*
X0038963Y0107444D02*
X0039734Y0107444D01*
X0039452Y0108042D02*
X0038963Y0108042D01*
X0038963Y0108641D02*
X0039204Y0108641D01*
X0039138Y0109239D02*
X0038963Y0109239D01*
X0038963Y0109838D02*
X0039138Y0109838D01*
X0039236Y0110437D02*
X0038963Y0110437D01*
X0038963Y0111035D02*
X0039484Y0111035D01*
X0039812Y0111634D02*
X0038963Y0111634D01*
X0038963Y0112232D02*
X0040410Y0112232D01*
X0041493Y0112831D02*
X0038963Y0112831D01*
X0038963Y0113429D02*
X0048763Y0113429D01*
X0048763Y0112831D02*
X0043834Y0112831D01*
X0044917Y0112232D02*
X0048763Y0112232D01*
X0048763Y0111634D02*
X0045515Y0111634D01*
X0045843Y0111035D02*
X0048763Y0111035D01*
X0048763Y0110437D02*
X0046091Y0110437D01*
X0046188Y0109838D02*
X0048763Y0109838D01*
X0048763Y0109239D02*
X0046188Y0109239D01*
X0046123Y0108641D02*
X0048763Y0108641D01*
X0048763Y0108042D02*
X0045875Y0108042D01*
X0045593Y0107444D02*
X0048763Y0107444D01*
X0048763Y0106845D02*
X0044994Y0106845D01*
X0044021Y0106247D02*
X0048763Y0106247D01*
X0057563Y0106247D02*
X0059460Y0106247D01*
X0059073Y0106845D02*
X0057563Y0106845D01*
X0057563Y0107444D02*
X0059073Y0107444D01*
X0059073Y0108042D02*
X0057563Y0108042D01*
X0057563Y0108641D02*
X0059348Y0108641D01*
X0059467Y0109239D02*
X0057563Y0109239D01*
X0057563Y0109838D02*
X0059073Y0109838D01*
X0059073Y0110437D02*
X0057563Y0110437D01*
X0057563Y0111035D02*
X0059073Y0111035D01*
X0059341Y0111634D02*
X0058020Y0111634D01*
X0058618Y0112232D02*
X0059475Y0112232D01*
X0050961Y0117020D02*
X0045169Y0117020D01*
X0045652Y0117503D02*
X0046188Y0118799D01*
X0046188Y0120201D01*
X0045652Y0121497D01*
X0044660Y0122488D01*
X0043365Y0123025D01*
X0041962Y0123025D01*
X0040667Y0122488D01*
X0039675Y0121497D01*
X0039138Y0120201D01*
X0039138Y0118799D01*
X0039675Y0117503D01*
X0040667Y0116512D01*
X0041962Y0115975D01*
X0043365Y0115975D01*
X0044660Y0116512D01*
X0045652Y0117503D01*
X0045700Y0117619D02*
X0051088Y0117619D01*
X0050490Y0118217D02*
X0045948Y0118217D01*
X0046188Y0118816D02*
X0050073Y0118816D01*
X0048793Y0119414D02*
X0046188Y0119414D01*
X0046188Y0120013D02*
X0048194Y0120013D01*
X0047596Y0120611D02*
X0046019Y0120611D01*
X0045771Y0121210D02*
X0047573Y0121210D01*
X0047573Y0121808D02*
X0045340Y0121808D01*
X0044742Y0122407D02*
X0047614Y0122407D01*
X0048212Y0123005D02*
X0043412Y0123005D01*
X0041915Y0123005D02*
X0038963Y0123005D01*
X0038963Y0122407D02*
X0040585Y0122407D01*
X0039987Y0121808D02*
X0038963Y0121808D01*
X0038963Y0121210D02*
X0039556Y0121210D01*
X0039308Y0120611D02*
X0038963Y0120611D01*
X0038963Y0120013D02*
X0039138Y0120013D01*
X0039138Y0119414D02*
X0038963Y0119414D01*
X0038963Y0118816D02*
X0039138Y0118816D01*
X0038963Y0118217D02*
X0039379Y0118217D01*
X0039627Y0117619D02*
X0038963Y0117619D01*
X0038963Y0117020D02*
X0040158Y0117020D01*
X0040884Y0116422D02*
X0038963Y0116422D01*
X0038963Y0115823D02*
X0049764Y0115823D01*
X0049322Y0115225D02*
X0038963Y0115225D01*
X0038963Y0114626D02*
X0049074Y0114626D01*
X0048827Y0114028D02*
X0038963Y0114028D01*
X0044443Y0116422D02*
X0050363Y0116422D01*
X0051754Y0121808D02*
X0053263Y0121808D01*
X0053263Y0122407D02*
X0051713Y0122407D01*
X0051115Y0123005D02*
X0053263Y0123005D01*
X0053263Y0123604D02*
X0038963Y0123604D01*
X0038963Y0124202D02*
X0052739Y0124202D01*
X0052140Y0124801D02*
X0038963Y0124801D01*
X0038963Y0125399D02*
X0051542Y0125399D01*
X0050943Y0125998D02*
X0043420Y0125998D01*
X0043365Y0125975D02*
X0044660Y0126512D01*
X0045652Y0127503D01*
X0046188Y0128799D01*
X0046188Y0130201D01*
X0045652Y0131497D01*
X0044660Y0132488D01*
X0043365Y0133025D01*
X0041962Y0133025D01*
X0040667Y0132488D01*
X0039675Y0131497D01*
X0039138Y0130201D01*
X0039138Y0128799D01*
X0039675Y0127503D01*
X0040667Y0126512D01*
X0041962Y0125975D01*
X0043365Y0125975D01*
X0041907Y0125998D02*
X0038963Y0125998D01*
X0038963Y0126596D02*
X0040582Y0126596D01*
X0039984Y0127195D02*
X0038963Y0127195D01*
X0038963Y0127793D02*
X0039555Y0127793D01*
X0039307Y0128392D02*
X0038963Y0128392D01*
X0038963Y0128990D02*
X0039138Y0128990D01*
X0039138Y0129589D02*
X0038963Y0129589D01*
X0038963Y0130187D02*
X0039138Y0130187D01*
X0038963Y0130786D02*
X0039381Y0130786D01*
X0039629Y0131384D02*
X0038963Y0131384D01*
X0038963Y0131983D02*
X0040161Y0131983D01*
X0040891Y0132581D02*
X0038963Y0132581D01*
X0038963Y0133180D02*
X0048763Y0133180D01*
X0048763Y0133778D02*
X0038963Y0133778D01*
X0038963Y0134377D02*
X0048763Y0134377D01*
X0048763Y0134975D02*
X0038963Y0134975D01*
X0038963Y0135574D02*
X0048763Y0135574D01*
X0048763Y0136172D02*
X0043841Y0136172D01*
X0043365Y0135975D02*
X0044660Y0136512D01*
X0045652Y0137503D01*
X0046188Y0138799D01*
X0046188Y0140201D01*
X0045652Y0141497D01*
X0044660Y0142488D01*
X0043365Y0143025D01*
X0041962Y0143025D01*
X0040667Y0142488D01*
X0039675Y0141497D01*
X0039138Y0140201D01*
X0039138Y0138799D01*
X0039675Y0137503D01*
X0040667Y0136512D01*
X0041962Y0135975D01*
X0043365Y0135975D01*
X0044920Y0136771D02*
X0048763Y0136771D01*
X0048763Y0137370D02*
X0045518Y0137370D01*
X0045844Y0137968D02*
X0048763Y0137968D01*
X0048763Y0138567D02*
X0046092Y0138567D01*
X0046188Y0139165D02*
X0048763Y0139165D01*
X0048763Y0139764D02*
X0046188Y0139764D01*
X0046122Y0140362D02*
X0048763Y0140362D01*
X0048763Y0140961D02*
X0045874Y0140961D01*
X0045589Y0141559D02*
X0048763Y0141559D01*
X0048763Y0142158D02*
X0044991Y0142158D01*
X0044014Y0142756D02*
X0048763Y0142756D01*
X0048763Y0143355D02*
X0038963Y0143355D01*
X0038963Y0143953D02*
X0048763Y0143953D01*
X0048763Y0144552D02*
X0038963Y0144552D01*
X0038963Y0145150D02*
X0048763Y0145150D01*
X0048763Y0145749D02*
X0038963Y0145749D01*
X0038963Y0146347D02*
X0041064Y0146347D01*
X0040667Y0146512D02*
X0041962Y0145975D01*
X0043365Y0145975D01*
X0044660Y0146512D01*
X0045652Y0147503D01*
X0046188Y0148799D01*
X0046188Y0150201D01*
X0045652Y0151497D01*
X0044660Y0152488D01*
X0043365Y0153025D01*
X0041962Y0153025D01*
X0040667Y0152488D01*
X0039675Y0151497D01*
X0039138Y0150201D01*
X0039138Y0148799D01*
X0039675Y0147503D01*
X0040667Y0146512D01*
X0040233Y0146946D02*
X0038963Y0146946D01*
X0038963Y0147544D02*
X0039658Y0147544D01*
X0039410Y0148143D02*
X0038963Y0148143D01*
X0038963Y0148741D02*
X0039162Y0148741D01*
X0039138Y0149340D02*
X0038963Y0149340D01*
X0038963Y0149938D02*
X0039138Y0149938D01*
X0039277Y0150537D02*
X0038963Y0150537D01*
X0038963Y0151135D02*
X0039525Y0151135D01*
X0039912Y0151734D02*
X0038963Y0151734D01*
X0038963Y0152332D02*
X0040511Y0152332D01*
X0041735Y0152931D02*
X0038963Y0152931D01*
X0038963Y0153529D02*
X0048763Y0153529D01*
X0048763Y0152931D02*
X0043592Y0152931D01*
X0044816Y0152332D02*
X0048763Y0152332D01*
X0048763Y0151734D02*
X0045415Y0151734D01*
X0045802Y0151135D02*
X0048763Y0151135D01*
X0048763Y0150537D02*
X0046049Y0150537D01*
X0046188Y0149938D02*
X0048763Y0149938D01*
X0048763Y0149340D02*
X0046188Y0149340D01*
X0046165Y0148741D02*
X0048763Y0148741D01*
X0048763Y0148143D02*
X0045917Y0148143D01*
X0045669Y0147544D02*
X0048763Y0147544D01*
X0048763Y0146946D02*
X0045094Y0146946D01*
X0044263Y0146347D02*
X0048763Y0146347D01*
X0041313Y0142756D02*
X0038963Y0142756D01*
X0038963Y0142158D02*
X0040336Y0142158D01*
X0039737Y0141559D02*
X0038963Y0141559D01*
X0038963Y0140961D02*
X0039453Y0140961D01*
X0039205Y0140362D02*
X0038963Y0140362D01*
X0038963Y0139764D02*
X0039138Y0139764D01*
X0039138Y0139165D02*
X0038963Y0139165D01*
X0038963Y0138567D02*
X0039235Y0138567D01*
X0039483Y0137968D02*
X0038963Y0137968D01*
X0038963Y0137370D02*
X0039809Y0137370D01*
X0040407Y0136771D02*
X0038963Y0136771D01*
X0038963Y0136172D02*
X0041486Y0136172D01*
X0044435Y0132581D02*
X0048763Y0132581D01*
X0048763Y0131983D02*
X0045166Y0131983D01*
X0045698Y0131384D02*
X0048763Y0131384D01*
X0048763Y0130786D02*
X0045946Y0130786D01*
X0046188Y0130187D02*
X0048763Y0130187D01*
X0048763Y0129589D02*
X0046188Y0129589D01*
X0046188Y0128990D02*
X0048819Y0128990D01*
X0049067Y0128392D02*
X0046020Y0128392D01*
X0045772Y0127793D02*
X0049315Y0127793D01*
X0049746Y0127195D02*
X0045343Y0127195D01*
X0044745Y0126596D02*
X0050345Y0126596D01*
X0050671Y0126270D02*
X0050671Y0126270D01*
X0057563Y0105648D02*
X0060059Y0105648D01*
X0102867Y0151135D02*
X0103363Y0151135D01*
X0103363Y0151734D02*
X0102463Y0151734D01*
X0102463Y0152332D02*
X0103363Y0152332D01*
X0103363Y0152931D02*
X0102551Y0152931D01*
X0103149Y0153529D02*
X0103363Y0153529D01*
X0103363Y0154128D02*
X0103254Y0154128D01*
X0103254Y0154726D02*
X0103363Y0154726D01*
X0103363Y0155325D02*
X0103254Y0155325D01*
X0103363Y0155923D02*
X0102697Y0155923D01*
X0102098Y0156522D02*
X0103363Y0156522D01*
X0103363Y0157120D02*
X0101382Y0157120D01*
X0100783Y0157719D02*
X0103363Y0157719D01*
X0103363Y0158317D02*
X0100185Y0158317D01*
X0099586Y0158916D02*
X0103363Y0158916D01*
X0103363Y0159514D02*
X0098987Y0159514D01*
X0098389Y0160113D02*
X0103363Y0160113D01*
X0103363Y0160711D02*
X0097790Y0160711D01*
X0094336Y0160711D02*
X0057563Y0160711D01*
X0060030Y0161310D02*
X0103363Y0161310D01*
X0103363Y0161908D02*
X0060628Y0161908D01*
X0060854Y0162507D02*
X0103363Y0162507D01*
X0103363Y0163105D02*
X0060854Y0163105D01*
X0060854Y0163704D02*
X0103363Y0163704D01*
X0103363Y0164303D02*
X0060417Y0164303D01*
X0059819Y0164901D02*
X0103363Y0164901D01*
X0103363Y0165500D02*
X0057563Y0165500D01*
X0057563Y0166098D02*
X0087809Y0166098D01*
X0088298Y0165609D02*
X0090029Y0165609D01*
X0091254Y0166834D01*
X0091254Y0168566D01*
X0090029Y0169791D01*
X0089954Y0169791D01*
X0089954Y0171366D01*
X0089870Y0171450D01*
X0091054Y0172634D01*
X0091054Y0174366D01*
X0090420Y0175000D01*
X0091054Y0175634D01*
X0091054Y0177366D01*
X0089829Y0178591D01*
X0088098Y0178591D01*
X0086873Y0177366D01*
X0086873Y0175634D01*
X0087507Y0175000D01*
X0086873Y0174366D01*
X0086873Y0172634D01*
X0086957Y0172550D01*
X0085773Y0171366D01*
X0085773Y0169634D01*
X0086998Y0168409D01*
X0087073Y0168409D01*
X0087073Y0166834D01*
X0088298Y0165609D01*
X0087210Y0166697D02*
X0057563Y0166697D01*
X0057563Y0167295D02*
X0087073Y0167295D01*
X0087073Y0167894D02*
X0067596Y0167894D01*
X0067012Y0167309D02*
X0068354Y0168651D01*
X0068354Y0170549D01*
X0067254Y0171649D01*
X0067254Y0172049D01*
X0065912Y0173391D01*
X0064015Y0173391D01*
X0062673Y0172049D01*
X0062673Y0171649D01*
X0061573Y0170549D01*
X0061573Y0168651D01*
X0062915Y0167309D01*
X0064812Y0167309D01*
X0064963Y0167461D01*
X0065115Y0167309D01*
X0067012Y0167309D01*
X0068195Y0168492D02*
X0086915Y0168492D01*
X0086316Y0169091D02*
X0068354Y0169091D01*
X0068354Y0169689D02*
X0085773Y0169689D01*
X0085773Y0170288D02*
X0068354Y0170288D01*
X0068017Y0170886D02*
X0085773Y0170886D01*
X0085892Y0171485D02*
X0067418Y0171485D01*
X0067220Y0172083D02*
X0086490Y0172083D01*
X0086873Y0172682D02*
X0066621Y0172682D01*
X0066023Y0173280D02*
X0086873Y0173280D01*
X0086873Y0173879D02*
X0057563Y0173879D01*
X0057563Y0174477D02*
X0086984Y0174477D01*
X0087431Y0175076D02*
X0057563Y0175076D01*
X0057563Y0175674D02*
X0086873Y0175674D01*
X0086873Y0176273D02*
X0057563Y0176273D01*
X0057563Y0176871D02*
X0086873Y0176871D01*
X0086977Y0177470D02*
X0057563Y0177470D01*
X0057563Y0178068D02*
X0087575Y0178068D01*
X0090352Y0178068D02*
X0100775Y0178068D01*
X0100177Y0177470D02*
X0090950Y0177470D01*
X0091054Y0176871D02*
X0099578Y0176871D01*
X0099573Y0176273D02*
X0091054Y0176273D01*
X0091054Y0175674D02*
X0099573Y0175674D01*
X0099631Y0175076D02*
X0090496Y0175076D01*
X0090943Y0174477D02*
X0100230Y0174477D01*
X0100386Y0173879D02*
X0091054Y0173879D01*
X0091054Y0173280D02*
X0100373Y0173280D01*
X0100373Y0172682D02*
X0091054Y0172682D01*
X0090503Y0172083D02*
X0100424Y0172083D01*
X0101022Y0171485D02*
X0089905Y0171485D01*
X0089954Y0170886D02*
X0103363Y0170886D01*
X0103363Y0170288D02*
X0089954Y0170288D01*
X0090131Y0169689D02*
X0103363Y0169689D01*
X0103363Y0169091D02*
X0090729Y0169091D01*
X0091254Y0168492D02*
X0103363Y0168492D01*
X0103363Y0167894D02*
X0091254Y0167894D01*
X0091254Y0167295D02*
X0103363Y0167295D01*
X0103363Y0166697D02*
X0091117Y0166697D01*
X0090518Y0166098D02*
X0103363Y0166098D01*
X0105963Y0171485D02*
X0106310Y0171485D01*
X0105963Y0172083D02*
X0106908Y0172083D01*
X0107507Y0172682D02*
X0105963Y0172682D01*
X0105963Y0173280D02*
X0108105Y0173280D01*
X0108704Y0173879D02*
X0105963Y0173879D01*
X0105963Y0174477D02*
X0109302Y0174477D01*
X0109901Y0175076D02*
X0105926Y0175076D01*
X0105328Y0175674D02*
X0110499Y0175674D01*
X0111098Y0176273D02*
X0104729Y0176273D01*
X0104131Y0176871D02*
X0110307Y0176871D01*
X0109709Y0177470D02*
X0103150Y0177470D01*
X0102552Y0178068D02*
X0109441Y0178068D01*
X0109193Y0178667D02*
X0098352Y0178667D01*
X0098237Y0178619D02*
X0099295Y0179058D01*
X0100106Y0179868D01*
X0100545Y0180927D01*
X0100545Y0182073D01*
X0100106Y0183132D01*
X0099295Y0183942D01*
X0098237Y0184381D01*
X0097090Y0184381D01*
X0096031Y0183942D01*
X0095221Y0183132D01*
X0095163Y0182993D01*
X0095106Y0183132D01*
X0094295Y0183942D01*
X0093237Y0184381D01*
X0092090Y0184381D01*
X0091031Y0183942D01*
X0090221Y0183132D01*
X0089782Y0182073D01*
X0089782Y0180927D01*
X0090221Y0179868D01*
X0091031Y0179058D01*
X0092090Y0178619D01*
X0093237Y0178619D01*
X0094295Y0179058D01*
X0095106Y0179868D01*
X0095163Y0180007D01*
X0095221Y0179868D01*
X0096031Y0179058D01*
X0097090Y0178619D01*
X0098237Y0178619D01*
X0096975Y0178667D02*
X0093352Y0178667D01*
X0094503Y0179265D02*
X0095824Y0179265D01*
X0095225Y0179864D02*
X0095102Y0179864D01*
X0091975Y0178667D02*
X0057563Y0178667D01*
X0057563Y0179265D02*
X0090824Y0179265D01*
X0090225Y0179864D02*
X0057563Y0179864D01*
X0057563Y0180462D02*
X0089975Y0180462D01*
X0089782Y0181061D02*
X0057563Y0181061D01*
X0057563Y0181659D02*
X0089782Y0181659D01*
X0089859Y0182258D02*
X0057563Y0182258D01*
X0057563Y0182856D02*
X0085451Y0182856D01*
X0085598Y0182709D02*
X0084398Y0183909D01*
X0084098Y0183909D01*
X0082873Y0185134D01*
X0082873Y0186866D01*
X0084098Y0188091D01*
X0084336Y0188091D01*
X0084268Y0188146D01*
X0084264Y0188180D01*
X0084040Y0188454D01*
X0084008Y0188464D01*
X0083964Y0188547D01*
X0083904Y0188620D01*
X0083908Y0188654D01*
X0083743Y0188967D01*
X0083713Y0188983D01*
X0083687Y0189073D01*
X0083643Y0189156D01*
X0083653Y0189189D01*
X0083553Y0189528D01*
X0083527Y0189550D01*
X0083519Y0189644D01*
X0083493Y0189734D01*
X0083509Y0189764D01*
X0083479Y0190114D01*
X0083459Y0190138D01*
X0083469Y0190234D01*
X0083460Y0190330D01*
X0083480Y0190354D01*
X0083514Y0190701D01*
X0083499Y0190730D01*
X0083526Y0190821D01*
X0083536Y0190915D01*
X0083561Y0190936D01*
X0083663Y0191272D01*
X0083653Y0191304D01*
X0083698Y0191387D01*
X0083726Y0191478D01*
X0083755Y0191494D01*
X0083920Y0191803D01*
X0083917Y0191836D01*
X0083977Y0191909D01*
X0084022Y0191993D01*
X0084053Y0192002D01*
X0084276Y0192273D01*
X0084279Y0192306D01*
X0084352Y0192366D01*
X0084412Y0192440D01*
X0084445Y0192443D01*
X0084716Y0192665D01*
X0084726Y0192697D01*
X0084810Y0192742D01*
X0084883Y0192802D01*
X0084916Y0192798D01*
X0085225Y0192964D01*
X0085241Y0192993D01*
X0085331Y0193021D01*
X0085415Y0193065D01*
X0085447Y0193056D01*
X0085782Y0193157D01*
X0085803Y0193183D01*
X0085898Y0193192D01*
X0085988Y0193220D01*
X0086017Y0193204D01*
X0086350Y0193237D01*
X0086362Y0193249D01*
X0086418Y0193249D01*
X0086432Y0193260D01*
X0086506Y0193252D01*
X0086581Y0193260D01*
X0086594Y0193249D01*
X0086650Y0193249D01*
X0086662Y0193237D01*
X0086992Y0193204D01*
X0087022Y0193220D01*
X0087112Y0193192D01*
X0087206Y0193183D01*
X0087227Y0193157D01*
X0087560Y0193055D01*
X0087593Y0193064D01*
X0087676Y0193019D01*
X0087766Y0192992D01*
X0087782Y0192962D01*
X0088088Y0192796D01*
X0088122Y0192800D01*
X0088194Y0192739D01*
X0088277Y0192694D01*
X0088287Y0192662D01*
X0088555Y0192439D01*
X0088588Y0192436D01*
X0088647Y0192362D01*
X0088720Y0192302D01*
X0088723Y0192269D01*
X0088942Y0191997D01*
X0088974Y0191987D01*
X0089018Y0191904D01*
X0089077Y0191830D01*
X0089073Y0191797D01*
X0089234Y0191488D01*
X0089264Y0191472D01*
X0089290Y0191381D01*
X0089334Y0191297D01*
X0089324Y0191265D01*
X0089421Y0190931D01*
X0089447Y0190909D01*
X0089455Y0190815D01*
X0089481Y0190724D01*
X0089465Y0190695D01*
X0089494Y0190348D01*
X0089515Y0190323D01*
X0089504Y0190228D01*
X0089512Y0190134D01*
X0089491Y0190108D01*
X0089452Y0189763D01*
X0089468Y0189734D01*
X0089439Y0189643D01*
X0089428Y0189548D01*
X0089403Y0189528D01*
X0089299Y0189197D01*
X0089308Y0189165D01*
X0089263Y0189082D01*
X0089235Y0188991D01*
X0089206Y0188975D01*
X0089040Y0188670D01*
X0089043Y0188638D01*
X0088983Y0188564D01*
X0088937Y0188480D01*
X0088906Y0188471D01*
X0088685Y0188203D01*
X0088682Y0188170D01*
X0088609Y0188110D01*
X0088548Y0188036D01*
X0088516Y0188033D01*
X0088248Y0187812D01*
X0088238Y0187781D01*
X0088155Y0187736D01*
X0088081Y0187675D01*
X0088048Y0187678D01*
X0087743Y0187513D01*
X0087728Y0187484D01*
X0087637Y0187455D01*
X0087553Y0187410D01*
X0087522Y0187419D01*
X0087191Y0187316D01*
X0087170Y0187290D01*
X0087076Y0187280D01*
X0086985Y0187251D01*
X0086956Y0187266D01*
X0086684Y0187236D01*
X0087029Y0186891D01*
X0087329Y0186891D01*
X0088554Y0185666D01*
X0088554Y0183934D01*
X0087329Y0182709D01*
X0085598Y0182709D01*
X0084852Y0183455D02*
X0057563Y0183455D01*
X0057531Y0184053D02*
X0083954Y0184053D01*
X0083355Y0184652D02*
X0057283Y0184652D01*
X0057035Y0185250D02*
X0082873Y0185250D01*
X0082873Y0185849D02*
X0056637Y0185849D01*
X0056039Y0186447D02*
X0082873Y0186447D01*
X0083053Y0187046D02*
X0055135Y0187046D01*
X0051192Y0187046D02*
X0045195Y0187046D01*
X0045652Y0187503D02*
X0046188Y0188799D01*
X0046188Y0190201D01*
X0045652Y0191497D01*
X0044660Y0192488D01*
X0043365Y0193025D01*
X0041962Y0193025D01*
X0040667Y0192488D01*
X0039675Y0191497D01*
X0039138Y0190201D01*
X0039138Y0188799D01*
X0039675Y0187503D01*
X0040667Y0186512D01*
X0041962Y0185975D01*
X0043365Y0185975D01*
X0044660Y0186512D01*
X0045652Y0187503D01*
X0045710Y0187644D02*
X0083651Y0187644D01*
X0084213Y0188243D02*
X0045958Y0188243D01*
X0046188Y0188841D02*
X0070365Y0188841D01*
X0070798Y0188409D02*
X0069573Y0189634D01*
X0069573Y0191366D01*
X0070798Y0192591D01*
X0072529Y0192591D01*
X0073754Y0191366D01*
X0073754Y0189634D01*
X0072529Y0188409D01*
X0070798Y0188409D01*
X0069767Y0189440D02*
X0046188Y0189440D01*
X0046188Y0190039D02*
X0069573Y0190039D01*
X0069573Y0190637D02*
X0046008Y0190637D01*
X0045760Y0191236D02*
X0069573Y0191236D01*
X0070041Y0191834D02*
X0045315Y0191834D01*
X0044716Y0192433D02*
X0070640Y0192433D01*
X0072687Y0192433D02*
X0084407Y0192433D01*
X0083917Y0191834D02*
X0073286Y0191834D01*
X0073754Y0191236D02*
X0083652Y0191236D01*
X0083508Y0190637D02*
X0073754Y0190637D01*
X0073754Y0190039D02*
X0083485Y0190039D01*
X0083579Y0189440D02*
X0073560Y0189440D01*
X0072961Y0188841D02*
X0083809Y0188841D01*
X0086874Y0187046D02*
X0100753Y0187046D01*
X0100765Y0187389D02*
X0100797Y0187399D01*
X0101036Y0187329D01*
X0100073Y0186366D01*
X0100073Y0184634D01*
X0101298Y0183409D01*
X0103029Y0183409D01*
X0103413Y0183794D01*
X0103798Y0183409D01*
X0105529Y0183409D01*
X0106754Y0184634D01*
X0106754Y0186366D01*
X0105529Y0187591D01*
X0103798Y0187591D01*
X0103413Y0187206D01*
X0103104Y0187516D01*
X0103403Y0187678D01*
X0103435Y0187675D01*
X0103509Y0187736D01*
X0103593Y0187781D01*
X0103602Y0187812D01*
X0103870Y0188033D01*
X0103902Y0188036D01*
X0103963Y0188110D01*
X0104037Y0188170D01*
X0104040Y0188203D01*
X0104261Y0188471D01*
X0104292Y0188480D01*
X0104337Y0188564D01*
X0104398Y0188638D01*
X0104395Y0188670D01*
X0104560Y0188975D01*
X0104589Y0188991D01*
X0104617Y0189082D01*
X0104663Y0189165D01*
X0104653Y0189197D01*
X0104757Y0189528D01*
X0104783Y0189548D01*
X0104793Y0189643D01*
X0104822Y0189734D01*
X0104807Y0189763D01*
X0104845Y0190108D01*
X0104867Y0190134D01*
X0104859Y0190228D01*
X0104869Y0190323D01*
X0104848Y0190348D01*
X0104819Y0190695D01*
X0104835Y0190724D01*
X0104809Y0190815D01*
X0104801Y0190909D01*
X0104775Y0190931D01*
X0104678Y0191265D01*
X0104688Y0191297D01*
X0104644Y0191381D01*
X0104618Y0191472D01*
X0104589Y0191488D01*
X0104428Y0191797D01*
X0104431Y0191830D01*
X0104372Y0191904D01*
X0104328Y0191987D01*
X0104296Y0191997D01*
X0104077Y0192269D01*
X0104074Y0192302D01*
X0104002Y0192362D01*
X0103942Y0192436D01*
X0103909Y0192439D01*
X0103641Y0192662D01*
X0103632Y0192694D01*
X0103549Y0192739D01*
X0103476Y0192800D01*
X0103443Y0192796D01*
X0103136Y0192962D01*
X0103120Y0192992D01*
X0103030Y0193019D01*
X0102947Y0193064D01*
X0102915Y0193055D01*
X0102582Y0193157D01*
X0102560Y0193183D01*
X0102467Y0193192D01*
X0102376Y0193220D01*
X0102347Y0193204D01*
X0102016Y0193237D01*
X0102004Y0193249D01*
X0101948Y0193249D01*
X0101935Y0193260D01*
X0101860Y0193252D01*
X0101786Y0193260D01*
X0101773Y0193249D01*
X0101716Y0193249D01*
X0101704Y0193237D01*
X0101372Y0193204D01*
X0101342Y0193220D01*
X0101252Y0193192D01*
X0101158Y0193183D01*
X0101137Y0193157D01*
X0100801Y0193056D01*
X0100769Y0193065D01*
X0100686Y0193021D01*
X0100595Y0192993D01*
X0100579Y0192964D01*
X0100270Y0192798D01*
X0100237Y0192802D01*
X0100164Y0192742D01*
X0100080Y0192697D01*
X0100071Y0192665D01*
X0099800Y0192443D01*
X0099767Y0192440D01*
X0099707Y0192366D01*
X0099633Y0192306D01*
X0099630Y0192273D01*
X0099408Y0192002D01*
X0099376Y0191993D01*
X0099331Y0191909D01*
X0099271Y0191836D01*
X0099274Y0191803D01*
X0099109Y0191494D01*
X0099080Y0191478D01*
X0099052Y0191387D01*
X0099008Y0191304D01*
X0099017Y0191272D01*
X0098916Y0190936D01*
X0098890Y0190915D01*
X0098881Y0190821D01*
X0098853Y0190730D01*
X0098869Y0190701D01*
X0098835Y0190354D01*
X0098815Y0190330D01*
X0098823Y0190234D01*
X0098813Y0190138D01*
X0098833Y0190114D01*
X0098863Y0189764D01*
X0098847Y0189734D01*
X0098873Y0189644D01*
X0098881Y0189550D01*
X0098907Y0189528D01*
X0099007Y0189189D01*
X0098997Y0189156D01*
X0099041Y0189073D01*
X0099067Y0188983D01*
X0099097Y0188967D01*
X0099262Y0188654D01*
X0099259Y0188620D01*
X0099318Y0188547D01*
X0099362Y0188464D01*
X0099395Y0188454D01*
X0099619Y0188180D01*
X0099622Y0188146D01*
X0099695Y0188087D01*
X0099755Y0188014D01*
X0099788Y0188010D01*
X0100062Y0187786D01*
X0100072Y0187754D01*
X0100155Y0187710D01*
X0100228Y0187650D01*
X0100262Y0187654D01*
X0100575Y0187489D01*
X0100591Y0187459D01*
X0100682Y0187433D01*
X0100765Y0187389D01*
X0100280Y0187644D02*
X0087986Y0187644D01*
X0088718Y0188243D02*
X0099567Y0188243D01*
X0099163Y0188841D02*
X0089133Y0188841D01*
X0089375Y0189440D02*
X0098933Y0189440D01*
X0098840Y0190039D02*
X0089483Y0190039D01*
X0089470Y0190637D02*
X0098863Y0190637D01*
X0099006Y0191236D02*
X0089332Y0191236D01*
X0089074Y0191834D02*
X0099271Y0191834D01*
X0099761Y0192433D02*
X0088591Y0192433D01*
X0087654Y0193031D02*
X0100705Y0193031D01*
X0103008Y0193031D02*
X0116363Y0193031D01*
X0116363Y0192433D02*
X0114716Y0192433D01*
X0114660Y0192488D02*
X0113365Y0193025D01*
X0111962Y0193025D01*
X0110667Y0192488D01*
X0109675Y0191497D01*
X0109138Y0190201D01*
X0109138Y0188799D01*
X0109675Y0187503D01*
X0110667Y0186512D01*
X0111962Y0185975D01*
X0113365Y0185975D01*
X0114660Y0186512D01*
X0115652Y0187503D01*
X0116188Y0188799D01*
X0116188Y0190201D01*
X0115652Y0191497D01*
X0114660Y0192488D01*
X0115315Y0191834D02*
X0116363Y0191834D01*
X0116363Y0191236D02*
X0115760Y0191236D01*
X0116008Y0190637D02*
X0116363Y0190637D01*
X0116363Y0190039D02*
X0116188Y0190039D01*
X0116188Y0189440D02*
X0116363Y0189440D01*
X0116363Y0188841D02*
X0116188Y0188841D01*
X0116363Y0188243D02*
X0115958Y0188243D01*
X0115710Y0187644D02*
X0116363Y0187644D01*
X0116363Y0187046D02*
X0115195Y0187046D01*
X0114505Y0186447D02*
X0116363Y0186447D01*
X0116363Y0185849D02*
X0106754Y0185849D01*
X0106754Y0185250D02*
X0116363Y0185250D01*
X0116363Y0184652D02*
X0106754Y0184652D01*
X0106173Y0184053D02*
X0116363Y0184053D01*
X0116363Y0183455D02*
X0105575Y0183455D01*
X0103752Y0183455D02*
X0103075Y0183455D01*
X0101252Y0183455D02*
X0099783Y0183455D01*
X0100220Y0182856D02*
X0111555Y0182856D01*
X0110436Y0182258D02*
X0100468Y0182258D01*
X0100545Y0181659D02*
X0109838Y0181659D01*
X0109495Y0181061D02*
X0100545Y0181061D01*
X0100352Y0180462D02*
X0109247Y0180462D01*
X0109138Y0179864D02*
X0100102Y0179864D01*
X0099503Y0179265D02*
X0109138Y0179265D01*
X0114083Y0176273D02*
X0116363Y0176273D01*
X0116363Y0176871D02*
X0115020Y0176871D01*
X0115618Y0177470D02*
X0116363Y0177470D01*
X0116363Y0178068D02*
X0115886Y0178068D01*
X0116134Y0178667D02*
X0116363Y0178667D01*
X0116363Y0179265D02*
X0116188Y0179265D01*
X0116188Y0179864D02*
X0116363Y0179864D01*
X0116363Y0180462D02*
X0116080Y0180462D01*
X0115832Y0181061D02*
X0116363Y0181061D01*
X0116363Y0181659D02*
X0115489Y0181659D01*
X0114891Y0182258D02*
X0116363Y0182258D01*
X0116363Y0182856D02*
X0113772Y0182856D01*
X0110822Y0186447D02*
X0106673Y0186447D01*
X0106074Y0187046D02*
X0110132Y0187046D01*
X0109617Y0187644D02*
X0103340Y0187644D01*
X0104073Y0188243D02*
X0109369Y0188243D01*
X0109138Y0188841D02*
X0104487Y0188841D01*
X0104730Y0189440D02*
X0109138Y0189440D01*
X0109138Y0190039D02*
X0104837Y0190039D01*
X0104824Y0190637D02*
X0109319Y0190637D01*
X0109567Y0191236D02*
X0104687Y0191236D01*
X0104428Y0191834D02*
X0110012Y0191834D01*
X0110611Y0192433D02*
X0103945Y0192433D01*
X0109675Y0197503D02*
X0110667Y0196512D01*
X0111962Y0195975D01*
X0113365Y0195975D01*
X0114660Y0196512D01*
X0115652Y0197503D01*
X0116188Y0198799D01*
X0116188Y0200201D01*
X0115652Y0201497D01*
X0114660Y0202488D01*
X0113365Y0203025D01*
X0111962Y0203025D01*
X0110667Y0202488D01*
X0109675Y0201497D01*
X0109138Y0200201D01*
X0109138Y0198799D01*
X0109675Y0197503D01*
X0109544Y0197819D02*
X0038963Y0197819D01*
X0038963Y0197221D02*
X0109958Y0197221D01*
X0110556Y0196622D02*
X0038963Y0196622D01*
X0038963Y0196024D02*
X0111845Y0196024D01*
X0113482Y0196024D02*
X0116363Y0196024D01*
X0116363Y0196622D02*
X0114771Y0196622D01*
X0115369Y0197221D02*
X0116363Y0197221D01*
X0116363Y0197819D02*
X0115783Y0197819D01*
X0116031Y0198418D02*
X0116363Y0198418D01*
X0116363Y0199016D02*
X0116188Y0199016D01*
X0116188Y0199615D02*
X0116363Y0199615D01*
X0116363Y0200213D02*
X0116183Y0200213D01*
X0116363Y0200812D02*
X0115936Y0200812D01*
X0115688Y0201410D02*
X0116363Y0201410D01*
X0116363Y0202009D02*
X0115140Y0202009D01*
X0114373Y0202607D02*
X0116363Y0202607D01*
X0110954Y0202607D02*
X0038963Y0202607D01*
X0038963Y0202009D02*
X0110187Y0202009D01*
X0109639Y0201410D02*
X0038963Y0201410D01*
X0038963Y0200812D02*
X0109391Y0200812D01*
X0109143Y0200213D02*
X0038963Y0200213D01*
X0038963Y0199615D02*
X0109138Y0199615D01*
X0109138Y0199016D02*
X0038963Y0199016D01*
X0038963Y0198418D02*
X0109296Y0198418D01*
X0116363Y0195425D02*
X0038963Y0195425D01*
X0038963Y0194827D02*
X0116363Y0194827D01*
X0116363Y0194228D02*
X0038963Y0194228D01*
X0038963Y0193630D02*
X0116363Y0193630D01*
X0100154Y0186447D02*
X0087773Y0186447D01*
X0088371Y0185849D02*
X0100073Y0185849D01*
X0100073Y0185250D02*
X0088554Y0185250D01*
X0088554Y0184652D02*
X0100073Y0184652D01*
X0100654Y0184053D02*
X0099028Y0184053D01*
X0096299Y0184053D02*
X0094028Y0184053D01*
X0094783Y0183455D02*
X0095544Y0183455D01*
X0091299Y0184053D02*
X0088554Y0184053D01*
X0088075Y0183455D02*
X0090544Y0183455D01*
X0090107Y0182856D02*
X0087476Y0182856D01*
X0085351Y0193031D02*
X0038963Y0193031D01*
X0038963Y0192433D02*
X0040611Y0192433D01*
X0040012Y0191834D02*
X0038963Y0191834D01*
X0038963Y0191236D02*
X0039567Y0191236D01*
X0039319Y0190637D02*
X0038963Y0190637D01*
X0038963Y0190039D02*
X0039138Y0190039D01*
X0039138Y0189440D02*
X0038963Y0189440D01*
X0038963Y0188841D02*
X0039138Y0188841D01*
X0038963Y0188243D02*
X0039369Y0188243D01*
X0039617Y0187644D02*
X0038963Y0187644D01*
X0038963Y0187046D02*
X0040132Y0187046D01*
X0040822Y0186447D02*
X0038963Y0186447D01*
X0038963Y0185849D02*
X0049690Y0185849D01*
X0049292Y0185250D02*
X0038963Y0185250D01*
X0038963Y0184652D02*
X0049044Y0184652D01*
X0048796Y0184053D02*
X0038963Y0184053D01*
X0038963Y0183455D02*
X0048763Y0183455D01*
X0048763Y0182856D02*
X0038963Y0182856D01*
X0038963Y0182258D02*
X0048763Y0182258D01*
X0048763Y0181659D02*
X0038963Y0181659D01*
X0038963Y0181061D02*
X0048763Y0181061D01*
X0048763Y0180462D02*
X0038963Y0180462D01*
X0038963Y0179864D02*
X0048763Y0179864D01*
X0048763Y0179265D02*
X0038963Y0179265D01*
X0038963Y0178667D02*
X0048763Y0178667D01*
X0048763Y0178068D02*
X0038963Y0178068D01*
X0038963Y0177470D02*
X0048763Y0177470D01*
X0048763Y0176871D02*
X0038963Y0176871D01*
X0038963Y0176273D02*
X0048763Y0176273D01*
X0048763Y0175674D02*
X0038963Y0175674D01*
X0038963Y0175076D02*
X0048763Y0175076D01*
X0048763Y0174477D02*
X0038963Y0174477D01*
X0038963Y0173879D02*
X0048763Y0173879D01*
X0048763Y0173280D02*
X0038963Y0173280D01*
X0038963Y0172682D02*
X0041133Y0172682D01*
X0040667Y0172488D02*
X0039675Y0171497D01*
X0039138Y0170201D01*
X0039138Y0168799D01*
X0039675Y0167503D01*
X0040667Y0166512D01*
X0041962Y0165975D01*
X0043365Y0165975D01*
X0044660Y0166512D01*
X0045652Y0167503D01*
X0046188Y0168799D01*
X0046188Y0170201D01*
X0045652Y0171497D01*
X0044660Y0172488D01*
X0043365Y0173025D01*
X0041962Y0173025D01*
X0040667Y0172488D01*
X0040262Y0172083D02*
X0038963Y0172083D01*
X0038963Y0171485D02*
X0039670Y0171485D01*
X0039422Y0170886D02*
X0038963Y0170886D01*
X0038963Y0170288D02*
X0039174Y0170288D01*
X0039138Y0169689D02*
X0038963Y0169689D01*
X0038963Y0169091D02*
X0039138Y0169091D01*
X0039266Y0168492D02*
X0038963Y0168492D01*
X0038963Y0167894D02*
X0039513Y0167894D01*
X0039883Y0167295D02*
X0038963Y0167295D01*
X0038963Y0166697D02*
X0040482Y0166697D01*
X0041665Y0166098D02*
X0038963Y0166098D01*
X0038963Y0165500D02*
X0048763Y0165500D01*
X0048763Y0166098D02*
X0043662Y0166098D01*
X0044845Y0166697D02*
X0048763Y0166697D01*
X0048763Y0167295D02*
X0045444Y0167295D01*
X0045813Y0167894D02*
X0048763Y0167894D01*
X0048763Y0168492D02*
X0046061Y0168492D01*
X0046188Y0169091D02*
X0048763Y0169091D01*
X0048763Y0169689D02*
X0046188Y0169689D01*
X0046153Y0170288D02*
X0048763Y0170288D01*
X0048763Y0170886D02*
X0045905Y0170886D01*
X0045657Y0171485D02*
X0048763Y0171485D01*
X0048763Y0172083D02*
X0045065Y0172083D01*
X0044193Y0172682D02*
X0048763Y0172682D01*
X0057563Y0172682D02*
X0063306Y0172682D01*
X0063904Y0173280D02*
X0057563Y0173280D01*
X0057563Y0172083D02*
X0062707Y0172083D01*
X0062509Y0171485D02*
X0057563Y0171485D01*
X0057563Y0170886D02*
X0061910Y0170886D01*
X0061573Y0170288D02*
X0057563Y0170288D01*
X0057563Y0169689D02*
X0061573Y0169689D01*
X0061573Y0169091D02*
X0057563Y0169091D01*
X0057563Y0168492D02*
X0061732Y0168492D01*
X0062331Y0167894D02*
X0057563Y0167894D01*
X0057563Y0164901D02*
X0057708Y0164901D01*
X0048763Y0164901D02*
X0038963Y0164901D01*
X0038963Y0164303D02*
X0048763Y0164303D01*
X0048763Y0163704D02*
X0038963Y0163704D01*
X0038963Y0163105D02*
X0048763Y0163105D01*
X0048763Y0162507D02*
X0044615Y0162507D01*
X0044660Y0162488D02*
X0043365Y0163025D01*
X0041962Y0163025D01*
X0040667Y0162488D01*
X0039675Y0161497D01*
X0039138Y0160201D01*
X0039138Y0158799D01*
X0039675Y0157503D01*
X0040667Y0156512D01*
X0041962Y0155975D01*
X0043365Y0155975D01*
X0044660Y0156512D01*
X0045652Y0157503D01*
X0046188Y0158799D01*
X0046188Y0160201D01*
X0045652Y0161497D01*
X0044660Y0162488D01*
X0045240Y0161908D02*
X0048763Y0161908D01*
X0048763Y0161310D02*
X0045729Y0161310D01*
X0045977Y0160711D02*
X0048763Y0160711D01*
X0048763Y0160113D02*
X0046188Y0160113D01*
X0046188Y0159514D02*
X0048763Y0159514D01*
X0048763Y0158916D02*
X0046188Y0158916D01*
X0045989Y0158317D02*
X0048763Y0158317D01*
X0048763Y0157719D02*
X0045741Y0157719D01*
X0045269Y0157120D02*
X0048763Y0157120D01*
X0048763Y0156522D02*
X0044670Y0156522D01*
X0040656Y0156522D02*
X0038963Y0156522D01*
X0038963Y0157120D02*
X0040058Y0157120D01*
X0039586Y0157719D02*
X0038963Y0157719D01*
X0038963Y0158317D02*
X0039338Y0158317D01*
X0039138Y0158916D02*
X0038963Y0158916D01*
X0038963Y0159514D02*
X0039138Y0159514D01*
X0039138Y0160113D02*
X0038963Y0160113D01*
X0038963Y0160711D02*
X0039350Y0160711D01*
X0039598Y0161310D02*
X0038963Y0161310D01*
X0038963Y0161908D02*
X0040087Y0161908D01*
X0040712Y0162507D02*
X0038963Y0162507D01*
X0038963Y0155923D02*
X0048763Y0155923D01*
X0048763Y0155325D02*
X0038963Y0155325D01*
X0038963Y0154726D02*
X0048763Y0154726D01*
X0048763Y0154128D02*
X0038963Y0154128D01*
X0067303Y0158317D02*
X0067624Y0158317D01*
X0085307Y0160113D02*
X0093738Y0160113D01*
X0092021Y0159514D02*
X0085906Y0159514D01*
X0086354Y0158916D02*
X0091423Y0158916D01*
X0091073Y0158317D02*
X0086354Y0158317D01*
X0086354Y0157719D02*
X0091073Y0157719D01*
X0091073Y0157120D02*
X0086140Y0157120D01*
X0085542Y0156522D02*
X0091385Y0156522D01*
X0108963Y0156522D02*
X0116363Y0156522D01*
X0116363Y0157120D02*
X0108963Y0157120D01*
X0108963Y0157719D02*
X0116363Y0157719D01*
X0116363Y0158317D02*
X0108963Y0158317D01*
X0108963Y0158916D02*
X0116363Y0158916D01*
X0116363Y0159514D02*
X0108963Y0159514D01*
X0108963Y0160113D02*
X0116363Y0160113D01*
X0116363Y0160711D02*
X0108963Y0160711D01*
X0108963Y0161310D02*
X0116363Y0161310D01*
X0116363Y0161908D02*
X0108963Y0161908D01*
X0108963Y0162507D02*
X0116363Y0162507D01*
X0116363Y0163105D02*
X0108963Y0163105D01*
X0108963Y0163704D02*
X0116363Y0163704D01*
X0116363Y0164303D02*
X0109304Y0164303D01*
X0109903Y0164901D02*
X0116363Y0164901D01*
X0116363Y0165500D02*
X0110501Y0165500D01*
X0111100Y0166098D02*
X0111665Y0166098D01*
X0113662Y0166098D02*
X0116363Y0166098D01*
X0116363Y0166697D02*
X0114845Y0166697D01*
X0115444Y0167295D02*
X0116363Y0167295D01*
X0116363Y0167894D02*
X0115813Y0167894D01*
X0116061Y0168492D02*
X0116363Y0168492D01*
X0116363Y0169091D02*
X0116188Y0169091D01*
X0116188Y0169689D02*
X0116363Y0169689D01*
X0116363Y0170288D02*
X0116153Y0170288D01*
X0116363Y0170886D02*
X0115905Y0170886D01*
X0115657Y0171485D02*
X0116363Y0171485D01*
X0116363Y0172083D02*
X0115065Y0172083D01*
X0114193Y0172682D02*
X0116363Y0172682D01*
X0116363Y0173280D02*
X0111782Y0173280D01*
X0112381Y0173879D02*
X0116363Y0173879D01*
X0116363Y0174477D02*
X0112979Y0174477D01*
X0113578Y0175076D02*
X0116363Y0175076D01*
X0116363Y0175674D02*
X0113963Y0175674D01*
X0116363Y0155923D02*
X0108963Y0155923D01*
X0108963Y0155325D02*
X0116363Y0155325D01*
X0116363Y0154726D02*
X0108963Y0154726D01*
X0108963Y0154128D02*
X0116363Y0154128D01*
X0050288Y0186447D02*
X0044505Y0186447D01*
D17*
X0053163Y0183100D02*
X0053163Y0169000D01*
X0053163Y0160000D01*
X0053163Y0130000D01*
X0057663Y0125500D01*
X0057663Y0117500D01*
X0053163Y0113000D01*
X0053163Y0027500D01*
X0050163Y0024500D01*
X0050163Y0021500D01*
D18*
X0050863Y0160000D02*
X0053163Y0160000D01*
X0053163Y0169000D02*
X0051163Y0169000D01*
M02*
