G75*
%MOIN*%
%OFA0B0*%
%FSLAX25Y25*%
%IPPOS*%
%LPD*%
%AMOC8*
5,1,8,0,0,1.08239X$1,22.5*
%
%ADD10R,0.02400X0.01800*%
%ADD11R,0.03937X0.04331*%
%ADD12R,0.03937X0.11811*%
%ADD13R,0.09843X0.10039*%
%ADD14R,0.01181X0.02953*%
%ADD15R,0.01800X0.02400*%
%ADD16R,0.02559X0.00787*%
%ADD17R,0.00787X0.02559*%
%ADD18R,0.02953X0.00787*%
%ADD19R,0.04331X0.07480*%
%ADD20R,0.01181X0.04724*%
%ADD21C,0.00906*%
%ADD22R,0.04331X0.04331*%
%ADD23R,0.10000X0.10500*%
%ADD24R,0.05000X0.03000*%
%ADD25R,0.15748X0.07874*%
%ADD26R,0.04100X0.02800*%
%ADD27R,0.02800X0.04100*%
D10*
X0344510Y0124600D03*
X0348010Y0124600D03*
X0348010Y0128400D03*
X0344510Y0128400D03*
X0344510Y0132600D03*
X0348010Y0132600D03*
X0348010Y0136400D03*
X0344510Y0136400D03*
X0347510Y0140600D03*
X0347510Y0144400D03*
X0347510Y0147600D03*
X0347510Y0151400D03*
X0362010Y0151400D03*
X0362010Y0147600D03*
X0362010Y0144400D03*
X0362010Y0140600D03*
X0374910Y0140600D03*
X0378410Y0140600D03*
X0381910Y0140600D03*
X0381910Y0144400D03*
X0378410Y0144400D03*
X0374910Y0144400D03*
X0388010Y0153100D03*
X0394510Y0153100D03*
X0398010Y0153100D03*
X0398010Y0156900D03*
X0394510Y0156900D03*
X0388010Y0156900D03*
X0385010Y0161100D03*
X0381510Y0161100D03*
X0378010Y0161100D03*
X0374510Y0161100D03*
X0371010Y0161100D03*
X0367510Y0161100D03*
X0364010Y0161100D03*
X0360510Y0161100D03*
X0360510Y0164900D03*
X0364010Y0164900D03*
X0367510Y0164900D03*
X0371010Y0164900D03*
X0374510Y0164900D03*
X0378010Y0164900D03*
X0381510Y0164900D03*
X0385010Y0164900D03*
X0382010Y0193600D03*
X0382010Y0197400D03*
X0397810Y0127700D03*
X0397810Y0123900D03*
X0397010Y0085400D03*
X0400510Y0085400D03*
X0400510Y0081600D03*
X0397010Y0081600D03*
X0363510Y0072900D03*
X0363510Y0069100D03*
D11*
X0365510Y0054035D03*
X0375510Y0054035D03*
X0355510Y0054035D03*
X0355510Y0008365D03*
X0365510Y0008365D03*
X0375510Y0008365D03*
D12*
X0344644Y0031200D03*
X0386376Y0031200D03*
D13*
X0396010Y0031841D03*
X0396010Y0011959D03*
D14*
X0397010Y0141760D03*
X0399569Y0141760D03*
X0394451Y0141760D03*
X0390569Y0141760D03*
X0388010Y0141760D03*
X0385451Y0141760D03*
X0385451Y0149240D03*
X0390569Y0149240D03*
X0394451Y0149240D03*
X0399569Y0149240D03*
D15*
X0357910Y0170000D03*
X0357910Y0173500D03*
X0354110Y0173500D03*
X0354110Y0170000D03*
X0354110Y0177000D03*
X0357910Y0177000D03*
X0371610Y0071500D03*
X0375410Y0071500D03*
X0379610Y0071500D03*
X0383410Y0071500D03*
X0388610Y0071500D03*
X0392410Y0071500D03*
X0396610Y0071500D03*
X0400410Y0071500D03*
X0359410Y0060500D03*
X0355610Y0060500D03*
D16*
X0357581Y0143138D03*
X0357581Y0144713D03*
X0357581Y0146287D03*
X0357581Y0147862D03*
X0351439Y0146287D03*
X0351439Y0144713D03*
X0351439Y0143138D03*
X0365439Y0143138D03*
X0365439Y0144713D03*
X0365439Y0146287D03*
X0371581Y0146287D03*
X0371581Y0144713D03*
X0371581Y0143138D03*
X0371581Y0147862D03*
D17*
X0370872Y0150146D03*
X0369297Y0150146D03*
X0367722Y0150146D03*
X0366148Y0150146D03*
X0356872Y0150146D03*
X0355297Y0150146D03*
X0353722Y0150146D03*
X0352148Y0150146D03*
X0352148Y0140854D03*
X0353722Y0140854D03*
X0355297Y0140854D03*
X0356872Y0140854D03*
X0366148Y0140854D03*
X0367722Y0140854D03*
X0369297Y0140854D03*
X0370872Y0140854D03*
D18*
X0365636Y0147862D03*
X0351636Y0147862D03*
D19*
X0372589Y0063500D03*
X0382431Y0063500D03*
X0389982Y0063783D03*
X0399037Y0063783D03*
X0399037Y0049217D03*
X0389982Y0049217D03*
D20*
G36*
X0375991Y0079305D02*
X0376826Y0080140D01*
X0380165Y0076801D01*
X0379330Y0075966D01*
X0375991Y0079305D01*
G37*
G36*
X0377383Y0080697D02*
X0378218Y0081532D01*
X0381557Y0078193D01*
X0380722Y0077358D01*
X0377383Y0080697D01*
G37*
G36*
X0378775Y0082089D02*
X0379610Y0082924D01*
X0382949Y0079585D01*
X0382114Y0078750D01*
X0378775Y0082089D01*
G37*
G36*
X0380166Y0083481D02*
X0381001Y0084316D01*
X0384340Y0080977D01*
X0383505Y0080142D01*
X0380166Y0083481D01*
G37*
G36*
X0381558Y0084873D02*
X0382393Y0085708D01*
X0385732Y0082369D01*
X0384897Y0081534D01*
X0381558Y0084873D01*
G37*
G36*
X0382950Y0086265D02*
X0383785Y0087100D01*
X0387124Y0083761D01*
X0386289Y0082926D01*
X0382950Y0086265D01*
G37*
G36*
X0384342Y0087657D02*
X0385177Y0088492D01*
X0388516Y0085153D01*
X0387681Y0084318D01*
X0384342Y0087657D01*
G37*
G36*
X0385734Y0089049D02*
X0386569Y0089884D01*
X0389908Y0086545D01*
X0389073Y0085710D01*
X0385734Y0089049D01*
G37*
G36*
X0387126Y0090441D02*
X0387961Y0091276D01*
X0391300Y0087937D01*
X0390465Y0087102D01*
X0387126Y0090441D01*
G37*
G36*
X0388518Y0091833D02*
X0389353Y0092668D01*
X0392692Y0089329D01*
X0391857Y0088494D01*
X0388518Y0091833D01*
G37*
G36*
X0389910Y0093225D02*
X0390745Y0094060D01*
X0394084Y0090721D01*
X0393249Y0089886D01*
X0389910Y0093225D01*
G37*
G36*
X0391302Y0094616D02*
X0392137Y0095451D01*
X0395476Y0092112D01*
X0394641Y0091277D01*
X0391302Y0094616D01*
G37*
G36*
X0392694Y0096008D02*
X0393529Y0096843D01*
X0396868Y0093504D01*
X0396033Y0092669D01*
X0392694Y0096008D01*
G37*
G36*
X0394086Y0097400D02*
X0394921Y0098235D01*
X0398260Y0094896D01*
X0397425Y0094061D01*
X0394086Y0097400D01*
G37*
G36*
X0395478Y0098792D02*
X0396313Y0099627D01*
X0399652Y0096288D01*
X0398817Y0095453D01*
X0395478Y0098792D01*
G37*
G36*
X0396870Y0100184D02*
X0397705Y0101019D01*
X0401044Y0097680D01*
X0400209Y0096845D01*
X0396870Y0100184D01*
G37*
G36*
X0397705Y0107981D02*
X0396870Y0108816D01*
X0400209Y0112155D01*
X0401044Y0111320D01*
X0397705Y0107981D01*
G37*
G36*
X0398817Y0113547D02*
X0399652Y0112712D01*
X0396313Y0109373D01*
X0395478Y0110208D01*
X0398817Y0113547D01*
G37*
G36*
X0397425Y0114939D02*
X0398260Y0114104D01*
X0394921Y0110765D01*
X0394086Y0111600D01*
X0397425Y0114939D01*
G37*
G36*
X0396033Y0116331D02*
X0396868Y0115496D01*
X0393529Y0112157D01*
X0392694Y0112992D01*
X0396033Y0116331D01*
G37*
G36*
X0394641Y0117723D02*
X0395476Y0116888D01*
X0392137Y0113549D01*
X0391302Y0114384D01*
X0394641Y0117723D01*
G37*
G36*
X0393249Y0119114D02*
X0394084Y0118279D01*
X0390745Y0114940D01*
X0389910Y0115775D01*
X0393249Y0119114D01*
G37*
G36*
X0391857Y0120506D02*
X0392692Y0119671D01*
X0389353Y0116332D01*
X0388518Y0117167D01*
X0391857Y0120506D01*
G37*
G36*
X0390465Y0121898D02*
X0391300Y0121063D01*
X0387961Y0117724D01*
X0387126Y0118559D01*
X0390465Y0121898D01*
G37*
G36*
X0389073Y0123290D02*
X0389908Y0122455D01*
X0386569Y0119116D01*
X0385734Y0119951D01*
X0389073Y0123290D01*
G37*
G36*
X0387681Y0124682D02*
X0388516Y0123847D01*
X0385177Y0120508D01*
X0384342Y0121343D01*
X0387681Y0124682D01*
G37*
G36*
X0386289Y0126074D02*
X0387124Y0125239D01*
X0383785Y0121900D01*
X0382950Y0122735D01*
X0386289Y0126074D01*
G37*
G36*
X0384897Y0127466D02*
X0385732Y0126631D01*
X0382393Y0123292D01*
X0381558Y0124127D01*
X0384897Y0127466D01*
G37*
G36*
X0383505Y0128858D02*
X0384340Y0128023D01*
X0381001Y0124684D01*
X0380166Y0125519D01*
X0383505Y0128858D01*
G37*
G36*
X0382114Y0130250D02*
X0382949Y0129415D01*
X0379610Y0126076D01*
X0378775Y0126911D01*
X0382114Y0130250D01*
G37*
G36*
X0380722Y0131642D02*
X0381557Y0130807D01*
X0378218Y0127468D01*
X0377383Y0128303D01*
X0380722Y0131642D01*
G37*
G36*
X0379330Y0133034D02*
X0380165Y0132199D01*
X0376826Y0128860D01*
X0375991Y0129695D01*
X0379330Y0133034D01*
G37*
G36*
X0369029Y0129695D02*
X0368194Y0128860D01*
X0364855Y0132199D01*
X0365690Y0133034D01*
X0369029Y0129695D01*
G37*
G36*
X0367637Y0128303D02*
X0366802Y0127468D01*
X0363463Y0130807D01*
X0364298Y0131642D01*
X0367637Y0128303D01*
G37*
G36*
X0366245Y0126911D02*
X0365410Y0126076D01*
X0362071Y0129415D01*
X0362906Y0130250D01*
X0366245Y0126911D01*
G37*
G36*
X0364853Y0125519D02*
X0364018Y0124684D01*
X0360679Y0128023D01*
X0361514Y0128858D01*
X0364853Y0125519D01*
G37*
G36*
X0363461Y0124127D02*
X0362626Y0123292D01*
X0359287Y0126631D01*
X0360122Y0127466D01*
X0363461Y0124127D01*
G37*
G36*
X0362069Y0122735D02*
X0361234Y0121900D01*
X0357895Y0125239D01*
X0358730Y0126074D01*
X0362069Y0122735D01*
G37*
G36*
X0360677Y0121343D02*
X0359842Y0120508D01*
X0356503Y0123847D01*
X0357338Y0124682D01*
X0360677Y0121343D01*
G37*
G36*
X0359286Y0119951D02*
X0358451Y0119116D01*
X0355112Y0122455D01*
X0355947Y0123290D01*
X0359286Y0119951D01*
G37*
G36*
X0357894Y0118559D02*
X0357059Y0117724D01*
X0353720Y0121063D01*
X0354555Y0121898D01*
X0357894Y0118559D01*
G37*
G36*
X0356502Y0117167D02*
X0355667Y0116332D01*
X0352328Y0119671D01*
X0353163Y0120506D01*
X0356502Y0117167D01*
G37*
G36*
X0355110Y0115775D02*
X0354275Y0114940D01*
X0350936Y0118279D01*
X0351771Y0119114D01*
X0355110Y0115775D01*
G37*
G36*
X0353718Y0114384D02*
X0352883Y0113549D01*
X0349544Y0116888D01*
X0350379Y0117723D01*
X0353718Y0114384D01*
G37*
G36*
X0352326Y0112992D02*
X0351491Y0112157D01*
X0348152Y0115496D01*
X0348987Y0116331D01*
X0352326Y0112992D01*
G37*
G36*
X0350934Y0111600D02*
X0350099Y0110765D01*
X0346760Y0114104D01*
X0347595Y0114939D01*
X0350934Y0111600D01*
G37*
G36*
X0349542Y0110208D02*
X0348707Y0109373D01*
X0345368Y0112712D01*
X0346203Y0113547D01*
X0349542Y0110208D01*
G37*
G36*
X0348150Y0108816D02*
X0347315Y0107981D01*
X0343976Y0111320D01*
X0344811Y0112155D01*
X0348150Y0108816D01*
G37*
G36*
X0347315Y0101019D02*
X0348150Y0100184D01*
X0344811Y0096845D01*
X0343976Y0097680D01*
X0347315Y0101019D01*
G37*
G36*
X0348707Y0099627D02*
X0349542Y0098792D01*
X0346203Y0095453D01*
X0345368Y0096288D01*
X0348707Y0099627D01*
G37*
G36*
X0350099Y0098235D02*
X0350934Y0097400D01*
X0347595Y0094061D01*
X0346760Y0094896D01*
X0350099Y0098235D01*
G37*
G36*
X0351491Y0096843D02*
X0352326Y0096008D01*
X0348987Y0092669D01*
X0348152Y0093504D01*
X0351491Y0096843D01*
G37*
G36*
X0352883Y0095451D02*
X0353718Y0094616D01*
X0350379Y0091277D01*
X0349544Y0092112D01*
X0352883Y0095451D01*
G37*
G36*
X0354275Y0094060D02*
X0355110Y0093225D01*
X0351771Y0089886D01*
X0350936Y0090721D01*
X0354275Y0094060D01*
G37*
G36*
X0355667Y0092668D02*
X0356502Y0091833D01*
X0353163Y0088494D01*
X0352328Y0089329D01*
X0355667Y0092668D01*
G37*
G36*
X0357059Y0091276D02*
X0357894Y0090441D01*
X0354555Y0087102D01*
X0353720Y0087937D01*
X0357059Y0091276D01*
G37*
G36*
X0358451Y0089884D02*
X0359286Y0089049D01*
X0355947Y0085710D01*
X0355112Y0086545D01*
X0358451Y0089884D01*
G37*
G36*
X0359842Y0088492D02*
X0360677Y0087657D01*
X0357338Y0084318D01*
X0356503Y0085153D01*
X0359842Y0088492D01*
G37*
G36*
X0361234Y0087100D02*
X0362069Y0086265D01*
X0358730Y0082926D01*
X0357895Y0083761D01*
X0361234Y0087100D01*
G37*
G36*
X0362626Y0085708D02*
X0363461Y0084873D01*
X0360122Y0081534D01*
X0359287Y0082369D01*
X0362626Y0085708D01*
G37*
G36*
X0364018Y0084316D02*
X0364853Y0083481D01*
X0361514Y0080142D01*
X0360679Y0080977D01*
X0364018Y0084316D01*
G37*
G36*
X0365410Y0082924D02*
X0366245Y0082089D01*
X0362906Y0078750D01*
X0362071Y0079585D01*
X0365410Y0082924D01*
G37*
G36*
X0366802Y0081532D02*
X0367637Y0080697D01*
X0364298Y0077358D01*
X0363463Y0078193D01*
X0366802Y0081532D01*
G37*
G36*
X0368194Y0080140D02*
X0369029Y0079305D01*
X0365690Y0075966D01*
X0364855Y0076801D01*
X0368194Y0080140D01*
G37*
D21*
X0367589Y0168642D02*
X0367589Y0170807D01*
X0369557Y0170807D02*
X0369557Y0168642D01*
X0371526Y0168642D02*
X0371526Y0170807D01*
X0373494Y0170807D02*
X0373494Y0168642D01*
X0375463Y0168642D02*
X0375463Y0170807D01*
X0377431Y0170807D02*
X0377431Y0168642D01*
X0379203Y0172579D02*
X0381368Y0172579D01*
X0381368Y0174547D02*
X0379203Y0174547D01*
X0379203Y0176516D02*
X0381368Y0176516D01*
X0381368Y0178484D02*
X0379203Y0178484D01*
X0379203Y0180453D02*
X0381368Y0180453D01*
X0381368Y0182421D02*
X0379203Y0182421D01*
X0377431Y0184193D02*
X0377431Y0186358D01*
X0375463Y0186358D02*
X0375463Y0184193D01*
X0373494Y0184193D02*
X0373494Y0186358D01*
X0371526Y0186358D02*
X0371526Y0184193D01*
X0369557Y0184193D02*
X0369557Y0186358D01*
X0367589Y0186358D02*
X0367589Y0184193D01*
X0365817Y0182421D02*
X0363652Y0182421D01*
X0363652Y0180453D02*
X0365817Y0180453D01*
X0365817Y0178484D02*
X0363652Y0178484D01*
X0363652Y0176516D02*
X0365817Y0176516D01*
X0365817Y0174547D02*
X0363652Y0174547D01*
X0363652Y0172579D02*
X0365817Y0172579D01*
D22*
X0369754Y0174744D03*
X0375266Y0174744D03*
X0375266Y0180256D03*
X0369754Y0180256D03*
D23*
X0353510Y0197100D03*
D24*
X0353510Y0187850D03*
D25*
X0392510Y0185898D03*
X0392510Y0198102D03*
D26*
X0377510Y0199950D03*
X0372010Y0199950D03*
X0361710Y0199950D03*
X0361710Y0194050D03*
X0372010Y0194050D03*
X0377510Y0194050D03*
D27*
X0389060Y0179000D03*
X0394960Y0179000D03*
X0394960Y0173500D03*
X0389060Y0173500D03*
X0389060Y0168000D03*
X0394960Y0168000D03*
M02*
